<svg xmlns="http://www.w3.org/2000/svg" xmlns:xlink="http://www.w3.org/1999/xlink" width="282.739" height="24" viewBox="0 0 282.739 24"><defs><clipPath id="a"><path d="M0,0H21.726V23.078H0Z" fill="none"/></clipPath><clipPath id="b"><path d="M0,24H282.739V0H0Z" fill="none"/></clipPath></defs><g transform="translate(0 0.461)"><path d="M0,0H21.726V23.078H0Z" fill="none"/><g clip-path="url(#a)"><path d="M3.56,23.078H0L8.671,0H13.22l8.505,23.076H18.033l-2.142-6.1H5.738l-2.177,6.1ZM10.154,2.308A15.21,15.21,0,0,1,9.067,7.681L6.826,13.945H14.8L12.594,7.681a15.35,15.35,0,0,1-1.055-5.374Z" transform="translate(0)" fill="#1d1d1b"/></g></g><path d="M8.175,23.078V3.033H0V0H19.88V3.033H11.473V23.078Z" transform="translate(18.691 0.461)" fill="#1d1d1b"/><path d="M0,23.078V0H16.318V3.033H3.3V9.626h9.626v3H3.3v7.417H16.318v3.034Z" transform="translate(40.548 0.461)" fill="#1d1d1b"/><path d="M0,23.078V0H3.3V19.978H15.725v3.1Z" transform="translate(60.128 0.461)" fill="#1d1d1b"/><path d="M0,24H282.739V0H0Z" fill="none"/><g clip-path="url(#b)"><path d="M0,23.078H3.3V0H0Z" transform="translate(77.831 0.461)" fill="#1d1d1b"/><path d="M0,23.078V0H16.318V3.033H3.3V9.626h9.626v3H3.3v7.417H16.318v3.034Z" transform="translate(86.072 0.461)" fill="#1d1d1b"/><path d="M3.3,23.078H0V0H9.857a8.149,8.149,0,0,1,5.518,1.809,5.781,5.781,0,0,1,1.933,4.454,4.629,4.629,0,0,1-1.916,4.031A7.787,7.787,0,0,1,11.374,11.5V12.89a5.488,5.488,0,0,1,3.618,1.055,5.63,5.63,0,0,1,1.591,3.329l1.154,5.8H14.143l-.924-5.505c-.519-2.894-1.96-4.022-5.142-4.022H3.3v9.527Zm0-20.045v7.549H9.362c2.85,0,4.484-1.382,4.484-3.791,0-2.389-1.634-3.758-4.484-3.758Z" transform="translate(105.653 0.462)" fill="#1d1d1b"/><path d="M0,12C0,4.912,5.242,0,11.572,0c5.868,0,9.2,3.429,10.384,6.924L18.594,8.275c-1.122-3.033-3.2-5.209-7.088-5.209-4.055,0-7.979,3.034-7.979,8.9C3.527,17.7,6.758,21,11.374,21c4.45,0,6.923-3.033,7.121-5.8H10.516V12.166H21.89V23.54h-3.2a11.872,11.872,0,0,1,1.286-4.913H18.429A8.019,8.019,0,0,1,10.417,24C4.319,24,0,19.385,0,12" transform="translate(131.891 -0.001)" fill="#1d1d1b"/><path d="M3.56,23.078H0L8.671,0H13.22l8.505,23.076H18.033l-2.143-6.1H5.737l-2.176,6.1ZM10.154,2.308A15.213,15.213,0,0,1,9.066,7.681L6.825,13.945H14.8l-2.21-6.263a15.371,15.371,0,0,1-1.056-5.374Z" transform="translate(154.769 0.461)" fill="#1d1d1b"/><path d="M3.3,23.078H0V0H9.857a8.149,8.149,0,0,1,5.518,1.809,5.781,5.781,0,0,1,1.933,4.454,4.629,4.629,0,0,1-1.916,4.031A7.787,7.787,0,0,1,11.374,11.5V12.89a5.488,5.488,0,0,1,3.618,1.055,5.63,5.63,0,0,1,1.591,3.329l1.154,5.8H14.144l-.925-5.505c-.519-2.894-1.96-4.022-5.142-4.022H3.3v9.527Zm0-20.045v7.549H9.362c2.85,0,4.484-1.382,4.484-3.791,0-2.389-1.634-3.758-4.484-3.758Z" transform="translate(178.702 0.462)" fill="#1d1d1b"/><path d="M7.912,23.078H0V0H8.077c6.666,0,11.145,4.61,11.145,11.472C19.221,18.631,14.888,23.078,7.912,23.078ZM3.3,3.033V20.044H7.418c2.786,0,4.9-.731,6.284-2.172,1.365-1.422,2.056-3.575,2.056-6.4,0-5.363-2.956-8.439-8.109-8.439Z" transform="translate(199.798 0.461)" fill="#1d1d1b"/><path d="M0,23.078V0H16.319V3.033H3.3V9.626h9.627v3H3.3v7.417H16.319v3.034Z" transform="translate(222.379 0.461)" fill="#1d1d1b"/><path d="M0,23.078V0H5.044l12.1,19.088,1.186-.824c-1.186-1.879-1.549-3.132-1.549-6.034V0h3.3V23.078H15.989L3.1,2.769l-1.187.759A13.317,13.317,0,0,1,3.3,10.22V23.078Z" transform="translate(241.961 0.461)" fill="#1d1d1b"/><path d="M0,17.6l3.2-1.451c.825,2.638,2.737,4.879,6.363,4.879,3.165,0,4.878-1.516,4.878-3.692,0-1.912-1.352-3.066-4.186-3.66l-3.066-.692c-3.593-.758-6.033-2.506-6.033-6.429C1.154,2.835,4.32,0,9.2,0c5.078,0,7.648,3.132,8.341,5.439l-3.1,1.418A5.447,5.447,0,0,0,8.9,2.967c-2.869,0-4.45,1.451-4.45,3.429,0,1.879,1.153,2.8,3.659,3.362l3.165.693c3.857.824,6.627,3,6.627,6.593C17.9,21.066,14.934,24,9.364,24,4.22,24,1.088,21.232,0,17.6" transform="translate(264.838 0)" fill="#1d1d1b"/></g></svg>