<svg version="1.1" id="Layer_1" xmlns="http://www.w3.org/2000/svg" x="0" y="0" viewBox="0 0 3000 3000" xml:space="preserve"><path fill="#006fba" d="M0 0h3000v3000H0z"/><path d="M509.3 662.9c48.9 0 89.4-20.3 116.3-44.3V503.1H506v29.4h88.2v72c-19.9 16.1-50.5 29-83.6 29-70.4 0-114.7-51.3-114.7-120.9 0-65 46-119.2 110.1-119.2 41 0 65.8 13.7 88.2 33.1l21.1-24.8c-29-24.4-59.2-38.5-108.1-38.5-86.9 0-145.3 70.4-145.3 150.3.1 83.1 56.4 149.4 147.4 149.4zm399.6-35.2H745.8V368.1H713v289.8h195.9zm192.1 35.2c88.2 0 148.2-70 148.2-150.3 0-80.3-59.2-149.5-147.4-149.5s-148.2 70-148.2 150.3 59.2 149.5 147.4 149.5zm0-269.5c66.2 0 114.3 53.8 114.3 120.1 0 66.2-47.2 119.2-113.4 119.2s-114.3-53.8-114.3-120.1c-.1-66.2 47.1-119.2 113.4-119.2zm464.9 185c0-40.2-27.7-60-62.1-70.4 22.8-9.9 46-29.4 46-67.5 0-44.3-37.3-72.5-94.4-72.5H1332v289.8h128.8c63.3.1 105.1-29.3 105.1-79.4zm-201.6-180.9h88.2c41.4 0 64.2 18.6 64.2 47.6 0 34.4-27.3 52.2-66.7 52.2h-85.7v-99.8zm0 128.8h91.5c50.5 0 77 18.2 77 50.1 0 32.7-27.3 52.2-71.2 52.2h-97.3V526.3zm323.3 55h157.7l33.9 76.6h35.2l-132-291.9h-30.6l-132.1 291.9h33.5l34.4-76.6zm79.1-177.2l65.8 147.8h-132.1l66.3-147.8zm414.5 223.6H2018V368.1h-32.7v289.8h195.9zM417.8 995.4h157.7l33.9 76.6h35.2L512.7 780.1H482L349.9 1072h33.5l34.4-76.6zm79.1-177.2L562.8 966H430.7l66.2-147.8zm251.3-36.1h-32.7V1072h195.9v-30.3H748.2zm237.3 0V1072h195.8v-30.3h-163.1V782.1zm272.8 0h32.7v289.8h-32.7zm366 289.9h35.2l-132.1-291.9h-30.6L1364.7 1072h33.5l34.4-76.6h157.7l34 76.6zm-178.9-106l66.2-147.8 65.8 147.8h-132zm284.9-183.9V1072h31.9V834.3l187.1 237.7h26.1V782.1h-31.9v232.3l-182.6-232.3zm327.9 145.4c0 83.6 61.7 149.5 145.3 149.5 52.6 0 85.7-20.3 115.9-50.9l-21.5-21.1c-27.7 26.5-53.8 41.8-93.6 41.8-63.8 0-112.2-52.6-112.2-120.1s48-119.2 112.2-119.2c39.3 0 66.7 16.6 91.1 39.7l22.4-24c-29-27.3-60.4-46-113-46-85.3 0-146.6 67.5-146.6 150.3zm543.6 114.6H2423V940.7h158.1v-29.8H2423v-99h176.7v-29.8h-209.5V1072h211.6zm35.9 954H2436v-155.4h162.9l-10.6-65.8H2436V1641h195v-65.8h-265.5v486.7h272.2zM962.5 2650.6h70.5v-213.8h157.6l-10.7-65.8H1033v-141.3h185.6v-65.8H962.5zm931.3-777.1v-298.3h-70.5v298.3c0 82.6-42.2 129.9-115.9 129.9-73.2 0-115.2-48.3-115.2-132.6v-295.6h-70.5v301.6c0 116.9 72.6 192.4 185 192.4 115.5.1 187.1-74.9 187.1-195.7zm79.4 281.7c-130.3 0-221.2 103.9-221.2 252.7 0 148 90.4 251.4 219.9 251.4 130.6 0 221.9-103.9 221.9-252.7-.1-148-90.8-251.4-220.6-251.4zm0 438.3c-89.4 0-149.4-75.1-149.4-186.9 0-111 59.8-185.6 148.7-185.6 89.4 0 149.4 75.1 149.4 186.9 0 111-59.8 185.6-148.7 185.6zm-651.7-531.6V1641h153.6l-10.6-65.8h-362.9v65.8h150.1v420.9zm1088.6 102H2272v486.6h136.1c154.7 0 254.7-95.8 254.7-244 0-149.6-96.8-242.6-252.7-242.6zm.7 420.9h-68.3v-355h68.3c114.5 0 180.2 64.7 180.2 177.5 0 114.4-64 177.5-180.2 177.5zm-1362.7-711.3v-298.3h-70.5v298.3c0 82.6-42.2 129.9-115.9 129.9-73.2 0-115.2-48.3-115.2-132.6v-295.6H676v301.6c0 116.9 72.6 192.4 185 192.4 115.4.1 187.1-74.9 187.1-195.7zm1125.9-26.8c64.9-19.7 101.9-68 101.9-133.3 0-85.2-61.4-138.1-160.3-138.1h-130v486.6h70.5v-204.4h41.3l151.1 210.5 72.7-15.7-147.2-205.6zm-118-53v-153.4h57.6c60.5 0 91.1 25.5 91.1 75.7 0 67.6-62.1 77.6-99.2 77.6H2056zm-582.1 361.5c-130.3 0-221.2 103.9-221.2 252.7 0 148 90.4 251.4 219.9 251.4 130.6 0 221.9-103.9 221.9-252.7-.1-148-90.8-251.4-220.6-251.4zm0 438.3c-89.4 0-149.4-75.1-149.4-186.9 0-111 59.8-185.6 148.7-185.6 89.4 0 149.4 75.1 149.4 186.9 0 111-59.8 185.6-148.7 185.6zM434.2 1782.3V1641h185.7v-65.8H363.7v486.7h70.5v-213.8h157.6l-10.6-65.8zm88.5-541v-22.4H362.3v224.4H386v-98.2h122.7v-22.4H386v-81.4zm27.1 89.8v.6c0 65.7 48.4 115.3 112.5 115.3 70.2 0 112.4-57.9 113.2-114.5l.3-.3-.3-3.3c-.7-65-48.9-113.8-112.5-113.8-70.9 0-113.2 59-113.2 116zm112.5-93.8c49.8 0 88.9 41.2 88.9 93.8v.6c0 53.1-37.9 93.2-88.2 93.2-49.8 0-88.9-41.2-88.9-94.4s37.9-93.2 88.2-93.2zm160.4 206h23.7v-89.9h65.3l69.1 89.9h30l-72.4-93.7c38-7.2 60.4-31.1 60.4-65.3 0-16.2-6.4-31.8-17.5-42.9-14.5-14.5-37.1-22.5-63.7-22.5h-94.9v224.4zm23.7-202h70.3c36.6 0 58.5 16.3 58.5 44.2 0 27.8-23.3 45.8-59.4 45.8h-69.4v-90zm377.1 202v-202h75.6v-22.4h-174.9v22.4h75.6v202zm295.6 0v-224.4h-23.7v100.3h-131.2v-100.3h-23.7v224.4h23.7v-101.6h131.2v101.6zm220.3-22.4h-139.7v-79.5h124.2v-22.5h-124.2v-77.6h138.2v-22.4H1576v224.4h163.4zm-1283 733.3c-70.3 0-112.3 58.5-112.3 115.1v.6c0 30.3 10.8 58.7 30.5 79.9 20.6 22.3 49.4 34.5 81.2 34.5 69.8 0 111.7-57.6 112.3-113.8l1.5-2-1.5-1.5c-.8-64.4-48.6-112.8-111.7-112.8zm87.5 115.7c0 52.7-37.6 92.5-87.5 92.5-49.4 0-88.2-40.9-88.2-93.7 0-52.7 37.6-92.4 87.5-92.4 49.4 0 88.2 40.9 88.2 93.1v.5zm71 110.8h23.5v-97.5h121.8v-22.3H638.4v-80.7H774v-22.3H614.9z" fill="#fff"/></svg>