<svg xmlns="http://www.w3.org/2000/svg" width="84" height="100" viewBox="0 0 84 100"><style type="text/css">.st0{fill:#00559D;}</style><path class="st0" d="M37.682 25.067c1.037 1.755 3.302 2.338 5.059 1.303 1.758-1.036 2.341-3.299 1.304-5.054-1.038-1.755-3.302-2.338-5.06-1.302-1.756 1.035-2.34 3.298-1.303 5.053zm4.892 13.269l-.516.006c.503-3.184 1.825-5.661 3.178-7.455.641-.85 7.183-8.083 2.148-13.453l-.334 1.613c2.102 3.643-1.622 7.947-6.705 10.322-10.791 5.276-9.795 10.779-9.074 13.01.117.478.323.988.639 1.538l-1.166.586c-.378-.719-1.108-2.438-.566-4.658-8.619 2.239-14.506 6.74-14.506 11.928 0 2.22 1.079 4.314 2.987 6.159-.301-.532-.458-1.079-.458-1.636 0-3.449 6.009-6.482 15.098-8.236-6.63 1.921-10.883 4.876-10.883 8.195 0 3.223 4.086 6.606 10.313 8.026 3.05.6 6.371.929 9.846.929 14.858 0 26.904-6.016 26.904-13.437-.001-7.421-12.046-13.437-26.905-13.437zm-4.669.229c-1.898.177-3.723.457-5.459.822.329-2.643 3.88-4.087 7.208-5.432-2.307 5.736.128 11.73 2.7 15.71.642 1.928 1.564 3.992 2.834 6.196-1.507-1.018-8.479-9.027-7.283-17.296zm-26.42 49.379c-1.264.509-3.093.867-4.488.867-1.396 0-3.131-.151-4.526-1.093-1.415-.98-2.471-2.788-2.471-5.557 0-1.601.34-3.297 1.414-4.653 1.018-1.319 2.791-2.298 5.677-2.298 1.49 0 3.13.245 4.224.81v3.259h-.66c-.49-1.808-1.49-3.278-3.583-3.278-3.395 0-4.168 3.598-4.168 5.84 0 1.714.415 6.179 4.149 6.179.604 0 1.018-.057 1.358-.188.339-.132.471-.339.471-.829v-2.619c0-.942-.132-1.017-1.754-1.13v-.641h5.526v.641c-1.037.113-1.169.188-1.169 1.111v3.579zm7.11.019c-1.452 0-2.093-1.507-2.093-4.05s.641-4.05 2.093-4.05c1.471 0 2.112 1.507 2.112 4.05s-.641 4.05-2.112 4.05zm0 .792c3.3 0 4.752-1.809 4.752-4.842 0-3.033-1.452-4.841-4.752-4.841-3.281 0-4.734 1.808-4.734 4.841.001 3.033 1.453 4.842 4.734 4.842zm9.769-1.866c0 .848.132.923 1.301.98v.659h-5.073v-.659c1.169-.057 1.301-.132 1.301-.98v-5.689c0-.716-.132-.848-.49-.904l-.679-.094v-.603l3.508-.527.132.113v7.704zm-2.81-10.417c0-.81.585-1.469 1.509-1.469.943 0 1.528.659 1.528 1.469-.019.81-.622 1.47-1.528 1.47-.924-.001-1.509-.66-1.509-1.47zm13.182.509c0-.528.17-.697 1.226-.697 1.509 0 2.621.942 2.621 3.071 0 1.771-.867 3.146-2.715 3.146-.905 0-1.132-.075-1.132-.792v-4.728zm-4.168 11.547h6.034v-.659c-1.753-.075-1.867-.132-1.867-1.131v-3.447h1.075c1.471 0 2.678-.245 3.507-.678 1.094-.584 2.018-1.601 2.018-3.316 0-1.507-.679-2.524-1.546-3.051-.943-.584-2.188-.754-3.639-.754h-5.582v.659c1.452.075 1.565.132 1.565 1.13v9.457c0 .998-.113 1.055-1.565 1.131v.659zm13.867-5.651c0-1.149.321-3.014 1.811-3.014 1.358 0 1.546 1.564 1.546 2.393 0 .49-.132.621-.604.621h-2.753zm5.205 2.807c-.547 1.093-1.32 1.808-2.602 1.808-2.056 0-2.621-1.808-2.621-3.786h5.073c.585 0 .924-.151.924-.772 0-1.055-.264-3.862-4.111-3.862-1.547 0-2.678.546-3.433 1.432-.754.885-1.094 2.11-1.094 3.429 0 2.732 1.245 4.842 4.545 4.823 2.188 0 3.357-1.112 3.96-2.713l-.641-.359zm7.749.264c-.019 1.187-.849 1.507-1.433 1.507-.886 0-1.509-.659-1.509-1.715 0-.904.339-1.318 1.094-1.677.698-.339 1.414-.584 1.848-.81v2.695zm3.941 1.676c-.264.037-.641.019-.924-.057-.283-.075-.622-.339-.622-1.488v-4.333c0-1.168-.245-2.675-3.395-2.675-2.527 0-4.206 1.093-4.206 2.261 0 .754 1.018 1.074 1.433 1.074.396 0 .604-.264.736-.679.49-1.526 1.151-1.865 1.773-1.865.604 0 1.263.339 1.263 1.564v.98c-.886.509-2.263.904-3.507 1.299-1.509.49-1.98 1.281-1.98 2.336 0 1.432.981 2.713 2.829 2.713 1.15 0 2.056-.679 2.697-1.112.264.622.566 1.112 1.395 1.112.868 0 1.924-.283 2.584-.565l-.076-.565zm9.015-1.676c-.66 2.223-2.414 2.807-3.904 2.807-2.715 0-4.413-1.582-4.413-4.766 0-1.488.415-2.713 1.207-3.579.773-.848 1.942-1.338 3.489-1.338 1.848 0 3.508.791 3.508 1.978 0 .792-.868 1.093-1.433 1.093-.453 0-.66-.207-.773-.584-.339-1.093-.735-1.695-1.471-1.695-1 0-1.886 1.055-1.886 3.73 0 2.506.943 3.899 2.527 3.899 1.169 0 1.905-.546 2.527-1.827l.622.282zm3.677-3.071c0-1.149.321-3.014 1.81-3.014 1.358 0 1.546 1.564 1.546 2.393 0 .49-.132.621-.603.621h-2.753zm5.205 2.807c-.547 1.093-1.32 1.808-2.602 1.808-2.056 0-2.621-1.808-2.621-3.786h5.073c.585 0 .924-.151.924-.772 0-1.055-.264-3.862-4.111-3.862-1.546 0-2.678.546-3.432 1.432-.754.885-1.094 2.11-1.094 3.429 0 2.732 1.245 4.842 4.545 4.823 2.188 0 3.357-1.112 3.96-2.713l-.642-.359zm-75.228 13.827c.802-.042.864-.072.864-.624v-5.221c0-.551-.062-.582-.864-.624v-.364h5.446v1.83h-.364c-.26-1.029-.469-1.394-1.583-1.394h-.823c-.302 0-.375.063-.375.375v2.558h1.291c.739 0 .843-.208.979-.925h.364v2.34h-.364c-.135-.728-.239-.925-.979-.925h-1.291v2.34c0 .562.073.593 1.041.634v.364h-3.342v-.364zm9.977.052c-.802 0-1.156-.832-1.156-2.236s.354-2.236 1.156-2.236c.812 0 1.166.832 1.166 2.236s-.354 2.236-1.166 2.236zm0 .437c1.822 0 2.624-.998 2.624-2.673s-.802-2.673-2.624-2.673c-1.812 0-2.614.998-2.614 2.673s.802 2.673 2.614 2.673zm8.561-.718c-.375.198-.979.718-1.864.718-.76 0-1.499-.354-1.499-1.56v-2.611c0-.395-.073-.468-.281-.499l-.375-.052v-.333l1.947-.291.073.063v3.401c0 .811.385 1.165.927 1.165.479 0 .843-.281.989-.603.062-.135.083-.385.083-.603v-2.246c0-.395-.073-.468-.281-.499l-.375-.052v-.333l1.947-.291.073.063v4.254c0 .468.073.51.708.541v.364h-1.979l-.093-.596zm4.05.229c.645-.031.708-.072.708-.541v-3.141c0-.395-.073-.468-.271-.499l-.385-.052v-.333l1.874-.291.146.749c.666-.416 1.156-.749 1.812-.749 1.041 0 1.562.614 1.562 1.623v2.694c0 .468.073.51.718.541v.364h-2.718v-.364l.271-.02c.281-.021.364-.094.364-.479v-2.569c0-.728-.333-1.072-.916-1.072-.479 0-.823.271-.989.593-.083.156-.104.354-.104.603v2.444c0 .385.083.458.375.479l.26.02v.364h-2.707v-.364zm11.472-1.279c0 .156-.011.312-.062.468-.125.364-.427.582-.916.582-.781 0-1.239-.749-1.239-2.038 0-1.456.542-2.153 1.291-2.153.427 0 .698.218.844.499.083.166.083.364.083.603v2.039zm0 1.591l.031.052h2.051v-.364c-.646-.031-.719-.072-.719-.541v-6.75l-.073-.063-1.947.271v.333l.375.063c.208.031.281.104.281.51v1.466c-.25-.094-.573-.146-.927-.146-.854 0-1.53.25-1.978.687-.479.468-.77 1.144-.77 2.08 0 1.529.781 2.58 2.124 2.58.448 0 .989-.219 1.551-.666v.488zm6.937-1.373c-.011.655-.469.832-.791.832-.49 0-.833-.364-.833-.946 0-.499.188-.728.604-.926l1.021-.447v1.487zm2.176.926c-.146.021-.354.011-.51-.031-.156-.042-.344-.188-.344-.822v-2.392c0-.645-.135-1.477-1.874-1.477-1.395 0-2.322.603-2.322 1.248 0 .416.562.593.791.593.219 0 .333-.146.406-.375.271-.842.636-1.029.979-1.029.333 0 .698.187.698.863v.541c-.489.281-1.249.499-1.937.717-.833.271-1.093.707-1.093 1.29 0 .791.542 1.498 1.562 1.498.635 0 1.135-.375 1.489-.614.146.343.312.614.77.614.479 0 1.062-.156 1.427-.312l-.042-.312zm4.729-4.119h-1.166v3.058c0 .707.292.988.666.988.24 0 .458-.042.646-.115l.104.281c-.478.302-1.072.531-1.541.531-.5 0-1.239-.302-1.239-1.29v-3.453h-.656v-.478h.698l.823-1.311h.5v1.311h1.166v.478zm4.155 3.713c0 .468.073.51.718.541v.364h-2.801v-.364c.645-.031.719-.072.719-.541v-3.141c0-.395-.073-.468-.271-.499l-.375-.052v-.333l1.937-.291.073.063v4.253zm-1.551-5.752c0-.447.323-.811.833-.811.521 0 .843.364.843.811-.011.447-.344.811-.843.811-.511.001-.833-.363-.833-.811zm6.815 6.345c-.802 0-1.156-.832-1.156-2.236s.354-2.236 1.156-2.236c.812 0 1.166.832 1.166 2.236s-.353 2.236-1.166 2.236zm0 .437c1.822 0 2.624-.998 2.624-2.673s-.802-2.673-2.624-2.673c-1.812 0-2.613.998-2.613 2.673s.802 2.673 2.613 2.673zm4.584-.489c.646-.031.708-.072.708-.541v-3.141c0-.395-.073-.468-.271-.499l-.385-.052v-.333l1.874-.291.146.749c.667-.416 1.156-.749 1.812-.749 1.041 0 1.562.614 1.562 1.623v2.694c0 .468.073.51.718.541v.364h-2.717v-.364l.27-.02c.281-.021.365-.094.365-.479v-2.569c0-.728-.333-1.072-.916-1.072-.479 0-.822.271-.989.593-.083.156-.104.354-.104.603v2.444c0 .385.083.458.375.479l.26.02v.364h-2.707v-.364zm-22.763-92.269l-.047.685 5.056-.914-4.771-1.921.693-5.092-3.304 3.938-4.632-2.232 2.826 4.588-3.655 3.48 4.99-1.246 2.435 4.525.002-.017-1.4-7.277z"/></svg>