<?xml version="1.0" encoding="UTF-8" standalone="no"?>
<svg
   xmlns:dc="http://purl.org/dc/elements/1.1/"
   xmlns:cc="http://creativecommons.org/ns#"
   xmlns:rdf="http://www.w3.org/1999/02/22-rdf-syntax-ns#"
   xmlns:svg="http://www.w3.org/2000/svg"
   xmlns="http://www.w3.org/2000/svg"
   xmlns:xlink="http://www.w3.org/1999/xlink"
   xmlns:sodipodi="http://sodipodi.sourceforge.net/DTD/sodipodi-0.dtd"
   xmlns:inkscape="http://www.inkscape.org/namespaces/inkscape"
   version="1.1"
   id="Layer_1"
   x="0px"
   y="0px"
   width="322.95901"
   height="60.717999"
   viewBox="0 0 322.95901 60.718"
   enable-background="new 0 0 250.932 60.718"
   xml:space="preserve"
   sodipodi:docname="logo-guerrilla-simple-white.svg"
   inkscape:version="1.0.2 (e86c870, 2021-01-15)"><metadata
   id="metadata93"><rdf:RDF><cc:Work
       rdf:about=""><dc:format>image/svg+xml</dc:format><dc:type
         rdf:resource="http://purl.org/dc/dcmitype/StillImage" /><dc:title></dc:title></cc:Work></rdf:RDF></metadata><defs
   id="defs91">
	<defs
   id="defs3">
		<rect
   id="SVGID_1_"
   width="250.93201"
   height="60.717999"
   x="0"
   y="0" />
	</defs>
	<clipPath
   id="SVGID_2_">
		<use
   xlink:href="#SVGID_1_"
   overflow="visible"
   id="use5"
   x="0"
   y="0"
   width="100%"
   height="100%" />
	</clipPath>
	
	
	
	
	
	
	
	
	
	
	
	
	
	
	
	
	
	
	
	
	
	
	
	
	
	
	
	
	
	
	
	
	
	
	
	
	
	
	
</defs><sodipodi:namedview
   pagecolor="#ffffff"
   bordercolor="#666666"
   borderopacity="1"
   objecttolerance="10"
   gridtolerance="10"
   guidetolerance="10"
   inkscape:pageopacity="0"
   inkscape:pageshadow="2"
   inkscape:window-width="1920"
   inkscape:window-height="1013"
   id="namedview89"
   showgrid="false"
   borderlayer="true"
   inkscape:zoom="2.6182391"
   inkscape:cx="201.44314"
   inkscape:cy="34.405213"
   inkscape:window-x="0"
   inkscape:window-y="43"
   inkscape:window-maximized="1"
   inkscape:current-layer="Layer_1"
   showguides="true"
   inkscape:guide-bbox="true" />
<path
   clip-path="url(#SVGID_2_)"
   fill="#ffffff"
   d="M 87.492,8.612 V 8.565 c 0,-4.8 3.766,-8.565 8.871,-8.565 2.918,0 4.918,0.895 6.682,2.4 l -2.682,3.224 C 99.164,4.611 98.01,4.071 96.385,4.071 c -2.352,0 -4.211,1.999 -4.211,4.518 v 0.047 c 0,2.659 1.859,4.564 4.47,4.564 1.059,0 1.955,-0.235 2.637,-0.683 V 10.518 H 96.033 V 7.176 h 7.578 v 7.413 c -1.765,1.436 -4.142,2.542 -7.154,2.542 -5.131,0 -8.965,-3.554 -8.965,-8.519"
   id="path8"
   transform="matrix(1.4406928,0,0,1.4406928,-38.557098,0)" /><path
   clip-path="url(#SVGID_2_)"
   fill="#ffffff"
   d="M 105.941,9.577 V 0.329 h 4.637 v 9.154 c 0,2.376 1.175,3.506 3.035,3.506 1.859,0 3.035,-1.059 3.035,-3.389 V 0.329 h 4.637 v 9.13 c 0,5.318 -3.037,7.648 -7.719,7.648 -4.707,0 -7.625,-2.353 -7.625,-7.53"
   id="path10"
   transform="matrix(1.4406928,0,0,1.4406928,-38.557098,0)" /><polygon
   clip-path="url(#SVGID_2_)"
   fill="#ffffff"
   points="136.416,10.307 128.51,10.307 128.51,12.917 137.357,12.917 137.357,16.802 123.992,16.802 123.992,0.329 137.24,0.329 137.24,4.212 128.51,4.212 128.51,6.705 136.416,6.705 "
   id="polygon12"
   transform="matrix(1.4406928,0,0,1.4406928,-38.557098,0)" /><path
   clip-path="url(#SVGID_2_)"
   fill="#ffffff"
   d="m 139.689,0.33 h 7.789 c 2.541,0 4.26,0.657 5.365,1.787 0.965,0.941 1.459,2.214 1.459,3.836 v 0.048 c 0,2.541 -1.316,4.188 -3.389,5.058 l 3.93,5.742 h -5.271 l -3.319,-4.989 h -0.045 -1.955 v 4.989 h -4.564 z m 7.577,7.905 c 1.578,0 2.449,-0.753 2.449,-1.953 V 6.235 c 0,-1.317 -0.941,-1.954 -2.472,-1.954 h -2.989 v 3.954 z"
   id="path14"
   transform="matrix(1.4406928,0,0,1.4406928,-38.557098,0)" /><path
   clip-path="url(#SVGID_2_)"
   fill="#ffffff"
   d="m 156.611,0.33 h 7.789 c 2.541,0 4.258,0.657 5.363,1.787 0.967,0.941 1.459,2.214 1.459,3.836 v 0.048 c 0,2.541 -1.316,4.188 -3.389,5.058 l 3.93,5.742 h -5.271 l -3.317,-4.989 h -0.047 -1.953 v 4.989 h -4.564 z m 7.577,7.905 c 1.576,0 2.447,-0.753 2.447,-1.953 V 6.235 c 0,-1.317 -0.941,-1.954 -2.47,-1.954 h -2.989 v 3.954 z"
   id="path16"
   transform="matrix(1.4406928,0,0,1.4406928,-38.557098,0)" /><rect
   x="173.625"
   y="0.33000001"
   clip-path="url(#SVGID_2_)"
   fill="#ffffff"
   width="4.5900002"
   height="16.472"
   id="rect18"
   transform="matrix(1.4406928,0,0,1.4406928,-38.557098,0)" /><polygon
   clip-path="url(#SVGID_2_)"
   fill="#ffffff"
   points="181.227,0.329 185.791,0.329 185.791,12.801 193.77,12.801 193.77,16.802 181.227,16.802 "
   id="polygon20"
   transform="matrix(1.4406928,0,0,1.4406928,-38.557098,0)" /><polygon
   clip-path="url(#SVGID_2_)"
   fill="#ffffff"
   points="195.725,0.329 200.287,0.329 200.287,12.801 208.266,12.801 208.266,16.802 195.725,16.802 "
   id="polygon22"
   transform="matrix(1.4406928,0,0,1.4406928,-38.557098,0)" /><path
   clip-path="url(#SVGID_2_)"
   fill="#ffffff"
   d="m 215.914,0.212 h 4.402 l 7.012,16.59 h -4.894 l -1.2,-2.942 h -6.355 l -1.176,2.942 h -4.799 z m 4.002,10.095 -1.836,-4.684 -1.859,4.684 z"
   id="path24"
   transform="matrix(1.4406928,0,0,1.4406928,-38.557098,0)" /><polygon
   clip-path="url(#SVGID_2_)"
   fill="#ffffff"
   points="100.411,36.262 92.621,36.262 92.621,42.145 88.057,42.145 88.057,25.674 101.234,25.674 101.234,29.674 92.621,29.674 92.621,32.475 100.411,32.475 "
   id="polygon26"
   transform="matrix(1.4406928,0,0,1.4406928,-38.557098,0)" /><path
   clip-path="url(#SVGID_2_)"
   fill="#ffffff"
   d="M 102.742,33.957 V 33.91 c 0,-4.73 3.813,-8.566 8.895,-8.566 5.082,0 8.847,3.812 8.847,8.519 v 0.048 c 0,4.729 -3.812,8.564 -8.894,8.564 -5.084,0 -8.848,-3.812 -8.848,-8.518 m 13.084,0 V 33.91 c 0,-2.354 -1.719,-4.447 -4.236,-4.447 -2.496,0 -4.166,2.023 -4.166,4.399 v 0.048 c 0,2.352 1.695,4.445 4.213,4.445 2.517,0 4.189,-2.022 4.189,-4.398"
   id="path28"
   transform="matrix(1.4406928,0,0,1.4406928,-38.557098,0)" /><path
   clip-path="url(#SVGID_2_)"
   fill="#ffffff"
   d="m 122.652,34.922 v -9.249 h 4.635 v 9.154 c 0,2.376 1.176,3.505 3.035,3.505 1.857,0 3.035,-1.058 3.035,-3.388 v -9.271 h 4.637 v 9.13 c 0,5.318 -3.035,7.649 -7.719,7.649 -4.705,0 -7.623,-2.353 -7.623,-7.53"
   id="path30"
   transform="matrix(1.4406928,0,0,1.4406928,-38.557098,0)" /><polygon
   clip-path="url(#SVGID_2_)"
   fill="#ffffff"
   points="152.256,42.145 145.221,33.109 145.221,42.145 140.703,42.145 140.703,25.674 144.961,25.674 151.738,34.38 151.738,25.674 156.256,25.674 156.256,42.145 "
   id="polygon32"
   transform="matrix(1.4406928,0,0,1.4406928,-38.557098,0)" /><path
   clip-path="url(#SVGID_2_)"
   fill="#ffffff"
   d="m 159.176,25.674 h 6.354 c 5.906,0 9.293,3.364 9.293,8.142 v 0.047 c 0,4.777 -3.457,8.282 -9.389,8.282 h -6.258 z m 6.424,12.424 c 2.73,0 4.541,-1.505 4.541,-4.165 v -0.047 c 0,-2.636 -1.811,-4.165 -4.541,-4.165 h -1.859 v 8.377 z"
   id="path34"
   transform="matrix(1.4406928,0,0,1.4406928,-38.557098,0)" /><path
   clip-path="url(#SVGID_2_)"
   fill="#ffffff"
   d="m 181.697,25.556 h 4.4 l 7.012,16.59 h -4.894 l -1.2,-2.941 h -6.353 l -1.178,2.941 h -4.799 z m 4,10.095 -1.836,-4.684 -1.859,4.684 z"
   id="path36"
   transform="matrix(1.4406928,0,0,1.4406928,-38.557098,0)" /><polygon
   clip-path="url(#SVGID_2_)"
   fill="#ffffff"
   points="201.183,42.146 196.619,42.146 196.619,29.673 191.676,29.673 191.676,25.673 206.125,25.673 206.125,29.673 201.183,29.673 "
   id="polygon38"
   transform="matrix(1.4406928,0,0,1.4406928,-38.557098,0)" /><rect
   x="208.22099"
   y="25.674"
   clip-path="url(#SVGID_2_)"
   fill="#ffffff"
   width="4.5879998"
   height="16.471001"
   id="rect40"
   transform="matrix(1.4406928,0,0,1.4406928,-38.557098,0)" /><path
   clip-path="url(#SVGID_2_)"
   fill="#ffffff"
   d="M 215.258,33.957 V 33.91 c 0,-4.73 3.812,-8.566 8.895,-8.566 5.082,0 8.847,3.812 8.847,8.519 v 0.048 c 0,4.729 -3.812,8.564 -8.894,8.564 -5.084,0 -8.848,-3.812 -8.848,-8.518 m 13.082,0 V 33.91 c 0,-2.354 -1.717,-4.447 -4.234,-4.447 -2.496,0 -4.166,2.023 -4.166,4.399 v 0.048 c 0,2.352 1.695,4.445 4.213,4.445 2.515,0 4.187,-2.022 4.187,-4.398"
   id="path42"
   transform="matrix(1.4406928,0,0,1.4406928,-38.557098,0)" /><polygon
   clip-path="url(#SVGID_2_)"
   fill="#ffffff"
   points="246.934,42.145 239.897,33.109 239.897,42.145 235.379,42.145 235.379,25.674 239.637,25.674 246.414,34.38 246.414,25.674 250.932,25.674 250.932,42.145 "
   id="polygon44"
   transform="matrix(1.4406928,0,0,1.4406928,-38.557098,0)" /><path
   clip-path="url(#SVGID_2_)"
   fill="#ffffff"
   d="M 26.291,0 C 11.428,2.12 0,14.895 0,30.342 0,45.789 11.428,58.564 26.291,60.683 Z"
   id="path80" /><polygon
   clip-path="url(#SVGID_2_)"
   fill="#e20612"
   points="51.513,21.897 61.309,6.544 34.734,6.544 34.734,21.897 "
   id="polygon82" /><path
   clip-path="url(#SVGID_2_)"
   fill="#ffffff"
   d="m 34.734,30.342 v 30.376 c 15,-1.997 26.574,-14.831 26.574,-30.376 z"
   id="path84" />
</svg>
