<?xml version="1.0" encoding="utf-8"?><svg xmlns="http://www.w3.org/2000/svg" width="181.953" height="137.509" viewBox="0 0 181.953 137.509"><g transform="translate(-84.861 -107.198)"><g transform="translate(226.41 140.311)"><path d="M281.988,163.144h8.928v-9.832h5.418v9.832h8.93v5.117h-8.93v9.832h-5.418v-9.832h-8.928Z" transform="translate(-281.988 -153.312)" fill="lime"/></g><g transform="translate(104.355 107.198)"><path d="M230.872,185.278a48.694,48.694,0,1,1-13.155-41.13l12.339-8.524a63.465,63.465,0,1,0,15.889,49.654Z" transform="translate(-114.049 -109.238)" fill="lime"/><path d="M180.773,244.707a68.755,68.755,0,1,1,51.109-114.593l3.944,4.391-20.815,14.378-3.063-3.159a43.1,43.1,0,0,0-31.175-13.254A43.482,43.482,0,1,0,223.7,182.464l.666-4.42h25.369l-.664,5.787A68.7,68.7,0,0,1,180.773,244.707Zm0-127.119a58.365,58.365,0,1,0,57.016,70.845h-4.677a53.844,53.844,0,1,1-52.338-66.352A53.3,53.3,0,0,1,216.2,135.436l3.763-2.6A58.332,58.332,0,0,0,180.773,117.588Z" transform="translate(-112.009 -107.198)" fill="lime"/></g><g transform="translate(88.05 123.983)"><path d="M89.3,132.9h3.853v29.67H89.3Z" transform="translate(-89.302 -131.229)"/><path d="M104.326,143.373a30.336,30.336,0,0,1,3.426-.792,19.8,19.8,0,0,1,3.382-.321,9.715,9.715,0,0,1,3.04.45,5.326,5.326,0,0,1,2.334,1.52,7.367,7.367,0,0,1,1.5,2.89,16.271,16.271,0,0,1,.535,4.517v13.572h-3.682V151.937a10.507,10.507,0,0,0-.856-4.881,3.344,3.344,0,0,0-3.211-1.542,10.5,10.5,0,0,0-2.783.429v19.266h-3.682Z" transform="translate(-93.538 -133.868)"/><path d="M135.485,162.563a3.156,3.156,0,0,0,2.462-.921,3.922,3.922,0,0,0,.492-4.024,4.213,4.213,0,0,0-.9-1.178,6.664,6.664,0,0,0-1.285-.921q-.727-.406-1.455-.878a10.1,10.1,0,0,1-1.413-1.006,7.21,7.21,0,0,1-1.22-1.327,6.4,6.4,0,0,1-.857-1.713,7.111,7.111,0,0,1-.321-2.248,6.039,6.039,0,0,1,1.733-4.5,6.385,6.385,0,0,1,4.689-1.713,8.462,8.462,0,0,1,2.355.321,9.825,9.825,0,0,1,1.841.706l-.814,2.955a7.091,7.091,0,0,0-1.542-.643,6.237,6.237,0,0,0-1.669-.214,3,3,0,0,0-2.184.793,3.053,3.053,0,0,0-.814,2.29,3.354,3.354,0,0,0,.3,1.477,4.053,4.053,0,0,0,.792,1.114,7.869,7.869,0,0,0,1.114.921q.619.428,1.305.814.813.471,1.6,1.027a7.217,7.217,0,0,1,1.413,1.306,6.212,6.212,0,0,1,1.006,1.756,6.766,6.766,0,0,1,.386,2.418,6.555,6.555,0,0,1-1.734,4.752,6.726,6.726,0,0,1-5.073,1.8,9.43,9.43,0,0,1-3.083-.471,13.1,13.1,0,0,1-2.055-.856l.771-3.04a16.818,16.818,0,0,0,1.734.771A6.58,6.58,0,0,0,135.485,162.563Z" transform="translate(-100.935 -133.834)"/><path d="M156.721,140.293h5.651v3.168h-5.651v12.374a4.839,4.839,0,0,0,.834,3.233,2.888,2.888,0,0,0,2.248.92,4.5,4.5,0,0,0,1.392-.214,4.868,4.868,0,0,0,1.135-.514l.727,2.955a7.256,7.256,0,0,1-3.725,1.028,5.971,5.971,0,0,1-4.731-1.776q-1.564-1.777-1.563-5.887V134.257l3.682-.643Z" transform="translate(-107.272 -131.43)"/><path d="M174.16,135.454a2.38,2.38,0,0,1-1.692-.663,2.589,2.589,0,0,1,0-3.554,2.487,2.487,0,0,1,3.382,0,2.585,2.585,0,0,1,0,3.554A2.375,2.375,0,0,1,174.16,135.454Zm1.84,26.46h-3.682V139.436H176Z" transform="translate(-112.551 -130.573)"/><path d="M190.29,140.293h5.651v3.168H190.29v12.374a4.835,4.835,0,0,0,.834,3.233,2.886,2.886,0,0,0,2.248.92,4.5,4.5,0,0,0,1.391-.214,4.854,4.854,0,0,0,1.135-.514l.728,2.955a7.26,7.26,0,0,1-3.725,1.028,5.972,5.972,0,0,1-4.731-1.776q-1.564-1.777-1.562-5.887V134.257l3.682-.643Z" transform="translate(-116.736 -131.43)"/><path d="M219.9,164.751a11.079,11.079,0,0,1-1.349.407q-.793.193-1.67.342t-1.755.257a13.556,13.556,0,0,1-1.606.107,11.929,11.929,0,0,1-3.211-.406,5.568,5.568,0,0,1-2.483-1.435,6.721,6.721,0,0,1-1.584-2.8,15.2,15.2,0,0,1-.556-4.474V142.916h3.682v13.7q0,3.3,1.006,4.645a3.57,3.57,0,0,0,3.061,1.349q.684,0,1.37-.064a7.4,7.4,0,0,0,1.413-.279V142.916H219.9Z" transform="translate(-122.116 -134.053)"/><path d="M238.048,140.293H243.7v3.168h-5.651v12.374a4.839,4.839,0,0,0,.834,3.233,2.889,2.889,0,0,0,2.248.92,4.5,4.5,0,0,0,1.392-.214,4.866,4.866,0,0,0,1.135-.514l.728,2.955a7.26,7.26,0,0,1-3.725,1.028,5.971,5.971,0,0,1-4.731-1.776q-1.564-1.777-1.563-5.887V134.257l3.682-.643Z" transform="translate(-130.201 -131.43)"/></g><g transform="translate(84.861 193.516)"><path d="M89.388,258.483a2.8,2.8,0,0,0,2.264-.906,3.556,3.556,0,0,0,.768-2.38,3.62,3.62,0,0,0-.315-1.58,4.168,4.168,0,0,0-.826-1.158,6.274,6.274,0,0,0-1.18-.906q-.671-.4-1.339-.862a9.385,9.385,0,0,1-1.3-.99,6.971,6.971,0,0,1-1.122-1.305,6.453,6.453,0,0,1-.786-1.686,7.428,7.428,0,0,1-.3-2.212,6.17,6.17,0,0,1,1.595-4.422,5.655,5.655,0,0,1,4.311-1.686,7.263,7.263,0,0,1,2.165.317,8.638,8.638,0,0,1,1.692.694l-.747,2.907a6.333,6.333,0,0,0-1.417-.633,5.383,5.383,0,0,0-1.535-.21,2.65,2.65,0,0,0-2.008.779,3.129,3.129,0,0,0-.748,2.253,3.516,3.516,0,0,0,.276,1.455,4,4,0,0,0,.728,1.1,7.468,7.468,0,0,0,1.024.9q.57.422,1.2.8.746.465,1.476,1.011a6.874,6.874,0,0,1,1.3,1.285,6.245,6.245,0,0,1,.925,1.727,7.089,7.089,0,0,1,.354,2.38,6.723,6.723,0,0,1-1.593,4.676,5.962,5.962,0,0,1-4.665,1.77,8.171,8.171,0,0,1-2.835-.465,11.639,11.639,0,0,1-1.889-.842l.709-2.991a14.814,14.814,0,0,0,1.594.759A5.706,5.706,0,0,0,89.388,258.483Z" transform="translate(-84.861 -230.504)"/><path d="M118.66,251.321a20.918,20.918,0,0,1-.432,4.429,10.7,10.7,0,0,1-1.319,3.405,6.437,6.437,0,0,1-2.244,2.2,6.287,6.287,0,0,1-3.208.787,6.153,6.153,0,0,1-5.492-2.991,10.664,10.664,0,0,1-1.319-3.405,22.769,22.769,0,0,1,0-8.839,10.9,10.9,0,0,1,1.319-3.445,6.33,6.33,0,0,1,2.263-2.225,6.4,6.4,0,0,1,3.228-.788,6.3,6.3,0,0,1,3.208.788,6.4,6.4,0,0,1,2.244,2.225,10.931,10.931,0,0,1,1.319,3.445A20.986,20.986,0,0,1,118.66,251.321Zm-3.542,0a23.433,23.433,0,0,0-.2-3.17,10.062,10.062,0,0,0-.63-2.48,3.985,3.985,0,0,0-1.142-1.614,2.824,2.824,0,0,0-3.405,0,4.239,4.239,0,0,0-1.142,1.614,9.493,9.493,0,0,0-.649,2.48,25.617,25.617,0,0,0,0,6.338,9.19,9.19,0,0,0,.649,2.461,4.245,4.245,0,0,0,1.142,1.595,2.824,2.824,0,0,0,3.405,0,3.988,3.988,0,0,0,1.142-1.595,9.734,9.734,0,0,0,.63-2.461A23.381,23.381,0,0,0,115.118,251.321Z" transform="translate(-90.317 -231.086)"/><path d="M143.928,261.246a10.219,10.219,0,0,1-1.241.374q-.729.177-1.534.315t-1.615.237a12.476,12.476,0,0,1-1.476.1,10.924,10.924,0,0,1-2.953-.374,5.1,5.1,0,0,1-2.283-1.318A6.179,6.179,0,0,1,131.37,258a13.957,13.957,0,0,1-.512-4.113V241.168h3.385v12.6a7.372,7.372,0,0,0,.926,4.27,3.283,3.283,0,0,0,2.814,1.241q.63,0,1.26-.059a6.79,6.79,0,0,0,1.3-.256V241.168h3.386Z" transform="translate(-97.829 -231.287)"/><path d="M157.557,257.956V228l3.386-.59v10a12.733,12.733,0,0,1,1.634-.394,10.149,10.149,0,0,1,1.791-.157,7.152,7.152,0,0,1,2.441.412,4.728,4.728,0,0,1,1.988,1.4,7.108,7.108,0,0,1,1.338,2.658,14.952,14.952,0,0,1,.493,4.153v12.479h-3.386v-12.2a9.661,9.661,0,0,0-.788-4.488,3.075,3.075,0,0,0-2.953-1.417,9.667,9.667,0,0,0-2.558.394v17.715Z" transform="translate(-105.357 -227.408)"/><path d="M183.725,241.4a12.649,12.649,0,0,1,2.166-.689,11.312,11.312,0,0,1,2.48-.256,6.114,6.114,0,0,1,4.488,1.713q1.731,1.714,1.732,5.334v13.7a26.061,26.061,0,0,1-2.893.631,18.328,18.328,0,0,1-2.895.236,9.606,9.606,0,0,1-2.657-.355,5.559,5.559,0,0,1-3.641-3.129,6.992,6.992,0,0,1-.552-2.933,7.371,7.371,0,0,1,.493-2.815,5.608,5.608,0,0,1,1.357-2.008,5.752,5.752,0,0,1,2.048-1.22,7.668,7.668,0,0,1,2.559-.414,14.712,14.712,0,0,1,2.873.315V247.62a4.518,4.518,0,0,0-.885-3.187,3.388,3.388,0,0,0-2.539-.906,7.98,7.98,0,0,0-1.713.177,9.326,9.326,0,0,0-1.713.571Zm1.614,14.211a3.462,3.462,0,0,0,.945,2.678,3.819,3.819,0,0,0,2.677.867,10.921,10.921,0,0,0,2.322-.276v-6.573a8.965,8.965,0,0,0-2.322-.316,5.534,5.534,0,0,0-1.417.177,2.967,2.967,0,0,0-1.161.591,2.72,2.72,0,0,0-.768,1.1A4.76,4.76,0,0,0,185.34,255.611Z" transform="translate(-112.235 -231.086)"/><path d="M209.267,234.308a2.192,2.192,0,0,1-1.555-.61,2.38,2.38,0,0,1,0-3.267,2.287,2.287,0,0,1,3.111,0,2.38,2.38,0,0,1,0,3.267A2.191,2.191,0,0,1,209.267,234.308Zm1.693,24.329h-3.385V237.969h3.385Z" transform="translate(-119.314 -228.088)"/><path d="M224.1,238.757h5.2v2.914h-5.2v11.377a4.442,4.442,0,0,0,.768,2.972,2.65,2.65,0,0,0,2.067.847,4.12,4.12,0,0,0,1.28-.2,4.473,4.473,0,0,0,1.044-.473l.669,2.716a6.676,6.676,0,0,1-3.424.945,5.488,5.488,0,0,1-4.351-1.634q-1.437-1.633-1.437-5.413V233.205l3.386-.59Z" transform="translate(-123.163 -228.876)"/><path d="M238.384,241.4a12.649,12.649,0,0,1,2.166-.689,11.313,11.313,0,0,1,2.48-.256,6.111,6.111,0,0,1,4.488,1.713q1.731,1.714,1.732,5.334v13.7a26.062,26.062,0,0,1-2.893.631,18.326,18.326,0,0,1-2.894.236,9.608,9.608,0,0,1-2.658-.355,5.559,5.559,0,0,1-3.641-3.129,6.992,6.992,0,0,1-.551-2.933,7.371,7.371,0,0,1,.493-2.815,5.6,5.6,0,0,1,1.358-2.008,5.749,5.749,0,0,1,2.047-1.22,7.668,7.668,0,0,1,2.559-.414,14.725,14.725,0,0,1,2.874.315V247.62a4.514,4.514,0,0,0-.886-3.187,3.388,3.388,0,0,0-2.539-.906,7.98,7.98,0,0,0-1.713.177,9.3,9.3,0,0,0-1.712.571ZM240,255.611a3.462,3.462,0,0,0,.945,2.678,3.819,3.819,0,0,0,2.677.867,10.927,10.927,0,0,0,2.323-.276v-6.573a8.975,8.975,0,0,0-2.323-.316,5.524,5.524,0,0,0-1.417.177,2.975,2.975,0,0,0-1.162.591,2.72,2.72,0,0,0-.768,1.1A4.76,4.76,0,0,0,240,255.611Z" transform="translate(-127.646 -231.086)"/><path d="M265.766,237.446a6.886,6.886,0,0,1,1.279-.492,5.982,5.982,0,0,1,1.555-.178,6.7,6.7,0,0,1,3.307.768,6.125,6.125,0,0,1,2.244,2.166,10.426,10.426,0,0,1,1.279,3.386,22.011,22.011,0,0,1,.414,4.468q0,5.472-1.949,8.188t-6.121,2.716a14.1,14.1,0,0,1-2.874-.294,13.281,13.281,0,0,1-2.52-.769V228l3.386-.59Zm0,17.754a6.691,6.691,0,0,0,1.063.218,8.416,8.416,0,0,0,.945.059,3.726,3.726,0,0,0,3.4-1.83q1.122-1.832,1.122-6.083a20.879,20.879,0,0,0-.276-3.7,7.427,7.427,0,0,0-.807-2.4,3.3,3.3,0,0,0-1.28-1.3,3.68,3.68,0,0,0-1.732-.393,4.979,4.979,0,0,0-2.441.63Z" transform="translate(-134.91 -227.408)"/><path d="M293.361,258.351a5.708,5.708,0,0,1-4.173-1.438,6.194,6.194,0,0,1-1.259-4.31V228l3.386-.59v25.274a2.925,2.925,0,0,0,.551,1.988,3.294,3.294,0,0,0,1.929.847Z" transform="translate(-142.114 -227.408)"/><path d="M303.235,252.306a17.02,17.02,0,0,0,.276,2.734,6.9,6.9,0,0,0,.768,2.166,3.816,3.816,0,0,0,1.417,1.438,4.488,4.488,0,0,0,2.263.512,6.407,6.407,0,0,0,2.107-.335,10.216,10.216,0,0,0,1.4-.571l.63,2.716a7.558,7.558,0,0,1-1.713.768,8.789,8.789,0,0,1-2.854.414,7.662,7.662,0,0,1-3.641-.787,6.447,6.447,0,0,1-2.4-2.2,9.558,9.558,0,0,1-1.318-3.386,22.1,22.1,0,0,1-.393-4.331q0-5.708,1.89-8.346a5.866,5.866,0,0,1,5-2.638,5.2,5.2,0,0,1,4.96,2.638,15.489,15.489,0,0,1,1.456,7.4v.887q0,.452-.04.926Zm3.425-8.976a2.561,2.561,0,0,0-2.46,1.692,12.854,12.854,0,0,0-.926,4.527h6.259a14.089,14.089,0,0,0-.59-4.547A2.251,2.251,0,0,0,306.66,243.33Z" transform="translate(-145.452 -231.086)"/><path d="M327.487,259.234a2.9,2.9,0,0,0,2.263-.847,3.606,3.606,0,0,0,.453-3.7,3.917,3.917,0,0,0-.827-1.083,6.174,6.174,0,0,0-1.181-.847q-.67-.373-1.339-.806a9.356,9.356,0,0,1-1.3-.926,6.564,6.564,0,0,1-1.122-1.22,5.881,5.881,0,0,1-.787-1.575,6.54,6.54,0,0,1-.3-2.066,5.552,5.552,0,0,1,1.595-4.135,5.868,5.868,0,0,1,4.311-1.575,7.774,7.774,0,0,1,2.164.3,9,9,0,0,1,1.693.649l-.748,2.716a6.6,6.6,0,0,0-1.417-.59,5.717,5.717,0,0,0-1.536-.2,2.756,2.756,0,0,0-2.008.727,2.81,2.81,0,0,0-.748,2.107,3.1,3.1,0,0,0,.276,1.358,3.713,3.713,0,0,0,.729,1.023,7.159,7.159,0,0,0,1.024.846c.38.264.781.512,1.2.749q.746.433,1.476.944a6.653,6.653,0,0,1,1.3,1.2,5.725,5.725,0,0,1,.925,1.613,6.235,6.235,0,0,1,.354,2.225,6.029,6.029,0,0,1-1.594,4.37,6.188,6.188,0,0,1-4.665,1.654,8.665,8.665,0,0,1-2.834-.434,12.011,12.011,0,0,1-1.89-.786l.709-2.8a15.545,15.545,0,0,0,1.594.708A6.027,6.027,0,0,0,327.487,259.234Z" transform="translate(-151.99 -231.086)"/></g><g transform="translate(86.566 167.634)"><path d="M92.85,191.692l1.886-.329v16.71a7.326,7.326,0,0,1-1.4.428,7.822,7.822,0,0,1-1.6.166,3.9,3.9,0,0,1-3.432-1.514,7.961,7.961,0,0,1-1.063-4.562,12.266,12.266,0,0,1,.23-2.49,5.623,5.623,0,0,1,.724-1.886,3.485,3.485,0,0,1,1.261-1.206,3.67,3.67,0,0,1,1.82-.428,3.317,3.317,0,0,1,.867.1,3.828,3.828,0,0,1,.712.274Zm0,6.908a2.772,2.772,0,0,0-1.36-.351,2.045,2.045,0,0,0-.964.219,1.838,1.838,0,0,0-.713.724,4.142,4.142,0,0,0-.45,1.338,11.682,11.682,0,0,0-.153,2.062,6.809,6.809,0,0,0,.625,3.388,2.073,2.073,0,0,0,1.9,1.02,4.719,4.719,0,0,0,.527-.032,3.8,3.8,0,0,0,.592-.121Z" transform="translate(-87.236 -191.363)"/><path d="M103.458,205.232a9.561,9.561,0,0,0,.154,1.524,3.853,3.853,0,0,0,.428,1.206,2.128,2.128,0,0,0,.789.8,2.5,2.5,0,0,0,1.261.284,3.558,3.558,0,0,0,1.173-.186,5.466,5.466,0,0,0,.779-.319l.35,1.514a4.19,4.19,0,0,1-.954.427,4.877,4.877,0,0,1-1.591.232,4.272,4.272,0,0,1-2.029-.439,3.6,3.6,0,0,1-1.337-1.229,5.3,5.3,0,0,1-.735-1.886,12.285,12.285,0,0,1-.219-2.412,8.092,8.092,0,0,1,1.053-4.649,3.269,3.269,0,0,1,2.785-1.469,2.9,2.9,0,0,1,2.764,1.469,8.628,8.628,0,0,1,.811,4.123v.493c0,.168-.008.34-.022.515Zm1.908-5a1.426,1.426,0,0,0-1.37.943,7.158,7.158,0,0,0-.516,2.522h3.487a7.861,7.861,0,0,0-.329-2.533A1.255,1.255,0,0,0,105.366,200.233Z" transform="translate(-91.266 -193.412)"/><path d="M116.969,209.092a1.614,1.614,0,0,0,1.262-.471,2.013,2.013,0,0,0,.252-2.062,2.171,2.171,0,0,0-.461-.6,3.473,3.473,0,0,0-.658-.472c-.249-.139-.5-.289-.745-.449a5.142,5.142,0,0,1-.724-.516,3.666,3.666,0,0,1-.625-.681,3.271,3.271,0,0,1-.439-.876,3.639,3.639,0,0,1-.164-1.151,3.093,3.093,0,0,1,.888-2.3,3.269,3.269,0,0,1,2.4-.877,4.33,4.33,0,0,1,1.206.164,5.061,5.061,0,0,1,.942.361l-.416,1.514a3.634,3.634,0,0,0-.789-.329,3.179,3.179,0,0,0-.855-.109,1.534,1.534,0,0,0-1.118.4,1.562,1.562,0,0,0-.416,1.174,1.725,1.725,0,0,0,.152.755,2.076,2.076,0,0,0,.406.571,4.013,4.013,0,0,0,.57.471c.212.147.434.285.669.416q.417.242.823.528a3.672,3.672,0,0,1,.724.669,3.194,3.194,0,0,1,.516.9,3.488,3.488,0,0,1,.2,1.239,3.361,3.361,0,0,1-.888,2.434,3.447,3.447,0,0,1-2.6.922,4.881,4.881,0,0,1-1.58-.241,6.741,6.741,0,0,1-1.053-.439l.395-1.557a8.679,8.679,0,0,0,.888.394A3.374,3.374,0,0,0,116.969,209.092Z" transform="translate(-94.908 -193.412)"/></g><g transform="translate(119.107 160.928)"><path d="M132.553,211.559V182.024h13.255v3.282h-9.42V194.6h8.354v3.2h-8.354v13.767Z" transform="translate(-132.553 -182.024)"/><path d="M170.029,213.731a10.81,10.81,0,0,1-1.343.406q-.788.192-1.662.34t-1.748.257a13.589,13.589,0,0,1-1.6.106,11.882,11.882,0,0,1-3.2-.4,5.537,5.537,0,0,1-2.472-1.428,6.709,6.709,0,0,1-1.577-2.793,15.12,15.12,0,0,1-.554-4.453V191.995h3.666v13.638q0,3.284,1,4.625a3.555,3.555,0,0,0,3.047,1.343q.682,0,1.364-.065a7.5,7.5,0,0,0,1.407-.276V191.995h3.665Z" transform="translate(-139.129 -184.835)"/><path d="M188.094,189.385h5.626v3.154h-5.626v12.317a4.812,4.812,0,0,0,.832,3.218,2.872,2.872,0,0,0,2.237.916,4.46,4.46,0,0,0,1.385-.213,4.925,4.925,0,0,0,1.13-.512l.725,2.94a7.225,7.225,0,0,1-3.708,1.024,5.942,5.942,0,0,1-4.71-1.77q-1.555-1.766-1.555-5.859V183.375l3.665-.638Z" transform="translate(-147.179 -182.225)"/><path d="M217.572,213.731a10.849,10.849,0,0,1-1.343.406q-.788.192-1.662.34t-1.748.257a13.59,13.59,0,0,1-1.6.106,11.882,11.882,0,0,1-3.2-.4,5.538,5.538,0,0,1-2.472-1.428,6.709,6.709,0,0,1-1.577-2.793,15.119,15.119,0,0,1-.554-4.453V191.995h3.666v13.638q0,3.284,1,4.625a3.555,3.555,0,0,0,3.047,1.343q.682,0,1.364-.065a7.5,7.5,0,0,0,1.407-.276V191.995h3.665Z" transform="translate(-152.534 -184.835)"/><path d="M242,195.152a7.58,7.58,0,0,0-3.068-.6,7.739,7.739,0,0,0-2.94.554V214.2h-3.666V192.809a14.971,14.971,0,0,1,2.835-1,14.3,14.3,0,0,1,3.516-.405,16.435,16.435,0,0,1,2.046.128,8.194,8.194,0,0,1,1.918.469Z" transform="translate(-160.683 -184.668)"/><path d="M254.2,211.554a3.138,3.138,0,0,0,2.45-.918,3.906,3.906,0,0,0,.49-4.005,4.234,4.234,0,0,0-.895-1.172,6.74,6.74,0,0,0-1.279-.918q-.725-.4-1.449-.874a10.041,10.041,0,0,1-1.407-1,7.128,7.128,0,0,1-1.214-1.321,6.326,6.326,0,0,1-.852-1.7,7.076,7.076,0,0,1-.32-2.237,6.01,6.01,0,0,1,1.726-4.475,6.355,6.355,0,0,1,4.667-1.7,8.415,8.415,0,0,1,2.344.32,9.694,9.694,0,0,1,1.832.7l-.809,2.94a7.072,7.072,0,0,0-1.534-.639,6.188,6.188,0,0,0-1.662-.213,2.983,2.983,0,0,0-2.174.788,3.043,3.043,0,0,0-.81,2.281,3.35,3.35,0,0,0,.3,1.471,4.029,4.029,0,0,0,.788,1.109,7.789,7.789,0,0,0,1.108.916q.617.426,1.3.811.809.469,1.6,1.023a7.189,7.189,0,0,1,1.407,1.3,6.164,6.164,0,0,1,1,1.748,6.725,6.725,0,0,1,.384,2.408,6.526,6.526,0,0,1-1.726,4.731,6.7,6.7,0,0,1-5.051,1.789,9.387,9.387,0,0,1-3.068-.468,13,13,0,0,1-2.046-.852l.767-3.025a17.08,17.08,0,0,0,1.727.767A6.548,6.548,0,0,0,254.2,211.554Z" transform="translate(-165.469 -184.618)"/></g></g></svg>