<svg class="logo" viewBox="0 0 145 65" xmlns="http://www.w3.org/2000/svg" fill="#fff">
                            <g class="logo__main">
                                <path d="M34.4 10.3C33.9 9.40003 33.3 8.60002 32.7 7.80002C32.7 7.70002 32.6 7.70002 32.6 7.60002C32.5 7.50002 32.4 7.30002 32.2 7.20002C30.2 4.90002 27.6 3.20002 24.8 2.10002C22.8 1.40002 20.6 1.00002 18.5 0.900024C16.3 0.900024 14.2 1.30002 12.1 2.00002C8.1 3.60002 4.5 6.50003 2.4 10.3C1.3 12.2 0.6 14.2 0.2 16.3C0.1 16.8 0 17.4 0 17.9V19.6L0.1 21.2C0.1 21.7 0.3 22.3 0.3 22.8C1.1 27 3.4 30.9 6.7 33.5C10 36.1 14.2 37.5 18.4 37.4C14.2 37.2 10.2 35.7 7.2 32.9C5.3 31.3 3.8 29.2 2.8 26.9C3.1 25.9 3.6 25 4.2 24.1C4.5 24.6 4.7 25.1 5 25.5C5.6 26.5 6.3 27.4 7.1 28.2C7.8 29.1 8.7 29.8 9.6 30.5C7.5 28.5 5.8 26.1 4.6 23.5C5 23.1 5.4 22.5 5.8 22C7.2 20.3 8.8 18.8 10.5 17.3C13.8 14.4 17.5 11.9 21.4 10C22.7 9.30002 24.1 8.80002 25.4 8.40002C26.9 9.50002 28.2 10.9 29.4 12.3C28.4 10.8 27.2 9.40002 25.9 8.20002C26.5 8.00002 27 7.90002 27.5 7.80002C28.5 7.60002 29.6 7.50002 30.5 7.80002C30.9 7.90002 31.2 8.10002 31.4 8.30002C31.5 8.40002 31.5 8.50002 31.6 8.50002C31.8 8.80002 32 9.20003 32 9.60003C32.1 10.6 31.7 11.6 31.3 12.6C30.9 13.6 30.3 14.5 29.7 15.4C28.5 17.3 27 18.9 25.5 20.6C27.2 19.2 28.8 17.6 30.3 15.9C31 15 31.6 14.1 32.2 13C32.6 12.2 32.9 11.4 33.1 10.5C33.2 10.6 33.3 10.8 33.4 10.9C35.5 14.3 36.3 18.5 35.7 22.6C35.1 26.6 33 30.4 30 33.2C33.3 30.7 35.6 26.8 36.5 22.7C37.2 18.5 36.5 14.1 34.4 10.3ZM3.5 24.5C3.1 25.2 2.8 26 2.7 26.8C2.1 25.4 1.7 24 1.5 22.6C1.1 20 1.2 17.4 1.9 15C1.8 16.5 2 17.9 2.3 19.3C2.7 20.8 3.2 22.3 3.9 23.7C3.8 24 3.7 24.2 3.5 24.5ZM20.8 8.60002C16.7 10.6 13 13.3 9.7 16.4C8.1 18 6.5 19.6 5.2 21.5C4.9 22 4.5 22.5 4.2 23C3.7 21.7 3.2 20.4 3 19.1C2.6 16.9 2.5 14.7 3.1 12.6C3.2 12 3.4 11.4 3.7 10.9C4.2 10 4.9 9.10002 5.6 8.30002C5.5 8.80002 5.4 9.30002 5.4 9.80002C5.3 11.9 5.9 13.9 6.8 15.6C6.4 13.6 6.1 11.7 6.1 9.80002C6.1 9.00002 6.2 8.10002 6.5 7.30002C7.4 6.40002 8.5 5.60002 9.6 4.90002C10.4 4.60002 11.2 4.40002 12.1 4.20002C14.3 3.80002 16.5 4.10002 18.6 4.70002C20.5 5.30002 22.3 6.10002 24 7.30002C22.9 7.70002 21.8 8.10002 20.8 8.60002ZM27.3 6.40002C26.4 6.60002 25.5 6.80002 24.6 7.10002C22.9 5.80002 20.9 4.70002 18.8 4.00002C17.1 3.40002 15.3 3.10002 13.5 3.20002C15.1 2.70002 16.7 2.40002 18.4 2.40002C20.4 2.40002 22.4 2.70002 24.3 3.40002C26.1 4.00002 27.8 5.00002 29.4 6.20002C28.7 6.30002 28 6.30002 27.3 6.40002Z"></path>
                                <path d="M18.1 27.4C18.6 27.4 20.2 27.5 23.6 27.5C23.7 28.3 23.9 28.7 24.3 29.5C27 35.7 31.2 44.6 31.6 45.3H31.7001C32.2001 44.4 37.6 33.2 39.3 29.6C39.6 28.9 39.9001 28.3 39.9001 27.5C43.2001 27.5 43.9 27.4 45.1 27.4C45.2 27.5 45.2 27.9 45.1 27.9C44 28 43.5 28.1 43 28.3C42 28.6 41.9001 29.2 41.9001 29.7C41.8001 31.8 42.1 44.1 42.3 46.8C42.4 48.1 42.6 48.6 43.6 48.9C44.1 49 44.6001 49.1 45.4001 49.2C45.5001 49.3 45.5001 49.6 45.4001 49.7C44.8001 49.7 42.9001 49.6 41.4001 49.6C39.5001 49.6 38.0001 49.7 37.2001 49.7C37.1001 49.7 37.1001 49.2 37.2001 49.2C38.1001 49.1 38.5001 49 38.9001 48.9C39.7001 48.7 39.9001 48.2 39.9001 47.2C39.9001 45 39.8001 34.2 39.7001 31.1H39.6C38.7 33 32.1 46.5 31 49.9C30.9 49.9 30.6 49.9 30.5 49.9C29.6 46.7 22.3 30.6 22.3 30.6H22.2001C21.9001 33.9 21.5 43.8 21.5 46.1C21.5 47.6 21.6001 48.6 22.7001 48.8C23.2001 48.9 23.6 49 24.5 49.1C24.6 49.2 24.5 49.6 24.5 49.6C23.9 49.6 22.7 49.5 21 49.5C19.1 49.5 17.5 49.6 17 49.6C16.9 49.5 16.9 49.1 17 49.1L18.4 48.9C19.6 48.7 19.8 48.1 20.1 45.9C20.4 43.7 21.1 33 21.3 30C21.3 29.5 21.2 28.7 20.3 28.4C19.8 28.2 19.2 28.1 18 27.9C18 27.9 18 27.4 18.1 27.4Z"></path>
                            </g>
                            <path d="M47.1 33.8C47.7 33.8 48.7 33.9001 50.1 33.9001H55.6C57.2 33.9001 58 33.8 58.3 33.8C58.3 33.8 58.4 33.8001 58.4 33.9001C58.1 34.8001 57.9 36.5 57.9 37.5C57.8 37.6 57.4 37.6 57.4 37.5C57.4 37 57.3 36.3 57.2 36C57 35.2 56.9 34.9 55.8 34.8C55.2 34.7 52.2 34.8 51.8 34.8C51.6 34.8 51.5 35.1 51.5 35.3C51.5 37.1 51.4 40.6001 51.5 40.9001C51.5 41.0001 51.6 41.1 51.6 41.1C52.9 41.1 54.8 41.1 55.6 41.1C56.4 41.1 56.5 40.5 56.7 40.1C56.8 39.8 56.9 39.5 57 39.1C57.1 39.1 57.5 39.1 57.5 39.1C57.4 39.5 57.4 41 57.4 41.6C57.4 42.1 57.4 43.4 57.4 44.1C57.3 44.2 56.9 44.2 56.8 44.1C56.7 43.6 56.7 43.3 56.6 43.1C56.5 42.7 56.3 42.3001 55.6 42.2001C54.7 42.1001 52.8 42.1 51.6 42.1L51.5 42.3C51.5 42.7 51.5 45.8001 51.6 47.4001C51.6 48.4001 52.1 48.6 52.2 48.6C52.8 48.7 54 48.8 55.9 48.8C57.3 48.8 57.6 48.4 58 48C58.6 47.3 59 46.6 59.4 45.6C59.5 45.6 59.9 45.7 59.9 45.8C59.8 46.3 59.1 48.6 58.6 49.5C58.5 49.6 58.3 49.7001 57.8 49.7001C56.5 49.7001 54.2 49.6 50.2 49.6C48.5 49.6 47.6 49.7001 46.6 49.7001C46.5 49.6001 46.5 49.2001 46.6 49.2001C47.2 49.2001 48.1 49.1001 48.5 48.9001C49.1 48.7001 49.3 48.5 49.4 47.5C49.4 46.7 49.4 44.2001 49.4 41.2001C49.4 38.7001 49.4 36.4 49.4 36.1C49.3 35.2 49.1 35.1 48.6 34.8C48.2 34.7 47.7 34.5 47.2 34.5C47 34.3 47 33.8 47.1 33.8Z"></path>
                            <path d="M79.4 49.6C80.5 49.6 82.4 49.7 82.9 49.7C82.9 49.6 83 49.2 82.9 49.2C82.3 49.1 81.6 49 81.3 48.9C80.7 48.7 80.6 48.4 80.5 47.6C80.5 46.7 80.4 44 80.4 41.7C80.4 39.5 80.4 37.1 80.5 36C80.6 35.2 80.8 34.8 81.3 34.7C81.5 34.7 82.2 34.5 82.6 34.5C82.7 34.4 82.7 34 82.6 34C82 34 80.3 34.1 79.3 34.1C78.1 34.1 76.6 34 76.1 34C76.1 34 76 34.5 76.1 34.5C76.7 34.6 77.4 34.7 77.6 34.8C78.2 34.9 78.3 35.3 78.4 36C78.5 37.2 78.4 39.1 78.4 41C78.4 43.1 78.4 47.2 78.3 47.9C78.2 48.5 78 48.8 77.4 49C77.1 49.1 76.7 49.2 76.2 49.2C75.4 49.1 75 48.9 74.2 48.1C73 46.9 70.7 43.7 69.7 42.1C69.7 42.1 69.6 42 69.7 41.9C71.3 41.3 72.9 40 72.9 37.9C72.9 35.8 71.6 34 68.4 34H64.3C63.6 34 61.9 33.9 61.2 33.9C61.1 33.9 61.1 34.4 61.2 34.5C61.8 34.5 62.5 34.7 62.8 34.8C63.3 34.9 63.5 35.1 63.6 35.7C63.7 36.6 63.6 40.7 63.6 42.2C63.6 43.5 63.6 46.9 63.6 47.6C63.6 48.6 63.3 48.9 62.7 49C62.4 49.1 61.6 49.2 61.1 49.3C61 49.3 61 49.8 61.1 49.8C61.5 49.8 62.7 49.7 64.4 49.7C66.2 49.7 67.7 49.8 68 49.8C68.1 49.7 68.1 49.3 68 49.3C67.4 49.2 66.7 49.1 66.4 49C65.9 48.8 65.7 48.6 65.6 47.6C65.6 46.7 65.5 44.1 65.5 42.8C65.5 42.8 65.5 42.6 65.6 42.6C66 42.6 66.6 42.6 67 42.6C67.5 42.6 67.7 42.7 67.9 43.1C68.9 44.5 70.8 47.5 71.8 48.6C72.3 49.1 72.7 49.4 73 49.5C73.8 49.8 75.7 49.9 76.6 49.9L79.4 49.6ZM65.8 41.6C65.7 41.6 65.7 41.5 65.7 41.3C65.7 39.6 65.7 35.9 65.7 35C65.7 34.9 65.8 34.7 65.9 34.7C66.1 34.6 66.5 34.6 66.8 34.6C69.6 34.6 70.8 35.9 70.8 38.3C70.8 40.5 69.7 41.3 68.6 41.5C68 41.7 66 41.6 65.8 41.6Z"></path>
                            <path d="M84.2 33.8C84.8 33.8 86.8 33.9001 87.4 33.9001C88.9 33.9001 90.4 33.8 92.3 33.8C94.5 33.8 96.6 34.4 97.9 35.6C99.5 37 100.2 39.1001 100.2 41.4001C100.2 45.0001 98.3 47.2 96.5 48.3C95 49.2 93.4 49.7001 91 49.7001C89.1 49.7001 87.4 49.6 85.5 49.6H84C83.9 49.5 83.9 49.1 84 49.1C84.5 49.1 85.2 49.0001 85.5 48.9001C86 48.8001 86.4 48.7 86.4 47.6C86.5 45.9 86.5 43.5001 86.5 41.4001C86.5 40.1001 86.5 36.9001 86.5 35.9001C86.5 35.1001 86.3 34.7 85.6 34.6C85.3 34.5 84.8 34.4 84.1 34.3C84.1 34.3 84.1 33.9 84.2 33.8ZM89.2 48.3C89.7 48.7 90.6 48.9001 92.2 48.9001C93.1 48.9001 94.5 48.7001 95.7 47.7001C97.1 46.5001 97.9 44.6 97.9 41.8C97.9 39.3 97.3 37.3 95.2 35.8C94 34.9 92.4 34.6 90.2 34.6C89.8 34.6 89 34.6001 88.8 34.7001C88.7 34.8001 88.5 34.8001 88.5 35.2001C88.5 35.8001 88.5 39.2001 88.5 41.4001C88.5 43.7001 88.5 46.4 88.6 47.1C88.7 47.6 88.9 48.1 89.2 48.3Z"></path>
                            <path d="M100.7 33.8C101.2 33.8 102.8 33.9001 103.9 33.9001C104.9 33.9001 106.6 33.8 107.2 33.8C107.3 33.8 107.3 34.3 107.2 34.3C106.8 34.3 106.1 34.5 105.9 34.5C105.3 34.6 105.1 35 105.1 35.8C105 36.9 105 39.3 105 41.5C105 43.9 105 46.6001 105.1 47.4001C105.2 48.2001 105.3 48.5001 105.9 48.7001C106.2 48.8001 106.9 48.9 107.5 49C107.6 49.1 107.5 49.5 107.5 49.5C107 49.5 105.1 49.4001 104 49.4001C102.7 49.4001 101.8 49.5 100.5 49.5C100.4 49.4 100.4 49 100.5 49C101 49 101.7 48.9001 102 48.7001C102.6 48.5001 102.8 48.2 102.9 47.6C103 46.9 103 42.8001 103 40.7001C103 38.8001 103 36.9001 103 35.7001C103 34.9001 102.8 34.6 102.2 34.5C101.9 34.4 101.3 34.3001 100.7 34.2001C100.6 34.3001 100.6 33.9 100.7 33.8Z"></path>
                            <path d="M111.5 46.9C112.5 44.8 115.5 37.3 116.2 35.3C116.4 34.8 116.6 34.1 116.6 33.9C116.6 33.9 116.8 33.9 117.3 33.9C117.7 33.9 118 33.9 118.1 33.9C118.1 34.1 118.4 34.7 118.5 35.2C119 36.7 122.1 45.5 122.9 47.3C123.5 48.7 123.8 48.8 125.6 49.1C125.6 49.2 125.6 49.6 125.5 49.6C125 49.6 123.8 49.5 122.7 49.5C121.3 49.5 119.9 49.6 119.2 49.6C119.1 49.5 119.1 49.1 119.2 49.1C119.7 49 120 49 120.4 48.9C120.9 48.8 120.9 48.4 120.8 48C120.5 46.8 119.6 44.5 119.1 43.2C119.1 43.2 119 43.1 118.9 43.1C118.6 43.1 118.2 43.1 116.6 43.1C114.8 43.1 114.5 43.1 114.3 43.1C114.1 43.1 114 43.3 114 43.3C113.5 44.6 112.5 47 112.3 47.7C112.2 48.2 112.2 48.6 113 48.8C113.3 48.9 113.7 49 114.3 49.1C114.3 49.1 114.3 49.5 114.2 49.6C113.7 49.6 112.1 49.5 111 49.5C109.7 49.5 108.8 49.6 108.4 49.6C108.3 49.5 108.3 49.1 108.4 49.1C110.3 48.8 110.6 48.8 111.5 46.9ZM114.6 41.9C114.6 42 114.6 42 114.7 42.1C114.9 42.1 114.9 42.1 116.3 42.1C116.9 42.1 118.1 42.1 118.5 42.1C118.5 42.1 118.6 42 118.6 41.9C118 40 117.1 37.5 116.7 36.4H116.6L114.6 41.9Z"></path>
                            <path d="M126.1 33.8C126.5 33.8 128.2 33.9001 129 33.9001C129.5 33.9001 130.4 33.9001 130.6 33.9001C130.7 34.1001 130.8 34.4001 131.5 35.2001C134.5 38.9001 140 45.5 140.9 46.5C140.9 46.5 141 46.5001 141 46.4001C141 43.0001 140.9 37.7 140.8 36C140.8 35.3 140.5 34.7 139.8 34.5L138.5 34.3C138.5 34.2 138.5 33.8 138.5 33.8C139.1 33.8 140.2 33.9001 141.5 33.9001C142.3 33.9001 143.9 33.8 144.2 33.8C144.2 33.9 144.2 34.2 144.2 34.3C143.7 34.4 143.2 34.4 142.9 34.6C142.3 34.8 142.2 35.3001 142.2 35.9001C142.1 37.7001 142.1 43.2001 142.1 46.4001C142.1 47.6001 142.1 49 142.2 49.8C141.7 49.8 141 49.8 140.7 49.8C139.5 48.1 131.3 38.1 130.1 36.6H130C130 39.1 130 45.6 130 47.1C130 48.3 130.4 48.5001 130.8 48.7001C131.2 48.8001 132 49 132.4 49C132.5 49 132.5 49.5 132.4 49.5C131.9 49.5 130.4 49.4001 129.1 49.4001C127.9 49.4001 126.9 49.5 126.4 49.5C126.3 49.4 126.3 49 126.4 49C126.8 49 127.5 48.9001 128.1 48.7001C128.7 48.5001 128.7 47.9001 128.8 47.2001C128.9 46.0001 129 41.8001 129 36.2001C129 35.7001 128.9 35.5 128.6 35.1C128.1 34.6 127.7 34.5 126.2 34.3C126.1 34.3 126.1 33.9 126.1 33.8Z"></path>
                            <path d="M78.5 56.9H79.4V61.2C79.4 61.6 79.4 62 79.5 62.3C79.6 62.6 79.7 62.8 79.9 63C80.1 63.2 80.2 63.3 80.4 63.4C80.6 63.5 80.8 63.5 81.1 63.5C81.3 63.5 81.6 63.5 81.8 63.4C82 63.3 82.2 63.2 82.3 63C82.5 62.8 82.6 62.6 82.7 62.3C82.8 62 82.8 61.6 82.8 61.2V56.9H83.7V61.1C83.7 61.7 83.6 62.2 83.5 62.6C83.4 63 83.2 63.3 83 63.6C82.8 63.8 82.5 64 82.2 64.1C81.9 64.2 81.5 64.3 81.2 64.3C80.8 64.3 80.5 64.2 80.2 64.1C79.9 64 79.6 63.8 79.4 63.6C79.2 63.4 79 63 78.9 62.6C78.8 62.2 78.7 61.7 78.7 61.1V56.9H78.5Z"></path>
                            <path d="M86.7 56.9H87.6L90.2 61.4L91 62.9C91 62.5 91 62.2 90.9 61.8C90.9 61.4 90.9 61 90.9 60.6V56.9H91.8V64.1H90.9L88.3 59.6L87.5 58.1C87.5 58.5 87.6 58.8 87.6 59.2C87.6 59.6 87.6 60 87.6 60.3V64.1H86.7V56.9Z"></path>
                            <path d="M94.9 56.9H95.8V64.1H94.9V56.9Z"></path>
                            <path d="M97.9 56.9H98.9L100.1 60.8C100.2 61.2 100.3 61.6 100.4 62C100.5 62.4 100.6 62.8 100.8 63.2C100.9 62.8 101 62.4 101.2 62C101.3 61.6 101.4 61.2 101.5 60.8L102.7 56.9H103.6L101.3 64.1H100.2L97.9 56.9Z"></path>
                            <path d="M105.7 56.9H109.9V57.7H106.7V60H109.4V60.8H106.7V63.4H110.1V64.2H105.8V56.9H105.7Z"></path>
                            <path d="M116.6 64.1L114.9 61.1H113.6V64.1H112.7V56.9H115C115.4 56.9 115.7 56.9 116 57C116.3 57.1 116.6 57.2 116.8 57.3C117 57.4 117.2 57.7 117.3 57.9C117.4 58.1 117.5 58.5 117.5 58.8C117.5 59.4 117.4 59.8 117.1 60.2C116.8 60.6 116.4 60.8 115.9 60.9L117.7 64H116.6V64.1ZM113.5 60.3H114.7C115.3 60.3 115.7 60.2 116 60C116.3 59.8 116.5 59.4 116.5 58.9C116.5 58.4 116.3 58.1 116 57.9C115.7 57.7 115.3 57.6 114.7 57.6H113.5V60.3Z"></path>
                            <path d="M120 62.6C120.3 62.9 120.6 63.1 120.9 63.3C121.2 63.5 121.6 63.5 122 63.5C122.5 63.5 122.8 63.4 123.1 63.2C123.4 63 123.5 62.7 123.5 62.3C123.5 62.1 123.5 62 123.4 61.8C123.3 61.7 123.3 61.6 123.1 61.5C122.9 61.4 122.9 61.3 122.7 61.3C122.5 61.3 122.4 61.1 122.2 61.1L121.2 60.6C121 60.5 120.9 60.4 120.7 60.3C120.5 60.2 120.4 60.1 120.2 59.9C120.1 59.8 119.9 59.6 119.9 59.4C119.8 59.2 119.8 59 119.8 58.7C119.8 58.4 119.9 58.2 120 57.9C120.1 57.7 120.3 57.5 120.5 57.3C120.7 57.1 120.9 57 121.2 56.9C121.5 56.8 121.8 56.8 122.1 56.8C122.5 56.8 122.9 56.9 123.3 57C123.7 57.2 124 57.4 124.2 57.6L123.7 58.2C123.5 58 123.2 57.8 123 57.7C122.8 57.6 122.4 57.5 122.1 57.5C121.7 57.5 121.4 57.6 121.1 57.8C120.9 58 120.7 58.2 120.7 58.6C120.7 58.8 120.7 58.9 120.8 59C120.9 59.1 121 59.2 121.1 59.3C121.2 59.4 121.3 59.5 121.5 59.5C121.7 59.5 121.8 59.6 121.9 59.7L122.9 60.1C123.1 60.2 123.3 60.3 123.5 60.4C123.7 60.5 123.8 60.6 124 60.8C124.1 61 124.2 61.1 124.3 61.3C124.4 61.5 124.4 61.7 124.4 62C124.4 62.3 124.3 62.6 124.2 62.8C124.1 63 123.9 63.3 123.7 63.5C123.5 63.7 123.2 63.8 122.9 63.9C122.6 64 122.3 64.1 121.9 64.1C121.4 64.1 120.9 64 120.5 63.8C120.1 63.6 119.7 63.3 119.4 63L120 62.6Z"></path>
                            <path d="M126.9 56.9H127.8V64.1H126.9V56.9Z"></path>
                            <path d="M132.4 57.7H130.2V56.9H135.5V57.7H133.3V64.1H132.4V57.7Z"></path>
                            <path d="M138.9 61.3L136.7 56.9H137.7L138.6 58.9C138.7 59.2 138.8 59.4 138.9 59.7C139 60 139.1 60.2 139.3 60.5C139.4 60.2 139.5 60 139.7 59.7C139.8 59.4 139.9 59.2 140.1 58.9L141 56.9H142L139.8 61.3V64.1H138.9V61.3Z"></path>
                        </svg>