<?xml version="1.0" encoding="utf-8"?>
<!-- Generator: Adobe Illustrator 23.0.4, SVG Export Plug-In . SVG Version: 6.00 Build 0)  -->
<svg version="1.1" id="Layer_1" xmlns="http://www.w3.org/2000/svg" xmlns:xlink="http://www.w3.org/1999/xlink" x="0px" y="0px"
	 viewBox="0 0 508.6 431.1" style="enable-background:new 0 0 508.6 431.1;" xml:space="preserve">
<style type="text/css">
	.st0{fill:#FFFFFF;}
</style>
<g>
	<path class="st0" d="M404.1,168.7c5.5-9.5,18.7-5.1,18.4-3.3C418.4,167.9,410,169.4,404.1,168.7 M354.4,149.5
		c-1.7-1.3-2.7-2.5-5.4-2.1c-6.9-8.6-18.1-0.6-16.7,6.2c7,3,14.6,1.6,16.4-4.6c0.2,0.1,4.8,1.6,3,6.4c-7.2,8.2-7.7,4.5-19.7,10.3
		c-2.3,1.4-4.7,2.9-7,4.3c-4.8-30.2,25-34.7,31.6-55.9C363.3,121.9,356.6,150.1,354.4,149.5 M315.2,145.7c-1.6,2.7-3.3,5.4-4.9,8.1
		c-3.7,6.3-7.5,16.1-8.4,24.3c-1.6,0-5.5-2.5-11.3-9.2c-7.5-9.5-10.8-15.1-13.6-24c5.2-0.4,10.6-3,10.3,1.9
		c-2.7,10.2,2.7,16.6,13.3,17c3.1-8.5-2.2-19.2-11.3-17.9c-0.6-0.8-1.1-1.6-1.6-2.4c2.2-0.2,4.5-0.4,6.7-0.6
		c7.8,6.7,15.1,3.3,18.9-2.1c-4-8.5-17.3-8.7-18.7,0.6c-3.2,0.2-6.3,0.4-9.4,0.6c2.8-2.8,4.2-4.7,4.9-8.4c6.6-1.3,8.5-18.5-4.3-21.9
		c-5,4.6-5.4,20.6,2.7,21.9c-1.2,7.5-8.1,9.2-12.1,8.7c-2.1-19.2-2.3-30.6,5.4-45.1C291.5,105.4,320.3,118.7,315.2,145.7
		 M269.1,118.4h-0.3c-2.1-7.7-13.8-19.9-21.1-22.4c-0.5-3.7-0.9-7.6-1.3-11.3c-1.2-4.8-2.3-9.5-3.6-14.3
		c4.2-5.9,12.6-11.1,22.1-11.3c-0.3,5.7-0.6,11.2,1.1,16c-3.7-0.6-4.3,0.7-6.4,1.9c-2.3-1.7-13.2,1.4-8.1,12.4
		c7.3,1,12.5-6.1,9.4-11.1c1.3-1.6,3.5-1.4,5.7-0.8c4,5.9,6.3,12.2,11.9,16.4c-1.2,2-2.5,3.9-3.7,6
		C271.7,104.8,269.6,111.3,269.1,118.4 M264.4,149c-0.1-0.2-0.2-0.4-0.3-0.6c1.4-0.6,2.9-1.1,4.3-1.6h0.3c0.9,2.6,1.8,5.2,2.7,7.8
		C269.2,152.7,267.2,150.2,264.4,149 M249.3,135.2c9.5-3.9,7.5-17,2.1-20c-4.4,0.6-12,13.6-4,19.2c0.7,1.4,0.7,3.6,1.3,5.1v0.3
		c-6.5-2.1-12.7-4.8-21.6-4.6c-0.4-1.2-0.7-2.3-1.1-3.6c9.1-3,20.1-18.1,20.6-30c7.2,3.3,15.6,17.2,18.1,25.7
		c1.2,5.2,2.3,10.5,3.6,15.7v0.3c-2.9,0.8-5.8,1.4-8.7,2.1C255.3,143.2,249.7,141.1,249.3,135.2 M225.8,166
		c2.5-7.7,2.9-18.6,1.9-28.1c8.9,1,19.7,4.8,24.9,10C240.6,150.4,234.1,159.7,225.8,166 M238,91.1c-3.5-2.5,1.2-14.3,1.9-16.4
		c2.3,4.3,1.5,12.1,1.3,17.9C240.1,92,239.1,91.6,238,91.1 M120.2,157.4c4.1-3.7,8.7-5.3,13.3-6c9.4-1.2,20,7.3,20.8,10
		C142.8,160.1,131.5,158.7,120.2,157.4 M446.3,144.9c-9.3-3.1-19.5,6.8-15.1,16c-1.1,1.5-3.7,3.4-6.4,3.7
		c-8.7-6.1-18.7-4.9-24.3,3.6c-3.1,0.2-6.3-0.9-6.7-1.6c2.2-0.9,3.7-2.5,4.3-4.9c10,1.3,12-8.5,10.3-17
		c-10.2-0.8-16.5,10.1-11.3,16.4c-2.5,4.9-7,4.9-14.3,3c-7.9-1.7-17.6-4.6-24.3-4c2.3-3.7,4.7-7.4,7-11.1c2-1.3,4.2-1.7,6-3.3
		c6.9,2.7,11.3,1.2,14-0.6c13.1,1.5,13.4-10.6,10.8-15.4c-9,0.4-14.8,7.7-11.3,14c-5.4,2.4-9,1.6-10.3-0.3c2.8-3.1,5.6-6.2,8.4-9.2
		c5.1-7.2,9.5-20.9,20.8-12.1c-2.7,1.9-7.5,17.5,10,19.2c5.3-8.6,0.4-18.3-8.4-19.7c-1.2-1.3-2.5-2.7-3.7-4c6.5-3.3,16,3.6,18.6,7.3
		c-5.5,8.7,2.4,18.3,12.4,18.1c5.1-15.8-8.4-19.6-11.1-18.9c-1.8-1.8-5.1-6-9.4-7.3c0.1-1.5,3.7-0.5,14.9,1.6
		c1.7,10.1,12.3,15.1,24.9,10.3c0.4-8.2-13-20.8-24-11.9c-3.6-0.7-8.1-1.5-11.6-2.1c10.1-0.7,15.8-14.9,10-22.1
		c-10.5,0.5-17.4,10.9-13,21.6c-9.3-0.1-16.3,0.2-22.1,3.7c0.8-2.5,1.6-5,2.4-7.6c1.2-1.9,4.5-2.3,6.4-3.5c7-2.8,13-10.5,16.4-18.9
		c2.5-3.8,4.5-4.7,5.1-5.4c3.9,3.7,16.8,0.7,16.4-12.7c-9-2.3-21.1,1.7-17,11.6c-1.4,1.2-2.9,2.3-4.3,3.6c0.5-4.1,0.9-8.3,1.3-12.4
		c9.9-6.8,3.5-23.9-2.2-24.9c-6.5,2.7-12.8,21.7-0.3,24.9c0.8,13.3-5.6,21.6-9.2,24c0.7-2.8,0.9-6.4,0.3-9.2
		c3.2-6.2,0.3-16.6-12.7-14.6c-2.2,14.7,8.4,15.7,11.1,15.4c0.5,3.1,0.6,8.4-0.6,10.6c-2.9,2.9-6.1,4.1-10.8,6.2
		c0-1.8-0.3-3.8-0.8-5.1c3.6-8.5-3.8-17.2-14-14.3c-1.9,9.2,4,16.2,12.1,15.1c2.5,6.7-4.9,20.9-7.3,23.3c0.4-7.7-1.2-11.6-7.3-15.7
		c5.6-7.5-0.7-19.8-5.4-21.3c-9.9,10.9-2.5,22.7,4.3,22.4c7.2,4.9,6,12.2,6,15.7c-2.9,6.5-7.5,10.3-14.9,14
		c-1.7,1,1.3-19.3-7.6-29.4c0.7-3.6,1.2-7,1.9-10.6c1.1-6.5-0.9-13.2-1.3-18.1c-0.6-6.1,4.2-12.4,6.7-16c2.3-0.6,4.2-0.4,6.2,0.3
		c-4.4,8.9,4.9,16.8,13.7,14c0.1-10.7-5.2-16.9-12.1-14.9c-1.8-0.4-3.3-1.2-5.4-1.3c3.3-2.1,7-3.2,18.7-0.8
		c1.4,10.5,14.8,6.8,17.8,3c-3-8-13.4-8.2-17-4c-2.8-1.1-5.8-1.9-9.2-1.9c5.6-0.4,13.2-6.3,10.3-15.1c-7.1-0.1-13.2,3.5-11.9,14.9
		c-1.9-0.4-5.1,0.3-6.7,0.8c0.2-1.5,0.4-3.1,0.6-4.6c7.2-4.2,1.2-13.3-2.4-14.9c-4.3,3.1-6.1,14.1,1.3,15.1c0.3,1.3,0.2,3-0.6,4
		c-2.1,1.5-4.1,3.1-6.2,4.6c-2.3,2.7-3.2,6-5.1,9.2c-0.1,0.2-0.2,0.4-0.3,0.6c-3.4-19.4,2.1-37.5,20.6-39.7c4.6,8.7,15.3,0,18.4-4.3
		c-13.5-8.7-18.9-0.3-18.7,2.7c-5,1.4-6.5,1.6-8.4,3c0.4-1.6,0.7-3.3,1.1-4.9c12.7-2,8.9-20.6,4.3-22.1c-7.9,3.8-13.1,14.2-5.7,21.6
		c-1,2.7-1,5.1-2.1,6.4c-2.2,1.2-3.7,2.1-6.2,4.3c-0.5-1.1-0.9-2.1-1.3-3.3c8.4-8.6-0.8-22-7-21.3c-6.3,4.4-4.6,21.6,5.7,21.3
		c0.3,1.6,0.6,3.3,0.8,4.9c-1.7,2.3-3.7,4.2-4.6,7.3H354c-1-1.2-4.6-3.6-4.9-4c-1.2-2.1-0.6-3.6-2.4-4.9c-5-3.5-12.6-0.1-14.6,3.7
		c0.7,4.2,11.6,8.9,17,2.7c2.1,0.6,3.7,2.5,4,4.6c0.7,3.3-1.5,7.4-0.8,11.6c0.8,3.9,1.4,7.9,2.1,11.9c-5.4-7-7.9-11.1-15.1-16.2
		c-4.7-3.4-13.4-7-16.2-12.7c-2.4-4.2-0.7-11.4,1.6-14.3c7.8,0.9,14.5-8.2,10.6-18.4c-15.5-0.5-14.9,16.3-11.6,17.3
		c-1.2,2.5-2.5,2.3-3,8.4c-0.8,0.6-1.7-1.7-1.7-1.7c1.2-1,2.9-17.9-15.3-17.8c-3.9,9.7,3.8,24,14.3,18.6c3.7,3-0.3,4.1,5.1,12.2
		c3.4,5.4,11.8,8.8,17,13c8.1,6.4,13.1,22.8,11.9,37.6c-2.8-1.1-4.6-3-8.1-3.5c-0.4-0.7-0.7-2.8-1.1-3.6c2.8-1,8.9-10.8-2.4-19.4
		c-5.3,4.5-7.9,16.4,0.6,19.4c0.4,1.2,0.8,2.3,1.1,3.6c-3.2-0.2-6.2-0.1-9.2,0.3c-3.6-9.9-17.9-0.6-20,4.9
		c5.2,3.5,19.1,6.1,20.3-3.3c3.9-1.2,11-0.8,11.9,0.8c-0.2,0.9-3.5,1.2-7.3,4c-11.2-0.1-11.9,10.9-10.8,14c2.9,4,18-4.5,11.6-13.3
		c10.2-6.4,12.5-0.7,12.4-1.1c-1.5,8.5-15.8,24.7-23.3,27c-9.3-25.3-27.7-27-42.4-39.7c3.9-5.7,11.3-11.3,18.7-8.1
		c-0.3,12.1,14,10.6,16.4,8.9c0.1-12.9-12.2-14.5-15.7-10.3c-0.7-0.5-3.6-1.7-8.4-0.8c0.5-2.7,9.2-7,14-7.3
		c6.7,10.7,20.7,3.2,22.4-3.7c-5-5.9-20.2-6.5-22.4,2.1c-1,0.3-2.3,0.5-2.7,0.5c-0.2,0-0.1,0,0,0c2.1-2.1,2.4-4.9,2.7-7
		c5.5-4,6.5-15.6-4-20.6c-5,3.7-7.2,17.7,1.9,20.8c0.4,1.9-2,5.6-3.6,7.3c-18.6,9.4-21.5,16.3-22.7,16c-8.5-6-15.2-15.9-14.9-30.6
		c5.2,0.1,10.4,0.8,12.4,2.1c2.1,9.4,13.2,10.7,18.9,8.1c-1-12.3-12.8-12.7-17.5-9.7c-3.6-0.6-9.2-1.7-13.6-1.9
		c0.2-2.5,0.9-5.1,1.9-6.7c4.8,0.4,11.2-1.5,10-13.3c-8.2-2-14.4,5.4-11.3,11.9c-0.6,3.1-1.1,5.3-1.9,4.9c-0.4-0.3-1.2-1.2-1.3-1.4
		c0.9-3.9,2.7-12.7-11.3-11.2c-2.1,8.1,2.3,13.2,10.3,12.1c1,0.7,1.4,2,1.3,3.6c-9.9,0.6-16.6,4.3-22.7,8.7h-0.3
		c-2.5-14.2,8-30.2,20-33.5c6.2,3.9,16.4,4.8,20.6-8.4c-4.5-5-20.7-4.3-20.8,7c-2.4,1.1-4.9,2.2-7.3,3.3c1-2.4,2.2-4.7,4-7.8
		c6.9-2.8,11-18.1,0.6-26.7c-7,3.9-13.1,22-2.4,26.4c-0.9,4.5-4.1,9.5-7.3,11.9c0.1-2.4,0.2-6.5,0.2-6.5c3.9-6.8-0.3-18.3-14.2-18.6
		c-4,10.8,3.1,19.6,12.7,18.9c0.3,3.5,0,6.8-1.1,9.2c-2.6,2.3-9.7,10.1-9.7,20.6c-6-2.6-9.3-3.2-11.9-10.6
		c10.7-3.7,13.5-12.4,6-22.4c-19,5.9-10.2,21.3-7.6,21.9c1.2,2.2,1.8,5.1,2.7,7c-3-0.6-6-1.1-8.9-1.6c-4.6-16.1-21.7-9.6-24.6-4.3
		c3.2,11,18.5,12.2,24.3,6c7.3-0.9,20.5,7.3,21.1,12.4c-3.7,5.1-7,10.4-6.7,19.4c-6.4-1.3-12.5-1.9-15.4-6.7
		c7.5-6.2,3.1-16.8-4-19.2c-8,8.5-2.9,18.3,2.4,19.2c1.2,2.4,2.9,3.3,4,4.3c-5.9-0.9-13.4-2.4-16.4-6.2c5-9-0.2-18.2-6.2-20.8
		c-5.5,2.2-8.3,21.2,5.1,21.6c6.9,6,9,5.6,10.8,6.7c-0.8,0.7-1.8,1.1-3,1.3c-3.7-2-13.2,2.1-9.5,11.9c9.4,0.4,12-5.9,10.3-11.1
		c1.4-0.8,3.3-1.7,4.9-1.9c5,2.2,17,1.6,25.1,7.6c3.7,8.7-12.2,24.6-19.2,26.4c-1.4-3-3.7-3.7-4.9-7.3v-2.4
		c11.2-0.8,11.1-14.6,7.6-17.3c-14.2,3.5-10.6,14.1-8.9,16.4c0.4,2.3,0.4,3.7-0.6,3.3c-17.9-13.1-44.5-28.4-30.3-61.6
		c3.8-8.7,12.5-20,23.3-23.3c5.1,2.6,21.1,2.1,18.1-18.1c-9.7-2.9-22.2,5.6-18.4,16.4c-1.8,0.6-3.7,1.3-6.2,3
		c-0.1-0.9-0.2-3.4,0.3-4.9c5.1-4.1,4-12.8-3-17.9c-5.6,3.1-6.7,16.9,1.3,18.1c2.6,9.2-11.8,6.4-20.3,31.9
		c-1.8,1.2-1.9-6.6-6.7-10.3c-1.4-3-1-5-0.3-6.2c11-1.4,12.6-11.8,9.2-21.1c-18.2,4.7-11.6,18.7-10,20c-0.9,1.8-1.5,4-0.6,6.4
		c-3.3-1.6-5.6-3.3-7.3-6.4c7.1-7.1,2.4-19.7-5.7-22.7c-7.8,10-2.6,21.2,4.3,22.8c0.2,0.1,1.9,3,2.7,3.9c-2-0.5-3.9-0.9-6-1.3
		c-2.3-7.3-11-12.5-20.6-10c-2.9,11,13.3,21.8,19.7,11.6c8,0.4,13.5,3,16.2,8.7c-2.7-1.2-4.9-1.4-7.9-0.8
		c-7.7-5.5-20.3-2.9-22.7,7.3c4.6,5.9,17.3,4.7,21.3-0.8c0.7-1.7,1.2-3.5,1.9-5.1c1.9-1.3,6.2,0.4,7.3,1.1c3.7,3-1.6,16.5,3.3,28.1
		c4.9,12.4,14.7,20.9,22.4,30.6c5.1,6.3,11.7,12,13.3,21.9c-3.6,2.8-9.5,4.1-18.1,5.1c0-10.4-12.5-12.6-19.2-6.2
		c5.5,14.3,16.4,8.4,18.4,7.6c7,0.4,13.3-1,19.7-3c0.9,15.8-4.2,24.4-11.1,33c-1.1,1.3-2.8,3.8-4.6,4.3c-4.5,1.2-9.8-3.9-12.4-5.4
		c-0.7-3.4,0.7-5.9,2.1-8.1c1.8,0.9,14.5,5.9,16-9.4c-13.2-6.2-16.2,3.5-17,7.6c-1.4,2.5-3.4,4.2-3.6,8c-0.8-1-3.2-1.4-6.3-8
		c-1.2-3,0-7.6-0.6-11.3c-1-5.2-2-10.5-3-15.7c-0.1-0.3-0.2-0.6-0.3-0.8v-0.4c0.8-1.3,1.6-2.7,2.4-4c2.4-6.6,1.1-15.4-1.3-20.8
		c7.2-1.9,6.9-17.2-0.6-19.7c-8.4,6.3-6.3,17.1-0.8,20c1.7,5.4,4.6,14-0.8,18.1c-2.6,0.4-2.8-5.6-7-10.6c-7-7.6-7.1-10.9-6.7-21.1
		c8.2-7.9,2.1-18.9-4-19.7c-8.4,5.1-2,19.5,3,19.7c-1.7,4.4-0.6,9.4,0.6,13.6c-9.4-8.2-17.1-4.2-20.6-21.3c5.2-0.8,14.4-17.8-0.3-27
		c-12.5,8.4-5.5,25-1.1,27.3c0.2,1.5,1.1,8.3,4.3,12.7c-1.1,1-9-1.3-14.3-4c-2.9-1.6-3.9-5.5-3-6c6.2-1.4,8-9,3.3-13.7
		c-6.9,1.2-8.9,8.6-4.9,13.6c-0.2,1.8,0.1,3.4,0.8,4.9c-4.2-3.1-6.5-9.5-7.3-16c10-3.7,8.4-21.7-3.6-27.3
		c-9.9,10.2-4.5,24.8,1.6,27.3c0.4,2.3,0.5,3.8,0.8,6.2c-1.5-1.2-2.3-1.5-4.6-1.9c0.2-9.3-10.6-18.2-21.6-13
		c0.9,19.5,16.5,16.7,21.1,14c6.5,1.3,7.4,5.6,8.9,8.7c-1.2,0.1-2.8,0-4-0.3c-3.3-4.1-18.8-8.1-22.1,7c14.2,8.2,21.3-1,22.7-4.6
		c7.5-1.8,5.8,2.3,13.3,5.7c3.7,1.4,9.4,2.1,15.4,4c7.8,2.5,14.6,6.8,15.7,13.3h-0.3c-3.6-2.5-9.7-5.2-16-3.3
		c-6.1-9.4-16.4-7.9-23,2.1c4.8,6.5,18.3,8.8,23-0.6c18.1-0.2,23.9,10.3,26.4,26c0.9,5.3,0.2,12.4-1.6,16c-4.8,0.8-6.6-3.5-9.4-5.7
		c-4-3.2-9.8-6.2-15.4-6.7c-1.2-1.3-2.5-2.7-4.6-4c3.2-1.9,5.2-14.3-4.9-16.7c-3.3,1.2-5.9,15.2,3.3,17c0.5,0.5,4.7,3.5,3.6,4
		c-9.4-0.2-15,4.4-20.8,9.4c-3.1-1.2-5.7-2.1-10.2-7.6c-3.1-4-5.1-9.2-4.9-15.4c8.9-3.8,5.3-21-1.3-23.7c-8.8,4.8-7.5,18.6,0,23.7
		c0.5,0.6,0,6.4,0.6,8.1c-6.7-5.3-18.5,2.3-23.7-10.3c7.6-7.5-1.9-20.2-5.4-18.9c-7.2,6.3-0.5,18.8,4,19.2c0.6,0.8,1.1,2.5,1.3,3.3
		c-0.8-0.3-2.3-0.4-3-0.8c-2.8-5.6-10-10.5-18.6-2.4c4,11.6,16.8,7.5,18.1,4c2.3-1.5,7.9,3.9,11.6,4.9c-1.4,0.8-2.9,1.4-4.3,2.1
		c-7.8-4.6-16.7,5.7-16.4,14c8,4.3,21.2-3.5,17.3-12.7c1.9-1.9,4.3-2,7.9-2.4c14.1-1.6,13.6,14.5,23.4,18.1c0,0-3.5,3.3-4.1,5.2
		c-1.2,0.2-2.5,0.4-3.7,0.6c-1.4-9.6-15.7-12.5-21.3-4.3c5.5,15,19.9,7.5,20.8,6c0.9-0.3,2.2-0.2,3.3-0.3c-0.5,0.9-0.7,1.8-1.3,2.4
		c-2.7,1.2-7.5,8,0.8,18.9c1.9,0.7,12.6-13.7,2.2-18.9c0.1-2.5,3.3-6.8,5.4-8.4c15.8,6.6,37.5,3.6,44.3,7.6
		c-4.6,0.7-7.8,2.9-11.6,7.9c-3.7-6.9-17.9-6.5-20,1.9c2,3.7,7.7,6.6,13.3,4.3c-6,7.6-1.8,17.8-0.8,18.4c7.9-0.7,15.6-16,8.1-22.4
		c1.7-2.8,5.2-6,8.9-6.7c-0.7,1.5-0.5,3.5-0.8,5.1c-2.9,6.9-1,13.1,5.1,15.4c5-3.9,3.3-15.5-3.3-16c-0.5-2.3-0.3-3.6,0.6-5.1
		c8.5-2.9,16,5,19.7,9.7c12.4,15.6,15.2,52,5.4,74.6c-2.6,6.1-7.4,11.9-12.4,15.7c-0.4,0.3-4.7,3-8.7,4.9c-3.1,1.4-6.3,1.7-6.2,3.7
		c-0.2,2.1,25.1-0.6,89.7-1.1c2.6-3.7-4.4-1.2-10-6.4c-16.4-12.8-17.1-28.5-19.2-40.8c-1-6-1.3-14.2-0.3-20.3
		c1.2-8.3,0.9-15.3,3-22.2c5.7-18.5,20.4-30.6,36.7-38.4c11.3,9.9,23.4,18.6,29.4,33.7c9.7,41.3,0.9,70.8-0.2,74.2
		c0.1-0.2,0.1-0.3,0.2-0.5c-0.4,1-0.4,1.1-0.2,0.5c-3.8,9.1-12.2,15.2-19.5,18.2c-0.6,1-0.5,1.2,3.3,1.3c37.9,0,80,1.3,87.9,0.6
		c0.1-0.9,0.1-2.7-1.3-3c-5.2-1.1-11.4-3.1-13-3.7c-3.8-2-11.1-3.8-17.6-17c-8.9-21.5-12.5-62.7,5.7-78.6c5.2-4,11.6-5.9,19.2-7.6
		c6-1.3,19.3-3.2,25.4-0.3c0.5,0.1,0.8,0.7,1,1.5c-5.6,7.8-2.1,17.1,5.5,19c5-3.7,3.5-15.8-3.3-20.3c6.6,1.4,13.3,5,16.7,11.9
		c-0.4,3.1-3.8,17.9,16,17.8c3.5-14.5-9.1-19.2-14.9-18.9c-3.2-5.3-4.5-7.2-8.1-9.2c5.8,1.2,20.4-0.8,23.3,2.7
		c-4.9,7.9,2.4,15.4,9.4,16.7c6.2-10.6-2.5-20.5-8.1-17c-1.1-0.6-1.6-1.5-1.9-2.1c6.2-1.2,8.2-2.6,11.9-4c2.3,0.8,3.9,2.3,4.6,3.7
		c-4.8,9.7,10.1,13.7,17,10.8c-0.3-7.5-7.1-16.2-16-11.9c-1.1-1.2-2.1-2.3-3.3-3.6c3.1-1.8,4.7-2.8,6.2-3.7
		C440.7,162.5,447.5,161.1,446.3,144.9"/>
	<path class="st0" d="M59.4,320.2c-2.9,15.4-2.9,41.8-2.9,62.7c13.5,0,14.6,0,20.8-7.8l2.1,1.1c-1.1,2.4-6.2,12.7-7.1,14.9
		c-2.5-0.2-13.7-0.3-16.1-0.6c-0.2,9.6,0.6,25.2,0.9,29.6c-7.8,3.4-13,9.5-14,10.9l-2.2-2.1c2.9-3.1,4.2-5.6,4.9-9.6
		c0.3-2.5,0.7-24.3,0.7-29c-4,0-22-0.3-25.7-0.3c-7.1,0-8.6,0.2-14.5,0.7c-2.8,0.3-4,0.3-5.3,0.6L0,389.4l0.9-1.1
		c43.5-50.4,48.4-56,55.9-69.2L59.4,320.2z M12.3,381.9c14,0.3,30.3,0.7,34,0.7c0.3-23.9,0.3-26.6-0.6-39.9L12.3,381.9z"/>
	<path class="st0" d="M88.6,335.1c6.2-9.2,14-13.2,23.9-13.2c14,0,21,8,21,15.1c0,7.8-4.2,15.7-22.8,31.5c-7.5,6.4-8.4,7.1-13.2,12
		c8.7,0.6,28.7,1.5,33.7,1.5c4.4,0,6-0.6,7.3-2.2l6.5-9.3l2.5,1.5c-1.8,3.4-9.6,17.2-10.9,19.4c-0.6,0.9-1.8,2.9-2.5,2.9
		c-0.6,0-2.1-2.4-2.4-2.8c-1.5-0.9-2.8-0.9-14.8-0.9H83.3c-2.4,0-2.5,0-2.5-0.9c0-0.6,0.2-0.7,0.7-1.1c4.2-2.4,23.4-18.8,30.1-26.6
		c6.2-7.3,9.9-13.9,9.9-21.7c0-7.7-5.8-13.2-13.5-13.2c-7.5,0-13.2,4.4-17.3,10L88.6,335.1z"/>
	<path class="st0" d="M185.3,376.1c-0.8,2.1-2.8,6.7-2.8,8.4c0,4.2,5.5,4.9,8.7,5.4v2.6c-0.8,0-4.2-0.1-7.6-0.2
		c-3.3-0.1-6.4-0.2-6.7-0.2c-1.4,0-6.2,0-8,0.1v-2.3c1.8-0.3,4.7-0.9,6.9-4.5c4-6.4,23.9-55.1,25.3-59c1.1-2.9,1.8-4.9,2.5-7h3
		c0.7,2.3,1.4,4.8,2.8,8.6c2.4,6.8,13.9,36.2,16.2,42.3c6.7,18.5,8.6,18.8,13.2,19.5v2.3c-2.6-0.2-5.3-0.5-10.1-0.5
		c-7.1,0-12.5,0.6-16.1,0.8v-2.6c3-0.5,5.7-1.6,5.7-4.2c0-1.6-5.6-16.6-6.2-18.2c-2.1-0.2-3.3-0.3-8.3-0.3c-4.2,0-9.7,0-15.3,0.8
		L185.3,376.1z M190.8,362.4c3.1,0.5,7.5,1,12.4,1c3.8,0,5.6-0.2,7.5-0.5c-3.1-8.5-6.3-17.2-10.1-24.9L190.8,362.4z"/>
	<path class="st0" d="M300.1,389.8c-10.8,3-21.2,3.2-22.5,3.2c-22.3,0-38.9-15.5-38.9-36.9c0-24.9,20.1-36.7,41.3-36.7
		c4.7,0,9.1,0.6,14.1,2.5c1.3,0.5,3.6,1.3,4.7,1.3c1.1,0,2.1-0.5,3.1-0.9l1.5,0.5c-0.5,2.2-2.9,13.1-3.3,15.6l-1.8-0.5
		c-0.6-4.8-0.7-6.3-2.3-7.9c-1.6-1.8-8.4-6.5-18.4-6.5c-25.5,0-25.5,26.3-25.5,32.1c0,31.3,22.7,33.6,27.2,33.6
		c10.1,0,18.6-5.3,21.8-15.1l2.6,0.3c-0.1,1.6-0.1,2.5-0.9,5.4c-0.2,0.8-1.4,4.7-1.5,5.4L300.1,389.8z"/>
	<path class="st0" d="M312,390.1c4.9-1.5,6.8-2.3,7.6-6c0.8-3.1,1-29.4,1-35.1c0-14.9-0.1-17.3-0.5-20c-0.7-5.2-5.3-5.3-7.7-5.4
		l0.5-3c1.6,0,8.4,0.1,9.7,0.1c1.5,0,5.5-0.2,9.4-0.6c4-0.3,7.9-0.7,9.3-0.7c18.8,0,26,10.6,26,19.2c0,8.5-6.7,15.5-15.7,18.5
		c12.8,24.5,21.7,34.9,33.2,35.8v3c-11.1,0.2-27.2,0.2-45.9-37.4c-3.1-0.1-4-0.1-6.9-0.5c-0.1,2.5-0.2,4.6-0.2,11
		c0,3.8,0,15.3,1.5,17.7c1.5,2.2,6.1,3.2,7.7,3.4l-0.5,2.8c-3.7-0.5-5.7-0.6-7.6-0.7c-2-0.1-3.7-0.1-6.9-0.1c-4.7,0-5.6,0-14.1,0.8
		V390.1z M339,323c-6,0-6,1.5-6.3,8.8c-0.5,10.9-0.5,12.3-0.3,22.3c1.7,0.3,2.2,0.5,5.3,0.5c5.5,0,17.3,0,17.3-14.7
		C354.9,335.8,352.8,323,339,323"/>
	<path class="st0" d="M440.5,367.4h-2.6c-1.4-9.9-1.4-10.3-19.5-10.3c-4.7,0-6.2,0.2-8.8,0.7c0,1.6-0.3,14.8-0.3,15.1
		c0,6.3,0.8,10.6,1.4,13.6c3.8,0.7,9.3,1.6,15.8,1.6c17.2,0,20.3-8.8,21.8-13h2.5c-0.6,6.5-1.6,9.9-4.9,17.5c-15.3-0.9-19.4-1-30-1
		c-10.6,0-15.5,0.2-26.7,1l0.3-3c4.1-0.8,6.4-1.4,7.1-5.2c1.1-6.4,1.4-26.3,1.4-33.7c0-2.9-0.8-17-0.8-20.2
		c-0.5-6.3-1.5-6.9-5.7-7.9c-0.5-0.1-1.1-0.2-1.3-0.3v-2h36.1c8,0,12,0,19.5-0.6c0.3,7.9-1.4,15.3-2.9,15.3c-0.6,0-1.6-0.2-2.4-0.3
		c0.3-1.4,0.7-3,0.7-4.5c0-4.4-4.8-6.3-16.2-6.3c-4.7,0-9.5,0.6-14.5,1.3c-0.8,6.9-1.1,11.1-1.1,17.8c0,2.5,0,4.6,0.1,10
		c2.6,0.1,6.4,0.3,10.4,0.3c8,0,14-0.8,14.9-1.3c2-0.8,3-6.4,3-6.5h2.6v21.8H440.5z"/>
	<path class="st0" d="M460,372.5c1.3,5.6,2.9,9.3,11.2,13.2c4.9,2.2,11.1,3.7,15.8,3.7c2.8,0,11.4-0.8,11.4-11.8
		c0-9.4-8-12.8-18.4-16.4c-10.3-3.7-19-8.4-19-20.6c0-11.9,9.9-20.4,24-20.4c2.5,0,14,1.4,15.8,1.4c1.1,0,2.4-0.2,3.2-0.8l2,0.5
		c-0.1,0.8-0.5,6.4-0.5,6.7c0,1,0.2,6.4,0.2,6.7v3.4h-2.4c-2.6-14.7-18.1-14.7-19.6-14.7c-10.6,0-13.1,7.5-13.1,12.5
		c0,5.9,2.3,10,16.1,14.8c9.3,3.4,21.9,8.1,21.9,22.6c0,7.6-4.1,20.1-26.2,20.1c-5.7,0-10.9-0.7-16.4-1.8c-0.2,0-1-0.2-1.4-0.2
		c-1,0-1.1,0.6-1.1,1h-3.1c-0.3-6.2-1-9.9-3.2-18.9L460,372.5z"/>
</g>
</svg>
