<svg height="296.848129" viewBox="0 0 28.402 25.012" width="336.872596" xmlns="http://www.w3.org/2000/svg"><g fill="#0a3558" transform="translate(145.21 -227.81)"><path d="m-137.45 251.98-.15981-.56762-.15981.56762zm.10266.42792h-.52211l-.11959.38523h-.4879l.60749-1.9569h.63359l.61312 1.9569h-.61312z"/><path d="m0 0c.146-.494.518-.671 1.011-.671.218 0 .655.032.655.339 0 .34-.429.404-.679.453-1.044.202-2.281.485-2.281 1.803 0 .542.267 1.076.712 1.391.453.316 1.043.421 1.593.421.962 0 1.892-.396 2.232-1.358l-1.407-.429c-.162.412-.469.557-.898.557-.226 0-.55-.064-.55-.355s.404-.348.615-.396c.525-.105 1.083-.194 1.568-.445.542-.291.825-.809.825-1.415 0-1.335-1.326-1.868-2.474-1.868-1.165 0-2.2.485-2.499 1.69z" transform="matrix(.35278 0 0 -.35278 -135.32 252.13)"/><path d="m0 0h-1.698v2.159h-1.31v-2.159h-1.698v5.547h1.698v-2.046h1.31v2.046h1.698z" transform="matrix(.35278 0 0 -.35278 -131.51 252.8)"/><path d="m0 0c0-.534.057-1.561.833-1.561s.833 1.027.833 1.561c0 .542-.081 1.626-.833 1.626s-.833-1.084-.833-1.626m3.486.008c0-1.577-.971-2.838-2.653-2.838s-2.652 1.261-2.652 2.838c0 1.658.962 2.871 2.652 2.871s2.653-1.213 2.653-2.871" transform="matrix(.35278 0 0 -.35278 -129.95 251.83)"/><path d="m0 0-.954 2.095-.583-.809v-1.286h-1.601v5.547h1.601v-2.288l1.537 2.288h1.528l-1.399-2.029 1.739-3.518z" transform="matrix(.35278 0 0 -.35278 -126.7 252.8)"/><path d="m0 0-.453 1.609-.453-1.609zm.291-1.213h-1.48l-.339-1.092h-1.383l1.722 5.547h1.795l1.739-5.547h-1.739z" transform="matrix(.35278 0 0 -.35278 -124.3 251.98)"/><path d="m0 0c-.26-.303-1.298-.692-1.471-.216s-.649-.736-1.124-.476c-.476.259-1.774.779-1.861.303-.086-.476-.605-.909-.821-.649-.217.259-1.082 1.211-.736 1.471.346.259.476.995-.173.778-.649-.216-.519 1.168 0 1.428.333.166.476.346.779-.13.302-.476.735.087.735.433s.303.821.606.821 1.211-.346 1.557-.908.519-1.514 1.038-1.644c.52-.13 1.73-.908 1.471-1.211m-6.878-.692c-.779.303-.346-1.211-1.341-.649s-1.038.822-1.082 1.341c-.043.519-1.557.562-.086 1.298.389.194 1.298.259 1.254-.173-.042-.425-1.212-.729.087-.822 1.211-.087-.736-.606 1.817-.433.348.024.129-.865-.649-.562m-2.423-3.634c-.476-.173-.648-.432-.822-.216 0 0 .693.995.952.908.26-.086.346-.519-.13-.692m-1.038-1.298c-.562-.605-.433-.908-.216-1.297.216-.39-1.298.735-.563 1.73.208.28 1.341.173.779-.433m-1.211 6.749c-.476.173-.043 1.081.216 1.644.195.423.26 1.124.692.562.433-.562.216-1.168-.043-1.514-.26-.346.112-1.048-.865-.692m-.692.722c-.304 0-.551.219-.551.489s.247.489.551.489.551-.219.551-.489-.247-.489-.551-.489m-.044-8.768c-.173-.217-.302.562-.821.519-.52-.044-1.082.216-.779.778 0 0 .908.303 1.254-.216s.52-.865.346-1.081m-1.73 8.954c-.303-.216-.303.303-1.211-.216-.909-.519-.952.173-.779.476.336.588.562.778 1.082.778.519 0 1.514.433 1.687-.389s1.071-1.892.649-2.033c-1.039-.346-1.125 1.6-1.428 1.384m-1.136-14.563c-.672.512.045.614.045.614s.358-.034.484-.191c.28-.351.143-.935-.529-.423m.341-4.318c-.322-.232-1.033-.166-.64.367.393.535.719.006.719.006s.065-.269-.079-.373m-1.411 5.514c-.216.044-1.039.606-1.644.606s-1.038-.39-1.168.173c-.068.298.606.692.909.822.302.13.908.476 1.038.822.129.346.562.476.692-.217.129-.692 1.73-1.211 1.557-1.687-.173-.475-1.168-.562-1.384-.519m.437-5.191s-.216-.173-.371-.086c-.347.193-.588.865.062.735s.309-.649.309-.649m-1.302 3.85c-.346.217-.909.13-1.038-.216-.13-.346-.65-.779-1.082-.303-.433.476-.173 1.557.605 1.082.398-.243 1.817.778 1.99.519.174-.26-.129-1.298-.475-1.082m.188-2.938c-.038-.398.031-.763-.275-.523-.259.204-.21 1.371.167 1.152s.147-.232.108-.629m-2.61 22.361c-.607-.389-.866-.346-1.169-.302-.303.043-.389-.693-.692-.044-.133.286 1.125.736 1.557.736.433 0 .779.735 1.038.346.26-.39.26-1.211-.173-1.601-.695-.626-.125 1.146-.561.865m-1.657-18.106c-.675.198-1.826-.22-1.123.609.53.626.713 1.538 1.265.756.238-.337 1.008-1.701-.142-1.365m-.031-3.307c-.432.044-1.128 1.014-.908 1.038.389.044.822.303 1.124-.043.303-.346.216-1.038-.216-.995m-1.773-2.076c-.822-1.298-1.601-.649-1.775-.476-.172.173-.778 1.384-.085 1.86.428.295.475 1.168 1.167.606.693-.563 1.515-.693.693-1.99m-3.331 6.792c.38.355.043 1.038.865.475.822-.562.562-1.254.216-1.297-.346-.044-1.73.216-1.081.822m-.995 1.167c-.13.52-.26.866 0 1.212.116.155.778.303.908.086.13-.216.779-.259.822-.649.043-.389-.735-.389-.908-.562s-.693-.606-.822-.087m.216-5.234c-.606-.433-1.298-.822-1.644-.389-.346.432-.735.692-1.168.865s-.303 1.384-.13 1.514c.222.166.692.216 1.082.173.389-.043 1.557-.086 1.947-.865.389-.779.519-.865-.087-1.298m-4.456 6.532c-.216.606.476 1.255.563 1.428.086.173.692.995 1.211.562.519-.432-.26-.822-.303-1.168s.476.13.779-1.081c.302-1.212-.85-.526-1.168-.866-.649-.692-.865.52-1.082 1.125m-.427 9.658c-.341.146-.211.503-.065.762.146.26.438.065.438.065.017-.081.471-.568.341-.73s-.373-.243-.714-.097m-1.044 5.656c-.475-.087-.605.735 0 .779.606.043.909-.995.865-1.125-.117-.353-.389.432-.865.346m.649-4.196c0-.606-.173-.995-.519-.995s-1.126-.403-1.428-.433c-.432-.043-.043-.173-.692.303-.648.476-.302.173.131.822.432.649.691.216 1.686.649.995.432.822.259.822-.346m-1.6-18.558c-.347-.044-.995.692-1.385.649-.389-.044-.692-.779-1.34-.606-.649.173-1.039.692-.995 1.168.043.476-.39.779.043 1.125.394.315 1.038-.909 1.514-.476.476.432.908.346 1.384.346s2.163-.26 2.076-.995c-.086-.736-.951-1.168-1.297-1.211m-4.196 5.796c-.484.194-.822.866.086.736.909-.13.433-.649.433-.649s-.303-.173-.519-.087m.737-.09c.329.405.967-.017.967-.017.185-.321.296-1.003-.08-.846-.377.158-1.215.459-.887.863m2.593 7.228c.087.779 1.774.649 1.99.303.217-.346.217-.735-.173-.606-.389.13-.605-.129-.908-.216-.303-.086-.949.152-.909.519m1.125-5.58c.13-.606-.043-.865-.432-.779-.39.087-.52-.476-1.255-.562-.735-.087-1.362 1.06-1.362 1.406.259.432 1.362.454 1.838.757.476.302 1.082-.217 1.211-.822m-3.374 5.407c.086.865.346.216.822 0s1.427-.519.087-.822c-.425-.096-.995-.043-.909.822m.822 16.784c.441.442.346-.389 1.125-.432.778-.043 2.029-.002 1.99-.519-.087-1.125 1.695-.866 1.643-1.428-.086-.951-1.168-1.124-1.297-1.384-.13-.26-.995-.087-.909-.995.087-.908-.692.152-.822.519-.259.736.779 1.125.606 1.514-.173.39-.865-.692-1.255-.259-.389.432-.865.086-.519.951.346.866.13.736-.302.909-.433.173-.433.952-.26 1.124m1.6 1.731c.563-.13 1.644-.346 1.515-.952-.13-.605-.563-.779-.779-.346s-.043.735-.822.735-.908-.173-.908.174c0 .273.432.519.994.389m4.326-6.705c-.329-.481-.488-.619-.548-.653.053-.008.166-.1.246-.602.129-.822-.173-1.298-.303-1.168s-.822.519-.779 1.212c.044.692.779 1.124.13 1.254s-.735-.303-.822.346c-.052.395-.043.563.908.519.952-.043 1.731-.086 1.168-.908m.822-7.398c.693-.519.822.347 1.125 0 .303-.346.13-.865-.259-1.038-.39-.173-.779.13-1.255.13s-.476.087-.433.346c.043.256.13 1.082.822.562m.693 8.306c.346.476.129.865.735.736.606-.13.433-1.082.389-1.428-.043-.346-.649-.303-.865-.562-.216-.26-.562-.26-.649.086-.084.339.044.692.39 1.168m1.384-10.685c-.216-.432-.562-1.081-.822-1.081s-.346.476-.736.692c-.389.216-.562 0-.519.562.017.216.26.476.995.39.736-.087 1.298-.13 1.082-.563m.173 2.423c.259-.019 1.601-.087 1.427-.822-.173-.736-.562-.865-.908-.865s-.476.778-.779.951-.346.779.26.736m.822 8.392c.244.061-.043 1.514.259 1.428.303-.087.866-.693 1.427-.779.563-.087.736-.346.261-.692-.476-.346-.649-.39-.693-.822-.043-.433-.562-.519-.649-.173-.086.346-.346.649-.605.303-.26-.346-.865.519 0 .735m1.686-11.853c-.085-.303-.085-.735-.648-.692-.562.043-1.687-.39-.606.778.253.274 1.341.217 1.254-.086m1.256 4.975c.432.216.561-1.125.173-1.168-.39-.043-1.471-.476-1.601-.692-.13-.217-.692-.173-.692.043 0 1.038.605.519.908.519s.779 1.082 1.212 1.298m.216 2.163c.259.173 1.6.346 1.514-.087-.087-.432-.995-1.125-1.298-.995s-.476.909-.216 1.082m2.108-.509c.336.595.567.124.567.124s.037-.257-.081-.383c-.265-.283-.823-.335-.486.259m.141-7.927c0-.519-.433-.519-.735-.303-.303.217-.606.779-1.341.693-.735-.087-2.163-.346-.995.994.317.365.822.649 1.167.39.347-.26.65-1.255.995-.995.347.26.909-.26.909-.779m-.302 10.166c.388-.346-.563-1.471-.952-.995 0 0 .562 1.341.952.995m3.234 2.098c.362-.138.189-.59-.095-.792s-.594-.145-.594-.145c-.314.534.327 1.075.689.937m.053 4.131c-.13.476.476.736.693.476.215-.259.778-1.081.388-1.254-.388-.173-1.211-1.038-1.6-.649-.369.368.649.952.519 1.427m2.249-4.585c.26.216.779 0 .173-.26-.605-.259.303-.605.606-.822.303-.216.519-.562.173-.562s-.692-.389-1.125-.476c-.432-.086-1.081.433-1.211 1.428s1.185.526 1.384.692m-.173 6.143c.563.173.736-.26.865-.476.13-.216-1.038-1.038-1.254-.519-.117.282-.173.822.389.995m1.514-9.431c-.173-.216-1.081-.173-1.297-.476-.217-.302-1.168-.302-1.212-.086-.043.216-.216.389-.086.562.147.196 1.557-.13 1.817.217.259.346.952 0 .778-.217m-.519 3.894c.044.173.563.432.519 0-.043-.433-.259-.476-.649-.346-.389.129.074.12.13.346m.723-4.615c.279.395.47.082.47.082s.032-.17-.067-.255c-.22-.187-.681-.222-.403.173m3.3 4.917c.165.308 1.082.044.952-.259s-.13-1.125-.562-.562c-.433.562-.736.173-.39.821m1.307-7.507c.279.394.47.082.47.082s.032-.171-.067-.255c-.219-.188-.681-.222-.403.173m.467 6.988c.312.203.736.909.562.173-.173-.735.952-.173.52-.951-.433-.779-.779-.822-.779-.693 0 .13.562.736-.13.909s-1.038 0-.173.562m1.457-1.125c.279.395.47.082.47.082s.032-.171-.067-.254c-.22-.188-.681-.223-.403.172m.612-7.084s.031-.171-.067-.255c-.22-.188-.681-.223-.403.172s.47.083.47.083m4.622 2.239c.279.395.47.082.47.082s.032-.171-.066-.254c-.22-.188-.682-.223-.404.172m-4.682-16.884c.468.023 1.487.123 1.349-.427s-1.01-.439-1.01-.439c-.351.227-.808.843-.339.866m1.885 2.782c.182.209.692.303.908-.043s.389-.389.692-.389.303-.39.13-.736.259-.605-.303-.822c-.562-.216-.433-.778-.865.043-.433.822 0 1.082-.39 1.428-.389.346-.475.173-.172.519m2.552.865c.294.674.605.649.735.303s.736-1.427.216-1.471c-.519-.043-.302-.908-.821-.519-.519.39-.779.346-.866.866-.086.518.433.129.736.821m6.04-3.008c.245-.125.128-.537-.065-.721-.194-.184-.404-.133-.404-.133-.214.487.223.98.469.854m-42.637-.539c-.693.173-1.168.433-1.255 1.082-.086.649-.865 1.514-.692 1.773.173.26.389.346.476.519.191.383.605.822.952.217.346-.606.865-.909.908-1.385.043-.475.303-2.379-.389-2.206m-2.077-2.249c-.476-.087-1.242.268-.519.519 1.125.389 0 1.254-.433 1.384-.432.13-1.168.13-1.427.692-.26.563-1.038-.043-1.082-.259-.043-.217-.302-.779-.778-.693-.476.087-.606-.173-.433.303.074.204.736.087.779.433s.216.779.562.779.822.605 1.341.475c.519-.129 1.168-1.168 1.428-1.47.259-.303 1.557-1.082 2.076-1.558s.779-.173.779-.562-1.817.043-2.293-.043m-4.888 8.651c-.216.519-.173-.476-.519-.302-.346.173-.39.129-.346.432.025.177.259.389.822.433.562.043 1.341-.865 1.168-1.039-.173-.172-.909-.043-1.125.476m-1.038-8.089c.043-.606-.952-.649-1.082-.476-.151.202-.259.865.173 1.298.433.433 1.817.605 1.731.303-.087-.303-.866-.519-.822-1.125m-1.298 9.733c.043.217-.389.779-.13.995.235.196 1.298-.432.908-.735-.389-.303-.821-.476-.778-.26m-.303-1.341c-.303.087-.519.39-.389.649.124.248.476.303.649 0s.043-.735-.26-.649m-.043-7.959c-.606-.779-1.125-.649-.692.129.21.379 1.297.649.692-.129m-.087-1.688c-.605-.778-1.124-.648-.692.13.21.378 1.298.649.692-.13m-1.124 8.22c-.173.303-.087.605-.087.605.563.26 1.038-.432.865-.778s-.605-.13-.778.173m.519 13.843c-.26.605-.692 1.124-.26 1.514.206.185 1.038 0 1.125-.217.086-.216.649-1.297.432-1.557-.216-.26-1.038-.346-1.297.26m-1.125 6.488c.124.248 1.125-.605.822-.995-.303-.389-1.038.563-.822.995m1.774-.346c.122.097.908.433.994.13.087-.303.087-1.081-.259-1.298-.346-.216-.692-.432-.865-.086s-.476.778.13 1.254m.086 2.769c.332.199.692-.13 1.038-.087.347.044.779.736 1.428.649.649-.086 1.038-.692.519-1.124 0 0-.562-.736-1.081-.779s-.649-.822-1.082-.606c-.432.217-.26.952-.692.995-.433.043-.346.822-.13.952m2.769-20.202c-.217-.086-1.341-.26-1.428.216.007-.036 1.166 1.086 1.428 1.038.475-.086.216-1.168 0-1.254m0 5.537c0-.259.13-.735-.519-.649-.649.087-1.169.26-1.125.649.043.389.476.519.865.519s.865.692 1.081.39c.217-.303-.302-.649-.302-.909m1.384 7.83c.173-.519.433-.606.043-1.038-.389-.433.519-1.082-.216-1.255-.736-.173-.909.736-1.557.779-.649.043-1.644.259-1.644.735s-.822.736-.563 1.385c.114.284 1.212-.087 1.385.173.173.259.562.216.649-.346.086-.563.475-.606.821-.303.347.303.909.389 1.082-.13m1.125-6.921c.389.043.519.735.995.648.476-.086.605 1.255 1.168.693.562-.563-.866-.822-.909-1.731-.043-.908-1.125-.692-1.298-.346s-.432.562-.735.13c-.303-.433-1.081-.562-.865.043.216.606.216.779.216.779.087.259-.346.735.13.822.476.086.908-1.082 1.298-1.038m-.303 4.801c.28.42 1.125.217 1.644.173.519-.043.562-.649.259-.908-.303-.26-.086-1.384-.778-1.038-.693.346-1.817.735-1.125 1.773m-.865-10.166c.135.169.865-.129 1.038-.086s.086-.822-.216-.995c-.303-.173-.909-.303-.909-.043 0 .259-.086.908.087 1.124m.216-7.397c0-.389-.779-.303-.908-.043 0 0 .908.432.908.043m-.087 1.471c0 .735-.995-.476-.648.779.083.3.605.086.908.648.303.563.606.476 1.038.174.433-.303 1.082-.736.909-1.082s.562-1.514.303-1.773c-.26-.26-1.385 0-1.558.389s-.952.13-.952.865m3.456 8.623s-.316-1.193-.823-.913c-.508.281.358.974.823.913m.438.678c.259.173.822.605.865.302.043-.302 0-.605-.216-.951-.217-.346-.736-.433-.909-.13s.26.779.26.779m.649 3.46c.346.13 1.038.13.822-.216-.217-.346-.649-1.125-.995-.735-.346.389.173.951.173.951m-11.291-8.954c-.259-.13-.259.519-.259.519.173.043.519-.39.259-.519m-2.985 4.239c-.476-.303-2.163-.735-2.206.389-.014.372.779.519 1.514.39.735-.13 1.168-.476.692-.779m-2.206-3.201c-.216-.562-.562-.822-.908-.519-.347.303-.563.216-.909.389s.476.519.389.736c-.086.216.13.346.13.346.433.129.822-.26 1.168-.13s.346-.26.13-.822m66.749 5.58c-.13.736-.909 1.298-1.774.26s-.539-.01-1.384-.433c-.952-.475-1.125-.173-1.861.39-.396.303-.475 1.99-1.113 1.093-.898-1.262-.651.607-1.05.767-.865.346-1.47-.26-1.816-.649-.347-.389-1.557-.216-2.076.692-.52.908.389 1.168.648.735.26-.432 1.211.044.736.693-.476.648 1.73.908 2.552 1.211s0 .778-.692.735-1.081-.13-1.385.692c-.302.822-.649.606-.821.433-.174-.173-.433-.822-1.385-.087-.951.736.347 1.125.779.736s.649 1.081 1.384 1.038c.736-.043 1.774-.433 2.509-.389.735.043 1.168-.476.303-.606s-.649-.908-.26-1.125c.39-.216 1.038.909 1.644.476.606-.432 1.255.173 2.293-.346s1.038-.13 1.514.087c.476.216 1.125.432 1.081.995-.043.562-1.124 0-1.643.995-.328.629-1.082.346-1.86.216-.779-.13-1.169-.909-1.471-.303-.303.606 1.946 1.384 2.076 1.947.13.562-.433-.173-.649.562s-.692.519-1.384.476-1.038.606-1.558.649c-.519.043-.908-.909-1.816-.865-.909.043-.606.822-1.168 1.384-.563.562.13 1.384.649.303.519-1.082.692-.563 1.168-.26s.952.779 1.773.043c.822-.735.692-.129 1.211.13.52.26.649.822.303.822s-2.033.26-1.125.692c.668.318.518.496.065.877-.312.263-.656.145-.584.508.033.162-.508.754-.902.68-.395-.075-1.331-.352-1.217.79.086.866-.32.118-.757.173-.438.056-.822-.886-1.06-.043-.284 1.007-1.417-.286-1.474-.232-.092.088-.21-.735-.742-.662-.531.072-1.362-.963-1.228-.283.135.68-.296-.017-.449-.034-.779-.087-1.774-.606-.303-1.601s.043-.908-.822-1.124c-.865-.217-.433-.909-.087-1.298.347-.39-.259-1.385-.692-.433-.432.952-.692.39-1.254-.043-.563-.433-.346.562-.087.562.26 0 .346-.043.736 1.125.389 1.168-1.904 2.552-1.99 3.331-.087.779-.563 1.428-1.038 1.038-.476-.389-.822-.216-1.342.39-.519.605-.692-.347-.994-.26-.303.087-.952.087-1.644-.433-1.812-1.358.475-1.081.822-1.47.781-.88-.217-1.212-.693-.649-.475.562-.605.129-.908.086s-.735.216-1.038.519-.822.779-1.255.173c-.432-.605-.908-.302-1.73.519-.822.822-.951.217-1.082-.302-.13-.519-1.211-.433-1.557-.519-.346-.087-1.168-1.342-1.946.259-.779 1.601.692 1.644 1.644 1.428.951-.217.215 1.254 1.557 1.168 1.341-.087.433-.346 1.687-.779s.648.822 1.601.735c.951-.086.432.693 1.686 1.428.744.436-1.081 1.081-2.033.865s-1.038.216-1.6.519c-.563.303-1.254.39-1.731-.086-1.211-1.212-1.167-.043-1.167.519s-1.861 1.6-2.769 1.73-2.509-1.6-2.985-1.038-1.038.13-2.206 0-.606-.562-.043-1.038c.562-.476-.347-.519-.823-.433-.475.087-.908-.562.347-.865 1.254-.303.216-.692-.26-.692s-1.168-.433-1.86-1.298-1.168-.649-1.947-.476c-.778.173 0 1.731.433 1.644.432-.086 1.687.692 1.384 1.514s-.303.606.649 1.298 0 1.254-.432 1.427c-.433.173-1.212-.778-1.644-.259-.433.519-.866.519-1.385.519s-.462-.881-1.125-.26c-.172.163-.378.287-.606.382-.229.094-.633.446-.745.202-.249-.54-.941 1.32-1.028-.021-.023-.369-.475-.13-.648.086-.246.307-.693-.259-.977-.183-.505.135-.803-.377-1.057-.293-.389.13-1.458 1.152-1.946.13-.476-.995.778-.346.649-.995-.13-.649.605-1.081.216-1.514-.39-.432-1.86-.692-2.812.043-.952.736-1.428-.648-1.601-1.384-.173-.735 1.385-.562 1.601-.995.216-.432 1.817.303 2.898-.173 1.082-.476-.908-.432-.995-.822-.086-.389.909.087 1.168-.519.26-.605.693 0 1.385-.562.692-.563 1.254-.13 1.86.173.605.303 1.384-.433 1.298-.865-.087-.433-.563-.303-.952-.736-.39-.432-.952.736-1.557-.216-.606-.952 1.167-.043 1.427-.606.26-.562.822-.475.952-.692.13-.216-.909-.908-1.514-1.211-.606-.303-1.082-.649-2.12-.476s.519 1.514-.779 1.644c-.389.039-1.341.346-1.254.908.086.563-1.774 2.466-2.293 2.899-.519.432.13-1.687-.606-1.644-.735.043-1.686 1.514-2.984 2.422-.613.429-1.255.13-1.813.325-.301.106-.809-.586-.889-.263-.326 1.323-.716-.364-.932-.191-.333.266-.503-.514-.909-.217-.33.243-.366-.547-.432-1.211-.13-1.298-.692-.519-2.033-.735-1.341-.217-1.341-1.687-1.255-2.206.087-.52-.216-.952-.995-.649-.778.302.043.951-.649 1.211-.692.259-2.336-1.817-2.336-2.293s1.298.26 2.034-.822c.433-.637 1.773.13 2.249-.346s1.86.562 2.249 1.038c.39.476 1.255.563 1.861.649.605.087.692-.995.692-1.341s1.125-.086.735-1.125c-.163-.436-.649-.346-2.466-.475-1.817-.13.39-.692.303-1.125-.086-.433-1.687-.26-2.12-.779-.432-.519 1.428-1.644 2.077-1.903.649-.26 2.336 1.211 2.725.778.39-.432.606-1.124 1.298-1.687.692-.562.995-.692 0-1.687s-2.596.26-2.596.26c-1.038.216-1.6.778-2.206-.13-.375-.562-.173-1.384-.692-1.774-.519-.389-.946.736-1.73.649-1.46-.162-1.395 1.201-2.077 1.428-.431.144-1.873-1.3-1.818.362.066 2.006-1.063-.018-1.426.287-.811.681-1.395-.909-1.78.196-.15.428-.87-.187-1.162-.369-.692-.433 0-1.731-.735-1.774-.736-.043-.519-.432-1.038-.908s0-1.039-.303-1.255-.248-.887-.087-.995c.39-.259.476 1.298.952.26.476-1.039-1.168-1.298-1.428-.909-.259.39-.605 1.514-.865.39-.206-.894-1.341-1.212-1.254-1.644.168-.842 1.254-.13 1.99.13.735.259.692-1.082.692-1.947s.995-.606 1.254-.822c.26-.216.649-.519 1.125-.562.476-.044.952.822.043.951-.908.13 0 .779-1.038.692-1.038-.086-.432.909-.173.606.26-.303 1.211-.086 1.99-.216s.952-1.255 1.644-1.211c.348.021.779.086.822-.39s-.389-1.211-.13-1.297c.169-.057.26.778.909.995.648.216.475-.952.605-1.601s-.649-.087-.735-.995c-.087-.909.475-.562.951-.216 1.299.944.909-.606 1.601-.693 1.305-.163.995.822 1.774.995.778.173 1.211.433 1.6.779s1.168.433 1.904-.259c.735-.693.995-.822 1.557-.563.75.346.606-.605.303-.952-.303-.346-2.077-.259-3.028-.129-.952.129-1.644-.736-1.168-.822.475-.087 1.168-.519.605-.779-.562-.259-.432-.778-.995-.735-.562.043-1.168 1.298-1.817-.173s1.125-2.423 2.509-1.904c1.385.519 1.817.043 1.99-.476s1.817-.929 1.817-.929c.779-1.688-.714-.325-1.168-.195-.454.129-.973-.909-1.946-.779-.974.13-1.298-.324-1.039-.519.26-.195.779-.714 0-1.038-.778-.325-.389-1.233-.778-1.622-.39-.39-.195-1.039.519-1.039.713 0 2.466.13 2.725-.324.26-.454 2.077 0 2.077 0 1.751 0-.13-1.039.064-1.558.195-.519 3.699.13 4.413-.324s-.13-1.492.324-1.752c.455-.259 1.428.909.909 1.817s.324.519.129 1.363c-.194.843 1.752 1.362 2.661 1.232.908-.129 1.557.195 1.427-.778-.129-.973.974-.195 1.493-.39.519-.194.519.714-.065 1.104-.584.389.519.973.843 1.167.325.195-.778.585 1.104 1.299 1.881.713 3.309-.195 4.672-1.169 1.362-.973.779-3.633.389-5.255-.389-1.623-1.171-2.693-1.622-3.505-.675-1.212-1.596-1.76-3.213-2.009-12.963-1.13-17.876-4.739-17.876-4.739s9.798 4.218 26.929 4.218c12.67 0 25.361-4.218 25.361-4.218s-6.42 3.312-18.137 4.764c-.618.43-.699.605-.779.963-.086.39-.952.892-1.6 1.757-.649.865-.476 2.206.043 3.374s.909 2.985 2.033 3.461c1.125.476.822 1.081 1.125 1.341.302.259.995.995 1.384.129.389-.865-.562-.043-1.298-.648-.735-.606.606-.476.823-1.082.215-.605 1.038-.605 1.427-.519.39.086.692-.13.432-.519-.259-.389-.476-.606-.346-1.082s.909-.346 1.342.087c.432.432.259.519.691.13.433-.39.347.432.952.606.606.172.346.389.562.735.217.346.822.303 1.168.043.347-.26.087-1.038.303-.476.217.562.736.087.736.087.562-.693.692.346 1.427.216 1.285-.227 1.168.13 1.817.389.649.26.692.433 1.082-.259.389-.692.346-.433 1.557-.476s2.12 1.384 2.509 1.903c.39.519.822.476.476 1.601s-1.168-.303-1.514.822-1.298.303-1.601 1.168 1.038.346 1.428.562c.389.216.778-.908 1.341-.865.562.043 1.298-.519 1.687-.086.389.432-.433.648-.822 1.211-.389.562.562.562.952.216.389-.346.562-.173 1.34-.216.78-.044 1.039-.995 1.342-.649s-.606.562.303 1.168c.908.605.865.086 1.643.043.779-.043.865 1.168 1.168 1.774.303.605.174.865-.389 1.125-.562.259-.736-.26-.995.562s-.735.952-1.297.735c-.563-.216-1.818.13-1.775.736.044.605-1.081.822-1.773.908-.692.087-1.384.13-1.514.736-.13.605-.433.735-1.125.735s-.908-.216-1.427.476-1.255.389-1.817-.087-.26-.995-.909-1.168c-.648-.173-.821.865-.216 1.341.606.476.909.303.563.865-.347.563 0 .39.302.952.303.563.909.173.952-.476.043-.648 1.081-.346 1.557-.303.476.044 1.125.303 1.212-.259.086-.562.649-.389 1.557-.043s1.86-.736 2.206-.822c.346-.087.217.562.736 1.081.402.403-.39.217-.606.865-.216.649.432.736 1.297.13.866-.605.476-1.125.952-1.341s1.082-.908 1.99 0c.909.909.909.173 1.817.736.909.562 1.817 0 2.206.562.39.562.433.476 1.644 0s.779.346.736 1.99c-.044 1.644.692.908.692 1.514s-.563.173-.692.908" transform="matrix(.35278 0 0 -.35278 -120.62 236.58)"/></g></svg>