<svg width="184" height="81" viewBox="0 0 184 81" fill="none" xmlns="http://www.w3.org/2000/svg">
<path d="M101.039 35.4553C99.4581 35.4553 98.1003 35.1757 96.9662 34.6166C95.8321 34.0576 94.9056 33.3307 94.1868 32.4362C93.4839 31.5417 92.9648 30.5673 92.6293 29.513C92.2939 28.4588 92.1261 27.4444 92.1261 26.47V25.9429C92.1261 24.8567 92.2939 23.7864 92.6293 22.7322C92.9807 21.6779 93.5159 20.7195 94.2347 19.8569C94.9535 18.9943 95.864 18.3075 96.9662 17.7963C98.0843 17.2692 99.4022 17.0056 100.92 17.0056C102.501 17.0056 103.875 17.2931 105.041 17.8682C106.223 18.4273 107.165 19.2259 107.868 20.2642C108.571 21.2866 108.994 22.4846 109.138 23.8583H105.712C105.584 23.0596 105.296 22.3887 104.849 21.8456C104.418 21.2866 103.867 20.8712 103.196 20.5997C102.525 20.3122 101.766 20.1684 100.92 20.1684C100.057 20.1684 99.2904 20.3201 98.6195 20.6236C97.9486 20.9112 97.3895 21.3265 96.9422 21.8696C96.495 22.4127 96.1515 23.0517 95.9119 23.7864C95.6883 24.5212 95.5765 25.3359 95.5765 26.2304C95.5765 27.093 95.6883 27.8917 95.9119 28.6265C96.1515 29.3613 96.5029 30.0082 96.9662 30.5673C97.4294 31.1104 97.9965 31.5337 98.6674 31.8372C99.3543 32.1407 100.145 32.2925 101.039 32.2925C102.349 32.2925 103.452 31.973 104.346 31.334C105.257 30.6791 105.808 29.7686 105.999 28.6025H109.426C109.266 29.8485 108.843 30.9906 108.156 32.0289C107.469 33.0672 106.526 33.8978 105.328 34.5208C104.13 35.1438 102.701 35.4553 101.039 35.4553ZM111.243 35V17.5088H114.573V35H111.243ZM109.613 20.0007V17.5088H114.573V20.0007H109.613ZM118.04 35V21.9894H121.37V35H118.04ZM116.219 24.4813V21.9894H121.37V24.4813H116.219ZM119.262 20.432C118.607 20.432 118.12 20.2642 117.8 19.9288C117.497 19.5774 117.345 19.1461 117.345 18.6349C117.345 18.0918 117.497 17.6525 117.8 17.3171C118.12 16.9816 118.607 16.8139 119.262 16.8139C119.917 16.8139 120.396 16.9816 120.7 17.3171C121.003 17.6525 121.155 18.0918 121.155 18.6349C121.155 19.1461 121.003 19.5774 120.7 19.9288C120.396 20.2642 119.917 20.432 119.262 20.432ZM124.25 35V21.9894H126.886V27.5722H126.646C126.646 26.2624 126.814 25.1682 127.15 24.2896C127.485 23.3951 127.98 22.7242 128.635 22.2769C129.306 21.8137 130.137 21.5821 131.127 21.5821H131.271C132.277 21.5821 133.108 21.8137 133.763 22.2769C134.434 22.7242 134.929 23.3951 135.248 24.2896C135.584 25.1682 135.751 26.2624 135.751 27.5722H134.913C134.913 26.2624 135.081 25.1682 135.416 24.2896C135.767 23.3951 136.271 22.7242 136.926 22.2769C137.596 21.8137 138.427 21.5821 139.417 21.5821H139.561C140.568 21.5821 141.406 21.8137 142.077 22.2769C142.748 22.7242 143.251 23.3951 143.587 24.2896C143.938 25.1682 144.114 26.2624 144.114 27.5722V35H140.783V27.2607C140.783 26.4461 140.576 25.7991 140.16 25.3199C139.745 24.8247 139.154 24.5771 138.387 24.5771C137.62 24.5771 137.005 24.8327 136.542 25.3439C136.079 25.8391 135.847 26.51 135.847 27.3566V35H132.517V27.2607C132.517 26.4461 132.309 25.7991 131.894 25.3199C131.478 24.8247 130.887 24.5771 130.121 24.5771C129.354 24.5771 128.739 24.8327 128.276 25.3439C127.813 25.8391 127.581 26.51 127.581 27.3566V35H124.25ZM154.597 35V31.1423H154.046V26.8534C154.046 26.1026 153.863 25.5436 153.495 25.1762C153.128 24.8088 152.561 24.6251 151.794 24.6251C151.395 24.6251 150.915 24.6331 150.356 24.649C149.797 24.665 149.23 24.689 148.655 24.7209C148.096 24.7369 147.593 24.7608 147.146 24.7928V21.9654C147.513 21.9335 147.928 21.9015 148.392 21.8696C148.855 21.8376 149.326 21.8217 149.805 21.8217C150.3 21.8057 150.764 21.7977 151.195 21.7977C152.537 21.7977 153.647 21.9734 154.526 22.3248C155.42 22.6763 156.091 23.2274 156.538 23.9781C157.001 24.7289 157.233 25.7113 157.233 26.9253V35H154.597ZM150.404 35.3354C149.462 35.3354 148.631 35.1677 147.912 34.8323C147.21 34.4968 146.658 34.0176 146.259 33.3946C145.876 32.7717 145.684 32.0209 145.684 31.1423C145.684 30.1839 145.916 29.4012 146.379 28.7942C146.858 28.1872 147.521 27.732 148.368 27.4285C149.23 27.125 150.237 26.9732 151.387 26.9732H154.406V28.9619H151.339C150.572 28.9619 149.981 29.1536 149.566 29.537C149.166 29.9044 148.967 30.3836 148.967 30.9746C148.967 31.5656 149.166 32.0449 149.566 32.4123C149.981 32.7797 150.572 32.9633 151.339 32.9633C151.802 32.9633 152.225 32.8835 152.609 32.7237C153.008 32.548 153.335 32.2605 153.591 31.8612C153.863 31.4458 154.014 30.8868 154.046 30.1839L154.861 31.1184C154.781 32.0289 154.557 32.7956 154.19 33.4186C153.839 34.0416 153.343 34.5208 152.705 34.8562C152.082 35.1757 151.315 35.3354 150.404 35.3354ZM165.497 35.1677C164.299 35.1677 163.308 35.016 162.526 34.7125C161.759 34.393 161.184 33.8659 160.801 33.1311C160.417 32.3803 160.226 31.374 160.226 30.112L160.249 18.3234H163.364L163.34 30.3277C163.34 30.9666 163.508 31.4618 163.844 31.8132C164.195 32.1487 164.69 32.3164 165.329 32.3164H167.366V35.1677H165.497ZM158.165 24.4334V21.9894H167.366V24.4334H158.165ZM174.955 35.4553C173.837 35.4553 172.854 35.2636 172.008 34.8802C171.177 34.4968 170.482 33.9857 169.923 33.3467C169.38 32.6918 168.965 31.965 168.677 31.1663C168.406 30.3676 168.27 29.553 168.27 28.7223V28.2671C168.27 27.4045 168.406 26.5739 168.677 25.7752C168.965 24.9605 169.38 24.2417 169.923 23.6187C170.482 22.9798 171.169 22.4766 171.984 22.1092C172.798 21.7258 173.741 21.5341 174.811 21.5341C176.217 21.5341 177.391 21.8456 178.333 22.4686C179.292 23.0756 180.011 23.8823 180.49 24.8886C180.969 25.879 181.209 26.9492 181.209 28.0993V29.2974H169.684V27.2607H179.124L178.094 28.2671C178.094 27.4364 177.974 26.7256 177.734 26.1346C177.495 25.5436 177.127 25.0883 176.632 24.7688C176.153 24.4494 175.546 24.2896 174.811 24.2896C174.076 24.2896 173.453 24.4573 172.942 24.7928C172.431 25.1282 172.04 25.6154 171.768 26.2544C171.513 26.8774 171.385 27.6281 171.385 28.5067C171.385 29.3213 171.513 30.0481 171.768 30.6871C172.024 31.3101 172.415 31.8053 172.942 32.1727C173.469 32.5241 174.14 32.6998 174.955 32.6998C175.77 32.6998 176.432 32.54 176.944 32.2206C177.455 31.8851 177.782 31.4778 177.926 30.9986H180.993C180.801 31.8931 180.434 32.6758 179.891 33.3467C179.348 34.0176 178.653 34.5368 177.806 34.9042C176.976 35.2716 176.025 35.4553 174.955 35.4553Z" fill="#FC4450"/>
<path d="M99.3383 60.4073C97.8687 60.4073 96.6307 60.1757 95.6244 59.7125C94.618 59.2333 93.8513 58.5783 93.3242 57.7477C92.813 56.9011 92.5574 55.9507 92.5574 54.8964H94.3784C94.3784 55.5673 94.5382 56.1983 94.8577 56.7893C95.1931 57.3643 95.7202 57.8356 96.4391 58.203C97.1738 58.5544 98.1403 58.7301 99.3383 58.7301C100.44 58.7301 101.351 58.5704 102.07 58.2509C102.805 57.9314 103.348 57.5001 103.699 56.957C104.067 56.4139 104.25 55.8069 104.25 55.136C104.25 54.2894 103.915 53.5865 103.244 53.0275C102.589 52.4524 101.599 52.109 100.273 51.9972L98.2601 51.8055C96.7585 51.6777 95.5605 51.2144 94.666 50.4158C93.7874 49.6011 93.3481 48.5309 93.3481 47.205C93.3481 46.1987 93.5877 45.3122 94.067 44.5454C94.5462 43.7787 95.2251 43.1717 96.1036 42.7244C96.9981 42.2771 98.0684 42.0535 99.3143 42.0535C100.576 42.0535 101.654 42.2851 102.549 42.7484C103.46 43.1956 104.154 43.8186 104.634 44.6173C105.113 45.416 105.352 46.3425 105.352 47.3967H103.531C103.531 46.7578 103.388 46.1588 103.1 45.5997C102.813 45.0406 102.357 44.5933 101.734 44.2579C101.111 43.9065 100.305 43.7308 99.3143 43.7308C98.3719 43.7308 97.5892 43.8905 96.9662 44.21C96.3592 44.5294 95.9039 44.9527 95.6004 45.4799C95.3129 46.007 95.1691 46.5821 95.1691 47.205C95.1691 47.9878 95.4487 48.6507 96.0078 49.1938C96.5668 49.7369 97.3735 50.0484 98.4278 50.1282L100.44 50.3199C101.623 50.4158 102.629 50.6793 103.46 51.1106C104.306 51.5259 104.953 52.077 105.4 52.7639C105.848 53.4348 106.071 54.2255 106.071 55.136C106.071 56.1583 105.792 57.0688 105.233 57.8675C104.689 58.6662 103.915 59.2892 102.908 59.7364C101.902 60.1837 100.712 60.4073 99.3383 60.4073ZM114.416 60.4073C113.346 60.4073 112.411 60.2236 111.612 59.8562C110.83 59.4729 110.175 58.9617 109.648 58.3228C109.121 57.6678 108.721 56.949 108.45 56.1663C108.194 55.3836 108.066 54.5929 108.066 53.7942V53.4588C108.066 52.6441 108.194 51.8534 108.45 51.0867C108.721 50.3039 109.121 49.6011 109.648 48.9781C110.175 48.3392 110.83 47.836 111.612 47.4686C112.411 47.0852 113.33 46.8936 114.368 46.8936C115.422 46.8936 116.357 47.0852 117.171 47.4686C118.002 47.852 118.673 48.3951 119.184 49.0979C119.695 49.8008 119.999 50.6314 120.095 51.5898H118.369C118.226 50.7113 117.81 49.9845 117.123 49.4094C116.453 48.8184 115.534 48.5229 114.368 48.5229C113.362 48.5229 112.523 48.7545 111.852 49.2177C111.197 49.665 110.702 50.28 110.367 51.0627C110.031 51.8294 109.863 52.684 109.863 53.6265C109.863 54.553 110.031 55.4155 110.367 56.2142C110.702 56.9969 111.205 57.6279 111.876 58.1071C112.547 58.5704 113.394 58.802 114.416 58.802C115.199 58.802 115.877 58.6662 116.453 58.3946C117.044 58.1071 117.515 57.7237 117.866 57.2445C118.234 56.7653 118.449 56.2382 118.513 55.6631H120.238C120.174 56.6216 119.871 57.4602 119.328 58.179C118.801 58.8818 118.114 59.4329 117.267 59.8323C116.421 60.2156 115.47 60.4073 114.416 60.4073ZM122.575 60V42.5088H124.372V52.4045L123.845 52.8118C123.845 51.6298 124.012 50.5995 124.348 49.7209C124.699 48.8424 125.218 48.1635 125.905 47.6843C126.608 47.1891 127.487 46.9415 128.541 46.9415H128.637C130.17 46.9415 131.328 47.4447 132.111 48.451C132.91 49.4573 133.309 50.855 133.309 52.6441V60H131.536V52.2607C131.536 51.1266 131.225 50.2321 130.602 49.5771C129.979 48.9222 129.14 48.5948 128.086 48.5948C126.952 48.5948 126.049 48.9622 125.378 49.6969C124.707 50.4158 124.372 51.3662 124.372 52.5483V60H122.575ZM142.504 60.4073C141.418 60.4073 140.46 60.2236 139.629 59.8562C138.814 59.4729 138.12 58.9697 137.545 58.3467C136.985 57.7078 136.554 56.9969 136.251 56.2142C135.963 55.4315 135.819 54.6328 135.819 53.8182V53.4827C135.819 52.6681 135.971 51.8694 136.275 51.0867C136.578 50.288 137.017 49.5771 137.592 48.9542C138.168 48.3312 138.862 47.836 139.677 47.4686C140.508 47.0852 141.45 46.8936 142.504 46.8936C143.575 46.8936 144.517 47.0852 145.332 47.4686C146.162 47.836 146.865 48.3312 147.44 48.9542C148.015 49.5771 148.447 50.288 148.734 51.0867C149.038 51.8694 149.189 52.6681 149.189 53.4827V53.8182C149.189 54.6328 149.046 55.4315 148.758 56.2142C148.471 56.9969 148.039 57.7078 147.464 58.3467C146.905 58.9697 146.21 59.4729 145.38 59.8562C144.549 60.2236 143.591 60.4073 142.504 60.4073ZM142.504 58.802C143.559 58.802 144.445 58.5704 145.164 58.1071C145.899 57.6279 146.458 57.0049 146.841 56.2382C147.225 55.4555 147.416 54.5929 147.416 53.6504C147.416 52.692 147.217 51.8294 146.817 51.0627C146.434 50.28 145.875 49.665 145.14 49.2177C144.405 48.7545 143.527 48.5229 142.504 48.5229C141.498 48.5229 140.628 48.7545 139.893 49.2177C139.158 49.665 138.591 50.28 138.192 51.0627C137.808 51.8294 137.616 52.692 137.616 53.6504C137.616 54.5929 137.808 55.4555 138.192 56.2382C138.575 57.0049 139.126 57.6279 139.845 58.1071C140.58 58.5704 141.466 58.802 142.504 58.802ZM157.574 60.4073C156.488 60.4073 155.53 60.2236 154.699 59.8562C153.884 59.4729 153.19 58.9697 152.614 58.3467C152.055 57.7078 151.624 56.9969 151.321 56.2142C151.033 55.4315 150.889 54.6328 150.889 53.8182V53.4827C150.889 52.6681 151.041 51.8694 151.345 51.0867C151.648 50.288 152.087 49.5771 152.662 48.9542C153.237 48.3312 153.932 47.836 154.747 47.4686C155.578 47.0852 156.52 46.8936 157.574 46.8936C158.645 46.8936 159.587 47.0852 160.402 47.4686C161.232 47.836 161.935 48.3312 162.51 48.9542C163.085 49.5771 163.517 50.288 163.804 51.0867C164.108 51.8694 164.259 52.6681 164.259 53.4827V53.8182C164.259 54.6328 164.116 55.4315 163.828 56.2142C163.541 56.9969 163.109 57.7078 162.534 58.3467C161.975 58.9697 161.28 59.4729 160.45 59.8562C159.619 60.2236 158.661 60.4073 157.574 60.4073ZM157.574 58.802C158.629 58.802 159.515 58.5704 160.234 58.1071C160.969 57.6279 161.528 57.0049 161.911 56.2382C162.295 55.4555 162.486 54.5929 162.486 53.6504C162.486 52.692 162.287 51.8294 161.887 51.0627C161.504 50.28 160.945 49.665 160.21 49.2177C159.475 48.7545 158.597 48.5229 157.574 48.5229C156.568 48.5229 155.697 48.7545 154.963 49.2177C154.228 49.665 153.661 50.28 153.261 51.0627C152.878 51.8294 152.686 52.692 152.686 53.6504C152.686 54.5929 152.878 55.4555 153.261 56.2382C153.645 57.0049 154.196 57.6279 154.915 58.1071C155.649 58.5704 156.536 58.802 157.574 58.802ZM167.085 60V42.5088H168.882V60H167.085ZM165.24 43.9704V42.5088H168.882V43.9704H165.24Z" fill="white"/>
<path fill-rule="evenodd" clip-rule="evenodd" d="M41.0271 48.6495V75.959C41.0271 78.7431 43.287 81 46.0748 81H52.8236C55.6114 81 57.8713 78.7431 57.8713 75.959V48.4103L49.3295 56.9408L41.0271 48.6495Z" fill="#01CCFF"/>
<path fill-rule="evenodd" clip-rule="evenodd" d="M49.0432 40.5964H76.3891C79.1768 40.5964 81.4368 38.3394 81.4368 35.5554V28.8155C81.4368 26.0314 79.1768 23.7745 76.3891 23.7745L48.8037 23.7745L57.3456 32.305L49.0432 40.5964Z" fill="#7662F2"/>
<path fill-rule="evenodd" clip-rule="evenodd" d="M41.2204 32.3506L41.2204 5.04102C41.2204 2.25694 38.9605 1.01096e-06 36.1727 7.15432e-07L29.4239 0C26.6361 -2.95528e-07 24.3762 2.25694 24.3762 5.04102L24.3762 32.5897L32.918 24.0592L41.2204 32.3506Z" fill="#FC7E15"/>
<path fill-rule="evenodd" clip-rule="evenodd" d="M32.7225 40.4036L5.37657 40.4036C2.5888 40.4036 0.328858 42.6606 0.328858 45.4446L0.328857 52.1845C0.328857 54.9686 2.5888 57.2255 5.37658 57.2255L32.9619 57.2255L24.42 48.695L32.7225 40.4036Z" fill="#FC4450"/>
</svg>
