<?xml version="1.0" encoding="utf-8"?>
<!-- Generator: Adobe Illustrator 26.3.1, SVG Export Plug-In . SVG Version: 6.00 Build 0)  -->
<svg version="1.1" id="Layer_1" xmlns="http://www.w3.org/2000/svg" xmlns:xlink="http://www.w3.org/1999/xlink" x="0px" y="0px"
	 viewBox="0 0 184.23 67.51" style="enable-background:new 0 0 184.23 67.51;" xml:space="preserve">
<style type="text/css">
	.st0{fill:#020203;}
</style>
<path class="st0" d="M113.21,49.68H100.4v2.48h5.07v15.05h2.68V52.16h5.07V49.68z M90.26,67.51c3.6,0,6.68-1.59,7.87-4.57
	l-2.16-1.24c-0.92,2.06-2.96,3.3-5.66,3.3c-3.35,0-6.19-2.43-6.19-6.56s2.83-6.56,6.16-6.56c2.78,0,4.67,1.29,5.59,3.3l2.14-1.27
	c-1.17-2.91-4.07-4.54-7.75-4.54c-5.12,0-8.97,3.68-8.97,9.07S85.15,67.51,90.26,67.51 M70.12,59.46h7.28v-2.41h-7.28v-4.94h8.02
	v-2.43H67.46v17.54h10.93v-2.43h-8.27V59.46z M54.47,52.16h5.42v8.77c0,2.58-1.27,4.79-6.28,3.75v2.48
	c6.26,1.27,8.94-1.76,8.94-6.14V49.68h-8.07V52.16z M42.37,65c-3.95,0-6.38-2.96-6.38-6.56c0-3.58,2.43-6.56,6.38-6.56
	c3.97,0,6.41,2.98,6.41,6.56C48.78,62.05,46.35,65,42.37,65 M42.37,67.51c5.54,0,9.24-4.15,9.24-9.07c0-4.92-3.7-9.07-9.24-9.07
	c-5.51,0-9.21,4.15-9.21,9.07C33.16,63.36,36.86,67.51,42.37,67.51 M20.44,52.11h4.07c1.51,0,2.86,0.87,2.86,2.71
	c0,1.86-1.34,2.68-2.86,2.68h-4.07V52.11z M31.4,67.21l-5.76-7.38c2.43-0.27,4.57-1.86,4.57-5.02c0-3.4-2.58-5.14-5.29-5.14h-7.13
	v17.54h2.66v-7.35h1.99l5.49,7.35H31.4z M4.42,57.65v-5.54h3.92c1.64,0,3.08,0.82,3.08,2.78c0,2.01-1.44,2.76-3.08,2.76H4.42z
	 M1.76,67.21h2.66v-7.13h4.3c2.93,0,5.54-1.66,5.54-5.19c0-3.48-2.61-5.22-5.54-5.22H1.76V67.21z"/>
<path class="st0" d="M175.96,34.63h7.28v-2.41h-7.28v-4.94h8.02v-2.43H173.3v17.54h10.93v-2.43h-8.27V34.63z M161.65,42.67
	c3.6,0,6.68-1.59,7.87-4.57l-2.16-1.24c-0.92,2.06-2.96,3.3-5.66,3.3c-3.35,0-6.18-2.43-6.18-6.56c0-4.12,2.83-6.56,6.16-6.56
	c2.78,0,4.67,1.29,5.59,3.3l2.14-1.27c-1.17-2.91-4.07-4.55-7.75-4.55c-5.12,0-8.97,3.68-8.97,9.07S156.53,42.67,161.65,42.67
	 M136.51,42.38V28.61l8.94,13.76h3.3l-11.5-17.54h-3.35v17.54H136.51z M148.81,24.84h-2.61v8.77h2.61V24.84z M121.58,39.94v-5.32
	h7.28v-2.41h-9.94v10.16h10.93v-2.43H121.58z M118.93,27.27h10.68v-2.43h-10.68V27.27z M104.87,42.38h9.56v-2.48h-3.45V27.32h3.45
	v-2.48h-9.56v2.48h3.45v12.57h-3.45V42.38z M94.06,39.94v-15.1h-2.66v17.54h10.16v-2.43H94.06z M77.35,42.38h9.56v-2.48h-3.45V27.32
	h3.45v-2.48h-9.56v2.48h3.45v12.57h-3.45V42.38z M68.33,42.65c3.33,0,5.86-2.01,5.86-5.17c0-2.16-1.27-3.8-3.43-4.6l-3.45-1.27
	c-1.76-0.62-2.21-1.34-2.21-2.36c0-1.34,1.27-2.31,2.96-2.31c1.64,0,2.98,0.82,3.73,2.11l2.01-1.37c-1.02-2.14-3.2-3.15-5.74-3.15
	c-3.18,0-5.69,1.86-5.69,4.89c0,2.38,1.37,3.87,3.83,4.77l3.05,1.12c1.61,0.6,2.18,1.32,2.18,2.34c0,1.51-1.24,2.56-3.15,2.56
	c-1.79,0-3.38-0.87-4.32-2.93l-2.19,1.17C62.82,41.23,65.25,42.65,68.33,42.65 M45.6,33.61H43v8.77h2.61V33.61z M57.85,42.38V24.84
	h-2.61v13.71l-8.89-13.71h-3.33l11.53,17.54H57.85z M29.56,40.16c-3.95,0-6.38-2.96-6.38-6.56c0-3.58,2.44-6.56,6.38-6.56
	c3.97,0,6.41,2.98,6.41,6.56C35.97,37.21,33.53,40.16,29.56,40.16 M29.56,42.67c5.54,0,9.24-4.15,9.24-9.07
	c0-4.92-3.7-9.07-9.24-9.07c-5.51,0-9.22,4.15-9.22,9.07C20.34,38.52,24.04,42.67,29.56,42.67 M0.75,33.61
	c0,5.39,3.85,9.07,9.09,9.07c3.48,0,6.56-1.59,7.75-4.57l-2.16-1.24c-0.92,2.06-2.96,3.3-5.54,3.3c-3.48,0-6.31-2.43-6.31-6.56H0.75
	z M9.71,27.05c2.78,0,4.69,1.29,5.61,3.3l2.14-1.27c-1.17-2.91-4.07-4.55-7.75-4.55V27.05z"/>
<path class="st0" d="M36.14,17.54h10.93V15.1H36.14V17.54z M46.08,7.38H38.8V2.43h8.02V0H36.14v9.79h9.94V7.38z M28.24,0v7.28h-9.32
	V0h-2.66v17.54h2.66V9.71h9.32v7.82h2.68V0H28.24z M12.82,0H0v2.48h5.07v15.05h2.68V2.48h5.07V0z"/>
</svg>
