<svg xmlns="http://www.w3.org/2000/svg" xmlns:xlink="http://www.w3.org/1999/xlink" id="Layer_1" x="0px" y="0px" viewBox="0 0 264.2 50" style="enable-background:new 0 0 264.2 50;" xml:space="preserve"><style type="text/css">	.st0{fill:#FF4C00;}	.st1{fill:#161616;}</style><g>	<path class="st0" d="M25.1,21c-1.8,0-3.3,1.2-3.8,2.8h7.7C28.4,22.2,26.8,21,25.1,21L25.1,21z"></path>	<path class="st0" d="M25,0C11.2,0,0,11.2,0,25c0,13.8,11.2,25,25,25c13.8,0,25-11.2,25-25C50,11.2,38.8,0,25,0z M39.2,10.8   c2.6,2.6,2.6,6.7,0,9.3l-1.8-1.8c1.6-1.6,1.6-4.1,0-5.7c-1.6-1.6-4.1-1.6-5.7,0l-1.8-1.8C32.5,8.3,36.7,8.3,39.2,10.8z M32.6,21   v-2.5c3.6,0,6.6,2.9,6.6,6.6s-2.9,6.6-6.6,6.6v-2.5c2.2,0,4-1.8,4-4S34.9,21,32.6,21z M25,5c1.4,0,2.5,1.1,2.5,2.5   c0,1.4-1.1,2.5-2.5,2.5c-1.4,0-2.5-1.1-2.5-2.5C22.5,6.1,23.6,5,25,5z M25,10.9c3.6,0,6.6,2.9,6.6,6.6h-2.5c0-2.2-1.8-4-4-4   s-4,1.8-4,4h-2.5C18.5,13.8,21.4,10.9,25,10.9z M25.1,29.1c1.1,0,2.1-0.5,2.9-1.2l2.3,1.1c-1.2,1.6-3.1,2.6-5.2,2.6   c-3.6,0-6.6-2.9-6.6-6.6c0-3.6,2.9-6.6,6.6-6.6c3.6,0,6.6,2.9,6.6,6.6c0,0.4,0,0.8-0.1,1.3v0H21.2v0C21.8,27.9,23.3,29.1,25.1,29.1   z M10.9,10.8c2.6-2.6,6.7-2.6,9.3,0l-1.8,1.8c-1.6-1.6-4.1-1.6-5.7,0c-1.6,1.6-1.6,4.1,0,5.7l-1.8,1.8C8.3,17.6,8.3,13.4,10.9,10.8   z M17.4,29.1v2.5c-3.6,0-6.6-2.9-6.6-6.6s2.9-6.6,6.6-6.6V21c-2.2,0-4,1.8-4,4S15.2,29.1,17.4,29.1z M4.9,25c0-1.4,1.1-2.5,2.5-2.5   c1.4,0,2.5,1.1,2.5,2.5c0,1.4-1.1,2.5-2.5,2.5C6,27.5,4.9,26.4,4.9,25z M10.9,39.2c-2.6-2.6-2.6-6.7,0-9.3l1.8,1.8   c-1.6,1.6-1.6,4.1,0,5.7c1.6,1.6,4.1,1.6,5.7,0l1.8,1.8C17.6,41.8,13.4,41.8,10.9,39.2z M25,45.1c-1.4,0-2.5-1.1-2.5-2.5   c0-1.4,1.1-2.5,2.5-2.5c1.4,0,2.5,1.1,2.5,2.5C27.5,44,26.4,45.1,25,45.1z M25,39.2c-3.6,0-6.6-2.9-6.6-6.6H21c0,2.2,1.8,4,4,4   s4-1.8,4-4h2.5C31.6,36.2,28.7,39.2,25,39.2z M39.2,39.2c-2.6,2.6-6.7,2.6-9.3,0l1.8-1.8c1.6,1.6,4.1,1.6,5.7,0   c1.6-1.6,1.6-4.1,0-5.7l1.8-1.8C41.8,32.5,41.8,36.6,39.2,39.2z M42.6,27.5c-1.4,0-2.5-1.1-2.5-2.5c0-1.4,1.1-2.5,2.5-2.5   c1.4,0,2.5,1.1,2.5,2.5C45.1,26.4,44,27.5,42.6,27.5z"></path></g><g>	<path class="st1" d="M68.8,23.2h7.4v0c-0.2-0.5-0.6-1.1-1.2-1.8c-0.8-0.7-1.6-1-2.5-1c-1.4,0-2.6,0.7-3.5,2.2L68.8,23.2z    M72.3,17.5h0.4c1.5,0,2.9,0.6,4.3,1.8c0.7,0.7,1.1,1.2,1.4,1.7c0.7,1.3,1.1,2.7,1.1,4.1v0.5c0,0.3,0,0.4-0.1,0.4h-11   c0.2,1.1,0.6,1.9,1.2,2.5c0.8,0.9,1.8,1.3,2.8,1.3c1.3,0,2.4-0.7,3.3-2c0.2-0.3,0.3-0.5,0.3-0.5c1.8,0.8,2.7,1.2,2.7,1.2   c-0.1,0.4-0.5,0.9-1,1.6c-1.5,1.8-3.3,2.7-5.3,2.7h-0.1c-2.1,0-3.9-0.9-5.4-2.8c-1-1.5-1.6-3.1-1.6-4.8v-0.1c0-2.4,0.9-4.4,2.7-6.1   C69.6,18,71,17.5,72.3,17.5"></path>	<path class="st1" d="M89.6,17.5L89.6,17.5c1.6,0,3,0.5,4.3,1.4c0.2,0.2,0.5,0.4,0.8,0.7c0.4,0.4,0.6,0.7,0.8,0.9   c0.2,0.2,0.2,0.3,0.2,0.3l-2.5,1.6h0c-0.1-0.2-0.3-0.4-0.6-0.7c-0.9-0.9-1.9-1.3-3.1-1.3c-1.1,0-2.1,0.4-3,1.2   c-0.3,0.3-0.5,0.6-0.6,0.7c-0.6,0.8-0.9,1.8-0.9,2.8c0,1.1,0.4,2.1,1.1,3c0.2,0.3,0.5,0.5,0.7,0.7c0.8,0.6,1.7,1,2.7,1   c0.9,0,1.7-0.3,2.5-0.8c0.2-0.1,0.4-0.3,0.7-0.6c0.2-0.2,0.3-0.4,0.4-0.6h0l2.5,1.6c-0.2,0.3-0.4,0.6-0.7,0.9   c-0.3,0.4-0.6,0.6-0.7,0.7c-0.3,0.3-0.6,0.5-0.9,0.6c-1.2,0.7-2.5,1.1-3.8,1.1h-0.1c-1.4,0-2.7-0.4-4-1.2c-0.2-0.2-0.5-0.3-0.7-0.5   c-0.4-0.3-0.7-0.6-0.8-0.9c-0.4-0.5-0.7-0.9-0.9-1.3c-0.2-0.3-0.4-0.8-0.6-1.3c-0.3-0.8-0.4-1.6-0.4-2.3V25c0-1.1,0.3-2.3,0.8-3.5   c0.2-0.3,0.4-0.6,0.6-1c0.2-0.2,0.4-0.5,0.8-0.9c0.4-0.4,0.8-0.7,1.1-0.9C86.8,17.9,88.2,17.5,89.6,17.5"></path>	<path class="st1" d="M101.2,25.2c0,1.1,0.4,2.1,1.1,3c0.3,0.4,0.6,0.6,0.7,0.7c0.8,0.6,1.7,0.9,2.6,0.9c1.2,0,2.2-0.4,3.1-1.3   c0.4-0.4,0.6-0.7,0.8-1c0.4-0.8,0.6-1.5,0.6-2.3v0c0-1.2-0.4-2.2-1.2-3.2c-0.3-0.4-0.6-0.6-0.7-0.6c-0.2-0.1-0.3-0.3-0.5-0.3   c-0.7-0.4-1.4-0.5-2.1-0.5c-1.1,0-2.1,0.4-3,1.2c-0.3,0.3-0.5,0.6-0.6,0.7C101.5,23.2,101.2,24.1,101.2,25.2 M105.7,17.5   c1.7,0,3.2,0.5,4.6,1.6c0.2,0.1,0.5,0.4,0.8,0.8c0.7,0.8,1.2,1.6,1.5,2.4c0.4,0.9,0.5,1.9,0.5,2.9c0,1.3-0.3,2.5-0.9,3.7   c-0.2,0.4-0.5,0.8-0.9,1.3c-0.4,0.5-0.7,0.8-1,1c-0.3,0.2-0.5,0.4-0.8,0.6c-1.2,0.7-2.5,1.1-3.8,1.1h-0.1c-1.4,0-2.7-0.4-4-1.2   c-0.2-0.2-0.5-0.4-0.7-0.5c-0.4-0.3-0.7-0.6-0.9-0.9c-0.2-0.2-0.4-0.5-0.6-0.8c-0.2-0.3-0.4-0.6-0.5-1c-0.5-1.1-0.7-2.1-0.7-3.2V25   c0-1.1,0.3-2.3,0.9-3.5c0.2-0.3,0.4-0.6,0.6-1c0.2-0.2,0.4-0.6,0.8-0.9c0.5-0.5,0.9-0.8,1.1-0.9C102.8,17.9,104.2,17.5,105.7,17.5"></path>	<path class="st1" d="M123,17.5L123,17.5c1.6,0,3,0.5,4.3,1.4c0.2,0.2,0.5,0.4,0.8,0.7c0.4,0.4,0.6,0.7,0.8,0.9   c0.2,0.2,0.2,0.3,0.2,0.3l-2.5,1.6h0c-0.1-0.2-0.3-0.4-0.6-0.7c-0.9-0.9-1.9-1.3-3.1-1.3c-1.1,0-2.1,0.4-3,1.2   c-0.3,0.3-0.5,0.6-0.6,0.7c-0.6,0.8-0.9,1.8-0.9,2.8c0,1.1,0.4,2.1,1.1,3c0.2,0.3,0.5,0.5,0.7,0.7c0.8,0.6,1.7,1,2.7,1   c0.9,0,1.7-0.3,2.5-0.8c0.2-0.1,0.4-0.3,0.7-0.6c0.2-0.2,0.3-0.4,0.4-0.6h0l2.5,1.6c-0.2,0.3-0.4,0.6-0.7,0.9   c-0.3,0.4-0.6,0.6-0.7,0.7c-0.3,0.3-0.6,0.5-0.9,0.6c-1.2,0.7-2.5,1.1-3.8,1.1h-0.1c-1.4,0-2.7-0.4-4-1.2c-0.2-0.2-0.5-0.3-0.7-0.5   c-0.4-0.3-0.7-0.6-0.8-0.9c-0.4-0.5-0.7-0.9-0.9-1.3c-0.2-0.3-0.4-0.8-0.6-1.3c-0.3-0.8-0.4-1.6-0.4-2.3V25c0-1.1,0.3-2.3,0.8-3.5   c0.2-0.3,0.4-0.6,0.6-1c0.2-0.2,0.4-0.5,0.8-0.9c0.4-0.4,0.8-0.7,1.1-0.9C120.1,17.9,121.5,17.5,123,17.5"></path>	<path class="st1" d="M135.6,17.7v14.7l0,0h-2.9l0,0V17.7H135.6z M134.1,10h0.1c0.5,0,0.9,0.2,1.3,0.5c0.4,0.4,0.6,0.9,0.6,1.4v0.1   c0,0.5-0.2,0.9-0.5,1.3c-0.4,0.4-0.9,0.6-1.4,0.6h-0.1c-0.5,0-0.9-0.2-1.3-0.5c-0.2-0.2-0.4-0.4-0.4-0.6c-0.1-0.3-0.2-0.5-0.2-0.7   v-0.1c0-0.5,0.2-0.9,0.6-1.3l0.2-0.2C133.4,10.1,133.7,10,134.1,10"></path>	<path class="st1" d="M142,17.7c0,0.1,0.3,0.6,0.7,1.5l2.8,6.4l1.1,2.5l2.2-5l2.3-5.4h3.4l-3.3,7.4l-2.1,4.7l-1.2,2.7h-2.7   c0,0-0.2-0.3-0.5-1l-2.8-6.2l-3-6.7l-0.4-0.8H142z"></path>	<path class="st1" d="M160.5,17.7v14.7l0,0h-2.9l0,0V17.7H160.5z M158.9,10h0.1c0.5,0,0.9,0.2,1.3,0.5c0.4,0.4,0.6,0.9,0.6,1.4v0.1   c0,0.5-0.2,0.9-0.5,1.3c-0.4,0.4-0.9,0.6-1.4,0.6H159c-0.5,0-0.9-0.2-1.3-0.5c-0.2-0.2-0.4-0.4-0.4-0.6c-0.1-0.3-0.2-0.5-0.2-0.7   v-0.1c0-0.5,0.2-0.9,0.6-1.3l0.2-0.2C158.2,10.1,158.6,10,158.9,10"></path>	<polygon class="st1" points="165.3,10 168.3,10 168.3,10 168.3,32.4 168.3,32.4 165.3,32.4 165.3,32.4 165.3,10  "></polygon>	<path class="st1" d="M176.1,17.7v14.7l0,0h-2.9l0,0V17.7H176.1z M174.5,10h0.1c0.5,0,0.9,0.2,1.3,0.5c0.4,0.4,0.6,0.9,0.6,1.4v0.1   c0,0.5-0.2,0.9-0.5,1.3c-0.4,0.4-0.9,0.6-1.4,0.6h-0.1c-0.5,0-0.9-0.2-1.3-0.5c-0.2-0.2-0.4-0.4-0.4-0.6c-0.1-0.3-0.2-0.5-0.2-0.7   v-0.1c0-0.5,0.2-0.9,0.6-1.3l0.2-0.2C173.8,10.1,174.2,10,174.5,10"></path>	<path class="st1" d="M186.2,16.9c1.9,0,3.5,0.6,4.8,1.7c0.3,0.3,0.5,0.5,0.6,0.7l0.2,0.3c0,0-0.3,0.2-0.8,0.5   c-0.5,0.3-1.1,0.7-1.7,1.1c-0.2-0.2-0.4-0.4-0.6-0.5c-0.7-0.5-1.5-0.8-2.5-0.8h-0.1c-1.1,0-1.9,0.3-2.6,0.8c-0.4,0.3-0.5,0.6-0.5,1   c0,0.2,0.1,0.4,0.3,0.5c0.2,0.2,0.6,0.3,1.1,0.5c0.8,0.3,2,0.5,3.6,0.8c0.5,0.1,1,0.3,1.4,0.4c0.4,0.1,0.7,0.3,1.1,0.6   c0.2,0.1,0.4,0.3,0.7,0.6c0.7,0.8,1.1,1.7,1.1,2.8v0c0,1-0.4,2-1.2,2.9c-0.3,0.3-0.6,0.5-0.7,0.6c-0.4,0.3-0.7,0.5-1,0.6   c-1,0.5-2.2,0.7-3.3,0.7h-0.1c-1.5,0-2.9-0.4-4.2-1.2c-0.3-0.2-0.6-0.4-0.9-0.7c-0.3-0.3-0.5-0.5-0.6-0.7c-0.2-0.3-0.4-0.5-0.5-0.8   l2.6-1.5h0l0.1,0.2c0.1,0.2,0.3,0.4,0.5,0.6c0.5,0.4,1,0.7,1.7,0.9c0.5,0.1,0.9,0.2,1.3,0.2c0.9,0,1.7-0.2,2.4-0.6   c0.1-0.1,0.3-0.2,0.5-0.4c0.3-0.3,0.4-0.6,0.4-1c0-0.6-0.4-1-1.3-1.3c-0.3-0.1-0.8-0.2-1.6-0.3c-1.6-0.3-2.9-0.6-3.7-1   c-0.3-0.1-0.7-0.3-1-0.6c-0.8-0.5-1.3-1.1-1.5-1.9c-0.1-0.3-0.2-0.7-0.2-1.1v-0.1c0-1,0.4-1.9,1.1-2.7c0.3-0.3,0.5-0.5,0.7-0.6   c0.3-0.3,0.7-0.5,1-0.6C183.9,17.1,185,16.9,186.2,16.9"></path>	<path class="st1" d="M198,25.1c0,1.6,0.7,2.9,2.1,4c0.8,0.5,1.5,0.7,2.2,0.7h0.3c1,0,1.9-0.4,2.9-1.2c1-1,1.4-2.1,1.4-3.5v0   c0-1.6-0.7-3-2.1-4c-0.8-0.5-1.5-0.7-2.3-0.7h-0.2c-1.2,0-2.3,0.6-3.3,1.7C198.4,23.1,198,24.1,198,25.1 M202.6,17.5   c1.7,0,3.2,0.7,4.4,1.9v-1.7l0,0h2.9l0,0v14.6l0,0H207l0,0v-1.5c-1.1,1.3-2.6,1.9-4.4,1.9h0c-2.2,0-4.1-0.9-5.7-2.7   c-1.2-1.5-1.7-3.1-1.7-4.9v0c0-2.3,0.9-4.2,2.6-5.8C199.1,18.1,200.7,17.5,202.6,17.5"></path>	<path class="st1" d="M214.9,10h2.9l0,0v7.7h3.8l0,0v2.9l0,0h-3.8v7.4c0,0.6,0.2,1,0.6,1.2c0.3,0.1,0.5,0.2,0.8,0.2   c0.4,0,1-0.1,1.7-0.4l0.1-0.1l1.1,2.8c-0.2,0.1-0.6,0.2-1.2,0.4c-0.7,0.2-1.2,0.2-1.7,0.2h0c-1,0-1.9-0.3-2.7-0.9   c-0.1-0.1-0.3-0.3-0.6-0.5l-0.3-0.3c-0.2-0.2-0.3-0.4-0.4-0.6c-0.3-0.6-0.4-1.2-0.4-1.9v-7.5h-2.2l0,0v-2.9l0,0h2.2V10z"></path>	<path class="st1" d="M228.7,17.7v14.7l0,0h-2.9l0,0V17.7H228.7z M227.1,10h0.1c0.5,0,0.9,0.2,1.3,0.5c0.4,0.4,0.6,0.9,0.6,1.4v0.1   c0,0.5-0.2,0.9-0.5,1.3c-0.4,0.4-0.9,0.6-1.4,0.6h-0.1c-0.5,0-0.9-0.2-1.3-0.5c-0.2-0.2-0.4-0.4-0.4-0.6c-0.1-0.3-0.2-0.5-0.2-0.7   v-0.1c0-0.5,0.2-0.9,0.6-1.3l0.2-0.2C226.4,10.1,226.8,10,227.1,10"></path>	<path class="st1" d="M235.5,25.2c0,1.1,0.4,2.1,1.1,3c0.3,0.4,0.6,0.6,0.7,0.7c0.8,0.6,1.7,0.9,2.6,0.9c1.2,0,2.2-0.4,3.1-1.3   c0.4-0.4,0.6-0.7,0.8-1c0.4-0.8,0.6-1.5,0.6-2.3v0c0-1.2-0.4-2.2-1.2-3.2c-0.3-0.4-0.6-0.6-0.7-0.6c-0.2-0.1-0.3-0.3-0.5-0.3   c-0.7-0.4-1.4-0.5-2.1-0.5c-1.1,0-2.1,0.4-3,1.2c-0.3,0.3-0.5,0.6-0.6,0.7C235.8,23.2,235.5,24.1,235.5,25.2 M240,17.5   c1.7,0,3.2,0.5,4.6,1.6c0.2,0.1,0.5,0.4,0.8,0.8c0.7,0.8,1.2,1.6,1.5,2.4c0.4,0.9,0.5,1.9,0.5,2.9c0,1.3-0.3,2.5-0.9,3.7   c-0.2,0.4-0.5,0.8-0.9,1.3c-0.4,0.5-0.7,0.8-1,1c-0.3,0.2-0.5,0.4-0.8,0.6c-1.2,0.7-2.5,1.1-3.8,1.1h-0.1c-1.4,0-2.7-0.4-4-1.2   c-0.2-0.2-0.5-0.4-0.7-0.5c-0.4-0.3-0.7-0.6-0.9-0.9c-0.2-0.2-0.4-0.5-0.6-0.8c-0.2-0.3-0.4-0.6-0.5-1c-0.5-1.1-0.7-2.1-0.7-3.2V25   c0-1.1,0.3-2.3,0.9-3.5c0.2-0.3,0.4-0.6,0.6-1c0.2-0.2,0.4-0.6,0.8-0.9c0.5-0.5,0.9-0.8,1.1-0.9C237.1,17.9,238.5,17.5,240,17.5"></path>	<path class="st1" d="M257.8,17.7h0.1c2.6,0,4.5,1,5.7,3c0.4,0.8,0.6,1.7,0.6,2.8v8.9l0,0h-2.9l0,0v-8.9c0-1.3-0.5-2.1-1.6-2.5   c-0.4-0.2-1-0.3-1.7-0.3h-0.2c-1.2,0-2.1,0.2-2.7,0.6c-0.7,0.4-1,1.2-1,2.3v8.8l0,0h-2.9l0,0V17.8l0,0h2.9l0,0v0.8h0   c0.5-0.3,1.2-0.6,2.1-0.8C256.6,17.8,257.2,17.7,257.8,17.7"></path></g></svg>