<svg id="Layer_1" data-name="Layer 1" xmlns="http://www.w3.org/2000/svg" width="1521.71" height="344.56" viewBox="0 0 1521.71 344.56">
  <defs>
    <style>
      .cls-1 {
        fill: #f4dd01;
      }

      .cls-2, .cls-3 {
        fill: #0297a7;
      }

      .cls-3 {
        stroke: #0097a4;
        stroke-miterlimit: 10;
        stroke-width: 10px;
      }
    </style>
  </defs>
  <polygon class="cls-1" points="180.34 134.87 195.91 167.57 231.68 173.28 205.39 198.2 211.02 233.99 179.19 216.68 146.9 233.09 153.52 197.47 127.94 171.83 163.85 167.12 180.34 134.87"/>
  <path class="cls-2" d="M282.39,339.9c22.89-10.53,31.39-41.75,14-61-13.18-15.4-39.74-15.29-50.55,2.73-9.63,14.8-.53,37.45,18.34,37,6,.07,11.69-3.77,14.43-8.83a15.54,15.54,0,0,1-24-14.47,12.58,12.58,0,0,1,1.23-5.43c2.56-5.72,8.7-9.3,14.86-9.5,22.68,0,29.22,28.79,13.6,42.82-23.36,20.73-57.35-.68-55.07-30.18.81-14.44,10.24-27.75,23.22-33.91,28.11-12.43,38.67-50.31,18-74-19.21-23.06-58.38-18.79-68.3,10.77-5.74,16.29,3.17,36.43,20.19,41.24,17.55,5.8,37.89-9.45,32.48-28.36-2-8.1-10.28-13.46-17.69-13a15.54,15.54,0,0,1,7.32,20.73,15.34,15.34,0,0,1-3.05,4.31,15.53,15.53,0,0,1-2.22,1.83,10.11,10.11,0,0,1-3.42,2c-9,3.67-19.26-3-21.68-12-5.87-22.87,21.23-37.19,39.6-25.14,19.12,11.82,19.14,39.86,2.59,54-6.74,5.78-18.65,9.79-24.72,15.41a50.25,50.25,0,0,0-10.21,12.67L218.12,278c-2.89,12.63-2.88,26.89,2.82,38.76C230.93,339.39,259.93,351.22,282.39,339.9Z"/>
  <path class="cls-2" d="M357.36,135.26c-3-25-30-42.76-53.68-32.12-18.72,7.78-26.82,33.07-13,48.91,11.1,13.74,35.45,12.08,40.82-6,1.93-5.68,0-12.28-3.93-16.46a15.54,15.54,0,0,1-21.2,18.4,12.42,12.42,0,0,1-4.78-2.85c-4.64-4.2-6.16-11.14-4.45-17.06,7.06-21.55,36.41-18.9,44.93.3,12.5,28.61-18.36,54.33-45.72,43-13.48-5.22-23.22-18.3-25.07-32.56-3.14-30.57-35.9-52.32-64.84-40-27.87,11.13-35.92,49.71-10.88,68.29,13.73,10.5,35.63,8.25,45.47-6.46,10.94-14.9,2.72-38.95-16.93-39.66-8.34-.58-16,5.62-17.82,12.8a15.56,15.56,0,0,1,22-.55,15.77,15.77,0,0,1,3.15,4.23,16.19,16.19,0,0,1,1.05,2.68,10.15,10.15,0,0,1,.83,3.87c.69,9.73-8.85,17.38-18.13,16.91-23.56-1.49-28.81-31.7-11.68-45.44,17.15-14.52,43.82-5.88,52.12,14.21,3.41,8.2,3.56,20.77,7,28.27a50.69,50.69,0,0,0,8.89,13.64l7.14,5.61c11.1,6.66,24.68,11.05,37.73,9.3C341,184.05,361.17,160.12,357.36,135.26Z"/>
  <path class="cls-2" d="M185.9.74c-24.72-4.93-50,15.34-47.14,41.11,1.61,20.21,23.16,35.73,42.49,27.51,16.5-6.32,22.45-30,6.9-40.69-4.81-3.58-11.67-3.82-16.87-1.34a15.54,15.54,0,0,1,11,25.84,12.62,12.62,0,0,1-4.19,3.67c-5.44,3.12-12.5,2.41-17.61-1.05-18.3-13.37-6.72-40.46,14.18-42.63,31.08-3,46,34.25,26.81,56.78-9.14,11.21-24.59,16.43-38.72,13.78-30.06-6.46-60.85,18-58.08,49.32,2,30,36.18,49.51,61.6,31.44,14.23-9.81,18.85-31.34,7.9-45.24-10.78-15-36.2-14.62-42.95,3.85-3.12,7.75.41,16.93,6.68,20.91a15.55,15.55,0,0,1,6.26-21.08,15.81,15.81,0,0,1,5-1.69,16.32,16.32,0,0,1,2.88-.17,10.27,10.27,0,0,1,3.93.4c9.46,2.35,13.79,13.79,10.48,22.47-8.72,21.95-39.06,17.61-46.84-2.93-8.5-20.8,8-43.5,29.62-45.18,8.85-.71,20.86,3,29.06,2.06A50.64,50.64,0,0,0,194,93.64l7.54-5c9.76-8.51,18.13-20.07,20.5-33C227.24,31.38,210.72,4.78,185.9.74Z"/>
  <path class="cls-2" d="M5,122.23c-12.34,22-.85,52.24,24.52,57.54,19.73,4.71,41.14-11,39.29-31.92-.9-17.64-21.58-30.61-36.56-19.13-4.89,3.46-7.24,9.91-6.49,15.62a15.54,15.54,0,0,1,28-2.43A12.51,12.51,0,0,1,55.9,147c1.28,6.13-1.57,12.63-6.45,16.42-18.36,13.3-40.54-6.11-36.15-26.65,6.71-30.5,46.79-33.16,62.29-8,7.83,12.15,8,28.46,1.14,41.08-15.43,26.58-1.7,63.42,29,70.47,29.1,7.37,58.28-19.11,48.94-48.86-4.93-16.56-24-27.61-40.58-21.49-17.6,5.62-25.09,29.9-9.61,42,6.4,5.37,16.24,4.85,21.94.12a15.54,15.54,0,0,1-18.16-17.75,15.05,15.05,0,0,1,.72-2.79,10.27,10.27,0,0,1,1.6-3.61c5.15-8.28,17.37-8.86,24.61-3,18.18,15.06,4.68,42.57-17.27,43.62-22.43,1.67-38.92-21-33.82-42.13,2.06-8.63,9.33-18.89,10.94-27a50.48,50.48,0,0,0,.82-16.25l-2.47-8.74c-5.07-11.91-13.47-23.45-25.06-29.69C46.9,92.39,16.49,99.87,5,122.23Z"/>
  <path class="cls-2" d="M64.62,331.84c17.09,18.51,49.41,17,62.29-5.55,10.57-17.3,2.26-42.53-18.21-47.23-17-4.59-35.78,11.06-29.5,28.86,1.79,5.74,7.2,10,12.86,11a15.54,15.54,0,0,1,6.33-27.34,12.43,12.43,0,0,1,5.55-.52c6.23.67,11.53,5.4,13.62,11.19,7,21.58-18.34,36.69-36.52,26.17C54.11,312.62,64,273.68,92.73,266.73c14-3.69,29.55,1.16,39.44,11.6,20.51,22.89,59.79,21.22,76-5.76,16-25.4-.17-61.33-31.35-61.64-17.26-.43-33.66,14.27-33,32-.09,18.48,20.69,33.11,37,22.13,7.08-4.43,9.62-13.94,6.89-20.84a15.53,15.53,0,0,1-24.93,10.25,10.27,10.27,0,0,1-2.94-2.63c-6.28-7.48-3.06-19.26,4.73-24.34,19.94-12.63,41.94,8.7,36.15,29.9-5.33,21.83-32,30.52-50.51,19.14-7.58-4.62-15.09-14.71-22.3-18.74A50.43,50.43,0,0,0,112.68,252l-9.07-.35c-12.89,1.15-26.47,5.58-36,14.66C49.18,282.75,46.91,314,64.62,331.84Z"/>
  <circle class="cls-1" cx="172.9" cy="237.67" r="8.31"/>
  <circle class="cls-1" cx="107.43" cy="299.54" r="8.31"/>
  <circle class="cls-1" cx="127.15" cy="195.51" r="8.31"/>
  <circle class="cls-1" cx="48.08" cy="152.37" r="8.31"/>
  <circle class="cls-1" cx="153.11" cy="138.98" r="8.31"/>
  <circle class="cls-1" cx="169.71" cy="50.45" r="8.31"/>
  <circle class="cls-1" cx="214.9" cy="146.2" r="8.31" transform="translate(36.16 334.9) rotate(-80.78)"/>
  <circle class="cls-1" cx="304.22" cy="134.63" r="8.31"/>
  <circle class="cls-1" cx="227.13" cy="207.19" r="8.31"/>
  <circle class="cls-1" cx="265.74" cy="288.57" r="8.31"/>
  <circle class="cls-1" cx="1502.77" cy="50.82" r="18.93"/>
  <path class="cls-3" d="M393.41,121.33V106.92h39.9V61q0-11.69,3.93-20.13a35.7,35.7,0,0,1,10.67-13.63,47.15,47.15,0,0,1,15.64-7.8,67.21,67.21,0,0,1,18.87-2.6A116.41,116.41,0,0,1,501.94,19V33.44a116.41,116.41,0,0,0-19.52-2.17q-13.89,0-23.2,6.27t-9.33,24.84v44.54H496.3v14.41H449.89v208.6H433.32V121.33Z"/>
  <path class="cls-3" d="M538.55,156.55h1.29a54.39,54.39,0,0,1,11.07-20.36,77.27,77.27,0,0,1,19.52-16.47A96.58,96.58,0,0,1,596,109.1a103.51,103.51,0,0,1,29.27-3.25v16.47q-13-1.74-29.71,2.6T563.71,144a153.18,153.18,0,0,0-10.63,12.57A61.25,61.25,0,0,0,545.51,170a84.7,84.7,0,0,0-4.77,16.47,143.51,143.51,0,0,0-2.17,21.67V329.92H522v-223h16.55Z"/>
  <path class="cls-3" d="M811.18,220.76a124.3,124.3,0,0,0,3.26,38.46A88,88,0,0,0,829.22,291a73.21,73.21,0,0,0,26.09,21.59q15.88,8,37.63,8,31.74,0,52.4-16.64t25.44-48.2h16.58q-6.09,37.68-31.05,58.47T893.13,335q-33.86,0-57.73-16t-31.7-48.47l-.87-.07Q792,300.32,768.29,317.64T712,335a130,130,0,0,1-30.18-3.47,75.94,75.94,0,0,1-25.62-11.05,56.07,56.07,0,0,1-17.59-19.28q-6.52-11.7-6.52-28.17,0-19.94,7.82-32.73a57.51,57.51,0,0,1,20-20,83.67,83.67,0,0,1,26.29-10,166.36,166.36,0,0,1,27.15-3.26,281.52,281.52,0,0,1,29.31-2,117.49,117.49,0,0,0,26.93-3.24q12-3,19.12-10.38t5.87-23.35q0-27.22-16.05-39.55t-49-12.33q-29.91,0-49.44,14.28t-21.68,46.25H641.85q2.6-38.55,26.46-56.74t61.17-18.2a153,153,0,0,1,28.42,2.6,72,72,0,0,1,24.29,9.11,52.36,52.36,0,0,1,17.36,17.32q6.72,10.83,8,27.73h.86q10.42-29,32.34-42.89t52.3-13.87q25.6,0,44.7,9.77a90.75,90.75,0,0,1,31.47,26,100.81,100.81,0,0,1,17.58,37.75,138.12,138.12,0,0,1,3,45.34ZM794.6,204.55h-1Q791,209.4,783,212a100,100,0,0,1-19.1,4q-11.05,1.32-24.74,2.2t-27.55,2.2a130.05,130.05,0,0,0-24.09,3.86,63.39,63.39,0,0,0-20.18,9.06,42.5,42.5,0,0,0-13.66,15.74q-5,9.7-5,23.92,0,13,5.42,21.84a45.26,45.26,0,0,0,14.55,14.69,64.2,64.2,0,0,0,20.41,8.43,102.37,102.37,0,0,0,23,2.59,80.44,80.44,0,0,0,30.83-6A87.17,87.17,0,0,0,769,298a81.93,81.93,0,0,0,18.24-24.67,73.85,73.85,0,0,0,7.38-30.74Zm178.7,1.8a100.43,100.43,0,0,0-5-34.42,86.19,86.19,0,0,0-15.86-28.58,76.51,76.51,0,0,0-59.52-27.06q-20.42,0-35.18,7.36A73.81,73.81,0,0,0,833,143.35a90.51,90.51,0,0,0-15.42,28.58,139.58,139.58,0,0,0-6.73,34.42Z"/>
  <path class="cls-3" d="M1028.16,106.92h16.57v47.85h.72a71.46,71.46,0,0,1,12.4-22.33,82.35,82.35,0,0,1,42-27.09,96.32,96.32,0,0,1,25.66-3.46q19.56,0,33.25,4.76t22.4,12.58a60.73,60.73,0,0,1,13.7,17.56,81.74,81.74,0,0,1,7.18,19.72,116.94,116.94,0,0,1,2.6,19.29q.44,9.31.44,16.25V329.92h-16.57V189.09q0-8.24-1.31-20.8a62.92,62.92,0,0,0-7.59-24.06q-6.3-11.47-19.1-19.71t-35.4-8.25q-19.11,0-33.87,6.94A73.31,73.31,0,0,0,1066,142.49,85,85,0,0,0,1050.16,172a122.86,122.86,0,0,0-5.42,37.48V329.92h-16.57Z"/>
  <path class="cls-3" d="M1421.87,282.37l-.72-.32q-13.86,26.46-34.67,39.7T1335.78,335q-25.14,0-43.33-9.54a85.73,85.73,0,0,1-29.9-25.56,110.59,110.59,0,0,1-17.33-37.05,176.33,176.33,0,0,1,.43-90.11q6.07-21.45,18.42-37a88.22,88.22,0,0,1,31-24.69q18.65-9.1,43.77-9.11a97.19,97.19,0,0,1,26.43,3.67,93,93,0,0,1,24.06,10.58,76.14,76.14,0,0,1,31.85,40.59h.83l-.11-136.62h16.57V329.92h-16.57Zm-82.61,38.19q21.21,0,36.58-8.66A77.69,77.69,0,0,0,1401.38,289a101.29,101.29,0,0,0,15.15-32.67,142.54,142.54,0,0,0,5-37.43,144.09,144.09,0,0,0-5-37.87,106.55,106.55,0,0,0-15-32.89,73.76,73.76,0,0,0-25.74-23.16q-15.79-8.66-37-8.66-22.08,0-37.66,8.44a74.94,74.94,0,0,0-25.76,22.73,94.92,94.92,0,0,0-14.72,32.89,161.7,161.7,0,0,0-4.54,38.51,143.67,143.67,0,0,0,5,37.87,101.64,101.64,0,0,0,15.15,32.68A75.07,75.07,0,0,0,1302,312.12q15.6,8.44,37.23,8.44Z"/>
  <path class="cls-3" d="M1494.8,329.92v-223h16.57v223Z"/>
</svg>
