<svg width="162" height="24" viewBox="0 0 162 24" fill="none" xmlns="http://www.w3.org/2000/svg">
<path d="M13.4545 5.33333H23.6364C23.9739 5.33333 24.2976 5.47381 24.5363 5.72386C24.775 5.97391 24.9091 6.31304 24.9091 6.66667C24.9091 7.02029 24.775 7.35943 24.5363 7.60948C24.2976 7.85952 23.9739 8 23.6364 8H13.4545C13.117 8 12.7933 7.85952 12.5546 7.60948C12.3159 7.35943 12.1818 7.02029 12.1818 6.66667C12.1818 6.31304 12.3159 5.97391 12.5546 5.72386C12.7933 5.47381 13.117 5.33333 13.4545 5.33333V5.33333ZM4.54545 5.33333H9.63636C9.97391 5.33333 10.2976 5.47381 10.5363 5.72386C10.775 5.97391 10.9091 6.31304 10.9091 6.66667C10.9091 7.02029 10.775 7.35943 10.5363 7.60948C10.2976 7.85952 9.97391 8 9.63636 8H4.54545C4.20791 8 3.88418 7.85952 3.6455 7.60948C3.40682 7.35943 3.27273 7.02029 3.27273 6.66667C3.27273 6.31304 3.40682 5.97391 3.6455 5.72386C3.88418 5.47381 4.20791 5.33333 4.54545 5.33333V5.33333ZM3.27273 10.6667H17.2727C17.6103 10.6667 17.934 10.8071 18.1727 11.0572C18.4114 11.3072 18.5455 11.6464 18.5455 12C18.5455 12.3536 18.4114 12.6928 18.1727 12.9428C17.934 13.1929 17.6103 13.3333 17.2727 13.3333H3.27273C2.93518 13.3333 2.61146 13.1929 2.37277 12.9428C2.13409 12.6928 2 12.3536 2 12C2 11.6464 2.13409 11.3072 2.37277 11.0572C2.61146 10.8071 2.93518 10.6667 3.27273 10.6667V10.6667ZM21.0909 10.6667H28.7273C29.0648 10.6667 29.3885 10.8071 29.6272 11.0572C29.8659 11.3072 30 11.6464 30 12C30 12.3536 29.8659 12.6928 29.6272 12.9428C29.3885 13.1929 29.0648 13.3333 28.7273 13.3333H21.0909C20.7534 13.3333 20.4296 13.1929 20.191 12.9428C19.9523 12.6928 19.8182 12.3536 19.8182 12C19.8182 11.6464 19.9523 11.3072 20.191 11.0572C20.4296 10.8071 20.7534 10.6667 21.0909 10.6667V10.6667ZM12.1818 0H16C16.3375 0 16.6613 0.140476 16.9 0.390524C17.1386 0.640573 17.2727 0.979711 17.2727 1.33333C17.2727 1.68696 17.1386 2.02609 16.9 2.27614C16.6613 2.52619 16.3375 2.66667 16 2.66667H12.1818C11.8443 2.66667 11.5205 2.52619 11.2819 2.27614C11.0432 2.02609 10.9091 1.68696 10.9091 1.33333C10.9091 0.979711 11.0432 0.640573 11.2819 0.390524C11.5205 0.140476 11.8443 0 12.1818 0V0ZM19.8182 0H23.6364C23.9739 0 24.2976 0.140476 24.5363 0.390524C24.775 0.640573 24.9091 0.979711 24.9091 1.33333C24.9091 1.68696 24.775 2.02609 24.5363 2.27614C24.2976 2.52619 23.9739 2.66667 23.6364 2.66667H19.8182C19.4806 2.66667 19.1569 2.52619 18.9182 2.27614C18.6795 2.02609 18.5455 1.68696 18.5455 1.33333C18.5455 0.979711 18.6795 0.640573 18.9182 0.390524C19.1569 0.140476 19.4806 0 19.8182 0V0ZM16 16H27.4545C27.7921 16 28.1158 16.1405 28.3545 16.3905C28.5932 16.6406 28.7273 16.9797 28.7273 17.3333C28.7273 17.687 28.5932 18.0261 28.3545 18.2761C28.1158 18.5262 27.7921 18.6667 27.4545 18.6667H16C15.6625 18.6667 15.3387 18.5262 15.1 18.2761C14.8614 18.0261 14.7273 17.687 14.7273 17.3333C14.7273 16.9797 14.8614 16.6406 15.1 16.3905C15.3387 16.1405 15.6625 16 16 16V16ZM8.36364 16H12.1818C12.5194 16 12.8431 16.1405 13.0818 16.3905C13.3205 16.6406 13.4545 16.9797 13.4545 17.3333C13.4545 17.687 13.3205 18.0261 13.0818 18.2761C12.8431 18.5262 12.5194 18.6667 12.1818 18.6667H8.36364C8.02609 18.6667 7.70237 18.5262 7.46368 18.2761C7.225 18.0261 7.09091 17.687 7.09091 17.3333C7.09091 16.9797 7.225 16.6406 7.46368 16.3905C7.70237 16.1405 8.02609 16 8.36364 16ZM5.81818 21.3333H13.4545C13.7921 21.3333 14.1158 21.4738 14.3545 21.7239C14.5932 21.9739 14.7273 22.313 14.7273 22.6667C14.7273 23.0203 14.5932 23.3594 14.3545 23.6095C14.1158 23.8595 13.7921 24 13.4545 24H5.81818C5.48063 24 5.15691 23.8595 4.91823 23.6095C4.67954 23.3594 4.54545 23.0203 4.54545 22.6667C4.54545 22.313 4.67954 21.9739 4.91823 21.7239C5.15691 21.4738 5.48063 21.3333 5.81818 21.3333V21.3333ZM17.2727 21.3333H19.8182C20.1557 21.3333 20.4795 21.4738 20.7181 21.7239C20.9568 21.9739 21.0909 22.313 21.0909 22.6667C21.0909 23.0203 20.9568 23.3594 20.7181 23.6095C20.4795 23.8595 20.1557 24 19.8182 24H17.2727C16.9352 24 16.6115 23.8595 16.3728 23.6095C16.1341 23.3594 16 23.0203 16 22.6667C16 22.313 16.1341 21.9739 16.3728 21.7239C16.6115 21.4738 16.9352 21.3333 17.2727 21.3333V21.3333Z" fill="#1E00B3"/>
<path d="M35.12 17V5.48H42.056V7.408H37.048V10.28H41.096V12.2H37.048V17H35.12ZM46.735 17.248C46.095 17.248 45.567 17.1413 45.151 16.928C44.735 16.7147 44.4043 16.4427 44.159 16.112C43.9137 15.7813 43.7323 15.4293 43.615 15.056C43.4977 14.6827 43.4203 14.3307 43.383 14C43.351 13.664 43.335 13.392 43.335 13.184V8.36H45.287V12.52C45.287 12.7867 45.3057 13.088 45.343 13.424C45.3803 13.7547 45.4657 14.0747 45.599 14.384C45.7377 14.688 45.9403 14.9387 46.207 15.136C46.479 15.3333 46.8443 15.432 47.303 15.432C47.5483 15.432 47.791 15.392 48.031 15.312C48.271 15.232 48.487 15.096 48.679 14.904C48.8763 14.7067 49.0337 14.4373 49.151 14.096C49.2683 13.7547 49.327 13.3227 49.327 12.8L50.471 13.288C50.471 14.024 50.327 14.6907 50.039 15.288C49.7563 15.8853 49.3377 16.3627 48.783 16.72C48.2283 17.072 47.5457 17.248 46.735 17.248ZM49.559 17V14.32H49.327V8.36H51.263V17H49.559ZM58.5746 17C58.004 17.1067 57.444 17.152 56.8946 17.136C56.3506 17.1253 55.8626 17.0267 55.4306 16.84C54.9986 16.648 54.6706 16.3467 54.4466 15.936C54.2493 15.5627 54.1453 15.1813 54.1346 14.792C54.124 14.4027 54.1186 13.9627 54.1186 13.472V5.96H56.0386V13.36C56.0386 13.7067 56.0413 14.0107 56.0466 14.272C56.0573 14.5333 56.1133 14.7467 56.2146 14.912C56.4066 15.232 56.7133 15.4107 57.1346 15.448C57.556 15.4853 58.036 15.464 58.5746 15.384V17ZM52.5506 9.872V8.36H58.5746V9.872H52.5506ZM63.6725 17.248C63.0325 17.248 62.5045 17.1413 62.0885 16.928C61.6725 16.7147 61.3418 16.4427 61.0965 16.112C60.8512 15.7813 60.6698 15.4293 60.5525 15.056C60.4352 14.6827 60.3578 14.3307 60.3205 14C60.2885 13.664 60.2725 13.392 60.2725 13.184V8.36H62.2245V12.52C62.2245 12.7867 62.2432 13.088 62.2805 13.424C62.3178 13.7547 62.4032 14.0747 62.5365 14.384C62.6752 14.688 62.8778 14.9387 63.1445 15.136C63.4165 15.3333 63.7818 15.432 64.2405 15.432C64.4858 15.432 64.7285 15.392 64.9685 15.312C65.2085 15.232 65.4245 15.096 65.6165 14.904C65.8138 14.7067 65.9712 14.4373 66.0885 14.096C66.2058 13.7547 66.2645 13.3227 66.2645 12.8L67.4085 13.288C67.4085 14.024 67.2645 14.6907 66.9765 15.288C66.6938 15.8853 66.2752 16.3627 65.7205 16.72C65.1658 17.072 64.4832 17.248 63.6725 17.248ZM66.4965 17V14.32H66.2645V8.36H68.2005V17H66.4965ZM70.4481 17V8.36H72.1521V10.464L71.9441 10.192C72.0508 9.904 72.1921 9.64267 72.3681 9.408C72.5495 9.168 72.7655 8.97067 73.0161 8.816C73.2295 8.672 73.4641 8.56 73.7201 8.48C73.9815 8.39467 74.2481 8.344 74.5201 8.328C74.7921 8.30667 75.0561 8.31733 75.3121 8.36V10.16C75.0561 10.0853 74.7601 10.0613 74.4241 10.088C74.0935 10.1147 73.7948 10.208 73.5281 10.368C73.2615 10.512 73.0428 10.696 72.8721 10.92C72.7068 11.144 72.5841 11.4 72.5041 11.688C72.4241 11.9707 72.3841 12.2773 72.3841 12.608V17H70.4481ZM80.6105 17.24C79.7358 17.24 78.9678 17.0507 78.3065 16.672C77.6452 16.2933 77.1278 15.768 76.7545 15.096C76.3865 14.424 76.2025 13.6507 76.2025 12.776C76.2025 11.832 76.3838 11.0133 76.7465 10.32C77.1092 9.62133 77.6132 9.08 78.2585 8.696C78.9038 8.312 79.6505 8.12 80.4985 8.12C81.3945 8.12 82.1545 8.33067 82.7785 8.752C83.4078 9.168 83.8745 9.75733 84.1785 10.52C84.4825 11.2827 84.5972 12.1813 84.5225 13.216H82.6105V12.512C82.6052 11.5733 82.4398 10.888 82.1145 10.456C81.7892 10.024 81.2772 9.808 80.5785 9.808C79.7892 9.808 79.2025 10.0533 78.8185 10.544C78.4345 11.0293 78.2425 11.7413 78.2425 12.68C78.2425 13.5547 78.4345 14.232 78.8185 14.712C79.2025 15.192 79.7625 15.432 80.4985 15.432C80.9732 15.432 81.3812 15.328 81.7225 15.12C82.0692 14.9067 82.3358 14.6 82.5225 14.2L84.4265 14.776C84.0958 15.5547 83.5838 16.16 82.8905 16.592C82.2025 17.024 81.4425 17.24 80.6105 17.24ZM77.6345 13.216V11.76H83.5785V13.216H77.6345ZM89.6435 17.24C88.5768 17.24 87.7102 17 87.0435 16.52C86.3768 16.04 85.9715 15.3653 85.8275 14.496L87.7955 14.192C87.8968 14.6187 88.1208 14.9547 88.4675 15.2C88.8142 15.4453 89.2515 15.568 89.7795 15.568C90.2435 15.568 90.6008 15.4773 90.8515 15.296C91.1075 15.1093 91.2355 14.856 91.2355 14.536C91.2355 14.3387 91.1875 14.1813 91.0915 14.064C91.0008 13.9413 90.7982 13.824 90.4835 13.712C90.1688 13.6 89.6862 13.4587 89.0355 13.288C88.3102 13.096 87.7342 12.8907 87.3075 12.672C86.8808 12.448 86.5742 12.184 86.3875 11.88C86.2008 11.576 86.1075 11.208 86.1075 10.776C86.1075 10.2373 86.2488 9.768 86.5315 9.368C86.8142 8.968 87.2088 8.66133 87.7155 8.448C88.2222 8.22933 88.8195 8.12 89.5075 8.12C90.1795 8.12 90.7742 8.224 91.2915 8.432C91.8142 8.64 92.2355 8.936 92.5555 9.32C92.8755 9.704 93.0728 10.1547 93.1475 10.672L91.1795 11.024C91.1315 10.656 90.9635 10.3653 90.6755 10.152C90.3928 9.93867 90.0142 9.81867 89.5395 9.792C89.0862 9.76533 88.7208 9.83467 88.4435 10C88.1662 10.16 88.0275 10.3867 88.0275 10.68C88.0275 10.8453 88.0835 10.9867 88.1955 11.104C88.3075 11.2213 88.5315 11.3387 88.8675 11.456C89.2088 11.5733 89.7155 11.7173 90.3875 11.888C91.0755 12.064 91.6248 12.2667 92.0355 12.496C92.4515 12.72 92.7502 12.9893 92.9315 13.304C93.1182 13.6187 93.2115 14 93.2115 14.448C93.2115 15.3173 92.8942 16 92.2595 16.496C91.6302 16.992 90.7582 17.24 89.6435 17.24ZM98.3269 17V5.48H100.255V15.192H105.343V17H98.3269ZM106.858 7.048V5.28H108.786V7.048H106.858ZM106.858 17V8.36H108.786V17H106.858ZM116.247 17C115.676 17.1067 115.116 17.152 114.567 17.136C114.023 17.1253 113.535 17.0267 113.103 16.84C112.671 16.648 112.343 16.3467 112.118 15.936C111.921 15.5627 111.817 15.1813 111.807 14.792C111.796 14.4027 111.791 13.9627 111.791 13.472V5.96H113.711V13.36C113.711 13.7067 113.713 14.0107 113.719 14.272C113.729 14.5333 113.785 14.7467 113.887 14.912C114.079 15.232 114.385 15.4107 114.807 15.448C115.228 15.4853 115.708 15.464 116.247 15.384V17ZM110.223 9.872V8.36H116.247V9.872H110.223ZM121.595 17.24C120.72 17.24 119.952 17.0507 119.291 16.672C118.63 16.2933 118.112 15.768 117.739 15.096C117.371 14.424 117.187 13.6507 117.187 12.776C117.187 11.832 117.368 11.0133 117.731 10.32C118.094 9.62133 118.598 9.08 119.243 8.696C119.888 8.312 120.635 8.12 121.483 8.12C122.379 8.12 123.139 8.33067 123.763 8.752C124.392 9.168 124.859 9.75733 125.163 10.52C125.467 11.2827 125.582 12.1813 125.507 13.216H123.595V12.512C123.59 11.5733 123.424 10.888 123.099 10.456C122.774 10.024 122.262 9.808 121.563 9.808C120.774 9.808 120.187 10.0533 119.803 10.544C119.419 11.0293 119.227 11.7413 119.227 12.68C119.227 13.5547 119.419 14.232 119.803 14.712C120.187 15.192 120.747 15.432 121.483 15.432C121.958 15.432 122.366 15.328 122.707 15.12C123.054 14.9067 123.32 14.6 123.507 14.2L125.411 14.776C125.08 15.5547 124.568 16.16 123.875 16.592C123.187 17.024 122.427 17.24 121.595 17.24ZM118.619 13.216V11.76H124.563V13.216H118.619ZM127.292 17V8.36H128.996V10.464L128.788 10.192C128.895 9.904 129.036 9.64267 129.212 9.408C129.393 9.168 129.609 8.97067 129.86 8.816C130.073 8.672 130.308 8.56 130.564 8.48C130.825 8.39467 131.092 8.344 131.364 8.328C131.636 8.30667 131.9 8.31733 132.156 8.36V10.16C131.9 10.0853 131.604 10.0613 131.268 10.088C130.937 10.1147 130.639 10.208 130.372 10.368C130.105 10.512 129.887 10.696 129.716 10.92C129.551 11.144 129.428 11.4 129.348 11.688C129.268 11.9707 129.228 12.2773 129.228 12.608V17H127.292ZM135.895 17.24C135.271 17.24 134.743 17.1227 134.311 16.888C133.879 16.648 133.551 16.3307 133.327 15.936C133.109 15.5413 132.999 15.1067 132.999 14.632C132.999 14.216 133.069 13.8427 133.207 13.512C133.346 13.176 133.559 12.888 133.847 12.648C134.135 12.4027 134.509 12.2027 134.967 12.048C135.314 11.936 135.719 11.8347 136.183 11.744C136.653 11.6533 137.159 11.5707 137.703 11.496C138.253 11.416 138.826 11.3307 139.423 11.24L138.735 11.632C138.741 11.0347 138.607 10.5947 138.335 10.312C138.063 10.0293 137.605 9.888 136.959 9.888C136.57 9.888 136.194 9.97867 135.831 10.16C135.469 10.3413 135.215 10.6533 135.071 11.096L133.311 10.544C133.525 9.81333 133.93 9.22667 134.527 8.784C135.13 8.34133 135.941 8.12 136.959 8.12C137.727 8.12 138.402 8.24533 138.983 8.496C139.57 8.74667 140.005 9.15733 140.287 9.728C140.442 10.032 140.535 10.344 140.567 10.664C140.599 10.9787 140.615 11.3227 140.615 11.696V17H138.927V15.128L139.207 15.432C138.818 16.056 138.362 16.5147 137.839 16.808C137.322 17.096 136.674 17.24 135.895 17.24ZM136.279 15.704C136.717 15.704 137.09 15.6267 137.399 15.472C137.709 15.3173 137.954 15.128 138.135 14.904C138.322 14.68 138.447 14.4693 138.511 14.272C138.613 14.0267 138.669 13.7467 138.679 13.432C138.695 13.112 138.703 12.8533 138.703 12.656L139.295 12.832C138.714 12.9227 138.215 13.0027 137.799 13.072C137.383 13.1413 137.026 13.208 136.727 13.272C136.429 13.3307 136.165 13.3973 135.935 13.472C135.711 13.552 135.522 13.6453 135.367 13.752C135.213 13.8587 135.093 13.9813 135.007 14.12C134.927 14.2587 134.887 14.4213 134.887 14.608C134.887 14.8213 134.941 15.0107 135.047 15.176C135.154 15.336 135.309 15.464 135.511 15.56C135.719 15.656 135.975 15.704 136.279 15.704ZM146.45 17.24C145.559 17.24 144.799 17.0427 144.17 16.648C143.541 16.248 143.058 15.704 142.722 15.016C142.391 14.328 142.223 13.5493 142.218 12.68C142.223 11.7947 142.397 11.0107 142.738 10.328C143.085 9.64 143.575 9.10133 144.21 8.712C144.845 8.31733 145.599 8.12 146.474 8.12C147.455 8.12 148.285 8.368 148.962 8.864C149.645 9.35467 150.09 10.0267 150.298 10.88L148.378 11.4C148.229 10.936 147.981 10.576 147.634 10.32C147.287 10.0587 146.893 9.928 146.45 9.928C145.949 9.928 145.535 10.048 145.21 10.288C144.885 10.5227 144.645 10.848 144.49 11.264C144.335 11.68 144.258 12.152 144.258 12.68C144.258 13.5013 144.442 14.1653 144.81 14.672C145.178 15.1787 145.725 15.432 146.45 15.432C146.962 15.432 147.365 15.3147 147.658 15.08C147.957 14.8453 148.181 14.5067 148.33 14.064L150.298 14.504C150.031 15.384 149.565 16.0613 148.898 16.536C148.231 17.0053 147.415 17.24 146.45 17.24ZM152.725 20.84L154.389 16.272L154.421 17.616L150.653 8.36H152.661L155.333 15.208H154.821L157.421 8.36H159.349L154.533 20.84H152.725Z" fill="#1F069C"/>
</svg>
