<svg xmlns="http://www.w3.org/2000/svg" xmlns:xlink="http://www.w3.org/1999/xlink" width="128.606" height="118.914" viewBox="0 0 128.606 118.914"><defs><clipPath id="clip-path"><rect id="Rectangle_2" data-name="Rectangle 2" width="0.098" height="0.116" fill="#00dba7"></rect></clipPath></defs><g id="Groupe_98" data-name="Groupe 98" transform="translate(-385.442 -182.651)"><g id="Groupe_13" data-name="Groupe 13" transform="translate(385.442 182.651)"><g id="Groupe_1" data-name="Groupe 1" transform="translate(70.578 37.901)"><path id="Trac&#xE9;_1" data-name="Trac&#xE9; 1" d="M540.308,247.551a17.218,17.218,0,0,0,3.167,5.107,11.562,11.562,0,0,0,5.824,2.964,23.073,23.073,0,0,0,7.478.359c-1.05-2.733-2.064-5.477-3.227-8.174-.133.011-.266.022-.4.028-3.992.226-7.2-.911-9.534-3.38-.621-.653-1.225-1.391-1.866-2.171a18.793,18.793,0,0,0-4.867-4.7,30.2,30.2,0,0,0-4.512.228c4.028,2.081,6.346,6.257,7.931,9.735" transform="translate(-501.571 -237.58)" fill="#ff9473"></path><path id="Trac&#xE9;_2" data-name="Trac&#xE9; 2" d="M544.288,242.11c.634.775,1.234,1.508,1.848,2.155,2.331,2.46,5.549,3.558,9.592,3.264-.007-.014-.012-.029-.02-.044a26.416,26.416,0,0,0-2.013-3.928.529.529,0,0,1-.044.143c-.257.491-1.147.642-1.708.674-.137.008-.257.008-.339,0a7.023,7.023,0,0,1-3.572-1.144,10.353,10.353,0,0,1-2.656-2.921,12.588,12.588,0,0,0-1.975-2.377c-.4-.057-.809-.108-1.212-.148-.791-.081-1.592-.137-2.392-.168a21.129,21.129,0,0,1,4.491,4.491" transform="translate(-503.871 -237.592)" fill="#ff9473"></path><path id="Trac&#xE9;_3" data-name="Trac&#xE9; 3" d="M549.133,267.881c-7.079-.865-15.1-1.848-16.768-7.439-.391-1.173-.74-2.505-1.113-3.917-1.237-4.685-2.641-10-6.241-12.717a18.02,18.02,0,0,0-5.178-2.728c-.048.026-.1.047-.148.072a20.466,20.466,0,0,0-4.359,3.122,22.391,22.391,0,0,1,6.552,4.122l.237.209a19.438,19.438,0,0,1,4.034,4.341,20.5,20.5,0,0,1,2.4,6.164c.324,1.4.56,2.838.79,4.23a48.6,48.6,0,0,0,1.138,5.583c.745,2.6,2.287,6.128,5.392,8.1a14.621,14.621,0,0,0,5.73,1.918c.8.124,1.617.221,2.41.314,1.231.145,2.5.294,3.74.553a15.7,15.7,0,0,1,3.029.927c.56-1.59,1.109-3.183,1.63-4.786a37.6,37.6,0,0,0,1.789-7.366c-1.555-.276-3.273-.488-5.066-.707" transform="translate(-496.285 -238.665)" fill="#ff9473"></path><path id="Trac&#xE9;_4" data-name="Trac&#xE9; 4" d="M547.474,240.321a10.176,10.176,0,0,0,2.576,2.843,6.743,6.743,0,0,0,3.42,1.1c.51.021,1.557-.109,1.773-.52.083-.163.026-.377-.174-.64l.026-.019a10.87,10.87,0,0,0-.909-1.083c-2.18-2.254-5.274-3.3-8.406-3.8a14.984,14.984,0,0,1,1.693,2.127" transform="translate(-505.726 -237.771)" fill="#ff9473"></path><path id="Trac&#xE9;_5" data-name="Trac&#xE9; 5" d="M552.407,256.544a24.043,24.043,0,0,1-6.27-.492,11.838,11.838,0,0,1-5.972-3.045,17.478,17.478,0,0,1-3.225-5.192c-1.615-3.546-4-7.82-8.194-9.782a21.824,21.824,0,0,0-6.357,1.921,17.758,17.758,0,0,1,4.994,2.674c3.677,2.781,5.1,8.144,6.346,12.876.371,1.407.722,2.735,1.112,3.9,1.61,5.408,9.532,6.378,16.519,7.233,1.793.22,3.512.431,5.062.707.03-.327.058-.653.074-.981.007-.133.007-.26.008-.391a20.881,20.881,0,0,0-.353-3.059c-.026-.134-.055-.266-.084-.4a44.669,44.669,0,0,0-1.779-4.834c-.167-.426-.331-.851-.5-1.277-.438.061-.894.109-1.383.136" transform="translate(-498.475 -237.721)" fill="#ff9473"></path><path id="Trac&#xE9;_6" data-name="Trac&#xE9; 6" d="M511.276,274.823c1.825-2.748,3.893-5.864,1.242-8.722-2.316-2.5-5.917-3.622-8.943-4.3a30.176,30.176,0,0,1-2.207,3.834c2.02.342,4.108.879,5.058,2.794,1.343,3.392-.058,6.637-1.414,9.776a25.262,25.262,0,0,0-1.757,4.988c-.4,1.949-.7,4.745,1.211,6.541.586.518,1.191,1.03,1.832,1.573,3.96,3.355,8.439,7.15,8.054,12.917,1.927.469,3.867.909,5.807,1.284-.518-4.417-1.49-8.893-4.748-12.036-.6-.578-1.255-1.141-1.892-1.686-2.092-1.793-4.257-3.646-4.953-6.5-.753-3.086.09-6.5,2.509-10.161Z" transform="translate(-491.958 -245.089)" fill="#ff9473"></path><path id="Trac&#xE9;_7" data-name="Trac&#xE9; 7" d="M494.991,297.579c-.222-.384-.443-.773-.666-1.17a11.864,11.864,0,0,1-1.458-6.392c.039-.791.143-1.594.243-2.369a16.8,16.8,0,0,0,.2-4.093,7.251,7.251,0,0,0-3.1-4.987,12.668,12.668,0,0,0-1.775,3.154c-1.335,3.576-.547,7.57.476,11.248a23.406,23.406,0,0,0,3.893,8.6,16.1,16.1,0,0,0,5.269,4.132c-.234-3.141-1.622-5.572-3.083-8.127" transform="translate(-487.73 -250.287)" fill="#ff9473"></path><path id="Trac&#xE9;_8" data-name="Trac&#xE9; 8" d="M546.527,281.643c-1.222-.257-2.49-.406-3.712-.549-.8-.095-1.618-.191-2.424-.317a14.927,14.927,0,0,1-5.842-1.959c-3.185-2.03-4.759-5.621-5.52-8.274a49.811,49.811,0,0,1-1.145-5.617c-.228-1.388-.464-2.822-.787-4.211a20.057,20.057,0,0,0-2.365-6.075,19.226,19.226,0,0,0-3.976-4.275l-.239-.21a21.932,21.932,0,0,0-6.6-4.117,25.689,25.689,0,0,0-2.345,2.567c.192.077.387.146.58.208a4.638,4.638,0,0,1,.866.346,29.685,29.685,0,0,1,11.2,12.613c.919,2.55.633,5.325.36,8.009a19.551,19.551,0,0,0,.088,6.9c.907,3.114,5.005,6.613,8.623,9.7a48.782,48.782,0,0,1,4.385,4.021,13.581,13.581,0,0,1,3.15,8.6,11.733,11.733,0,0,0,1.811-1.5,18.374,18.374,0,0,0,3.673-6.188c.3-.745.574-1.5.848-2.245.8-2.167,1.588-4.336,2.358-6.511a15.352,15.352,0,0,0-2.993-.916" transform="translate(-495.122 -240.203)" fill="#ff9473"></path><path id="Trac&#xE9;_9" data-name="Trac&#xE9; 9" d="M535.844,291.864a49.115,49.115,0,0,0-4.356-3.993c-3.649-3.115-7.784-6.644-8.717-9.847a19.771,19.771,0,0,1-.1-7.008c.272-2.653.553-5.394-.337-7.867a29.382,29.382,0,0,0-11.079-12.47,4.343,4.343,0,0,0-.805-.319c-.219-.07-.452-.151-.68-.249q-.649.831-1.24,1.7a32.478,32.478,0,0,0-2.163,3.833c5.424-.1,8.324,2,9.908,7.118,1.394,4.19.98,9.442.616,14.077-.074.97-.148,1.886-.2,2.752a7.93,7.93,0,0,0,1.677,4.633c.488.548,1,1.112,1.514,1.681,4.5,4.975,9.153,10.117,9,16.936a17.68,17.68,0,0,0,10.04-2.381,13.413,13.413,0,0,0-3.081-8.6" transform="translate(-493.508 -241.465)" fill="#ff9473"></path><path id="Trac&#xE9;_10" data-name="Trac&#xE9; 10" d="M519.166,288.727q-.774-.852-1.529-1.7A8.21,8.21,0,0,1,515.9,282.2c.052-.869.124-1.788.2-2.759.364-4.606.773-9.827-.6-13.962-1.549-5.018-4.408-7.048-9.773-6.909q-.478.979-.958,1.957c3.054.689,6.673,1.835,9.026,4.372,2.81,3.028.58,6.387-1.213,9.086l-.2.3c-2.371,3.585-3.2,6.924-2.469,9.925.673,2.764,2.8,4.586,4.858,6.348.64.547,1.3,1.113,1.906,1.7,3.345,3.229,4.324,7.805,4.846,12.307,1.592.3,3.18.564,4.754.746.6.07,1.207.117,1.818.144.148-6.7-4.461-11.794-8.924-16.726" transform="translate(-493.01 -244.084)" fill="#ff9473"></path><path id="Trac&#xE9;_11" data-name="Trac&#xE9; 11" d="M494.8,282.071a17.143,17.143,0,0,1-.2,4.166c-.1.769-.2,1.566-.243,2.344a11.532,11.532,0,0,0,1.421,6.233c.219.395.442.785.662,1.167,1.507,2.634,2.934,5.138,3.135,8.428a28.041,28.041,0,0,0,4.5,1.718c-.4-2.858-2.08-5.034-3.864-7.331a31.426,31.426,0,0,1-3.015-4.382c-1.786-3.212-.741-6.24.367-9.447.207-.6.419-1.214.613-1.834a8.438,8.438,0,0,0-3.88-9.242,33.128,33.128,0,0,0-2.714,2.988,7.539,7.539,0,0,1,3.22,5.192" transform="translate(-488.924 -248.837)" fill="#ff9473"></path><path id="Trac&#xE9;_12" data-name="Trac&#xE9; 12" d="M504.388,293.379c-.641-.544-1.246-1.058-1.838-1.58-2.026-1.9-1.713-4.8-1.3-6.818a25.288,25.288,0,0,1,1.772-5.049c1.333-3.084,2.708-6.273,1.415-9.537-.906-1.828-2.917-2.307-4.976-2.645-.215.3-.439.594-.676.881-.9,1.094-1.933,2.112-2.955,3.139a8.74,8.74,0,0,1,3.951,9.535c-.2.637-.413,1.257-.618,1.855-1.085,3.143-2.111,6.111-.389,9.209a31.222,31.222,0,0,0,2.989,4.342c1.835,2.363,3.566,4.6,3.941,7.6.4.111.791.22,1.187.319,1.791.449,3.614.915,5.453,1.364.343-5.588-4.059-9.319-7.953-12.617" transform="translate(-490.241 -246.933)" fill="#ff9473"></path><path id="Trac&#xE9;_13" data-name="Trac&#xE9; 13" d="M501.524,274.945c-.067.1-.137.2-.214.3l.016-.017a11.915,11.915,0,0,0,.765-1.016,4.371,4.371,0,0,0-.566.728" transform="translate(-491.94 -248.938)" fill="#ff9473"></path></g><g id="Groupe_2" data-name="Groupe 2" transform="translate(93.231)"><path id="Trac&#xE9;_14" data-name="Trac&#xE9; 14" d="M526.825,198.916c.891-.386,1.822-.693,2.725-.989a24.044,24.044,0,0,0,3.466-1.34c2.619-1.341,4.55-4.788,5.17-9.22l.006-.046-.033-.031c-.255-.248-.522-.518-.8-.8-.3-.3-.6-.611-.917-.916l-.084-.082-.056.1a19.577,19.577,0,0,1-2.8,4.114,9.049,9.049,0,0,1-6.456,3.173h-.094a13.962,13.962,0,0,1-1.8-.188,6.581,6.581,0,0,0-3.266.044,3.556,3.556,0,0,0-1.234.777l-.031.028,0,.043a13.128,13.128,0,0,0,.584,2.906c.546,1.727,1.168,3.423,1.851,5.041l.058.139.095-.12a9.361,9.361,0,0,1,3.62-2.634" transform="translate(-520.577 -183.531)" fill="#fc0"></path><path id="Trac&#xE9;_15" data-name="Trac&#xE9; 15" d="M521.761,191.578h0a6.905,6.905,0,0,1,3.411-.059,13.909,13.909,0,0,0,1.766.185h.1a8.752,8.752,0,0,0,6.222-3.079,20.133,20.133,0,0,0,2.82-4.164l.032-.062-.051-.046a6.6,6.6,0,0,0-2.341-1.521c-1.535-.488-3.1.1-4.62.673-.558.208-1.084.407-1.6.551a10.03,10.03,0,0,0-5.521,3.131,7.479,7.479,0,0,0-1.416,4.933l.008.179.139-.11a3.682,3.682,0,0,1,1.05-.611" transform="translate(-520.56 -182.651)" fill="#fc0"></path><path id="Trac&#xE9;_16" data-name="Trac&#xE9; 16" d="M535.051,202.358l-.048-.075.066.064c.84-.539,1.71-1.094,2.536-1.659a11.407,11.407,0,0,0,3.526-3.363,13.118,13.118,0,0,0,1.331-4.254c.086-.457.178-.93.282-1.387l.012-.046-.031-.034c-1.034-1.15-2.131-2.2-2.969-2.982l-.123-.115-.025.166c-.689,4.366-2.663,7.774-5.276,9.111a24.162,24.162,0,0,1-3.513,1.359c-.895.3-1.821.6-2.7.979a8.806,8.806,0,0,0-3.667,2.761l-.028.041.019.046a36.4,36.4,0,0,0,2.763,5.235c.023.034.044.067.069.1s.036.055.057.083l.066.1.079-.1c2.024-2.487,4.844-4.292,7.572-6.037" transform="translate(-521.759 -184.467)" fill="#fc0"></path><path id="Trac&#xE9;_17" data-name="Trac&#xE9; 17" d="M535.431,210.673a12.392,12.392,0,0,1,3.079-1.784l.046-.021c.274-.125.547-.25.817-.38a22.623,22.623,0,0,0,8.951-7.9l.021-.032-.01-.039c-.009-.043-.017-.087-.027-.13-.011-.059-.022-.118-.038-.177a16.537,16.537,0,0,0-3.737-6.629l-.116-.137-.037.175c-.075.348-.146.7-.215,1.061a13.251,13.251,0,0,1-1.365,4.323,11.638,11.638,0,0,1-3.614,3.457c-.819.56-1.682,1.112-2.515,1.645l-.043.029c-2.754,1.76-5.6,3.582-7.59,6.08l-.043.052.039.054a12.273,12.273,0,0,0,3.981,3.716l.082.046.041-.086c.023-.052.047-.1.069-.156s.052-.13.083-.193h0a9.172,9.172,0,0,1,2.138-2.977" transform="translate(-523.175 -185.998)" fill="#fc0"></path><path id="Trac&#xE9;_18" data-name="Trac&#xE9; 18" d="M550.438,204.576l-.039-.213-.124.179a22.628,22.628,0,0,1-8.813,7.6h0c-.253.121-.511.239-.767.357l-.1.048a12.164,12.164,0,0,0-3.006,1.737,8.868,8.868,0,0,0-2.065,2.884c-.032.064-.06.129-.087.2s-.045.108-.07.16l-.037.079.078.039a8.392,8.392,0,0,0,3.711.872,10.282,10.282,0,0,0,5.428-1.7c.335-.208.637-.405.92-.6a13.548,13.548,0,0,0,3.249-3.044,10.948,10.948,0,0,0,1.725-8.591" transform="translate(-525.138 -189.382)" fill="#fc0"></path></g><g id="Groupe_3" data-name="Groupe 3" transform="translate(0 2.367)"><path id="Trac&#xE9;_19" data-name="Trac&#xE9; 19" d="M407.52,192.562a63.035,63.035,0,0,0,12.61,5.2c.043.014.085.022.129.034-.024-.063-.05-.126-.075-.19a37.894,37.894,0,0,0-2.273-5.129,20.966,20.966,0,0,1-10.247-6.157,9.184,9.184,0,0,0-3.558,2.035c-.393.324-.774.66-1.151,1a19.6,19.6,0,0,0,4.565,3.2" transform="translate(-390.871 -186.157)" fill="#d6a2ff"></path><path id="Trac&#xE9;_20" data-name="Trac&#xE9; 20" d="M396.452,203.047a54.747,54.747,0,0,0,5.535,1.857c1.114.331,2.268.673,3.39,1.053a45.749,45.749,0,0,1,14.6,8.222,4.349,4.349,0,0,0,.165-.446,6.381,6.381,0,0,0-.36-4.041c-.54-1.457-1.109-2.906-1.684-4.353a40.735,40.735,0,0,1-23.835-9.13,25.786,25.786,0,0,0-3.773,2.436c-.079.068-.155.139-.23.209a16.509,16.509,0,0,0,6.193,4.192" transform="translate(-386.936 -189.221)" fill="#d6a2ff"></path><path id="Trac&#xE9;_21" data-name="Trac&#xE9; 21" d="M419.9,203.429q-.766-1.915-1.519-3.831c-.115-.03-.232-.056-.349-.091a63.3,63.3,0,0,1-12.668-5.229,19.867,19.867,0,0,1-4.642-3.26,33.158,33.158,0,0,1-3.32,2.807c-.31.215-.626.415-.948.611a40.437,40.437,0,0,0,23.445,8.993" transform="translate(-388.855 -187.612)" fill="#d6a2ff"></path><path id="Trac&#xE9;_22" data-name="Trac&#xE9; 22" d="M419.969,192.043c-.155-.255-.313-.508-.486-.756a13.183,13.183,0,0,0-4.281-4.07,8.2,8.2,0,0,0-3.523-1.123c-.116-.008-.23-.01-.345-.012a5.687,5.687,0,0,0-1.071.094,20.671,20.671,0,0,0,9.706,5.867" transform="translate(-393.137 -186.082)" fill="#d6a2ff"></path><path id="Trac&#xE9;_23" data-name="Trac&#xE9; 23" d="M403.975,207.518c-1.113-.379-2.263-.72-3.376-1.049a54.882,54.882,0,0,1-5.564-1.869,16.794,16.794,0,0,1-6.3-4.262,10.118,10.118,0,0,0-2.685,4.835,19.835,19.835,0,0,0,8.228,5.119c1.513.553,3.085,1.025,4.607,1.481a53.076,53.076,0,0,1,7,2.463c2.144.989,5.647,3.044,7.535,6.471a22.652,22.652,0,0,0,3.08-2.536,9.572,9.572,0,0,0,2.027-2.438,45.5,45.5,0,0,0-14.56-8.215" transform="translate(-385.632 -190.502)" fill="#d6a2ff"></path><path id="Trac&#xE9;_24" data-name="Trac&#xE9; 24" d="M405.58,216.839a52.563,52.563,0,0,0-6.966-2.447c-1.526-.457-3.1-.93-4.624-1.487a20.354,20.354,0,0,1-8.208-5.044,17.429,17.429,0,0,0,.19,7.64c1.909,1.32,4.255,1.764,6.722,2.228a18.222,18.222,0,0,1,6.883,2.265,12.269,12.269,0,0,1,2.732,2.62c1.691.428,3.2,1.427,4.9,1.838a7.4,7.4,0,0,0,5.328-.98c.152-.086.3-.177.451-.27-1.847-3.366-5.3-5.39-7.411-6.363" transform="translate(-385.443 -192.833)" fill="#d6a2ff"></path><path id="Trac&#xE9;_25" data-name="Trac&#xE9; 25" d="M399.695,223.863a17.982,17.982,0,0,0-6.772-2.22,18.5,18.5,0,0,1-6.563-2.1c.153.591.327,1.168.523,1.722a42.166,42.166,0,0,0,1.908,4.246,19.075,19.075,0,0,1,3.227.28,8.66,8.66,0,0,1,3.958,1.748c1.851-.781,3.662-1.71,5.748-1.468.134.014.269.037.4.059a11.493,11.493,0,0,0-2.427-2.267" transform="translate(-385.727 -196.455)" fill="#d6a2ff"></path><path id="Trac&#xE9;_26" data-name="Trac&#xE9; 26" d="M393.123,228.9a18.337,18.337,0,0,0-3.017-.271,4.886,4.886,0,0,0,2.158,2.3,4.805,4.805,0,0,0,3.439-.023c.38-.124.753-.27,1.126-.422a8.491,8.491,0,0,0-3.707-1.583" transform="translate(-386.888 -199.272)" fill="#d6a2ff"></path></g><g id="Groupe_11" data-name="Groupe 11" transform="translate(2.32 37.61)"><path id="Trac&#xE9;_27" data-name="Trac&#xE9; 27" d="M406.039,241.656a28.2,28.2,0,0,1,5.94.963,13.821,13.821,0,0,1,5.6,2.777,12.635,12.635,0,0,1,3.173,6.211,32.456,32.456,0,0,1,.96,8.4c-.087,5.209-1.438,10.339-2.745,15.3a86.818,86.818,0,0,0-2.483,11.548c-1.23,10.236,1.3,20.41,4.548,29.5a27.114,27.114,0,0,0,8.169,2.082,51.839,51.839,0,0,1-3.478-32.237c.408-1.869.929-3.752,1.436-5.573,1.083-3.907,2.2-7.947,2.243-12.044a39.433,39.433,0,0,0-.769-7.3,109.721,109.721,0,0,0-3.109-12.735c-.783-2.539-1.8-5.4-3.947-7.221a13.734,13.734,0,0,0-4.408-2.267,51.371,51.371,0,0,0-6.087-1.711,14.581,14.581,0,0,0-8.256,3.955c1.116.163,2.182.259,3.215.351" transform="translate(-393.151 -237.218)" fill="#00dba7"></path><path id="Trac&#xE9;_28" data-name="Trac&#xE9; 28" d="M411.321,291.906c1.624-7.036,3.305-14.312,4.461-21.816a27.32,27.32,0,0,0-.5-8.933c-2.616-7.317-8.589-13.179-15.332-15.1a15.492,15.492,0,0,0-.819,1.318c3.2,3.714,10.3,12.856,10.009,20.523a110.945,110.945,0,0,1-1.227,11.374,91.9,91.9,0,0,0-1.253,13.575c.016,2.344.145,4.725.271,7.028.074,1.334.146,2.7.2,4.065.328.9.646,1.806.981,2.706.962-4.974,2.1-9.933,3.21-14.738" transform="translate(-392.006 -239.917)" fill="#00dba7"></path><path id="Trac&#xE9;_29" data-name="Trac&#xE9; 29" d="M415.493,288.718a86.722,86.722,0,0,1,2.491-11.589c1.3-4.945,2.648-10.056,2.732-15.228a32.142,32.142,0,0,0-.95-8.327,12.361,12.361,0,0,0-3.087-6.066A13.568,13.568,0,0,0,411.2,244.8a28.111,28.111,0,0,0-5.882-.952c-1.089-.1-2.217-.2-3.4-.376l-.042-.006A13.956,13.956,0,0,0,400.58,245c6.8,1.979,12.8,7.891,15.437,15.284a27.451,27.451,0,0,1,.506,9.053c-1.155,7.512-2.837,14.794-4.463,21.837-1.145,4.953-2.323,10.07-3.3,15.2a21.84,21.84,0,0,0,2.966,5.675,21.47,21.47,0,0,0,8.238,6.046c-3.213-9.056-5.7-19.176-4.47-29.37" transform="translate(-392.455 -239.113)" fill="#00dba7"></path><path id="Trac&#xE9;_30" data-name="Trac&#xE9; 30" d="M392.06,291.179c.571.827,1.177,1.641,1.777,2.436a60.534,60.534,0,0,0-2.1-20.131q-.713,2.95-1.628,5.846c-.107.338-.215.677-.319,1.018a25.1,25.1,0,0,1,2.265,10.831" transform="translate(-389.112 -248.42)" fill="#00dba7"></path><path id="Trac&#xE9;_31" data-name="Trac&#xE9; 31" d="M405.9,300.608c-.127-2.307-.258-4.692-.274-7.043a92.065,92.065,0,0,1,1.259-13.618A110.912,110.912,0,0,0,408.1,268.6c.287-7.5-6.649-16.487-9.86-20.23a20.99,20.99,0,0,0-1.494,3.685,71.952,71.952,0,0,1,3.9,13.757,80.4,80.4,0,0,1,.66,8.043l1.049,21.922a66.054,66.054,0,0,1,3.7,7.976v0c-.048-1.059-.106-2.112-.161-3.15" transform="translate(-391.267 -240.635)" fill="#00dba7"></path><path id="Trac&#xE9;_32" data-name="Trac&#xE9; 32" d="M400.324,275.743a79.372,79.372,0,0,0-.657-8.013,69.924,69.924,0,0,0-3.743-13.322,58.517,58.517,0,0,0-1.374,6.523,73.786,73.786,0,0,1,3.266,30.218c.046.071.1.144.141.216,1.184,1.861,2.322,3.754,3.386,5.686Z" transform="translate(-390.585 -242.506)" fill="#00dba7"></path><path id="Trac&#xE9;_33" data-name="Trac&#xE9; 33" d="M397.019,293.971a73.5,73.5,0,0,0-3.117-29.19q-.454,2.721-1.088,5.408a60.8,60.8,0,0,1,2.229,21.083c.7.927,1.383,1.828,1.975,2.7" transform="translate(-390.048 -245.722)" fill="#00dba7"></path><path id="Trac&#xE9;_34" data-name="Trac&#xE9; 34" d="M389.355,284.066a9.716,9.716,0,0,0-.495,4.019,14.519,14.519,0,0,0,2.6,5.945,24.783,24.783,0,0,0-2.107-9.964" transform="translate(-388.805 -251.7)" fill="#00dba7"></path><path id="Trac&#xE9;_35" data-name="Trac&#xE9; 35" d="M462.826,314.694a30.986,30.986,0,0,1-2.189-5.112,72.037,72.037,0,0,1-3.564-29.65c-.883-1.187-1.706-2.358-2.474-3.5a66.73,66.73,0,0,1-.72,10.311,73.3,73.3,0,0,0-.754,9.582,71.279,71.279,0,0,0,1.957,13.783c.66,3.152,1.408,6.723,3.424,9.517a22.8,22.8,0,0,0,2.009,2.33c.02-.032.041-.064.065-.1,1.006-1.537,2.268-3.277,3.568-5.145a17.173,17.173,0,0,1-1.321-2.022" transform="translate(-408.743 -249.334)" fill="#00dba7"></path><path id="Trac&#xE9;_36" data-name="Trac&#xE9; 36" d="M469.472,311.462a47.3,47.3,0,0,1-6.278-12.653A27.667,27.667,0,0,1,462.285,286c-1.125-1.333-2.185-2.667-3.171-3.985a71.763,71.763,0,0,0,3.581,29.2,30.688,30.688,0,0,0,2.142,5.014,17.036,17.036,0,0,0,1.268,1.96,70.913,70.913,0,0,0,3.827-6.046c-.157-.229-.308-.455-.46-.682" transform="translate(-410.521 -251.065)" fill="#00dba7"></path><path id="Trac&#xE9;_37" data-name="Trac&#xE9; 37" d="M447.3,269.749a31.559,31.559,0,0,1-.137,7.847,39.683,39.683,0,0,1-1.59,5.736c-.237.716-.484,1.457-.707,2.187A50.609,50.609,0,0,0,448.7,324.2a5.28,5.28,0,0,0,1.329,1.764,11.374,11.374,0,0,0,1.628-.9,20.963,20.963,0,0,0,5.45-6.217,24.129,24.129,0,0,1-2.082-2.414c-2.051-2.843-2.806-6.448-3.471-9.629a71.5,71.5,0,0,1-1.964-13.841,73.452,73.452,0,0,1,.756-9.621,63.429,63.429,0,0,0,.7-10.743c-1.716-2.58-3.139-4.987-4.268-7.037.22,1.276.394,2.661.525,4.194" transform="translate(-405.504 -245.962)" fill="#00dba7"></path><path id="Trac&#xE9;_38" data-name="Trac&#xE9; 38" d="M440.215,315.536a50.91,50.91,0,0,1-3.854-38.908c.226-.734.473-1.477.711-2.193a39.411,39.411,0,0,0,1.577-5.692,31.057,31.057,0,0,0,.135-7.774,45.427,45.427,0,0,0-.69-5.067c-1.875-3.486-2.811-5.751-2.811-5.754-.366-.728-.7-1.523-1.035-2.343a17.147,17.147,0,0,0-12.868-10.247,20.889,20.889,0,0,0-5.225-.361,51.41,51.41,0,0,1,5.243,1.524,14.006,14.006,0,0,1,4.5,2.319c2.208,1.875,3.243,4.782,4.039,7.36a109.993,109.993,0,0,1,3.117,12.771,39.578,39.578,0,0,1,.774,7.355c-.041,4.134-1.167,8.2-2.254,12.121-.505,1.817-1.025,3.7-1.432,5.557a51.542,51.542,0,0,0,3.525,32.2,16.949,16.949,0,0,0,7.827-1.114,5.849,5.849,0,0,1-1.283-1.755" transform="translate(-397.283 -237.159)" fill="#00dba7"></path><path id="Trac&#xE9;_39" data-name="Trac&#xE9; 39" d="M475.076,299.839c.046.054.092.108.14.164l-.14-.164" transform="translate(-415.549 -256.59)" fill="#00dba7"></path><g id="Groupe_5" data-name="Groupe 5" transform="translate(58.607 42.198)" opacity="0.5"><g id="Groupe_4" data-name="Groupe 4"><path id="Trac&#xE9;_40" data-name="Trac&#xE9; 40" d="M473.742,298.316c.308.348.618.7.92,1.051q-.475-.559-.92-1.051" transform="translate(-473.742 -298.316)" fill="#00dba7"></path></g></g><g id="Groupe_8" data-name="Groupe 8" transform="translate(59.667 43.414)" opacity="0.5"><g id="Groupe_7" data-name="Groupe 7"><rect id="Rectangle_1" data-name="Rectangle 1" width="0.098" height="0.116" fill="#00dba7"></rect><g id="Groupe_6" data-name="Groupe 6" clip-path="url(#clip-path)"><path id="Trac&#xE9;_41" data-name="Trac&#xE9; 41" d="M475.333,300.141l-.054-.065c.032.039.064.079.1.117-.016-.017-.03-.034-.044-.052" transform="translate(-475.279 -300.077)" fill="#00dba7"></path></g></g></g><path id="Trac&#xE9;_42" data-name="Trac&#xE9; 42" d="M476.7,302.649a12.171,12.171,0,0,0-2.093-3.318c-.034-.039-.067-.078-.1-.117-.048-.055-.094-.11-.139-.164-.3-.354-.613-.7-.922-1.051-.224-.248-.443-.482-.653-.705.042.528.079,1.054.113,1.574.011.182.023.364.038.547a27.3,27.3,0,0,0,.681,5.02,15.072,15.072,0,0,0,3.28,6.125,12.562,12.562,0,0,0-.207-7.911" transform="translate(-414.842 -255.801)" fill="#00dba7"></path><path id="Trac&#xE9;_43" data-name="Trac&#xE9; 43" d="M468.316,292.8q-.435-.452-.861-.908c.291.315.564.607.791.84.022.023.048.046.07.068" transform="translate(-413.187 -254.125)" fill="#00dba7"></path><path id="Trac&#xE9;_44" data-name="Trac&#xE9; 44" d="M472.3,296.781a.324.324,0,0,0-.032-.03.37.37,0,0,1,.032.033v0" transform="translate(-414.68 -255.633)" fill="#00dba7"></path><g id="Groupe_10" data-name="Groupe 10" transform="translate(52.016 35.236)" opacity="0.5"><g id="Groupe_9" data-name="Groupe 9"><path id="Trac&#xE9;_45" data-name="Trac&#xE9; 45" d="M464.191,288.225q1.086,1.269,2.252,2.527c-1.031-1.123-2.252-2.527-2.252-2.527" transform="translate(-464.191 -288.225)" fill="#00dba7"></path></g></g><path id="Trac&#xE9;_46" data-name="Trac&#xE9; 46" d="M473.978,308.073a15.34,15.34,0,0,1-3.458-6.374,29.461,29.461,0,0,1-.716-5.412c0-.07-.01-.14-.015-.21-.041-.637-.086-1.287-.144-1.936-.01-.011-.021-.021-.032-.032-.994-1.029-1.831-1.806-2.463-2.447-.022-.023-.048-.047-.07-.068-.227-.234-.5-.526-.791-.84q-1.164-1.256-2.252-2.527a27.409,27.409,0,0,0,.94,12.422,46.92,46.92,0,0,0,6.183,12.492c.142.212.284.424.429.639.379-.7.74-1.407,1.066-2.117a24.871,24.871,0,0,0,1.337-3.57.126.126,0,0,1-.015-.018" transform="translate(-412.021 -252.989)" fill="#00dba7"></path></g><g id="Groupe_12" data-name="Groupe 12" transform="translate(36.536 8.772)"><path id="Trac&#xE9;_47" data-name="Trac&#xE9; 47" d="M463.829,212.636a56.349,56.349,0,0,1-2.844,6.56,45.005,45.005,0,0,0-3.262,7.97,29.276,29.276,0,0,0-1.187,7.981h-.041c.815,1.37,1.51,2.848,2.311,4.243-.082-5.274,2.418-10.031,4.847-14.634.727-1.374,1.475-2.8,2.144-4.208,3.956-8.635,4.242-17.682.789-24.845-1.439.1-2.876.181-4.313.271,2.739,6.132,3.249,11.593,1.557,16.661" transform="translate(-444.004 -195.469)" fill="#6cd5ff"></path><path id="Trac&#xE9;_48" data-name="Trac&#xE9; 48" d="M447.156,209.161c-.284.716-.6,1.423-.916,2.105-1.141,2.523-2.22,4.906-1.71,7.7.323,1.775.814,3.509,1.292,5.187.455,1.61.922,3.275,1.257,5.015.556.538,1.124,1.067,1.684,1.6-.146-1.012-.318-2.036-.5-3.1-.852-5.035-1.736-10.241.265-15,1.85-4.624,4.128-10.332,3.987-15.808a13.69,13.69,0,0,0-3.941,1.025,27.174,27.174,0,0,1-1.42,11.27" transform="translate(-440.255 -195.83)" fill="#6cd5ff"></path><path id="Trac&#xE9;_49" data-name="Trac&#xE9; 49" d="M441.189,223.867c-1-3.74-1.737-7.8-.4-12.1.358-1.15.844-2.3,1.314-3.417.98-2.316,1.985-4.709,1.92-7.242a17.353,17.353,0,0,0-3.43,5.419c-1.716,3.981-2.712,8.407-1.935,12.672a19.475,19.475,0,0,0,3.556,7.893q-.578-1.539-1.028-3.223" transform="translate(-438.393 -197.143)" fill="#6cd5ff"></path><path id="Trac&#xE9;_50" data-name="Trac&#xE9; 50" d="M481.109,203.149c.782,1.2,1.519,2.341,2.162,3.478,3.718,6.551-1.551,12.648-5.783,17.548-.444.516-.881,1.019-1.293,1.51-.433.514-.89,1.043-1.359,1.589-4.114,4.783-9.212,10.714-8.361,17.1a13.521,13.521,0,0,0,4.164,1.261,9.18,9.18,0,0,1,.6-3.694,79.03,79.03,0,0,1,9.285-12.045c2.067-2.353,4.2-4.784,6.224-7.436,4-5.252,1.466-10.692-.987-15.952-.753-1.617-1.465-3.144-2-4.674a7.313,7.313,0,0,1-.365-2.133,26.7,26.7,0,0,0-6.057-3.4c-.024-.01-.046-.016-.07-.024a39.3,39.3,0,0,0,3.836,6.881" transform="translate(-447.07 -195.644)" fill="#6cd5ff"></path><path id="Trac&#xE9;_51" data-name="Trac&#xE9; 51" d="M483.889,238.158a37.66,37.66,0,0,1,5-5.486,32.3,32.3,0,0,0,5.58-6.4,11.6,11.6,0,0,0,1.541-8.619c-.234-1.1-.539-2.184-.834-3.229a24.722,24.722,0,0,1-1.228-6.744c-2.653-2.04-5.308-4.079-8.036-6.018l-.155-.109a6.754,6.754,0,0,0,.333,1.818c.531,1.512,1.239,3.034,1.99,4.644,2.491,5.34,5.065,10.862.953,16.258-2.025,2.659-4.165,5.1-6.235,7.451a79.434,79.434,0,0,0-9.246,11.981,9.032,9.032,0,0,0-.569,3.6,32.084,32.084,0,0,0,3.328.255,29.535,29.535,0,0,0,4.584-.142,15.4,15.4,0,0,1,3-9.265" transform="translate(-449.115 -197.283)" fill="#6cd5ff"></path><path id="Trac&#xE9;_52" data-name="Trac&#xE9; 52" d="M503.625,216.587a15.6,15.6,0,0,0-4.08-4.551c-.53-.43-1.069-.847-1.6-1.259l0,0a25.185,25.185,0,0,0,1.21,6.431c.3,1.049.6,2.133.84,3.247a11.889,11.889,0,0,1-1.579,8.835,32.548,32.548,0,0,1-5.627,6.459,37.094,37.094,0,0,0-4.963,5.441,15.133,15.133,0,0,0-2.944,9.058,13.5,13.5,0,0,0,3.087-.785c3.546-1.4,6.145-4.5,8.136-7.751a112.415,112.415,0,0,0,7.083-12.567c1.767-3.965,2.5-8.733.446-12.555" transform="translate(-452.8 -200.141)" fill="#6cd5ff"></path><path id="Trac&#xE9;_53" data-name="Trac&#xE9; 53" d="M444.556,224.755c-.477-1.684-.973-3.424-1.3-5.214-.523-2.888.574-5.31,1.735-7.876.307-.681.629-1.383.911-2.094a26.847,26.847,0,0,0,1.408-11.028,9.171,9.171,0,0,0-2.116,1.5c.15,2.7-.9,5.2-1.929,7.63-.469,1.108-.951,2.254-1.305,3.39-1.321,4.233-.588,8.239.4,11.937a33.73,33.73,0,0,0,1.4,4.171c.01.01.015.019.023.028a23.6,23.6,0,0,0,1.939,2.125c-.328-1.573-.752-3.092-1.169-4.564" transform="translate(-439.278 -196.349)" fill="#6cd5ff"></path><path id="Trac&#xE9;_54" data-name="Trac&#xE9; 54" d="M469.252,225.587c1.7-2.268,3.453-4.613,4.97-7.108a17.436,17.436,0,0,0,2.285-10.787c-.6-4.512-3.609-8.657-6.532-12.238-.618.043-1.25.1-1.908.148,3.44,7.226,3.143,16.318-.834,24.994-.673,1.42-1.423,2.845-2.151,4.221-2.455,4.655-4.993,9.469-4.811,14.785,0,.071.007.151.012.233.189.313.387.622.595.921l.019-.066c1.416-5.83,4.785-10.334,8.355-15.1" transform="translate(-445.172 -195.392)" fill="#6cd5ff"></path><path id="Trac&#xE9;_55" data-name="Trac&#xE9; 55" d="M481.5,206.494c-.64-1.13-1.377-2.264-2.156-3.463a38.251,38.251,0,0,1-3.95-7.166,12.347,12.347,0,0,0-4.673-.462c2.909,3.576,5.862,7.7,6.465,12.229a17.732,17.732,0,0,1-2.327,10.973c-1.528,2.507-3.285,4.858-4.987,7.133-3.549,4.744-6.9,9.224-8.3,14.994l-.066.33a10.621,10.621,0,0,0,2.011,2.111,9.086,9.086,0,0,0,1.124.742c-.729-6.43,4.353-12.339,8.461-17.115.468-.544.923-1.074,1.355-1.586.413-.493.851-1,1.3-1.515,4.169-4.829,9.364-10.838,5.75-17.206" transform="translate(-445.558 -195.364)" fill="#6cd5ff"></path><path id="Trac&#xE9;_56" data-name="Trac&#xE9; 56" d="M461.138,196.125q-1.019.065-2.042.145c1.247,7.186-1.272,14.066-3.735,19.915-1.715,4.576-1.965,11.96-.725,17.535.212.279.418.565.611.86.061.095.116.192.178.287a30.379,30.379,0,0,1,1.192-7.647A45.284,45.284,0,0,1,459.9,219.2a55.39,55.39,0,0,0,2.828-6.524c1.679-5.022,1.154-10.444-1.59-16.547" transform="translate(-443.188 -195.6)" fill="#6cd5ff"></path><path id="Trac&#xE9;_57" data-name="Trac&#xE9; 57" d="M455.2,196.564q-.471.051-.942.111c.149,5.545-2.146,11.3-4.009,15.958-1.968,4.677-1.094,9.839-.246,14.833.194,1.149.392,2.326.552,3.484a27.169,27.169,0,0,1,2.187,2.33c-1.112-5.554-.822-12.659.855-17.129,2.451-5.825,4.963-12.631,3.722-19.748h0a.172.172,0,0,1-.008-.037c-.7.057-1.408.12-2.111.2" transform="translate(-441.699 -195.675)" fill="#6cd5ff"></path></g></g><g id="Groupe_16" data-name="Groupe 16" transform="translate(407.371 207.019)"><g id="Groupe_15" data-name="Groupe 15"><g id="Groupe_14" data-name="Groupe 14"><path id="Trac&#xE9;_58" data-name="Trac&#xE9; 58" d="M417.223,237.938V218.005h2.531v17.506h3.208v2.427Z" transform="translate(-417.223 -217.979)"></path><path id="Trac&#xE9;_59" data-name="Trac&#xE9; 59" d="M428.641,237.938V218.005h5.975v2.374h-3.444v6.105h3.079v2.348h-3.079v6.731h3.522v2.375Z" transform="translate(-420.763 -217.979)"></path><path id="Trac&#xE9;_60" data-name="Trac&#xE9; 60" d="M445.8,237.926l-.391-3.836h-2.478l-.391,3.836h-2.478v-.053l2.9-19.906h2.478l2.87,19.906v.053Zm-1.435-13.2-.208-2.218-.209,2.218-.757,7.019h1.957Z" transform="translate(-424.302 -217.967)"></path><path id="Trac&#xE9;_61" data-name="Trac&#xE9; 61" d="M460.326,237.938l-2.191-8.923v-2.14h1.826V220.3h-2.4v17.637H455.03V218.005h5.792a1.486,1.486,0,0,1,1.7,1.7v7.357c0,1.044-.444,1.513-1.33,1.592h-.6l2.323,9.183v.1Z" transform="translate(-428.943 -217.979)"></path><path id="Trac&#xE9;_62" data-name="Trac&#xE9; 62" d="M475.041,237.938l-3.314-11.767a18.091,18.091,0,0,1,.262,1.957v9.81h-2.479V218.005h2.349l3.287,11.609s-.235-1.434-.235-1.956v-9.653h2.478v19.933Z" transform="translate(-433.432 -217.979)"></path><path id="Trac&#xE9;_63" data-name="Trac&#xE9; 63" d="M484.632,237.938V218.005h2.531v19.933Z" transform="translate(-438.12 -217.979)"></path><path id="Trac&#xE9;_64" data-name="Trac&#xE9; 64" d="M497.536,237.938l-3.314-11.767a18.091,18.091,0,0,1,.262,1.957v9.81H492V218.005h2.349l3.287,11.609s-.235-1.434-.235-1.956v-9.653h2.478v19.933Z" transform="translate(-440.405 -217.979)"></path><path id="Trac&#xE9;_65" data-name="Trac&#xE9; 65" d="M512.908,237.938h-4.174c-1.122,0-1.644-.548-1.644-1.7V219.7c0-1.148.522-1.7,1.67-1.7h4.149a1.485,1.485,0,0,1,1.7,1.7v4.3h-2.556v-3.7H509.62v15.341h2.427v-5.948h-1.383v-2.348H514.6v8.9A1.485,1.485,0,0,1,512.908,237.938Z" transform="translate(-445.082 -217.979)"></path><path id="Trac&#xE9;_66" data-name="Trac&#xE9; 66" d="M422.937,266.528h-3.183v7.41h-2.531V254.005h5.714a1.485,1.485,0,0,1,1.7,1.7v9.131A1.485,1.485,0,0,1,422.937,266.528Zm-.861-10.227h-2.322v7.931h2.322Z" transform="translate(-417.223 -229.139)"></path><path id="Trac&#xE9;_67" data-name="Trac&#xE9; 67" d="M431.4,273.938V254.005h2.531v17.506h3.208v2.427Z" transform="translate(-421.618 -229.139)"></path><path id="Trac&#xE9;_68" data-name="Trac&#xE9; 68" d="M448.063,273.926l-.391-3.836h-2.478l-.392,3.836h-2.478v-.053l2.9-19.906H447.7l2.87,19.906v.053Zm-1.435-13.2-.209-2.218-.209,2.218-.756,7.019h1.957Z" transform="translate(-425.004 -229.127)"></path><path id="Trac&#xE9;_69" data-name="Trac&#xE9; 69" d="M462.826,273.938l-3.314-11.767a18.092,18.092,0,0,1,.262,1.957v9.81h-2.479V254.005h2.349l3.287,11.609s-.235-1.434-.235-1.956v-9.653h2.478v19.933Z" transform="translate(-429.645 -229.139)"></path><path id="Trac&#xE9;_70" data-name="Trac&#xE9; 70" d="M472.379,273.938V254.005h5.975v2.374H474.91v6.105h3.079v2.348H474.91v6.731h3.522v2.375Z" transform="translate(-434.322 -229.139)"></path><path id="Trac&#xE9;_71" data-name="Trac&#xE9; 71" d="M488.435,256.379v17.559H485.9V256.379h-2.3v-2.374h7.123v2.374Z" transform="translate(-437.803 -229.139)"></path><path id="Trac&#xE9;_72" data-name="Trac&#xE9; 72" d="M417.261,309.938V290.005h2.531v19.933Z" transform="translate(-417.235 -240.299)"></path><path id="Trac&#xE9;_73" data-name="Trac&#xE9; 73" d="M430.165,309.938l-3.314-11.767a18.091,18.091,0,0,1,.262,1.957v9.81h-2.479V290.005h2.349l3.287,11.609s-.235-1.434-.235-1.956v-9.653h2.478v19.933Z" transform="translate(-419.52 -240.299)"></path><path id="Trac&#xE9;_74" data-name="Trac&#xE9; 74" d="M445.394,309.938h-4.043c-1.148,0-1.67-.548-1.67-1.7v-4.905h2.53v4.331h2.322v-4.122l-4.357-5.922a1.976,1.976,0,0,1-.5-1.539V291.7c0-1.148.522-1.7,1.67-1.7h4.043a1.485,1.485,0,0,1,1.7,1.7v4.617h-2.557v-4.043h-2.322v3.861l4.357,5.922a2.024,2.024,0,0,1,.522,1.539v4.644A1.485,1.485,0,0,1,445.394,309.938Z" transform="translate(-424.185 -240.299)"></path><path id="Trac&#xE9;_75" data-name="Trac&#xE9; 75" d="M457.966,292.379v17.559h-2.53V292.379h-2.3v-2.374h7.123v2.374Z" transform="translate(-428.357 -240.299)"></path><path id="Trac&#xE9;_76" data-name="Trac&#xE9; 76" d="M466.3,309.938V290.005h2.531v19.933Z" transform="translate(-432.436 -240.299)"></path><path id="Trac&#xE9;_77" data-name="Trac&#xE9; 77" d="M477.663,292.379v17.559h-2.53V292.379h-2.3v-2.374h7.124v2.374Z" transform="translate(-434.463 -240.299)"></path><path id="Trac&#xE9;_78" data-name="Trac&#xE9; 78" d="M491.9,309.938h-4.279c-1.147,0-1.669-.548-1.669-1.7V290.005h2.53v17.636h2.557V290.005H493.6v18.237A1.485,1.485,0,0,1,491.9,309.938Z" transform="translate(-438.53 -240.299)"></path><path id="Trac&#xE9;_79" data-name="Trac&#xE9; 79" d="M504.695,292.379v17.559h-2.53V292.379h-2.3v-2.374h7.123v2.374Z" transform="translate(-442.843 -240.299)"></path><path id="Trac&#xE9;_80" data-name="Trac&#xE9; 80" d="M512.987,309.938V290.005h5.975v2.374h-3.444v6.105H518.6v2.348h-3.079v6.731h3.522v2.375Z" transform="translate(-446.91 -240.299)"></path></g></g></g></g></svg>