<?xml version="1.0" encoding="utf-8"?>
<!-- Generator: Adobe Illustrator 22.1.0, SVG Export Plug-In . SVG Version: 6.00 Build 0)  -->
<svg version="1.1" id="Layer_1" xmlns="http://www.w3.org/2000/svg" xmlns:xlink="http://www.w3.org/1999/xlink" x="0px" y="0px"
	 viewBox="0 0 192.6 53" style="enable-background:new 0 0 192.6 53;" xml:space="preserve">
<style type="text/css">
	.st0{fill:#006CA9;}
	.st1{fill:#989D3B;}
	.st2{fill:#FBAE3B;}
	.st3{fill:#EE5A25;}
</style>
<polygon class="st0" points="62.1,22.1 62.1,31.8 59.4,31.8 59.4,22.1 54.1,22.1 54.1,20 67.5,20 67.5,22.1 "/>
<path class="st0" d="M78.2,16.9h1.9v1.9h-1.9V16.9z M74.8,27.1h5.1l-2.5-4.8L74.8,27.1z M74.6,16.9h1.9v1.9h-1.9V16.9z M69.7,31.8
	L76.2,20h2.6l6.6,11.8h-3L81,29.2h-7.3l-1.3,2.6H69.7z"/>
<polygon class="st0" points="90.3,31.8 90.3,20 92.9,20 92.9,29.6 101.6,29.6 101.6,31.8 "/>
<polygon class="st0" points="106.7,31.8 106.7,20 109.4,20 109.4,29.6 118,29.6 118,31.8 "/>
<path class="st0" d="M131.9,26.7h-6.1v3h6.1c0.5,0,0.8-0.1,1-0.2c0.2-0.1,0.3-0.4,0.3-0.8v-0.9c0-0.4-0.1-0.7-0.3-0.8
	C132.7,26.8,132.4,26.7,131.9,26.7 M131.9,21.9h-6.1v2.8h6.1c0.4,0,0.7-0.1,0.9-0.2c0.2-0.1,0.3-0.3,0.3-0.7v-1.1
	c0-0.3-0.1-0.6-0.3-0.7C132.6,22,132.3,21.9,131.9,21.9 M123.1,31.8V20h9.9c0.6,0,1.1,0.1,1.5,0.2c0.4,0.2,0.7,0.4,0.8,0.7
	c0.2,0.3,0.3,0.8,0.3,1.3v1.4c0,0.6-0.2,1-0.5,1.4c-0.3,0.3-0.8,0.5-1.5,0.6c0.7,0.1,1.2,0.3,1.5,0.7c0.4,0.4,0.5,0.9,0.5,1.5v1.5
	c0,1.5-1.1,2.3-3.4,2.3H123.1z"/>
<polygon class="st0" points="142,31.8 142,20 153.8,20 153.8,22 144.7,22 144.7,24.7 150,24.7 150,26.7 144.7,26.7 144.7,29.6 
	153.9,29.6 153.9,31.8 "/>
<path class="st0" d="M168.7,22.1h-6v3.3h6c0.4,0,0.7-0.1,0.9-0.2c0.2-0.1,0.3-0.4,0.3-0.7V23c0-0.4-0.1-0.6-0.3-0.7
	C169.5,22.1,169.2,22.1,168.7,22.1 M160,31.8V20h9.9c0.6,0,1.1,0.1,1.5,0.2c0.4,0.2,0.7,0.4,0.8,0.7c0.2,0.3,0.3,0.8,0.3,1.3v2.8
	c0,0.8-0.2,1.4-0.6,1.8c-0.4,0.4-1.1,0.5-2,0.5h-1.5l5.3,4.5h-3.9l-4.7-4.5h-2.5v4.5H160z"/>
<path class="st0" d="M189.9,22.1h-8.4v7.5h8.4V27h-4.4v-2h7V29c0,0.8-0.1,1.3-0.3,1.7c-0.2,0.4-0.5,0.7-0.9,0.8
	c-0.4,0.2-1,0.2-1.7,0.2h-8c-0.7,0-1.3-0.1-1.7-0.2c-0.4-0.2-0.7-0.4-0.9-0.8c-0.2-0.4-0.3-1-0.3-1.7v-6.2c0-0.8,0.1-1.3,0.3-1.7
	c0.2-0.4,0.5-0.7,0.9-0.8c0.4-0.2,1-0.2,1.7-0.2h8c0.7,0,1.3,0.1,1.7,0.2c0.4,0.2,0.7,0.4,0.9,0.8c0.2,0.4,0.3,0.9,0.3,1.6V23
	l-2.6,0.5V22.1z"/>
<polygon class="st0" points="59.6,47.1 59.6,39.2 66.9,39.2 66.9,40.3 60.9,40.3 60.9,42.9 64.3,42.9 64.3,43.9 60.9,43.9 
	60.9,47.1 "/>
<path class="st0" d="M70.1,46h6.4v-5.7h-6.4V46z M68.8,41.1c0-0.7,0.1-1.2,0.4-1.5c0.3-0.3,0.7-0.4,1.4-0.4H76
	c0.7,0,1.2,0.1,1.4,0.4c0.3,0.3,0.4,0.8,0.4,1.5v4.2c0,0.7-0.1,1.2-0.4,1.5c-0.2,0.3-0.7,0.4-1.4,0.4h-5.3c-0.7,0-1.2-0.1-1.4-0.4
	c-0.3-0.3-0.4-0.8-0.4-1.5V41.1z"/>
<path class="st0" d="M82.8,39.2V46h5.6v-6.8h1.3v6c0,0.7-0.1,1.2-0.4,1.5s-0.7,0.4-1.4,0.4h-4.6c-0.7,0-1.2-0.1-1.4-0.4
	c-0.3-0.3-0.4-0.8-0.4-1.5v-6H82.8z"/>
<path class="st0" d="M93.5,47.1v-7.9h0.8l5.8,5.3c0.1,0.1,0.3,0.3,0.4,0.4c0.1,0.2,0.3,0.4,0.5,0.6c0-0.3-0.1-0.5-0.1-0.8
	c0-0.3,0-0.7,0-1.1v-4.3h1.2v7.9h-0.7l-5.9-5.5c0,0-0.1-0.1-0.1-0.1c-0.3-0.3-0.5-0.5-0.6-0.8c0,0.2,0.1,0.5,0.1,0.8
	c0,0.3,0,0.6,0,1v4.6H93.5z"/>
<path class="st0" d="M109.9,40.3h-2.8V46h2.8c1.2,0,2.1-0.2,2.6-0.7c0.5-0.4,0.8-1.2,0.8-2.2c0-1-0.3-1.7-0.8-2.2
	C112,40.5,111.2,40.3,109.9,40.3 M110.1,39.2c0.7,0,1.3,0,1.8,0.1c0.5,0.1,0.9,0.3,1.2,0.5c0.5,0.3,0.9,0.8,1.2,1.4
	c0.3,0.6,0.4,1.2,0.4,1.9c0,0.7-0.1,1.4-0.4,2c-0.3,0.6-0.7,1.1-1.2,1.4c-0.3,0.2-0.7,0.4-1.2,0.5c-0.5,0.1-1.1,0.1-1.8,0.1h-4.2
	v-7.9H110.1z"/>
<path class="st0" d="M118.8,44.2h4.1l-2.1-4L118.8,44.2z M116,47.1l4.2-7.9h1.4l4.3,7.9h-1.4l-1-1.9h-5.2l-1,1.9H116z"/>
<polygon class="st0" points="130.1,40.3 130.1,47.1 128.8,47.1 128.8,40.3 125.3,40.3 125.3,39.2 133.6,39.2 133.6,40.3 "/>
<rect x="135.6" y="39.2" class="st0" width="1.3" height="7.9"/>
<path class="st0" d="M141.9,46h6.4v-5.7h-6.4V46z M140.7,41.1c0-0.7,0.1-1.2,0.4-1.5c0.3-0.3,0.7-0.4,1.4-0.4h5.3
	c0.7,0,1.2,0.1,1.4,0.4c0.3,0.3,0.4,0.8,0.4,1.5v4.2c0,0.7-0.1,1.2-0.4,1.5c-0.3,0.3-0.7,0.4-1.4,0.4h-5.3c-0.7,0-1.2-0.1-1.4-0.4
	c-0.3-0.3-0.4-0.8-0.4-1.5V41.1z"/>
<path class="st0" d="M153.3,47.1v-7.9h0.8l5.8,5.3c0.1,0.1,0.3,0.3,0.4,0.4c0.1,0.2,0.3,0.4,0.5,0.6c0-0.3-0.1-0.5-0.1-0.8
	c0-0.3,0-0.7,0-1.1v-4.3h1.2v7.9h-0.7l-5.9-5.5c0,0-0.1-0.1-0.1-0.1c-0.3-0.3-0.5-0.5-0.6-0.8c0,0.2,0.1,0.5,0.1,0.8
	c0,0.3,0,0.6,0,1v4.6H153.3z"/>
<path class="st1" d="M15.1,51c-1.8,0-3.4-0.2-4.9-0.7c-1.8-0.6-3-1.9-3.2-3.5c-0.3-2,1-4.1,3.4-5.8c4.8-3.4,3-6.1,1-9.1
	c-1.1-1.6-2.2-3.2-2.2-5.1c-0.1-0.4-1-7.8,10-10.7c9.9-2.6,14.3,0,15.5,0.9c0.7,0.6,1.2,1.2,1.2,1.7c0,1.1-0.5,1.8-3.3,3.6
	c-1,0.6-2.2,2-2.1,3.5c0.1,1.6,1.6,3.2,4.3,4.5c4,1.9,6.8,3.7,7.2,5.9c0.3,1.4-0.4,3-2.1,4.8C36.5,44.7,24.3,51,15.1,51z M26.9,15.5
	c-2.2,0-4.7,0.3-7.6,1.1c-4.5,1.2-7.7,3.3-9,6.2c-1,2.1-0.7,3.9-0.7,4l0,0c0.1,1.7,1.1,3.3,2.2,4.8c2,3,4,6.1-1.1,9.8
	c-2.3,1.6-3.5,3.6-3.2,5.4c0.2,1.4,1.3,2.5,2.9,3.1c1.4,0.5,3,0.7,4.7,0.7c9.1,0,21.1-6.2,24.4-9.7c1.6-1.7,2.2-3.2,2-4.4
	c-0.4-2.1-3.1-3.7-7-5.6c-2.9-1.4-4.4-3.1-4.6-4.9c-0.1-1.8,1.2-3.2,2.3-3.9c3-1.9,3.1-2.4,3.1-3.2c0-0.3-0.3-0.7-1-1.3
	C33,16.3,30.5,15.5,26.9,15.5z"/>
<path class="st0" d="M14.4,50.8c-3,0-5.7-1-7.8-2.8c-2.5-2.1-4-5.2-3.8-8.1c0.1-3,1.1-4.6,2.2-6.3c1.1-1.7,2.2-3.4,2.4-6.7
	C7.8,20.4,11.4,14.1,17.5,9c5.4-4.6,12.1-7.4,17.4-7.4c3.3,0,7.2,1.8,7.2,6.8c0,2.3-0.5,4.2-1,6.1c-0.4,1.6-0.8,3.1-0.8,4.6
	c0,5.3,3.2,8.2,5.7,10.5c2.2,2,4.1,3.7,3.2,6.2c-0.6,1.8-3.3,2-6.7,2.3c-1.9,0.2-4.1,0.3-6.2,0.9c-4.4,1.1-6.3,3.2-8.4,5.5
	c-2.3,2.5-4.7,5.1-10.6,6.3C16.3,50.7,15.3,50.8,14.4,50.8z M34.9,1.9c-5.2,0-11.8,2.8-17.1,7.3c-6,5.1-9.6,11.3-10,17.5
	c-0.2,3.4-1.4,5.2-2.5,6.9c-1,1.7-2,3.2-2.1,6.2c-0.1,2.8,1.3,5.8,3.7,7.8c2.8,2.4,6.4,3.2,10.4,2.5C23,49,25.3,46.4,27.5,44
	c2-2.2,4.1-4.5,8.6-5.6c2.1-0.5,4.3-0.7,6.3-0.9c3.3-0.3,5.9-0.5,6.4-2.1c0.8-2.3-0.9-3.8-3.1-5.8c-2.6-2.4-5.9-5.3-5.9-10.7
	c0-1.5,0.4-3,0.8-4.7c0.5-1.9,1-3.8,1-6C41.7,3.6,38,1.9,34.9,1.9z"/>
<path class="st2" d="M13.3,50.3c-0.2,0-0.5,0-0.7,0C10,50,8,49.1,6.9,47.7c-0.8-1-1.1-2.3-0.9-3.7l0,0c0.2-1.3,0.8-2.1,1.5-3
	c0.9-1.2,1.8-2.4,1.6-4.7c-0.1-1.5-1.4-2.2-2.7-2.8c-1.2-0.5-2.4-1.1-2.5-2.3c-0.2-1.7,0.9-3.3,2.9-4.5c1.9-1.1,4.5-1.8,7.5-2.1
	c5.4-0.5,10.1,1,13.5,4.3c2.9,2.9,4.8,7,5.2,11.5c0.2,1.7,0,2.9-0.6,3.8c-0.5,0.6-1.1,1-2,1.1c-1.3,0.1-2.7-0.6-4.2-1.3
	c-1.6-0.8-3.3-1.6-5.1-1.6c-3.5,0.1-3.9,2.1-4.2,4.2C16.5,48.4,16.1,50.3,13.3,50.3z M16.2,24.9c-0.6,0-1.2,0-1.8,0.1
	C11.5,25.2,8.9,26,7,27c-1.3,0.8-2.9,2.1-2.7,4c0.1,1,1.1,1.4,2.2,2c1.3,0.6,2.9,1.4,3,3.2c0.1,2.5-0.8,3.8-1.7,5
	c-0.6,0.8-1.2,1.6-1.4,2.8l0,0c-0.2,1.3,0.1,2.4,0.8,3.4c1,1.3,2.9,2.2,5.3,2.4c3.1,0.3,3.4-1.3,3.8-3.3c0.4-2.1,0.8-4.5,4.7-4.6
	c1.9-0.1,3.7,0.8,5.3,1.6c1.4,0.7,2.8,1.4,3.9,1.3c0.8-0.1,1.3-0.4,1.7-0.9c0.5-0.7,0.7-1.9,0.5-3.4C31.5,29.5,23.8,24.9,16.2,24.9z
	"/>
<path class="st3" d="M13.4,50.7c-0.3,0-0.6,0-0.9,0c-3.7-0.3-6.8-2.1-9-5.1c-2.5-3.4-4.9-9.8-2.3-21.7C2.7,16.7,7,11,10.8,11.3
	c5.4,0.4,5.4,7.1,5.5,12.9c0,5.1,0,9.9,3.2,10.4c1.3,0.2,2.2-0.8,3.3-1.8c1-1,2-2.1,3.4-1.9c0.7,0.1,1.2,0.4,1.6,0.9
	c0.7,0.9,0.8,2.6,0.3,5.2l0,0C26.3,47.2,18.5,50.7,13.4,50.7z M10.6,12C7.2,12,3.2,17.4,1.8,24c-2.5,11.6-0.2,18,2.2,21.2
	c2.1,2.8,5,4.5,8.5,4.8c4.8,0.4,13.1-2.7,14.9-13.1l0,0c0.4-2.4,0.3-3.9-0.2-4.7c-0.3-0.4-0.6-0.6-1.1-0.6c-1-0.1-1.9,0.7-2.8,1.7
	c-1.1,1.1-2.3,2.3-3.9,2c-3.7-0.6-3.7-5.7-3.7-11.1c0-5.9,0-11.9-4.8-12.3C10.7,12,10.6,12,10.6,12z"/>
</svg>
