<svg id="Calque_1" data-name="Calque 1" xmlns="http://www.w3.org/2000/svg" viewBox="0 0 48.54 11.7"><defs><style>.cls-1{fill:#fff;}</style></defs><title>OuiShare_logo-white</title><path class="cls-1" d="M4.46,4.26a2.42,2.42,0,0,0-1,.2V6a1.72,1.72,0,0,1,1-.29,1.48,1.48,0,0,1,1.12.46A1.68,1.68,0,0,1,6,7.4V10A2.88,2.88,0,0,0,7.65,7.36a3,3,0,0,0-.93-2.21A3.14,3.14,0,0,0,4.46,4.26Z"/><path class="cls-1" d="M3.36,8.52a1.68,1.68,0,0,1-.44-1.21V4.71A2.9,2.9,0,0,0,1.28,7.35a3,3,0,0,0,.93,2.22,3.13,3.13,0,0,0,2.26.9,2.38,2.38,0,0,0,1-.22V8.71a1.79,1.79,0,0,1-1,.28A1.49,1.49,0,0,1,3.36,8.52Z"/><path class="cls-1" d="M10.79,8.66a1.09,1.09,0,0,1-.32-.82V4.39H8.85V7.71a2.67,2.67,0,0,0,.77,2,2.71,2.71,0,0,0,2,.76,1.52,1.52,0,0,0,.6-.11V8.86a1.44,1.44,0,0,1-.58.11A1.15,1.15,0,0,1,10.79,8.66Z"/><path class="cls-1" d="M12.7,10.19a2.36,2.36,0,0,0,1.18-.92,2.72,2.72,0,0,0,.44-1.57V4.39H12.7Z"/><path class="cls-1" d="M16.34,1.2a1,1,0,0,0-1.05,1,.94.94,0,0,0,.31.71,1.08,1.08,0,0,0,1.47,0,.94.94,0,0,0,.3-.71,1,1,0,0,0-1-1Z"/><rect class="cls-1" x="15.52" y="4.37" width="1.62" height="5.94"/><path class="cls-1" d="M21.47,6.74,20.9,6.5a1.39,1.39,0,0,1-.5-.29.68.68,0,0,1-.14-.47V4.33a2,2,0,0,0-1.12.57,1.56,1.56,0,0,0-.4,1.1,1.46,1.46,0,0,0,.4,1.06,3.54,3.54,0,0,0,1.22.76l.64.26a1.37,1.37,0,0,1,.47.28.63.63,0,0,1,.14.45v1.51a2.21,2.21,0,0,0,1.13-.62,1.6,1.6,0,0,0,.41-1.13,1.5,1.5,0,0,0-.4-1.08A3.5,3.5,0,0,0,21.47,6.74Z"/><path class="cls-1" d="M19.18,8.32l-.82,1a2.8,2.8,0,0,0,1,.85,3.2,3.2,0,0,0,1.4.31,1.19,1.19,0,0,0,.29,0V9.09H20.8A2.31,2.31,0,0,1,19.18,8.32Z"/><path class="cls-1" d="M22.24,6.12l.82-1a2.56,2.56,0,0,0-2-.89,1.07,1.07,0,0,0-.26,0V5.57H21A1.83,1.83,0,0,1,22.24,6.12Z"/><path class="cls-1" d="M27.62,4.24a2.46,2.46,0,0,0-1.12.24V5.8a1.76,1.76,0,0,1,.6-.1,1.09,1.09,0,0,1,.82.31,1.14,1.14,0,0,1,.3.83v3.47h1.61V6.62a2.48,2.48,0,0,0-.59-1.73A2.07,2.07,0,0,0,27.62,4.24Z"/><rect class="cls-1" x="24.37" y="1.31" width="1.62" height="9"/><path class="cls-1" d="M33.82,4.24a3.25,3.25,0,0,0-2.59,1.22l.84,1a2.22,2.22,0,0,1,1.57-.82,1.13,1.13,0,0,1,.82.28,1,1,0,0,1,.28.77v3.62h1.62V6.78a2.48,2.48,0,0,0-.69-1.89A2.58,2.58,0,0,0,33.82,4.24Z"/><path class="cls-1" d="M31.62,7.41A1.5,1.5,0,0,0,31,8.68,1.65,1.65,0,0,0,31.55,10a2.07,2.07,0,0,0,1.45.5,2.53,2.53,0,0,0,1.21-.29V9.09a1.64,1.64,0,0,1-.7.17,1.11,1.11,0,0,1-.65-.17.55.55,0,0,1-.24-.48q0-.6.83-.6h.76V7h-1A2.66,2.66,0,0,0,31.62,7.41Z"/><path class="cls-1" d="M41.14,4.5a.89.89,0,0,0-.64-.26.86.86,0,0,0-.63.26.93.93,0,0,0,0,1.28A.86.86,0,0,0,40.5,6a.9.9,0,0,0,.67-1.5l0,0Z"/><rect class="cls-1" x="37.55" y="4.37" width="1.62" height="5.94"/><path class="cls-1" d="M44.52,4.24a3.06,3.06,0,0,0-3.11,3s0,.07,0,.1a3,3,0,0,0,.92,2.21,3.21,3.21,0,0,0,2.33.89A3.59,3.59,0,0,0,47,9.56l-.67-1.1a2.67,2.67,0,0,1-1.65.6,1.75,1.75,0,0,1-1.27-.46A1.71,1.71,0,0,1,43,7.32,1.9,1.9,0,0,1,43.39,6a1.35,1.35,0,0,1,1.07-.49,1.32,1.32,0,0,1,.9.32,1.14,1.14,0,0,1,.38.88H43.53V7.88h3.68A3.85,3.85,0,0,0,47.32,7,2.69,2.69,0,0,0,44.7,4.24h-.18Z"/></svg>