<svg id="Component_129_1" data-name="Component 129 – 1" xmlns="http://www.w3.org/2000/svg" xmlns:xlink="http://www.w3.org/1999/xlink" width="94.664" height="96.832" viewBox="0 0 94.664 96.832">
  <defs>
    <clipPath id="clip-path">
      <rect id="Rectangle_567" data-name="Rectangle 567" width="94.664" height="96.832" fill="#3036c3"/>
    </clipPath>
  </defs>
  <g id="Group_57" data-name="Group 57" clip-path="url(#clip-path)">
    <path id="Path_2243" data-name="Path 2243" d="M10.551,363a5.177,5.177,0,1,1-.013-4.652l-2.326,1.048a2.709,2.709,0,1,0,0,2.582Z" transform="translate(-0.402 -269.027)" fill="#3036c3"/>
    <path id="Path_2244" data-name="Path 2244" d="M60.837,355.507a5.177,5.177,0,1,1-5.291,5.176,5.245,5.245,0,0,1,5.291-5.176m0,7.885a2.709,2.709,0,1,0-2.709-2.709,2.679,2.679,0,0,0,2.709,2.709" transform="translate(-42.034 -269.027)" fill="#3036c3"/>
    <path id="Path_2245" data-name="Path 2245" d="M115.5,366.263V356.3h2.173l4.448,5.572V356.3h2.543v9.968H122.5l-4.448-5.559v5.559Z" transform="translate(-87.404 -269.623)" fill="#3036c3"/>
    <path id="Path_2246" data-name="Path 2246" d="M172.429,362.677v.064c0,.383.524.907,1.687.907.959,0,1.265-.319,1.265-.613,0-.422-.5-.677-1.7-1.086-1.585-.524-3.668-1.291-3.668-3.348,0-1.9,1.623-3.093,3.9-3.093,2.326,0,4.077,1.24,4.077,3.22v.141H175.5v-.09c0-.486-.5-1.061-1.534-1.061-.869,0-1.214.345-1.214.677,0,.4.46.6,1.649,1.009,1.38.486,3.732,1.3,3.732,3.489,0,1.943-1.687,2.965-3.962,2.965-2.39,0-4.23-1.112-4.23-3.067v-.115Z" transform="translate(-128.598 -269.027)" fill="#3036c3"/>
    <rect id="Rectangle_565" data-name="Rectangle 565" width="2.556" height="9.968" transform="translate(53.609 86.672)" fill="#3036c3"/>
    <path id="Path_2247" data-name="Path 2247" d="M249.279,356.3h4.627c3.118,0,4.716,2.275,4.716,4.984s-1.6,4.984-4.716,4.984h-4.627Zm2.556,2.479V363.8h1.878a2.519,2.519,0,0,0,0-5.023Z" transform="translate(-188.64 -269.623)" fill="#3036c3"/>
    <path id="Path_2248" data-name="Path 2248" d="M304.347,356.295H312v2.479h-5.1v1.431h4.192v2.313H306.9V363.8H312v2.466h-7.655Z" transform="translate(-230.312 -269.623)" fill="#3036c3"/>
    <path id="Path_2249" data-name="Path 2249" d="M357.872,356.3a3.423,3.423,0,0,1,3.732,3.642,3.476,3.476,0,0,1-1.968,3.31l2.16,3.016h-3.054l-1.891-2.671h-1.3v2.671H353V356.3Zm-2.326,2.326v2.658h2.185a1.246,1.246,0,0,0,1.406-1.316,1.231,1.231,0,0,0-1.406-1.342Z" transform="translate(-267.132 -269.623)" fill="#3036c3"/>
    <path id="Path_2250" data-name="Path 2250" d="M219.967,154.276c-13.381,0-19.537-8.7-19.537-19.069,0-7.292,3.279-14.118,10.3-17.329l-11.308-15.79h15.991l9.9,13.984h6.825V102.089h13.315v52.187ZM232.144,142.1V128.182H220.7c-5.352,0-7.359,3.279-7.359,6.892,0,4.015,2.007,7.026,7.359,7.026Z" transform="translate(-150.914 -77.255)" fill="#3036c3"/>
    <path id="Path_2251" data-name="Path 2251" d="M40.078,154.276H0V141.3H26.7V133.8H4.751V121.693H26.7V115H0V102.089H40.078Z" transform="translate(0 -77.255)" fill="#3036c3"/>
    <rect id="Rectangle_566" data-name="Rectangle 566" width="94.544" height="15.375" transform="translate(0.077)" fill="#3036c3"/>
  </g>
</svg>
