<svg id="Group_8471" data-name="Group 8471" xmlns="http://www.w3.org/2000/svg" xmlns:xlink="http://www.w3.org/1999/xlink" width="173.025" height="31.081" viewBox="0 0 173.025 31.081">
  <defs>
    <clipPath id="clip-path">
      <rect id="Rectangle_8103" data-name="Rectangle 8103" width="173.025" height="31.081" fill="#fff"/>
    </clipPath>
    <clipPath id="clip-path-3">
      <rect id="Rectangle_8101" data-name="Rectangle 8101" width="2.121" height="2.121" fill="#fff"/>
    </clipPath>
  </defs>
  <g id="Group_8476" data-name="Group 8476" clip-path="url(#clip-path)">
    <g id="Group_8475" data-name="Group 8475">
      <g id="Group_8474" data-name="Group 8474" clip-path="url(#clip-path)">
        <path id="Path_3555" data-name="Path 3555" d="M310.034,95.5c-3.829,0-6.588,2.925-6.514,7.132.068,3.822,2.662,6.779,7.191,6.617a5.983,5.983,0,0,0,5.512-3.4.278.278,0,0,0-.147-.384l-1.927-.753a.276.276,0,0,0-.353.142,3.572,3.572,0,0,1-3.65,2.157,3.636,3.636,0,0,1-3.863-3.666h9.734a.278.278,0,0,0,.277-.277v-.738c0-4.2-2.339-6.825-6.26-6.825m-3.807,5.753a3.691,3.691,0,0,1,3.752-3.5c2.087,0,3.356,1.213,3.469,3.5Z" transform="translate(-265.41 -83.509)" fill="#fff"/>
        <path id="Path_3556" data-name="Path 3556" d="M1123.314,96.79c-3.829,0-6.588,2.925-6.514,7.132.068,3.822,2.662,6.779,7.191,6.617a5.984,5.984,0,0,0,5.512-3.4.278.278,0,0,0-.147-.384l-1.927-.753a.276.276,0,0,0-.353.142,3.572,3.572,0,0,1-3.65,2.157,3.636,3.636,0,0,1-3.863-3.666h9.734a.278.278,0,0,0,.278-.277v-.738c0-4.2-2.339-6.825-6.26-6.825m-3.807,5.754a3.691,3.691,0,0,1,3.751-3.5c2.087,0,3.356,1.213,3.469,3.5Z" transform="translate(-976.577 -84.637)" fill="#fff"/>
        <path id="Path_3557" data-name="Path 3557" d="M424.062,95.43c-3.907,0-6.662,2.839-6.662,6.888s2.7,6.832,6.607,6.832a6.5,6.5,0,0,0,6.691-6.832c0-4.049-2.728-6.888-6.636-6.888m3.851,6.971c0,2.7-1.518,4.413-3.907,4.413-2.362,0-3.823-1.686-3.823-4.413v-.113c0-2.784,1.518-4.526,3.88-4.526s3.852,1.743,3.852,4.526v.113Z" transform="translate(-364.993 -83.448)" fill="#fff"/>
        <path id="Path_3558" data-name="Path 3558" d="M537.7,101.075c-2.383-.471-3.269-.665-3.269-1.745,0-1,.914-1.662,2.328-1.662a3.841,3.841,0,0,1,3.168,1.561.275.275,0,0,0,.344.078L542.1,98.4a.274.274,0,0,0,.087-.422,6.85,6.85,0,0,0-5.437-2.526c-2.771,0-4.932,1.745-4.932,4.045,0,2.521,2.133,3.352,4.516,3.851,2.05.443,3.575.693,3.575,1.829,0,1.081-.886,1.745-2.355,1.745a4.287,4.287,0,0,1-3.408-1.557.277.277,0,0,0-.347-.079l-1.863.987a.274.274,0,0,0-.084.414,7.048,7.048,0,0,0,5.591,2.48c2.964,0,5.1-1.773,5.1-4.184,0-2.576-2.467-3.435-4.85-3.907" transform="translate(-465.025 -83.466)" fill="#fff"/>
        <path id="Path_3559" data-name="Path 3559" d="M1298.345,102.375c-2.383-.471-3.27-.665-3.27-1.745,0-1,.914-1.662,2.328-1.662a3.841,3.841,0,0,1,3.168,1.561.275.275,0,0,0,.344.078l1.838-.908a.274.274,0,0,0,.087-.422,6.85,6.85,0,0,0-5.437-2.526c-2.771,0-4.932,1.745-4.932,4.045,0,2.521,2.133,3.352,4.516,3.851,2.05.443,3.575.693,3.575,1.829,0,1.081-.886,1.745-2.355,1.745a4.285,4.285,0,0,1-3.407-1.557.277.277,0,0,0-.347-.079l-1.863.987a.274.274,0,0,0-.084.414,7.048,7.048,0,0,0,5.591,2.48c2.964,0,5.1-1.773,5.1-4.184,0-2.578-2.467-3.436-4.85-3.907" transform="translate(-1130.17 -84.602)" fill="#fff"/>
        <path id="Path_3560" data-name="Path 3560" d="M660.31,55.64h-4.536a.294.294,0,0,0-.294.294V73.827a.294.294,0,0,0,.294.294h2.2a.294.294,0,0,0,.294-.294V67.3h1.963c5.065,0,7.6-1.892,7.6-5.872,0-3.9-2.451-5.789-7.516-5.789m-.084,9.295h-1.962V58.005h2.047c3.34,0,4.676.974,4.676,3.423,0,2.532-1.42,3.507-4.76,3.507" transform="translate(-573.18 -48.654)" fill="#fff"/>
        <path id="Path_3561" data-name="Path 3561" d="M945.549,87.629l-.6-1.571a.392.392,0,0,0-.231-.229.387.387,0,0,0-.323.025,4,4,0,0,1-1.936.477c-1.628,0-2.324-.885-2.324-2.961V78.158h3.784a.272.272,0,0,0,.272-.272V75.793a.272.272,0,0,0-.272-.272h-3.784V72.672a.272.272,0,0,0-.272-.272h-2.3a.272.272,0,0,0-.272.272V83.455c0,3.642,1.564,5.339,4.924,5.339a7.355,7.355,0,0,0,3.138-.673.389.389,0,0,0,.2-.492" transform="translate(-819.607 -63.31)" fill="#fff"/>
        <path id="Path_3562" data-name="Path 3562" d="M1020.105,95.01a4.106,4.106,0,0,0-4,2.58V95.562a.272.272,0,0,0-.272-.272h-2.286a.272.272,0,0,0-.273.272V108.3a.272.272,0,0,0,.273.272h2.286a.272.272,0,0,0,.272-.272v-6.087c0-2.971,1.154-4.674,3.165-4.674,1.73,0,2.606,1.046,2.606,3.11V108.3a.272.272,0,0,0,.273.272h2.314a.272.272,0,0,0,.272-.272V100.5c0-3.492-1.685-5.494-4.627-5.494" transform="translate(-886.047 -83.081)" fill="#fff"/>
        <path id="Path_3563" data-name="Path 3563" d="M206.377,72.051a.285.285,0,0,0-.107-.195.281.281,0,0,0-.211-.058,2.73,2.73,0,0,1-.37.025c-1.365,0-2-1.284-2.676-2.644a6.928,6.928,0,0,0-2.028-2.82,5.413,5.413,0,0,0,3.937-5.144c0-3.84-2.291-5.786-6.809-5.786h-5.2a.272.272,0,0,0-.272.272V73.641a.272.272,0,0,0,.272.272h2.207a.274.274,0,0,0,.272-.272v-6.75h1.2c2.26,0,3.05,1.665,3.886,3.429.878,1.848,1.784,3.759,4.462,3.759a8.713,8.713,0,0,0,1.36-.113.282.282,0,0,0,.236-.306Zm-4.235-10.836c0,2.112-1.723,3.475-4.388,3.475h-2.362v-6.9H198c2.747,0,4.14,1.151,4.14,3.421" transform="translate(-168.453 -48.47)" fill="#fff"/>
        <path id="Path_3564" data-name="Path 3564" d="M877.81,97.041a.25.25,0,0,0-.255-.251l-.241.005c-1.818.084-2.905.8-3.381,2.237V97.17a.272.272,0,0,0-.272-.272h-2.268a.272.272,0,0,0-.272.272v12.646a.272.272,0,0,0,.272.272h2.268a.272.272,0,0,0,.272-.272v-6.49c0-2.829.737-3.783,2.923-3.783h.7a.251.251,0,0,0,.251-.251Z" transform="translate(-761.745 -84.637)" fill="#fff"/>
        <path id="Path_3565" data-name="Path 3565" d="M1240.43,98.331a.25.25,0,0,0-.255-.251l-.241.005c-1.818.084-2.905.8-3.381,2.237V98.46a.272.272,0,0,0-.272-.272h-2.267a.272.272,0,0,0-.273.272v12.646a.272.272,0,0,0,.273.272h2.267a.272.272,0,0,0,.272-.272v-6.49c0-2.829.737-3.783,2.923-3.783h.7a.251.251,0,0,0,.251-.251Z" transform="translate(-1078.836 -85.765)" fill="#fff"/>
        <path id="Path_3566" data-name="Path 3566" d="M769.179,106.652a.211.211,0,0,0-.227-.212c-.055.005-.111.008-.163.008-.536,0-.7-.21-.7-.9V100.2c0-3.149-2.225-5.105-5.807-5.105-2.855,0-4.905,1.258-5.425,3.221a3.83,3.83,0,0,0-.105.571,3.958,3.958,0,0,0-.024.446c0,.045,0,.09,0,.133a.3.3,0,0,0,.294.288h2.005a.294.294,0,0,0,.294-.3c0-.121,0-.237,0-.275.008-.063.016-.124.029-.185.215-1.02,1.235-1.595,2.873-1.595,2.043,0,3.168,1.006,3.168,2.831v.728h-.279c-6.095,0-8.695,1.242-8.695,4.152,0,2.337,1.763,3.787,4.6,3.787,2.731,0,4-1.193,4.553-2.057a2.179,2.179,0,0,0,2.486,2.028,5.806,5.806,0,0,0,.947-.084.208.208,0,0,0,.173-.207Zm-3.784-2.613c0,1.254-1.448,2.55-3.868,2.55-1.074,0-2.354-.267-2.354-1.541,0-1,.675-2.158,5.944-2.158h.279Z" transform="translate(-661.447 -83.151)" fill="#fff"/>
        <path id="Path_3567" data-name="Path 3567" d="M63.673,102.357a1.217,1.217,0,1,1-1.217-1.217,1.217,1.217,0,0,1,1.217,1.217" transform="translate(-53.551 -88.441)" fill="#fff"/>
        <path id="Path_3568" data-name="Path 3568" d="M88.04,105.13a1.15,1.15,0,1,1-1.15-1.15,1.151,1.151,0,0,1,1.15,1.15" transform="translate(-74.975 -90.925)" fill="#fff"/>
        <g id="Group_8473" data-name="Group 8473" transform="translate(8.886 15.453)" opacity="0.88" style="mix-blend-mode: normal;isolation: isolate">
          <g id="Group_8472" data-name="Group 8472">
            <g id="Group_8471-2" data-name="Group 8471" clip-path="url(#clip-path-3)">
              <path id="Path_3569" data-name="Path 3569" d="M72.891,124.141a1.06,1.06,0,1,1-1.06-1.061,1.06,1.06,0,0,1,1.06,1.061" transform="translate(-70.77 -123.08)" fill="#fff"/>
            </g>
          </g>
        </g>
        <path id="Path_3570" data-name="Path 3570" d="M80.132,84.361A1.061,1.061,0,1,1,79.071,83.3a1.061,1.061,0,0,1,1.061,1.061" transform="translate(-68.215 -72.841)" fill="#fff"/>
        <path id="Path_3571" data-name="Path 3571" d="M67.653,64.626a.856.856,0,1,1-.856-.856.855.855,0,0,1,.856.856" transform="translate(-57.661 -55.763)" fill="#fff"/>
        <path id="Path_3572" data-name="Path 3572" d="M91.734,66.407a.967.967,0,1,1-.967-.967.968.968,0,0,1,.967.967" transform="translate(-78.525 -57.224)" fill="#fff"/>
        <path id="Path_3573" data-name="Path 3573" d="M51.041,122.076a1,1,0,1,1-1-.966.983.983,0,0,1,1,.966" transform="translate(-42.883 -105.904)" fill="#fff"/>
        <path id="Path_3574" data-name="Path 3574" d="M41.418,98.932A1.08,1.08,0,1,1,40.34,97.89a1.06,1.06,0,0,1,1.079,1.042" transform="translate(-34.331 -85.599)" fill="#fff"/>
        <path id="Path_3575" data-name="Path 3575" d="M56.79,81.343A1.08,1.08,0,1,1,55.71,80.3a1.062,1.062,0,0,1,1.08,1.043" transform="translate(-47.771 -70.218)" fill="#fff"/>
        <path id="Path_3576" data-name="Path 3576" d="M37.223,139.294a.947.947,0,1,1-.947-.914.93.93,0,0,1,.947.914" transform="translate(-30.894 -121.005)" fill="#fff"/>
        <path id="Path_3577" data-name="Path 3577" d="M31.249,119.539a.91.91,0,1,1-.91-.879.894.894,0,0,1,.91.879" transform="translate(-25.735 -103.761)" fill="#fff"/>
        <path id="Path_3578" data-name="Path 3578" d="M24.314,156.992a.737.737,0,1,1-.737-.712.725.725,0,0,1,.737.712" transform="translate(-19.972 -136.658)" fill="#fff"/>
        <path id="Path_3579" data-name="Path 3579" d="M15.026,115.826a.793.793,0,1,1-.792-.766.779.779,0,0,1,.792.766" transform="translate(-11.753 -100.613)" fill="#fff"/>
        <path id="Path_3580" data-name="Path 3580" d="M22.936,98.186a.793.793,0,1,1-.792-.766.779.779,0,0,1,.792.766" transform="translate(-18.669 -85.188)" fill="#fff"/>
        <path id="Path_3581" data-name="Path 3581" d="M36.51,80.176a.846.846,0,1,1-.845-.816.83.83,0,0,1,.845.816" transform="translate(-30.448 -69.396)" fill="#fff"/>
        <path id="Path_3582" data-name="Path 3582" d="M47.973,63.3a.762.762,0,1,1-.761-.736.748.748,0,0,1,.761.736" transform="translate(-40.618 -54.705)" fill="#fff"/>
        <path id="Path_3583" data-name="Path 3583" d="M17.043,136.188a.807.807,0,1,1-.806-.778.793.793,0,0,1,.806.778" transform="translate(-13.493 -118.408)" fill="#fff"/>
        <path id="Path_3584" data-name="Path 3584" d="M58.08,142.025a.981.981,0,1,1-.979-.945.963.963,0,0,1,.979.945" transform="translate(-49.074 -123.367)" fill="#fff"/>
        <path id="Path_3585" data-name="Path 3585" d="M79.352,143.919a1.026,1.026,0,1,1-1.026-.989,1.008,1.008,0,0,1,1.026.989" transform="translate(-67.594 -124.984)" fill="#fff"/>
        <path id="Path_3586" data-name="Path 3586" d="M110.74,109.7a.971.971,0,1,1-.969-.937.953.953,0,0,1,.969.937" transform="translate(-95.139 -95.104)" fill="#fff"/>
        <path id="Path_3587" data-name="Path 3587" d="M96.2,127.5a1.026,1.026,0,1,1-1.026-.989,1.008,1.008,0,0,1,1.026.989" transform="translate(-82.329 -110.626)" fill="#fff"/>
        <path id="Path_3588" data-name="Path 3588" d="M102.54,87.4a.965.965,0,1,1-.964-.932.947.947,0,0,1,.964.932" transform="translate(-87.978 -75.613)" fill="#fff"/>
        <path id="Path_3589" data-name="Path 3589" d="M113.72,71.112a.81.81,0,1,1-.81-.782.8.8,0,0,1,.81.782" transform="translate(-98.025 -61.5)" fill="#fff"/>
        <path id="Path_3590" data-name="Path 3590" d="M45.666,159.321a.778.778,0,1,1-.777-.751.763.763,0,0,1,.777.751" transform="translate(-38.572 -138.661)" fill="#fff"/>
        <path id="Path_3591" data-name="Path 3591" d="M56.339,177.084a.75.75,0,1,1-.75-.724.737.737,0,0,1,.75.724" transform="translate(-47.954 -154.217)" fill="#fff"/>
        <path id="Path_3592" data-name="Path 3592" d="M67.112,161.575a.9.9,0,1,1-.9-.865.88.88,0,0,1,.9.865" transform="translate(-57.119 -140.532)" fill="#fff"/>
        <path id="Path_3593" data-name="Path 3593" d="M78.995,178.658a.7.7,0,1,1-.7-.678.69.69,0,0,1,.7.678" transform="translate(-67.848 -155.633)" fill="#fff"/>
        <path id="Path_3594" data-name="Path 3594" d="M90.566,164.336a.8.8,0,1,1-.8-.776.788.788,0,0,1,.8.776" transform="translate(-77.791 -143.024)" fill="#fff"/>
        <path id="Path_3595" data-name="Path 3595" d="M102.454,146.682a.862.862,0,1,1-.861-.832.847.847,0,0,1,.861.832" transform="translate(-88.083 -127.538)" fill="#fff"/>
        <path id="Path_3596" data-name="Path 3596" d="M35.186,176.277a.648.648,0,1,1-.648-.627.638.638,0,0,1,.648.627" transform="translate(-29.635 -153.596)" fill="#fff"/>
        <path id="Path_3597" data-name="Path 3597" d="M5.349,154.822a.695.695,0,1,1-.694-.672.683.683,0,0,1,.694.672" transform="translate(-3.463 -134.795)" fill="#fff"/>
        <path id="Path_3598" data-name="Path 3598" d="M1.461,131.636a.717.717,0,0,1-.731.7.705.705,0,1,1,0-1.41.718.718,0,0,1,.731.706" transform="translate(0 -114.491)" fill="#fff"/>
        <path id="Path_3599" data-name="Path 3599" d="M46.99,194.34a.59.59,0,1,1-.59-.57.58.58,0,0,1,.59.57" transform="translate(-40.058 -169.441)" fill="#fff"/>
        <path id="Path_3600" data-name="Path 3600" d="M69.063,194.031a.612.612,0,1,1-.611-.591.6.6,0,0,1,.611.591" transform="translate(-59.322 -169.152)" fill="#fff"/>
        <path id="Path_3601" data-name="Path 3601" d="M59.809,209.8a.44.44,0,1,1-.439-.423.431.431,0,0,1,.439.423" transform="translate(-51.531 -183.091)" fill="#fff"/>
        <path id="Path_3602" data-name="Path 3602" d="M76.968,208.333a.439.439,0,1,1-.439-.423.431.431,0,0,1,.439.423" transform="translate(-66.536 -181.806)" fill="#fff"/>
        <path id="Path_3603" data-name="Path 3603" d="M85.638,194.963a.439.439,0,1,1-.438-.423.431.431,0,0,1,.438.423" transform="translate(-74.118 -170.114)" fill="#fff"/>
        <path id="Path_3604" data-name="Path 3604" d="M94.995,181.183a.523.523,0,1,1-.522-.5.513.513,0,0,1,.522.5" transform="translate(-82.154 -157.994)" fill="#fff"/>
        <path id="Path_3605" data-name="Path 3605" d="M107.083,167.086a.567.567,0,1,1-.566-.546.558.558,0,0,1,.566.546" transform="translate(-92.647 -145.63)" fill="#fff"/>
        <path id="Path_3606" data-name="Path 3606" d="M119.834,149.165a.618.618,0,1,1-.616-.6.606.606,0,0,1,.616.6" transform="translate(-103.709 -129.916)" fill="#fff"/>
        <path id="Path_3607" data-name="Path 3607" d="M116.2,131.916a.617.617,0,1,1-.616-.6.607.607,0,0,1,.616.6" transform="translate(-100.535 -114.832)" fill="#fff"/>
        <path id="Path_3608" data-name="Path 3608" d="M129.645,131.657a.578.578,0,1,1-.578-.557.566.566,0,0,1,.578.557" transform="translate(-112.357 -114.64)" fill="#fff"/>
        <path id="Path_3609" data-name="Path 3609" d="M129.215,111.677a.578.578,0,1,1-.578-.557.566.566,0,0,1,.578.557" transform="translate(-111.981 -97.168)" fill="#fff"/>
        <path id="Path_3610" data-name="Path 3610" d="M122.942,91.528a.661.661,0,1,1-.66-.638.65.65,0,0,1,.66.638" transform="translate(-106.35 -79.478)" fill="#fff"/>
        <path id="Path_3611" data-name="Path 3611" d="M57.269,226.363a.44.44,0,1,1-.439-.423.43.43,0,0,1,.439.423" transform="translate(-49.31 -197.572)" fill="#fff"/>
        <path id="Path_3612" data-name="Path 3612" d="M72.109,224.15a.4.4,0,1,1-.4-.39.4.4,0,0,1,.4.39" transform="translate(-62.348 -195.666)" fill="#fff"/>
        <path id="Path_3613" data-name="Path 3613" d="M72.109,241.739a.4.4,0,1,1-.4-.389.4.4,0,0,1,.4.389" transform="translate(-62.348 -211.047)" fill="#fff"/>
        <path id="Path_3614" data-name="Path 3614" d="M42.324,210.521a.477.477,0,1,1-.477-.461.469.469,0,0,1,.477.461" transform="translate(-36.176 -183.686)" fill="#fff"/>
        <path id="Path_3615" data-name="Path 3615" d="M28.153,193.306a.567.567,0,1,1-.566-.546.557.557,0,0,1,.566.546" transform="translate(-23.627 -168.558)" fill="#fff"/>
        <path id="Path_3616" data-name="Path 3616" d="M16.153,175.436a.567.567,0,1,1-.566-.546.557.557,0,0,1,.566.546" transform="translate(-13.134 -152.931)" fill="#fff"/>
        <path id="Path_3617" data-name="Path 3617" d="M1.951,112.894a.624.624,0,0,1-.635.613.614.614,0,1,1,0-1.227.627.627,0,0,1,.635.614" transform="translate(-0.595 -98.183)" fill="#fff"/>
        <path id="Path_3618" data-name="Path 3618" d="M8.7,95.494a.636.636,0,1,1-.635-.614.624.624,0,0,1,.635.614" transform="translate(-6.497 -82.967)" fill="#fff"/>
        <path id="Path_3619" data-name="Path 3619" d="M20.571,79.024a.636.636,0,1,1-.635-.614.624.624,0,0,1,.635.614" transform="translate(-16.877 -68.565)" fill="#fff"/>
        <path id="Path_3620" data-name="Path 3620" d="M31.616,60.5a.623.623,0,1,1-.623-.6.613.613,0,0,1,.623.6" transform="translate(-26.557 -52.379)" fill="#fff"/>
        <path id="Path_3621" data-name="Path 3621" d="M40.771,45.467a.516.516,0,1,1-.516-.5.507.507,0,0,1,.516.5" transform="translate(-34.75 -39.324)" fill="#fff"/>
        <path id="Path_3622" data-name="Path 3622" d="M55.709,48.729a.62.62,0,1,1-.62-.6.609.609,0,0,1,.62.6" transform="translate(-47.631 -42.087)" fill="#fff"/>
        <path id="Path_3623" data-name="Path 3623" d="M73.789,50.79a.57.57,0,1,1-.569-.55.56.56,0,0,1,.569.55" transform="translate(-63.528 -43.932)" fill="#fff"/>
        <path id="Path_3624" data-name="Path 3624" d="M77.83,36.535A.555.555,0,1,1,77.275,36a.546.546,0,0,1,.555.535" transform="translate(-67.087 -31.48)" fill="#fff"/>
        <path id="Path_3625" data-name="Path 3625" d="M60.9,35a.487.487,0,1,1-.488-.471A.48.48,0,0,1,60.9,35" transform="translate(-52.405 -30.195)" fill="#fff"/>
        <path id="Path_3626" data-name="Path 3626" d="M47.724,30.842a.437.437,0,1,1-.437-.422.43.43,0,0,1,.437.422" transform="translate(-40.968 -26.601)" fill="#fff"/>
        <path id="Path_3627" data-name="Path 3627" d="M50.735,16.149a.4.4,0,1,1-.4-.389.4.4,0,0,1,.4.389" transform="translate(-43.661 -13.781)" fill="#fff"/>
        <path id="Path_3628" data-name="Path 3628" d="M63.555,24.4a.4.4,0,1,1-.4-.389.4.4,0,0,1,.4.389" transform="translate(-54.871 -20.995)" fill="#fff"/>
        <path id="Path_3629" data-name="Path 3629" d="M65.983,13.018a.362.362,0,1,1-.362-.348.355.355,0,0,1,.362.348" transform="translate(-57.066 -11.079)" fill="#fff"/>
        <path id="Path_3630" data-name="Path 3630" d="M48.663.348a.362.362,0,0,1-.723,0,.362.362,0,0,1,.723,0" transform="translate(-41.921)" fill="#fff"/>
        <path id="Path_3631" data-name="Path 3631" d="M79.634,23.107a.452.452,0,1,1-.452-.437.444.444,0,0,1,.452.437" transform="translate(-68.845 -19.824)" fill="#fff"/>
        <path id="Path_3632" data-name="Path 3632" d="M94.837,38.672a.5.5,0,1,1-.5-.482.491.491,0,0,1,.5.482" transform="translate(-82.058 -33.395)" fill="#fff"/>
        <path id="Path_3633" data-name="Path 3633" d="M89.174,52.376a.607.607,0,1,1-.606-.586.6.6,0,0,1,.606.586" transform="translate(-76.916 -45.287)" fill="#fff"/>
        <path id="Path_3634" data-name="Path 3634" d="M108.336,56.82a.538.538,0,1,1-.537-.52.53.53,0,0,1,.537.52" transform="translate(-93.793 -49.231)" fill="#fff"/>
      </g>
    </g>
  </g>
</svg>
