<?xml version="1.0" encoding="utf-8"?>
<!-- Generator: Adobe Illustrator 25.4.1, SVG Export Plug-In . SVG Version: 6.00 Build 0)  -->
<svg version="1.2" baseProfile="tiny" xmlns="http://www.w3.org/2000/svg" xmlns:xlink="http://www.w3.org/1999/xlink" x="0px"
	 y="0px" viewBox="0 0 343 108.2" overflow="visible" xml:space="preserve">
<g id="Logotyp">
	<g>
		<line fill="#010202" x1="225.5" y1="9" x2="225.5" y2="99"/>
		<rect x="225.3" y="9" fill="#010202" width="0.5" height="90"/>
	</g>
	<g id="Lager_2_1_">
		<g id="Eng">
			<path fill="#010202" d="M239.2,86.1h-1.5c0,1.9,0,3.9,0,7.1c0,1.7,0.1,2.7,0.7,3.4c0.6,0.7,1.6,1,3,1s2.4-0.3,3.1-1.2
				c0.6-0.8,0.6-1.9,0.6-3.8l0-6.5h-1.7v-1.2h4.8v1.2h-1.5l0,7.5c0,1.6-0.2,2.7-1.1,3.8c-0.8,1-2.3,1.5-4.2,1.5
				c-2.4,0-3.7-0.6-4.5-1.7c-0.7-0.9-0.8-1.9-0.8-4.2c0-2.3,0-4.8,0-6.9h-1.6v-1.2h4.8V86.1z"/>
			<path fill="#010202" d="M256.1,97.4h1.3c0-1.6,0.1-3.2,0.1-4.9c0-1,0-3-2.3-3c-1.4,0-3,0.9-3,3.6l0,4.2h1.5v1.2h-4.4v-1.2h1.3
				l0.1-7.7h-1.6v-1.2h3.3c0,0.4,0,0.8-0.1,1.2l-0.2,1h0c0.4-1.5,2.1-2.5,3.6-2.5c2.8,0,3.5,1.9,3.5,3.8c0,1.7-0.1,3.8-0.1,5.4h1.5
				v1.2h-4.4V97.4z"/>
			<path fill="#010202" d="M263.5,89.7h-1.9v-1.2h3.5l-0.1,8.9h1.6v1.2h-4.9v-1.2h1.6L263.5,89.7z M264.1,83.3
				c0.7,0,1.2,0.5,1.2,1.2c0,0.7-0.5,1.2-1.2,1.2c-0.7,0-1.2-0.5-1.2-1.2c0,0,0,0,0,0C262.8,83.9,263.4,83.3,264.1,83.3z"/>
			<path fill="#010202" d="M266.7,88.5h4.2v1.2h-1.2l2.4,6.5c0.1,0.3,0.2,0.6,0.2,0.9h0c0.1-0.3,0.1-0.6,0.2-0.9l2.4-6.5h-1.3v-1.2
				h4.1v1.2h-1.1l-3.5,8.9h-1.6l-3.5-8.9h-1.1L266.7,88.5z"/>
			<path fill="#010202" d="M279.9,93.7c0.1,2.1,1,3.9,3.9,3.9c1.1,0,2.1-0.3,3.1-0.8l-0.1,1.4c-1.1,0.4-2.2,0.7-3.4,0.7
				c-3.2,0-5.2-1.8-5.2-5.3c0-3,1.6-5.4,4.7-5.4c4,0,4.4,3.7,4.4,5.5L279.9,93.7z M285.7,92.5c0-1.6-1-3-2.7-3c-1.7,0-2.9,1.3-3,3
				L285.7,92.5z"/>
			<path fill="#010202" d="M290.5,89.7h-1.7v-1.2h3.4V89c0,0.6-0.1,1.8-0.2,2.6h0.1c0.4-1.5,0.9-3.4,3.4-3.4c0.3,0,0.7,0.1,1,0.2
				l-0.2,1.5c-0.4-0.1-0.7-0.2-1.1-0.2c-2.1,0-3,2.1-3.1,3.9l-0.1,3.8h1.7v1.2h-4.8v-1.2h1.4L290.5,89.7z"/>
			<path fill="#010202" d="M304.6,91.3h-1.5l-0.1-1.4c-0.4-0.3-1.3-0.4-1.8-0.4c-1,0-2.4,0.3-2.4,1.6c0,1.1,1,1.4,2.5,1.7
				c2.6,0.4,3.7,1.2,3.7,2.9c0,1.8-1.2,3.3-4.2,3.3c-1.1,0-2.9-0.3-3.5-0.6l-0.1-2.6h1.5l0.1,1.5c0.7,0.3,1.5,0.4,2.3,0.4
				c1.1,0,2.4-0.5,2.4-1.7c0-1-1-1.4-2.2-1.6c-2.7-0.6-4.1-1.1-4.1-3.1c0-1.6,1.1-3.1,4-3.1c1.1,0,2.2,0.2,3.2,0.6L304.6,91.3z"/>
			<path fill="#010202" d="M308.3,89.7h-1.9v-1.2h3.5l-0.1,8.9h1.6v1.2h-4.9v-1.2h1.6L308.3,89.7z M308.9,83.3
				c0.7,0,1.2,0.5,1.2,1.2s-0.5,1.2-1.2,1.2c-0.7,0-1.2-0.5-1.2-1.2c0,0,0,0,0,0C307.7,83.9,308.2,83.3,308.9,83.3L308.9,83.3z"/>
			<path fill="#010202" d="M312.2,88.5h1.6l0.1-2.5l1.6-0.1l-0.1,2.6h3.2v1.2h-3.2c0,1.7-0.1,3.4-0.1,5.1c0,1.5,0,2.7,1.6,2.7
				c0.7,0,1.4-0.2,2-0.4l-0.1,1.3c-0.7,0.3-1.5,0.5-2.3,0.5c-2.8,0-2.8-2-2.8-3.3c0-1.2,0.1-4.4,0.1-5.8h-1.6V88.5z"/>
			<path fill="#010202" d="M319.5,88.5h4.3v1.2h-1.3l2.4,6.3c0.1,0.3,0.2,0.7,0.3,1.1h0c0.1-0.4,0.2-0.7,0.3-1.1l2.3-6.3h-1.4v-1.2
				h4.1v1.2h-1.1l-3.1,8.6c-1.4,4-2.6,5.5-5.2,5.5c-0.4,0-0.8-0.1-1.2-0.2v-1.3c0.4,0.1,0.8,0.2,1.1,0.2c1.2,0,2.4-0.7,3.1-2.6
				l0.3-0.8l-3.7-9.4h-1.2L319.5,88.5z"/>
			<path fill="#010202" d="M234.8,77.9h1.6v1.9c0.6,0.4,1.8,0.5,2.7,0.5c2,0,3.3-0.9,3.3-2.6c0-3.7-7.6-1.5-7.6-6.5
				c0-1.7,1-3.9,5.1-3.9c1,0,2.9,0.3,3.7,0.7v2.8h-1.6V69c-0.7-0.2-1.5-0.4-2.3-0.4c-1.5,0-3.2,0.6-3.2,2.4c0,3.5,7.6,1.3,7.6,6.4
				c0,3.1-2.6,4.2-5.3,4.2c-2.3,0-3.4-0.5-4.2-0.7L234.8,77.9z"/>
			<path fill="#010202" d="M245.5,71.2h1.6l0.1-2.5l1.6-0.1l-0.1,2.6h3.2v1.2h-3.2c0,1.7-0.1,3.4-0.1,5.1c0,1.5,0,2.7,1.6,2.7
				c0.7,0,1.4-0.2,2-0.4l-0.1,1.3c-0.7,0.3-1.5,0.5-2.3,0.5c-2.9,0-2.9-2-2.9-3.4c0-1.2,0.1-4.4,0.1-5.9h-1.6V71.2z"/>
			<path fill="#010202" d="M258.1,71c3.1,0,5,2.1,5,5.1c0,3.3-1.8,5.6-5,5.6c-3.1,0-5-2.1-5-5.1C253.2,73.4,255,71,258.1,71z
				 M258.1,80.3c2.2,0,3.3-1.8,3.3-4c0-2.2-1.1-4-3.3-4s-3.2,1.8-3.2,4S255.9,80.3,258.1,80.3L258.1,80.3z"/>
			<path fill="#010202" d="M273,81.2c-1,0.3-2,0.5-3,0.5c-4,0-5.3-2.7-5.3-5.4c0-3.9,2.8-5.4,5.1-5.4c1.1,0,2.2,0.2,3.3,0.5v2.7
				h-1.5v-1.6c-0.6-0.2-1.1-0.2-1.7-0.2c-3,0-3.5,2.3-3.5,4c0,0.6,0.1,4,3.9,4c1,0,1.8-0.3,2.8-0.6L273,81.2z"/>
			<path fill="#010202" d="M275.9,67.4h-2v-1.2h3.6l0,9.5l3.9-3.2v0H280v-1.2h4.4v1.2h-1.1l-4.2,3.4l4.6,4.3h1.1v1.2h-4.4v-1.2h1.2
				v0l-4.1-3.9l0,4h1.3v1.2h-4.4v-1.2h1.5L275.9,67.4z"/>
			<path fill="#010202" d="M287.5,67.4h-2v-1.2h3.6l0,5.4c0,0.6-0.1,1.3-0.2,1.9h0c0.4-1.5,2.1-2.5,3.6-2.5c2.8,0,3.5,1.9,3.5,3.8
				c0,1.7-0.1,3.8-0.1,5.4h1.5v1.2h-4.4v-1.2h1.3c0-1.6,0.1-3.2,0.1-4.9c0-1,0-3-2.3-3c-1.4,0-3,0.9-3,3.6l-0.1,4.2h1.5v1.2H286
				v-1.2h1.5L287.5,67.4z"/>
			<path fill="#010202" d="M303.5,71c3.1,0,5,2.1,5,5.1c0,3.3-1.8,5.6-5,5.6c-3.1,0-5-2.1-5-5.1C298.6,73.4,300.4,71,303.5,71z
				 M303.5,80.3c2.2,0,3.2-1.8,3.2-4c0-2.2-1.1-4-3.2-4s-3.3,1.8-3.3,4C300.3,78.5,301.4,80.3,303.5,80.3L303.5,80.3z"/>
			<path fill="#010202" d="M311.1,67.4h-2v-1.2h3.6l-0.1,14h1.6v1.2h-4.7v-1.2h1.5L311.1,67.4z"/>
			<path fill="#010202" d="M315.8,80.2h1.3l0.1-7.7h-1.6v-1.2h3.3c0,0.4,0,0.8-0.1,1.2l-0.2,1h0c0.4-1.5,2.1-2.5,3.6-2.5
				c1.9,0,2.8,1.1,3.1,2.4h0c0.2-0.4,0.8-2.4,3.5-2.4c2.8,0,3.5,1.9,3.5,3.8c0,1.7-0.1,3.8-0.1,5.4h1.5v1.2h-4.4v-1.2h1.3
				c0-1.7,0.1-3.3,0.1-5c0-1.5-0.3-2.9-2.2-2.9c-1.3,0-2.9,0.9-2.9,3.6l0,4.2h1.5v1.2h-4.5v-1.2h1.3c0-1.7,0.1-3.3,0.1-5
				c0-1.5-0.3-2.9-2.2-2.9c-1.3,0-2.9,0.9-2.9,3.6l0,4.2h1.5v1.2h-4.4V80.2z"/>
			<path fill="#010202" d="M278.1,14.2c0,0.1,0,0.1,0,0.1c-0.2,0.3-0.4,0.5-0.6,0.8c0,0.1,0,0,0-0.1c0.2-0.4,0-0.9-0.3-1.2
				c-0.4-0.3-0.9-0.2-1.1,0.2c0,0,0,0,0,0c-0.3,0.4-0.3,0.8,0,1.9c0.3,1.1,0.2,1.5-0.2,2c-0.6,0.5-1.4,0.6-2,0.1
				c-0.8-0.5-0.8-0.7-0.9-0.7c-0.1,0-0.1-0.1,0-0.2c0.1-0.2,0.6-0.8,0.7-0.9c0.1-0.1,0.1,0,0,0.1c-0.1,0.1-0.3,0.9,0.3,1.4
				c0.7,0.5,1,0.1,1.3-0.1c0.2-0.3,0.4-0.5,0-1.8c-0.3-1.3-0.1-1.8,0.4-2.2c0.5-0.4,1.3-0.4,1.8,0c0.2,0.2,0.4,0.3,0.6,0.5
				C278,14.1,278,14.2,278.1,14.2C278.1,14.2,278.1,14.1,278.1,14.2z"/>
			<path fill="#010202" d="M235.8,29.4c0-0.1,0.1,0,0.1,0c0.3,0.1,0.6,0.1,0.9,0.1c0.1,0-0.1,0.1-0.2,0.1c-0.2,0-0.6,0.1-0.8,0.8
				c-0.1,0.4,0.1,0.8,0.5,0.9c0,0,0,0,0.1,0c0.6,0.1,0.9-0.1,1.7-0.8c0.9-0.7,1.5-0.8,2-0.6c0.7,0.3,1.1,1,0.9,1.7
				c-0.1,0.4-0.2,0.7-0.5,1.1c0,0.1-0.1,0.1-0.2,0.1c-0.2-0.1-0.9-0.1-1-0.2c-0.2,0-0.1-0.1,0-0.1c0.4-0.1,1.1-0.1,1.3-0.9
				c0.1-0.4-0.1-0.8-0.5-0.9c0,0,0,0-0.1,0c-0.4-0.1-0.7-0.1-1.8,0.8c-1.1,0.9-1.5,0.9-2.2,0.6c-0.6-0.3-0.9-0.8-0.7-1.6
				c0-0.3,0.2-0.7,0.3-0.9C235.8,29.5,235.8,29.4,235.8,29.4z"/>
			<path fill="#010202" d="M269.3,61.3c-0.1,0-0.1-0.1-0.1-0.1c0,0-0.2-0.6-0.2-0.7s0-0.1,0.1,0c0.3,0.3,0.7,0.4,1.1,0.3
				c0.4-0.1,0.7-0.5,0.6-1c-0.1-0.5-0.6-0.7-1.6-1.1c-0.9-0.4-1.2-0.8-1.3-1.3c-0.1-0.8,0.4-1.5,1.2-1.7c0.7-0.2,0.9-0.2,1.1-0.3
				c0.1-0.1,0.1,0.2,0.1,0.2c0.1,0.2,0.3,0.8,0.3,0.9c0.1,0.1,0,0.1-0.1,0c-0.1-0.2-0.6-0.8-1.3-0.6c-0.7,0.2-0.8,0.7-0.7,1
				s0.2,0.6,1.4,1.2c1.3,0.5,1.5,1.1,1.5,1.7c0,0.7-0.5,1.2-1.2,1.4c-0.2,0-0.4,0.1-0.6,0.1c-0.1,0-0.1,0-0.2,0
				C269.3,61.3,269.3,61.3,269.3,61.3z"/>
			<path fill="#010202" d="M278.7,15.6c0.2-0.1,0.4-0.2,0.5-0.3c0.1-0.1,0.2,0,0.3,0.1l1.4,1.4c0.3,0.3,1.3,1.2,1.4,1.3
				c0.1,0.1,0.3,0.2,0.1,0.3c-0.1,0.1-0.4,0.2-0.5,0.3c-0.1,0.1-0.1,0-0.1-0.1c0-0.1-0.1-0.2-0.3-0.5l-0.7-0.7
				c-0.1-0.1-0.1-0.1-0.1,0c-0.1,0.1-1.2,1.2-1.4,1.4c-0.2,0.3-1.6,1.6-1.7,1.8c0,0.1,0,0.2,0.1,0.3c0,0.1,0.1,0.2,0,0.1
				c-0.1-0.1-0.5-0.6-0.6-0.7c-0.1-0.1-0.5-0.5-0.6-0.5c-0.1-0.1,0-0.1,0.1-0.1c0.2,0.1,0.3,0.1,0.5,0c0.3-0.2,1.5-1.4,1.7-1.6
				c0.2-0.2,1.3-1.4,1.4-1.4s0.1-0.1,0-0.2c-0.3-0.3-0.6-0.6-0.9-0.9c-0.1-0.1-0.2-0.1-0.3-0.1C278.7,15.6,278.6,15.6,278.7,15.6z"
				/>
			<path fill="#010202" d="M238.4,24.4c-0.1-0.1-0.3-0.3-0.5-0.4c-0.1-0.1,0-0.1,0-0.2c0-0.1,0.8-1.5,1-1.7c0.2-0.4,0.9-1.5,1-1.7
				c0.1-0.2,0.1-0.3,0.2-0.2c0.1,0.1,0.2,0.3,0.3,0.4c0.1,0.1,0,0-0.1,0c-0.1,0-0.2,0.2-0.4,0.5c-0.2,0.3-0.4,0.7-0.4,0.7
				c0,0.1,0,0.1,0.1,0.2c0.1,0.1,1.4,0.9,1.7,1c0.3,0.2,2,1.1,2.2,1.1c0.2,0,0.2-0.1,0.3-0.1c0,0,0.2-0.1,0.1,0
				c-0.2,0.2-0.3,0.4-0.5,0.7c-0.1,0.2-0.3,0.7-0.4,0.7s0-0.1,0-0.1c0-0.1,0.1-0.2-0.1-0.4c-0.3-0.3-1.8-1.1-2-1.2
				c-0.2-0.1-1.7-0.9-1.7-1c-0.1,0-0.1-0.1-0.2,0c-0.1,0.1-0.6,1-0.7,1.3c0,0.1,0,0.2,0,0.3C238.4,24.4,238.4,24.4,238.4,24.4z"/>
			<path fill="#010202" d="M245,15.7c-0.1-0.2-0.2-0.4-0.3-0.5c-0.1-0.1-0.1-0.1,0.1-0.2c0.1-0.1,1.3-1,1.6-1.2
				c0.3-0.3,1.5-1.1,1.7-1.2c0.1-0.1,0.3-0.2,0.3,0c0.1,0.1,0.2,0.5,0.2,0.6c0,0.1,0,0-0.1-0.1c-0.1-0.1-0.2-0.1-0.5,0.2
				c-0.3,0.2-0.8,0.5-0.9,0.6c-0.1,0.1-0.1,0.1,0,0.1c0.1,0.1,0.9,1.4,1.2,1.7c0.2,0.3,1.4,1.9,1.6,2c0.1,0,0.2,0,0.3,0
				c0.1,0,0.1,0,0,0.1c-0.1,0.1-0.5,0.3-0.6,0.4c-0.1,0.1-0.5,0.3-0.6,0.4c-0.1,0.1-0.1,0,0-0.1c0.1-0.1,0.1-0.1,0-0.3
				c-0.4-0.7-0.8-1.3-1.2-1.9c-0.1-0.2-1.3-1.7-1.3-1.8c0-0.1-0.1-0.1-0.1,0c-0.1,0.1-1,0.7-1.1,0.9c-0.1,0.1-0.1,0.1-0.2,0.3
				C245,15.6,245,15.8,245,15.7z"/>
			<path fill="#010202" d="M284.5,20.8c0.8,0.8,1.4,2.8-0.2,4.2c-1.1,1-2.9,0.9-3.9-0.1c-0.7-0.8-1.4-2.6,0.1-4
				C281.6,19.7,283.4,19.6,284.5,20.8C284.5,20.7,284.5,20.8,284.5,20.8z M281.2,21.5c-1.2,1.1-1,2.5-0.4,3.1s1.9,0.7,3.1-0.4
				c1.1-1.1,1.1-2.6,0.3-3.2C283.6,20.4,282.4,20.3,281.2,21.5z"/>
			<path fill="#010202" d="M286.1,47.6c-0.5,1.5-2.1,2.2-3.5,1.7c-0.1,0-0.2-0.1-0.3-0.1c-1.3-0.6-2-2.1-1.5-3.5
				c0.3-1,1.7-2.4,3.6-1.7C285.8,44.6,286.6,46.2,286.1,47.6z M284,44.9c-1.6-0.6-2.7,0.2-2.9,1c-0.3,0.8,0,1.9,1.7,2.5
				c1.6,0.6,2.8,0,3.1-1.1C285.9,46.9,286,45.6,284,44.9z"/>
			<path fill="#010202" d="M284.1,31.3c-0.2,0-0.5,0-0.7-0.1c-0.2,0-0.2,0-0.2-0.1c-0.5-0.6-0.7-1.4-0.7-2.1c0-1.4,0.7-2.5,2-2.9
				c1.1-0.3,2.3,0.1,3,1c0.4,0.6,0.6,1.2,0.6,1.9c0,0.3,0,0.5,0.1,0.8c0,0.2,0,0.3,0.1,0.3c0.1,0.1,0,0.1-0.1,0.1
				c-0.2,0-0.4,0-0.5,0.1c-0.1,0-0.3,0.1-0.4,0.1c-0.2,0-0.2,0,0-0.1c0.3-0.1,0.5-0.4,0.5-0.7c0.1-0.4,0.1-1.4-0.6-2.1
				c-0.5-0.5-1.4-0.9-2.6-0.4c-1,0.4-1.6,1.3-1.6,2.3c0,0.8,0.4,1.6,1.2,1.9C284.2,31.3,284.3,31.3,284.1,31.3z"/>
			<path fill="#010202" d="M288.6,32c0,0.5,0.1,0.9,0.1,1.3c0.1,0.2-0.1,0.1-0.1,0c0-0.1-0.1-0.2-0.3-0.2c-0.8,0-1.6,0.1-2.3,0.2
				c0.6,0.6,1.3,1.1,2,1.6c0.2,0.1,0.3,0.2,0.5,0.3c0.1,0,0,0,0.1,0c0-0.1,0.1-0.4,0.1,0.1v0.5c0,0.1,0,0.2,0.1,0.3
				c0,0.2,0,0.2-0.2,0c-0.3-0.3-0.6-0.6-1-0.8c-0.2-0.1-1.4-1.1-1.4-1.1s-1.7,1.6-2.1,2c-0.3,0.3-0.5,0.5-0.7,0.9
				c-0.1,0.1-0.1,0.2-0.1,0.1c0-0.1,0.1-0.5,0.1-0.7c0-0.2,0-0.7,0-0.8c0-0.1,0.1,0,0.1,0c0.1,0,0.6-0.4,1.1-1
				c0.4-0.4,1.1-1.1,1.1-1.2c-0.6,0-1.1,0.1-1.7,0.2c-0.2,0-0.4,0.1-0.6,0.2c-0.1,0.1-0.1,0.1-0.1,0.2c0,0.1-0.1,0.1-0.1,0
				s0-0.6-0.1-0.8c0-0.2,0-0.4-0.1-0.6c0-0.1,0.1-0.1,0.1,0c0,0.1,0.1,0.1,0.2,0.2c0.2,0.1,0.5,0.1,2.4-0.1c1.9-0.2,2.1-0.3,2.3-0.3
				S288.5,32.2,288.6,32C288.5,31.9,288.6,31.7,288.6,32z"/>
			<path fill="#010202" d="M288.6,38.6c0,0.2-0.2,1.1-0.2,1.3s-0.1,0.2-0.1,0.1c0-0.1-0.1-0.2-0.2-0.3c-0.3-0.1-0.6-0.2-0.9-0.2
				c-0.7-0.1-1.1-0.2-1.1-0.2s-0.2,0.9-0.3,1.4c-0.1,0.7-0.3,1.5-0.3,1.5s0.9,0.3,1.3,0.4s0.9,0.3,1,0c0.1-0.2,0.2-0.1,0.1,0.1
				c0,0.1-0.3,1-0.3,1.2c-0.1,0.3-0.1,0.1-0.1,0.1c0-0.1,0.1-0.2-0.2-0.3c-0.3-0.1-1.3-0.5-2.2-0.7c-0.9-0.3-1.9-0.6-2.3-0.5
				c-0.2,0-0.3,0.1-0.3,0.1c0,0.1-0.2,0.1-0.1,0c0.2-0.4,0.3-0.8,0.3-1.2c0.1-0.4,0.1-0.1,0.1-0.1c0,0.1,0.1,0.2,0.2,0.3
				c0.7,0.3,1.3,0.5,2,0.7c0,0,0.2-0.8,0.3-1.4c0.2-0.7,0.3-1.5,0.3-1.5s-0.4-0.1-0.7-0.1c-0.5-0.1-1-0.1-1.5-0.2
				c-0.1,0-0.2,0.1-0.2,0.2c0,0.1-0.1,0.2-0.1-0.1c0.1-0.4,0.1-0.8,0.2-1.2c0-0.3,0.1-0.2,0.1-0.1c0,0.1,0.1,0.2,0.1,0.2
				c0.3,0.1,1,0.3,2.3,0.4c1.3,0.2,2.3,0.3,2.4,0.3c0.2-0.1,0.2-0.1,0.2-0.2C288.5,38.4,288.7,38.3,288.6,38.6z"/>
			<path fill="#010202" d="M283.3,51.8c-0.3,0.3-0.6,0.7-0.9,1c-0.1,0.2-0.1,0-0.1,0c0.1-0.1,0-0.2,0-0.3c-0.1-0.2-0.7-0.7-1.6-1.5
				c-0.9-0.7-1.6-1.3-1.8-1.4c-0.1,0-0.2,0-0.5,0.2c-0.3,0.3-0.6,0.6-0.9,1c-0.1,0.2-0.1,0.4-0.1,0.5c0,0.1,0,0.1-0.1,0
				c-0.1-0.2-0.1-0.5-0.2-0.7c0-0.1,0-0.2,0.1-0.2c0.1-0.1,1.3-1.4,1.4-1.6c0.2-0.2,0.4-0.4,0.5-0.6c0.1-0.2,0.1-0.1,0.1,0
				c-0.1,0.1-0.1,0.2-0.1,0.4c0.1,0.3,1.2,1.1,1.8,1.6c1.2,1,1.8,1.5,2,1.5c0.1,0,0.2,0,0.3-0.1C283.4,51.7,283.5,51.7,283.3,51.8z"
				/>
			<path fill="#010202" d="M276.5,51.8c0.1,0.1,0.6,1.1,1.2,2.1l1.4,2.3c0.2,0.3,0.2,0.4-0.1,0.2c-0.5-0.2-2.3-1.1-2.6-1.3
				s-1.8-0.9-1.8-0.9s0.3,2.4,0.3,2.5c0,0.1,0.3,2.2,0.3,2.3c0,0.1,0,0.3-0.2,0.1c-0.2-0.2-3.1-3.8-3.2-4c-0.1-0.1-0.3-0.2-0.4-0.3
				h-0.2c-0.1,0-0.1,0,0-0.1l1.3-0.6c0.1,0,0.1,0,0.1,0.1c-0.1,0.1-0.1,0.1-0.1,0.3c0.1,0.3,2.2,2.9,2.2,2.9s-0.3-2.3-0.4-2.6
				c-0.1-0.3-0.3-1.7-0.3-1.7s0-0.1,0.1,0c0.1,0.1,2.1,1.1,2.3,1.2c0.2,0.1,1.5,0.7,1.5,0.7s-1.1-1.9-1.6-2.6
				c-0.1-0.1-0.2-0.2-0.3-0.3c-0.2,0-0.2,0-0.3,0.1c-0.1,0-0.1,0,0-0.1c0.1-0.1,0.4-0.3,0.5-0.3c0.1-0.1,0.4-0.4,0.5-0.4
				c0.1-0.1,0.1,0,0.1,0.1C276.5,51.5,276.4,51.6,276.5,51.8C276.5,51.8,276.5,51.8,276.5,51.8z"/>
			<path fill="#010202" d="M263.9,58.8c0,0.1,0,1.2,0,1.3c0,0.1-0.1,0.1-0.1-0.1c0-0.1-0.1-0.2-0.2-0.2c-0.4-0.1-0.8-0.1-1.3,0
				c0,0,0,1.3,0.1,1.5c0,0.1,0.1,0.1,0.2,0.1c0.1,0,0.2,0.1,0.1,0.1c-0.5,0-0.9,0-1.4,0c-0.2,0-0.1-0.1,0.1-0.1
				c0.1,0,0.2-0.1,0.3-0.3c0-0.4,0-0.9,0-1.3c-0.4,0-0.9,0-1.3,0.1c-0.1,0.1-0.2,0.2-0.2,0.3c0,0.1-0.1,0.2-0.1,0.1
				c0-0.4,0-0.8,0-1.2c0-0.2,0-0.1,0.1,0c0.1,0.1,0.1,0.2,0.2,0.2c0.4,0,0.9,0.1,1.3,0.1c0,0,0-1.1,0-1.3c0-0.1-0.1-0.3-0.3-0.3
				c-0.1,0-0.1-0.1-0.1-0.1c0.4,0,0.9,0,1.3,0c0.1,0,0.1,0.1-0.1,0.1c-0.1,0-0.2,0.1-0.3,0.3c0,0.4,0,0.8,0,1.3c0,0,1,0,1.2,0
				c0.1,0,0.2-0.1,0.3-0.3C263.9,58.8,263.9,58.7,263.9,58.8z"/>
			<path fill="#010202" d="M254.6,61.5c-0.5-0.2-1-0.4-1.5-0.5c-0.2,0,0-0.1,0.1-0.1c0.1,0,0.3,0,0.3-0.1c0.3-0.3,1.3-2.8,1.4-3.4
				c0.1-0.6,0.1-1.4-1-1.8c-1.2-0.4-1.6,0.2-2.3,1.4c-0.5,0.9-1.2,2.4-1.2,2.6s0,0.2,0.1,0.2c0.1,0.1,0.2,0.2,0.1,0.1
				c-0.4-0.3-0.8-0.5-1.3-0.6c-0.1,0,0-0.1,0.1-0.1s0.1,0,0.3-0.1c0.3-0.2,1.5-2.8,1.7-3c0.3-0.6,0.9-1,1.5-1.1
				c1-0.1,1.9,0.3,2.5,1.1c0.5,0.7,0.3,1.4,0.2,1.8c-0.1,0.5-1.2,2.8-1.2,3.2c0,0.1,0,0.2,0.1,0.2C254.7,61.4,254.7,61.5,254.6,61.5
				z"/>
			<path fill="#010202" d="M247.2,58.3c0,0-0.2-2.4-0.3-3.2c-0.1-0.9-0.3-2.8-0.3-2.8s-1.9,2-2.1,2.3c-0.3,0.2-0.5,0.5-0.5,0.7
				s0.1,0.2,0.1,0.3c0,0.1,0.1,0.2,0,0.1c-0.2-0.2-0.3-0.4-0.5-0.5c-0.2-0.1-0.3-0.3-0.5-0.4c-0.1-0.1,0-0.1,0.1,0s0.1,0.1,0.3,0.1
				s1.5-1.5,2-2c0.5-0.5,1.6-1.7,1.7-1.9c0.1-0.1,0.1-0.1,0.1,0.1c0,0.1,0.2,2.6,0.3,2.9s0.2,1.9,0.2,2.1c0,0.2,0.1,0.8,0.1,0.8
				s0.9-1.2,1.1-1.7c0.3-0.5,0.9-1.2,0.9-1.5c0-0.1-0.1-0.3-0.2-0.4c0,0-0.1-0.1,0-0.1c0.4,0.3,0.8,0.6,1.2,0.8c0.2,0.1-0.1,0-0.1,0
				c-0.1,0-0.2,0-0.3,0c-0.2,0.1-1.3,1.7-1.5,2c-0.2,0.3-0.9,1.2-1,1.5c-0.2,0.3-0.5,0.8-0.6,0.9C247.3,58.5,247.3,58.5,247.2,58.3z
				"/>
			<path fill="#010202" d="M244.8,48.4c0.1,0.2,0.3,0.4,0.4,0.6c0.2,0.2,0.3,0.4,0.5,0.6c0.1,0.1,0,0.1-0.1,0s-0.2-0.1-0.5,0.1
				c-0.3,0.2-3.4,2.8-3.5,2.9s-0.1,0.3-0.1,0.4s0,0.2,0,0.1c-0.3-0.4-0.6-0.8-0.9-1.1c-0.1-0.1,0-0.1,0.1,0c0.1,0.1,0.1,0.1,0.2,0
				c0.3-0.1,3.8-3,3.9-3.2C244.9,48.6,244.8,48.5,244.8,48.4C244.8,48.4,244.7,48.2,244.8,48.4z"/>
			<path fill="#010202" d="M242.1,27.5c-0.2,0.5-0.4,1-0.6,1.5c0,0.1-0.1,0-0.1-0.1c0-0.2,0.1-0.3-0.2-0.5c-0.4-0.2-4-1.6-4.4-1.6
				c-0.1,0-0.2,0.1-0.3,0.2c-0.1,0.1-0.2,0.1-0.1,0c0.2-0.5,0.4-1,0.6-1.5c0-0.2,0.1,0,0.1,0.1c0,0.1,0,0.2,0.1,0.3
				c0.3,0.3,4.3,1.8,4.6,1.7c0.2,0,0.2-0.1,0.3-0.2C242.1,27.4,242.2,27.3,242.1,27.5z"/>
			<path fill="#010202" d="M240.8,47.5L242,46c0,0-2,0.1-2.5,0.1c-0.4,0-1.7,0.1-1.8,0.3c-0.1,0.1,0,0.3,0,0.3c0,0.1,0,0.2-0.1,0.1
				c-0.1-0.1-0.2-0.5-0.3-0.8c-0.1-0.3-0.3-0.6-0.3-0.6s0.1-0.1,0.1,0c0.1,0.1,0.2,0.1,0.3,0.2c0.3,0.1,2.2,0,2.6,0s3.1-0.2,3.3-0.2
				c0.1,0,0.2-0.1,0.1,0.2c-0.1,0.1-1.7,2.2-1.8,2.4c-0.1,0.2-1.6,2.1-1.7,2.4c0,0.1,0,0.2,0,0.3c0,0.1,0,0.3,0,0.2
				c-0.3-0.5-0.6-1-0.9-1.5c-0.1-0.1,0-0.1,0.1,0c0.1,0.1,0.1,0,0.3-0.1C239.6,49.2,240.6,47.7,240.8,47.5z"/>
			<path fill="#010202" d="M241,39.9c0.1,0.2,0.3,1.2,0.4,1.6c0.1,0.4,0.2,0.9,0.4,1.3c0,0.1-0.1-0.1-0.2-0.1c0-0.1,0-0.1-0.1-0.1
				c-0.1,0-0.1-0.1-0.2-0.1c-0.3,0-1.7,0.4-2.4,0.7c-0.7,0.2-2.1,0.6-2.2,0.8s-0.1,0.2-0.1,0.3c0,0.1-0.1,0.3-0.1,0.2
				c0-0.3-0.1-0.6-0.2-0.9c-0.1-0.4-0.6-2.1-0.6-2.1c0-0.1-0.1-0.1,0-0.1c0.2-0.1,0.4-0.2,0.6-0.3c0.1-0.1,0.1,0,0,0.1
				s-0.1,0.1-0.1,0.4c0.1,0.5,0.2,1,0.4,1.5c0,0,0.7-0.2,0.9-0.3c0.2-0.1,1-0.3,1-0.3c-0.1-0.5-0.3-0.9-0.4-1.4
				c-0.1-0.1-0.2-0.1-0.3-0.1s-0.2-0.1-0.1-0.1c0.4-0.1,0.8-0.2,1.2-0.4c0.1-0.1,0,0.1-0.1,0.1c-0.1,0.1-0.2,0.1-0.2,0.3
				c0,0.3,0.1,0.5,0.2,0.7c0.1,0.1,0.2,0.6,0.2,0.6s1.2-0.4,1.5-0.5s0.4-0.1,0.3-0.5c-0.1-0.5-0.2-1-0.4-1.4
				c-0.1-0.2-0.3-0.3-0.3-0.3c0-0.1-0.2-0.2-0.1-0.1c0.3,0.1,0.6,0.2,0.8,0.3C240.9,39.7,240.9,39.8,241,39.9z"/>
			<path fill="#010202" d="M247.1,20.3c-0.1,0.1-1.2,1.3-1.5,1.7c-0.1,0.1-0.3,0.4-0.4,0.5c-0.1,0.1-0.1-0.1,0-0.1
				c0.1-0.1,0.1-0.1,0-0.3c-0.1-0.3-1.3-1.3-1.9-1.8s-1.5-1.4-1.8-1.4c-0.1,0-0.2,0-0.3,0.1c-0.1,0-0.2,0.1-0.1,0
				c0.1-0.1,0.3-0.3,0.6-0.6c0.3-0.3,1.5-1.5,1.5-1.6c0-0.1,0.1-0.1,0.1,0c0.1,0.2,0.3,0.3,0.5,0.4c0.2,0.1,0,0.1-0.1,0.1
				s-0.1-0.1-0.3,0.1c-0.3,0.2-1,1-1,1l1.4,1.3c0,0,1-0.9,1-1.1c0-0.2,0-0.2,0-0.2c0-0.1,0-0.2,0.1-0.1c0.2,0.3,0.5,0.5,0.8,0.7
				c0.1,0.1,0,0.1-0.1,0.1c-0.1-0.1-0.1-0.1-0.3,0c-0.2,0.1-1,1-1,1s1,0.9,1.2,1c0.3,0.2,0.4,0.2,0.7,0c0.4-0.3,0.7-0.7,0.9-1.1
				c0.1-0.1,0.1-0.3,0.1-0.4c0-0.1,0.1-0.2,0.1-0.1c0,0.1,0.2,0.7,0.2,0.8C247.2,20.1,247.1,20.2,247.1,20.3z"/>
			<path fill="#010202" d="M240.6,37.2c0,0.3,0,0.6,0.1,0.9c0,0.1-0.1,0-0.1-0.1c0-0.1,0-0.1-0.1-0.2c-0.2-0.1-1.5,0-2.3,0.1
				c-0.7,0.1-2.4,0.2-2.6,0.3c-0.1,0.1-0.1,0.2-0.1,0.3c0,0.1-0.1,0.3-0.1,0.1c0-0.1,0-0.6,0-0.8c0-0.2-0.2-1.4-0.1-1.8
				c0.1-0.7,0.7-1.2,1.4-1.2c0.6,0,1.1,0.3,1.3,0.9c0.1-0.1,0.2-0.2,0.3-0.3c0.3-0.2,2.1-1.3,2.2-1.6c0.1-0.1,0.1-0.2,0-0.4
				c0-0.2,0-0.4,0.1,0c0.1,0.2,0.1,0.8-0.1,1.2c-0.3,0.5-1.3,1.1-1.5,1.2c-0.2,0.1-0.8,0.5-0.8,0.8c0,0.2,0,0.3,0.1,0.5
				c0,0,0.8-0.1,1-0.1c0.2,0,1.1-0.1,1.2-0.2c0.1-0.1,0.1-0.1,0.1-0.2c0-0.1,0.1-0.3,0.1,0C240.6,36.8,240.5,37,240.6,37.2z
				 M237.3,35.9c-0.6-0.4-1.3-0.2-1.7,0.3c-0.2,0.4-0.1,1.1-0.1,1.1s1-0.1,1.1-0.1c0.2,0,1.2-0.1,1.2-0.1S237.9,36.2,237.3,35.9z"/>
			<path fill="#010202" d="M262.8,21.1c-0.1,0.2,0.3-3.5,0.3-3.5c-1.7,1.9-1.5,3.2-1.5,3.2c-1.7-1.9-0.5-4.5-0.5-4.5
				c-3.8,2.5-1.8,5.1-1.8,5.1c-2.5-0.2-3.8-3-3.6-4.4s1.3-2.5,2.4-4.7c1.1-2.2-0.5-3.3-0.5-3.3c5,1.3,3,5,3,5
				c2.7-1.6,0.5-4.2,0.5-4.2c3.4,0.5,2.8,3.6,2.8,3.6c2.7-1.7,2.9-4,2.9-4c1.1,2.3-0.3,4.4-0.3,4.4c2.3-2.1,4.6-1.5,4.6-1.5
				c-0.7,0.4-1.2,0.9-1.5,1.6c0.8-0.3,1.6-0.3,2.4-0.1c-1.4,1.2-1.5,1.7-2.1,2.8c-0.6,1.1-0.4,1.5-1.5,3.1c-1,1.6-3.4,1.7-3.5,1.7
				c0,0,0.5-0.9,0.4-2.6C264.9,18.7,263.5,19.2,262.8,21.1z"/>
			<path fill="#010202" d="M256.5,22.3v0.8h0.1c1.3,0,3.8,0.6,4.1,9.8c0.1,3.3,0.3,22.1,0.3,22.1h2.2c0,0,0.3-19.7,0.4-22.1
				c0.2-4.7,0.7-9.7,4.1-9.7v-0.8L256.5,22.3L256.5,22.3z"/>
			<path fill="#010202" d="M264.7,42.1c0.3,0.1,0.4,0.6,0.2,1c-0.1,0.4-0.5,0.6-0.9,0.5c0,0,0,0,0,0c-0.3-0.1-0.4-0.6-0.2-1
				C263.9,42.1,264.3,41.9,264.7,42.1C264.7,42.1,264.7,42.1,264.7,42.1z"/>
			<path fill="#010202" d="M255.9,44.9c0.2,0.3,0.1,0.8-0.3,1c0,0,0,0,0,0c-0.3,0.3-0.7,0.2-1,0c-0.2-0.3-0.1-0.7,0.3-1
				C255.3,44.6,255.7,44.6,255.9,44.9z"/>
			<path fill="#010202" d="M274,33.5c-0.7,0.9-3.3,3.3-3.3,3.3s-1.9,1.3-2.4,1.2l-3-0.1c0,0,0.3-2,0.7-2.8c0.4-0.8,1.1-3.3,1.5-3.6
				c0.4-0.4-0.2-1.2-0.5-0.4s-1.6,3.6-1.7,4c-0.1,0.5-0.5,2.6-0.8,2.9s-3.6,2-4.7,2.1c-0.1,0-1.4,3.7-1.3,3.8c0.5,0.7,1.5,3,1.9,3.6
				c0.1,0.2,2.6,1.9,3.4,2.8c0.7,0.9,1.8,3,1.8,3h0.1l0.6-1.4c0,0-1.1-1.5-1.8-2.7c0,0-2.9-1.6-3.6-2.6c-0.5-0.7-1.4-2.3-1.4-2.8
				c0-0.5,0.8-2.8,1.1-3c0.3-0.2,4.1-2,4.6-2.1c1.1-0.1,2.3-0.1,3.4,0.1c0.2,0,2.1-1.3,2.9-1.6c0.1-0.1,2-2.4,3.4-3.4
				C275.5,33.1,274.3,33.1,274,33.5z"/>
			<path fill="#010202" d="M278.7,30.8c0.1,0.4-0.1,0.8-0.4,0.9c-0.4,0.2-0.8,0.1-1-0.2c-0.1-0.4,0.1-0.8,0.4-0.9
				C278.1,30.3,278.6,30.4,278.7,30.8z"/>
			<path fill="#010202" d="M275.8,35.1c0.1,0.3-0.2,0.7-0.7,0.7s-0.8-0.1-0.9-0.5c-0.1-0.3,0.2-0.7,0.7-0.7S275.7,34.7,275.8,35.1z"
				/>
			<path fill="#010202" d="M272.3,38.6c0.1,0.3-0.2,0.7-0.7,0.7s-0.8-0.1-0.9-0.5c-0.1-0.3,0.2-0.7,0.7-0.7S272.2,38.3,272.3,38.6z"
				/>
			<path fill="#010202" d="M271.3,28.5c0.2,0.4,0.1,0.8-0.3,1c-0.4,0.3-0.8,0.3-1.1,0c-0.2-0.4,0.1-0.9,0.5-1.1
				C270.8,28.2,271.1,28.3,271.3,28.5z"/>
			<path fill="#010202" d="M258.5,43.7c0-0.2-1-0.9-2.7-1c-1.2,0-2.4,0.1-3.6,0.4c-0.3,0.1-0.3,0.3,0,0.4c0,0,1.9,0.7,3.4,0.7
				C256.7,44.3,258.5,44.1,258.5,43.7z"/>
			<path fill="#010202" d="M258.5,43.8c-0.2-0.1-1.3,0.4-2.2,1.9c-0.6,1-1,2.2-1.3,3.3c-0.1,0.3,0.1,0.4,0.4,0.2
				c0,0,1.5-1.3,2.3-2.6C258.2,45.8,258.9,44,258.5,43.8z"/>
			<path fill="#010202" d="M259.9,40.2c0.2,0,0.7-1.1,0.4-2.7c-0.2-1.1-0.6-2.2-1.1-3.2c-0.1-0.3-0.3-0.2-0.4,0.1c0,0-0.3,1.9,0,3.3
				C259,38.6,259.6,40.3,259.9,40.2z"/>
			<path fill="#010202" d="M261.5,47.3c0.1,0.1,1.4,0,2.6-1.2c0.9-0.8,1.6-1.8,2.3-2.8c0.1-0.2,0-0.4-0.3-0.3c0,0-1.9,0.8-2.9,1.8
				C262.4,45.6,261.2,47,261.5,47.3z"/>
			<path fill="#010202" d="M274.4,33.6c0.1,0.2,1.1,0.6,2.6,0.2c1-0.3,2-0.7,3-1.2c0.2-0.1,0.2-0.3-0.1-0.3c0,0-1.8-0.1-3.1,0.2
				C275.9,32.6,274.3,33.2,274.4,33.6z"/>
			<path fill="#010202" d="M274.2,33.5c0.2,0.1,1.2-0.3,2-1.6c0.6-0.9,1-1.9,1.3-2.9c0.1-0.3-0.1-0.4-0.3-0.2c0,0-1.4,1.1-2.1,2.2
				C274.6,31.7,273.8,33.3,274.2,33.5z"/>
			<path fill="#010202" d="M270.9,37.1c0,0.2,0.9,0.8,2.5,0.7c1.1-0.1,2.1-0.2,3.2-0.5c0.3-0.1,0.3-0.3-0.1-0.4c0,0-1.8-0.5-3.1-0.5
				C272.6,36.5,270.9,36.8,270.9,37.1z"/>
			<path fill="#010202" d="M270.6,36.9c0.2,0.1,1.2-0.4,1.9-1.8c0.5-1,0.8-2,1.1-3c0.1-0.3-0.1-0.4-0.3-0.1c0,0-1.3,1.3-1.9,2.4
				C270.9,35.2,270.3,36.8,270.6,36.9z"/>
			<path fill="#010202" d="M268.2,38.4c-0.1,0.2,0.3,1.3,1.6,2.4c1,0.7,2,1.3,3.1,1.7c0.3,0.1,0.4-0.1,0.2-0.3c0,0-1.1-1.7-2.3-2.5
				C270,39,268.4,38.1,268.2,38.4z"/>
			<path fill="#010202" d="M267.5,31.3c0,0.2,1,0.5,2.3,0.2c0.9-0.3,1.8-0.6,2.7-1.1c0.2-0.1,0.2-0.3-0.1-0.3
				c-0.9-0.1-1.9,0-2.8,0.1C268.8,30.4,267.4,31,267.5,31.3z"/>
			<path fill="#010202" d="M267.1,31.2c0.1,0.1,1.1-0.3,1.8-1.5c0.5-0.8,0.9-1.7,1.2-2.7c0.1-0.2-0.1-0.3-0.3-0.1c0,0-1.3,1.1-1.9,2
				C267.5,29.6,266.9,31,267.1,31.2z"/>
			<path fill="#010202" d="M265.4,35.1c-0.2,0-0.8-0.8-0.8-2.2c0-1,0.1-1.9,0.3-2.9c0.1-0.2,0.2-0.3,0.3,0c0.3,0.9,0.5,1.8,0.6,2.7
				C265.9,33.5,265.8,35,265.4,35.1z"/>
			<path fill="#010202" d="M265.8,35.1c-0.1-0.1,0.3-1.1,1.6-1.7c0.8-0.5,1.8-0.8,2.7-1c0.2-0.1,0.3,0.1,0.1,0.3
				c-0.6,0.7-1.3,1.3-2.1,1.8C267.3,34.8,265.9,35.3,265.8,35.1z"/>
			<path fill="#010202" d="M267.4,39.2c0.2,0.3,0.1,0.8-0.3,1c-0.3,0.3-0.7,0.2-1,0c-0.2-0.3-0.1-0.8,0.3-1
				C266.7,38.8,267.2,38.9,267.4,39.2z"/>
			<path fill="#010202" d="M258,29.3c-0.3,0-0.5,0.2-0.5,0.5c0,0,0,0,0,0c0,0.1,0.1,0.3,0.1,0.3c-0.1,0-0.1,0-0.2,0
				c-0.4,0-0.7,0.3-0.7,0.7c0,0.4,0.3,0.7,0.6,0.7c0,0,0,0,0,0c0.1,0,0.1,0,0.2,0c-0.2,0.5-0.6,0.8-1.1,0.8c-1,0-1.4-1.1-1.4-1.3
				c0.1,0.3,0.3,0.5,0.6,0.5c0.4,0,0.7-0.3,0.7-0.6c0-0.4-0.3-0.7-0.6-0.7c0,0-0.1,0-0.1,0c-0.1,0-0.1,0-0.2,0
				c0.1-0.1,0.2-0.3,0.2-0.5c0-0.4-0.3-0.6-0.7-0.6c-0.3,0-0.6,0.3-0.6,0.6c0,0.2,0.1,0.4,0.2,0.5c-0.1,0-0.1-0.1-0.2-0.1
				c-0.4,0-0.7,0.3-0.7,0.7c0,0.4,0.3,0.7,0.7,0.7c0.3,0,0.6-0.2,0.6-0.5c0,0.3-0.6,1.3-1.4,1.3c-0.5,0-1-0.3-1.1-0.8
				c0.1,0,0.1,0,0.2,0c0.4,0,0.7-0.3,0.7-0.6c0,0,0,0,0,0c0-0.4-0.3-0.7-0.7-0.7c-0.1,0-0.1,0-0.2,0c0.1-0.1,0.1-0.2,0.1-0.3
				c0-0.3-0.2-0.5-0.5-0.5c-0.1,0-0.2,0-0.3,0.1c0.1,0.6,0.2,1.2,0.3,1.8l0.5,2.8h4.9v-0.1l0.5-2.8c0.1-0.7,0.2-1.4,0.3-1.8
				C258.3,29.3,258.3,29.3,258,29.3z"/>
			<path fill="#010202" d="M249.9,29.3c-0.3,0-0.5,0.2-0.5,0.5c0,0,0,0,0,0c0,0.1,0.1,0.3,0.1,0.3c-0.1,0-0.1,0-0.2,0
				c-0.4,0-0.7,0.3-0.7,0.7c0,0.4,0.3,0.7,0.6,0.7c0,0,0,0,0,0c0.1,0,0.1,0,0.2,0c-0.2,0.5-0.6,0.8-1.1,0.8c-1,0-1.4-1.1-1.4-1.3
				c0.1,0.3,0.3,0.5,0.6,0.5c0.4,0,0.6-0.3,0.6-0.7c0-0.3-0.3-0.6-0.6-0.6c-0.1,0-0.1,0-0.2,0c0.1-0.1,0.2-0.3,0.2-0.5
				c0-0.4-0.3-0.7-0.7-0.7c-0.4,0-0.7,0.3-0.7,0.7c0,0.2,0.1,0.4,0.2,0.5c-0.1,0-0.1-0.1-0.2-0.1c-0.4,0-0.7,0.3-0.7,0.7
				c0,0.4,0.3,0.7,0.7,0.7c0.3,0,0.6-0.2,0.6-0.5c0,0.3-0.6,1.3-1.4,1.3c-0.5,0-1-0.3-1.1-0.8c0.1,0,0.1,0,0.2,0
				c0.4,0,0.7-0.3,0.7-0.6c0,0,0,0,0,0c0-0.4-0.3-0.7-0.7-0.7c-0.1,0-0.1,0-0.2,0c0.1-0.1,0.1-0.2,0.1-0.3c0-0.3-0.2-0.5-0.5-0.5
				c0,0,0,0,0,0c-0.1,0-0.2,0-0.3,0.1c0.1,0.6,0.2,1.2,0.3,1.8l0.5,2.8h5v-0.1l0.5-2.8c0.1-0.7,0.2-1.4,0.3-1.8
				C250.3,29.3,250.2,29.3,249.9,29.3z"/>
			<path fill="#010202" d="M254.3,35.2c-0.3,0-0.6,0.3-0.6,0.6c0,0.1,0.1,0.3,0.2,0.4c-0.1,0-0.1,0-0.2,0c-0.4,0-0.8,0.3-0.8,0.7
				c0,0.4,0.3,0.8,0.7,0.8c0,0,0.1,0,0.1,0c0.1,0,0.1,0,0.2,0c-0.2,0.5-0.7,0.9-1.2,0.9c-1.1,0-1.5-1.2-1.6-1.5
				c0.1,0.3,0.4,0.5,0.7,0.5c0.4,0,0.7-0.4,0.7-0.8c0-0.4-0.3-0.7-0.7-0.7c-0.1,0-0.1,0-0.2,0c0.2-0.1,0.2-0.3,0.3-0.5
				c0-0.4-0.4-0.7-0.8-0.7c-0.4,0-0.7,0.3-0.7,0.7c0,0.2,0.1,0.4,0.3,0.6c-0.1,0-0.2-0.1-0.2-0.1c-0.4,0-0.8,0.3-0.8,0.7
				c0,0.4,0.3,0.8,0.7,0.8c0,0,0.1,0,0.1,0c0.3,0,0.6-0.2,0.7-0.5c0,0.3-0.7,1.5-1.6,1.5c-0.6,0-1.1-0.3-1.2-0.9c0.1,0,0.1,0,0.2,0
				c0.4,0,0.8-0.3,0.8-0.7c0-0.4-0.3-0.8-0.7-0.8c0,0-0.1,0-0.1,0c-0.1,0-0.1,0-0.2,0c0.1-0.1,0.2-0.2,0.2-0.4
				c0-0.3-0.3-0.6-0.6-0.6c-0.1,0-0.3,0-0.4,0.1c0.1,0.6,0.3,1.8,0.4,2l0.5,3.2h5.5v-0.1l0.5-3c0.1-0.7,0.3-1.6,0.3-2
				C254.6,35.2,254.5,35.2,254.3,35.2z"/>
		</g>
	</g>
</g>
<g id="Centrumnamn">
	<g>
		<path fill="#010202" d="M91.5,67.1v2.3c0.3,0.1,0.7,0.3,1.3,0.4c0.6,0.1,1.2,0.2,1.9,0.2c1.1,0,2-0.2,2.7-0.7c0.7-0.5,1-1.2,1-2.2
			c0-0.7-0.2-1.2-0.7-1.6c-0.4-0.3-1.1-0.6-2.1-0.9l-3.1-0.9c-0.5-0.2-1-0.3-1.4-0.6s-0.9-0.5-1.2-0.9s-0.6-0.8-0.8-1.3
			c-0.2-0.5-0.3-1.1-0.3-1.8c0-0.9,0.2-1.6,0.5-2.3c0.3-0.6,0.8-1.2,1.4-1.6c0.6-0.4,1.3-0.7,2.1-1c0.8-0.2,1.7-0.3,2.6-0.3
			c1.1,0,2.2,0.1,3,0.3c0.9,0.2,1.6,0.4,2.3,0.6v3.9H98v-2.1c-0.2-0.1-0.5-0.2-0.9-0.3c-0.4-0.1-1-0.1-1.7-0.1
			c-0.6,0-1.2,0.1-1.7,0.2c-0.5,0.1-0.8,0.3-1.1,0.6c-0.3,0.2-0.5,0.5-0.6,0.8c-0.1,0.3-0.2,0.6-0.2,1c0,0.4,0.1,0.7,0.2,1
			s0.3,0.5,0.6,0.7s0.5,0.3,0.9,0.5s0.7,0.2,1.1,0.3l2.7,0.7c0.5,0.1,1,0.3,1.5,0.5c0.5,0.2,1,0.5,1.4,0.9c0.4,0.4,0.7,0.8,1,1.4
			s0.4,1.2,0.4,2c0,1.8-0.6,3.1-1.8,4.1c-1.2,1-2.8,1.5-4.9,1.5c-0.3,0-0.7,0-1.2-0.1c-0.5,0-1.1-0.1-1.6-0.2s-1.1-0.2-1.6-0.3
			c-0.5-0.1-1-0.2-1.4-0.4v-4.2H91.5z"/>
		<path fill="#010202" d="M102.8,59h2l0-2.9l2.8-0.2l-0.1,3.1h3.7v2h-3.7c0,1,0,2.1,0,3.1s0,2,0,3c0,0.6,0,1.1,0.1,1.5
			c0.1,0.4,0.2,0.7,0.3,0.9c0.1,0.2,0.3,0.4,0.6,0.5c0.2,0.1,0.5,0.1,0.8,0.1c0.4,0,0.8,0,1.1-0.1c0.4-0.1,0.7-0.2,1-0.4l-0.1,2.1
			c-0.4,0.2-0.8,0.3-1.3,0.5c-0.5,0.1-1,0.2-1.6,0.2c-0.7,0-1.3-0.1-1.8-0.2c-0.5-0.1-0.9-0.4-1.2-0.7c-0.3-0.3-0.5-0.7-0.7-1.2
			c-0.1-0.5-0.2-1.1-0.2-1.9c0-0.4,0-0.9,0-1.5c0-0.6,0-1.2,0-1.9c0-0.7,0-1.3,0-2c0-0.7,0-1.3,0-1.9h-2V59z"/>
		<path fill="#010202" d="M112.2,65.8c0-1.1,0.2-2,0.5-2.9c0.3-0.9,0.8-1.6,1.4-2.2c0.6-0.6,1.3-1.1,2.1-1.4
			c0.8-0.3,1.8-0.5,2.8-0.5c1.2,0,2.2,0.2,3,0.6c0.8,0.4,1.5,1,2,1.6s0.8,1.4,1.1,2.2s0.3,1.6,0.3,2.4c0,0.9-0.1,1.8-0.4,2.6
			c-0.3,0.8-0.7,1.5-1.3,2.1c-0.6,0.6-1.3,1.1-2.1,1.5c-0.8,0.3-1.8,0.5-2.9,0.5c-1.2,0-2.2-0.2-3-0.5c-0.8-0.4-1.5-0.9-2-1.5
			c-0.5-0.6-0.9-1.3-1.1-2.1C112.3,67.4,112.2,66.6,112.2,65.8z M115.1,65.7c0,0.5,0.1,1.1,0.2,1.6s0.4,1,0.7,1.4
			c0.3,0.4,0.7,0.7,1.1,1c0.5,0.2,1,0.4,1.6,0.4c0.6,0,1.2-0.1,1.6-0.4c0.5-0.2,0.9-0.6,1.1-1c0.3-0.4,0.5-0.9,0.7-1.5
			s0.2-1.2,0.2-1.8c0-0.7-0.1-1.4-0.3-1.9c-0.2-0.5-0.4-1-0.7-1.3c-0.3-0.3-0.7-0.6-1.1-0.8c-0.4-0.2-0.9-0.2-1.4-0.2
			c-0.7,0-1.3,0.1-1.8,0.4s-0.9,0.6-1.2,1s-0.5,0.9-0.6,1.5C115.2,64.5,115.1,65.1,115.1,65.7z"/>
		<path fill="#010202" d="M135.3,61.1c-0.2-0.1-0.4-0.1-0.7-0.2c-0.3,0-0.6-0.1-0.9-0.1c-0.6,0-1.2,0.1-1.7,0.3
			c-0.5,0.2-0.9,0.5-1.2,0.9c-0.3,0.4-0.6,0.9-0.7,1.4c-0.2,0.5-0.2,1.1-0.2,1.7c0,0.6,0.1,1.1,0.2,1.7c0.2,0.6,0.4,1,0.8,1.5
			c0.4,0.4,0.8,0.8,1.4,1.1c0.6,0.3,1.3,0.4,2.2,0.4c0.6,0,1.3-0.1,1.9-0.2s1.1-0.3,1.4-0.5l-0.2,2.4c-0.3,0.1-0.7,0.3-1.4,0.4
			c-0.6,0.2-1.4,0.2-2.2,0.2c-1.3,0-2.4-0.2-3.3-0.6c-0.9-0.4-1.6-0.9-2.1-1.6c-0.5-0.6-0.9-1.4-1.2-2.2c-0.2-0.8-0.4-1.6-0.4-2.4
			c0-1,0.1-1.9,0.5-2.8c0.3-0.8,0.7-1.6,1.3-2.2c0.6-0.6,1.3-1.1,2.2-1.4s1.9-0.5,3-0.5c1,0,1.8,0.1,2.4,0.2c0.6,0.2,1,0.3,1.3,0.4
			V63h-2.4V61.1z"/>
		<path fill="#010202" d="M139.4,69.9h1.6l0.1-15.1h-2.3v-2h5.1l-0.1,11.9l4.6-3.6v0h-1.9v-2h6.1v2h-1.3l-4.7,3.9l5,5h1.5v2h-6.2v-2
			h1.5l-4.7-4.5v4.5h1.6v2h-5.9V69.9z"/>
		<path fill="#010202" d="M154.7,69.9h1.5l0.1-15.1h-1.9v-2h4.8l-0.1,6.2c0,0.4,0,0.9-0.1,1.3c-0.1,0.5-0.1,1-0.2,1.5h0
			c0.1-0.4,0.3-0.8,0.6-1.2c0.2-0.4,0.6-0.7,0.9-1c0.4-0.3,0.8-0.5,1.3-0.7c0.5-0.2,1.1-0.3,1.7-0.3c1.5,0,2.7,0.4,3.4,1.3
			c0.7,0.9,1.1,2.1,1.1,3.7c0,1.1,0,2.1,0,3.1c0,1,0,2.1-0.1,3.1h1.7v2h-6v-2h1.5c0-1,0-1.9,0.1-2.9c0-1,0-1.9,0-2.9
			c0-0.9-0.2-1.7-0.6-2.3c-0.4-0.6-1.1-0.9-2-0.9c-1,0-1.8,0.4-2.4,1.1c-0.6,0.7-1,1.7-1,2.9l-0.1,5h1.8v2h-6V69.9z"/>
		<path fill="#010202" d="M170.5,65.8c0-1.1,0.2-2,0.5-2.9c0.3-0.9,0.8-1.6,1.4-2.2c0.6-0.6,1.3-1.1,2.2-1.4
			c0.8-0.3,1.8-0.5,2.8-0.5c1.2,0,2.2,0.2,3,0.6c0.8,0.4,1.5,1,2,1.6s0.8,1.4,1.1,2.2s0.3,1.6,0.3,2.4c0,0.9-0.1,1.8-0.4,2.6
			c-0.3,0.8-0.7,1.5-1.3,2.1s-1.3,1.1-2.1,1.5c-0.8,0.3-1.8,0.5-2.9,0.5c-1.2,0-2.2-0.2-3-0.5c-0.8-0.4-1.5-0.9-2-1.5
			c-0.5-0.6-0.9-1.3-1.1-2.1C170.6,67.4,170.5,66.6,170.5,65.8z M173.4,65.7c0,0.5,0.1,1.1,0.2,1.6s0.4,1,0.7,1.4
			c0.3,0.4,0.7,0.7,1.1,1c0.5,0.2,1,0.4,1.6,0.4c0.6,0,1.2-0.1,1.7-0.4c0.5-0.2,0.8-0.6,1.1-1s0.5-0.9,0.7-1.5
			c0.1-0.6,0.2-1.2,0.2-1.8c0-0.7-0.1-1.4-0.3-1.9c-0.2-0.5-0.4-1-0.7-1.3s-0.7-0.6-1.1-0.8c-0.4-0.2-0.9-0.2-1.4-0.2
			c-0.7,0-1.3,0.1-1.8,0.4s-0.9,0.6-1.2,1s-0.5,0.9-0.7,1.5C173.5,64.5,173.4,65.1,173.4,65.7z"/>
		<path fill="#010202" d="M185,69.9h1.6l0.1-15.1h-2.3v-2h5.1l-0.1,17.2h1.8v2H185V69.9z"/>
		<path fill="#010202" d="M192.7,69.9h1.5l0-8.9h-1.8v-2h4.6c0,0.4,0,0.9-0.1,1.3c0,0.5-0.1,1-0.2,1.5h0c0.3-1,0.8-1.7,1.6-2.3
			s1.8-0.9,2.9-0.9c0.6,0,1.2,0.1,1.7,0.2c0.5,0.2,0.9,0.4,1.2,0.6s0.6,0.6,0.8,0.9c0.2,0.4,0.3,0.7,0.4,1.1h0
			c0.3-1,0.8-1.7,1.6-2.2c0.8-0.5,1.7-0.8,2.8-0.8c1.5,0,2.6,0.5,3.4,1.3c0.7,0.9,1.1,2.1,1.1,3.7c0,1.1,0,2.1,0,3.1
			c0,1,0,2.1-0.1,3.1h1.7v2h-6v-2h1.5c0-1,0.1-1.9,0.1-2.9c0-1,0-1.9,0-2.9c0-0.9-0.2-1.7-0.6-2.3c-0.4-0.6-1.1-0.9-2-0.9
			c-1,0-1.7,0.4-2.3,1.1c-0.6,0.7-0.9,1.7-0.9,2.9l-0.1,5h1.7v2h-5.9v-2h1.4l0-5.2c0-0.5,0-1-0.1-1.4s-0.2-0.8-0.4-1.2
			c-0.2-0.3-0.5-0.6-0.8-0.8s-0.8-0.3-1.3-0.3c-0.4,0-0.8,0.1-1.2,0.3s-0.7,0.4-1,0.8c-0.3,0.3-0.5,0.8-0.7,1.2
			c-0.2,0.5-0.3,1-0.3,1.6l-0.1,5h1.8v2h-6V69.9z"/>
		<path fill="#010202" d="M11.2,96.9H13l0.1-13.4h-1.8v-2H19c0.9,0,1.7,0.1,2.4,0.4c0.7,0.2,1.2,0.6,1.6,1c0.4,0.4,0.8,0.9,1,1.5
			c0.2,0.6,0.3,1.2,0.3,1.8c0,0.8-0.1,1.4-0.3,2s-0.5,1-0.9,1.4s-0.8,0.7-1.3,0.9c-0.5,0.2-1,0.3-1.6,0.4v0c0.5,0,0.9,0.2,1.2,0.6
			c0.4,0.4,0.7,0.8,1,1.3l1.9,3.2c0.2,0.4,0.5,0.7,0.8,0.8s0.5,0.2,0.8,0.2h0.7v2h-1.6c-0.4,0-0.7,0-1,0c-0.3,0-0.5-0.1-0.8-0.2
			c-0.2-0.1-0.5-0.3-0.7-0.6c-0.2-0.2-0.5-0.6-0.7-1l-2.4-4.1c-0.2-0.3-0.3-0.6-0.5-0.8c-0.1-0.2-0.3-0.3-0.4-0.5
			c-0.2-0.1-0.3-0.2-0.5-0.2c-0.2,0-0.3-0.1-0.5-0.1h-1.5l-0.1,5.4h2v2h-6.6V96.9z M18,89.3c1,0,1.8-0.2,2.4-0.8s0.9-1.2,0.9-2.2
			c0-0.9-0.3-1.6-0.8-2.1c-0.5-0.5-1.3-0.8-2.3-0.8h-2.3l0,5.8H18z"/>
		<path fill="#010202" d="M38.6,98.4c-0.5,0.2-1.1,0.4-1.9,0.6c-0.8,0.2-1.7,0.3-2.7,0.3c-1.1,0-2-0.2-2.9-0.5
			c-0.8-0.3-1.6-0.8-2.1-1.4c-0.6-0.6-1-1.3-1.4-2.1s-0.5-1.8-0.5-2.8c0-1,0.1-1.9,0.4-2.7c0.3-0.8,0.7-1.6,1.2-2.2
			c0.5-0.6,1.2-1.1,2-1.5c0.8-0.3,1.7-0.5,2.8-0.5c1,0,1.8,0.2,2.6,0.5s1.4,0.8,1.8,1.4s0.9,1.3,1.1,2.2s0.4,1.8,0.4,2.8v0.4h-9.3
			c0,0.6,0.1,1.2,0.3,1.7c0.2,0.5,0.5,0.9,0.9,1.3c0.4,0.4,0.9,0.6,1.4,0.8c0.5,0.2,1.1,0.3,1.8,0.3c0.8,0,1.6-0.1,2.3-0.3
			c0.7-0.2,1.3-0.4,1.9-0.7L38.6,98.4z M36.5,91v-0.2c0-0.3-0.1-0.6-0.2-0.9c-0.1-0.3-0.3-0.7-0.5-1s-0.5-0.6-0.9-0.8
			s-0.9-0.3-1.5-0.3s-1.1,0.1-1.5,0.3c-0.4,0.2-0.7,0.5-1,0.8c-0.3,0.3-0.5,0.7-0.6,1s-0.2,0.8-0.2,1.2H36.5z"/>
		<path fill="#010202" d="M48.8,89.7l-0.1-1.5c-0.2-0.1-0.5-0.2-0.8-0.3c-0.3-0.1-0.8-0.1-1.3-0.1c-0.3,0-0.7,0-1,0.1
			c-0.3,0-0.6,0.1-0.8,0.2c-0.2,0.1-0.5,0.3-0.6,0.5C44,88.7,44,89,44,89.3c0,0.5,0.2,0.8,0.5,1c0.4,0.2,0.7,0.3,1.1,0.4l3.2,0.6
			c0.4,0.1,0.7,0.2,1.1,0.3c0.4,0.1,0.7,0.3,1,0.6c0.3,0.3,0.5,0.6,0.7,1c0.2,0.4,0.3,1,0.3,1.6c0,0.9-0.2,1.6-0.5,2.1
			c-0.3,0.6-0.8,1-1.3,1.3c-0.5,0.3-1.2,0.6-1.9,0.7c-0.7,0.1-1.4,0.2-2.1,0.2c-1.1,0-2.1-0.1-2.9-0.3c-0.8-0.2-1.4-0.4-1.8-0.5
			L41.3,95h2.5l0.1,1.7c0.2,0.1,0.6,0.2,1,0.3c0.5,0.1,1,0.2,1.7,0.2c0.3,0,0.7,0,1-0.1c0.3-0.1,0.6-0.2,0.8-0.3
			c0.2-0.1,0.4-0.3,0.6-0.6s0.2-0.5,0.2-0.9c0-0.5-0.2-0.9-0.5-1.2c-0.4-0.2-0.8-0.4-1.3-0.5l-2.1-0.4c-0.5-0.1-1-0.2-1.5-0.4
			c-0.5-0.2-0.9-0.4-1.3-0.6c-0.4-0.3-0.7-0.6-1-1c-0.2-0.4-0.4-0.9-0.4-1.5c0-0.8,0.2-1.4,0.5-1.9c0.3-0.5,0.7-0.9,1.2-1.3
			c0.5-0.3,1.1-0.6,1.8-0.7c0.7-0.1,1.4-0.2,2.1-0.2c1.1,0,2,0.1,2.8,0.3c0.8,0.2,1.4,0.4,1.8,0.5l0.1,3.2H48.8z"/>
		<path fill="#010202" d="M53.6,96.9h1.7l0.1-8.9h-2v-2h4.8l0,11h1.8v2h-6.2V96.9z M54.8,81.4c0-0.5,0.2-1,0.6-1.4s0.8-0.6,1.4-0.6
			c0.5,0,1,0.2,1.4,0.6s0.6,0.8,0.6,1.4s-0.2,1-0.6,1.4s-0.8,0.6-1.4,0.6c-0.5,0-1-0.2-1.4-0.6S54.8,81.9,54.8,81.4z"/>
		<path fill="#010202" d="M61.4,96.9H63l0.1-15.1h-2.3v-2h5.1l-0.1,17.2h1.8v2h-6.1V96.9z"/>
		<path fill="#010202" d="M69.1,96.9h1.7l0.1-8.9h-2v-2h4.8l0,11h1.8v2h-6.2V96.9z M70.3,81.4c0-0.5,0.2-1,0.6-1.4s0.8-0.6,1.4-0.6
			c0.5,0,1,0.2,1.4,0.6s0.6,0.8,0.6,1.4s-0.2,1-0.6,1.4s-0.8,0.6-1.4,0.6c-0.5,0-1-0.2-1.4-0.6S70.3,81.9,70.3,81.4z"/>
		<path fill="#010202" d="M87.8,98.4c-0.5,0.2-1.1,0.4-1.9,0.6c-0.8,0.2-1.7,0.3-2.7,0.3c-1.1,0-2-0.2-2.9-0.5s-1.6-0.8-2.1-1.4
			c-0.6-0.6-1-1.3-1.4-2.1s-0.5-1.8-0.5-2.8c0-1,0.1-1.9,0.4-2.7c0.3-0.8,0.7-1.6,1.2-2.2c0.5-0.6,1.2-1.1,2-1.5
			c0.8-0.3,1.7-0.5,2.8-0.5c1,0,1.8,0.2,2.6,0.5s1.4,0.8,1.8,1.4s0.9,1.3,1.1,2.2s0.4,1.8,0.4,2.8v0.4h-9.3c0,0.6,0.1,1.2,0.3,1.7
			c0.2,0.5,0.5,0.9,0.9,1.3c0.4,0.4,0.9,0.6,1.4,0.8c0.5,0.2,1.1,0.3,1.8,0.3c0.8,0,1.6-0.1,2.3-0.3c0.7-0.2,1.3-0.4,1.9-0.7
			L87.8,98.4z M85.7,91v-0.2c0-0.3-0.1-0.6-0.2-0.9c-0.1-0.3-0.3-0.7-0.5-1s-0.5-0.6-0.9-0.8s-0.9-0.3-1.5-0.3s-1.1,0.1-1.5,0.3
			s-0.7,0.5-1,0.8c-0.3,0.3-0.5,0.7-0.6,1s-0.2,0.8-0.2,1.2H85.7z"/>
		<path fill="#010202" d="M90.2,96.9h1.5l0.1-8.9h-1.8v-2h4.6c0,0.4,0,0.9-0.1,1.3c0,0.5-0.1,1-0.2,1.5h0.1c0.1-0.4,0.3-0.8,0.6-1.2
			c0.2-0.4,0.6-0.7,0.9-1c0.4-0.3,0.8-0.5,1.3-0.7c0.5-0.2,1.1-0.3,1.7-0.3c1.5,0,2.7,0.4,3.4,1.3c0.7,0.9,1.1,2.1,1.1,3.7
			c0,1.1,0,2.1,0,3.1c0,1,0,2.1-0.1,3.1h1.7v2h-6v-2h1.5c0-1,0-1.9,0.1-2.9c0-1,0-1.9,0-2.9c0-0.9-0.2-1.7-0.6-2.3
			c-0.4-0.6-1.1-0.9-2-0.9c-1,0-1.8,0.4-2.4,1.1c-0.6,0.7-1,1.7-1,2.9l-0.1,5h1.8v2h-6V96.9z"/>
		<path fill="#010202" d="M114.4,88.1c-0.2-0.1-0.4-0.1-0.7-0.2c-0.3,0-0.6-0.1-0.9-0.1c-0.6,0-1.2,0.1-1.7,0.3
			c-0.5,0.2-0.9,0.5-1.2,0.9c-0.3,0.4-0.6,0.9-0.7,1.4c-0.2,0.5-0.2,1.1-0.2,1.7c0,0.6,0.1,1.1,0.2,1.7c0.2,0.6,0.4,1,0.8,1.5
			c0.4,0.4,0.8,0.8,1.4,1.1c0.6,0.3,1.3,0.4,2.2,0.4c0.6,0,1.3-0.1,1.9-0.2s1.1-0.3,1.4-0.5l-0.2,2.4c-0.3,0.1-0.7,0.3-1.4,0.4
			c-0.6,0.2-1.4,0.2-2.2,0.2c-1.3,0-2.4-0.2-3.3-0.6c-0.9-0.4-1.6-0.9-2.1-1.6c-0.5-0.6-0.9-1.4-1.2-2.2c-0.2-0.8-0.4-1.6-0.4-2.4
			c0-1,0.1-1.9,0.5-2.8c0.3-0.8,0.7-1.6,1.3-2.2c0.6-0.6,1.3-1.1,2.2-1.4s1.9-0.5,3-0.5c1,0,1.8,0.1,2.4,0.2c0.6,0.2,1,0.3,1.3,0.4
			V90h-2.4V88.1z"/>
		<path fill="#010202" d="M129.7,98.4c-0.5,0.2-1.1,0.4-1.9,0.6c-0.8,0.2-1.7,0.3-2.7,0.3c-1.1,0-2-0.2-2.9-0.5s-1.6-0.8-2.1-1.4
			c-0.6-0.6-1-1.3-1.4-2.1s-0.5-1.8-0.5-2.8c0-1,0.1-1.9,0.4-2.7c0.3-0.8,0.7-1.6,1.2-2.2c0.5-0.6,1.2-1.1,2-1.5
			c0.8-0.3,1.7-0.5,2.8-0.5c1,0,1.8,0.2,2.6,0.5c0.7,0.3,1.4,0.8,1.8,1.4s0.9,1.3,1.1,2.2s0.4,1.8,0.4,2.8v0.4h-9.3
			c0,0.6,0.1,1.2,0.3,1.7c0.2,0.5,0.5,0.9,0.9,1.3c0.4,0.4,0.9,0.6,1.4,0.8c0.5,0.2,1.1,0.3,1.8,0.3c0.8,0,1.6-0.1,2.3-0.3
			c0.7-0.2,1.3-0.4,1.9-0.7L129.7,98.4z M127.6,91v-0.2c0-0.3-0.1-0.6-0.2-0.9c-0.1-0.3-0.3-0.7-0.5-1s-0.5-0.6-0.9-0.8
			s-0.9-0.3-1.5-0.3s-1.1,0.1-1.5,0.3s-0.7,0.5-1,0.8c-0.3,0.3-0.5,0.7-0.6,1s-0.2,0.8-0.2,1.2H127.6z"/>
		<path fill="#010202" d="M150,86.6v-2.8c-0.3-0.1-0.7-0.2-1.2-0.3c-0.5-0.1-1.1-0.1-1.7-0.1c-2.1,0-3.7,0.6-4.8,1.8
			c-1.1,1.2-1.6,2.9-1.6,5.1c0,1,0.1,1.9,0.4,2.7s0.7,1.5,1.2,2.1c0.5,0.6,1.2,1.1,1.9,1.4c0.7,0.3,1.6,0.5,2.5,0.5
			c0.6,0,1.2,0,1.8-0.1c0.6-0.1,1-0.1,1.4-0.2l0.1-3.1h2.5l-0.1,4.8c-0.3,0.1-0.6,0.2-1,0.3s-0.9,0.2-1.3,0.3
			c-0.5,0.1-1,0.1-1.5,0.2c-0.5,0.1-1,0.1-1.6,0.1c-1.6,0-2.9-0.2-4.1-0.7c-1.2-0.5-2.1-1.1-2.9-1.9c-0.8-0.8-1.3-1.7-1.7-2.8
			c-0.4-1.1-0.6-2.2-0.6-3.5c0-1.4,0.2-2.6,0.7-3.7c0.4-1.1,1.1-2.1,1.9-2.9c0.8-0.8,1.8-1.5,3-1.9s2.5-0.7,3.9-0.7
			c1.1,0,2.1,0.1,3.1,0.3c1,0.2,1.8,0.4,2.3,0.7v4.5H150z"/>
		<path fill="#010202" d="M165.7,98.4c-0.5,0.2-1.1,0.4-1.9,0.6s-1.7,0.3-2.7,0.3c-1.1,0-2-0.2-2.9-0.5s-1.6-0.8-2.1-1.4
			c-0.6-0.6-1-1.3-1.4-2.1s-0.5-1.8-0.5-2.8c0-1,0.1-1.9,0.4-2.7c0.3-0.8,0.7-1.6,1.2-2.2c0.5-0.6,1.2-1.1,2-1.5
			c0.8-0.3,1.7-0.5,2.8-0.5c1,0,1.8,0.2,2.6,0.5c0.7,0.3,1.4,0.8,1.8,1.4s0.9,1.3,1.1,2.2s0.4,1.8,0.4,2.8v0.4h-9.3
			c0,0.6,0.1,1.2,0.3,1.7c0.2,0.5,0.5,0.9,0.9,1.3c0.4,0.4,0.9,0.6,1.4,0.8c0.5,0.2,1.1,0.3,1.8,0.3c0.8,0,1.6-0.1,2.3-0.3
			s1.3-0.4,1.9-0.7L165.7,98.4z M163.5,91v-0.2c0-0.3,0-0.6-0.2-0.9c-0.1-0.3-0.3-0.7-0.5-1s-0.5-0.6-0.9-0.8s-0.9-0.3-1.5-0.3
			s-1.1,0.1-1.5,0.3s-0.7,0.5-1,0.8c-0.3,0.3-0.5,0.7-0.6,1s-0.2,0.8-0.2,1.2H163.5z"/>
		<path fill="#010202" d="M168,96.9h1.5l0-8.9h-1.8v-2h4.6c0,0.4,0,0.9-0.1,1.3c0,0.5-0.1,1-0.2,1.5h0c0.1-0.4,0.3-0.8,0.6-1.2
			c0.2-0.4,0.6-0.7,0.9-1c0.4-0.3,0.8-0.5,1.3-0.7c0.5-0.2,1.1-0.3,1.7-0.3c1.5,0,2.7,0.4,3.4,1.3c0.7,0.9,1.1,2.1,1.1,3.7
			c0,1.1,0,2.1,0,3.1c0,1,0,2.1-0.1,3.1h1.7v2h-6v-2h1.5c0-1,0-1.9,0.1-2.9c0-1,0-1.9,0-2.9c0-0.9-0.2-1.7-0.6-2.3
			c-0.4-0.6-1.1-0.9-2-0.9c-1,0-1.8,0.4-2.4,1.1c-0.6,0.7-1,1.7-1,2.9l-0.1,5h1.8v2h-6V96.9z"/>
		<path fill="#010202" d="M183.4,86h2l0.1-2.9l2.8-0.2l-0.1,3.1h3.7v2h-3.7c0,1,0,2.1,0,3.1c0,1,0,2,0,3c0,0.6,0,1.1,0.1,1.5
			c0.1,0.4,0.2,0.7,0.3,0.9c0.2,0.2,0.3,0.4,0.6,0.5c0.2,0.1,0.5,0.1,0.8,0.1c0.4,0,0.8,0,1.1-0.1c0.4-0.1,0.7-0.2,1-0.4l-0.1,2.1
			c-0.3,0.2-0.8,0.3-1.3,0.5c-0.5,0.1-1,0.2-1.6,0.2c-0.7,0-1.3-0.1-1.8-0.2c-0.5-0.1-0.9-0.4-1.2-0.7s-0.5-0.7-0.7-1.2
			c-0.1-0.5-0.2-1.1-0.2-1.9c0-0.4,0-0.9,0-1.5c0-0.6,0-1.2,0-1.9c0-0.7,0-1.3,0-2c0-0.7,0-1.3,0-1.9h-2V86z"/>
		<path fill="#010202" d="M193.4,96.9h1.6l0-8.9h-2v-2h4.6c0,0.5,0,1,0,1.7c0,0.6-0.1,1.3-0.1,1.9l0.1,0.1c0.2-1.2,0.7-2.2,1.4-2.9
			c0.7-0.7,1.5-1,2.4-1c0.3,0,0.6,0,0.9,0.1c0.3,0,0.5,0.1,0.6,0.1l-0.3,2.5c-0.2-0.1-0.4-0.1-0.6-0.2c-0.2,0-0.4,0-0.7,0
			c-0.6,0-1.2,0.1-1.6,0.4c-0.4,0.3-0.8,0.6-1.1,1.1s-0.5,0.9-0.6,1.5s-0.2,1.1-0.2,1.7l-0.1,4h1.9v2h-6.3V96.9z"/>
		<path fill="#010202" d="M215,98.4c-0.5,0.2-1.1,0.4-1.9,0.6s-1.7,0.3-2.7,0.3c-1.1,0-2-0.2-2.9-0.5s-1.6-0.8-2.1-1.4
			c-0.6-0.6-1-1.3-1.4-2.1s-0.5-1.8-0.5-2.8c0-1,0.1-1.9,0.4-2.7c0.3-0.8,0.7-1.6,1.2-2.2c0.5-0.6,1.2-1.1,2-1.5
			c0.8-0.3,1.7-0.5,2.8-0.5c1,0,1.8,0.2,2.6,0.5c0.7,0.3,1.4,0.8,1.8,1.4s0.9,1.3,1.1,2.2s0.4,1.8,0.4,2.8v0.4h-9.3
			c0,0.6,0.1,1.2,0.3,1.7c0.2,0.5,0.5,0.9,0.9,1.3c0.4,0.4,0.9,0.6,1.4,0.8c0.5,0.2,1.1,0.3,1.8,0.3c0.8,0,1.6-0.1,2.3-0.3
			s1.3-0.4,1.9-0.7L215,98.4z M212.8,91v-0.2c0-0.3,0-0.6-0.2-0.9c-0.1-0.3-0.3-0.7-0.5-1s-0.5-0.6-0.9-0.8s-0.9-0.3-1.5-0.3
			s-1.1,0.1-1.5,0.3s-0.7,0.5-1,0.8c-0.3,0.3-0.5,0.7-0.6,1s-0.2,0.8-0.2,1.2H212.8z"/>
	</g>
	<g>
	</g>
	<g>
	</g>
	<g>
	</g>
	<g>
	</g>
	<g>
	</g>
	<g>
	</g>
</g>
</svg>
