<?xml version="1.0" encoding="UTF-8" standalone="no"?>
<svg
   version="1.0"
   width="1449.2515"
   height="680.99963"
   xml:space="preserve"
   id="svg16"
   sodipodi:docname="SCA Logo center.svg"
   viewBox="0 0 1799.999 845.815"
   inkscape:version="1.2-alpha (0bd5040e, 2022-02-05)"
   xmlns:inkscape="http://www.inkscape.org/namespaces/inkscape"
   xmlns:sodipodi="http://sodipodi.sourceforge.net/DTD/sodipodi-0.dtd"
   xmlns="http://www.w3.org/2000/svg"
   xmlns:svg="http://www.w3.org/2000/svg"><defs
     id="defs20" /><sodipodi:namedview
     id="namedview18"
     pagecolor="#ffffff"
     bordercolor="#666666"
     borderopacity="1.0"
     inkscape:pageshadow="2"
     inkscape:pageopacity="0.0"
     inkscape:pagecheckerboard="0"
     inkscape:blackoutopacity="0.0"
     showgrid="false"
     inkscape:zoom="0.55469312"
     inkscape:cx="888.77973"
     inkscape:cy="303.77157"
     inkscape:window-width="1390"
     inkscape:window-height="847"
     inkscape:window-x="0"
     inkscape:window-y="170"
     inkscape:window-maximized="0"
     inkscape:current-layer="svg16" /><switch
     id="switch14"
     transform="matrix(0.97270384,0,0,0.97270384,-202.32346,-184.36901)"><g
       id="g12"><circle
         fill="#ffffff"
         cx="681.09399"
         cy="624.31799"
         r="367.48001"
         id="circle2" /><path
         fill="#589fcd"
         d="m 682.007,224.318 c -220.91,0 -400,179.08 -400,400 0,220.91 179.09,400 400,400 220.92,0 400,-179.09 400,-400 0,-220.92 -179.08,-400 -400,-400 z m 0,750.28 c -193.3,0 -350,-156.7 -350,-350 0,-193.3 156.7,-350 350,-350 193.3,0 350,156.7 350,350 0,193.3 -156.7,350 -350,350 z"
         id="path4" /><path
         fill="#589fcd"
         stroke="#ffffff"
         stroke-width="3"
         stroke-miterlimit="10"
         d="m 681.778,296.861 c -180.873,0 -327.5,146.627 -327.5,327.5 0,180.873 146.627,327.5 327.5,327.5 180.873,0 327.5,-146.627 327.5,-327.5 0,-180.873 -146.627,-327.5 -327.5,-327.5 z m 307.14,269.249 h -28.3 l 14.15,-24.509 z m -22.405,-30 -14.15,24.508 -14.15,-24.508 z m -22.567,30 h -28.3 l 14.15,-24.508 z m -48.365,180 h 28.3 l -14.15,24.508 z m 5.643,29 h -28.3 l 14.15,-24.509 z m -266.409,-116.508 14.15,24.509 h -28.3 z M 620.804,615.11 h 28.3 l -14.15,24.509 z m 22.518,39 h 28.3 l -14.15,24.509 z m 233.203,-39 -14.15,24.509 -14.15,-24.509 z m -28.3,-10 14.15,-24.509 14.15,24.509 z m 36.675,14.492 14.15,24.508 h -28.3 z m 8.507,-4.492 h 28.3 l -14.15,24.509 z m -0.14,-10 14.15,-24.509 14.15,24.509 z m -8.507,-5.491 -14.15,-24.509 h 28.3 z m -22.385,-38 -14.15,-24.509 h 28.3 z m -8.68,4.491 h -28.3 l 14.15,-24.508 z m 0,9 -14.15,24.509 -14.15,-24.509 z m -22.378,30 h -28.3 l 14.15,-24.509 z M 794.51,599.619 780.36,575.11 h 28.3 z m -8.605,5.491 h -28.3 l 14.15,-24.509 z m -37.61,-5.491 -14.15,-24.509 h 28.3 z m -59.045,44.491 14.15,-24.509 14.15,24.509 z m 28.3,10 -14.15,24.509 -14.15,-24.509 z m -37.561,-14.491 -14.15,-24.509 h 28.3 z m 31.918,-24.509 h 28.3 l -14.15,24.509 z m 28.16,-10 h -28.3 l 14.15,-24.509 z M 703.26,599.619 689.11,575.11 h 28.3 z m -9.121,6.491 h -28.3 l 14.15,-24.509 z M 679.85,658.602 694,683.11 h -28.3 z m 23.55,38 14.15,24.509 h -28.3 z m 8.507,-4.492 h 28.3 l -14.15,24.509 z m 0,-9 14.15,-24.508 14.15,24.508 z m 22.378,-29 h 28.3 l -14.15,24.509 z m 0,-10 14.15,-24.509 14.15,24.509 z m 23.32,-30 h 28.3 l -14.15,24.509 z m 37.044,5.492 14.15,24.508 h -28.3 z m 8.507,-4.492 h 28.3 l -14.15,24.509 z m 36.528,4.492 14.15,24.509 h -28.3 z m 22.691,38 14.15,24.508 h -28.3 z m 8.375,-3.492 h 28.3 l -14.15,24.509 z m 36.807,4.492 14.15,24.509 h -28.3 z m 8.228,-4.492 h 28.3 l -14.15,24.509 z m 0,-10 14.15,-24.509 14.15,24.509 z m 14.011,-44.491 -14.15,-24.509 h 28.3 z m -22.379,-96.017 14.15,24.509 h -28.3 z m 14.15,33.508 -14.15,24.509 -14.15,-24.509 z m -22.657,29 h -28.3 l 14.15,-24.509 z m -22.385,-38 h -28.3 l 14.15,-24.509 z m -36.98,-65.508 14.15,24.508 h -28.3 z m 14.15,34.508 -14.15,24.509 -14.15,-24.509 z m -36.528,6.492 14.15,24.509 h -28.3 z m 14.15,33.508 -14.15,24.509 -14.15,-24.509 z m -22.657,29 h -28.3 l 14.15,-24.509 z m -36.905,-62.508 14.15,24.509 h -28.3 z m 14.15,33.508 -14.15,24.508 -14.15,-24.508 z m -23.46,29 h -28.3 l 14.15,-24.508 z m -22.378,-29 -14.15,24.509 -14.15,-24.509 z m -22.657,29 h -28.3 l 14.15,-24.509 z m -16.405,-106 -14.15,24.509 -14.15,-24.509 z m -29.244,117 -14.15,24.508 -14.15,-24.508 z m -22.657,29 h -28.3 l 14.15,-24.509 z m -141.085,146 h 28.3 l -14.15,24.509 z m 28.3,70 h -28.3 l 14.15,-24.509 z m -28.3,-79 14.15,-24.508 14.15,24.508 z m -42.192,-119 h -28.3 l 14.15,-24.509 z m -28.3,-68 h 28.3 l -14.15,24.509 z m 22.378,39 h 28.3 l -14.15,24.509 z m 35.057,5.492 14.15,24.509 h -28.3 z M 482.423,556.11 h 28.3 l -14.15,24.509 z m -8.228,-14.491 -14.15,-24.509 h 28.3 z m -8.507,5.491 h -28.3 l 14.15,-24.509 z m -22.518,39 h -28.3 l 14.15,-24.509 z m 0,9 -14.15,24.509 -14.15,-24.509 z m -23.044,29 h -28.3 l 14.15,-24.509 z m 8.755,15.492 14.15,24.509 h -28.3 z m 8.507,-4.492 h 28.3 l -14.15,24.509 z m 36.528,4.492 14.15,24.508 h -28.3 z m 6.895,-4.492 h 28.3 l -14.15,24.509 z m 36.807,4.492 14.15,24.508 h -28.3 z m 36.529,-4.492 -14.15,24.509 -14.15,-24.509 z m -28.3,-10 14.15,-24.509 14.15,24.509 z m 4.829,89 h 28.3 l -14.15,24.509 z m 36.528,4.492 14.15,24.508 h -28.3 z m 5.67,-165.983 -14.15,-24.509 h 28.3 z m -14.15,-33.509 14.15,-24.509 14.15,24.509 z m 22.378,-30 h 28.3 l -14.15,24.509 z m 28.3,-9 h -28.3 l 14.15,-24.508 z m -22.378,-29 -14.15,24.509 -14.15,-24.509 z m -36.807,4.492 14.15,24.508 h -28.3 z m 14.15,33.508 -14.15,24.509 -14.15,-24.509 z m -46.749,131.509 -14.15,-24.509 h 28.3 z m -35.195,-73.509 14.15,-24.509 14.15,24.509 z m 14.01,-103.508 14.15,24.509 h -28.3 z m 14.15,33.508 -14.15,24.508 -14.15,-24.508 z m -22.378,31 h -28.3 l 14.15,-24.509 z m -22.657,-31 -14.15,24.508 -14.15,-24.508 z m -36.667,7.492 14.15,24.509 h -28.3 z m -22.896,38 14.15,24.509 h -28.3 z m 14.002,33.508 -14.15,24.509 -14.15,-24.509 z m -36.874,4.492 14.15,24.509 h -28.3 z m -14.29,34.508 h 28.3 l -14.15,24.509 z m 22.864,40 h 28.3 l -14.15,24.509 z m 23.044,39 h 28.3 l -14.15,24.509 z m 22.657,29 14.15,-24.509 14.15,24.509 z m 22.378,-29 h 28.3 l -14.15,24.509 z m 37.083,4.492 14.15,24.509 h -28.3 z m -12.798,35.508 h 28.3 l -14.15,24.509 z m 38.118,142.509 -14.15,-24.509 h 28.3 z m 22.657,-40 -14.15,-24.509 h 28.3 z m -14.15,-34.509 14.15,-24.509 14.15,24.509 z m 22.378,-30 h 28.3 l -14.15,24.509 z m 22.638,30 14.15,-24.509 14.15,24.509 z m 26.288,-256 h 28.3 l -14.15,24.509 z m 18.685,166 h 28.3 l -14.15,24.509 z m 22.657,30 14.15,-24.509 14.15,24.509 z M 679.85,716.619 665.7,692.11 H 694 Z m 9.4,13.491 h 28.3 l -14.15,24.509 z m 36.667,63.509 -14.15,-24.509 h 28.3 z m -14.01,-33.509 14.15,-24.508 14.15,24.508 z m 36.528,-5.491 -14.15,-24.509 h 28.3 z m -14.15,-33.509 14.15,-24.509 14.15,24.509 z m 36.64,-4.491 -14.15,-24.509 h 28.3 z m 9.574,-62.509 h 28.3 l -14.15,24.509 z m 36.807,64.509 -14.15,-24.509 h 28.3 z m -14.15,-35.509 14.15,-24.508 14.15,24.508 z m 22.378,-29 h 28.3 l -14.15,24.509 z m 22.691,38 h 28.3 l -14.15,24.509 z m 36.675,4.492 14.15,24.509 h -28.3 z m -11.976,87.508 h 28.3 l -14.15,24.509 z m 22.657,30 14.15,-24.509 14.15,24.509 z m 36.528,-5.491 -14.15,-24.509 h 28.3 z m -14.15,-33.509 14.15,-24.509 14.15,24.509 z m 34.242,-135.491 -14.15,-24.509 h 28.3 z m -14.15,-33.509 14.15,-24.509 14.15,24.509 z m 36.717,-6.491 -14.15,-24.508 h 28.3 z"
         id="path6" /><path
         fill="#929292"
         d="m 1193.21,471.994 c -0.656,-0.764 -1.095,-1.476 -1.312,-2.132 -0.22,-0.656 0.108,-1.64 0.984,-2.952 h -0.164 l 5.74,-10.004 c 0.874,-1.42 1.939,-2.214 3.198,-2.378 1.255,-0.164 2.485,0.138 3.689,0.902 0.656,0.548 1.968,1.422 3.937,2.624 1.968,1.204 4.207,2.406 6.724,3.608 a 68.078,68.078 0 0 0 7.954,3.198 c 2.788,0.93 5.33,1.394 7.626,1.394 4.044,0 7.38,-1.148 10.004,-3.444 2.624,-2.296 3.936,-5.084 3.936,-8.364 0,-3.826 -1.668,-7.216 -5.002,-10.168 -3.336,-2.952 -8.392,-5.74 -15.17,-8.364 a 96.648,96.648 0 0 1 -11.315,-5.412 c -3.719,-2.076 -7.026,-4.536 -9.922,-7.38 a 33.821,33.821 0 0 1 -6.971,-9.84 c -1.75,-3.716 -2.624,-8.036 -2.624,-12.956 0,-3.716 0.738,-7.516 2.214,-11.398 1.477,-3.88 3.744,-7.38 6.807,-10.496 3.06,-3.116 6.941,-5.63 11.644,-7.544 4.7,-1.912 10.222,-2.76 16.564,-2.542 4.044,0.22 7.954,0.794 11.726,1.722 3.772,0.93 7.16,1.996 10.168,3.198 3.006,1.205 5.548,2.406 7.626,3.608 2.076,1.205 3.552,2.132 4.429,2.788 h -0.164 c 0.983,0.656 1.583,1.64 1.804,2.952 0.218,1.312 0.054,2.406 -0.492,3.28 h 0.164 a 28.149,28.149 0 0 1 -1.722,2.46 62.729,62.729 0 0 0 -1.723,2.296 c -0.438,0.656 -0.93,1.451 -1.476,2.378 a 53.53,53.53 0 0 1 -1.476,2.378 v -0.164 c -0.877,1.204 -1.915,2.078 -3.116,2.624 -1.204,0.548 -2.406,0.384 -3.608,-0.492 h 0.164 c -0.328,-0.218 -1.312,-0.82 -2.952,-1.804 -1.64,-0.984 -3.607,-1.994 -5.903,-3.034 a 81.938,81.938 0 0 0 -7.299,-2.87 c -2.569,-0.874 -4.948,-1.312 -7.134,-1.312 -4.374,0 -7.708,1.148 -10.004,3.444 -2.296,2.296 -3.444,4.648 -3.444,7.052 0,3.718 1.53,6.806 4.593,9.266 3.06,2.46 7.708,5.222 13.939,8.282 l 3.28,1.64 c 3.608,1.86 7.241,3.8 10.906,5.822 a 52.872,52.872 0 0 1 10.004,7.134 33.137,33.137 0 0 1 7.298,9.594 c 1.857,3.665 2.788,7.954 2.788,12.874 0,4.264 -0.877,8.42 -2.624,12.464 -1.75,4.046 -4.264,7.654 -7.544,10.824 -3.28,3.172 -7.272,5.658 -11.973,7.462 -4.702,1.804 -10.004,2.542 -15.907,2.214 h 0.164 c -5.141,-0.221 -9.896,-0.93 -14.269,-2.132 -4.374,-1.202 -8.228,-2.542 -11.562,-4.018 -3.337,-1.476 -6.097,-2.952 -8.282,-4.428 -2.188,-1.476 -3.664,-2.596 -4.428,-3.362 z m 115.782,-41.984 c 0,0.328 0.436,0.492 1.312,0.492 -0.438,0 -0.82,-0.164 -1.148,-0.492 l -0.164,-0.164 v 0.164 -0.164 l -36.899,-53.956 c -0.546,-1.312 -0.518,-2.624 0.082,-3.936 0.6,-1.312 1.665,-1.968 3.198,-1.968 h 16.563 c 0.764,0 1.366,0.192 1.804,0.574 0.436,0.384 0.874,0.794 1.312,1.23 l 25.256,36.408 25.092,-36.408 a 9.126,9.126 0 0 1 1.559,-1.23 c 0.6,-0.382 1.229,-0.574 1.886,-0.574 h 16.563 c 1.53,0 2.568,0.656 3.116,1.968 0.546,1.312 0.546,2.624 0,3.936 l -37.228,53.792 -0.164,0.164 c -0.221,0.328 -0.603,0.492 -1.148,0.492 0.656,0 1.092,-0.164 1.312,-0.492 v 51.168 c 0,0.876 -0.41,1.722 -1.23,2.542 -0.819,0.82 -1.668,1.23 -2.542,1.23 h -14.76 c -1.095,0 -1.996,-0.41 -2.706,-1.23 -0.712,-0.82 -1.066,-1.666 -1.066,-2.542 z m 70.847,41.984 c -0.655,-0.764 -1.094,-1.476 -1.312,-2.132 -0.221,-0.656 0.107,-1.64 0.983,-2.952 h -0.163 l 5.739,-10.004 c 0.874,-1.42 1.94,-2.214 3.198,-2.378 1.256,-0.164 2.485,0.138 3.69,0.902 0.655,0.548 1.968,1.422 3.936,2.624 1.968,1.204 4.208,2.406 6.724,3.608 a 68.148,68.148 0 0 0 7.954,3.198 c 2.788,0.93 5.33,1.394 7.626,1.394 4.044,0 7.381,-1.148 10.004,-3.444 2.624,-2.296 3.937,-5.084 3.937,-8.364 0,-3.826 -1.668,-7.216 -5.002,-10.168 -3.337,-2.952 -8.393,-5.74 -15.17,-8.364 a 96.661,96.661 0 0 1 -11.316,-5.412 c -3.718,-2.076 -7.026,-4.536 -9.922,-7.38 a 33.8,33.8 0 0 1 -6.97,-9.84 c -1.75,-3.716 -2.624,-8.036 -2.624,-12.956 0,-3.716 0.738,-7.516 2.214,-11.398 1.476,-3.88 3.744,-7.38 6.806,-10.496 3.06,-3.116 6.942,-5.63 11.645,-7.544 4.699,-1.912 10.222,-2.76 16.563,-2.542 4.044,0.22 7.954,0.794 11.727,1.722 3.771,0.93 7.159,1.996 10.168,3.198 3.006,1.205 5.548,2.406 7.626,3.608 2.075,1.205 3.552,2.132 4.428,2.788 h -0.164 c 0.984,0.656 1.584,1.64 1.804,2.952 0.218,1.312 0.055,2.406 -0.491,3.28 h 0.164 a 28.372,28.372 0 0 1 -1.723,2.46 63.854,63.854 0 0 0 -1.722,2.296 50.685,50.685 0 0 0 -1.477,2.378 52.61,52.61 0 0 1 -1.476,2.378 v -0.164 c -0.876,1.204 -1.914,2.078 -3.116,2.624 -1.204,0.548 -2.406,0.384 -3.607,-0.492 h 0.164 c -0.328,-0.218 -1.312,-0.82 -2.952,-1.804 -1.641,-0.984 -3.608,-1.994 -5.904,-3.034 a 81.915,81.915 0 0 0 -7.298,-2.87 c -2.57,-0.874 -4.948,-1.312 -7.134,-1.312 -4.374,0 -7.708,1.148 -10.004,3.444 -2.296,2.296 -3.444,4.648 -3.444,7.052 0,3.718 1.529,6.806 4.592,9.266 3.06,2.46 7.708,5.222 13.94,8.282 l 3.279,1.64 a 437.15,437.15 0 0 1 10.906,5.822 52.809,52.809 0 0 1 10.004,7.134 33.137,33.137 0 0 1 7.298,9.594 c 1.858,3.665 2.788,7.954 2.788,12.874 0,4.264 -0.876,8.42 -2.624,12.464 -1.75,4.046 -4.264,7.654 -7.544,10.824 -3.279,3.172 -7.272,5.658 -11.972,7.462 -4.702,1.804 -10.004,2.542 -15.908,2.214 h 0.164 c -5.141,-0.221 -9.896,-0.93 -14.268,-2.132 -4.374,-1.202 -8.229,-2.542 -11.562,-4.018 -3.336,-1.476 -6.096,-2.952 -8.282,-4.428 -2.188,-1.476 -3.664,-2.596 -4.428,-3.362 z M 1551.71,369.986 c 1.092,0 1.993,0.41 2.706,1.23 0.71,0.82 1.066,1.668 1.066,2.542 v 13.284 c 0,0.984 -0.356,1.886 -1.066,2.706 -0.713,0.82 -1.614,1.23 -2.706,1.23 h -28.864 v 90.036 c 0,0.876 -0.355,1.722 -1.065,2.542 -0.713,0.82 -1.669,1.23 -2.87,1.23 h -14.596 c -0.984,0 -1.887,-0.41 -2.706,-1.23 -0.82,-0.82 -1.23,-1.666 -1.23,-2.542 v -90.036 h -29.028 c -0.983,0 -1.886,-0.41 -2.706,-1.23 -0.819,-0.82 -1.229,-1.722 -1.229,-2.706 v -13.284 c 0,-0.874 0.41,-1.722 1.229,-2.542 0.82,-0.82 1.723,-1.23 2.706,-1.23 z m 51.331,20.992 v 24.928 h 36.08 c 0.984,0 1.887,0.41 2.706,1.23 0.82,0.82 1.23,1.668 1.23,2.542 v 13.612 c 0,1.205 -0.41,2.132 -1.23,2.788 -0.819,0.656 -1.722,0.984 -2.706,0.984 h -36.08 v 26.732 h 43.952 c 1.202,0 2.132,0.41 2.788,1.23 0.656,0.82 0.984,1.722 0.984,2.706 v 13.284 c 0,0.876 -0.328,1.722 -0.984,2.542 -0.656,0.82 -1.586,1.23 -2.788,1.23 h -62.484 c -1.204,0 -2.132,-0.41 -2.788,-1.23 -0.655,-0.82 -0.983,-1.666 -0.983,-2.542 V 373.758 c 0,-0.874 0.328,-1.722 0.983,-2.542 0.656,-0.82 1.584,-1.23 2.788,-1.23 h 62.484 c 1.202,0 2.132,0.41 2.788,1.23 0.656,0.82 0.984,1.668 0.984,2.542 v 13.284 c 0,0.984 -0.328,1.886 -0.984,2.706 -0.656,0.82 -1.586,1.23 -2.788,1.23 z m 188.601,89.38 c 0.218,1.312 0.025,2.378 -0.574,3.198 -0.603,0.82 -1.614,1.23 -3.034,1.23 h -14.924 c -0.877,0 -1.668,-0.382 -2.378,-1.148 -0.713,-0.764 -1.177,-1.419 -1.395,-1.968 l -9.184,-58.548 -28.208,61.664 c -0.549,1.092 -1.532,1.64 -2.952,1.64 h -2.952 c -1.312,0 -2.406,-0.712 -3.28,-2.132 l 0.164,0.164 c -0.109,-0.107 -0.302,-0.41 -0.573,-0.902 -0.274,-0.492 -0.738,-1.448 -1.395,-2.87 -0.656,-1.419 -1.614,-3.47 -2.87,-6.15 -1.258,-2.678 -2.87,-6.258 -4.838,-10.742 a 6603.566,6603.566 0 0 0 -7.38,-16.728 c -2.952,-6.667 -6.506,-14.704 -10.66,-24.108 -1.64,9.622 -3.28,19.434 -4.92,29.438 -1.64,10.004 -3.227,19.818 -4.756,29.438 -0.11,0.656 -0.492,1.312 -1.148,1.968 -0.655,0.656 -1.476,0.984 -2.46,0.984 h -14.432 c -0.984,0 -1.942,-0.518 -2.87,-1.558 -0.93,-1.038 -1.176,-2.158 -0.738,-3.362 l -0.164,0.164 18.696,-108.568 c 0.328,-2.075 1.53,-3.116 3.608,-3.116 h 4.756 c 1.529,0 2.567,0.492 3.116,1.476 l 33.456,75.604 c 6.339,-14.212 11.587,-25.884 15.743,-35.014 a 5840.338,5840.338 0 0 0 9.923,-21.894 c 2.46,-5.466 4.264,-9.402 5.412,-11.808 1.147,-2.403 1.886,-4.043 2.214,-4.92 0,-0.107 0.025,-0.218 0.082,-0.328 a 0.727,0.727 0 0 0 0.082,-0.328 c 0,-0.108 0.054,-0.164 0.164,-0.164 0.655,-1.748 1.911,-2.624 3.771,-2.624 h 4.428 c 2.076,0 3.28,1.041 3.608,3.116 l 9.184,52.972 a 4618.64,4618.64 0 0 0 4.347,25.994 c 1.147,6.724 2.104,12.11 2.87,16.154 z m -97.416,-59.532 c 0,0.11 0.054,0.22 0.163,0.328 -0.109,-0.108 -0.163,-0.272 -0.163,-0.492 -0.328,-0.874 -0.521,-1.284 -0.574,-1.23 -0.057,0.056 0.135,0.52 0.574,1.394 z m 109.55,51.168 c -0.656,-0.764 -1.094,-1.476 -1.312,-2.132 -0.221,-0.656 0.107,-1.64 0.983,-2.952 h -0.164 l 5.74,-10.004 c 0.874,-1.42 1.939,-2.214 3.198,-2.378 1.256,-0.164 2.485,0.138 3.689,0.902 0.656,0.548 1.969,1.422 3.937,2.624 1.968,1.204 4.207,2.406 6.724,3.608 a 68.078,68.078 0 0 0 7.954,3.198 c 2.788,0.93 5.33,1.394 7.626,1.394 4.044,0 7.38,-1.148 10.004,-3.444 2.624,-2.296 3.937,-5.084 3.937,-8.364 0,-3.826 -1.669,-7.216 -5.002,-10.168 -3.337,-2.952 -8.393,-5.74 -15.17,-8.364 a 96.585,96.585 0 0 1 -11.316,-5.412 c -3.718,-2.076 -7.026,-4.536 -9.922,-7.38 a 33.8,33.8 0 0 1 -6.97,-9.84 c -1.751,-3.716 -2.624,-8.036 -2.624,-12.956 0,-3.716 0.737,-7.516 2.214,-11.398 1.476,-3.88 3.743,-7.38 6.806,-10.496 3.06,-3.116 6.942,-5.63 11.645,-7.544 4.699,-1.912 10.222,-2.76 16.563,-2.542 4.044,0.22 7.954,0.794 11.727,1.722 3.771,0.93 7.159,1.996 10.168,3.198 3.005,1.205 5.547,2.406 7.626,3.608 2.075,1.205 3.551,2.132 4.428,2.788 h -0.164 c 0.984,0.656 1.584,1.64 1.804,2.952 0.218,1.312 0.054,2.406 -0.492,3.28 h 0.164 a 28.149,28.149 0 0 1 -1.722,2.46 62.688,62.688 0 0 0 -1.722,2.296 50.685,50.685 0 0 0 -1.477,2.378 52.61,52.61 0 0 1 -1.476,2.378 v -0.164 c -0.877,1.204 -1.914,2.078 -3.116,2.624 -1.204,0.548 -2.406,0.384 -3.608,-0.492 h 0.164 c -0.327,-0.218 -1.312,-0.82 -2.951,-1.804 -1.641,-0.984 -3.608,-1.994 -5.904,-3.034 a 81.915,81.915 0 0 0 -7.298,-2.87 c -2.57,-0.874 -4.948,-1.312 -7.135,-1.312 -4.374,0 -7.708,1.148 -10.004,3.444 -2.296,2.296 -3.443,4.648 -3.443,7.052 0,3.718 1.529,6.806 4.592,9.266 3.06,2.46 7.708,5.222 13.939,8.282 l 3.28,1.64 a 437.15,437.15 0 0 1 10.906,5.822 52.84,52.84 0 0 1 10.004,7.134 33.137,33.137 0 0 1 7.298,9.594 c 1.858,3.665 2.788,7.954 2.788,12.874 0,4.264 -0.876,8.42 -2.624,12.464 -1.75,4.046 -4.264,7.654 -7.544,10.824 -3.28,3.172 -7.272,5.658 -11.972,7.462 -4.702,1.804 -10.004,2.542 -15.908,2.214 h 0.164 c -5.141,-0.221 -9.896,-0.93 -14.269,-2.132 -4.374,-1.202 -8.228,-2.542 -11.562,-4.018 -3.336,-1.476 -6.097,-2.952 -8.282,-4.428 -2.188,-1.476 -3.664,-2.596 -4.428,-3.362 z M 1191.898,624.35 c 0,-8.2 1.53,-15.908 4.593,-23.124 3.06,-7.216 7.27,-13.474 12.628,-18.778 5.355,-5.302 11.644,-9.512 18.859,-12.628 7.216,-3.116 14.924,-4.674 23.124,-4.674 8.418,0 15.77,1.312 22.059,3.936 6.285,2.624 12.218,6.452 17.794,11.48 1.64,1.64 1.64,3.5 0,5.576 l -10.004,10.168 c -1.641,1.86 -3.391,1.804 -5.248,-0.164 h 0.164 a 35.408,35.408 0 0 0 -11.152,-6.806 c -4.156,-1.583 -8.528,-2.378 -13.12,-2.378 -5.141,0 -9.84,0.984 -14.104,2.952 -4.265,1.968 -7.982,4.62 -11.152,7.954 -3.173,3.336 -5.633,7.244 -7.38,11.726 -1.75,4.484 -2.624,9.24 -2.624,14.268 0,5.03 0.901,9.758 2.706,14.186 1.804,4.428 4.264,8.31 7.38,11.644 3.116,3.336 6.831,5.96 11.152,7.872 4.317,1.914 9.045,2.87 14.186,2.87 4.92,0 9.348,-0.82 13.284,-2.46 a 45.002,45.002 0 0 0 10.988,-6.56 l -0.164,0.164 c 0.983,-0.874 1.939,-1.255 2.87,-1.148 0.927,0.11 1.665,0.438 2.214,0.984 l 10.496,10.496 c 0.545,0.876 0.763,1.804 0.655,2.788 -0.11,0.984 -0.384,1.804 -0.819,2.46 -5.687,5.576 -11.946,9.65 -18.778,12.218 -6.834,2.567 -13.968,3.854 -21.402,3.854 -8.2,0 -15.908,-1.533 -23.124,-4.592 -7.216,-3.059 -13.504,-7.242 -18.859,-12.546 -5.358,-5.302 -9.568,-11.534 -12.628,-18.696 -3.064,-7.159 -4.594,-14.842 -4.594,-23.042 z m 200.571,-57.728 c 1.641,0 2.978,0.52 4.019,1.558 1.037,1.041 1.558,2.214 1.558,3.526 v 104.468 c 0,1.422 -0.521,2.681 -1.558,3.772 -1.041,1.094 -2.378,1.64 -4.019,1.64 h -10.332 c -1.75,0 -3.144,-0.546 -4.182,-1.64 -1.04,-1.091 -1.558,-2.35 -1.558,-3.772 v -42.476 h -45.265 v 42.476 c 0,1.422 -0.548,2.681 -1.64,3.772 -1.095,1.094 -2.353,1.64 -3.772,1.64 h -10.496 c -1.64,0 -3.008,-0.546 -4.1,-1.64 -1.094,-1.091 -1.64,-2.35 -1.64,-3.772 V 571.706 c 0,-1.312 0.546,-2.486 1.64,-3.526 1.092,-1.038 2.46,-1.558 4.1,-1.558 h 10.496 c 1.42,0 2.678,0.52 3.772,1.558 1.092,1.041 1.64,2.214 1.64,3.526 v 40.18 h 45.265 v -40.18 c 0,-1.312 0.518,-2.486 1.558,-3.526 1.038,-1.038 2.432,-1.558 4.182,-1.558 z m 133.495,109.88 c 0.546,1.422 0.492,2.624 -0.164,3.608 -0.656,0.984 -1.75,1.476 -3.28,1.476 h -14.104 c -0.656,0 -1.312,-0.164 -1.969,-0.492 -0.655,-0.328 -1.422,-1.173 -2.296,-2.542 -0.876,-1.366 -1.996,-3.444 -3.361,-6.232 -1.369,-2.788 -3.091,-6.585 -5.166,-11.398 h -47.889 l -7.708,17.056 c -0.438,0.876 -1.04,1.696 -1.804,2.46 -0.767,0.766 -1.914,1.148 -3.444,1.148 h -13.939 c -1.641,0 -2.816,-0.464 -3.526,-1.394 -0.712,-0.928 -0.684,-2.158 0.082,-3.69 a 240.997,240.997 0 0 1 3.362,-7.79 654.2,654.2 0 0 1 4.592,-9.922 c 1.804,-3.826 3.936,-8.39 6.396,-13.694 2.46,-5.302 5.384,-11.616 8.773,-18.942 a 5425.47,5425.47 0 0 1 11.89,-25.502 c 4.536,-9.676 9.702,-20.91 15.498,-33.702 0.764,-1.091 1.805,-1.64 3.116,-1.64 h 1.641 c 0.655,0 1.255,0.22 1.804,0.656 a 8.122,8.122 0 0 1 1.476,1.558 c 0.436,0.602 0.792,1.148 1.066,1.64 0.271,0.492 0.41,0.794 0.41,0.902 0.764,1.64 2.075,4.538 3.936,8.692 a 4492.16,4492.16 0 0 0 8.282,18.368 c 3.662,8.092 8.446,18.532 14.35,31.324 a 15723.182,15723.182 0 0 1 21.977,47.888 v 0.164 z M 1456.1,642.39 c 0,-0.328 -0.11,-0.6 -0.328,-0.82 h 0.656 z m -0.164,0.492 c 0.107,-0.107 0.164,-0.271 0.164,-0.492 z m 0.492,-1.312 h 30.34 l -15.088,-33.292 z m 14.924,-34.112 c 0.218,0.22 0.492,0.164 0.82,-0.164 l -0.492,0.984 z m 16.4,34.112 c -0.438,0.221 -0.603,0.548 -0.492,0.984 l -0.492,-0.984 z m 151.7,-74.784 c 0.874,0 1.722,0.41 2.542,1.23 0.82,0.82 1.229,1.668 1.229,2.542 v 108.896 c 0,0.984 -0.409,1.86 -1.229,2.624 -0.82,0.764 -1.668,1.148 -2.542,1.148 h -2.624 c -2.078,0 -3.937,-0.82 -5.576,-2.46 l -62.648,-69.044 -0.164,66.092 c 0,0.876 -0.355,1.722 -1.065,2.542 -0.713,0.82 -1.614,1.23 -2.706,1.23 h -14.76 c -0.877,0 -1.723,-0.41 -2.542,-1.23 -0.82,-0.82 -1.23,-1.666 -1.23,-2.542 V 568.918 c 0,-0.984 0.41,-1.858 1.23,-2.624 0.819,-0.764 1.665,-1.148 2.542,-1.148 h 2.951 c 2.076,0 3.88,0.82 5.412,2.46 h -0.164 l 62.32,67.732 0.164,-64.78 c 0,-0.874 0.354,-1.722 1.066,-2.542 0.709,-0.82 1.611,-1.23 2.706,-1.23 z m -17.548,70.028 c -0.109,0 -0.163,-0.026 -0.163,-0.082 0,-0.054 -0.057,-0.082 -0.164,-0.082 z m 137.432,-12.956 c 1.53,0 2.678,0.492 3.444,1.476 0.764,0.984 1.147,2.078 1.147,3.28 v 39.852 c 0,0.876 -0.273,1.722 -0.819,2.542 -0.549,0.82 -1.095,1.451 -1.641,1.886 l -3.443,1.722 c -2.078,1.041 -4.895,2.188 -8.446,3.444 -3.555,1.258 -7.683,2.406 -12.382,3.444 -4.702,1.038 -9.84,1.558 -15.416,1.558 -8.2,0 -15.883,-1.53 -23.042,-4.592 -7.162,-3.06 -13.395,-7.216 -18.696,-12.464 -5.305,-5.248 -9.486,-11.452 -12.546,-18.614 -3.062,-7.16 -4.592,-14.842 -4.592,-23.042 0,-8.2 1.529,-15.908 4.592,-23.124 3.06,-7.216 7.241,-13.474 12.546,-18.778 5.302,-5.302 11.534,-9.512 18.696,-12.628 7.159,-3.116 14.842,-4.674 23.042,-4.674 7.544,0 14.678,1.286 21.401,3.854 6.725,2.57 12.874,6.314 18.45,11.234 h -0.164 c 0.874,0.548 1.42,1.476 1.641,2.788 0.218,1.312 -0.164,2.46 -1.148,3.444 v -0.164 l -1.312,1.148 -8.856,9.02 h 0.164 c -1.64,1.86 -3.444,1.86 -5.412,0 v 0.164 c -3.5,-3.06 -7.272,-5.355 -11.316,-6.888 -4.046,-1.53 -8.199,-2.296 -12.464,-2.296 -4.92,0 -9.54,0.958 -13.857,2.87 -4.32,1.914 -8.064,4.538 -11.234,7.872 -3.172,3.336 -5.687,7.244 -7.544,11.726 -1.86,4.484 -2.788,9.24 -2.788,14.268 0,4.92 0.902,9.594 2.706,14.022 1.804,4.428 4.318,8.282 7.544,11.562 3.224,3.28 6.996,5.878 11.316,7.79 4.317,1.914 8.991,2.87 14.021,2.87 4.154,0 7.79,-0.41 10.906,-1.23 3.116,-0.82 5.602,-1.612 7.462,-2.378 v -12.628 h -15.58 c -1.75,0 -3.034,-0.546 -3.854,-1.64 -0.82,-1.091 -1.23,-2.132 -1.23,-3.116 v -10.824 c 0,-1.202 0.436,-2.296 1.312,-3.28 0.873,-0.984 2.021,-1.476 3.443,-1.476 z m 53.625,-36.08 v 24.928 h 36.08 c 0.984,0 1.887,0.41 2.706,1.23 0.82,0.82 1.23,1.668 1.23,2.542 v 13.612 c 0,1.205 -0.41,2.132 -1.23,2.788 -0.819,0.656 -1.722,0.984 -2.706,0.984 h -36.08 v 26.732 h 43.952 c 1.202,0 2.132,0.41 2.788,1.23 0.656,0.82 0.984,1.722 0.984,2.706 v 13.284 c 0,0.876 -0.328,1.722 -0.984,2.542 -0.656,0.82 -1.586,1.23 -2.788,1.23 h -62.483 c -1.205,0 -2.133,-0.41 -2.788,-1.23 -0.656,-0.82 -0.984,-1.666 -0.984,-2.542 V 570.558 c 0,-0.874 0.328,-1.722 0.984,-2.542 0.655,-0.82 1.583,-1.23 2.788,-1.23 h 62.483 c 1.202,0 2.132,0.41 2.788,1.23 0.656,0.82 0.984,1.668 0.984,2.542 v 13.284 c 0,0.984 -0.328,1.886 -0.984,2.706 -0.656,0.82 -1.586,1.23 -2.788,1.23 z"
         id="path8" /><path
         fill="#589fcd"
         d="m 1301.122,873.302 c 0.546,1.423 0.492,2.624 -0.164,3.608 -0.656,0.983 -1.75,1.476 -3.28,1.476 h -14.104 c -0.656,0 -1.312,-0.164 -1.969,-0.492 -0.655,-0.327 -1.422,-1.173 -2.296,-2.542 -0.876,-1.365 -1.996,-3.443 -3.361,-6.231 -1.369,-2.788 -3.091,-6.586 -5.166,-11.398 h -47.889 l -7.708,17.057 c -0.438,0.876 -1.04,1.696 -1.804,2.46 -0.767,0.766 -1.914,1.147 -3.444,1.147 h -13.939 c -1.641,0 -2.816,-0.464 -3.526,-1.394 -0.712,-0.928 -0.684,-2.158 0.082,-3.69 a 241.96,241.96 0 0 1 3.362,-7.79 654.2,654.2 0 0 1 4.592,-9.922 c 1.804,-3.825 3.936,-8.39 6.396,-13.694 2.46,-5.302 5.384,-11.615 8.773,-18.941 a 5425.47,5425.47 0 0 1 11.89,-25.502 c 4.536,-9.676 9.702,-20.91 15.498,-33.702 0.764,-1.092 1.805,-1.64 3.116,-1.64 h 1.641 c 0.655,0 1.255,0.22 1.804,0.655 a 8.128,8.128 0 0 1 1.476,1.559 c 0.436,0.602 0.792,1.147 1.066,1.64 0.271,0.492 0.41,0.795 0.41,0.902 0.764,1.64 2.075,4.538 3.936,8.691 a 4492.16,4492.16 0 0 0 8.282,18.368 c 3.662,8.093 8.446,18.532 14.35,31.324 a 15723.182,15723.182 0 0 1 21.977,47.888 v 0.163 z m -69.864,-34.111 c 0,-0.328 -0.11,-0.6 -0.328,-0.82 h 0.656 z m -0.164,0.491 c 0.107,-0.107 0.164,-0.271 0.164,-0.491 z m 0.492,-1.312 h 30.34 l -15.088,-33.292 z m 14.924,-34.112 c 0.218,0.221 0.492,0.164 0.82,-0.164 l -0.492,0.984 z m 16.4,34.112 c -0.438,0.221 -0.603,0.548 -0.492,0.983 l -0.492,-0.983 z m 80.197,19.024 h 43.624 c 1.201,0 2.157,0.41 2.869,1.23 0.71,0.82 1.066,1.722 1.066,2.706 v 13.284 c 0,0.876 -0.356,1.722 -1.066,2.542 -0.712,0.819 -1.668,1.229 -2.869,1.229 h -62.156 c -1.095,0 -1.996,-0.41 -2.706,-1.229 -0.713,-0.82 -1.066,-1.666 -1.066,-2.542 V 767.359 c 0,-0.874 0.354,-1.723 1.066,-2.542 0.71,-0.82 1.611,-1.23 2.706,-1.23 h 14.76 c 0.874,0 1.722,0.41 2.542,1.23 0.82,0.819 1.23,1.668 1.23,2.542 z m 90.69,0 h 43.624 c 1.202,0 2.157,0.41 2.87,1.23 0.71,0.82 1.065,1.722 1.065,2.706 v 13.284 c 0,0.876 -0.355,1.722 -1.065,2.542 -0.713,0.819 -1.668,1.229 -2.87,1.229 h -62.156 c -1.094,0 -1.996,-0.41 -2.706,-1.229 -0.712,-0.82 -1.065,-1.666 -1.065,-2.542 V 767.359 c 0,-0.874 0.354,-1.723 1.065,-2.542 0.71,-0.82 1.612,-1.23 2.706,-1.23 h 14.761 c 0.873,0 1.722,0.41 2.542,1.23 0.819,0.819 1.229,1.668 1.229,2.542 z m 67.732,-90.035 c 0,-0.874 0.409,-1.723 1.229,-2.542 0.82,-0.82 1.666,-1.23 2.542,-1.23 h 14.924 c 0.874,0 1.723,0.41 2.542,1.23 0.82,0.819 1.23,1.668 1.23,2.542 v 107.256 c 0,0.876 -0.41,1.722 -1.23,2.542 -0.819,0.819 -1.668,1.229 -2.542,1.229 H 1505.3 c -0.876,0 -1.722,-0.41 -2.542,-1.229 -0.82,-0.82 -1.229,-1.666 -1.229,-2.542 z m 150.878,105.943 c 0.546,1.423 0.492,2.624 -0.164,3.608 -0.656,0.983 -1.75,1.476 -3.28,1.476 h -14.104 c -0.656,0 -1.312,-0.164 -1.968,-0.492 -0.656,-0.327 -1.423,-1.173 -2.296,-2.542 -0.877,-1.365 -1.997,-3.443 -3.362,-6.231 -1.368,-2.788 -3.091,-6.586 -5.166,-11.398 h -47.889 l -7.708,17.057 c -0.438,0.876 -1.04,1.696 -1.804,2.46 -0.767,0.766 -1.914,1.147 -3.444,1.147 h -13.939 c -1.641,0 -2.816,-0.464 -3.526,-1.394 -0.712,-0.928 -0.684,-2.158 0.082,-3.69 a 241.96,241.96 0 0 1 3.362,-7.79 654.2,654.2 0 0 1 4.592,-9.922 c 1.804,-3.825 3.936,-8.39 6.396,-13.694 2.46,-5.302 5.384,-11.615 8.773,-18.941 a 5425.47,5425.47 0 0 1 11.89,-25.502 c 4.536,-9.676 9.702,-20.91 15.498,-33.702 0.764,-1.092 1.805,-1.64 3.116,-1.64 h 1.641 c 0.655,0 1.255,0.22 1.804,0.655 a 8.128,8.128 0 0 1 1.476,1.559 c 0.436,0.602 0.792,1.147 1.066,1.64 0.271,0.492 0.41,0.795 0.41,0.902 0.764,1.64 2.075,4.538 3.936,8.691 a 4492.16,4492.16 0 0 0 8.282,18.368 c 3.662,8.093 8.446,18.532 14.351,31.324 a 15755.329,15755.329 0 0 1 21.976,47.888 v 0.163 z m -69.864,-34.111 c 0,-0.328 -0.11,-0.6 -0.328,-0.82 h 0.656 z m -0.164,0.491 c 0.107,-0.107 0.164,-0.271 0.164,-0.491 z m 0.492,-1.312 h 30.34 l -15.088,-33.292 z m 14.924,-34.112 c 0.218,0.221 0.492,0.164 0.82,-0.164 l -0.492,0.984 z m 16.401,34.112 c -0.438,0.221 -0.603,0.548 -0.492,0.983 l -0.492,-0.983 z m 151.7,-74.784 c 0.874,0 1.722,0.41 2.542,1.23 0.82,0.819 1.229,1.668 1.229,2.542 v 108.896 c 0,0.984 -0.409,1.86 -1.229,2.624 -0.82,0.764 -1.668,1.148 -2.542,1.148 h -2.624 c -2.078,0 -3.937,-0.82 -5.576,-2.46 l -62.647,-69.044 -0.164,66.092 c 0,0.876 -0.356,1.722 -1.066,2.542 -0.712,0.819 -1.614,1.229 -2.706,1.229 h -14.76 c -0.877,0 -1.722,-0.41 -2.542,-1.229 -0.82,-0.82 -1.23,-1.666 -1.23,-2.542 V 765.718 c 0,-0.983 0.41,-1.857 1.23,-2.624 0.82,-0.764 1.665,-1.147 2.542,-1.147 h 2.952 c 2.075,0 3.879,0.819 5.412,2.46 h -0.164 l 62.319,67.731 0.164,-64.779 c 0,-0.874 0.354,-1.723 1.066,-2.542 0.71,-0.82 1.611,-1.23 2.706,-1.23 h 15.088 z m -17.548,70.028 c -0.11,0 -0.164,-0.026 -0.164,-0.082 0,-0.054 -0.057,-0.082 -0.164,-0.082 z m 41.164,-12.463 c 0,-8.2 1.529,-15.908 4.592,-23.124 3.06,-7.217 7.27,-13.474 12.628,-18.778 5.355,-5.302 11.644,-9.512 18.86,-12.628 7.216,-3.116 14.924,-4.674 23.124,-4.674 8.417,0 15.77,1.312 22.058,3.936 6.286,2.624 12.218,6.452 17.794,11.48 1.64,1.64 1.64,3.5 0,5.575 l -10.004,10.169 c -1.64,1.86 -3.391,1.804 -5.248,-0.164 h 0.164 a 35.4,35.4 0 0 0 -11.152,-6.807 c -4.156,-1.583 -8.527,-2.378 -13.12,-2.378 -5.14,0 -9.84,0.984 -14.104,2.952 -4.264,1.968 -7.982,4.62 -11.152,7.954 -3.172,3.336 -5.632,7.244 -7.38,11.726 -1.75,4.484 -2.624,9.24 -2.624,14.269 0,5.03 0.902,9.758 2.706,14.186 1.804,4.429 4.264,8.311 7.38,11.645 3.116,3.336 6.832,5.96 11.152,7.872 4.317,1.914 9.046,2.87 14.186,2.87 4.92,0 9.349,-0.82 13.284,-2.461 a 44.952,44.952 0 0 0 10.988,-6.56 l -0.164,0.164 c 0.983,-0.874 1.939,-1.256 2.87,-1.148 0.928,0.11 1.665,0.438 2.214,0.984 l 10.496,10.496 c 0.546,0.876 0.764,1.804 0.656,2.788 -0.11,0.983 -0.385,1.804 -0.82,2.46 -5.687,5.576 -11.946,9.65 -18.778,12.218 -6.834,2.567 -13.968,3.854 -21.401,3.854 -8.2,0 -15.908,-1.533 -23.124,-4.593 -7.217,-3.06 -13.505,-7.241 -18.86,-12.546 -5.358,-5.302 -9.568,-11.533 -12.628,-18.695 -3.064,-7.161 -4.593,-14.843 -4.593,-23.042 z m 147.27,-36.573 v 24.928 h 36.08 c 0.984,0 1.887,0.41 2.706,1.23 0.82,0.819 1.23,1.668 1.23,2.542 v 13.611 c 0,1.205 -0.41,2.133 -1.23,2.788 -0.819,0.656 -1.722,0.984 -2.706,0.984 h -36.08 v 26.731 h 43.952 c 1.202,0 2.132,0.41 2.788,1.23 0.656,0.82 0.984,1.722 0.984,2.706 v 13.284 c 0,0.876 -0.328,1.722 -0.984,2.542 -0.656,0.819 -1.586,1.229 -2.788,1.229 h -62.483 c -1.205,0 -2.133,-0.41 -2.788,-1.229 -0.656,-0.82 -0.984,-1.666 -0.984,-2.542 V 767.359 c 0,-0.874 0.328,-1.723 0.984,-2.542 0.655,-0.82 1.583,-1.23 2.788,-1.23 h 62.483 c 1.202,0 2.132,0.41 2.788,1.23 0.656,0.819 0.984,1.668 0.984,2.542 v 13.283 c 0,0.984 -0.328,1.887 -0.984,2.706 -0.656,0.82 -1.586,1.23 -2.788,1.23 z"
         id="path10" /></g></switch></svg>
