<svg viewBox="0 0 144 46" xmlns="http://www.w3.org/2000/svg" fill-rule="evenodd" clip-rule="evenodd" stroke-linejoin="round" stroke-miterlimit="2"><clipPath id="a"><path d="M122.6 15.3c-.1-.3-.2-.6-.4-.8l-.3-.9c-.2-.2-.3-.4-.5-.6-.2-.2-.3-.4-.5-.6-.1-.1-.3-.1-.5-.2-.4-.2-.8-.6-1.1-.8-.4-.2-.9-.2-1.3-.1-.1-.1-.1-.2-.1-.2-.2.1-.4.1-.6.1l-.1.1c-1.2-.1-2.5.2-3.5.9-.3.5-.6.9-1 1.3-.2.3-.2.7-.4 1-.1.1-.2.2-.2.3-.2.6-.3 1.2-.3 1.9-.1.7.1 1.4.6 2l.1.2.3.3c.1.1.2.5.3.7.3.5.7.9 1.2 1.3.1.1.2.2.3.2.5.2.9.3 1.4.4.3.1.5.2.8.2 1.4.2 2.8-.1 3.9-1 .2-.1.3-.4.6-.6.5-.4.9-.9.9-1.6.5-.7.7-1.6.5-2.5 0-.3 0-.7-.1-1m-4 3.4c-.2.3-.4.5-.7.7h-.3c-1 .2-1.4-.3-1.8-1.2-.1-.2-.2-.4-.3-.5v-.5c0-.1-.1-.2-.1-.3 0-.1.1-.2.1-.3v-.9c.1-.8.4-1.5 1-2.1.9-.5 2-.1 2.5.8.2 1.5.1 2.9-.4 4.3"/></clipPath><g clip-path="url(#a)"><path fill="#007e8a" d="M106.7 6.1h20.9v21.1h-20.9z"/></g><clipPath id="b"><path d="M96.1 7c.2 0 0-.1.1-.1.6 0 1.1.2 1.5.7v.3c.1.3.2.7.2 1-.1.4-.2.7-.4 1.1l-.3.3-.1.3c-.4.3-.8.4-1.3.4-.2-.1-.4-.2-.5-.3-.3-.1-.6-.3-.7-.6-.2-.3-.4-.6-.5-1 0-.3.1-.5.2-.8 0-.2.1-.3.1-.5.2-.6 1.2-1.2 1.7-.8"/></clipPath><g clip-path="url(#b)"><path fill="#007e8a" d="M89.1 1.9h13.8v14H89.1z"/></g><clipPath id="c"><path d="M110.6 9.7c-.1 0-.1.1-.2.1 0 .1 0 .2.1.3-.1.1-.2.2-.3.2v.2c-.3 0-.5.2-.6.4-.3 0-.6-.1-.9-.2-.3 0-.6-.1-.8-.3-.5-.1-.7-.6-.6-1.1-.2-.3-.1-.7.2-1 .1-.1.1-.3.2-.4.7-.7 1.8-.7 2.6-.1.4.4.6 1.2.3 1.9"/></clipPath><g clip-path="url(#c)"><path fill="#007e8a" d="M102.1 2.2h13.6v13.7h-13.6z"/></g><clipPath id="d"><path d="M60.8 11.5c.1 1 0 2.2.1 3.1.1.3.1.6 0 .8h-2c-.1-.1-.4-.2-.2-.4-.2-.1-.4-.3-.5-.6-.8-.4-1.7-.1-2.1.7-.1.2-.2.5-.2.8.1.4 0 .9-.2 1.3.2.3.2.8 0 1.1.1.3.2.6.2.9.2.1.3.2.4.4.3 0 .7.1 1 .2.1.6.1 1.3.1 1.9-2 .1-4.1.1-6.1 0-.1-.4 0-.8.2-1.2-.2-.2-.2-.5-.2-.7.3-.1.5-.1.8-.1.1 0 0-.2.2-.2.3 0 .5-.1.7-.2.1-1.1.1-2.1 0-3.2.1-.2.1-.4 0-.6 0-.5 0-.9.1-1.4-.5.1-1.1 0-1.6-.1.1-.6.1-1.2.1-1.9 1 0 2-.3 2.8-.8.5 0 1 0 1.4-.1v1.7c-.2.1-.2.4-.2.6h.2c.2-.3.5-.4.7-.7h.2v-.2c.3-.7.9-1.2 1.6-1.4.3-.1.7-.1 1 0 .1-.1.3-.2.4-.1l.1.1c.4-.1.7 0 1.1.2"/></clipPath><g clip-path="url(#d)"><path fill="#007e8a" d="M46.3 6.1H66v20.8H46.3z"/></g><clipPath id="e"><path d="M97.6 11.7c.1 1.5.1 3.4.1 5.3 0 .3.1.5.1 1v1.7c.2.4 1.1.1 1.3.4.1.6.1 1.2 0 1.7-2.1-.1-4.3-.2-6.4-.1-.3-.7-.1-1.4.3-2 .5-.1.9-.2 1.4-.4.1-.9 0-1.7.1-2.6.1-.9 0-1.7-.2-2.6-.4 0-.8-.1-1.2-.2 0-.6-.1-1.4-.1-2 .3 0 .5.1.8.2 1.2-.3 2.5-.5 3.8-.4"/></clipPath><g clip-path="url(#e)"><path fill="#007e8a" d="M87.5 6.6h16.6v20.3H87.5z"/></g><clipPath id="f"><path d="M110.9 11.6l.1.1c-.1.8 0 1.5-.1 2.4-.1.1-.2.2-.4.3.2 0 .3.2.3.4 0 .1-.1.2-.2.3.1.2.1.3 0 .5.2.5.2 1 0 1.5 0 .1.1.2.1.2-.1.6.1 1.5.1 2.5.5.2 1.1.3 1.7.4 0 .6 0 1.3-.1 1.9-.8-.1-1.5-.1-2.3-.2 0-.1.1-.1 0-.2l-.1.1-.3-.1c-1.3.1-2.6.2-3.9.1 0-.5 0-1.1.1-1.6.4-.3 1.6 0 1.8-.6.1-.2 0-.7.1-1 .1-.2.2-.5.1-.7l.1-.1c-.3-.5 0-1.5-.1-2l.1-.1c-.2-.3-.1-.7-.3-1.1-.4-.3-.9-.5-1.4-.4-.1-.3 0-.6.2-.7-.1 0-.2 0-.2-.1-.1-.2-.1-.4 0-.6 0-.1-.1-.2-.2-.2 0-.1.1-.2.2-.2 0-.1-.2-.1-.1-.1.9-.3 1.8-.5 2.8-.6.3-.1.6-.1.8 0 .2-.2.5-.3.8-.1 0-.1.2-.3.3 0"/></clipPath><g clip-path="url(#f)"><path fill="#007e8a" d="M100.7 6.4h16.7V27h-16.7z"/></g><clipPath id="g"><path d="M50.4 25.1c-.5.1-1 0-1.5-.2 0-.7 0-1.4.1-2.1 1.3.1 2.7.2 4 .1.5-.1 1.1 0 1.6.2 0 .6.1 1.1.2 1.8-.2.3-1 0-1.4.4-.2.3-.2.7-.2 1-.1 1.5-.2 3-.2 4.7v2.9c-.1 1.2-.1 2.5 0 3.7-.1.1-.1.3-.1.4-.9.1-1.7-.1-2.6-.1h-.5c-.4-.1-.7-1.2-.9-1.5-.3-.6-.7-1.2-1-1.9-.3-.7-.7-1.2-1-1.9-.1-.3-.2-.6-.4-.9-.4-.8-.8-1.8-1.2-2.5-.1-.2-.2-.4-.4-.5-.5.3-.3 1-.2 1.6 0 1.1-.1 2.5-.2 3.6-.1.6 0 1.2.3 1.8.5.2 1.1.2 1.5.3-.1.7-.1 1.3-.1 2-1.5.1-3.7 0-5.1 0-.2.1-.5.1-.7.1 0-.5-.3-1.6 0-1.9.5-.2.9-.3 1.4-.4.2-.7.3-1.5.2-2.2 0-.2.1-.4.1-.6-.1-1.4-.1-2.8 0-4.3 0-.7 0-1.5.1-2.2.1-.4 0-.8-.2-1.2-.3-.3-.9-.1-1.3-.4 0-.7-.4-1.4-.1-1.9.5-.1 1-.1 1.6-.1.2 0 .4.1.6.2h3.8c.3.3.5.6.5 1 .2.4.3.8.4 1.1.1.3.3.4.3.5.1.3.1.7.3 1.1.2.4.4.6.5.9.4.7.5 1.2.9 2 .1.3.3.6.6.9.3 0 .3-1.2.3-1.4-.1-.5-.2-1-.2-1.5.2-1.1.2-1.8.2-2.6"/></clipPath><g clip-path="url(#g)"><path fill="#007e8a" d="M35.3 17.8h24.5v25.1H35.3z"/></g><clipPath id="h"><path d="M67.9 24.1v2.8c.2.8 1.6.4 2.2.6 0 .7 0 1.5-.1 2.2-.7.1-1.7-.1-2 0-.3 1.6-.7 4 .2 5.6.3.6.8.6 1.7.6 0 .3.1.5.1.8v.3c.1.1.1.2.1.4-.5.5-1.1.8-1.8.9-.6.1-1.2.1-1.8 0-.3.1-.7-.1-.9-.4-.7-.6-1-1.6-.8-2.5l-.1-.1c0-.7-.1-1.3-.1-2.1 0-1.1.3-2.3 0-3.4-.3.1-.6.1-.8-.1-.1.1-.2.1-.3.2-.2-.7-.2-1.3 0-2 .4-.1.8-.2 1.2-.4.1-.1.2-.4.4-.3 0-.1 0-.1.1-.2s.1 0 .2 0c0-.3.1-.5.4-.6h.1v-.3c.1-.2.2-.4.4-.5 0-.5.4-.8.4-1.3.3-.2.8-.3 1.2-.2"/></clipPath><g clip-path="url(#h)"><path fill="#007e8a" d="M58.4 19h16.7v24.3H58.4z"/></g><clipPath id="i"><path d="M63.2 33.1c-1.7.1-3.3.2-4.8.2-.5 0-1.4-.2-1.5.2.1.4.2.8.4 1.2.1.2.2.3.3.4.6.4 1.2.7 1.9.8 1.1 0 2.2-.3 3.1-.9.4.4.7.7 1 1.1-.5.7-1.2 1.3-2 1.7-.3.2-.6.4-1 .4l-.3-.2c-.1 0-.2.1-.2.1-.4 0-.8 0-1.2-.1-.6.1-1.2 0-1.7-.3-.5 0-.9-.3-1.2-.6-.4-.2-.7-.5-1-.7-.1-.2-.3-.4-.4-.6-.2-.3-.4-.5-.6-.8-.4-1.2-.4-2.4 0-3.6.2-.5.5-1.1.8-1.5.2-.3.3-.6.5-.9.1-.1.2-.1.3-.2l.3-.3c.2-.2.6-.4.9-.4.2-.4.7-.4 1.2-.4.2 0 .5-.1.7-.2.9 0 1.8.2 2.5.7.5.3.9.7 1.2 1.3l.1.2c.4 1 .6 2.2.7 3.4m-6.2-2c.5.5 1.4.2 2.1.1.3.1.7 0 1-.1.1-2.1-3-1.9-3.1 0"/></clipPath><g clip-path="url(#i)"><path fill="#007e8a" d="M48.7 22.4h19.7v20.8H48.7z"/></g><clipPath id="j"><path d="M93.1 28c.3.3.8.5 1.1.8.1.1.2.4.3.5.4.7.8 1.5 1 2.3.2.8.2 1.6.1 2.4-.1.3-.2.7-.3 1-.2.6-.4 1.2-.8 1.7-.2.2-.4.3-.7.5-1.7 1.2-3.9 1.4-5.9.7-.2-.1-.3-.2-.5-.3-.4-.2-.8-.4-1.1-.7-.4-.4-.7-.8-.9-1.2-.3-1.3-.4-2.7-.1-4 .1-.4.2-.9.3-1.3.1-.2.3-.3.3-.5s.1-.4.1-.5l.6-.6c.2-.2.4-.4.6-.5.4-.4.9-.7 1.4-.9.3-.1.5-.1.8-.1.6-.1 1.2-.1 1.8 0 .7.3 1.3.5 1.9.7zm-1.4 7c.1-.2.2-.4.4-.6.1-.6.2-1.3.2-1.9-.1-.4-.2-.9-.4-1.3v-.3c-.2-.8-.9-1.3-1.7-1.3-.6.1-1.1.4-1.5.8-.3.5-.4 1-.5 1.6 0 .4 0 .8.1 1.2-.1.3 0 .6.1.8 0 .4.2.7.4 1 .1.1.2.3.3.4.4.3.9.4 1.4.4.5-.1.9-.3 1.2-.8 0 .1.1.2.1.1l-.1-.1z"/></clipPath><g clip-path="url(#j)"><path fill="#007e8a" d="M80.1 22.2h20.5v21.1H80.1z"/></g><clipPath id="k"><path d="M74.9 27.6c.1.7.1 1.3-.1 2-.2 0-.4.1-.6.1.1 1.3.3 2.6.7 3.8l.3.3.7-.7c.1-1.6.7-2.8.9-4.4 0-.3.1-.7.2-1 .9 0 1.9.1 2.9 0 0 .3.2.4 0 .5.2.6.4 1.2.5 1.8.1.9.2 1.9.3 2.8.1.4.2.8.1 1.2.3 0 .2.2.4.4.3-.3.5-.6.6-.9.1-.3 0-.6.1-.9.1-.3.2-.7.3-1.1.1-.5.3-1 .4-1.5-.3 0-.6-.1-.9 0-.1-.7 0-1.5.2-2.2 1.4 0 2.5-.3 3.7-.2-.1.6.2 1.9-.3 2.4h-.7c-.2.5-.4 1-.5 1.6-.1.4-.2.7-.3 1.2-.2.7-.5 1.4-.6 2-.1.3-.1.7-.2 1-.1.3-.3.7-.4 1.1-.1.3-.2.5-.2.8-.9.1-1.6.1-2.6.2-.5-.8-.3-2.8-.8-4-.1-.1-.2-.3-.3-.5 0-.3.2-.8-.2-1-.1.1-.1.2-.1.3-.1.1-.1.2-.3.3-.3.9-.5 1.9-.6 2.8-.1.4-.3.8-.4 1.2-.1.4-.2.8-.4 1.2h-3.3c-.3-1-.5-2-.5-3 0-.3-.1-.5-.2-.8-.2-.9-.3-1.4-.4-2.3-.1-.2-.1-.4-.2-.6-.1-.5-.1-1-.3-1.5-.3-.1-.6-.2-.8-.2 0-.7-.1-1.5-.1-2.2 1.1 0 2.5.1 4 0"/></clipPath><g clip-path="url(#k)"><path fill="#007e8a" d="M65.5 22.5h25v20.6h-25z"/></g><clipPath id="l"><path d="M105.2 27.6v4.2c-.6.1-1.1.1-1.7 0-.2-.2-.3-.4-.4-.6-.3-.3-.7-.5-1.1-.6-.4 0-.8.2-1.1.5-.3.8-.4 1.6-.4 2.4-.1.9-.3 1.9.2 2.5.5.1.9.2 1.4.2.2.7.2 1.3 0 2-.8.1-1.7.1-2.5 0-1.3-.1-2.6-.1-3.9 0 0-.8.1-1.5.2-2.3.5 0 1 0 1.5-.2 0-.2-.1-.3-.2-.5.1-.8.2-1.7.2-2.7 0-.5-.1-1-.1-1.4.1-.2.1-.4 0-.6-.2-.4-1-.2-1.3-.4 0-.7.1-1.3.2-2 .3-.1.8-.1 1.2-.1.5-.2 1-.3 1.5-.4h1.3c0 .6 0 1.3.1 1.9.2 0 .3-.1.5-.2.4-.7.9-1.2 1.5-1.8.9-.4 2-.3 2.9.1"/></clipPath><g clip-path="url(#l)"><path fill="#007e8a" d="M90.6 22.2h19.6v20.9H90.6z"/></g><clipPath id="m"><path d="M136.2 32.3c.1.5.1 1-.1 1.5-.2.1-.4.1-.6 0-.2-.2-.5-.4-.8-.6-.8 0-.1 1 0 1.5 0 .4-.2.8-.4 1.1-.5.2-1 .4-1.5.5-.3 0-.6-.1-.7.2 0 .4.3.7.7.8h.2c.4 0 1-.7 1.5-.7.2.1.5.2.8.2.2.2.4.5.6.7.3.9 0 1.9-.7 2.5-1.2.6-3.4 1-4.7.3-.4-.2-.7-.6-.8-1 0-.7.3-1.3.8-1.8-.1-.4-.3-.7-.6-1 .3-.2.9-.3 1-.7-.1-.4-.2-.7-.4-1V34c.1-.6.3-1.2.7-1.7.5-.4 1.1-.5 1.7-.3.3.2.7.4 1 .6.5 0 1-.7 1.6-.8.2 0 .5 0 .7.2m-4.3 1.8c-.1.4 0 .9.3 1.2.8.8 1.4-1 .8-1.6-.4-.2-.8-.1-1 .2l-.1.2m-.2 5.3c.7.2 2.1 1.1 2.5.1v-.5c-.2-.2-.3-.4-.4-.5-.2-.1-.4-.1-.6-.2-.3.2-.6.3-.9.4-.1-.1-.3-.1-.5-.2-.4.3-.2.7-.1.9"/></clipPath><g clip-path="url(#m)"><path fill="#007e8a" d="M124.7 27.1h16.5v18.7h-16.5z"/></g><g><clipPath id="n"><path d="M119.7 33.5c.5-.3 1.1-1.1 1.8-1.1 1 0 2 .3 2.7 1 .5.7.7 1.5.7 2.4 0 .6-.2 1.2-.6 1.7-.5.6-1.2.9-2 .8-.9-.1-1.8-.5-2.3-1.2-.5-.5-.7-1.2-.7-1.9.1-.7.3-1.2.4-1.7m2.5 0c-.5.1-1 .4-1.2.9-.3 1.2.3 2.7 1.7 2.1.7-.7.6-2.9-.5-3"/></clipPath><g clip-path="url(#n)"><path fill="#007e8a" d="M114.3 27.3h15.6v15.8h-15.6z"/></g></g><g><clipPath id="o"><path d="M129.9 32.4c.1.7 0 1.4-.3 2-.2.1-.4.1-.6.1-.1-.4-.6-.7-1-.6-.6.1-.7.9-.7 1.7v.6c.1.2.2.4.4.6.2.1.4.2.5.3.1.2 0 .5-.2.6-1.1.2-2.1.2-3.2 0 0-.3.1-.7.2-1 .3-.1.5-.4.6-.7v-.4c.1-.5.1-1 0-1.5-.3-.1-.6-.3-.8-.5 0-.3 0-.5.1-.8.9-.1 1.7-.5 2.5-.5.1.2.2.3.4.4.4.1.7-.5 1.3-.5.3 0 .6 0 .8.1"/></clipPath><g clip-path="url(#o)"><path fill="#007e8a" d="M119.9 27.3h15V43h-15z"/></g></g><g><clipPath id="p"><path d="M117 37.5c-.1-.5 0-1 .3-1.4.5-.4 1.1-.3 1.5.2.1.3.2.7.3 1.1-.2.3-.4.5-.7.7-.5 0-1-.2-1.4-.6"/></clipPath><g clip-path="url(#p)"><path fill="#007e8a" d="M112 30.9h12.1v12.2H112z"/></g></g><g><clipPath id="q"><path d="M53.8 6.2c.1.5.2 1 .2 1.4 0 .4 0 .9.1 1.3 0 .4 0 .8-.1 1.2.1.2 0 .5-.1.7-.8 0-1.4.1-2 .2-.4-.6-.7-1.3-1-1.9-.5-.1-.9-.1-1.3 0V11c0 .9-.2 1.7-.2 2.6v2.2c0 .6-.2 1.2-.2 1.8 0 .1.1.3.1.5-.1.4-.1.8 0 1.1.5.2 1 .4 1.5.4.1.7.1 1.4.1 2.2H49c-.3 0-.7-.1-1-.1-.6 0-1.3.1-1.9.1H45c-.5.1-1.1 0-1.6-.1.1-.2.1-.4.2-.6h-.1c.1-.3.1-.7.1-1h.1c0-.1-.1-.2-.1-.3.5-.2 1 0 1.6-.2.3-.2 0-.8.2-1 0-.5 0-.9.1-1.4 0-.1 0-.3.2-.3-.2-.4-.3-.8-.2-1.2-.1-1.8-.1-3.5 0-5.3.1-.5 0-1-.2-1.5-.5-.1-1-.1-1.5 0-.2.4-.4.8-.4 1.3 0 .3 0 .6-.1.9-.8.1-1.7.2-2.5.1.2-1.5.1-3.2.4-4.6.3-.1.5 0 .8.1.3-.2.7-.2.9.1.2 0 .4 0 .5.1l.2-.1c.1 0 .2.1.4.1h.5c1.2-.2 2.4-.3 3.5-.2.5-.1 1-.1 1.5-.1.9 0 1.8 0 2.7.1l.4-.2c.4-.1.8-.1 1.2-.3"/></clipPath><g clip-path="url(#q)"><path fill="#007e8a" d="M35.9 1.2h23v25.6h-23z"/></g></g><g><clipPath id="r"><path d="M111.7 37.7l-.1-.1c-.1.1-.1.2-.2.3h-.9c0-.5-.1-1.3.2-1.4-.2-.1-.3-.3-.2-.5.4.1.9-.1.5-.7l-.3-.3c-.1-.1-.2-.4-.4-.5-.2-.1-.2-.2-.3-.3-.1-.3-.4-.6-.7-.8-.6.3-.1 1.7-.3 2.2v.1c.2.2.5.1.7.3.2.6.2 1.3 0 1.9h-.3c-.1-.1 0-.2-.1-.2-.1.1-.1.2-.2.3-.1 0 0-.1-.1-.2s0 .2-.2.2-.1-.1-.1-.2c-.2.2-.3 0-.6.2-.3-.1-.6 0-.8.1-.3-.1-.6-.1-.9 0l-.3-.1c-.7.1-1.4.1-2.1 0 .1-.6.1-1.3.3-1.9.4 0 .9-.1 1.3-.3.1-.5.1-.9.1-1.4.1-2.7.1-6 .1-8.4-.5-.1-1.1-.1-1.7-.3 0-.7.1-1.3.2-2 .6-.2 1.2-.3 1.8-.3.3 0 .4-.2.8-.3.7-.2 1.3-.2 2 0 .1.7.1 1.5-.1 2.2-.1.7.1 1.7 0 2.5v2c0 .5-.1.9-.1 1.2 0 .3-.1.6.2.7.7-.4 1.4-.9 2-1.4.2 0 .3-.1.4-.2-.1-.2-.2-.3-.4-.5-.3.1-.6.1-.8-.1-.1-.7-.1-1.5 0-2.2 1.7.1 3.8 0 5.4.2.1.7.1 1.5 0 2.2-.3-.1-.6 0-.8.2-.1.1-.3.2-.4.2-.1.1-.2.2-.4.3-.2.2-.5.4-.7.6-.3.2-.5.4-.8.6-.2.2-.3.5-.2.8.1.2.3.3.5.4l.8.8c.1.1.3.3.3.5.6.4 1.1.9 1.6 1.4.3.1.6.2.9.2 0 .3.1.5.1.8 0 .1 0 .2-.1.3.1.4.1.7.1 1.1-.6-.1-1.2-.1-1.8-.1-.1-.1.1-.1.1-.2h-.5c-.1 0 .1.1 0 .2s-.1-.1-.2-.2.1.2 0 .1h-.3v-.2h-.5l-.1.2h-.2c-.2-.1-.5-.1-.8 0l-.1-.1-.3.1c-.1-.1.2-.2.1-.1"/></clipPath><g clip-path="url(#r)"><path fill="#007e8a" d="M99.1 18h22.3v25.2H99.1z"/></g></g><g><clipPath id="s"><path d="M67 11.2v.2c.1-.1.3-.1.5-.1l.2.2c.2 0 .4.1.5.3.3.1.6.2.8.4.5.7.8 1.6.8 2.5.1 1.6.1 3.2 0 4.8l.2.1c.2-.1.4-.2.5-.4h.1c.3.5.3 1.1.2 1.7.1.4 0 .7-.1 1.1-1.3 0-2.5 0-3.8-.2 0-.5-.1-1-.2-1.5 0-.1.1-.1.2-.1 0-.2-.1-.4-.3-.4-.4.8-.9 1.5-1.3 2.2-.4 0-.9.1-1.3.2-.1 0-.2-.1-.2-.1-.3 0-.7 0-1-.2h-.4c-.1-.1-.3-.2-.4-.3-.3 0-.5-.2-.6-.4.1-.1 0-.3-.1-.4-.1 0-.2.1-.2.1-.3-.2-.4-.5-.3-.8-.2-.3-.2-.6-.2-.9l.3-.1c-.5-.4.3-1.5.8-1.8.3-.4.6-.7 1.1-.9h.3c.1 0-.1 0-.1-.1.5-.4 1.1-.6 1.7-.8.1.1.3.2.4.1 0-.2-.3.1-.2-.1.4-.1 1.1-.1 1.4-.2.1-.1.3-.2.5-.2-.1-.1-.1-.2-.2-.2 0-.1.1-.1.2-.2 0-.2-.1-.4-.2-.5 0-.2-.1-.5-.2-.7-.3-.2-.6-.3-1-.4-.3.1-.5.1-.8.1-.3.3-.6.5-.9.9.1.3-.2.6-.1.9-.1.1-.3.2-.4.3-.3-.1-.7-.1-1 0-.2-.1-.4-.2-.6-.2-.1-.3.3-.1.3-.4-.1-.1-.2-.2-.2-.3.1-.6-.1-1.1 0-1.7h.2c.1-.2.2-.3.4-.4.4.1.7-.5 1-.3l.3-.3c.1 0 .1 0 .2.1.4-.1.7-.3 1-.5.3-.2 1.3-.2 2.2-.1m-1.2 5.7c-.6.2-1.2.4-1.8.7 0 .2-.1.4-.2.5-.2.3-.1.7.2 1h.3c.4.1.8.1 1.2 0 .7-.2 1.2-.8 1.2-1.6.1-.3 0-.7-.4-.8-.1 0-.2-.1-.3 0-.2 0-.2.1-.2.2"/></clipPath><g clip-path="url(#s)"><path fill="#007e8a" d="M55.5 6.1h20.3v21H55.5z"/></g></g><g><clipPath id="t"><path d="M102.9 8c.1 1 .1 2-.1 3l.6.6h1.3c.1.6.1 1.1.1 1.7-.3.1-.6.1-.9.1l-.2-.2c-.4.1-.7.3-.8.7 0 .2.1.5.1.8l-.3.6c-.2.9-.2 1.8 0 2.7 0 .6.3 1.2.7 1.6.4.2.8.4 1.3.5.1.5.1.9 0 1.4-.1.1-.2.2-.4.3-.4.2-.7.4-1.1.5-.7 0-1.3-.1-1.9-.4-.2-.2-.4-.3-.6-.5-.5-.9-.9-1.9-.9-2.9v-1.2c-.1-.5-.1-1.1 0-1.6-.1-.3-.1-.6.1-.8.1-.5 0-.9-.2-1.4-.1.1-.2.1-.4.1s-.4-.1-.5-.1c-.1 0-.2.2-.3.1-.1-.6-.1-1.2 0-1.9.4-.2.9-.3 1.3-.4.1-.2.3-.4.3-.6.8-.8 1.3-1.8 1.6-2.8.2 0 .7 0 1.2.1"/></clipPath><g clip-path="url(#t)"><path fill="#007e8a" d="M93.3 3H110v24.3H93.3z"/></g></g><g><clipPath id="u"><path d="M80.6 12c1.1 0 1.2 1.2 1.4 2.2-.3 1.7-.3 3.5-.1 5.3 0 .5 1.2.3 1.4.7 0 .6 0 1.2-.1 1.8-1.6 0-3.1-.1-4.6-.3-.1-.4-.1-.8 0-1.2-.1-.8-.1-1.6 0-2.4-.2-.9-.3-1.8-.4-2.7 0-.2.1-.4.1-.6-.1-.6-.7-.6-1.1-.9-.2 0-.3.1-.5.1-.2.2-.4.4-.6.7-.3.5-.1 1.1-.4 1.6 0 1.1.1 2.3.3 3.4.3.2 1 .1 1.4.3.1.6.1 1.2 0 1.8-1.7.3-3.8 0-5.9.1-.2-.3-.3-.7-.2-1-.1-.3-.1-.5 0-.8.2-.7 1.5 0 1.4-.9.1 0 0 .2.2.1s-.2-.2-.2-.4c0-1.2 0-2.4.2-3.6-.1-.3-.1-.5-.1-.8-.3-.5-1.3-.1-1.6-.6-.2-.7-.2-1.3-.2-1.9.4.2.8.2 1.3.2.3-.2.7-.2 1-.1.3-.6 1.2-.5 1.9-.7.3.5.2 1.1.5 1.6l.6-.3c.1-.4.4-.7.8-.8.1-.4.4-.4.8-.4s1-.2 1.5-.1c.3 0 .6.1.8.2.2 0 .4.2.4.4"/></clipPath><g clip-path="url(#u)"><path fill="#007e8a" d="M66 6.2h22.3v20.7H66z"/></g></g><g><clipPath id="v"><path d="M91.8 12c0 .9 0 1.8-.1 2.7l-1.6.1c-.2-.1-.3-.4-.3-.6-.3-.5-.7-.8-1.3-1-.6.1-1.3-.3-1.8.1-.1.4 0 .8.3 1.1.9.4 1.9.8 2.8 1.2.4 0 .7.1 1 .3.3.2.6.4.9.7.5.5.8 1.2.8 1.9 0 .2-.1.3-.1.5v.6c-.1.5-.4 1-.7 1.5-.2.1-.4.2-.6.4-.4.1-.8.2-1.2.2-.1 0-.2.1-.3.2h-.3c-.3.1-.6.2-.9.2-.7-.1-1.3-.2-1.9-.4-.9-.2-1.7-.5-2.5-.9 0-.8-.3-2 .1-2.6-.1 0-.3-.2-.1-.4.5-.1 1-.2 1.5-.1 0 .1 0 .3-.1.4.1.1.2.1.3.1 0 .3.1.5.3.6.1.1.1.3.2.4.3.4.8.6 1.2.7 1 .1 2.6-.2 2-1.1-1.3-.8-3.1-1.1-4.1-2.2-.7-.2-1.3-.7-1.4-1.5-.2-.8-.1-1.6.3-2.3.2-.3.4-.6.7-.7.2-.3.5-.5.8-.6h.3c0-.1 0-.2.1-.2 1.1-.3 2.3-.5 3.4-.4.8.3 1.5.6 2.4.9"/></clipPath><g clip-path="url(#v)"><path fill="#007e8a" d="M78.7 6.1h18.7v21.1H78.7z"/></g></g><g><clipPath id="w"><path d="M133.4 19.7c.4 0 .9.1 1.3.2v.8c0 .1-.1 0-.1 0 .2.4.2.8.2 1.2h-2.4c-.1 0-.2-.1-.3-.1-.4 0-.8-.1-1.2-.2-.2.1-.4.1-.6.1-.1-.2-.1-.5 0-.8 0-.1-.1-.2-.1-.2.1-1.3 0-2.9-.1-4.3 0-.8.3-1.7-.5-2.2-.6-.2-1.2-.1-1.7.2-.2.2-.4.5-.5.8 0 .3 0 .7.1 1V18c-.1.4-.1.8 0 1.2l.6.6c.2.2.5.2.7.4.1.6 0 1.1-.1 1.7-1.3.1-2.6.2-3.9.1-.4.1-.8.1-1.2 0-.2.1-.5.2-.8.1 0-.2 0-.4.1-.6 0-.1-.1-.2-.1-.4.1-.3.1-.7.1-1 .4-.1.8-.3 1.2-.5.1-1.1.1-2.3.1-3.3 0-.1.1-.2.1-.4s-.1-.2-.1-.4c0-.3.1-.5.1-.8-.2-.6-1.3-.3-1.6-.7v-.4c-.1-.4-.1-.8 0-1.1.8-.3 1.6-.5 2.5-.6.6-.1 1.2-.2 1.8-.2.2.4 0 1.2.4 1.5.9-.6 1.5-1.7 3-1.8h.8c.2.1.3.2.5.3.2 0 .4.1.6.1.3.1.5.5.8.6.1.4.3.7.5 1.1v3.4c-.4.8-.4 1.8-.2 2.8"/></clipPath><g clip-path="url(#w)"><path fill="#007e8a" d="M117.5 6.2h22.2v20.9h-22.2z"/></g></g><g><clipPath id="x"><path d="M27.1 41.5c1.2-.4 2.5 0 3.9 0 1-.1 2.1 0 3.1.2-.6.3-1.2.4-1.9.2-.1 0-.2.1-.4.1-2-.1-3.7-.1-4.6-.1l-.1-.1v-.3"/></clipPath><g clip-path="url(#x)"><path fill="#007e8a" d="M22.1 36.3h17v10.8h-17z"/></g></g><g><clipPath id="y"><path d="M142.3.8h.2c-.1-.2-.1-.1-.2 0zm-.3.2c.1 0 .2-.1.3-.3l-.3.2V1zm1.5 43.6c.5-.5.2-1.5.2-2.4v-6.1c-.3-.3-.6-.6-1-.9l.3-.6c.2.1.4 0 .6-.1.1-7.1.2-16.4.1-23.8 0-1.4-.1-2.9-.1-4.7 0-1.2.4-4.7-.6-4.8l-.6.3c-.2 0-.4-.1-.6-.1-.3.1-.3.4-.5.4-.5-.4-1.9-.1-2.6-.3 1.5-.4 2.2-.5 3.2-.7 0-.2.1-.4-.1-.4-2.1 0-35.6-.1-65.1-.1-2.5 0-6.4.5-8.9.5C50.3.8 35.7.3 34.4.3c-1.1 0-2.2.1-3.3 0-.4 0-.9-.2-1.3-.2s-.7.1-1.1.2H27c-.8.1-1.5.1-2.3 0C18.3.2 11.5.5 4 .4 3.8.3 3.5.2 3.3.3 3.2.1 3 0 2.9 0L2 .4c.1.2.1.4 0 .6C1.6 1 1.2.9.8.9.6.8.6.4.3.5 0 .6.1 2 .2 2.3c.1 3.2 0 6.6 0 10.2v7.8c-.2.8-.2 1.7-.1 2.6.1.2.2.4.4.6.1.3.1.6.1.9.1.8 0 1.7 0 2.3-.6 1-.4 3.1-.4 4.8v7.2c-.1 1.4 0 2.9.1 4.3-.2.2-.2.4 0 .6-.2.1-.3.3-.3.5.6.1.2.5.4.9 1 .2 1.9.2 2.9.2h18.5c1 .1 2.1.1 3.1 0 .2-.1.3-.2.5-.4h1.7c.1.2.2.3.4.4 4.1.1 105.8.6 110.1.6.7.1 1.3.2 2 .2.2-.1.4-.4.7-.4h1c.9.1 1.9 0 2.7-.5-.1-.2-.2-.4-.5-.5zm-1.9-37.2h.1c0 .1 0 .2-.1.2-.1.2 0-.2 0-.2zM1.8 3.8c0-.2 0-.5.1-.7h.2c0 .2.1.5.2.7h-.5zM2 9.6c.2 1.3.2 2.6.1 3.9-.2-1.3-.2-2.6-.1-3.9zm.1 33.2c.2.1.7-.3.7.2-.3-.2-.7 0-.7-.2zm31.7.8c-.1 0 .3-.1.3 0s-.1-.1-.3 0zm.5 0c.1-.1.6-.3.5 0h-.5zM142 40.5c-.4-.4-.1-1.4-.8-1.3-.5 0-.2.6-.4 1.1 0 .2-.4.1-.5.2-.3 1.1-.3 2-.6 3.1-.9.1-51 .5-54.3.1-1.5-.2-3-.2-4.4 0-22.8 0-43.9-.1-45.3-.1 1.4-.4 3.2.2 4.6-.3-.4-.3-.9-.4-1.3-.3-1-.1-2-.1-3 0-.3-.2-.6-.2-.8 0-.3-.1-.6-.1-.9-.1-.2-.1-.3-.2-.4-.3-2.5.4-5.1.5-7.7.4.1-1.2.2-2.3.3-3.7v-.9c-.1-1.2-.1-2.5 0-3.7-.1-4.1-1-8.1-2.8-11.8-.3-1-.8-1.9-1.3-2.7-.4-.3-.7-.7-.9-1.1.2 0 .5.1.7.2-.4-1.2-1.5-1.9-2.6-2.5-1-.8-2.1-1.4-3.3-1.9-.6 0-1.2-.2-1.7-.5-.5-.1-1-.2-1.5-.5.3-.1.6-.1.9-.2-1-.5-2-1-2.9-1.5-1.3-1.2-2.3-2.6-3-4.3-.2-.3-.3-1-.8-1-.3.8.9 2-.1 2.3 0-.3-.1-.7-.2-1v2.5c-.1 3.2.8 6.7.7 9.4.9 1.9 1.9 3.7 3 5.5-.1.2-.6 0-.4.2.5 1.2 1.2 2.3 2.1 3.2.7.6 1.4 1.3 2 1.7 1.1.8 2.3 1.1 3.1 2 3 1.1 6.3 1.8 7.9 4.6 0 1.9-.2 3.8-.4 5.7h-1c-.3 0-.7-.2-1-.2-.3 0-.4.1-.6.1-.2 0-.6-.2-.9-.2-.7 0-1.3 0-2 .1h-11c-.2 0-.5.1-.8.1-.4-.1-.8-.2-1.2-.2-.2 0-.3.1-.4.1-.7 0-1.4-.1-2.1-.2.3-.3 1.3 0 1.1-.9-.3-.3-.7-.5-1-.7.1-.4.1-.8-.3-.9.1-.3 0-.6-.3-.8h-.2c-.3-.1-.2.2-.4.2 0-.3-.2-.5-.4-.5.3-2.3.3-4.6.1-6.9-.1-.9.2-1.7-.3-2.4.1-3.4-.2-6.7 0-10.2.1-.1.3-.2.4-.3.1-1 .1-2.1.1-3.1-.2-1.3.1-3.3 0-4.9-.1-1.6-.2-2.8-.2-4 0-.5 0-1.1.2-1.6-.2-.3-.4-.3-.7-.2 0-.4.1-.8.2-1.2.2.2.3.5.5.8h.6c0-.6 0-1.2.1-1.8h5.3c1 .2 2.1.2 3.1 0 .9-.1 2.1.3 2.7-.2-.4-.5-1.2-.4-2-.4-.4 0-.8-.2-1.2-.2h-2c.3-.2.7-.3 1-.2h4.2l.3.3c2.4 0 4.8.1 7.6.2 1.8.1 3.5 0 5.3 0 5.2-.2 107.2.5 112.6-.4.1-.3-.3-.1-.2-.3h.5c.2 2.3-.2 4.3-.1 6.1-.2.5-.2 1-.1 1.6-.2.9-.2 1.7-.1 2.6.5.5.1 1.4.2 2.4 0 .2.1.5.1.8 0 .6-.1 1.2-.1 1.8 0 .6-.1 1.4.4 1.4.2 0 .3-.1.4-.3-.1-1.1.1-2.2 0-3 .3-2 .1-5.3.4-7.4.1 1.1.1 2.3 0 3.5 0 .1-.1.3-.1.4.1.2.1.5.1.7-.2.2-.2.6-.1.8-.1.1-.1.2-.1.3.1.4.1.8-.1 1.2-.1 1-.1 2.6-.1 3.6-.1.4-.1.8.2 1.1 0 1.7-.2 3.3-.2 5.1 0 .2.1.5.1.6l-.1.3c0 .1.1.3.1.4 0 .2 0 .4-.1.6l.3.6c-.1.4-.1.8 0 1.3-.1.9-.1 1.7 0 2.6 0 .1-.1.2-.1.3.1 1.9-.4 3.9-.2 6 .6-.6.3-2 .6-2.8.1 1.1-.2 2.3-.1 3.5.3.7.3 1.6.1 2.4zM20.7 28.4c-.3-.9-.9-1.7-1.5-2.4-1.1-1.3-5.5-3.9-5.5-4.1-.5-.3-.8-.8-1-1.3h-.1c0-.3-.2-.6-.5-.6-.5-1.1-1.2-2-1.7-3.2 1.2 1.8 2.8 3.2 3.9 5.2 1.2.3 2.3.9 3.2 1.8.8 0 2.9 3.6 3.5 4.6l-.2.1c0 .1.2.1.1.2 0-.1.1-.1.2-.1-.2.3.5.7.4 1.1.2 0 .3.2.3.3l-.2-.1c.1.2.4.1.4.4-.4 0-.3-.5-.5-.7-.4-.4-.6-1-.8-1.5-.1 0 .1.1 0 .3zm-2.8-2.5c-.6-.3-1.1-.7-1.5-1.2.6.3 1.1.7 1.5 1.2zm124.9-10.8l.1.1v1.7c0 .5.2 1.3-.4 1.3 0-.8.2-2.1.3-3.1z"/></clipPath><g clip-path="url(#y)"><path fill="#007e8a" d="M0 0h143.5v46H0z"/></g></g><g><clipPath id="z"><path d="M35.7 12.4c-.5-.8-1-1.6-1.7-2.3 0-.4-.1-1.3-.5-1.4.1 5-3.2 7.1-5.6 9.9 0 .9-.7 1.5-.9 2.4-.2.5 0 1.2-.5 1.3 0 1.6-.1 3.2-.4 4.8.4 1.6.6 3.2.8 4.9.2.2.4.4.5.6 1-1.3 1.6-3 2.6-4.3 1.1-1.2 2.3-2.4 3.6-3.4.4-1 1-1.9 1.8-2.6.5-1.7 1.4-3.1 1.7-5-.8-1.5-.7-3.5-1.4-4.9m-6.2 12.4c.1-2.2 2.9-5.5 3.4-6-1.2 1.9-2.4 3.9-3.4 6m4.4-7.9l-.6 1.2s.2-.7.5-1.3c.1-.2.1-.5.1-.7.1.3.1.5 0 .8"/></clipPath><g clip-path="url(#z)"><path fill="#007e8a" d="M21.1 3.8H42v33.8H21.1z"/></g></g></svg>