<svg xmlns="http://www.w3.org/2000/svg" xmlns:xlink="http://www.w3.org/1999/xlink" width="463.85" height="107.49" viewBox="0 0 463.85 107.49">
  <defs>
    <style>
      .cls-1 {
        fill: #fff;
      }

      .cls-2 {
        fill: #00344d;
      }

      .cls-3 {
        fill: #009147;
      }

      .cls-4 {
        fill: url(#linear-gradient);
      }

      .cls-5 {
        fill: url(#linear-gradient-2);
      }

      .cls-6 {
        fill: url(#linear-gradient-3);
      }

      .cls-7 {
        fill: url(#linear-gradient-4);
      }

      .cls-8 {
        fill: url(#linear-gradient-5);
      }

      .cls-9 {
        fill: url(#linear-gradient-6);
      }

      .cls-10 {
        fill: url(#linear-gradient-7);
      }

      .cls-11 {
        fill: url(#linear-gradient-8);
      }
    </style>
    <linearGradient id="linear-gradient" x1="31.25" y1="50.49" x2="46.27" y2="50.49" gradientUnits="userSpaceOnUse">
      <stop offset="0" stop-color="#00344d"/>
      <stop offset="0" stop-color="#003829"/>
      <stop offset="1" stop-color="#01472a"/>
    </linearGradient>
    <linearGradient id="linear-gradient-2" x1="13.46" y1="44.89" x2="46.33" y2="44.89" gradientUnits="userSpaceOnUse">
      <stop offset="0" stop-color="#00344d"/>
      <stop offset="0" stop-color="#004155"/>
      <stop offset="1" stop-color="#016a5e"/>
    </linearGradient>
    <linearGradient id="linear-gradient-3" x1="26.24" y1="75" x2="227.53" y2="75" gradientUnits="userSpaceOnUse">
      <stop offset="0" stop-color="#00344d"/>
      <stop offset="0" stop-color="#004155"/>
      <stop offset="0.35" stop-color="#009147"/>
      <stop offset="0.59" stop-color="#ffcd03"/>
      <stop offset="0.85" stop-color="#f99d1c"/>
    </linearGradient>
    <linearGradient id="linear-gradient-4" x1="156.22" y1="33.47" x2="226.78" y2="33.47" gradientUnits="userSpaceOnUse">
      <stop offset="0.12" stop-color="#fdbd12"/>
      <stop offset="0.85" stop-color="#f99e1e"/>
    </linearGradient>
    <linearGradient id="linear-gradient-5" x1="139.42" y1="42.17" x2="173.02" y2="42.17" gradientUnits="userSpaceOnUse">
      <stop offset="0.15" stop-color="#fbb01a"/>
      <stop offset="1" stop-color="#f78d1f"/>
    </linearGradient>
    <linearGradient id="linear-gradient-6" x1="102.14" y1="39.18" x2="156.22" y2="39.18" gradientUnits="userSpaceOnUse">
      <stop offset="0.13" stop-color="#60a344"/>
      <stop offset="0.72" stop-color="#fbcb13"/>
      <stop offset="1" stop-color="#ffc513"/>
    </linearGradient>
    <linearGradient id="linear-gradient-7" x1="84.9" y1="45.53" x2="119.37" y2="45.53" gradientUnits="userSpaceOnUse">
      <stop offset="0" stop-color="#00344d"/>
      <stop offset="0" stop-color="#008041"/>
      <stop offset="1" stop-color="#6e913c"/>
    </linearGradient>
    <linearGradient id="linear-gradient-8" x1="46.27" y1="45.03" x2="102.13" y2="45.03" gradientUnits="userSpaceOnUse">
      <stop offset="0" stop-color="#00344d"/>
      <stop offset="0" stop-color="#006c5d"/>
      <stop offset="0.77" stop-color="#2e9b48"/>
      <stop offset="1" stop-color="#2f9d48"/>
    </linearGradient>
  </defs>
  <g id="Layer_2" data-name="Layer 2">
    <g id="Layer_1-2" data-name="Layer 1">
      <g>
        <rect class="cls-1" width="463.85" height="107.49"/>
        <g>
          <g>
            <path class="cls-2" d="M236,38.09V14.83h4.52v19.3h11.86v4Z"/>
            <path class="cls-2" d="M262.37,14.83h4l8.84,23.26h-4.65l-2.16-5.8h-8.13l-2.13,5.8h-4.65Zm5.21,14.29L264.37,20,261,29.12Z"/>
            <path class="cls-2" d="M282.94,23.19v14.9h-4.52V14.83h3.51L294.05,30.1V14.87h4.52V38.09H294.9Z"/>
            <path class="cls-2" d="M304.07,38.09V14.83h8.46a12.62,12.62,0,0,1,5,.92,10.22,10.22,0,0,1,3.59,2.49,10.33,10.33,0,0,1,2.16,3.69,13.83,13.83,0,0,1,.72,4.5,13.73,13.73,0,0,1-.8,4.8,10.12,10.12,0,0,1-5.93,6,12.73,12.73,0,0,1-4.73.83Zm15.37-11.66a9.8,9.8,0,0,0-.46-3.08,6.85,6.85,0,0,0-1.34-2.42,6.09,6.09,0,0,0-2.18-1.58,7.36,7.36,0,0,0-2.93-.55H308.6V34.13h3.93a7.11,7.11,0,0,0,3-.59,6,6,0,0,0,2.16-1.62A7.28,7.28,0,0,0,319,29.48,9.7,9.7,0,0,0,319.44,26.43Z"/>
            <path class="cls-2" d="M342,20.93a5.5,5.5,0,0,0-.83-.63,10.63,10.63,0,0,0-1.48-.76,11.21,11.21,0,0,0-1.88-.64,8,8,0,0,0-2.06-.27,4.62,4.62,0,0,0-2.79.69,2.28,2.28,0,0,0-.92,1.93,2,2,0,0,0,.35,1.2,2.92,2.92,0,0,0,1,.84,8.33,8.33,0,0,0,1.65.65c.67.2,1.44.41,2.31.62,1.14.31,2.17.64,3.1,1a8.46,8.46,0,0,1,2.36,1.31,5.43,5.43,0,0,1,1.49,1.88,6.22,6.22,0,0,1,.52,2.7,6.87,6.87,0,0,1-.7,3.2,6,6,0,0,1-1.9,2.14A8.21,8.21,0,0,1,339.5,38a13.8,13.8,0,0,1-3.26.38,17.63,17.63,0,0,1-5.17-.79,16.18,16.18,0,0,1-4.59-2.23l2-3.9a6,6,0,0,0,1.06.77,15.21,15.21,0,0,0,1.82.95,14.13,14.13,0,0,0,2.33.81,10.87,10.87,0,0,0,2.62.32c2.49,0,3.73-.79,3.73-2.39a2,2,0,0,0-.42-1.28,3.8,3.8,0,0,0-1.21-.91,12.27,12.27,0,0,0-1.9-.72L334,28.27a21.56,21.56,0,0,1-2.9-1A7.72,7.72,0,0,1,329.07,26a4.72,4.72,0,0,1-1.23-1.7,6,6,0,0,1-.41-2.31,7.21,7.21,0,0,1,.66-3.15,6.27,6.27,0,0,1,1.81-2.29,8.39,8.39,0,0,1,2.71-1.4,11.36,11.36,0,0,1,3.31-.47,13,13,0,0,1,4.52.77,16.83,16.83,0,0,1,3.6,1.82Z"/>
            <path class="cls-2" d="M347.51,26.3a12.13,12.13,0,0,1,.77-4.21,11.31,11.31,0,0,1,5.85-6.37,11.11,11.11,0,0,1,4.85-1,10.55,10.55,0,0,1,5.55,1.41A9,9,0,0,1,368,19.78l-3.47,2.39a6.27,6.27,0,0,0-1.11-1.65A5.6,5.6,0,0,0,362,19.45a6.5,6.5,0,0,0-1.58-.57,7.41,7.41,0,0,0-1.6-.18,6.09,6.09,0,0,0-3,.69,6.46,6.46,0,0,0-2.09,1.78,7.8,7.8,0,0,0-1.26,2.49,9.24,9.24,0,0,0-.43,2.77,9,9,0,0,0,.49,3A7.91,7.91,0,0,0,354,31.9a7.07,7.07,0,0,0,2.17,1.74,5.85,5.85,0,0,0,2.76.65,7.31,7.31,0,0,0,1.64-.19,6.33,6.33,0,0,0,3.05-1.72,5,5,0,0,0,1-1.63l3.7,2.13a6.82,6.82,0,0,1-1.59,2.31,10.07,10.07,0,0,1-2.33,1.69,11.75,11.75,0,0,1-2.76,1,12.23,12.23,0,0,1-2.89.36,9.89,9.89,0,0,1-4.55-1,12,12,0,0,1-3.56-2.73,12.92,12.92,0,0,1-2.32-3.84A11.87,11.87,0,0,1,347.51,26.3Z"/>
            <path class="cls-2" d="M378.34,14.83h4l8.84,23.26h-4.65l-2.16-5.8h-8.13l-2.13,5.8h-4.65Zm5.21,14.29L380.34,20,377,29.12Z"/>
            <path class="cls-2" d="M394.39,38.09V14.83h9.86a6.74,6.74,0,0,1,3,.67,7.74,7.74,0,0,1,2.34,1.77,8.44,8.44,0,0,1,1.54,2.49,7.57,7.57,0,0,1,.56,2.81,8,8,0,0,1-.53,2.86,8.14,8.14,0,0,1-1.47,2.48,7.15,7.15,0,0,1-2.29,1.73,6.62,6.62,0,0,1-2.95.66h-5.51v7.79Zm4.52-11.76h5.25a2.61,2.61,0,0,0,2.08-1,4.25,4.25,0,0,0,.83-2.75,4.65,4.65,0,0,0-.26-1.59,4.11,4.11,0,0,0-.69-1.2,2.78,2.78,0,0,0-1-.74A3,3,0,0,0,404,18.8h-5Z"/>
            <path class="cls-2" d="M431.61,34.13v4H415.46V14.83h15.85v4H420v5.6h9.79v3.67H420v6.06Z"/>
            <path class="cls-2" d="M449.17,20.93a5.21,5.21,0,0,0-.84-.63,9.94,9.94,0,0,0-1.47-.76A11.33,11.33,0,0,0,445,18.9a7.92,7.92,0,0,0-2.06-.27,4.61,4.61,0,0,0-2.78.69,2.25,2.25,0,0,0-.92,1.93,2,2,0,0,0,.34,1.2,3,3,0,0,0,1,.84,8.71,8.71,0,0,0,1.66.65c.66.2,1.43.41,2.31.62q1.69.47,3.09,1A8.18,8.18,0,0,1,450,26.86a5.43,5.43,0,0,1,1.49,1.88,6.22,6.22,0,0,1,.53,2.7,6.75,6.75,0,0,1-.71,3.2,5.87,5.87,0,0,1-1.9,2.14,8.15,8.15,0,0,1-2.75,1.2,13.92,13.92,0,0,1-3.26.38,17.69,17.69,0,0,1-5.18-.79,16.12,16.12,0,0,1-4.58-2.23l2-3.9a5.6,5.6,0,0,0,1.06.77,14.48,14.48,0,0,0,1.82.95,14,14,0,0,0,2.32.81,11,11,0,0,0,2.63.32c2.48,0,3.73-.79,3.73-2.39a1.94,1.94,0,0,0-.43-1.28,3.59,3.59,0,0,0-1.21-.91,11.89,11.89,0,0,0-1.9-.72l-2.49-.72a22.06,22.06,0,0,1-2.9-1A7.72,7.72,0,0,1,436.19,26a4.81,4.81,0,0,1-1.22-1.7,5.82,5.82,0,0,1-.41-2.31,7.21,7.21,0,0,1,.65-3.15A6.3,6.3,0,0,1,437,16.54a8.45,8.45,0,0,1,2.7-1.4,11.41,11.41,0,0,1,3.31-.47,12.88,12.88,0,0,1,4.52.77,16.68,16.68,0,0,1,3.61,1.82Z"/>
          </g>
          <g>
            <path class="cls-2" d="M235.88,93.74V71.26h9.53a6.39,6.39,0,0,1,2.86.65,7.27,7.27,0,0,1,2.27,1.71A8.26,8.26,0,0,1,252,76a7.27,7.27,0,0,1,.54,2.71,7.72,7.72,0,0,1-.51,2.77,7.49,7.49,0,0,1-1.43,2.39,6.93,6.93,0,0,1-2.21,1.68,6.34,6.34,0,0,1-2.85.64h-5.32v7.53Zm4.37-11.37h5.06a2.46,2.46,0,0,0,2-1,4,4,0,0,0,.81-2.66,4.31,4.31,0,0,0-.25-1.53,3.65,3.65,0,0,0-.67-1.16,2.56,2.56,0,0,0-1-.71,2.83,2.83,0,0,0-1.13-.24h-4.87Z"/>
            <path class="cls-2" d="M271.85,89.91v3.83H256.24V71.26h15.33v3.83h-11v5.42h9.47v3.54h-9.47v5.86Z"/>
            <path class="cls-2" d="M285,93.9a10.3,10.3,0,0,1-4.49-1,11,11,0,0,1-3.45-2.57,11.8,11.8,0,0,1-2.23-3.66,11.56,11.56,0,0,1-.79-4.21,11.33,11.33,0,0,1,.84-4.31,12,12,0,0,1,2.31-3.64,11.23,11.23,0,0,1,3.5-2.52,10.43,10.43,0,0,1,4.4-.93,9.8,9.8,0,0,1,4.45,1A11,11,0,0,1,293,74.71a12.1,12.1,0,0,1,2.21,3.67,11.56,11.56,0,0,1,.79,4.18,11.42,11.42,0,0,1-.82,4.3,11.77,11.77,0,0,1-2.28,3.61,11.14,11.14,0,0,1-3.48,2.5A10.43,10.43,0,0,1,285,93.9ZM278.5,82.5a9,9,0,0,0,.45,2.82,7.43,7.43,0,0,0,1.28,2.41,6.35,6.35,0,0,0,2.06,1.67,5.81,5.81,0,0,0,2.77.64,5.9,5.9,0,0,0,2.8-.65,6.37,6.37,0,0,0,2.06-1.73,7.67,7.67,0,0,0,1.27-2.42,9.16,9.16,0,0,0,.42-2.74,8.68,8.68,0,0,0-.46-2.82,7.51,7.51,0,0,0-1.3-2.4A5.92,5.92,0,0,0,285.06,75a6,6,0,0,0-2.82.64,6.48,6.48,0,0,0-2.06,1.71,7.57,7.57,0,0,0-1.25,2.41A8.86,8.86,0,0,0,278.5,82.5Z"/>
            <path class="cls-2" d="M300,93.74V71.26h9.54a6.39,6.39,0,0,1,2.86.65,7.38,7.38,0,0,1,2.27,1.71,8.26,8.26,0,0,1,1.49,2.4,7.46,7.46,0,0,1,.53,2.71,7.94,7.94,0,0,1-.5,2.77,7.68,7.68,0,0,1-1.43,2.39,6.93,6.93,0,0,1-2.21,1.68,6.34,6.34,0,0,1-2.85.64h-5.33v7.53Zm4.37-11.37h5.07a2.49,2.49,0,0,0,2-1,4,4,0,0,0,.81-2.66A4.31,4.31,0,0,0,312,77.2a3.65,3.65,0,0,0-.67-1.16,2.56,2.56,0,0,0-1-.71,2.83,2.83,0,0,0-1.13-.24h-4.88Z"/>
            <path class="cls-2" d="M320.37,93.74V71.26h4.37V89.91H336.2v3.83Z"/>
            <path class="cls-2" d="M355.11,89.91v3.83H339.49V71.26h15.33v3.83H343.87v5.42h9.46v3.54h-9.46v5.86Z"/>
          </g>
          <g>
            <path class="cls-3" d="M235.84,65.53V43.82h14.59v3.7H240.06v5.6h8.62v3.42h-8.62v9Z"/>
            <path class="cls-3" d="M261.56,65.68a9.89,9.89,0,0,1-4.33-.93,10.55,10.55,0,0,1-3.33-2.48,11.42,11.42,0,0,1-2.92-7.6,10.88,10.88,0,0,1,.81-4.15A11.39,11.39,0,0,1,254,47a10.58,10.58,0,0,1,3.38-2.43,10,10,0,0,1,4.25-.9,9.52,9.52,0,0,1,4.29,1,10.66,10.66,0,0,1,3.32,2.52,11.65,11.65,0,0,1,2.14,3.55,11.18,11.18,0,0,1,.77,4,11,11,0,0,1-.8,4.14,11.13,11.13,0,0,1-2.2,3.48,10.62,10.62,0,0,1-3.36,2.42A10.06,10.06,0,0,1,261.56,65.68Zm-6.3-11a8.66,8.66,0,0,0,.43,2.73,7.17,7.17,0,0,0,1.23,2.32,6.28,6.28,0,0,0,2,1.62,6.19,6.19,0,0,0,5.38,0,6.19,6.19,0,0,0,2-1.67,7.25,7.25,0,0,0,1.22-2.34,8.58,8.58,0,0,0,.42-2.65,8.39,8.39,0,0,0-.45-2.72,7.41,7.41,0,0,0-1.25-2.32,6,6,0,0,0-2-1.61,6.24,6.24,0,0,0-5.36,0,6,6,0,0,0-2,1.66A7.43,7.43,0,0,0,255.67,52,8.87,8.87,0,0,0,255.26,54.67Z"/>
            <path class="cls-3" d="M274.8,65.53V43.82h9.6a6.08,6.08,0,0,1,2.76.63,7,7,0,0,1,2.19,1.65,7.93,7.93,0,0,1,1.44,2.32,7.2,7.2,0,0,1-.54,6.45,6,6,0,0,1-2.86,2.5l5,8.16h-4.74l-4.44-7.28H279v7.28Zm4.22-11h5.29a2.28,2.28,0,0,0,1.08-.27,2.85,2.85,0,0,0,.87-.75,3.6,3.6,0,0,0,.58-1.12,4.1,4.1,0,0,0,.22-1.37,3.8,3.8,0,0,0-.25-1.41,3.57,3.57,0,0,0-.66-1.12,3,3,0,0,0-.94-.73,2.53,2.53,0,0,0-1.09-.26H279Z"/>
            <path class="cls-3" d="M313.29,61.83v3.7H301v-3.7h4.22V47.7a3.41,3.41,0,0,1-.81.81,11.11,11.11,0,0,1-1.29.86,10.76,10.76,0,0,1-1.46.69,4.09,4.09,0,0,1-1.36.27V46.54A3.7,3.7,0,0,0,302,46.1a11.6,11.6,0,0,0,1.57-1,12.42,12.42,0,0,0,1.18-1,5.45,5.45,0,0,0,.49-.52h4.19V61.83Z"/>
            <path class="cls-3" d="M339.83,59.93a5.05,5.05,0,0,1-.55,2.42,5.15,5.15,0,0,1-1.51,1.74,7,7,0,0,1-2.24,1.07,9.42,9.42,0,0,1-2.7.37H322.34V43.82H334a4.25,4.25,0,0,1,2.05.49,5.22,5.22,0,0,1,1.56,1.27,5.69,5.69,0,0,1,1,1.77,5.81,5.81,0,0,1,.35,2,6,6,0,0,1-.79,3,4.89,4.89,0,0,1-2.33,2.06,5.61,5.61,0,0,1,3,2A5.73,5.73,0,0,1,339.83,59.93Zm-13.27-12.5V52.9h5.63a2.5,2.5,0,0,0,1.82-.73,2.73,2.73,0,0,0,.74-2,2.78,2.78,0,0,0-.68-2,2.24,2.24,0,0,0-1.7-.73Zm9,11.71a3.25,3.25,0,0,0-.73-2,2.72,2.72,0,0,0-.8-.63,2.24,2.24,0,0,0-1-.23h-6.48V62h6.27a2.74,2.74,0,0,0,1.08-.21,2.55,2.55,0,0,0,.88-.6,3,3,0,0,0,.58-.9A2.91,2.91,0,0,0,335.58,59.14Z"/>
            <path class="cls-3" d="M342.52,65.53V43.82h4.22V65.53Z"/>
            <path class="cls-3" d="M350.65,65.53V43.82h4.22v18h11.07v3.7Z"/>
            <path class="cls-3" d="M367.9,65.53V43.82h4.22v18h11.07v3.7Z"/>
            <path class="cls-3" d="M385.14,65.53V43.82h4.22V65.53Z"/>
            <path class="cls-3" d="M402.54,65.68a9.92,9.92,0,0,1-4.33-.93,10.67,10.67,0,0,1-3.33-2.48,11.55,11.55,0,0,1-2.92-7.6,10.88,10.88,0,0,1,.81-4.15A11.58,11.58,0,0,1,395,47a10.69,10.69,0,0,1,3.38-2.43,10.06,10.06,0,0,1,4.25-.9,9.59,9.59,0,0,1,4.3,1,10.78,10.78,0,0,1,3.32,2.52,11.85,11.85,0,0,1,2.14,3.55,11.17,11.17,0,0,1,.76,4,11,11,0,0,1-.79,4.14,11.15,11.15,0,0,1-2.21,3.48,10.4,10.4,0,0,1-3.36,2.42A10,10,0,0,1,402.54,65.68Zm-6.3-11a9,9,0,0,0,.43,2.73,7.39,7.39,0,0,0,1.24,2.32,6.17,6.17,0,0,0,2,1.62,5.65,5.65,0,0,0,2.67.61,5.79,5.79,0,0,0,2.71-.62,6.3,6.3,0,0,0,2-1.67,7.46,7.46,0,0,0,1.22-2.34,8.88,8.88,0,0,0,.41-2.65,8.66,8.66,0,0,0-.44-2.72,7.64,7.64,0,0,0-1.26-2.32,6.08,6.08,0,0,0-2-1.61,6.26,6.26,0,0,0-5.37,0,6.06,6.06,0,0,0-2,1.66,7.2,7.2,0,0,0-1.2,2.32A8.57,8.57,0,0,0,396.24,54.67Z"/>
            <path class="cls-3" d="M420,51.62V65.53h-4.22V43.82h3.27l11.32,14.25V43.85h4.21V65.53h-3.42Z"/>
          </g>
        </g>
        <g>
          <path class="cls-4" d="M46.27,20.41a44,44,0,0,0-6,59.86q3.14.24,6,.3Z"/>
          <path class="cls-5" d="M40.35,80.29a44,44,0,0,1,6-59.86V9.49H27.76a14.29,14.29,0,0,0-14.3,14.29v5.79H26.25V78.51C31.55,79.39,36.17,80,40.35,80.29Z"/>
          <path class="cls-6" d="M227.5,52.38s-.6,0-.61.07c-.74,23.66-19.54,42.76-43.38,42.76a43.83,43.83,0,0,1-25.77-8.34h0a44,44,0,0,0,14.53-25.48l-.54.11a44,44,0,0,1-68,25.78,43.9,43.9,0,0,0,11-13.79c-.6.27-.37.2-1,.45A45.7,45.7,0,0,1,75.46,95.21,43.8,43.8,0,0,1,46.53,84.35h-.15l-2.21-.07V95.64H28.58v-13c-.75-.11-1.56-.23-2.34-.36v15.3H46.41V86.63a44,44,0,0,0,55.79,1.92,44,44,0,0,0,54-.42h0a44,44,0,0,0,71.3-34.54C227.53,53.18,227.51,52.79,227.5,52.38Z"/>
          <path class="cls-7" d="M173,53.53c0,1.33-.07,2.65-.19,3.95a17.35,17.35,0,0,0,5.28-2.26,33.34,33.34,0,0,0,7.44-6.75c1.84-2.07,3.89-4.92,7.33-4a50.65,50.65,0,0,1,6.6,2.91,4.24,4.24,0,0,0,4.86-.76c2.44-2,4.89-5.89,8.74-6.52,5.92-1,8.62,4.6,13.68,5.29,0,0,0,0,0,0a44,44,0,0,0-70.56-26.48A44,44,0,0,1,173,53.53Z"/>
          <path class="cls-8" d="M142.61,64.89c4-1.53,10.32-5,14.71-5.88.66-.13,1.29-.23,1.92-.32l.52-.06c.53-.07,1-.12,1.55-.16l.3,0,1.62-.1c3.38-.16,6.49-.1,9.6-.86.12-1.3.19-2.62.19-3.95a44,44,0,0,0-16.8-34.6A44,44,0,0,0,141.06,65.4,15.64,15.64,0,0,0,142.61,64.89Z"/>
          <path class="cls-9" d="M119.37,53.53a44,44,0,0,1-2.76,15.37l0,0c.36-.15.72-.29,1-.4,4-1.41,5.63-1.31,9.71-1.46s9.57-.45,13.66-1.62a44,44,0,0,1,15.16-46.47,44,44,0,0,0-54.08-.34A44,44,0,0,1,119.37,53.53Z"/>
          <path class="cls-10" d="M90.1,72.27a36.49,36.49,0,0,1,5.44-.73c2.45-.16,5.72.68,8.16.73a23.59,23.59,0,0,0,7.19-1c.38-.12.79-.28,1.21-.45l.27-.1,1.19-.5c1-.44,2.09-.92,3-1.3a44.07,44.07,0,0,0-14.48-50.31A44,44,0,0,0,89.19,72.47Z"/>
          <path class="cls-11" d="M46.28,80.57h0c10.66.21,18.78-1.41,29.6-3.94,4.31-1,8.87-3.16,13.27-4.17a44,44,0,0,1,12.94-53.88,44,44,0,0,0-55.86,1.82V80.57"/>
          <path class="cls-1" d="M213.08,40.07c-3.86.63-6.3,4.56-8.74,6.52a4.24,4.24,0,0,1-4.86.76,50.65,50.65,0,0,0-6.6-2.91c-3.45-.89-5.49,2-7.33,4a33.13,33.13,0,0,1-7.44,6.76c-5,3.17-9.6,2.86-14.88,3.12l-1.62.1-.3,0c-.51,0-1,.09-1.55.16l-.52.06c-.63.09-1.26.19-1.92.32-4.4.88-10.71,4.35-14.71,5.88-4.15,1.6-10.6,2-15.21,2.13-4.08.15-5.68,0-9.71,1.46-.33.11-.68.25-1,.4-1,.39-2,.87-3.09,1.32l-1.19.5-.27.1c-.42.17-.84.33-1.21.45a23.59,23.59,0,0,1-7.19,1c-2.45,0-5.71-.89-8.16-.73a35.23,35.23,0,0,0-5.44.73c-4.68.89-9.58,3.29-14.18,4.37C65.1,79.17,57,80.79,46.32,80.57h-.43l-1.22,0-1.09,0-1.25-.07-1.14-.07-.84-.06h0c-4.15-.33-8.83-.91-14.1-1.77v3.76l2.34.36v13H44.17V84.28l2.21.07h.15A43.79,43.79,0,0,0,75.46,95.2a45.69,45.69,0,0,0,38.31-21.27c.58-.24.35-.18,1-.44a44.3,44.3,0,0,1-11,13.79,44,44,0,0,0,68-25.78l.54-.11a44,44,0,0,1-14.53,25.48h0a43.82,43.82,0,0,0,25.77,8.33c23.84,0,42.64-19.09,43.38-42.75h0a60.68,60.68,0,0,0-.14-7.08C221.69,44.67,219,39.09,213.08,40.07Z"/>
        </g>
      </g>
    </g>
  </g>
</svg>
