<?xml version="1.0" encoding="UTF-8"?>
<svg id="Layer_2" data-name="Layer 2" xmlns="http://www.w3.org/2000/svg" xmlns:xlink="http://www.w3.org/1999/xlink" viewBox="0 0 1024 293.31">
  <defs>
    <style>
      .cls-1 {
        fill: url(#linear-gradient);
      }

      .cls-1, .cls-2 {
        stroke-width: 0px;
      }

      .cls-2 {
        fill: #f1626e;
      }
    </style>
    <linearGradient id="linear-gradient" x1="0" y1="146.65" x2="293.31" y2="146.65" gradientUnits="userSpaceOnUse">
      <stop offset="0" stop-color="#f48956"/>
      <stop offset="1" stop-color="#f1626e"/>
    </linearGradient>
  </defs>
  <g id="Layer_1-2" data-name="Layer 1">
    <g>
      <path class="cls-1" d="m293.31,146.65c0,19.87-16.1,35.97-35.97,35.97-12.6,0-23.67-6.47-30.11-16.27-5.47-8.1-14.73-13.43-25.24-13.43s-19.77,5.32-25.24,13.43c-6.43,9.8-17.51,16.27-30.11,16.27-19.87,0-35.97-16.1-35.97-35.97s16.1-35.97,35.97-35.97c12.6,0,23.67,6.47,30.11,16.27,5.47,8.1,14.73,13.43,25.24,13.43s19.77-5.32,25.24-13.43c6.43-9.8,17.51-16.27,30.11-16.27,19.87,0,35.97,16.1,35.97,35.97Zm-87.96,69.95h-.01c-15.86,13.34-36.34,21.36-58.68,21.36-50.43,0-91.31-40.89-91.31-91.31s40.89-91.31,91.31-91.31c22.35,0,42.82,8.02,58.68,21.37h.01c11.71,9.82,29.15,8.29,38.98-3.42,9.8-11.68,8.31-29.08-3.32-38.9-.03-.02-.06-.06-.09-.08-.04-.03-.08-.07-.12-.1C215.33,12.85,182.49,0,146.65,0,65.66,0,0,65.66,0,146.65s65.66,146.65,146.65,146.65c35.84,0,68.68-12.85,94.15-34.21.04-.03.08-.07.12-.1.03-.02.06-.06.09-.08,11.63-9.83,13.12-27.23,3.32-38.9-9.83-11.71-27.27-13.24-38.98-3.41Z"/>
      <g>
        <path class="cls-2" d="m348.03,174.85c0-30.43,22.29-53.71,52.08-53.71,19.33,0,36.1,10.41,43.99,26.34l-18.35,11.03c-4.34-9.6-14.01-15.72-25.84-15.72-17.36,0-30.58,13.68-30.58,32.06s13.22,32.06,30.58,32.06c11.84,0,21.5-6.33,26.24-15.73l18.35,10.82c-8.29,16.13-25.05,26.55-44.39,26.55-29.79,0-52.08-23.48-52.08-53.71Z"/>
        <path class="cls-2" d="m560.48,123.8v102.11h-21.3v-14.7c-7.5,10.82-19.14,17.36-34.52,17.36-26.83,0-49.12-23.48-49.12-53.71s22.29-53.71,49.12-53.71c15.39,0,27.03,6.53,34.52,17.15v-14.5h21.3Zm-21.3,51.05c0-18.99-13.41-32.67-31.17-32.67s-31.17,13.68-31.17,32.67,13.41,32.67,31.17,32.67,31.17-13.68,31.17-32.67Z"/>
        <path class="cls-2" d="m616.11,145.03v49.01c0,13.07,8.29,12.87,24.46,12.05v19.81c-32.75,4.08-45.77-5.31-45.77-31.86v-49.01h-18.15v-21.24h18.15v-22.06l21.3-6.53v28.59h24.46v21.24h-24.46Z"/>
        <path class="cls-2" d="m756.76,123.8v102.11h-21.31v-14.7c-7.5,10.82-19.14,17.36-34.52,17.36-26.83,0-49.12-23.48-49.12-53.71s22.29-53.71,49.12-53.71c15.39,0,27.03,6.53,34.52,17.15v-14.5h21.31Zm-21.31,51.05c0-18.99-13.41-32.67-31.17-32.67s-31.17,13.68-31.17,32.67,13.41,32.67,31.17,32.67,31.17-13.68,31.17-32.67Z"/>
        <path class="cls-2" d="m784.38,76.83h21.3v149.08h-21.3V76.83Z"/>
        <path class="cls-2" d="m829.36,94.39c0-7.76,6.12-14.09,13.61-14.09s13.61,6.33,13.61,14.09-6.12,14.09-13.61,14.09-13.61-6.53-13.61-14.09Zm2.96,29.41h21.3v102.11h-21.3v-102.11Z"/>
        <path class="cls-2" d="m950.08,197.11c0,20.42-17.16,31.45-38.47,31.45-19.73,0-33.93-9.19-40.24-23.89l18.35-11.03c3.16,9.19,11.05,14.7,21.9,14.7,9.47,0,16.77-3.27,16.77-11.44,0-18.17-53.07-7.96-53.07-44.52,0-19.2,15.98-31.24,36.1-31.24,16.18,0,29.59,7.76,36.49,21.24l-17.95,10.42c-3.55-7.96-10.45-11.64-18.54-11.64s-14.4,3.47-14.4,10.82c0,18.58,53.07,7.35,53.07,45.13Z"/>
        <path class="cls-2" d="m999.54,145.03v49.01c0,13.07,8.29,12.87,24.46,12.05v19.81c-32.75,4.08-45.77-5.31-45.77-31.86v-49.01h-18.15v-21.24h18.15v-22.06l21.31-6.53v28.59h24.46v21.24h-24.46Z"/>
      </g>
    </g>
  </g>
</svg>