<svg width="211" height="122" viewBox="0 0 211 122" fill="none" xmlns="http://www.w3.org/2000/svg">
<g opacity="0.295">
<path d="M1.94995 53.637L30.386 61.694" stroke="white"/>
<path d="M31.5959 36.495L78.5859 89.939" stroke="white"/>
<path d="M151.391 19.957L78.5859 89.938" stroke="white"/>
<path d="M30.386 61.694L41.68 84.897" stroke="white"/>
<path d="M3.15991 105.67L41.6799 84.897" stroke="white"/>
<path d="M78.5869 89.939L41.6799 84.897" stroke="white"/>
<path d="M30.386 61.694L109.846 15.319" stroke="white"/>
<path d="M1.94995 53.637L31.596 36.495" stroke="white"/>
<path d="M108.434 103.451L73.141 23.991" stroke="white"/>
<path d="M68.099 1L73.141 23.991" stroke="white"/>
<path d="M142.316 94.376L73.141 23.991" stroke="white"/>
<path d="M108.434 103.451L156.634 38.507" stroke="white"/>
<path d="M109.846 15.319L156.635 38.507" stroke="white"/>
<path d="M123.358 121.198L108.434 103.451" stroke="white"/>
<path d="M142.316 94.375L181.239 53.637" stroke="white"/>
<path d="M210.079 35.486L181.239 53.637" stroke="white"/>
<path d="M151.391 19.957L181.239 53.637" stroke="white"/>
<path d="M208.062 70.979L181.239 53.637" stroke="white"/>
<path d="M156.635 38.507L188.701 88.326" stroke="white"/>
<path d="M208.062 70.979L188.701 88.326" stroke="white"/>
</g>
<path d="M41.008 34.814H22.42V39.251H41.008V34.814Z" fill="#5E399A"/>
<path d="M8.605 52.696H0V54.948H8.605V52.696Z" fill="#81D080"/>
<path d="M36.032 61.694H27.024V63.721H36.032V61.694Z" fill="#E8CF47"/>
<path d="M46.52 83.485H36.033V86.577H46.52V83.485Z" fill="#81D080"/>
<path d="M84.569 88.594H73.41V91.417H84.569V88.594Z" fill="#E8CF47"/>
<path d="M78.384 21.369H67.225V24.192H78.384V21.369Z" fill="#4BB2E1"/>
<path d="M118.585 12.496H100.3V17.067H118.585V12.496Z" fill="#E8CF47"/>
<path d="M155.021 19.621H146.416V21.369H155.021V19.621Z" fill="#81D080"/>
<path d="M161.777 37.033H150.718V40.058H161.777V37.033Z" fill="#5E399A"/>
<path d="M112.804 101.636H103.93V104.056H112.804V101.636Z" fill="#4BB2E1"/>
<path d="M151.659 91.418H132.534V96.124H151.659V91.418Z" fill="#4BB2E1"/>
<path d="M192.936 87.418H184.6V88.594H192.936V87.418Z" fill="#5E399A"/>
<path d="M185.945 53.822H177.071V55.654H185.945V53.822Z" fill="#E8CF47"/>
<path d="M65.8429 45.346C64.9043 44.8509 64.12 44.1071 63.5759 43.196C63.0354 42.2493 62.7511 41.1781 62.7511 40.088C62.7511 38.9979 63.0354 37.9266 63.5759 36.98C64.12 36.0689 64.9043 35.325 65.8429 34.83C66.7651 34.3648 67.7762 34.1025 68.8082 34.0608C69.8402 34.019 70.8692 34.1988 71.8259 34.588C72.6232 34.9296 73.3284 35.4549 73.8839 36.121L72.1509 37.721C71.7961 37.2876 71.3481 36.9397 70.8403 36.7032C70.3326 36.4667 69.778 36.3477 69.2179 36.355C68.5433 36.3432 67.8772 36.5069 67.2849 36.83C66.727 37.1377 66.2677 37.5971 65.9599 38.155C65.6478 38.7517 65.4848 39.4151 65.4848 40.0885C65.4848 40.7619 65.6478 41.4253 65.9599 42.022C66.2677 42.5799 66.727 43.0392 67.2849 43.347C67.8772 43.6701 68.5433 43.8338 69.2179 43.822C69.7796 43.8287 70.3355 43.7077 70.8436 43.4681C71.3517 43.2285 71.7988 42.8766 72.1509 42.439L73.8839 44.039C73.3305 44.7153 72.6212 45.2472 71.8169 45.589C70.9467 45.9539 70.0105 46.1353 69.0669 46.122C67.944 46.138 66.835 45.8715 65.8419 45.347L65.8429 45.346Z" fill="white"/>
<path d="M85.4 43.755V45.922H76.3669V34.255H85.183V36.422H79.05V38.955H84.4669V41.055H79.05V43.755H85.4V43.755Z" fill="white"/>
<path d="M98.916 34.255V45.921H96.699L90.882 38.838V45.921H88.215V34.255H90.448L96.248 41.338V34.255H98.916Z" fill="white"/>
<path d="M104.766 36.455H101.033V34.255H104.842V30.477H107.357V34.258H111.199V36.458H107.466V45.924H104.766V36.455Z" fill="white"/>
<path d="M120.749 45.921L118.499 42.671H116.016V45.921H113.316V34.255H118.366C119.29 34.2335 120.208 34.4097 121.058 34.772C121.774 35.0792 122.386 35.5891 122.816 36.239C123.238 36.912 123.453 37.6946 123.433 38.489C123.464 39.2759 123.25 40.053 122.82 40.7128C122.39 41.3725 121.765 41.8825 121.033 42.172L123.65 45.922L120.749 45.921ZM120.066 36.98C119.529 36.5948 118.875 36.4091 118.216 36.455H116.016V40.522H118.216C118.876 40.5686 119.532 40.3797 120.066 39.989C120.267 39.7933 120.426 39.5595 120.535 39.3011C120.644 39.0428 120.7 38.7653 120.7 38.485C120.7 38.2046 120.644 37.9271 120.535 37.6688C120.426 37.4105 120.267 37.1766 120.066 36.981V36.98Z" fill="white"/>
<path d="M135.265 43.755V45.922H126.232V34.255H135.046V36.422H128.913V38.955H134.33V41.055H128.913V43.755H135.263H135.265Z" fill="white"/>
<path d="M63.758 51.692H60.025V49.492H70.191V51.692H66.458V61.158H63.758V51.692Z" fill="white"/>
<path d="M81.007 58.992V61.159H71.976V49.492H80.792V51.659H74.659V54.192H80.076V56.292H74.659V58.992H81.009H81.007Z" fill="white"/>
<path d="M83.49 49.492H86.19V61.158H83.49V49.492Z" fill="white"/>
<path d="M89.29 49.492H91.9901V58.958H97.84V61.158H89.29V49.492Z" fill="white"/>
<path d="M110.389 49.492V61.158H107.689V56.375H102.389V61.158H99.689V49.492H102.389V54.092H107.689V49.492H110.389Z" fill="white"/>
<path d="M121.172 58.658H115.755L114.722 61.158H111.955L117.155 49.492H119.822L125.038 61.158H122.205L121.172 58.658V58.658ZM120.322 56.608L118.472 52.141L116.622 56.608H120.322V56.608Z" fill="white"/>
<path d="M134.022 61.158L131.772 57.908H129.289V61.158H126.589V49.492H131.639C132.563 49.4705 133.481 49.6467 134.331 50.009C135.047 50.3162 135.658 50.8261 136.089 51.476C136.511 52.149 136.726 52.9316 136.706 53.726C136.737 54.5129 136.523 55.29 136.093 55.9498C135.663 56.6095 135.038 57.1195 134.306 57.409L136.923 61.159L134.022 61.158ZM133.339 52.217C132.802 51.8319 132.148 51.6462 131.489 51.692H129.289V55.759H131.489C132.149 55.8056 132.805 55.6167 133.339 55.226C133.54 55.0303 133.699 54.7965 133.808 54.5381C133.917 54.2798 133.973 54.0023 133.973 53.722C133.973 53.4416 133.917 53.1641 133.808 52.9058C133.699 52.6475 133.54 52.4136 133.339 52.218V52.217Z" fill="white"/>
<path d="M139.172 49.492H144.472C145.633 49.4687 146.782 49.717 147.83 50.217C148.765 50.667 149.552 51.3757 150.097 52.259C150.627 53.1942 150.905 54.2507 150.905 55.3255C150.905 56.4003 150.627 57.4568 150.097 58.392C149.552 59.2754 148.765 59.9841 147.83 60.434C146.782 60.934 145.633 61.1823 144.472 61.159H139.172V49.492ZM144.338 58.942C145.36 58.994 146.362 58.6441 147.13 57.967C147.799 57.2503 148.172 56.3062 148.172 55.3255C148.172 54.3448 147.799 53.4007 147.13 52.684C146.362 52.0084 145.36 51.6599 144.338 51.713H141.871V58.946H144.338V58.942Z" fill="white"/>
<path d="M56.579 65.206H61.879C63.0395 65.1827 64.1894 65.4309 65.237 65.931C66.1723 66.381 66.959 67.0896 67.504 67.973C68.0338 68.9081 68.3123 69.9646 68.3123 71.0395C68.3123 72.1143 68.0338 73.1708 67.504 74.106C66.9591 74.9893 66.1723 75.698 65.237 76.148C64.1894 76.648 63.0395 76.8963 61.879 76.873H56.579V65.206ZM61.745 74.656C62.7672 74.708 63.7693 74.358 64.537 73.681C65.2063 72.9643 65.5787 72.0201 65.5787 71.0395C65.5787 70.0588 65.2063 69.1147 64.537 68.398C63.7682 67.7219 62.7654 67.3734 61.743 67.427H59.276V74.66H61.743L61.745 74.656Z" fill="white"/>
<path d="M79.9109 74.706V76.873H70.8829V65.206H79.6989V67.373H73.5659V69.906H78.9829V72.006H73.5659V74.706H79.9159H79.9109Z" fill="white"/>
<path d="M90.203 76.297C89.2644 75.8019 88.4801 75.0581 87.936 74.147C87.3955 73.2003 87.1112 72.1291 87.1112 71.039C87.1112 69.9489 87.3955 68.8776 87.936 67.931C88.4801 67.0199 89.2644 66.2761 90.203 65.781C91.1252 65.3158 92.1363 65.0535 93.1683 65.0118C94.2003 64.97 95.2293 65.1498 96.186 65.539C96.9833 65.8805 97.6885 66.4059 98.244 67.072L96.511 68.672C96.1562 68.2386 95.7082 67.8907 95.2004 67.6542C94.6927 67.4177 94.1381 67.2987 93.578 67.306C92.9034 67.2942 92.2373 67.4578 91.645 67.781C91.0871 68.0887 90.6278 68.5481 90.32 69.106C90.008 69.7027 89.8449 70.3661 89.8449 71.0395C89.8449 71.7129 90.008 72.3763 90.32 72.973C90.6278 73.5309 91.0871 73.9902 91.645 74.298C92.2373 74.6211 92.9034 74.7848 93.578 74.773C94.1397 74.7797 94.6956 74.6587 95.2037 74.4191C95.7118 74.1795 96.1588 73.8276 96.511 73.39L98.244 74.99C97.6906 75.6663 96.9813 76.1982 96.177 76.54C95.3068 76.9049 94.3706 77.0863 93.427 77.073C92.3041 77.089 91.1951 76.8225 90.202 76.298L90.203 76.297Z" fill="white"/>
<path d="M111.291 65.206V76.872H108.591V72.089H103.291V76.872H100.591V65.206H103.291V69.806H108.591V65.206H111.291Z" fill="white"/>
<path d="M122.277 74.372H116.86L115.827 76.872H113.06L118.26 65.206H120.927L126.143 76.872H123.31L122.277 74.372V74.372ZM121.427 72.322L119.577 67.856L117.727 72.322H121.427V72.322Z" fill="white"/>
<path d="M135.33 76.872L133.08 73.622H130.597V76.872H127.897V65.206H132.947C133.871 65.1845 134.789 65.3607 135.639 65.723C136.355 66.0302 136.966 66.5401 137.397 67.19C137.819 67.863 138.034 68.6456 138.014 69.44C138.045 70.2269 137.831 71.004 137.401 71.6637C136.971 72.3235 136.346 72.8335 135.614 73.123L138.231 76.873H135.331L135.33 76.872ZM134.647 67.931C134.11 67.5458 133.456 67.3601 132.797 67.406H130.597V71.473H132.797C133.457 71.5196 134.113 71.3307 134.647 70.94C134.848 70.7443 135.007 70.5105 135.116 70.2522C135.225 69.9938 135.281 69.7163 135.281 69.436C135.281 69.1556 135.225 68.8781 135.116 68.6198C135.007 68.3615 134.848 68.1276 134.647 67.932V67.931Z" fill="white"/>
<path d="M140.676 65.206H145.976C147.137 65.1827 148.287 65.4309 149.334 65.931C150.269 66.381 151.056 67.0896 151.601 67.973C152.131 68.9081 152.409 69.9646 152.409 71.0395C152.409 72.1143 152.131 73.1708 151.601 74.106C151.056 74.9893 150.269 75.698 149.334 76.148C148.287 76.648 147.137 76.8963 145.976 76.873H140.676V65.206ZM145.842 74.656C146.864 74.708 147.866 74.358 148.634 73.681C149.303 72.9643 149.676 72.0201 149.676 71.0395C149.676 70.0588 149.303 69.1147 148.634 68.398C147.866 67.7209 146.864 67.371 145.842 67.423H143.375V74.656H145.842V74.656Z" fill="white"/>
<path d="M154.975 65.206H157.675V76.872H154.975V65.206Z" fill="white"/>
<path d="M171.675 65.206V76.872H169.458L163.642 69.789V76.872H160.975V65.206H163.208L169.008 72.289V65.206H171.675Z" fill="white"/>
<path d="M128.225 82.726V79.926H129.437C129.688 79.926 129.904 79.9673 130.085 80.05C130.266 80.13 130.406 80.246 130.505 80.398C130.604 80.55 130.653 80.7313 130.653 80.942C130.653 81.15 130.604 81.33 130.505 81.482C130.406 81.634 130.266 81.7513 130.085 81.834C129.904 81.914 129.688 81.954 129.437 81.954H128.585L128.873 81.662V82.726H128.225ZM128.873 81.734L128.585 81.426H129.401C129.601 81.426 129.75 81.3833 129.849 81.298C129.948 81.2126 129.997 81.094 129.997 80.942C129.997 80.7873 129.948 80.6673 129.849 80.582C129.75 80.4966 129.601 80.454 129.401 80.454H128.585L128.873 80.146V81.734ZM130.607 82.726L131.855 79.926H132.495L133.747 82.726H133.067L132.043 80.254H132.299L131.271 82.726H130.607ZM131.231 82.126L131.403 81.634H132.843L133.019 82.126H131.231ZM134.037 82.726V79.926H135.249C135.5 79.926 135.716 79.9673 135.897 80.05C136.079 80.13 136.219 80.246 136.317 80.398C136.416 80.55 136.465 80.7313 136.465 80.942C136.465 81.15 136.416 81.33 136.317 81.482C136.219 81.6313 136.079 81.746 135.897 81.826C135.716 81.906 135.5 81.946 135.249 81.946H134.397L134.685 81.662V82.726H134.037ZM135.817 82.726L135.117 81.71H135.809L136.517 82.726H135.817ZM134.685 81.734L134.397 81.43H135.213C135.413 81.43 135.563 81.3873 135.661 81.302C135.76 81.214 135.809 81.094 135.809 80.942C135.809 80.7873 135.76 80.6673 135.661 80.582C135.563 80.4966 135.413 80.454 135.213 80.454H134.397L134.685 80.146V81.734ZM136.979 82.726V79.926H137.627V82.726H136.979ZM139.211 82.774C138.987 82.774 138.773 82.7446 138.567 82.686C138.362 82.6246 138.197 82.546 138.071 82.45L138.291 81.962C138.411 82.0473 138.553 82.118 138.715 82.174C138.881 82.2273 139.047 82.254 139.215 82.254C139.343 82.254 139.446 82.242 139.523 82.218C139.603 82.1913 139.662 82.1553 139.699 82.11C139.737 82.0646 139.755 82.0126 139.755 81.954C139.755 81.8793 139.726 81.8206 139.667 81.778C139.609 81.7326 139.531 81.6966 139.435 81.67C139.339 81.6406 139.233 81.614 139.115 81.59C139.001 81.5633 138.885 81.5313 138.767 81.494C138.653 81.4566 138.547 81.4086 138.451 81.35C138.355 81.2913 138.277 81.214 138.215 81.118C138.157 81.022 138.127 80.8993 138.127 80.75C138.127 80.59 138.17 80.4446 138.255 80.314C138.343 80.1806 138.474 80.0753 138.647 79.998C138.823 79.918 139.043 79.878 139.307 79.878C139.483 79.878 139.657 79.8993 139.827 79.942C139.998 79.982 140.149 80.0433 140.279 80.126L140.079 80.618C139.949 80.5433 139.818 80.4886 139.687 80.454C139.557 80.4166 139.429 80.398 139.303 80.398C139.178 80.398 139.075 80.4126 138.995 80.442C138.915 80.4713 138.858 80.51 138.823 80.558C138.789 80.6033 138.771 80.6566 138.771 80.718C138.771 80.79 138.801 80.8486 138.859 80.894C138.918 80.9366 138.995 80.9713 139.091 80.998C139.187 81.0246 139.293 81.0513 139.407 81.078C139.525 81.1046 139.641 81.1353 139.755 81.17C139.873 81.2046 139.979 81.2513 140.075 81.31C140.171 81.3686 140.249 81.446 140.307 81.542C140.369 81.638 140.399 81.7593 140.399 81.906C140.399 82.0633 140.355 82.2073 140.267 82.338C140.179 82.4686 140.047 82.574 139.871 82.654C139.698 82.734 139.478 82.774 139.211 82.774ZM140.769 81.85V81.35H141.901V81.85H140.769ZM143.305 82.774C143.081 82.774 142.866 82.7446 142.661 82.686C142.456 82.6246 142.29 82.546 142.165 82.45L142.385 81.962C142.505 82.0473 142.646 82.118 142.809 82.174C142.974 82.2273 143.141 82.254 143.309 82.254C143.437 82.254 143.54 82.242 143.617 82.218C143.697 82.1913 143.756 82.1553 143.793 82.11C143.83 82.0646 143.849 82.0126 143.849 81.954C143.849 81.8793 143.82 81.8206 143.761 81.778C143.702 81.7326 143.625 81.6966 143.529 81.67C143.433 81.6406 143.326 81.614 143.209 81.59C143.094 81.5633 142.978 81.5313 142.861 81.494C142.746 81.4566 142.641 81.4086 142.545 81.35C142.449 81.2913 142.37 81.214 142.309 81.118C142.25 81.022 142.221 80.8993 142.221 80.75C142.221 80.59 142.264 80.4446 142.349 80.314C142.437 80.1806 142.568 80.0753 142.741 79.998C142.917 79.918 143.137 79.878 143.401 79.878C143.577 79.878 143.75 79.8993 143.921 79.942C144.092 79.982 144.242 80.0433 144.373 80.126L144.173 80.618C144.042 80.5433 143.912 80.4886 143.781 80.454C143.65 80.4166 143.522 80.398 143.397 80.398C143.272 80.398 143.169 80.4126 143.089 80.442C143.009 80.4713 142.952 80.51 142.917 80.558C142.882 80.6033 142.865 80.6566 142.865 80.718C142.865 80.79 142.894 80.8486 142.953 80.894C143.012 80.9366 143.089 80.9713 143.185 80.998C143.281 81.0246 143.386 81.0513 143.501 81.078C143.618 81.1046 143.734 81.1353 143.849 81.17C143.966 81.2046 144.073 81.2513 144.169 81.31C144.265 81.3686 144.342 81.446 144.401 81.542C144.462 81.638 144.493 81.7593 144.493 81.906C144.493 82.0633 144.449 82.2073 144.361 82.338C144.273 82.4686 144.141 82.574 143.965 82.654C143.792 82.734 143.572 82.774 143.305 82.774ZM144.568 82.726L145.816 79.926H146.456L147.708 82.726H147.028L146.004 80.254H146.26L145.232 82.726H144.568ZM145.192 82.126L145.364 81.634H146.804L146.98 82.126H145.192ZM149.299 82.774C149.083 82.774 148.882 82.7393 148.695 82.67C148.511 82.598 148.351 82.4966 148.215 82.366C148.079 82.2353 147.973 82.082 147.895 81.906C147.821 81.73 147.783 81.5366 147.783 81.326C147.783 81.1153 147.821 80.922 147.895 80.746C147.973 80.57 148.079 80.4166 148.215 80.286C148.354 80.1553 148.515 80.0553 148.699 79.986C148.883 79.914 149.085 79.878 149.303 79.878C149.546 79.878 149.765 79.9206 149.959 80.006C150.157 80.0886 150.322 80.2113 150.455 80.374L150.039 80.758C149.943 80.6486 149.837 80.5673 149.719 80.514C149.602 80.458 149.474 80.43 149.335 80.43C149.205 80.43 149.085 80.4513 148.975 80.494C148.866 80.5366 148.771 80.598 148.691 80.678C148.611 80.758 148.549 80.8526 148.503 80.962C148.461 81.0713 148.439 81.1926 148.439 81.326C148.439 81.4593 148.461 81.5806 148.503 81.69C148.549 81.7993 148.611 81.894 148.691 81.974C148.771 82.054 148.866 82.1153 148.975 82.158C149.085 82.2006 149.205 82.222 149.335 82.222C149.474 82.222 149.602 82.1953 149.719 82.142C149.837 82.086 149.943 82.002 150.039 81.89L150.455 82.274C150.322 82.4366 150.157 82.5606 149.959 82.646C149.765 82.7313 149.545 82.774 149.299 82.774ZM150.893 82.726V79.926H151.541V82.198H152.945V82.726H150.893ZM152.955 82.726L154.203 79.926H154.843L156.095 82.726H155.415L154.391 80.254H154.647L153.619 82.726H152.955ZM153.579 82.126L153.751 81.634H155.191L155.367 82.126H153.579ZM156.909 82.726V81.582L157.057 81.974L155.825 79.926H156.513L157.457 81.498H157.061L158.009 79.926H158.645L157.413 81.974L157.557 81.582V82.726H156.909Z" fill="white"/>
</svg>
