<svg width="300" height="83" viewBox="0 0 300 83" fill="none" xmlns="http://www.w3.org/2000/svg">
<g clip-path="url(#clip0_30_2137)">
<path d="M154.79 67.08C155.31 64.19 156.82 62.35 159.76 62.35C162.27 62.35 164.06 64.2 164.35 67.08H154.79ZM160.09 82.5C163.17 82.5 165.62 81.7 167.66 80.28C169.79 78.81 171.21 76.73 171.73 74.56H164.21C163.55 76.07 162.22 76.97 160.19 76.97C157.02 76.97 155.22 74.94 154.75 71.67H172.16C172.21 66.75 170.79 62.54 167.9 59.89C165.82 58 163.07 56.86 159.62 56.86C152.24 56.86 147.18 62.39 147.18 69.63C147.18 76.87 152.1 82.5 160.1 82.5M134.32 82.55C141.18 82.55 145.63 78.2 145.82 72.62H138.44C138.11 75.36 136.64 76.78 134.23 76.78C130.92 76.78 129.26 74.04 129.26 69.73C129.26 65.42 130.92 62.59 134.23 62.59C136.41 62.59 137.73 64.01 138.2 66.19H145.63C144.92 60.75 140.71 56.92 134.13 56.92C126.47 56.92 121.45 62.45 121.45 69.74C121.45 77.03 126.51 82.56 134.32 82.56M95.58 81.8H103.29V68.41C103.29 65.43 104.99 63.3 107.55 63.3C110.11 63.3 111.33 65.05 111.33 67.61V81.8H119.04V66.05C119.04 60.66 115.92 56.87 110.62 56.87C107.26 56.87 104.94 58.29 103.15 60.89H103.01V57.58H95.58V81.8ZM75.62 67.09C76.14 64.2 77.65 62.36 80.59 62.36C83.1 62.36 84.9 64.21 85.18 67.09H75.62ZM80.92 82.51C84 82.51 86.45 81.71 88.49 80.29C90.62 78.82 92.04 76.74 92.56 74.57H85.04C84.38 76.08 83.05 76.98 81.02 76.98C77.85 76.98 76.05 74.95 75.58 71.68H92.99C93.04 66.76 91.62 62.55 88.73 59.9C86.65 58.01 83.9 56.87 80.45 56.87C73.07 56.87 68.01 62.4 68.01 69.64C68.01 76.88 72.93 82.51 80.93 82.51M58.17 54.22H65.88V47.98H58.17V54.22ZM58.17 81.8H65.88V57.58H58.17V81.8ZM44.21 82.56C51.07 82.56 55.52 78.21 55.71 72.63H48.33C48 75.37 46.53 76.79 44.12 76.79C40.81 76.79 39.15 74.05 39.15 69.74C39.15 65.43 40.81 62.6 44.12 62.6C46.3 62.6 47.62 64.02 48.09 66.2H55.52C54.81 60.76 50.6 56.93 44.02 56.93C36.36 56.93 31.34 62.46 31.34 69.75C31.34 77.04 36.4 82.57 44.21 82.57M15.64 82.62C23.45 82.62 29.5 78.69 29.5 71.6C29.5 64.51 23.82 62.42 17.53 60.96C12.47 59.82 9.87002 59.26 9.87002 56.89C9.87002 55 11.81 53.72 14.74 53.72C17.86 53.72 19.85 55.19 20.18 57.79H28.36C28.03 50.69 22.35 47.38 15.02 47.38C7.69002 47.38 1.58002 50.55 1.58002 57.79C1.58002 65.03 7.78002 66.68 13.64 68.06C18.28 69.2 21.02 69.76 21.02 72.46C21.02 75.01 18.32 76.01 15.58 76.01C11.56 76.01 9.34002 74.59 8.96002 71.18H0.52002C0.71002 78.65 6.62002 82.63 15.61 82.63" fill="black"/>
<path d="M222.68 42.48H227.69C232.56 42.48 234.88 40.49 236.82 34.82L245.19 10.27H237.48L234.31 20.58C233.55 22.95 232.89 26.16 232.89 26.16H232.8C232.8 26.16 232.04 22.94 231.29 20.58L228.03 10.27H219.89L227.03 28.91C228.02 31.46 228.5 32.88 228.5 33.92C228.5 35.58 227.6 36.47 225.33 36.47H222.68V42.48ZM213.93 34.77C216.01 34.77 217.48 34.58 218.14 34.39V28.76C217.86 28.76 217.1 28.81 216.44 28.81C214.78 28.81 213.74 28.34 213.74 26.44V15.09H218.14V10.26H213.74V2.6H206.22V10.26H203V15.09H206.22V28.1C206.22 33.3 209.44 34.77 213.93 34.77ZM192.93 6.91H200.64V0.660004H192.93V6.9V6.91ZM192.93 34.49H200.64V10.27H192.93V34.49ZM164.92 34.49H173.34L177.74 27.25H177.83L181.8 34.49H190.74L182.51 21.67L189.7 10.27H181.61L178.2 16.51H178.11L174.51 10.27H165.71L173.33 21.77L164.91 34.5L164.92 34.49ZM149.31 19.78C149.83 16.89 151.34 15.05 154.28 15.05C156.79 15.05 158.59 16.89 158.87 19.78H149.31ZM154.61 35.2C157.69 35.2 160.14 34.4 162.18 32.98C164.31 31.51 165.73 29.43 166.25 27.26H158.73C158.07 28.77 156.74 29.67 154.71 29.67C151.54 29.67 149.74 27.64 149.27 24.37H166.68C166.73 19.45 165.31 15.24 162.42 12.59C160.34 10.7 157.59 9.56001 154.14 9.56001C146.76 9.56001 141.7 15.09 141.7 22.33C141.7 29.57 146.62 35.2 154.62 35.2M131.25 34.49H139.06V0.660004H131.25V34.48V34.49ZM116.54 29.29C113.23 29.29 111.34 26.59 111.34 22.67C111.34 18.75 113.04 15.76 116.4 15.76C119.76 15.76 121.27 18.5 121.27 22.67C121.27 26.84 119.47 29.29 116.54 29.29ZM103.86 42.49H111.57V31.99H111.66C113.17 34.02 115.4 35.25 118.52 35.25C124.86 35.25 129.07 30.24 129.07 22.38C129.07 15.09 125.14 9.56001 118.71 9.56001C115.4 9.56001 113.03 11.03 111.38 13.2H111.24V10.27H103.86V42.49ZM63.22 34.49H70.93V20.91C70.93 18.02 72.35 15.99 74.76 15.99C77.17 15.99 78.17 17.5 78.17 20.11V34.49H85.88V20.91C85.88 18.02 87.25 15.99 89.71 15.99C92.03 15.99 93.12 17.5 93.12 20.11V34.49H100.83V18.74C100.83 13.3 98.09 9.56001 92.6 9.56001C89.48 9.56001 86.88 10.88 84.98 13.82H84.89C83.66 11.22 81.25 9.56001 78.08 9.56001C74.58 9.56001 72.26 11.22 70.75 13.72H70.61V10.27H63.23V34.49H63.22ZM47.7 35.25C55.51 35.25 60.62 29.72 60.62 22.43C60.62 15.14 55.51 9.61 47.7 9.61C39.89 9.61 34.74 15.14 34.74 22.43C34.74 29.72 39.94 35.25 47.7 35.25ZM47.65 29.76C44.29 29.76 42.54 26.83 42.54 22.43C42.54 18.03 44.29 15.05 47.65 15.05C51.01 15.05 52.81 18.03 52.81 22.43C52.81 26.83 51.01 29.76 47.65 29.76ZM17.47 35.25C22.25 35.25 25.7 33.93 28.3 31.42C30.62 29.2 32.13 26.12 32.37 22.76H24C23.62 26.02 21.16 28.39 17.42 28.39C12.41 28.39 9.28001 23.9 9.28001 17.7C9.28001 11.5 11.88 6.96 17.37 6.96C20.97 6.96 23.33 9.28001 23.76 12.31H32.13C31.7 8.53001 30 5.21 27.07 2.99C24.66 1.14 21.35 0.0100043 17.42 0.0100043C7.33001 4.3381e-06 0.76001 7.62 0.76001 17.69C0.76001 27.76 7.53001 35.24 17.46 35.24" fill="black"/>
<path d="M287.51 76.45C284.34 76.45 282.35 73.71 282.35 69.68C282.35 65.65 284.01 62.73 287.41 62.73C290.53 62.73 292.19 65.47 292.19 69.64C292.19 73.81 290.53 76.45 287.51 76.45ZM289.69 82.55C295.93 82.55 300 77.72 300 69.68C300 62.39 295.93 56.86 289.64 56.86C286.33 56.86 284.25 58.23 282.73 60.31H282.59V47.96H274.88V81.78H282.26V78.7H282.35C283.86 81.21 286.47 82.53 289.68 82.53M257.08 82.48C260.44 82.48 262.57 81.16 264.32 78.79H264.46V81.77H271.84V57.55H264.13V71.08C264.13 73.97 262.52 75.95 259.87 75.95C257.41 75.95 256.23 74.48 256.23 71.83V57.54H248.57V73.44C248.57 78.83 251.5 82.48 257.09 82.48M217.16 81.77H225.53V67.67H237.4V81.77H245.77V47.95H237.4V60.77H225.53V47.95H217.16V81.77Z" fill="black"/>
<path d="M190.39 47.97L190.45 60.79L178.27 56.75L175.9 63.94L188.15 67.72L180.58 78.04L186.61 82.53L194.04 72.14L201.55 82.53L207.57 78.04L200.01 67.72L212.25 63.94L209.82 56.75L197.76 60.73L197.83 47.97H190.39Z" fill="black"/>
</g>
<defs>
<clipPath id="clip0_30_2137">
<rect width="299.48" height="82.6" fill="white" transform="translate(0.52002)"/>
</clipPath>
</defs>
</svg>
