<svg width="142" height="38" viewBox="0 0 142 38" fill="none" xmlns="http://www.w3.org/2000/svg">
<path d="M57.3773 20.2528H61.252C61.1962 19.3236 60.9732 18.5245 60.583 17.8555C60.1927 17.1679 59.6817 16.6011 59.0498 16.1551C58.4366 15.6905 57.7304 15.3467 56.9313 15.1237C56.1508 14.9007 55.3331 14.7892 54.4783 14.7892C53.3075 14.7892 52.2668 14.9843 51.3562 15.3746C50.4456 15.7648 49.6744 16.3131 49.0425 17.0192C48.4107 17.7068 47.9275 18.5338 47.593 19.5001C47.2771 20.4479 47.1191 21.4793 47.1191 22.5943C47.1191 23.6722 47.2957 24.6664 47.6488 25.577C48.0019 26.469 48.4943 27.2402 49.1262 27.8907C49.758 28.5411 50.5199 29.0521 51.412 29.4238C52.3226 29.7769 53.3168 29.9534 54.3946 29.9534C56.3087 29.9534 57.8791 29.4517 59.1056 28.4482C60.3321 27.4446 61.0754 25.9858 61.3356 24.0717H57.5167C57.3866 24.9637 57.0614 25.6792 56.541 26.2181C56.0393 26.7385 55.3145 26.9986 54.3668 26.9986C53.7535 26.9986 53.2332 26.8593 52.8057 26.5805C52.3783 26.3018 52.0345 25.9487 51.7743 25.5212C51.5328 25.0752 51.3562 24.5828 51.2447 24.0438C51.1332 23.5049 51.0775 22.9753 51.0775 22.4549C51.0775 21.916 51.1332 21.3771 51.2447 20.8382C51.3562 20.2807 51.542 19.7789 51.8022 19.3329C52.081 18.8683 52.4341 18.4966 52.8615 18.2179C53.2889 17.9205 53.8185 17.7719 54.4504 17.7719C56.1415 17.7719 57.1171 18.5988 57.3773 20.2528Z" fill="#070909"/>
<path d="M66.2264 22.3992C66.2264 21.8231 66.2821 21.2563 66.3936 20.6988C66.5051 20.1413 66.6909 19.6488 66.9511 19.2214C67.2299 18.794 67.5922 18.4502 68.0383 18.19C68.4843 17.9112 69.0418 17.7719 69.7108 17.7719C70.3798 17.7719 70.9373 17.9112 71.3833 18.19C71.8479 18.4502 72.2103 18.794 72.4705 19.2214C72.7492 19.6488 72.9443 20.1413 73.0558 20.6988C73.1673 21.2563 73.2231 21.8231 73.2231 22.3992C73.2231 22.9753 73.1673 23.5421 73.0558 24.0996C72.9443 24.6385 72.7492 25.131 72.4705 25.577C72.2103 26.0044 71.8479 26.3482 71.3833 26.6084C70.9373 26.8686 70.3798 26.9986 69.7108 26.9986C69.0418 26.9986 68.4843 26.8686 68.0383 26.6084C67.5922 26.3482 67.2299 26.0044 66.9511 25.577C66.6909 25.131 66.5051 24.6385 66.3936 24.0996C66.2821 23.5421 66.2264 22.9753 66.2264 22.3992ZM62.268 22.3992C62.268 23.5514 62.4446 24.5921 62.7977 25.5212C63.1508 26.4504 63.6525 27.2495 64.3029 27.9185C64.9534 28.569 65.7339 29.0707 66.6445 29.4238C67.5551 29.7769 68.5772 29.9534 69.7108 29.9534C70.8444 29.9534 71.8665 29.7769 72.7771 29.4238C73.7063 29.0707 74.4961 28.569 75.1465 27.9185C75.7969 27.2495 76.2987 26.4504 76.6518 25.5212C77.0049 24.5921 77.1814 23.5514 77.1814 22.3992C77.1814 21.247 77.0049 20.2063 76.6518 19.2771C76.2987 18.3294 75.7969 17.5303 75.1465 16.8799C74.4961 16.2108 73.7063 15.6998 72.7771 15.3467C71.8665 14.975 70.8444 14.7892 69.7108 14.7892C68.5772 14.7892 67.5551 14.975 66.6445 15.3467C65.7339 15.6998 64.9534 16.2108 64.3029 16.8799C63.6525 17.5303 63.1508 18.3294 62.7977 19.2771C62.4446 20.2063 62.268 21.247 62.268 22.3992Z" fill="#070909"/>
<path d="M79.0089 9.68799V29.5911H82.9672V9.68799H79.0089Z" fill="#070909"/>
<path d="M89.2961 12.9494V9.68799H85.3378V12.9494H89.2961ZM85.3378 15.1795V29.5911H89.2961V15.1795H85.3378Z" fill="#070909"/>
<path d="M99.5276 29.5911L104.406 15.1795H100.475L97.437 25.0195H97.3812L94.3428 15.1795H90.1894L95.1233 29.5911H99.5276Z" fill="#070909"/>
<path d="M109.25 12.9494V9.68799H105.291V12.9494H109.25ZM105.291 15.1795V29.5911H109.25V15.1795H105.291Z" fill="#070909"/>
<path d="M111.509 15.1795V29.5911H115.467V22.0368C115.467 20.5687 115.709 19.5187 116.192 18.8869C116.675 18.2365 117.455 17.9112 118.533 17.9112C119.481 17.9112 120.141 18.2086 120.512 18.8033C120.884 19.3794 121.07 20.2621 121.07 21.4514V29.5911H125.028V20.7267C125.028 19.8347 124.945 19.0263 124.777 18.3015C124.629 17.5582 124.359 16.9356 123.969 16.4338C123.579 15.9135 123.04 15.514 122.352 15.2352C121.683 14.9379 120.819 14.7892 119.76 14.7892C118.924 14.7892 118.106 14.9843 117.307 15.3746C116.508 15.7463 115.857 16.3502 115.355 17.1865H115.272V15.1795H111.509Z" fill="#070909"/>
<path d="M133.893 26.1903C133.279 26.1903 132.768 26.0602 132.36 25.8C131.951 25.5398 131.616 25.2053 131.356 24.7965C131.114 24.3876 130.938 23.9323 130.826 23.4306C130.734 22.9102 130.687 22.3899 130.687 21.8696C130.687 21.3306 130.743 20.8196 130.854 20.3364C130.984 19.8347 131.18 19.3979 131.44 19.0263C131.718 18.636 132.053 18.3294 132.443 18.1064C132.852 17.8834 133.335 17.7719 133.893 17.7719C134.543 17.7719 135.082 17.8927 135.51 18.1343C135.937 18.3758 136.281 18.701 136.541 19.1099C136.801 19.5187 136.987 19.9926 137.098 20.5315C137.21 21.0519 137.266 21.6094 137.266 22.2041C137.266 22.7244 137.191 23.2262 137.043 23.7093C136.913 24.1739 136.708 24.5921 136.429 24.9637C136.151 25.3354 135.798 25.6327 135.37 25.8557C134.943 26.0788 134.45 26.1903 133.893 26.1903ZM141.029 28.6712V15.1795H137.266V17.1029H137.21C136.727 16.2666 136.123 15.6719 135.398 15.3188C134.692 14.9657 133.865 14.7892 132.917 14.7892C131.914 14.7892 131.022 14.9843 130.241 15.3746C129.479 15.7648 128.838 16.2945 128.318 16.9635C127.797 17.6139 127.398 18.3758 127.119 19.2493C126.859 20.1041 126.729 20.9961 126.729 21.9253C126.729 22.9102 126.84 23.8487 127.063 24.7407C127.305 25.6142 127.677 26.3854 128.178 27.0544C128.68 27.7048 129.321 28.2252 130.102 28.6154C130.882 28.9871 131.811 29.1729 132.889 29.1729C133.763 29.1729 134.59 28.9964 135.37 28.6433C136.169 28.2716 136.783 27.7048 137.21 26.9429H137.266V28.8384C137.284 29.8605 137.033 30.7061 136.513 31.3751C136.011 32.0441 135.203 32.3786 134.088 32.3786C133.382 32.3786 132.759 32.2299 132.22 31.9326C131.681 31.6538 131.319 31.1428 131.133 30.3994H127.203C127.258 31.2171 127.481 31.914 127.872 32.4901C128.28 33.0848 128.782 33.568 129.377 33.9396C129.99 34.3113 130.659 34.5808 131.384 34.748C132.127 34.9339 132.852 35.0268 133.558 35.0268C135.212 35.0268 136.532 34.8038 137.517 34.3578C138.501 33.9118 139.254 33.3635 139.774 32.7131C140.295 32.0813 140.629 31.3937 140.778 30.6503C140.945 29.907 141.029 29.2473 141.029 28.6712Z" fill="#070909"/>
<path fill-rule="evenodd" clip-rule="evenodd" d="M0.710938 19.1981V0.405762H6.00226L6.00226 13.8403L11.2963 8.47925L18.834 8.4693L8.17614 19.1582L18.7481 29.8167L11.2618 29.8282L4.41517 22.9301L0.711317 19.1983L0.711259 19.1983L0.71144 19.1981H0.710938ZM36.6361 27.1339L26.1028 37.7464H18.5957L26.8175 29.4297C22.3315 28.1906 19.0352 24.0533 19.0352 19.1403C19.0352 13.2484 23.7758 8.47217 29.6238 8.47217C35.4717 8.47217 40.2124 13.2484 40.2124 19.1403C40.2124 22.3225 38.8294 25.1793 36.6361 27.1339ZM34.9181 19.1403C34.9181 22.0862 32.5477 24.4744 29.6238 24.4744C26.6998 24.4744 24.3295 22.0862 24.3295 19.1403C24.3295 16.1944 26.6998 13.8062 29.6238 13.8062C32.5477 13.8062 34.9181 16.1944 34.9181 19.1403Z" fill="#F11449"/>
</svg>
