<svg width="222" height="95" viewBox="0 0 222 95" fill="none" xmlns="http://www.w3.org/2000/svg">
<mask id="mask0" mask-type="alpha" maskUnits="userSpaceOnUse" x="0" y="0" width="51" height="84">
<path fill-rule="evenodd" clip-rule="evenodd" d="M0 0.392578H50.9742V83.8278H0V0.392578Z" fill="white"/>
</mask>
<g mask="url(#mask0)">
<path fill-rule="evenodd" clip-rule="evenodd" d="M19.8791 42.5926C19.8791 42.5926 28.8286 20.0017 35.0652 11.428C41.3025 2.85431 42.8663 1.56084 47.947 0.54147C52.0146 -0.275161 51.2016 2.44631 49.9808 4.35179C48.7606 6.25663 22.7265 47.4924 22.7265 47.4924V83.8278H19.8791V47.8998C19.8791 47.8998 9.03177 32.5221 5.77783 26.8063C2.52325 21.0905 -2.35798 13.197 1.3031 11.1564C4.96418 9.11452 7.94691 12.244 9.30299 15.3747C10.6584 18.5042 19.8791 42.5926 19.8791 42.5926Z" fill="#00A053"/>
</g>
<mask id="mask1" mask-type="alpha" maskUnits="userSpaceOnUse" x="10" y="75" width="24" height="20">
<path fill-rule="evenodd" clip-rule="evenodd" d="M10.542 75.3066H33.6397V94.0617H10.542V75.3066Z" fill="white"/>
</mask>
<g mask="url(#mask1)">
<path fill-rule="evenodd" clip-rule="evenodd" d="M15.035 80.9141C14.8954 83.6539 16.3108 87.5729 20.0706 88.8301C22.9285 89.7845 26.0491 89.789 27.5554 86.9181C28.9165 84.3265 29.1887 80.7773 28.7807 78.3218C28.3721 75.8639 29.7325 74.9101 31.7744 75.4554C33.8157 76.0007 33.9521 80.9141 33.2719 84.3265C32.591 87.737 30.6855 93.7422 25.6506 94.0152C20.6157 94.2882 16.8047 93.4686 13.266 88.6927C9.72786 83.9167 10.4081 79.5499 11.0883 77.9121C11.7691 76.2743 15.3072 75.5922 15.035 80.9141Z" fill="#63666A"/>
</g>
<path fill-rule="evenodd" clip-rule="evenodd" d="M59.2372 64.8767V70.0549C59.2372 71.3792 59.2119 72.6841 59.1632 73.9686C59.1132 75.253 59.0588 76.5176 59 77.7616C59.4549 77.7212 59.9395 77.7013 60.4544 77.7013C60.9687 77.7013 61.4533 77.7212 61.9088 77.7616C61.8493 76.5176 61.7949 75.253 61.7456 73.9686C61.6963 72.6841 61.6716 71.3792 61.6716 70.0549V67.4957H63.6606C64.3527 67.4957 65.0353 67.5059 65.7084 67.5258C66.3809 67.5464 67.0293 67.5714 67.6531 67.6015C68.2762 67.6311 68.8354 67.6766 69.3302 67.7369C69.2511 67.4354 69.2112 67.1345 69.2112 66.8336C69.2112 66.5327 69.2511 66.2318 69.3302 65.9302C68.0833 66.0508 66.8218 66.131 65.5452 66.1715C64.2685 66.2119 62.9773 66.2318 61.6716 66.2318C61.6716 65.5895 61.6665 64.9723 61.6564 64.3802C61.6463 63.788 61.6418 63.1413 61.6418 62.4381C61.6418 61.7959 61.6463 61.1543 61.6564 60.5114C61.6665 59.8692 61.6811 59.1975 61.7013 58.4943C62.1758 58.4943 62.7742 58.5046 63.4973 58.5245C64.2192 58.545 64.9714 58.57 65.7533 58.5995C66.5346 58.6297 67.3013 58.6701 68.0535 58.7201C68.8057 58.7708 69.4491 58.8254 69.983 58.8857C69.9236 58.5848 69.8945 58.2839 69.8945 57.983C69.8945 57.6814 69.9236 57.3805 69.983 57.0796C68.9145 57.12 67.9245 57.1547 67.0147 57.1848C66.1044 57.215 65.2042 57.2298 64.3134 57.2298C63.4227 57.2298 62.537 57.215 61.6564 57.1848C60.7758 57.1547 59.8901 57.12 59 57.0796C59.0588 58.4038 59.1132 59.7037 59.1632 60.9779C59.2119 62.2527 59.2372 63.5519 59.2372 64.8767ZM76.3801 68.2181C76.5288 67.4354 76.7812 66.7386 77.1374 66.1259C77.4936 65.5138 77.9687 65.0275 78.5621 64.6663C79.1561 64.3045 79.8881 64.1242 80.7592 64.1242C81.6297 64.1242 82.3616 64.3045 82.9557 64.6663C83.5491 65.0275 84.0242 65.5138 84.3803 66.1259C84.7365 66.7386 84.9889 67.4354 85.1376 68.2181C85.2856 69.0008 85.3603 69.8137 85.3603 70.6567C85.3603 71.4998 85.2856 72.3127 85.1376 73.0954C84.9889 73.8781 84.7365 74.5755 84.3803 75.1876C84.0242 75.8003 83.5491 76.2866 82.9557 76.6478C82.3616 77.009 81.6297 77.19 80.7592 77.19C79.8881 77.19 79.1561 77.009 78.5621 76.6478C77.9687 76.2866 77.4936 75.8003 77.1374 75.1876C76.7812 74.5755 76.5288 73.8781 76.3801 73.0954C76.2321 72.3127 76.1575 71.4998 76.1575 70.6567C76.1575 69.8137 76.2321 69.0008 76.3801 68.2181ZM74.1837 74.1341C74.6088 75.0875 75.168 75.8606 75.8608 76.4521C76.5535 77.0443 77.3304 77.4607 78.1914 77.7013C79.0517 77.9425 79.9077 78.0625 80.7592 78.0625C81.6297 78.0625 82.4907 77.9425 83.3416 77.7013C84.1925 77.4607 84.9643 77.0443 85.657 76.4521C86.3497 75.8606 86.9083 75.0875 87.3341 74.1341C87.7592 73.1814 87.9724 72.022 87.9724 70.6567C87.9724 69.2921 87.7592 68.1334 87.3341 67.18C86.9083 66.2266 86.3497 65.4542 85.657 64.862C84.9643 64.2698 84.1925 63.838 83.3416 63.5673C82.4907 63.2965 81.6297 63.1605 80.7592 63.1605C79.9077 63.1605 79.0517 63.2965 78.1914 63.5673C77.3304 63.838 76.5535 64.2698 75.8608 64.862C75.168 65.4542 74.6088 66.2266 74.1837 67.18C73.7579 68.1334 73.5453 69.2921 73.5453 70.6567C73.5453 72.022 73.7579 73.1814 74.1837 74.1341ZM95.2603 76.8133C96.1402 77.6468 97.353 78.0625 98.8966 78.0625C99.8462 78.0625 100.727 77.8373 101.538 77.3856C102.349 76.934 103.012 76.2263 103.527 75.2633H103.587V76.5574C103.587 76.7787 103.582 76.9891 103.572 77.19C103.562 77.3908 103.547 77.5813 103.527 77.7616C103.923 77.7212 104.309 77.7013 104.685 77.7013C105.061 77.7013 105.447 77.7212 105.843 77.7616C105.803 76.959 105.773 76.1262 105.754 75.2633C105.733 74.4004 105.724 73.5169 105.724 72.6136C105.724 70.9878 105.733 69.448 105.754 67.9929C105.773 66.5378 105.833 65.0275 105.932 63.4621C105.733 63.5025 105.535 63.5371 105.338 63.5673C105.14 63.5974 104.932 63.6122 104.715 63.6122C104.497 63.6122 104.289 63.5974 104.091 63.5673C103.893 63.5371 103.686 63.5025 103.468 63.4621C103.488 63.8233 103.502 64.2044 103.512 64.606C103.522 65.0076 103.527 65.4291 103.527 65.8699V68.399C103.527 69.5834 103.522 70.5169 103.512 71.1989C103.502 71.8815 103.472 72.423 103.424 72.8246C103.374 73.2263 103.309 73.5471 103.231 73.7877C103.151 74.0289 103.042 74.3202 102.904 74.6608C102.646 75.203 102.241 75.6598 101.687 76.0306C101.132 76.4021 100.44 76.5875 99.6089 76.5875C99.0345 76.5875 98.5354 76.4823 98.1096 76.2712C97.6838 76.0608 97.3327 75.7952 97.0556 75.4737C96.7988 75.1927 96.5812 74.7763 96.4028 74.2246C96.225 73.6728 96.1358 72.8747 96.1358 71.8308C96.1358 70.3257 96.1605 68.8558 96.2098 67.4206C96.2592 65.986 96.3332 64.6663 96.4325 63.4621C95.9378 63.5628 95.5316 63.6122 95.2153 63.6122C94.8788 63.6122 94.4631 63.5628 93.9684 63.4621C93.988 64.3045 94.0032 65.1379 94.0133 65.9604C94.0228 66.7835 94.0279 67.5464 94.0279 68.2483C94.0279 68.9912 94.0133 69.7386 93.9836 70.4912C93.9539 71.2438 93.9393 72.1523 93.9393 73.216C93.9393 74.7815 94.379 75.9806 95.2603 76.8133ZM122.793 69.3024V71.1386C122.793 72.303 122.767 73.4367 122.719 74.5402C122.669 75.6444 122.625 76.7184 122.585 77.7616C122.981 77.7212 123.386 77.7013 123.802 77.7013C124.237 77.7013 124.653 77.7212 125.049 77.7616C125.029 77.4806 125.014 77.1848 125.004 76.8737C124.994 76.5625 124.989 76.2468 124.989 75.9254V73.9686C124.989 72.9446 125.009 71.9771 125.049 71.0635C125.089 70.1505 125.108 69.2619 125.108 68.399C125.108 67.3558 124.965 66.498 124.678 65.825C124.391 65.1526 124.019 64.6208 123.565 64.2294C123.109 63.838 122.6 63.5628 122.036 63.4018C121.472 63.2414 120.913 63.1605 120.358 63.1605C119.29 63.1605 118.369 63.3966 117.598 63.8682C116.826 64.3397 116.163 65.0076 115.609 65.8699H115.55C115.55 65.0679 115.58 64.2647 115.638 63.4621C115.382 63.5025 115.159 63.5371 114.971 63.5673C114.782 63.5974 114.61 63.6122 114.452 63.6122C114.114 63.6122 113.669 63.5628 113.115 63.4621C113.214 64.325 113.279 65.2534 113.308 66.2465C113.338 67.2397 113.353 68.1886 113.353 69.0913V72.2222C113.353 73.1255 113.338 74.0738 113.308 75.0676C113.279 76.0608 113.214 76.959 113.115 77.7616C113.57 77.7212 114.016 77.7013 114.452 77.7013C114.886 77.7013 115.332 77.7212 115.787 77.7616C115.688 76.959 115.624 76.0608 115.594 75.0676C115.564 74.0738 115.55 73.1255 115.55 72.2222V69.6636C115.55 68.0981 115.871 66.8836 116.515 66.0207C117.157 65.1578 118.171 64.726 119.557 64.726C120.567 64.726 121.358 65.1129 121.932 65.8853C122.506 66.6584 122.793 67.7972 122.793 69.3024ZM134.147 68.3843C134.315 67.5913 134.572 66.899 134.919 66.3068C135.265 65.7153 135.701 65.2534 136.225 64.9217C136.749 64.5906 137.368 64.4251 138.081 64.4251C139.506 64.4251 140.584 64.9326 141.316 65.9456C142.048 66.9593 142.414 68.4292 142.414 70.3558C142.414 71.1591 142.33 71.9617 142.163 72.7643C141.994 73.5669 141.727 74.2849 141.361 74.9168C140.994 75.5488 140.534 76.0608 139.981 76.4521C139.426 76.8435 138.763 77.0392 137.992 77.0392C137.517 77.0392 137.031 76.9487 136.537 76.7684C136.042 76.5875 135.602 76.2616 135.216 75.79C134.83 75.3185 134.513 74.691 134.266 73.9083C134.018 73.1255 133.895 72.1324 133.895 70.9281C133.895 70.0248 133.98 69.1773 134.147 68.3843ZM142.385 74.9014L142.296 77.7616C142.691 77.7212 143.068 77.7013 143.424 77.7013C143.8 77.7013 144.186 77.7212 144.582 77.7616C144.561 76.5978 144.542 75.4641 144.523 74.3599C144.502 73.2564 144.493 72.0118 144.493 70.6266C144.493 69.3428 144.502 67.9275 144.523 66.3819C144.542 64.837 144.567 63.3318 144.596 61.8665C144.626 60.4017 144.66 59.0615 144.7 57.847C144.74 56.6331 144.789 55.7047 144.849 55.0625C144.591 55.1029 144.359 55.1376 144.151 55.1677C143.943 55.1979 143.73 55.2133 143.513 55.2133C143.295 55.2133 143.077 55.1979 142.86 55.1677C142.642 55.1376 142.414 55.1029 142.177 55.0625C142.197 55.5443 142.211 56.0961 142.221 56.7184C142.231 57.3408 142.241 58.0029 142.251 58.7054C142.261 59.4079 142.271 60.1457 142.281 60.9182C142.291 61.6907 142.296 62.4586 142.296 63.2208V66.1715H142.237C141.386 64.1646 139.862 63.1605 137.665 63.1605C136.893 63.1605 136.126 63.3164 135.364 63.6276C134.602 63.9388 133.919 64.4103 133.316 65.0423C132.712 65.6742 132.223 66.4627 131.847 67.4059C131.471 68.349 131.283 69.4628 131.283 70.7472C131.283 72.0522 131.456 73.1705 131.802 74.104C132.148 75.0375 132.604 75.8003 133.168 76.3918C133.732 76.984 134.375 77.4107 135.097 77.6711C135.819 77.9323 136.556 78.0625 137.309 78.0625C138.04 78.0625 138.684 77.9624 139.239 77.7616C139.792 77.5614 140.272 77.3003 140.678 76.9789C141.083 76.6581 141.42 76.3123 141.687 75.9402C141.954 75.5693 142.167 75.2229 142.326 74.9014H142.385ZM158.979 74.7815C158.642 75.3435 158.162 75.8349 157.539 76.2565C156.915 76.678 156.228 76.8884 155.476 76.8884C154.823 76.8884 154.229 76.6478 153.695 76.166C153.161 75.6842 152.893 74.972 152.893 74.0289C152.893 73.4669 152.998 73.0049 153.205 72.6437C153.413 72.2825 153.69 71.9816 154.036 71.741C154.382 71.4998 154.778 71.3092 155.224 71.1687C155.669 71.0289 156.119 70.9127 156.574 70.8223C157.029 70.7324 157.48 70.6471 157.925 70.5663C158.37 70.4867 158.761 70.386 159.097 70.2654L158.979 74.7815ZM151.765 66.4724H152.092C152.428 65.8301 152.938 65.3284 153.621 64.9672C154.303 64.606 155.04 64.4251 155.832 64.4251C156.426 64.4251 156.931 64.5303 157.346 64.7414C157.762 64.9518 158.098 65.2283 158.355 65.569C158.612 65.911 158.801 66.312 158.92 66.7733C159.038 67.2352 159.097 67.717 159.097 68.2181C159.097 68.5196 159.068 68.7654 159.008 68.9559C158.949 69.1471 158.775 69.3126 158.489 69.4525C158.202 69.5936 157.757 69.729 157.153 69.8593C156.549 69.9901 155.713 70.1454 154.645 70.3257C153.339 70.547 152.314 70.9878 151.572 71.6506C150.83 72.3127 150.459 73.2462 150.459 74.4504C150.459 75.0323 150.573 75.5488 150.8 76.0005C151.028 76.4521 151.325 76.839 151.692 77.1598C152.057 77.4806 152.478 77.7116 152.953 77.8521C153.428 77.9919 153.912 78.0625 154.408 78.0625C155.417 78.0625 156.267 77.8918 156.96 77.5512C157.652 77.2098 158.355 76.678 159.068 75.9556C159.127 76.4778 159.325 76.9038 159.662 77.2349C159.998 77.5659 160.483 77.7314 161.116 77.7314C161.512 77.7314 161.873 77.7013 162.2 77.6416C162.527 77.5813 162.798 77.5011 163.016 77.4004V76.7383C162.916 76.7986 162.813 76.8339 162.704 76.8435C162.595 76.8538 162.491 76.8589 162.393 76.8589C162.095 76.8589 161.873 76.7883 161.725 76.6478C161.577 76.508 161.462 76.3315 161.383 76.1211C161.304 75.91 161.26 75.6694 161.25 75.3987C161.239 75.1273 161.235 74.8719 161.235 74.6307C161.235 73.3661 161.255 72.1677 161.294 71.0333C161.334 69.8997 161.353 68.7602 161.353 67.6163C161.353 66.9542 161.235 66.3472 160.997 65.7948C160.76 65.2431 160.433 64.7715 160.018 64.3802C159.602 63.9888 159.097 63.6879 158.504 63.4768C157.91 63.2664 157.257 63.1605 156.545 63.1605C155.753 63.1605 154.981 63.2811 154.229 63.5217C153.477 63.763 152.656 64.2249 151.765 64.9069V66.4724ZM171.535 59.4278L169.072 60.4813C169.111 61.1241 169.136 61.7458 169.146 62.3476C169.155 62.9501 169.171 63.4518 169.19 63.8534C168.775 63.8534 168.122 63.8233 167.231 63.763C167.251 63.8637 167.266 63.9638 167.276 64.0639C167.285 64.1646 167.29 64.2647 167.29 64.3648C167.29 64.4854 167.285 64.6009 167.276 64.7112C167.266 64.8216 167.251 64.9371 167.231 65.0577C167.429 65.0378 167.617 65.0224 167.795 65.0121C167.973 65.0025 168.141 64.9974 168.299 64.9974H169.25C169.25 66.1214 169.24 67.1396 169.22 68.0526C169.2 68.9662 169.176 69.799 169.146 70.5515C169.116 71.3041 169.091 71.9964 169.072 72.629C169.052 73.2609 169.042 73.848 169.042 74.3901C169.042 75.5943 169.339 76.508 169.933 77.1296C170.526 77.7513 171.446 78.0625 172.693 78.0625C173.069 78.0625 173.46 78.0176 173.866 77.9271C174.271 77.8373 174.642 77.7616 174.979 77.7013V76.9789C174.781 77.0392 174.549 77.0892 174.282 77.1296C174.014 77.1701 173.801 77.19 173.643 77.19C173.049 77.19 172.594 77.0597 172.277 76.7986C171.961 76.5375 171.723 76.1917 171.565 75.7599C171.406 75.3281 171.313 74.8418 171.283 74.2996C171.253 73.7575 171.239 73.2057 171.239 72.6437C171.239 71.9816 171.243 71.229 171.253 70.386C171.263 69.543 171.278 68.7352 171.298 67.9627C171.318 67.1903 171.342 66.5224 171.372 65.9604C171.402 65.399 171.427 65.0776 171.446 64.9974H172.901C173.218 64.9974 173.514 65.0025 173.791 65.0121C174.068 65.0224 174.335 65.0378 174.593 65.0577C174.573 64.9974 174.563 64.8973 174.563 64.7561V64.4251V64.1242C174.563 63.9638 174.573 63.8534 174.593 63.7931C173.9 63.8335 173.257 63.8586 172.663 63.8682C172.07 63.8785 171.664 63.8836 171.446 63.8836C171.486 63.1413 171.521 62.4035 171.551 61.6708C171.58 60.9381 171.625 60.1906 171.684 59.4278H171.535ZM180.708 59.3072C181.005 59.6081 181.361 59.7589 181.777 59.7589C182.193 59.7589 182.549 59.6081 182.845 59.3072C183.142 59.0063 183.291 58.6451 183.291 58.2236C183.291 57.802 183.142 57.4408 182.845 57.1399C182.549 56.8384 182.193 56.6883 181.777 56.6883C181.361 56.6883 181.005 56.8384 180.708 57.1399C180.411 57.4408 180.263 57.802 180.263 58.2236C180.263 58.6451 180.411 59.0063 180.708 59.3072ZM180.679 72.2222C180.679 73.1255 180.664 74.0738 180.634 75.0676C180.604 76.0608 180.54 76.959 180.441 77.7616C180.896 77.7212 181.341 77.7013 181.777 77.7013C182.212 77.7013 182.657 77.7212 183.113 77.7616C183.013 76.959 182.949 76.0608 182.92 75.0676C182.89 74.0738 182.876 73.1255 182.876 72.2222V69.0913C182.876 68.1886 182.89 67.2397 182.92 66.2465C182.949 65.2534 183.013 64.325 183.113 63.4621C182.558 63.5628 182.113 63.6122 181.777 63.6122C181.44 63.6122 180.995 63.5628 180.441 63.4621C180.54 64.325 180.604 65.2534 180.634 66.2465C180.664 67.2397 180.679 68.1886 180.679 69.0913V72.2222ZM192.449 68.2181C192.597 67.4354 192.849 66.7386 193.205 66.1259C193.562 65.5138 194.037 65.0275 194.631 64.6663C195.224 64.3045 195.956 64.1242 196.827 64.1242C197.698 64.1242 198.43 64.3045 199.024 64.6663C199.618 65.0275 200.092 65.5138 200.448 66.1259C200.805 66.7386 201.057 67.4354 201.206 68.2181C201.354 69.0008 201.428 69.8137 201.428 70.6567C201.428 71.4998 201.354 72.3127 201.206 73.0954C201.057 73.8781 200.805 74.5755 200.448 75.1876C200.092 75.8003 199.618 76.2866 199.024 76.6478C198.43 77.009 197.698 77.19 196.827 77.19C195.956 77.19 195.224 77.009 194.631 76.6478C194.037 76.2866 193.562 75.8003 193.205 75.1876C192.849 74.5755 192.597 73.8781 192.449 73.0954C192.3 72.3127 192.226 71.4998 192.226 70.6567C192.226 69.8137 192.3 69.0008 192.449 68.2181ZM190.252 74.1341C190.677 75.0875 191.236 75.8606 191.929 76.4521C192.621 77.0443 193.398 77.4607 194.259 77.7013C195.12 77.9425 195.976 78.0625 196.827 78.0625C197.698 78.0625 198.559 77.9425 199.41 77.7013C200.26 77.4607 201.032 77.0443 201.725 76.4521C202.418 75.8606 202.976 75.0875 203.402 74.1341C203.828 73.1814 204.04 72.022 204.04 70.6567C204.04 69.2921 203.828 68.1334 203.402 67.18C202.976 66.2266 202.418 65.4542 201.725 64.862C201.032 64.2698 200.26 63.838 199.41 63.5673C198.559 63.2965 197.698 63.1605 196.827 63.1605C195.976 63.1605 195.12 63.2965 194.259 63.5673C193.398 63.838 192.621 64.2698 191.929 64.862C191.236 65.4542 190.677 66.2266 190.252 67.18C189.826 68.1334 189.613 69.2921 189.613 70.6567C189.613 72.022 189.826 73.1814 190.252 74.1341ZM219.685 69.3024V71.1386C219.685 72.303 219.659 73.4367 219.611 74.5402C219.561 75.6444 219.516 76.7184 219.476 77.7616C219.872 77.7212 220.278 77.7013 220.694 77.7013C221.129 77.7013 221.545 77.7212 221.941 77.7616C221.921 77.4806 221.906 77.1848 221.896 76.8737C221.885 76.5625 221.881 76.2468 221.881 75.9254V73.9686C221.881 72.9446 221.901 71.9771 221.941 71.0635C221.98 70.1505 222 69.2619 222 68.399C222 67.3558 221.856 66.498 221.569 65.825C221.283 65.1526 220.911 64.6208 220.456 64.2294C220.001 63.838 219.492 63.5628 218.927 63.4018C218.364 63.2414 217.804 63.1605 217.25 63.1605C216.182 63.1605 215.261 63.3966 214.489 63.8682C213.718 64.3397 213.055 65.0076 212.5 65.8699H212.442C212.442 65.0679 212.471 64.2647 212.53 63.4621C212.273 63.5025 212.05 63.5371 211.863 63.5673C211.674 63.5974 211.501 63.6122 211.343 63.6122C211.006 63.6122 210.561 63.5628 210.007 63.4621C210.106 64.325 210.171 65.2534 210.2 66.2465C210.23 67.2397 210.245 68.1886 210.245 69.0913V72.2222C210.245 73.1255 210.23 74.0738 210.2 75.0676C210.171 76.0608 210.106 76.959 210.007 77.7616C210.462 77.7212 210.908 77.7013 211.343 77.7013C211.778 77.7013 212.223 77.7212 212.679 77.7616C212.58 76.959 212.516 76.0608 212.486 75.0676C212.456 74.0738 212.442 73.1255 212.442 72.2222V69.6636C212.442 68.0981 212.763 66.8836 213.406 66.0207C214.049 65.1578 215.063 64.726 216.449 64.726C217.459 64.726 218.25 65.1129 218.824 65.8853C219.397 66.6584 219.685 67.7972 219.685 69.3024Z" fill="#63666A"/>
<path fill-rule="evenodd" clip-rule="evenodd" d="M58.2394 31.866V37.0484C58.2394 38.3737 58.2138 39.6797 58.1647 40.9652C58.1143 42.2507 58.0594 43.5163 58 44.7614C58.9581 44.7209 59.8817 44.701 60.7703 44.701H63.5406H66.2962C67.2147 44.701 68.1332 44.7209 69.0518 44.7614C68.9515 44.4403 68.9024 44.1693 68.9024 43.9478C68.9024 43.707 68.9515 43.4059 69.0518 43.0444C67.5543 43.2453 66.1564 43.3603 64.8587 43.3905C63.5603 43.4206 62.2027 43.4361 60.785 43.4361C60.7652 41.9695 60.7447 40.3077 60.7256 38.4495C60.7052 36.5919 60.6956 34.3972 60.6956 31.866C60.6956 30.54 60.7205 29.2398 60.7703 27.9639C60.8201 26.6887 60.875 25.3878 60.935 24.0625C60.6752 24.103 60.4256 24.1376 60.1862 24.1678C59.9469 24.198 59.7068 24.2128 59.4675 24.2128C59.2275 24.2128 58.9881 24.198 58.7487 24.1678C58.5087 24.1376 58.2592 24.103 58 24.0625C58.0594 25.3878 58.1143 26.6887 58.1647 27.9639C58.2138 29.2398 58.2394 30.54 58.2394 31.866ZM76.5851 43.8123C77.473 44.6464 78.6967 45.0625 80.2542 45.0625C81.2123 45.0625 82.1008 44.8371 82.9197 44.3851C83.7381 43.933 84.407 43.2248 84.9266 42.261H84.9866V43.5561C84.9866 43.7777 84.9815 43.9883 84.9713 44.1892C84.9611 44.3902 84.9464 44.5809 84.9266 44.7614C85.3256 44.7209 85.7149 44.701 86.0947 44.701C86.4739 44.701 86.8632 44.7209 87.2628 44.7614C87.2226 43.9581 87.1926 43.1246 87.1728 42.261C87.1524 41.3974 87.1428 40.5132 87.1428 39.6091C87.1428 37.982 87.1524 36.441 87.1728 34.9847C87.1926 33.5284 87.2526 32.0169 87.3522 30.4501C87.1524 30.4906 86.9526 30.5253 86.7535 30.5555C86.5537 30.5856 86.3443 30.6004 86.1247 30.6004C85.9045 30.6004 85.6951 30.5856 85.4953 30.5555C85.2955 30.5253 85.0862 30.4906 84.8666 30.4501C84.8864 30.8117 84.9011 31.1931 84.9113 31.595C84.9215 31.997 84.9266 32.4188 84.9266 32.86V35.3911C84.9266 36.5765 84.9215 37.5107 84.9113 38.1933C84.9011 38.8765 84.8711 39.4184 84.8219 39.8204C84.7715 40.2223 84.7064 40.5434 84.6266 40.7842C84.5468 41.0256 84.437 41.3171 84.2972 41.6581C84.0374 42.2006 83.6283 42.6578 83.0691 43.029C82.51 43.4007 81.8116 43.5863 80.9729 43.5863C80.3933 43.5863 79.8897 43.481 79.4601 43.2697C79.0305 43.0591 78.6762 42.7933 78.3967 42.4716C78.1369 42.1904 77.9179 41.7736 77.7379 41.2214C77.5586 40.6692 77.4686 39.8705 77.4686 38.8257C77.4686 37.3194 77.4934 35.8483 77.5432 34.4119C77.593 32.9762 77.6677 31.6554 77.7679 30.4501C77.2688 30.5503 76.859 30.6004 76.5398 30.6004C76.2002 30.6004 75.7809 30.5503 75.2817 30.4501C75.3015 31.2932 75.3168 32.1273 75.327 32.9505C75.3366 33.7743 75.3417 34.5378 75.3417 35.2402C75.3417 35.9838 75.327 36.7318 75.297 37.485C75.267 38.2382 75.2517 39.1474 75.2517 40.212C75.2517 41.7788 75.696 42.9789 76.5851 43.8123ZM104.365 36.2952V38.1329C104.365 39.2983 104.34 40.4329 104.29 41.5373C104.24 42.6424 104.195 43.7173 104.156 44.7614C104.555 44.7209 104.964 44.701 105.383 44.701C105.822 44.701 106.242 44.7209 106.641 44.7614C106.622 44.4808 106.606 44.1841 106.597 43.8727C106.586 43.5613 106.581 43.2453 106.581 42.9237V40.9652C106.581 39.9404 106.601 38.9721 106.641 38.0578C106.682 37.1441 106.701 36.2548 106.701 35.3911C106.701 34.3471 106.556 33.4886 106.267 32.815C105.978 32.1421 105.603 31.6098 105.144 31.2181C104.684 30.8264 104.17 30.5503 103.601 30.3898C103.032 30.2293 102.468 30.1484 101.909 30.1484C100.831 30.1484 99.9021 30.3847 99.1233 30.8566C98.3446 31.3285 97.6756 31.997 97.1165 32.86H97.0571C97.0571 32.0573 97.0871 31.2534 97.1465 30.4501C96.8873 30.4906 96.6626 30.5253 96.4731 30.5555C96.2828 30.5856 96.1086 30.6004 95.949 30.6004C95.6088 30.6004 95.1594 30.5503 94.6009 30.4501C94.7005 31.3138 94.7656 32.2429 94.7956 33.2369C94.8256 34.2309 94.8402 35.1805 94.8402 36.084V39.2174C94.8402 40.1215 94.8256 41.0705 94.7956 42.0652C94.7656 43.0591 94.7005 43.9581 94.6009 44.7614C95.0598 44.7209 95.5092 44.701 95.949 44.701C96.3875 44.701 96.8369 44.7209 97.2965 44.7614C97.1963 43.9581 97.1318 43.0591 97.1018 42.0652C97.0718 41.0705 97.0571 40.1215 97.0571 39.2174V36.6567C97.0571 35.09 97.3814 33.8745 98.0305 33.0109C98.6791 32.1472 99.7023 31.7151 101.1 31.7151C102.119 31.7151 102.917 32.1023 103.496 32.8754C104.075 33.6491 104.365 34.7888 104.365 36.2952ZM116.526 26.4126L114.039 27.4669C114.08 28.1103 114.104 28.7325 114.115 29.3348C114.124 29.9377 114.139 30.4399 114.159 30.8418C113.74 30.8418 113.081 30.8117 112.183 30.7513C112.202 30.8521 112.217 30.9523 112.227 31.0524C112.237 31.1533 112.243 31.2534 112.243 31.3536C112.243 31.4743 112.237 31.5899 112.227 31.7003C112.217 31.8108 112.202 31.9263 112.183 32.0471C112.382 32.0272 112.572 32.0117 112.752 32.0015C112.931 31.9918 113.1 31.9867 113.261 31.9867H114.219C114.219 33.1117 114.209 34.1307 114.189 35.0444C114.169 35.9588 114.144 36.7922 114.115 37.5454C114.085 38.2986 114.059 38.9914 114.039 39.6245C114.02 40.257 114.009 40.8445 114.009 41.3871C114.009 42.5923 114.309 43.5067 114.908 44.1289C115.507 44.7511 116.436 45.0625 117.694 45.0625C118.073 45.0625 118.467 45.0176 118.877 44.927C119.286 44.8371 119.66 44.7614 120 44.701V43.978C119.8 44.0383 119.566 44.0884 119.296 44.1289C119.027 44.1693 118.811 44.1892 118.652 44.1892C118.053 44.1892 117.594 44.0589 117.274 43.7976C116.955 43.5362 116.715 43.1901 116.556 42.758C116.395 42.3259 116.301 41.8391 116.271 41.2966C116.241 40.754 116.226 40.2018 116.226 39.6393C116.226 38.9766 116.231 38.2235 116.241 37.3797C116.251 36.536 116.266 35.7276 116.286 34.9545C116.305 34.1814 116.331 33.513 116.361 32.9505C116.392 32.3887 116.416 32.067 116.436 31.9867H117.903C118.222 31.9867 118.522 31.9918 118.802 32.0015C119.081 32.0117 119.351 32.0272 119.611 32.0471C119.59 31.9867 119.581 31.8865 119.581 31.7453V31.4139V31.1128C119.581 30.9523 119.59 30.8418 119.611 30.7815C118.912 30.8219 118.263 30.847 117.664 30.8566C117.064 30.8669 116.655 30.872 116.436 30.872C116.475 30.1291 116.51 29.3907 116.54 28.6574C116.57 27.9241 116.616 27.1761 116.675 26.4126H116.526Z" fill="#63666A"/>
</svg>
