<?xml version="1.0" encoding="UTF-8"?><svg id="a" xmlns="http://www.w3.org/2000/svg" xmlns:xlink="http://www.w3.org/1999/xlink" viewBox="0 0 878.74 311.81"><defs><style>.c{fill:none;}.d{fill:#edea5b;}.e{fill:#0e241e;}.f{fill:#0d241e;}.g{clip-path:url(#b);}</style><clipPath id="b"><path class="c" d="M209.42,277.08c79.03,0,123.96-72.38,123.96-123.96,0-68.46-36.61-119.79-123.96-123.95-68.38-3.26-123.95,52.41-123.96,123.95,0,73.21,55.5,123.96,123.96,123.96"/></clipPath></defs><g><g class="g"><rect class="f" x="48.71" y="13.09" width="297.02" height="275.55"/><path class="d" d="M113.76,252.42c7.61-8.44,15.37-17.1,20.28-27.42,7.25-7.52,13.76-15.75,19.38-24.55,3.64-5.69,6.88-11.62,9.75-17.73,.18-.38,.04-.69-.22-.86,4.53-2.2,9.04-4.43,13.53-6.71,.95-.49,.19-1.96-.77-1.47-6.51,3.32-13.07,6.54-19.67,9.67-.1,.02-.2,.07-.3,.14-1.02,.49-2.05,.96-3.07,1.44l-13.7-.91c-5.19-.34-10.42-.74-15.6-.07-5,.65-9.78,2.34-14.53,3.97-1.31,.45-2.63,.9-3.94,1.36,.8-.7,1.61-1.39,2.42-2.07,2.83-2.39,5.87-4.33,9.26-5.8,3.85-1.66,7.9-2.76,11.94-3.86,.21-.06,.35-.18,.45-.33,.23,.11,.5,.11,.76,.01l5.09-1.91c6.1-.29,12.18-.86,18.22-1.72,7.72-1.1,15.37-2.67,22.91-4.7,1.03-.28,.67-1.9-.36-1.62-12.69,3.41-25.72,5.51-38.83,6.28-.24-.4-.69-.47-1.09-.32l-1.19,.45c-6.64,.31-13.29,.28-19.92-.09,1.87-.67,3.76-1.3,5.66-1.9,4.11-1.3,8.27-2.43,12.46-3.41,1.17-.18,2.33-.38,3.49-.61,7.2-1.44,14.06-3.89,20.66-7.07,5.05-2.44,10.14-5.18,15.52-6.85,3.93,.66,7.89,1.15,11.88,1.38,1.07,.06,1.15-1.6,.08-1.66-2.6-.15-5.17-.42-7.74-.77,1.19-.22,2.4-.38,3.63-.45,.24-.01,.43-.12,.57-.26,.4,.05,.84-.1,.96-.54,.11-.39-.08-.96-.53-1.05-1.64-.34-3.3-.17-4.84,.51-.1,.04-.19,.12-.25,.2-.87,.17-1.72,.38-2.58,.61-.12-.21-.32-.38-.65-.38-1.56-.02-3.11-.03-4.67-.05-9.06-1.78-17.99-4.28-26.99-6.33-5.13-1.17-10.29-2.14-15.49-2.84-3.1-3.12-6.42-6.04-9.9-8.73,9.41,1.64,18.77,3.83,28.32,4.27,5.9,.27,11.82-.25,17.58-1.55,.71-.16,.76-.95,.39-1.37,2.92,.82,5.85,1.65,8.77,2.47,1.03,.29,1.55-1.29,.52-1.58-12.67-3.59-25.35-7.18-38.18-10.17l-21.37-11.46c7.19,1.7,14.41,3.21,21.82,3.51,4.82,.19,9.65-.15,14.35-1.25,.25-.06,.42-.2,.52-.38,.98,.46,1.96,.91,2.96,1.35,6.9,3.04,14.07,6.38,21.71,6.81,1.07,.06,1.15-1.6,.08-1.66-6.81-.38-13.17-3.24-19.36-5.89-3.17-1.36-6.31-2.8-9.34-4.44,4.98,.44,10,.51,14.99,.19,.27-.02,.47-.14,.62-.31,2.88,1.94,5.69,3.97,8.46,6.07,6.63,5.05,12.97,10.45,19.3,15.86,.8,.69,2.04-.42,1.23-1.12-11.19-9.56-22.45-19.18-35.15-26.71-2.06-1.22-4.16-2.39-6.27-3.51,0-.18-.06-.37-.23-.54l-20.1-19.97c2.13,.77,4.26,1.57,6.35,2.46,4.9,2.07,9.65,4.48,14.3,7.05,5.13,2.83,10.14,5.86,15.16,8.88,.27,.16,.54,.15,.76,.05,1.29,.84,2.59,1.68,3.88,2.53h0c2.01,2.18,3.96,4.4,5.84,6.7,.68,.83,1.9-.29,1.23-1.12-4.71-5.77-9.87-11.08-15.26-16.16,.17-.22,.24-.51,.06-.84-2.26-4.21-4.18-8.57-5.88-13.01,4.56,3.63,9.2,7.17,13.23,11.39,4.35,4.55,7.96,9.73,11.12,15.15,3.55,6.09,6.56,12.48,9.55,18.86,.45,.97,1.93,.2,1.47-.77-5.3-11.3-10.72-22.8-19.01-32.27-1.38-1.58-2.86-3.06-4.38-4.49,.23-.17,.38-.44,.29-.8-.07-.3-.14-.6-.21-.91,.66,.59,1.33,1.18,2,1.76,4.88,4.2,10.03,8.09,15.41,11.64,1.16,2.99,2.26,6.01,3.3,9.03,3.13,9.04,5.73,18.27,7.79,27.61,.23,1.04,1.85,.68,1.62-.37-2.35-10.65-5.36-21.25-9.12-31.55,.02-.05,.05-.08,.07-.14,1.44-6.12,1.94-12.38,2.18-18.65,.06-1.49,.12-2.99,.17-4.49,2.13,4.01,4.54,7.87,7.27,11.51,.21,1.29,.39,2.58,.51,3.89,.8,8.56-.15,17.19-1.2,25.69-.13,1.06,1.53,1.14,1.66,.08,.89-7.19,1.67-14.43,1.44-21.68,.28,.05,.58-.04,.77-.37,5.3-9.22,5.11-20.07,6.69-30.32,1.65,4.71,3.25,9.46,4.24,14.33,.68,3.38,1.01,6.83,.66,10.27-.36,3.5-1.53,6.83-2.57,10.17-2.4,7.64-3.68,15.55-4.93,23.45-.17,1.06,1.49,1.13,1.66,.08,1.13-7.16,2.28-14.34,4.33-21.31,.98-3.32,2.2-6.57,2.83-9.98,.62-3.31,.59-6.67,.15-10-.22-1.63-.53-3.23-.9-4.83,.1-.12,.18-.26,.2-.46,.58-5.87,3.25-11.07,6.54-15.86-1.68,11.22-2.6,22.55-4.15,33.79-1.05,7.67-2.42,15.29-4.48,22.76-.28,1.03,1.29,1.55,1.58,.52,1.46-5.28,2.56-10.63,3.46-16.02,.35,.21,.81,.2,1.07-.25,1.66-2.91,2.28-6.28,1.77-9.59-.03-.2-.11-.34-.22-.44,2.29-7.76,1.92-16.11,4.43-23.85,1.4-4.33,3.52-8.36,5.33-12.52,.01,3.77,.16,7.53,.56,11.29,.54,5.08,1.58,10.1,3.28,14.93-1.61,4.14-3.18,8.29-4.69,12.46-2.59,7.14-5.04,14.34-7.35,21.58-.33,1.02,1.25,1.54,1.58,.52,.84-2.64,1.72-5.27,2.6-7.9,.18,.53,.81,.9,1.3,.38,8.37-8.95,16.65-18.22,19.83-30.36,.19-.72,.36-1.44,.52-2.17,.19,0,.38-.06,.55-.26,1.56-1.77,3.19-3.48,4.85-5.16-2.28,7.18-4.87,14.25-8.2,21.05-2.65,5.41-5.77,10.59-9.46,15.36-.66,.85,.74,1.75,1.39,.91,9.11-11.8,14.4-25.62,18.72-39.75,2.4-2.29,4.89-4.5,7.48-6.58,1.13-.91,2.28-1.8,3.44-2.67-.34,4.32-.51,8.66-.46,13,0,.3,.14,.52,.34,.66-7.34,9.29-14.48,18.75-21.39,28.38-3.83,5.34-7.6,10.73-11.3,16.17-.6,.89,.79,1.79,1.39,.91,6.03-8.86,12.24-17.59,18.63-26.19,.16-.04,.32-.14,.45-.3,4.73-5.84,11.96-8.68,18.71-11.49,.7-.29,1.39-.59,2.09-.88,.33,.14,.74,.11,.99-.28,.04-.07,.09-.14,.13-.21,2.52-1.1,5.01-2.28,7.39-3.67,.21-.12,.41-.26,.62-.38-2.96,4.28-6.14,8.41-9.45,12.4-2.78,3.37-5.67,6.65-8.59,9.89-.22,.24-.25,.52-.19,.77-.67,.47-1.35,.94-2.02,1.42-5.74,4.03-11.47,8.07-17.21,12.1-.87,.61,.25,1.84,1.12,1.23l30.37-21.36c1.74-1.23,3.49-2.45,5.24-3.67,0,0,.01,0,.02,0,3.89-1.74,7.95-2.93,12.06-3.91-1.34,1.17-2.69,2.33-4.06,3.47-11.02,9.21-22.72,17.6-34.25,26.16-7.21,5.36-33.93,24.87-41.15,30.23-.86,.64,.27,1.86,1.12,1.23,2.79-2.07,19.47-15.33,22.95-17.02,11.18-5.44,29.15-12.08,40.89-16.14,.23,.03,.46-.04,.66-.23,5.09-1.75,10.21-3.4,15.35-4.99-1.03,.93-2.05,1.87-3.06,2.83-.13,.06-.22,.16-.28,.27-2.55,2.42-5.05,4.9-7.46,7.46-3.52,3.74-6.87,7.62-10.07,11.64-7.21,2.27-14.47,4.39-21.79,6.3-8.29,2.17-42.51,8.83-50.94,10.39-1.05,.19-.69,1.82,.36,1.62,6.41-1.18,4.04-.13,10.37-1.68-.52,.54-.14,1.66,.73,1.39,10.26-3.16,55.11-13.54,65.38-16.7,.12,.03,.25,.04,.4,0,9.28-2.32,18.77-3.02,28.29-3.08,.22,.21,.55,.3,.9,.11,.07-.04,.13-.08,.2-.11,4.94,0,9.88,.16,14.81,.35-6.25,3.34-12.63,6.45-19.13,9.18-6.6,2.77-13.43,4.76-20.46,6.13-6.94,1.36-13.97,2.22-20.98,3.14-2.53,.33-5.06,.67-7.59,1-5.21-.34-10.44-.11-15.57,.99-.59,.13-5.89,1.01-5.7,1.45l4.19-.18c-1.06,.14-.69,1.76,.36,1.62,5.58-.74,11.16-1.47,16.74-2.21,9.63,.66,19.19,3.35,28.42,6,7.07,2.03,14.16,4.06,21.42,5.27,4.02,.67,8.07,1.02,12.12,1.03,.06,.12,.16,.24,.32,.32,8.12,4.09,17.17,6.06,26.25,5.63,1.06-.05,1.15-1.71,.08-1.66-7.99,.38-16-1.11-23.3-4.37,1.9-.09,3.81-.25,5.71-.51,7.65-1.04,15.09-3.44,21.93-7.01,.95-.5,.18-1.97-.77-1.47-12.54,6.56-26.74,8.7-40.7,6.62-4.24-.63-8.41-1.57-12.56-2.64,4.22-1.46,8.45-2.87,12.7-4.24,.03,.27,.19,.51,.55,.59,11.73,2.6,24.05,1.89,35.38-2.12,.54-.19,.68-.75,.54-1.18,1.36-.24,2.7-.53,4.03-.89,1.03-.28,.67-1.9-.36-1.62-8.31,2.23-16.81,1.9-25.22,.64,4.62-1.35,9.26-2.64,13.92-3.88,4.14-1.09,8.29-2.14,12.45-3.14,.79-.19,.77-1.17,.26-1.52,.08,0,.15,0,.23,0,1.06-.03,1.15-1.69,.08-1.66-4.92,.14-9.91,.28-14.86,.03,4.83-1.43,9.67-2.82,14.54-4.13,1.03-.28,.67-1.9-.36-1.62-6.3,1.7-12.57,3.51-18.82,5.4-4.66-.5-9.25-1.47-13.67-3.19,1.95-.97,3.88-1.95,5.8-2.95,1.72-.89,3.43-1.8,5.14-2.72,1.45,.06,2.91,.12,4.36,.18,5.05,.2,10.1,.4,15.15,.6,1.07,.04,1.15-1.62,.08-1.66-5.59-.22-11.18-.45-16.77-.67,1.02-.57,2.03-1.15,3.05-1.73,3.87,.57,7.81,.71,11.72,.4,1.05-.08,1.14-1.75,.08-1.66-3.14,.25-6.27,.21-9.38-.11,2.53-1.46,5.05-2.94,7.55-4.47,.91-.56,.15-2.03-.77-1.47-3.11,1.9-6.25,3.77-9.42,5.6-3.86-.61-7.65-1.65-11.3-3.13,.64-.37,1.3-.72,1.94-1.07,.05,.03,.08,.06,.14,.09,4.36,1.61,9.18,1.79,13.64,.48,1.02-.3,.67-1.92-.36-1.62-3.74,1.1-7.69,1.09-11.41,0,5.16-2.65,10.54-4.87,16.07-6.63,.15-.05,.26-.13,.36-.23,2.47-.42,4.93-.89,7.37-1.46,1.04-.24,.68-1.86-.36-1.62-5.33,1.23-10.73,2.09-16.16,2.6,2.61-1.01,5.21-2.01,7.82-3.02,1-.39,.22-1.86-.77-1.47-4.23,1.64-8.46,3.27-12.69,4.9-7.08,.35-14.19,.09-21.24-.77,10.66-1.41,21.27-3.25,31.78-5.53,1.04-.23,.68-1.85-.36-1.62-7.39,1.6-14.83,2.98-22.31,4.15,1.42-2.21,2.88-4.39,4.38-6.54,5.97-1.53,12.16-2.84,17.22-6.53,.87-.63-.26-1.85-1.12-1.23-4.29,3.12-9.54,4.39-14.63,5.66,1.61-2.25,3.26-4.46,4.95-6.65,.59-.13,1.18-.25,1.77-.39,.97-.23,.71-1.65-.18-1.63,1.08-1.36,2.17-2.71,3.29-4.04,.69-.82-.72-1.72-1.39-.91l-.05,.06c.07-.6-.51-1.25-1.18-.86-4.2,2.42-8.3,5.02-12.3,7.76-4.5,.51-9.03,.69-13.56,.55,7.63-3.53,15.26-7.07,22.9-10.6,.97-.45,.2-1.92-.77-1.47-9.7,4.49-19.4,8.98-29.1,13.48,3.48-4.04,7.11-7.96,10.87-11.74,4.9-1.06,9.76-2.27,14.4-4.2,.99-.41,.21-1.88-.77-1.47-3.73,1.55-7.59,2.63-11.5,3.55,.03-.03,.07-.07,.1-.1,2.88-2.81,5.83-5.54,8.86-8.2,.81-.71-.31-1.94-1.12-1.23-3.74,3.28-7.36,6.69-10.87,10.21-1.58,.34-3.16,.67-4.74,1,1.7-1.58,3.39-3.18,5.03-4.83,5.47-5.49,10.54-11.39,14.98-17.75,.47-.68-.24-1.36-.87-1.24-.25-.41-.78-.63-1.2-.18-7.68,8.21-16.58,15.13-25.68,21.68-3.57,2.57-7.16,5.11-10.76,7.64h0c-.08,.04-.13,.09-.19,.14-3.99,2.81-7.99,5.61-11.99,8.41,6.17-7.01,12.09-14.3,17.19-22.11,1.64-1.11,3.24-2.3,4.81-3.51-.1,.54,.27,1.17,.95,.98,5.35-1.56,10.61-3.41,15.77-5.54,.99-.41,.21-1.88-.77-1.47-4.88,2.02-9.87,3.77-14.94,5.26,.13-.11,.27-.21,.41-.31,3.83-3.07,7.47-6.38,11.1-9.68,.79-.72-.33-1.95-1.12-1.23-4.49,4.09-9.02,8.19-13.89,11.83,1.65-2.73,3.2-5.52,4.61-8.39,.31-.63,.6-1.27,.9-1.9,2.23-1.17,4.41-2.46,6.52-3.84,.88-.58,.13-2.06-.77-1.47-1.5,.99-3.05,1.9-4.61,2.78,1.08-2.5,2.07-5.05,2.92-7.64,.34-1.02-1.25-1.53-1.58-.52-1.07,3.24-2.33,6.38-3.74,9.46-2.25,1.16-4.56,2.21-6.92,3.15,2.81-4.33,5.87-8.47,9.56-12.14,.76-.75-.36-1.99-1.12-1.23-4.33,4.3-7.81,9.23-11.02,14.36-3.03,1.08-6.13,1.96-9.29,2.66,.37-.45,.74-.91,1.11-1.37,4.17-5.08,8.4-10.11,12.69-15.08,.69-.8-.42-2.04-1.12-1.23-6.97,8.07-13.77,16.29-20.41,24.64-.02-4.44,.18-8.88,.57-13.29,1.07-.77,2.15-1.53,3.25-2.27,2.42-1.62,4.89-3.18,7.11-5.07,2.4-2.05,4.43-4.51,5.45-7.54,.34-1.02-1.24-1.53-1.58-.52-1.87,5.55-7.32,8.67-11.91,11.76-.72,.48-1.41,.99-2.12,1.49,.2-1.91,.43-3.82,.7-5.72,.44-.31,.89-.63,1.33-.94,3.01-2.12,6.24-4.11,8.76-6.84,.72-.78-.39-2.02-1.12-1.23-2.48,2.68-5.65,4.66-8.62,6.74,.91-5.72,2.14-11.39,3.73-16.97,.29-1.03-1.29-1.55-1.58-.52-1.76,6.18-3.11,12.48-4.06,18.83-2.66,1.88-5.33,3.75-8,5.63l-.1,.07c.62-2.2,1.23-4.4,1.86-6.58,1.72-6,3.53-11.97,5.63-17.85,.36-1.01-1.22-1.52-1.58-.52-3.1,8.65-5.52,17.54-8.01,26.42l-6.94,4.88c.14-.68,.28-1.36,.44-2.04,1.43-6.22,4.06-11.89,7.2-17.41,3.42-6,7.19-11.83,9.89-18.21,.42-.99-1.17-1.5-1.58-.52-4.76,11.24-12.96,20.8-16.34,32.66-.65,2.27-1.14,4.57-1.56,6.89l-7.07,4.97c3.59-8.58,7.37-17.08,11.36-25.48,3.26-6.86,6.65-13.65,10.17-20.38,.49-.94-.9-1.85-1.39-.91-6.19,11.85-12,23.9-17.39,36.14-3.28,7.44-6.38,14.94-9.35,22.51-1.32-4.26-2.13-8.6-2.59-12.98,.13-.08,.24-.19,.31-.36,6.66-15.14,13.19-30.35,19.58-45.61,.41-.99-1.17-1.5-1.58-.52-6.08,14.5-12.28,28.95-18.59,43.35-.28-3.99-.32-8.01-.24-12.04,.65-1.93,1.21-3.88,1.66-5.87,.11-.15,.23-.3,.33-.45,2.69-3.76,5.16-7.68,7.39-11.73,2.51-4.55,4.73-9.26,6.64-14.1,.4-1-1.19-1.51-1.58-.52-3.18,8.01-7.22,15.67-12.04,22.81,.83-5.34,1.08-10.74,1.31-16.13,.05-1.07-1.61-1.15-1.66-.08-.27,6.23-.61,12.48-1.8,18.57,.27-5.92,.61-11.83,.64-17.67,.81-1.73,1.67-3.43,2.6-5.09,.52-.93-.87-1.84-1.39-.91-.43,.77-.83,1.55-1.24,2.33-.09-4.19-.38-8.38-1-12.53-.16-1.06-1.78-.69-1.62,.36,.77,5.15,1,10.32,.99,15.49-2.64,5.73-4.65,11.73-6.23,17.84-1-2.74-1.83-5.53-2.52-8.35,.32-1.94,.61-3.88,.88-5.83,.53-3.87,.97-7.76,1.42-11.64,.12-1.06-1.54-1.14-1.66-.08-.49,4.29-.99,8.57-1.61,12.84-.59-3.33-.98-6.69-1.14-10.06,.51-3.7,.76-7.44,.62-11.18-.04-1.06-1.7-1.15-1.66-.08,0,.26,0,.52,.01,.78-.1,.09-.19,.21-.23,.38-3.27,12.71-8.12,24.97-14.42,36.48l-1.88-5.52c-.17-.5-.34-1-.51-1.5,.79-4.15,1.6-8.3,2.46-12.44,.8-3.87,1.64-7.73,2.51-11.58,.23-1.04-1.35-1.56-1.58-.52-1.6,7.1-3.08,14.23-4.47,21.37l-6.5-19.05c-.34-1-1.97-.65-1.62,.37,2.5,7.33,5,14.66,7.5,21.99-1.05,5.54-2.05,11.09-2.97,16.65-.53,3.24-1.04,6.48-1.53,9.73-2.79-12.24-4.8-24.67-5.97-37.17-.8-8.52-1.21-17.08-1.25-25.63,0-1.07-1.67-1.15-1.66-.08,.07,14.95,1.29,29.89,3.65,44.65,1.18,7.41,2.66,14.77,4.42,22.07,1.13,4.7,2.47,9.37,3.46,14.1-2.43-3.56-4.56-7.32-6.46-11.18,.09-3.6,.09-7.2-.15-10.78-.82-12.32-5.21-24.13-8.86-35.82-2.16-6.93-4.33-13.87-6.49-20.8-.32-1.01-1.94-.66-1.62,.36,3.73,11.95,7.59,23.87,11.17,35.87,1.73,5.8,3.25,11.68,3.91,17.71,.37,3.32,.45,6.67,.42,10.01-1.86-4.12-3.49-8.34-4.95-12.61-3.88-11.33-6.85-22.97-10.05-34.5-.35-1.26-.7-2.52-1.05-3.78-.32-2.84-.78-5.67-1.45-8.46-.13-.54-.64-.7-1.05-.58-.83-2.99-1.66-5.98-2.49-8.96-.28-1.03-1.91-.67-1.62,.37,1.67,6.02,3.34,12.05,5.01,18.07,.83,7.53,.6,15.14,.34,22.75-.95-2.42-1.92-4.84-2.83-7.27-1.45-3.87-2.71-7.83-3.46-11.9-.19-1.05-1.82-.69-1.62,.36,1.27,6.93,4.03,13.43,6.59,19.95,.4,1.03,.79,2.06,1.17,3.1-.12,3.75-.2,7.49-.12,11.22,.08,3.5,.31,6.99,.76,10.46-1.05-1.45-2.15-2.87-3.3-4.25-1.26-1.51-2.55-2.99-3.86-4.46,.03-.28,.06-.55,.09-.83,.48-3.96,.86-7.9,.81-11.89-.05-3.99-.4-7.98-.94-11.93-.62-4.56-1.49-9.07-2.43-13.57-.2-.97-1.59-.72-1.62,.15-.17-.88-.35-1.76-.56-2.64-.25-1.04-1.87-.68-1.62,.37,2.7,11.26,1.53,22.78,.68,34.21-1.59-1.74-3.18-3.49-4.73-5.27-5.14-5.93-9.84-12.31-12.64-19.71-.38-1-1.85-.22-1.47,.77,.08,.22,.18,.44,.27,.66-.49,0-.99,.36-.83,.97,1.48,5.44,2.96,10.88,4.45,16.32-2.49-2.45-4.66-5.21-6.02-8.47-.41-.99-1.89-.21-1.47,.77,1.78,4.25,4.89,7.7,8.32,10.7,.46,1.66,.91,3.33,1.37,4.99,.28,1,.56,2,.84,3.01-3.36-4.57-6.48-9.32-9.35-14.23-3.51-6.01-6.89-12.16-11.48-17.43-.7-.81-1.93,.31-1.23,1.12,4.13,4.75,7.26,10.22,10.4,15.64,2.98,5.15,6.13,10.18,9.63,14.99,1.08,1.49,2.19,2.94,3.33,4.39,.82,2.76,1.69,5.51,2.61,8.24-1.42-1.19-2.82-2.4-4.22-3.61,.08-.38-.05-.81-.5-.99-.43-.18-.84-.38-1.27-.56-1.49-1.32-2.97-2.65-4.42-4.01-5.59-5.23-10.94-10.72-16.03-16.44-.71-.8-1.94,.32-1.23,1.12,5.25,5.9,10.79,11.54,16.57,16.91-7.26-3.75-13.95-8.55-19.81-14.26-.76-.74-2,.37-1.23,1.12,7.32,7.13,15.88,12.86,25.23,16.95,2.61,2.32,5.26,4.59,7.96,6.79,.43,1.2,.87,2.39,1.33,3.57,1.3,3.35,2.76,6.65,4.37,9.86-3.64-3.34-7.37-6.6-11.11-9.84,.05-.35-.09-.72-.54-.84-.22-.06-.43-.13-.65-.19-4.91-4.24-9.83-8.47-14.63-12.82-1.32-1.3-2.68-2.56-4.08-3.77-4.12-3.89-8.12-7.91-11.87-12.16-.71-.8-1.94,.32-1.23,1.12,.99,1.12,1.99,2.21,3,3.3-.68-.47-1.37-.93-2.06-1.39-.89-.59-1.8,.8-.91,1.39,4.07,2.7,8.07,5.61,11.8,8.82,1.49,1.41,2.99,2.8,4.51,4.17,2.61,2.6,5.03,5.39,7.16,8.4-9.15-3.98-17.33-10.06-23.75-17.77-.69-.82-1.91,.3-1.23,1.12,7.09,8.52,16.34,15.11,26.65,19.12,1.6,2.53,2.97,5.2,4.1,7.97-1.73-.87-3.47-1.71-5.24-2.51-4.03-1.82-8.16-3.34-12.32-4.81-3.55-3.53-7.1-7.06-10.66-10.59-3.17-3.15-6.35-6.31-9.52-9.46-.76-.75-1.99,.36-1.23,1.12l17.72,17.61c-2.87-1.05-5.71-2.18-8.43-3.58-4.09-2.11-7.8-4.85-10.51-8.61-.62-.87-1.85,.26-1.23,1.12,4.88,6.78,12.78,10.17,20.39,12.92,.85,.31,1.7,.61,2.55,.91,4.34,4.32,8.69,8.63,13.03,12.95l6.73,6.69c-7.63-3.82-15.49-7.2-23.29-10.68-1.98-2.49-3.94-5-5.94-7.45-4-4.9-8.21-9.62-13.07-13.68-.82-.69-1.72,.72-.91,1.39,6.35,5.32,11.51,11.79,16.65,18.26-.63-.28-1.26-.57-1.89-.85-7.44-3.41-14.79-7.05-21.76-11.36-.91-.56-1.82,.83-.91,1.39,8.54,5.29,17.63,9.55,26.79,13.65,1.29,1.62,2.6,3.23,3.93,4.81,.32,.38,.64,.75,.96,1.12-10.57,.35-20.85-2.61-30.76-6.03-1.01-.35-1.53,1.23-.52,1.58,.4,.14,.8,.27,1.2,.41,.06,.1,.14,.2,.25,.29,6.2,4.53,12.93,8.31,20,11.29-6.46,.34-12.92,.49-19.38,.43l-1.11-.6c-3.78-2.03-7.57-4.06-11.35-6.08-.94-.5-1.85,.89-.91,1.39l9.77,5.24c-1.83-.04-3.66-.07-5.49-.14-1.68-.81-3.37-1.62-5.05-2.42-.96-.46-1.47,1.13-.52,1.58,1.58,.75,3.15,1.51,4.73,2.27,.1,.1,.24,.17,.41,.2,.7,.34,1.41,.67,2.11,1.01-1.96-.22-3.93-.37-5.9-.43-1.07-.03-1.15,1.63-.08,1.66,3.62,.11,7.2,.53,10.75,1.11,7.1,3.54,14.1,7.31,20.72,11.65-5.82-1.03-11.65-2.02-17.39-3.43-6.68-1.64-13.25-3.85-19.26-7.24-.93-.52-1.84,.87-.91,1.39,10.67,6.03,22.79,8.34,34.73,10.45,2.1,.37,4.19,.76,6.28,1.16,1.51,1.06,3.01,2.16,4.47,3.29,2.87,2.22,5.6,4.61,8.2,7.14-5.34-.95-10.66-1.91-16-2.77-7.32-5.27-15.34-9.58-23.8-12.74-4.71-1.76-9.55-3.15-14.47-4.17-1.04-.22-1.56,1.36-.52,1.58,12.51,2.6,24.46,7.66,35.07,14.75-3.99-.6-8-1.11-12.04-1.5-6.14-.59-12.29-.96-18.45-1.12-.39-.01-.64,.21-.76,.48-1.27-.41-2.55-.78-3.86-1.08-1.04-.24-1.56,1.34-.52,1.58,9.45,2.18,17.79,7.21,26.4,11.55-1.2,0-2.39,.02-3.59,.04-8.54,.15-17.07,.66-25.6,1.16-.13,0-.24,.04-.33,.09-.6-.38-1.21-.76-1.81-1.15-.9-.58-1.81,.82-.91,1.39,2.93,1.87,5.9,3.73,8.93,5.52-2.99-.28-5.98-.66-8.95-1.14-1.05-.17-1.13,1.49-.08,1.66,4.11,.66,8.24,1.13,12.39,1.42,2.77,1.56,5.59,3.04,8.46,4.39-5.58,.57-11.14,1.35-16.69,2.13-1.06,.15-.69,1.77,.36,1.62,6.38-.9,12.86-1.81,19.37-2.39,7.81,3.35,16.01,5.63,24.68,5.83,4.94,.11,9.9-.49,14.63-1.94,.16-.05,.27-.13,.36-.23,3.88,1.4,7.62,3.15,11.15,5.29-1.03,.31-2.07,.6-3.12,.86-2.29,.56-4.59,1.01-6.91,1.38-.02,0-.04,0-.06,0-.03,0-.06,.01-.08,.02-12.27,1.93-24.91,1.26-37.08-1.11-8.29-1.61-16.41-3.99-24.32-6.94-1-.38-1.52,1.21-.52,1.58,13.98,5.22,28.76,8.71,43.72,9.2,2.72,.09,5.45,.07,8.18-.05-3.96,1.18-7.87,2.53-11.74,4-5.47-.42-10.93-1.05-16.34-1.92-7.69-1.24-15.3-2.97-22.78-5.14-1.03-.3-1.55,1.28-.52,1.58,11.78,3.42,23.89,5.71,36.1,6.86-1.55,.63-3.09,1.27-4.62,1.94h0c-5.74,.78-11.58-.33-17.27-1.08-5.83-.76-11.67-1.53-17.5-2.29-1.06-.14-1.13,1.52-.08,1.66,5.97,.78,11.94,1.56,17.91,2.34,.97,.13,1.95,.26,2.92,.39-2.49,1.34-5.09,2.49-7.77,3.4-.33,.11-.58,.36-.63,.68-5.06-.48-10.15-.56-15.01,1.18-.99,.36-.64,1.98,.36,1.62,7.07-2.53,14.59-1.11,21.83-.33,.02,0,.04,0,.06,0-2.79,1.58-5.53,3.24-8.23,4.97-1.11,.2-2.23,.41-3.34,.63-1.05,.21-.69,1.83,.36,1.62,.59-.12,1.18-.22,1.77-.34,.21,.3,.58,.45,.98,.19,.28-.18,.56-.35,.84-.53,8.1-1.47,16.27-2.49,24.49-3.06-1.15,1-2.29,2.01-3.44,3-2.4,.83-4.8,1.65-7.21,2.48-5.77,1.98-11.53,3.96-17.3,5.95-1,.34-.65,1.97,.36,1.62l20.4-7.01c-2.14,1.68-4.31,3.33-6.53,4.89-3.57,2.51-7.27,4.84-11.05,7.02-.61,.35-.48,1.11-.06,1.44-.92,.26-1.84,.52-2.76,.77-1.03,.28-.67,1.9,.36,1.62,10.98-2.96,21.7-6.89,31.97-11.76-1.87,1.77-3.59,3.68-5.23,5.67-.12-.03-.26-.03-.42,.03-5.71,2.08-11.26,4.57-16.6,7.48-.63,.34-.48,1.11-.04,1.43-.85,.31-1.69,.62-2.54,.93-.99,.36-.64,1.98,.36,1.62,4.87-1.75,9.71-3.54,14.55-5.38-2.44,3.39-4.79,6.85-7.28,10.17-.64,.86,.76,1.76,1.39,.91,2.98-3.98,5.76-8.17,8.75-12.18,12.8-4.93,25.47-10.19,38-15.77-8.88,8.24-17.34,16.93-25.35,26.02-1.99,.71-3.98,1.42-5.98,2.09-5.96,2.02-11.96,3.91-18,5.67-1.02,.3-.67,1.92,.36,1.62,7.19-2.1,14.33-4.4,21.4-6.86-1.4,1.61-2.78,3.23-4.15,4.87-3.01,3.61-5.95,7.28-8.82,11.01-.65,.85,.74,1.75,1.39,.91,4.72-6.12,9.64-12.08,14.74-17.89,2.55-.91,5.09-1.84,7.63-2.8,3.23-1.22,6.7-2.36,9.8-4.05-4.53,4.72-8.46,10-12.26,15.32-3.49,4.89-6.97,9.79-10.44,14.7-2.68,1.87-5.41,3.66-8.2,5.36-.91,.55-.15,2.03,.77,1.47,1.59-.97,3.15-1.97,4.71-2.99-.58,.82-1.16,1.63-1.74,2.45-.62,.87,.78,1.78,1.39,.91,1.43-2.01,2.86-4.03,4.29-6.04,6.63-4.66,12.89-9.83,18.71-15.46-4.75,8.11-11.22,15.35-17.44,22.24-.71,.79,.4,2.03,1.12,1.23ZM215.59,102.5c.19-1.25,.36-2.5,.54-3.76,.13-.05,.23-.13,.33-.24-.08,1.37-.36,2.72-.87,4Zm118.95,49.98c1.24-.04,2.48-.12,3.71-.24-9.79,2.92-20.21,3.44-30.24,1.43,2.99-.95,6-1.86,9-2.76,5.79,1.03,11.65,1.74,17.53,1.57Zm-21.1-2.23c-3.49,1.06-6.96,2.16-10.43,3.29-4.07,1.33-8.12,2.7-12.16,4.12-.19,.07-.31,.18-.41,.32-9.25-2.51-18.39-5.53-27.85-7.17-.55-.1-1.1-.18-1.65-.27,6.59-.86,13.2-1.68,19.74-2.86,3.6-.65,7.17-1.43,10.69-2.39,.09,.13,.22,.24,.44,.29,7.21,1.58,14.4,3.25,21.64,4.68Zm3.43-1.03c-2.96-.53-5.89-1.15-8.81-1.78,6.68-2.26,13.4-4.4,20.15-6.45,5.92,.6,11.94,.51,17.87,.34-9.8,2.37-19.54,5-29.21,7.88Zm-3.93-11.89c3.66,1.53,7.45,2.51,11.31,3.14-6.44,1.99-12.86,4.06-19.24,6.25-.03,0-.04,.03-.07,.04l-.26-.06c-3.45-.76-6.9-1.51-10.36-2.27,2.24-.68,4.45-1.44,6.64-2.29,3.94-1.53,7.8-3.28,11.61-5.13,.09,.13,.2,.25,.37,.32Zm-20.8-23.46c2.43-.25,4.87-.53,7.3-.82,.1,.28,.32,.51,.68,.57,6.75,1.04,13.58,1.51,20.39,1.44-8.46,3.23-16.94,6.41-25.47,9.43-6.18,2.19-12.39,4.3-18.63,6.3,4.88-5.96,10.14-11.62,15.73-16.93Zm25.78,9.49c3.47,1.52,7.1,2.64,10.8,3.37-1.21,.69-2.43,1.37-3.66,2.04-2.41-.09-4.82-.19-7.23-.27-2.56-.08-5.12-.14-7.68-.17,1.64-1.06,3.24-2.19,4.88-3.24,.94-.6,1.9-1.17,2.86-1.74,0,0,.01,.01,.02,.02Zm4.5-4.45c-2.73,1.42-5.4,2.96-8,4.61-2.49,1.59-4.87,3.37-7.46,4.8-4.91,.01-9.82,.18-14.72,.65-2.86,.27-5.71,.67-8.53,1.18,10.33-3.46,20.57-7.18,30.76-11.02,3.7-1.4,7.4-2.81,11.1-4.23,2.32-.12,4.64-.29,6.96-.54-3.44,1.35-6.82,2.85-10.1,4.55Zm4.36-30.91c-1.28,1.55-2.53,3.11-3.77,4.7-1.81,.39-3.63,.72-5.46,1,3.02-1.99,6.1-3.88,9.22-5.69Zm-15.87,21.82c-5.57,.84-11.15,1.57-16.76,2.17,1.34-1.24,2.69-2.46,4.07-3.65,5.57-1.68,11.16-3.25,16.78-4.74-1.4,2.05-2.77,4.12-4.1,6.22Zm3.52-14.03c2.35-.27,4.68-.63,7-1.08-1.7,2.23-3.35,4.48-4.96,6.78-5.06,1.32-10.1,2.72-15.11,4.19,4.09-3.4,8.33-6.62,12.7-9.64,.12-.08,.25-.16,.37-.25Zm-16.84,.2c.13,.18,.32,.31,.6,.32,4.3,.23,8.61,.16,12.9-.19-4.72,3.36-9.28,6.94-13.66,10.72-5.59,1.69-11.15,3.46-16.67,5.33,3.22-4.52,6.62-8.91,10.17-13.17,.11,0,.22-.03,.33-.08l6.34-2.94Zm-12.56,7.64c-2.42,3.1-4.74,6.27-6.99,9.49-5.05,1.75-10.09,3.55-15.09,5.45-6.2,2.36-12.35,4.84-18.45,7.43,9.11-6.75,18.21-13.49,27.29-20.28,8.38-6.27,16.69-12.68,24.47-19.67,1.67-.36,3.35-.71,5.02-1.05-5.75,5.91-11.19,12.12-16.26,18.63Zm18.57-29.59c3.54-2.85,6.96-5.84,10.21-9.01-5.5,7.1-11.77,13.56-18.44,19.58-3.1,.68-6.17,1.41-9.19,2.36,5.92-4.16,11.78-8.4,17.41-12.93Zm-13.14-11.1c-1.98,4-4.22,7.87-6.65,11.61-1.05,.7-2.11,1.39-3.2,2.03-1.77,1.05-3.6,1.97-5.45,2.83,2.74-4.42,5.3-8.98,8.05-13.4,2.47-.9,4.89-1.93,7.25-3.07Zm-18.93,5.97c.17,.18,.41,.28,.73,.22,2.88-.6,5.72-1.37,8.51-2.29-2.8,4.59-5.44,9.29-8.35,13.79-4.26,1.84-8.59,3.51-12.68,5.71-1.26,.68-2.49,1.43-3.66,2.24,5.04-6.64,10.19-13.2,15.45-19.68Zm-13.35-9.89c2.19-1.54,4.37-3.08,6.56-4.62-.25,1.88-.46,3.77-.63,5.67-3.53,2.58-6.92,5.35-10.15,8.29,.79-2.66,1.54-5.33,2.29-7.99l1.93-1.36Zm-4.02,2.83c-.82,2.91-1.66,5.82-2.54,8.71-2.03,1.95-4,3.97-5.89,6.05,.65-3.34,1.14-6.72,1.75-10.07,2.23-1.57,4.45-3.13,6.68-4.7Zm-19.78,19.81c1.16-2.93,2.35-5.86,3.55-8.77,.23,.06,.49,.03,.73-.13l6.91-4.86c-.56,3.26-1.05,6.54-1.73,9.78-1.29,6.16-3.52,11.85-6.96,17.12-3.74,5.71-8.39,10.73-13.04,15.71,2.79-8.27,5.76-16.48,8.91-24.62,.34-.13,.58-.44,.41-.89-.01-.03-.02-.06-.03-.09,.42-1.08,.83-2.15,1.25-3.23Zm-6.8-27.71c-.3,.89-.63,1.78-.99,2.66-1.74,4.24-3.92,8.29-5.49,12.61-1.55,4.28-2.22,8.75-2.79,13.25-.3,2.38-.59,4.76-1.01,7.11,.31-2.61,.6-5.22,.9-7.82,.77-6.84,1.56-13.69,2.67-20.49,.78-1.04,1.57-2.06,2.37-3.06,1.46-1.84,2.92-3.66,4.37-5.51-.01,.41-.02,.83-.03,1.24Zm-2.91-10.13c1.04-3.66,2.28-7.26,3.72-10.77-.14,5.6-.47,11.2-.68,16.8-2.03,2.65-4.16,5.24-6.22,7.87,.44-2.4,.92-4.79,1.47-7.17,.33-.21,.56-.62,.37-1.08-.02-.06-.04-.11-.07-.17,.44-1.84,.9-3.67,1.42-5.49Zm-3.15,5.61c-.72,3.07-1.35,6.17-1.89,9.27-.11,.62-.2,1.23-.3,1.85-1.6,2.16-3.13,4.37-4.47,6.71-1.73,3.04-3.08,6.26-3.82,9.66-.55-1.91-1.17-3.8-1.82-5.68,.04-.05,.09-.1,.12-.17,2.76-6.2,5.48-12.43,7.34-18.97,.94-3.29,1.7-6.63,2.34-10,.71,2.48,1.55,4.92,2.5,7.33Zm-3.52-11.26c-1.26,7.43-2.99,14.76-5.75,21.85-1.18,3.03-2.48,6.01-3.8,8.99-.45-1.3-.9-2.6-1.34-3.89h0c2.21-11.26,6.33-22.03,8.91-33.19,.16-.71,.32-1.43,.47-2.14,.36,2.82,.87,5.62,1.52,8.39Zm-2.16-17.05c.01,.72,.06,1.45,.09,2.17-1.09,7.86-3.38,15.56-5.64,23.17-1.54,5.16-3.05,10.34-4.22,15.6l-3.45-10.12c.05-.05,.11-.1,.15-.18,5.42-9.73,9.8-20.01,13.08-30.65Zm-20.82,55.37c-.35-1.38-.69-2.77-1.02-4.16,.31-.09,.58-.32,.64-.72,1.26-8.51,2.69-17,4.26-25.46l5.59,16.38c.3,.89,.61,1.78,.92,2.67-.89,4.8-1.35,9.65-1.93,14.49-.71,5.9-1.74,11.86-4.52,17.16-.12-1.73-.32-3.45-.58-5.16,.21-.29,.28-.69,0-1.04-.07-.1-.14-.19-.22-.29-.79-4.67-1.97-9.25-3.15-13.88Zm-22.95-27.53c.2-6.29,.5-12.59,.32-18.88,1.17,4.22,2.34,8.44,3.52,12.66,3.11,11.09,6.42,22.2,11.35,32.63,.17,.36,.35,.72,.53,1.09-.04,1.57-.1,3.14-.15,4.71-.2,6.32-.51,12.67-1.74,18.88-.31-.82-.61-1.63-.93-2.44,0-.17-.07-.33-.19-.47-1.48-3.71-3.05-7.38-4.74-10.98-.88-1.88-1.83-3.72-2.83-5.53,.05-.1,.08-.22,.09-.35,.27-7.46-.5-14.95-2.32-22.18-.78-3.11-1.81-6.13-2.91-9.12Zm-.12,4.77c1.41,4.46,2.51,9,3.12,13.69,.45,3.49,.64,7.01,.61,10.53-.86-1.44-1.74-2.87-2.67-4.26,.05-.13,.08-.28,.05-.44-1.07-6.48-1.23-12.99-1.11-19.51Zm-7.73,11.33c5,5.73,9.32,11.84,12.77,18.63,1.93,3.82,3.68,7.74,5.29,11.71-5.98-4.09-11.64-8.61-16.96-13.51-.6-2.73-1.15-5.47-1.49-8.25-.38-3.09-.38-6.13-.15-9.19,.18,.2,.36,.41,.54,.61Zm-2.05-2.31c-.32,3.22-.44,6.41-.14,9.66,.23,2.51,.65,5,1.15,7.47-1.3-1.24-2.58-2.5-3.83-3.79,.13-.13,.22-.31,.2-.56-.35-5.17-.18-10.34,.15-15.49,.83,.9,1.65,1.81,2.47,2.71Zm-1.32-29.71c-.13-2.59-.41-5.16-.84-7.71,1.58,7.66,2.93,15.41,3.11,23.25,.09,3.99-.22,7.94-.7,11.9v.06c-.85-.93-1.71-1.87-2.56-2.8,.58-8.23,1.42-16.45,.99-24.7Zm-14.89,19.12c-.11-.09-.21-.19-.32-.28-.45-1.65-.89-3.3-1.34-4.95-.98-3.6-1.96-7.19-2.94-10.79,4.14,8.34,10.46,15.31,16.78,22.19-.07,1.06-.13,2.12-.19,3.17-4.01-3.08-8.13-6.07-11.98-9.34Zm3.18,12.26c-.96-3.25-1.86-6.51-2.75-9.77,3.57,2.93,7.31,5.68,10.97,8.5,.16,.12,.32,.17,.47,.17,0,.05,0,.11,0,.16-.17,3.69-.19,7.38,.02,11.07-3.06-3.24-5.95-6.62-8.7-10.12Zm3.61,11.12c-.81-2.27-1.58-4.55-2.3-6.85,4.14,4.98,8.6,9.69,13.35,14.09,.17,.75,.34,1.5,.51,2.25-2.82-2.52-5.79-4.87-8.76-7.23-.94-.75-1.87-1.5-2.79-2.26Zm-13.56,1.74c-.43-.66-.87-1.31-1.32-1.95,.98,.85,1.96,1.7,2.95,2.55-.55-.19-1.09-.39-1.63-.6Zm4.99,8.85c-.08-.18-.29-.34-.48-.41-.02,0-.04,0-.05,0-.88-2.14-1.91-4.2-3.06-6.18,1.13,.39,2.26,.75,3.41,1.08,5.86,5.06,11.68,10.15,17.22,15.55,.84,.81,1.66,1.64,2.48,2.47-.05,.01-.09,.03-.13,.05-6.14-3.7-12.31-7.38-18.67-10.71,0-.15,0-.29-.07-.44-.21-.47-.43-.94-.64-1.41Zm-21.69,6.37c2.79,1.24,5.59,2.47,8.38,3.73,6.61,2.98,13.18,6.08,19.5,9.64,2.69,1.51,5.31,3.13,7.89,4.81-5.76,.29-11.54,.06-17.25-.67-1.35-.84-2.66-1.74-3.93-2.71-5.55-4.22-10.18-9.41-14.58-14.8Zm-14.56,7.24c-2.98-1.55-5.88-3.26-8.68-5.1,8.51,2.62,17.29,4.5,26.23,3.93h0c2.94,3.31,6.07,6.46,9.54,9.23,.72,.58,1.46,1.12,2.2,1.66-10.18-1.69-20.11-4.96-29.29-9.72Zm-11.69,9.02c-1.18-.23-2.37-.45-3.55-.64-1.09-.55-2.2-1.08-3.3-1.61,1.69,.04,3.38,.08,5.07,.1l5.47,2.93c-1.23-.27-2.47-.53-3.7-.77Zm1.74-2.16c6.02-.01,12.04-.17,18.05-.52,.38-.02,.64-.26,.76-.54,7.62,2.98,15.6,5.04,23.72,6.1,1.94,1.19,3.95,2.28,5.99,3.29-13.57,2.82-27.07-.76-40.37-3.96-2.71-1.46-5.43-2.91-8.14-4.37Zm19.01,15.53c-6.05-4.21-12.48-7.91-19.03-11.32,2.53,.53,5.04,1.12,7.56,1.72l15.52,8.32c2.06,1.1,4.11,2.21,6.17,3.31-3.4-.73-6.81-1.39-10.22-2.02Zm3.24,2.33c9.62,1.92,19.15,4.14,28.65,6.67,4.15,1.1,8.28,2.25,12.41,3.41-5.21,1.16-10.52,1.69-15.85,1.54-4.53-.13-9.03-.71-13.5-1.44-3.63-3.72-7.57-7.08-11.7-10.17Zm-1.02,16.96c-5.1-.45-10.21-.66-15.33-.7-3.19-1.48-6.32-3.1-9.45-4.74-4.14-2.17-8.34-4.33-12.69-6.03,10.04,.38,20.05,1.3,29.98,2.81,.19,.03,.39,.06,.58,.09,2.78,2.01,5.47,4.16,8.03,6.45,.92,.82,1.82,1.66,2.71,2.52-1.27-.15-2.55-.29-3.82-.4Zm19.55,4.72c6.98,1.53,13.88,3.38,20.84,5.01-9.18-.24-18.35-.77-27.44-2.16-.11-.02-.22-.04-.34-.05-.03-.05-.04-.09-.07-.14-1.34-1.61-2.73-3.18-4.16-4.71,3.74,.55,7.46,1.24,11.17,2.05Zm-22.48-3.29c2.9,.21,5.78,.5,8.65,.87,1.52,1.55,2.98,3.15,4.39,4.79-5.73-1.01-11.4-2.39-16.9-4.3-1.56-.54-3.09-1.13-4.61-1.76,2.82,.08,5.64,.19,8.46,.39Zm-35.65,5.22c-2.61-1.48-5.18-3.03-7.72-4.62,10.2-.6,20.42-1.15,30.64-1.07,2.04,.96,4.11,1.86,6.22,2.65,1.26,.47,2.54,.91,3.82,1.33-10.88,1.89-21.96,2.45-32.96,1.71Zm14.81,7.1c11.25-.75,22.52-.31,33.35,3.07-11.22,2.9-22.67,1-33.35-3.07Zm23.2-.95c-8.81-1.36-17.76-1.2-26.63-.43-2.74-1.18-5.43-2.48-8.04-3.86,10.25,.44,20.54-.24,30.66-2.05,.55-.1,.7-.58,.59-.99,11.09,3.4,22.72,4.86,34.28,5.53,6.17,.36,12.34,.49,18.52,.57,.34,.07,.68,.14,1.02,.21-3.08,1.15-6.09,2.57-9.04,4.02-5.06,2.48-10.1,4.8-15.4,6.55-7.86-5.03-16.76-8.12-25.96-9.54Zm-7.87,20.81c.31,.02,.61,.05,.92,.08,5.97,.42,11.97,.54,17.95,.41l-.68,.25c-.11,.04-.2,.12-.27,.22-.15-.07-.32-.11-.54-.05-5.86,1.59-11.74,3.29-16.94,6.4-.17-.2-.42-.35-.75-.31-5.78,.59-11.5,1.04-17.25,.91,5.7-2.96,11.56-5.61,17.56-7.9Zm-19.94,3.23c.11-.06,.19-.14,.25-.22,2.38,.29,4.78,.52,7.17,.52-2.82,1.33-5.61,2.74-8.36,4.23-1.12-.07-2.24-.16-3.37-.29-1.24-.14-2.5-.29-3.75-.44,2.78-1.05,5.48-2.31,8.05-3.8Zm-7.46,10.21c2.27-1.38,4.57-2.7,6.9-3.97,6.24,.39,12.44-.06,18.67-.67-.24,.17-.47,.34-.7,.51-.69,.53-1.37,1.08-2.04,1.64-.07-.02-.14-.04-.22-.03-7.57,.46-15.11,1.3-22.6,2.52Zm72.64-2.85c.21-.23,.42-.47,.64-.7,1.59-.76,3.17-1.53,4.76-2.3-4.98,10.52-11.16,20.46-18.37,29.59-2.26,2.87-4.64,5.64-7.1,8.34,1.15-3.09,2-6.29,2.49-9.55,.14-.95-1.17-1.1-1.56-.37-.03-.04-.04-.08-.07-.11,3.55-3.17,5.55-7.72,8.2-11.59,2.98-4.34,6.45-8.29,9.98-12.18l.26,.02c.7,.05,.96-.64,.77-1.15Zm-67.05,18.47c-2.62,.9-5.27,1.74-7.93,2.52,6.16-3.61,12.07-7.63,17.65-12.08,.96-.76,1.9-1.55,2.83-2.34,1.79-.61,3.57-1.23,5.36-1.84,4.79-1.65,9.58-3.46,14.57-4.41,2.2-.42,4.41-.6,6.64-.66-12.27,7.74-25.4,14.09-39.12,18.81Zm.62,7.18c3.96-2.06,8.03-3.89,12.2-5.49-.33,.43-.66,.85-.98,1.28-3.73,1.43-7.47,2.83-11.22,4.22Zm15.04-5.68c-.29,.11-.58,.22-.86,.33,2.9-3.67,6.05-7.11,9.8-9.99,.23-.18,.31-.4,.29-.62,1.84-.94,3.67-1.9,5.47-2.9,3.79-2.09,7.5-4.32,11.14-6.66,.2-.13,.31-.3,.36-.48,2.08,.04,4.17,.16,6.24,.29,4.17,.27,8.34,.55,12.5,.83-14.78,6.86-29.77,13.27-44.95,19.2Zm19.55,9.51c-2.14,.82-4.28,1.61-6.43,2.4,5.14-5.73,10.45-11.31,15.94-16.7,3.36-3.29,6.78-6.52,10.26-9.68,.15-.13,.21-.28,.24-.44,2.87-1.3,5.72-2.62,8.58-3.95-2.57,2.85-5.08,5.75-7.38,8.83-1.52,2.03-2.91,4.13-4.22,6.3-1.23,2.05-2.45,4.16-4.03,5.97-3.35,3.85-8.34,5.49-12.96,7.27Zm-5.86,22.04c-1.3,1.05-2.62,2.07-3.96,3.08,2.47-3.48,4.94-6.97,7.42-10.44,4.51-6.32,9.16-12.59,14.84-17.92-.74,4.27-2.1,8.3-3.9,12.13-4.53,4.68-9.33,9.08-14.4,13.16Z"/><path class="d" d="M145.03,305.97c1.7-16.92,11.85-31.25,19.39-46,.08-.05,.15-.1,.22-.15,.41-.27,.5-.72,.4-1.09,6.52-12.98,11.72-26.61,15.52-40.63-.86,8.2-1.54,16.41-1.93,24.63-6.73,10.65-12.69,21.78-17.81,33.3-2.37,5.32-4.55,10.72-6.56,16.19-.41,1.12,1.35,1.7,1.77,.58,5.93-16.14,13.46-31.67,22.45-46.32-.1,2.79-.16,5.57-.18,8.36-7.39,13.75-13.81,28.02-19.18,42.68-.41,1.12,1.36,1.7,1.77,.58,2.56-6.99,5.36-13.88,8.39-20.67,.42,1.92,.84,3.85,1.25,5.78-.16,.3-.16,.67,.13,1l.04,.04c-1.86,3.6-4.52,6.7-7.82,9.07-.41,.29-.37,.97-.06,1.31,.37,.41,.9,.36,1.31,.06,2.88-2.07,5.33-4.72,7.18-7.75,.26,1.32,.52,2.64,.74,3.96,.82,4.75,1.16,9.92-1.36,14.24-.6,1.03,.95,2.05,1.56,1.01,2.58-4.42,2.55-9.56,1.81-14.48-.21-1.41-.46-2.81-.73-4.21,1.71,2.42,2.9,5.19,1.8,8.13-.42,1.12,1.34,1.69,1.77,.58,1.81-4.79-1.35-9.2-4.37-12.68-.63-2.95-1.31-5.88-1.93-8.82,0-.03-.02-.05-.03-.07,2.44-5.34,5.02-10.62,7.75-15.82,.04,4.39,.19,8.78,.48,13.17,.51,7.88,1.73,15.76,1.06,23.66-.1,1.19,1.75,1.28,1.86,.09,.59-7-.32-13.96-.86-20.93-.51-6.49-.7-13-.67-19.5,.05-.09,.09-.18,.14-.27,.23-.42,.11-.82-.14-1.1,0-.02,0-.05,0-.07,.04-3.51,.14-7.02,.3-10.53,1.15-1.81,2.32-3.62,3.51-5.4,2.87-4.29,5.88-8.48,9-12.59,.56,2.33,1.15,4.65,1.74,6.95,.59,2.3,1.19,4.61,1.78,6.92-5.64,15.31-9.72,31.18-12.16,47.31-.7,4.62-1.26,9.26-1.68,13.91-.11,1.19,1.75,1.28,1.86,.09,1.39-15.06,4.22-29.97,8.43-44.5,3.31,4.64,6.16,9.6,8.51,14.78,0,.66-.01,1.33-.03,2-7.73,7.92-13.47,17.64-16.62,28.25-.34,1.15,1.42,1.73,1.77,.58,1.87-6.29,4.68-12.26,8.29-17.72,.19,1.71,.53,3.41,.54,5.13,.01,2.55-.5,5.03-1.47,7.37-.46,1.11,1.31,1.68,1.77,.58,.99-2.4,1.54-4.99,1.56-7.59,.02-2.71-.8-5.36-.63-8.06,1.44-1.98,2.99-3.88,4.65-5.69-.04,.6-.09,1.21-.16,1.81-.97,9.37-3.93,18.49-8.28,26.82-.55,1.05,1,2.07,1.56,1.01,3.83-7.33,6.59-15.16,7.98-23.33,.4-2.38,.65-4.78,.79-7.18,2.75,6.95,4.63,14.24,5.57,21.68,.15,1.18,1.96,.77,1.81-.41-1.12-8.89-3.58-17.55-7.24-25.68,0-3.93-.31-7.86-.85-11.78-.62-4.51-1.53-8.97-2.56-13.4,3.73,4.82,6.68,10.22,8.64,16.01,1.32,3.91,2.44,7.85,4.56,11.42,.65,1.1,1.37,2.16,2.09,3.22-.03,.18-.07,.36-.1,.53-.5,3.23-.63,6.51-.37,9.76,.24,3.09,1,6.63-.92,9.34-.69,.98,.87,1.99,1.56,1.01,1.79-2.54,1.64-5.65,1.37-8.61-.3-3.28-.38-6.53,0-9.81,.99,1.44,1.96,2.9,2.8,4.44,2.08,3.82,3.42,8.71,1.36,12.82-.53,1.06,1.02,2.08,1.56,1.01,2.87-5.73,.67-11.36-2.39-16.44,.21,.13,.42,.26,.63,.4,0,.27,.11,.53,.37,.73,1.8,1.38,3.37,3.05,4.67,4.9,.78,1.49,1.33,3.1,1.58,4.78,.1,.68,.74,.82,1.24,.6,.26,.71,.49,1.43,.68,2.17,.29,1.16,2.1,.76,1.81-.41-.72-2.88-1.98-5.59-3.65-8-1.96-3.7-5.26-6.69-9.22-8.15-.34-.51-.69-1.02-1.02-1.52,1.01-5.5,3.13-10.77,6.19-15.46,2.01,7.41,4.1,14.81,6.29,22.17,1.76,5.93,3.58,11.84,5.44,17.73,.36,1.13,2.18,.74,1.81-.41-5.69-17.93-10.86-36.02-15.52-54.25,1.66,1.48,3.29,2.98,4.9,4.51,2.04,8.97,3.9,17.99,5.97,26.96,1.38,5.96,2.97,11.86,5.06,17.61,.4,1.11,2.22,.72,1.81-.41-3.36-9.22-5.39-18.82-7.41-28.4,1.25,.64,2.5,1.29,3.72,1.98,.51,1.47,1.06,2.92,1.67,4.35,3.23,7.59,7.6,14.64,10.84,22.23,.47,1.1,2.11,.24,1.65-.86-2.79-6.54-6.41-12.67-9.43-19.1-.79-1.68-1.54-3.39-2.22-5.13,.49,.31,.99,.62,1.47,.95,2.71,1.87,5.02,4.14,7.05,6.72,3.65,4.64,6.41,9.91,10.14,14.5,.09,.11,.19,.22,.28,.33,.17,.35,.34,.7,.51,1.05,.19,.39,.52,.52,.84,.49,1.68,1.79,3.55,3.39,5.67,4.66,1.02,.62,2.04-.94,1.01-1.56-1.97-1.19-3.68-2.66-5.23-4.29,.41-.13,.71-.49,.51-1.01-2.49-6.8-4.98-13.59-7.48-20.39,.97,.55,1.89,1.19,2.73,1.98,1.49,1.39,2.77,2.97,4.02,4.57,.93,1.55,1.84,3.11,2.72,4.68,.32,.57,.94,.56,1.36,.28,.9,.96,1.85,1.86,2.93,2.65,.96,.71,1.97-.85,1.01-1.56-2.54-1.88-4.44-4.39-6.35-6.88-4.13-6.89-8.73-13.5-13.61-19.88-1.26-3.44-2.53-6.88-3.79-10.32-.55-1.5-1.07-3-1.58-4.51,2.15,1.47,4.31,2.92,6.49,4.35,5.26,11.31,11.14,22.45,19.52,31.73,2.9,3.21,6.09,6.13,9.55,8.71,.96,.72,1.97-.85,1.01-1.56-8.31-6.2-14.63-14.37-19.87-23.22,7.09,4.67,13.91,9.73,20.41,15.2,.91,.77,1.92-.8,1.01-1.56-6.92-5.83-14.2-11.21-21.79-16.13-.38-.25-.77-.17-1.04,.05-1.94-3.43-3.73-6.94-5.43-10.46-.13-.26-.25-.52-.37-.78,5.17,3.37,10.4,6.65,15.68,9.86,.38,.54,.76,1.07,1.14,1.6,3.15,4.34,6.57,8.47,10.71,11.91,.92,.76,1.92-.8,1.01-1.56-3.35-2.79-6.18-6.06-8.8-9.51,.31,.19,.62,.38,.94,.56,5.27,3.12,10.58,6.15,15.95,9.1,1.04,.57,2.06-.98,1.01-1.56-6.99-3.84-13.9-7.84-20.72-11.97-1.78-2.51-3.52-5.06-5.31-7.55,2.53,1.51,5.06,3.03,7.54,4.62,7.96,5.08,15.55,10.8,21.71,18.01,.78,.91,2.15-.34,1.37-1.25-9.24-10.84-21.48-18.17-33.63-25.32-5.62-7-12.2-13.14-19.13-18.84-.92-.76-1.85-1.5-2.78-2.25-.26-1.47-.59-2.92-1.02-4.34,3.21,2.6,7.12,4.07,10.73,6.01,3.59,1.94,6.78,4.5,9.92,7.08,4.29,5.22,8.8,10.29,13.93,14.71,6.98,6.01,14.95,10.66,22.89,15.26,1.03,.6,2.05-.96,1.01-1.56-7.02-4.07-14.08-8.15-20.44-13.22-3.65-2.91-6.97-6.17-10.12-9.6,1.77,1.23,3.57,2.41,5.44,3.52,4.25,2.5,8.65,4.75,13.03,7.03,9.86,5.15,19.83,10.17,30.37,13.8,1.13,.39,1.71-1.38,.58-1.77-9.41-3.25-18.36-7.6-27.18-12.17-8.5-4.4-17.24-8.63-24.8-14.57-1.13-.89-2.25-1.81-3.37-2.73-.25-.3-.49-.6-.74-.9-7.45-9.14-14.71-18.4-22.35-27.36,4.61,1.33,9.1,2.94,13.52,4.73,.03,.16,.12,.33,.29,.47,3.15,2.69,5.93,5.75,8.74,8.79,3.15,5.89,6.46,12.01,11.52,16.51,5.86,5.21,13.71,6.7,21.04,8.83,.95,.28,1.91,.55,2.86,.83,.4,.34,.79,.68,1.19,1.02,5.03,4.34,9.98,8.81,14.28,13.89,.77,.91,2.15-.34,1.37-1.25-3.83-4.53-8.16-8.55-12.62-12.44,2.3,.67,4.61,1.33,6.91,2,1.15,.33,1.73-1.43,.58-1.77-3.6-1.04-7.2-2.07-10.8-3.1-2.29-1.96-4.58-3.91-6.83-5.91,1.08,.42,2.15,.84,3.23,1.26,5.18,2.03,10.36,4.07,15.54,6.1,1.12,.44,1.69-1.33,.58-1.77-7.73-3.04-15.47-6.07-23.2-9.12-4.01-3.78-7.75-7.83-10.94-12.34-.26-.37-.52-.74-.77-1.11,7.44,3.91,14.81,7.99,22.25,11.83,5.53,2.86,11.14,5.58,16.86,8.03,1.1,.47,1.67-1.3,.58-1.77-.3-.13-.59-.26-.89-.39,2.8,.58,5.64,.94,8.46,1.13,1.19,.08,1.28-1.78,.09-1.86-8.22-.54-16.53-2.62-23.43-7.25-3.39-2.28-6.17-5.14-8.68-8.26,11.62,.58,23.15,2.53,34.29,5.91,4.08,1.24,8.1,2.67,12.06,4.26,1.11,.45,1.68-1.32,.58-1.77-2.14-.86-4.3-1.67-6.47-2.43,.16-.45,.02-.98-.56-1.15-4.5-1.3-8.21-4.22-11.81-7.19,3.7,.45,7.4,.47,10.97-.69,1.13-.37,.73-2.18-.41-1.81-4.3,1.4-8.82,1.02-13.29,.26-.37-.29-.73-.59-1.1-.87-.02-.01-.04-.03-.05-.04,6.57,.56,13.19,.6,19.77,.11,1.18-.09,1.28-1.94,.09-1.86-7.57,.57-15.17,.42-22.7-.4-4.12-3.06-8.38-5.94-12.76-8.6-1.66-1.01-3.35-1.98-5.05-2.93,.53,0,1.05-.02,1.58-.02,6.26-.08,12.53-.16,18.79-.24,2.23,.51,4.49,.92,6.75,1.27,.13,.05,.28,.07,.42,.06,4.73,.7,9.5,1.05,14.28,1.02,1.19,0,1.29-1.86,.09-1.86-6.4,.03-12.78-.61-19.02-1.87-.11-.29-.36-.51-.77-.5-.5,0-1,.02-1.5,.02-8.84-2.03-17.39-5.33-25.31-9.85-4.64-2.65-9.07-5.62-13.5-8.6,4.6,1.42,9.3,2.53,14.01,3.56,2.31,.51,4.61,1,6.92,1.5,.05,.07,.11,.13,.18,.19,11.44,9.22,25.84,14.5,40.52,14.89,1.19,.03,1.29-1.82,.09-1.86-13.12-.35-25.92-4.7-36.57-12.31,3.85,.83,7.7,1.65,11.55,2.49,4.38,.95,8.76,1.89,13.14,2.84,1.16,.25,1.75-1.51,.58-1.77-7.63-1.65-15.26-3.29-22.88-4.94-7.38-1.59-14.81-3.05-22.12-4.96-3.97-1.04-7.88-2.27-11.69-3.8-.24-.15-.47-.31-.71-.46-5.59-3.62-11.4-6.85-17.49-9.51,5.36,1.27,10.73,2.47,16.16,3.37,4.88,.8,9.79,1.34,14.71,1.67,.1,.17,.25,.32,.5,.4,18.17,5.36,36.38,10.56,54.63,15.62,1.15,.32,1.73-1.45,.58-1.77-16.29-4.52-32.55-9.16-48.78-13.91,4.51,.14,9.03,.11,13.54,0,3.54,.97,7.08,1.94,10.63,2.9,6.3,1.7,12.61,3.37,18.93,5.03,1.15,.3,1.74-1.46,.58-1.77-7.97-2.09-15.94-4.22-23.89-6.38,.79-.04,1.57-.06,2.36-.11,8.25-.43,16.48-1.13,24.7-1.83,1.17-.1,1.28-1.96,.09-1.86-11.02,.94-22.07,1.87-33.13,2.16-12.35-3.38-24.68-6.84-36.98-10.39-4.3-1.24-8.59-2.5-12.88-3.76,5.92,.23,11.85,.36,17.76,.65,7.58,.37,15.19,1.01,22.63,2.54,7.11,1.45,14.01,3.74,21.04,5.48,7.74,1.91,15.72,3.11,23.65,1.68,1.18-.21,.77-2.02-.41-1.81-14.35,2.59-28.23-3.67-41.98-6.74-14.42-3.22-29.26-3.09-43.94-3.69-8.42-.34-40.26-5.66-48.54-7.29-1.16-.23-1.75,1.54-.58,1.77,6.61,1.29,36.68,6.68,43.37,7.08,.1,.16,.25,.3,.49,.37,16.5,4.89,33.05,9.62,49.64,14.2-1.21,0-2.42,0-3.63,0-7.3-.11-14.61-.58-21.84-1.61-7.18-1.02-14.23-2.66-21.28-4.34-7.98-1.9-24.78-5.58-24.98-5.25-1.13-.16-26.47-1.84-27.6-1.97-1.19-.13-1.28,1.82-.09,1.86,37.01,.99,55.92,9.17,69.76,17.98,.56,.36,1.12,.72,1.68,1.09,.09,.1,.2,.19,.35,.25,.03,.01,.05,.02,.08,.03,6.1,3.98,12.04,8.23,18.33,11.92,6.53,3.84,13.48,6.93,20.72,9.14-5.66,.09-11.32,.18-16.98,.24-8.23-4.38-16.83-8.07-25.68-11.02-.73-.24-1.47-.46-2.21-.7-4.54-3.85-9.38-7.34-14.48-10.44-7.58-4.6-45.45-16.51-53.9-19.21-1.14-.36-1.72,1.4-.58,1.77,12.49,3.99,53.98,18.42,64.31,26.48-4.51-1.29-9.06-2.4-13.66-3.3-.44-.09-.8,.12-1.01,.42-.89-.62-1.8-1.22-2.72-1.79-4.21-2.61-8.76-4.63-13.28-6.63-3.92-1.73-7.84-3.46-11.76-5.19-.03-.32-.19-.64-.56-.81-2.06-.93-4.16-1.8-6.28-2.66-2.66-1.63-5.43-3.1-8.16-4.52,1.95-7.49,3.89-14.98,5.84-22.48,.3-1.15-1.46-1.74-1.77-.58-1.92,7.39-3.84,14.79-5.76,22.18-1.86-.97-3.73-1.92-5.61-2.86,1.97-5.76,4.26-11.42,6.57-16.98,.46-1.11-1.31-1.68-1.77-.58-1.93,4.65-3.86,9.38-5.59,14.17-.18-2.24-.27-4.49-.26-6.74,.82-1.8,1.64-3.6,2.44-5.41,.48-1.09-1.29-1.66-1.77-.58-.71,1.61-1.44,3.2-2.17,4.79-.21,.14-.36,.36-.36,.69,0,.03,0,.07,0,.1-.03,.06-.05,.12-.08,.17-.07-5.15-.03-10.29,.4-15.41,.1-1.19-1.76-1.28-1.86-.09-.26,3.16-.38,6.32-.41,9.49-.12,.06-.23,.15-.32,.29,.3-3.84,.54-7.69,.67-11.54,.04-1.19-1.81-1.29-1.86-.09-.18,5.09-.52,10.18-1,15.24-.11,.18-.22,.35-.33,.52,.02-.64,.03-1.28,.07-1.92,.07-1.19-1.79-1.28-1.86-.09-.09,1.66-.11,3.31-.11,4.97-.74,1.13-1.49,2.25-2.26,3.37-1.44-.65-2.9-1.28-4.35-1.91-.29-.24-.59-.47-.87-.71,1.32-4.32,2.81-8.59,4.51-12.78,.45-1.11-1.32-1.68-1.77-.58-1.59,3.94-3,7.95-4.26,12.01-.37-.34-.74-.66-1.1-1.01-2.88-2.81-5.33-6.01-7.16-9.6-.54-1.06-2.19-.21-1.65,.86,2.21,4.33,5.18,7.97,8.62,11.11-.2,.45-.11,1.06,.48,1.31-.1,.35-.21,.7-.31,1.05-1.34-.9-2.68-1.81-4-2.74-.98-.69-1.99,.87-1.01,1.56,1.48,1.05,2.98,2.07,4.49,3.08-.8,2.95-1.51,5.93-2.13,8.92-.28,1.38-.54,2.76-.79,4.14-2.08,2.41-4.23,4.77-6.45,7.06-.08,.05-.16,.11-.23,.19-.14,.16-.27,.33-.41,.49-.05,.05-.1,.11-.15,.16-.03,.03-.03,.06-.05,.08-9.12,10.6-17.41,21.87-25.38,33.35-.27,.39-.53,.78-.8,1.16-14.52,11.3-28.16,23.72-40.73,37.16-3.73,3.99-7.36,8.07-10.91,12.22-.77,.9,.47,2.28,1.25,1.37,12.44-14.6,26.07-28.19,40.72-40.56,2.03-1.71,4.07-3.4,6.14-5.06-6.63,9.72-13.15,19.52-19.89,29.16-4.64,6.64-9.4,13.2-14.39,19.59-.35,.44-.18,.9,.16,1.16-2.91,1.87-5.61,4.06-8.02,6.55-.83,.86,.42,2.24,1.25,1.37,2.82-2.91,6-5.43,9.52-7.44,1.21-.7,2.47-1.31,3.74-1.89l-7.01,10.67c-.66,1,.9,2.01,1.56,1.01,2.83-4.31,5.67-8.62,8.5-12.94,1.32-.48,2.65-.95,3.86-1.67,1.64-.98,2.86-2.4,3.98-3.92,1.19-1.61,2.37-3.25,3.46-4.93,2.2-3.39,3.98-7.03,4.53-11.08,0-.04,0-.06,0-.09,1.57-1.3,3.27-2.42,5.07-3.4-.87,3.2-1.74,6.39-2.68,9.56-8.77,9.4-17,19.29-24.65,29.63-.71,.96,.85,1.97,1.56,1.01,4.22-5.7,8.64-11.25,13.22-16.67-1.82,5.31-4.33,10.35-7.5,15.01-.67,.99,.89,2,1.56,1.01,3.87-5.69,6.81-11.98,8.71-18.6,.07-.25,.03-.46-.06-.64,1.93-2.23,3.88-4.44,5.87-6.62-1.8,5.55-3.91,10.99-6.68,16.15-3.06,5.71-6.91,10.97-11.78,15.27-.9,.79,.35,2.17,1.25,1.37,13.93-12.29,18.65-30.15,23.38-47.61,.82-.38,1.64-.75,2.49-1.09,5.12-2.07,10.37-3.74,15.42-6.01,1.11-.5,2.2-1.03,3.3-1.56-.5,1.5-.99,3.01-1.45,4.53-8.73,10.54-14.53,22.98-20.67,35.14-.39-.21-.91-.2-1.27,.22-4.83,5.83-9.75,11.59-14.77,17.26-.78,.89,.46,2.27,1.25,1.37,4.31-4.89,8.54-9.84,12.73-14.84h0c-2.02,3.9-4.13,7.75-6.42,11.49-.62,1.02,.93,2.03,1.56,1.01,4.13-6.75,7.63-13.85,11.18-20.93,.5,9.18-2.83,18.46-9.13,25.17-.81,.87,.43,2.25,1.25,1.37,7.29-7.77,10.8-18.53,9.52-29.11-.02-.16-.07-.29-.15-.39,2.83-5.6,5.74-11.15,9.08-16.47,1.4-2.24,2.9-4.42,4.47-6.54-2.51,9.15-4.27,18.51-4.97,27.97-1.5,2.72-2.9,5.51-4.07,8.43-.92,2.29-1.74,4.62-2.54,6.95-3.3,2.91-6.53,5.89-9.66,8.98-3.26,3.21-6.43,6.51-9.51,9.89-.8,.88,.44,2.26,1.25,1.37,5.31-5.83,10.9-11.39,16.73-16.68-1.6,4.85-3.17,9.72-5.17,14.43-.47,1.1,1.3,1.67,1.77,.58,2.42-5.71,4.21-11.64,6.2-17.51,1.5-1.32,3.01-2.63,4.53-3.91-.13,3.35-.42,6.69-1.24,9.88-.38,.54-.76,1.08-1.15,1.61-.35,.48-.14,.97,.24,1.23-.4,1.07-.86,2.12-1.43,3.14-.58,1.04,.97,2.06,1.56,1.01,1.11-1.97,1.89-4.04,2.46-6.17,4.5-6.41,8.44-13.21,11.75-20.31,2.2-1.62,4.42-3.19,6.67-4.74-3.12,5.85-6.44,11.58-9.42,17.5-4.17,8.25-7.63,16.92-8.56,26.19-.12,1.19,1.74,1.28,1.86,.09Zm146.19-79.72c-4.06-2.15-8.1-4.34-12.15-6.52,2.14-.03,4.28,.01,6.42,.08,1.75,2.29,3.62,4.47,5.73,6.44Zm-102.65-69.8c-.13-.06-.26-.13-.39-.19-.04-1.59-.07-3.17-.1-4.76,.03-.06,.06-.12,.09-.18,.08,1.72,.23,3.42,.41,5.13Zm-3.12-10.67c.23-.38,.46-.77,.69-1.15,.01,2.13,.05,4.26,.11,6.39-.55,1.17-1.1,2.33-1.66,3.5-.04-.02-.07-.03-.11-.05,.38-2.89,.7-5.79,.98-8.69Zm-3.98,6.16c.01,.39,.04,.78,.06,1.18-.22-.1-.44-.2-.67-.31,.2-.29,.41-.58,.61-.87Zm-.82,87.63c.51-9.08,1.37-18.15,2.4-27.18,.41-3.63,.85-7.25,1.3-10.87,1.03-5.47,1.83-10.99,2.44-16.52,.75,2.03,1.63,4.01,2.69,5.91-1.2,10.78,.5,21.52,2.95,32.06-4.14,5.38-8.06,10.92-11.77,16.61Zm5.82-78.5c-.8-.44-1.6-.88-2.39-1.33,.2-.4,.39-.8,.59-1.2,.59,.3,1.18,.6,1.77,.89,.01,.55,.03,1.09,.03,1.64Zm27.95,13.6c-.18,.27-.23,.62-.06,.91,1.24,2.06,2.48,4.12,3.72,6.17-.12,.06-.22,.15-.32,.28-.11,.15-.25,.31-.39,.48-3.21-3.14-6.51-6.2-9.9-9.14-.19-.16-.4-.23-.61-.24-2.13-2.26-4.77-3.96-7.51-5.41-.79-.42-1.59-.83-2.4-1.23,.19-.73,.38-1.45,.57-2.18,.34,.14,.67,.27,1.01,.41,2.35,.93,4.7,1.86,7.04,2.81,3.26,2.01,6.32,4.3,8.84,7.15Zm5.86,9.04c.15-.08,.27-.22,.36-.37,.92,1.59,1.78,3.21,2.58,4.87l-.08-.02c-.05-.01-.1,0-.15,0-1.41-1.45-2.82-2.9-4.26-4.32,.12-.16,.23-.32,.35-.47,.27,.38,.76,.56,1.2,.33Zm-3.6,.73c.17,.71,.64,1.49,.89,2.12,.7,1.8,1.4,3.61,2.06,5.42,1.35,3.68,2.6,7.41,3.64,11.2,1.03,3.77,1.84,7.61,2.3,11.5,.22,1.87,.32,3.76,.4,5.64-3.9-3.72-7.58-7.67-11.01-11.82-6.13-7.42-11.45-15.49-15.87-24.04-.07-.14-.16-.24-.26-.32-1.55-2.98-2.9-6.06-4.05-9.2,.57-2.2,1.14-4.41,1.72-6.61,.4,.2,.79,.4,1.19,.6,3.26,1.68,6.4,3.61,8.73,6.49,.26,.32,.59,.37,.89,.27,3.21,2.83,6.34,5.75,9.39,8.75Zm11.81,45.07c-.25-1.6-.39-3.2-.48-4.81,.26,.23,.51,.46,.76,.69,2.92,2.56,5.96,4.96,9.08,7.25,.27,1.43,.62,2.85,1,4.25-1.58-1.1-3.16-2.19-4.73-3.31-1.89-1.34-3.76-2.7-5.63-4.07Zm-1.4,2.39c-.97-1.08-1.94-2.16-2.92-3.24,.88,.65,1.77,1.29,2.65,1.94,.08,.44,.17,.87,.26,1.3Zm-.8-5.16c.04,.43,.08,.85,.13,1.28-1.47-1.08-2.92-2.18-4.38-3.27-.76-2.76-1.57-5.51-2.46-8.23,2.09,2.21,4.25,4.36,6.49,6.43,.05,1.27,.11,2.53,.22,3.79Zm-7.63-4.2c-1.25-1.39-2.51-2.77-3.76-4.16,0-.04-.02-.08-.03-.11-.09-.4-.37-.6-.68-.67-2.08-2.3-4.15-4.61-6.2-6.93-5.29-5.97-10.47-12.03-15.43-18.28-.41-.62-.8-1.25-1.16-1.89,.08-.73,.17-1.47,.29-2.2,.05-.31-.04-.53-.2-.69,.83-3.2,1.66-6.39,2.49-9.59,1.07,2.65,2.27,5.26,3.63,7.79,.08,.14,.18,.25,.28,.32,5.09,9.68,11.33,18.74,18.56,26.93,1.17,3.25,2.21,6.54,3.16,9.85-.09-.07-.19-.14-.29-.21-.23-.17-.45-.21-.66-.17Zm-24.98-50.78c-.59-1.85-1.1-3.72-1.55-5.61,.89,.44,1.77,.88,2.66,1.33-.37,1.43-.74,2.86-1.11,4.29Zm-11.9-14.78c.04,.5,.07,1,.11,1.5-1.17-.69-2.34-1.38-3.5-2.1,.24-.33,.47-.67,.7-1,.88,.55,1.78,1.09,2.69,1.6Zm14.01,6.63c-.18,.68-.35,1.36-.53,2.03-1.22-.6-2.44-1.21-3.65-1.82-.15-.72-.29-1.44-.42-2.17,1.53,.67,3.07,1.32,4.6,1.95Zm-9.3-.4c0,.9,.02,1.8,.02,2.69-.45,1.69-.84,3.39-1.2,5.09-.03-.21-.07-.42-.1-.63-.42-2.81-.79-5.65-1.11-8.49,.8,.45,1.59,.9,2.39,1.34Zm1.82,3.15c.17-.63,.36-1.26,.54-1.88,.38,.2,.75,.4,1.13,.59,.74,3.38,1.69,6.71,2.85,9.97-1.05,4.04-2.1,8.08-3.15,12.12-.91-2.02-1.65-4.12-2.27-6.25,.63-4.83,.86-9.68,.9-14.54Zm13.01,99.9c-2.23-4.36-4.81-8.55-7.72-12.51,.09-.31,.18-.63,.27-.94,1.06-3.48,2.23-6.92,3.44-10.34,1.92,7.84,3.55,15.78,4.01,23.8Zm21.45-8.26c-.25,.02-.49,.13-.67,.4-3.05,4.53-5.21,9.59-6.42,14.89-.91-1.4-1.76-2.84-2.46-4.37-.93-2.04-1.61-4.18-2.3-6.31-1.29-4-2.84-7.87-4.9-11.54-2-3.57-4.41-6.89-7.13-9.94-1.49-6.01-3.13-11.98-4.54-18,0-.05-.02-.1-.03-.15-.71-3.04-1.37-6.1-1.92-9.18-1.18-6.69-1.77-13.49-1.3-20.25,7.02,8.86,14.51,17.33,22.08,25.72,2.93,12.97,6.13,25.88,9.58,38.73Zm-1.84-15.63c-.11-.1-.24-.16-.36-.2-.49-1.95-.98-3.89-1.46-5.84-1.16-4.73-2.27-9.47-3.36-14.22,1.28,1.42,2.57,2.84,3.85,4.26,.46,.51,.91,1.02,1.37,1.52,1.46,5.52,2.75,11.1,4.07,16.65,.15,.64,.29,1.28,.44,1.92-1.5-1.38-3.01-2.75-4.55-4.09Zm7.06,6.47c-1.39-6-2.84-12-4.35-17.97,1.47,1.64,2.95,3.27,4.41,4.92,1.26,4.55,2.84,9.04,3.65,13.7,.2,1.17,.38,2.35,.56,3.52-.38-.39-.77-.78-1.15-1.17-1.02-1.02-2.07-2.01-3.12-3.01Zm3.19,14.32c-.04-.19-.08-.38-.12-.57-.74-3.48-1.52-6.95-2.31-10.43,1.35,1.33,2.68,2.67,3.99,4.04,.26,1.69,.54,3.39,.9,5.07,.26,1.23,.59,2.43,.94,3.63-1.13-.59-2.26-1.17-3.4-1.74Zm10.5,6.12c-1.52-1.15-3.13-2.17-4.78-3.11-.24-.73-.48-1.46-.69-2.2-.49-1.74-.86-3.52-1.18-5.3,.53,.58,1.08,1.15,1.61,1.74,5.18,5.78,9.9,11.86,13.78,18.58-2.49-3.6-5.2-7.02-8.73-9.71Zm10.49,5.07c1.62,4.42,3.24,8.84,4.86,13.26-2.96-5.99-6.08-11.9-9.97-17.35-.85-1.18-1.72-2.34-2.62-3.49,1.9,.9,3.91,1.59,5.84,2.43,.63,1.71,1.26,3.43,1.89,5.14Zm2.46-4.95c-.93-.63-1.9-1.17-2.92-1.65-.66-1.8-1.32-3.61-1.98-5.41,1.69,2.32,3.31,4.68,4.9,7.06Zm-8.78-12.25c1.18,3.21,2.36,6.42,3.54,9.63-2.66-1.01-5.45-1.89-7.58-3.84-.21-.19-.45-.26-.68-.25-2.14-2.53-4.37-4.98-6.65-7.37-.14-.91-.27-1.82-.41-2.73-.56-3.77-1.27-7.49-2.36-11.15-.23-.76-.47-1.53-.7-2.29,5.12,5.86,10.1,11.83,14.84,18Zm-4.4-12.07c.77,2.14,1.56,4.28,2.34,6.42-1.91-2.39-3.85-4.77-5.82-7.11-2.7-3.2-5.46-6.36-8.24-9.5-.25-.89-.49-1.79-.7-2.69,3.51,2.54,7.05,5.04,10.62,7.5,.55,1.8,1.16,3.59,1.8,5.37Zm-.22-6.52c-.43-1.42-.83-2.85-1.16-4.3,1.59,1.13,3.2,2.23,4.83,3.3,.01,.04,0,.07,.02,.1,.73,1.63,1.47,3.27,2.22,4.91-1.98-1.32-3.95-2.66-5.92-4.01Zm17.77,7.58c.36,.46,.74,.9,1.09,1.37,1.57,2.05,3.05,4.16,4.53,6.28-4.88-3.01-9.72-6.1-14.52-9.26-.79-1.71-1.58-3.42-2.35-5.14,.5,.31,.99,.63,1.49,.94,3.23,1.99,6.49,3.9,9.76,5.82Zm-8.96-9.87c1.85,1.8,3.65,3.67,5.37,5.6-.53-.32-1.07-.63-1.6-.95-4.88-2.92-9.67-5.98-14.27-9.3-.02-.13-.05-.27-.07-.4-.26-1.62-.47-3.25-.71-4.88,3.89,3.16,7.68,6.43,11.28,9.93Zm-13.39-11.63c.29,1.8,.52,3.62,.77,5.41-1.49-1.12-2.95-2.26-4.39-3.45-1.75-1.44-3.46-2.94-5.13-4.47-.04-1.17-.08-2.34-.14-3.51-.02-.31-.05-.62-.07-.93,3.01,2.29,6.01,4.59,8.96,6.94Zm-.53-2.77c-2.85-2.24-5.73-4.44-8.61-6.63-.01,0-.03-.01-.04-.02-.27-2.57-.68-5.12-1.22-7.65-1.46-6.77-3.75-13.32-6.23-19.77,1.87,1.91,3.71,3.85,5.53,5.81,.52,1.34,1,2.7,1.44,4.07,1.99,6.32,3.29,13.48,7.49,18.76-.05,.19-.06,.4,.05,.63,.72,1.55,1.22,3.17,1.6,4.81Zm4.07-11.53c4.33,5.22,8.54,10.52,12.77,15.82-.37-.26-.74-.51-1.12-.76-3.63-2.37-7.75-3.82-11.41-6.14-7.28-4.62-8.97-13.09-11.27-20.8-.14-.47-.3-.93-.45-1.39,3.92,4.34,7.74,8.77,11.47,13.27Zm12.88-3.45c-5.75-2.45-11.64-4.57-17.67-6.23-.35-.1-.64,.01-.86,.21-2.38-2.76-4.79-5.49-7.27-8.17-.06-.07-.12-.13-.19-.2-.2-.51-.42-1.02-.63-1.53,6.64,1.74,13.27,3.52,19.93,5.2,4.25,3.54,9.45,5.69,13.68,9.26,2.73,2.3,4.93,5.09,6.98,8-4.59-2.32-9.24-4.54-13.98-6.55Zm30.58,26.74c2.36,2.22,4.79,4.37,7.25,6.51-2.84-.82-5.67-1.65-8.49-2.51-3.49-1.06-6.79-2.4-9.68-4.67-2.61-2.05-4.78-4.64-6.65-7.36-.79-1.15-1.52-2.33-2.23-3.52,1.07,1.03,2.15,2.05,3.3,3,3.3,2.73,7.01,4.71,10.96,6.34,1.84,.76,3.69,1.49,5.55,2.21Zm-12.55-14.24c2.72,3.95,5.81,7.52,9.11,10.88-3.79-1.52-7.47-3.21-10.74-5.7-3.17-2.42-5.93-5.32-8.63-8.25-2.12-2.3-4.23-4.62-6.47-6.81,5.04,2.21,9.99,4.64,14.89,7.17,.61,.91,1.22,1.82,1.84,2.71Zm34.15-3.69c2.34,.39,4.75,.9,7.17,1.33,2.73,2.23,5.45,4.59,8.41,6.48-9.9-2.85-20.1-4.65-30.38-5.33-1.33-.09-2.67-.15-4-.2-1.19-1.59-2.32-3.22-3.44-4.86,7.45,.51,14.88,1.35,22.25,2.57Zm-1.49-2.25c1.61,.25,3.23,.45,4.85,.64,.23,.17,.46,.34,.69,.51-1.49-.29-2.96-.59-4.41-.82-7.7-1.25-15.45-2.12-23.23-2.6-.49-.72-.99-1.44-1.48-2.15-.49-.7-.99-1.39-1.49-2.08,8.11,3.01,16.52,5.2,25.07,6.51Zm1.74-1.64c-7.77-1.09-15.43-2.91-22.87-5.43-2.03-.69-4.04-1.43-6.04-2.23-.87-1.11-1.76-2.2-2.67-3.28,.33,0,.66,.02,.98,.03,4.25,.06,8.51,0,12.77-.07,6.16,3.29,12.12,6.94,17.82,10.99Zm-32.46-9.14c-1.54-.67-3.05-1.37-4.56-2.1,.98,.09,1.95,.15,2.93,.2,.55,.63,1.1,1.26,1.63,1.9Zm-9.9-2.74c3.99,2.13,8.09,4.06,12.29,5.75,.95,1.23,1.88,2.47,2.77,3.74,1.98,2.81,3.87,5.7,5.89,8.49-2.22-.05-4.44-.04-6.66,.01-.4,0-.66,.23-.81,.51-2.04-1.09-4.08-2.17-6.13-3.23-2.22-3.29-4.47-6.55-7.28-9.37-3.57-3.58-8.11-5.76-12.26-8.52,2.17,.53,4.34,1.05,6.52,1.54,1.88,.42,3.77,.77,5.67,1.06Zm21.07-.91c-2.15,.02-4.31,.04-6.46,.04-1.84,0-3.68-.04-5.52-.11-2.62-2.98-5.39-5.84-8.31-8.53,6.94,2.41,13.72,5.3,20.28,8.6Zm-24.7-10.06c1.01,.86,2.01,1.73,2.98,2.63,2.5,2.29,4.88,4.7,7.16,7.21-1.97-.14-3.94-.34-5.9-.63-1.31-.7-2.6-1.42-3.88-2.17-3.59-2.1-7.07-4.39-10.43-6.84-1.98-1.45-3.92-2.94-5.89-4.39,5.39,1.13,10.72,2.53,15.96,4.19Zm-36.67-13.36c4.27,1.88,8.57,3.73,12.64,6.05,3.91,2.23,7.47,4.97,11.06,7.67,3.38,2.53,6.84,4.93,10.45,7.13,.37,.23,.75,.43,1.13,.65-3.7-.82-7.38-1.78-11.05-2.74-.06-.05-.12-.1-.17-.15-.33-.3-.73-.31-1.05-.17-1.07-.28-2.13-.56-3.2-.83-5.71-1.47-11.42-2.93-17.13-4.4-2.62-5.76-5.96-11.19-9.98-16.12-.21-.25-.46-.34-.7-.31-.19-.19-.38-.38-.57-.56l8.59,3.79Zm-49.93-22.71c.13-.47,.28-.93,.41-1.39,.18,.08,.36,.16,.54,.24,1.18,.93,2.4,1.81,3.66,2.64-.24,.34-.47,.68-.72,1.02-1.31-.82-2.61-1.65-3.89-2.5Zm-2.32,9.45c.54-2.54,1.15-5.06,1.81-7.57,1.1,.72,2.2,1.43,3.31,2.13-1.75,2.37-3.55,4.7-5.43,6.97,.1-.51,.2-1.02,.31-1.53Zm6.7-4.46c1.45,.89,2.9,1.77,4.37,2.62-4.05,8.05-8.36,15.97-12.92,23.74-.1,.07-.2,.17-.27,.32-.13,.26-.25,.52-.38,.78-.07,.12-.14,.23-.2,.35-.21-3.33,.13-6.69,.52-10.01,.32-2.7,.72-5.4,1.19-8.08,2.69-3.14,5.25-6.39,7.7-9.72Zm-10.37,58.39c.16-.26,.18-.59,.05-.87,.03-.6,.08-1.19,.1-1.79,.32-7.8,.37-15.61,1.03-23.39,.2-.19,.33-.47,.25-.82-.02-.1-.03-.19-.05-.29,.44-.92,.89-1.84,1.34-2.76,3.91-6.61,7.63-13.33,11.17-20.14-1.24,7.02-2.77,13.99-4.59,20.89-.04,.16-.04,.3-.01,.44-2.45,10.12-5.59,20.06-9.36,29.76,.02-.34,.04-.68,.06-1.02Zm-3.84,1.05c-.11,.1-.18,.23-.23,.38-2.93,1.9-5.94,3.67-9.02,5.32,1.68-4.75,3.5-9.44,5.45-14.07,2.1-5.01,4.35-9.95,6.66-14.86-.45,7.14-.54,14.31-.89,21.45-.66,.6-1.31,1.19-1.97,1.79Zm-47.51,33.45c-2.06,3.08-4.09,6.46-7.5,8.12,.13-.2,.26-.39,.39-.59,3.22-4.9,6.24-10.07,9.93-14.63,.46-.56,.94-1.09,1.43-1.61-.83,3.13-2.44,6.01-4.24,8.7Zm2.97-10.09c-3.96,4.27-6.93,9.45-10.11,14.29l-3.44,5.24c-2,.82-3.97,1.64-5.88,2.66,8.38-10.85,16.14-22.15,23.82-33.5,4.04-5.97,8.07-11.95,12.16-17.89-3.05,7.27-5.18,14.93-7.25,22.6-3.44,1.66-6.65,3.73-9.29,6.59Zm13.55-8.43c-.7,.27-1.4,.56-2.09,.85,1.36-4.98,2.75-9.91,4.4-14.64,2.35-6.75,5.29-13.29,9.35-19.2,.03-.05,.04-.1,.06-.15,1.16-1.6,2.31-3.2,3.49-4.79,4.7-6.32,9.57-12.51,14.72-18.47,1.8-1.84,3.55-3.73,5.27-5.65-.3,1.93-.57,3.87-.79,5.82-.49,4.23-.83,8.51-.13,12.73v.16c-5.57,11.53-10.78,23.25-14.95,35.36-1.08,.55-2.16,1.09-3.26,1.6-5.24,2.45-10.68,4.29-16.07,6.37Zm14.04,19.53c1.12-6.64,2.72-13.18,4.67-19.62,.04-.05,.09-.11,.13-.16,.22-.26,.24-.53,.15-.76,.58-1.89,1.19-3.77,1.83-5.65,4.04-2.08,7.97-4.36,11.76-6.87,.09-.06,.16-.13,.22-.2-.09,1.5-.21,3-.34,4.49-1.11,2.65-2.25,5.28-3.46,7.89-3.29,7.1-6.95,14.03-10.95,20.76-1.69,2.85-3.43,5.65-5.11,8.47,.27-2.79,.63-5.57,1.1-8.34Zm-7.11,25.16c.14-.38,.27-.76,.41-1.14,.93-2.52,1.96-5.01,3.12-7.43,0,.25-.03,.5-.04,.76-.05,1.63-.07,3.29-.11,4.96-1.13,.94-2.26,1.89-3.37,2.85Zm4.64,5.7c.34-2.54,.48-5.12,.56-7.68,2.32-1.91,4.69-3.77,7.08-5.59-2.28,4.57-4.84,9-7.63,13.28Zm.63-10.12c.08-2.77,.2-5.52,.39-8.27,1.87-3.32,3.95-6.52,5.93-9.77,4.91-8.11,9.33-16.52,13.23-25.16-.09,.62-.17,1.25-.27,1.87-1.89,11.93-5.48,23.61-10.56,34.58-2.95,2.19-5.87,4.44-8.72,6.75Zm11.73-8.94c1.42-3.28,2.72-6.61,3.87-9.99,3.34-9.78,5.41-19.84,6.46-30.06,1.53-3.65,2.97-7.34,4.31-11.06,3-8.3,5.51-16.77,7.56-25.35,.04-.15,.03-.29,.01-.42,1.78-6.85,3.27-13.77,4.49-20.74,.21,1.6,.43,3.2,.67,4.79,.28,1.85,.6,3.7,.98,5.54-.61,4.26-.87,8.57-.65,12.94,.01,.25,.12,.44,.26,.6-.49,3.8-.98,7.6-1.46,11.41-2.04,10.82-4.9,21.48-8.57,31.87-2.93,8.29-6.36,16.41-10.29,24.27-.22,.45-.45,.89-.68,1.33-2.35,1.58-4.67,3.2-6.97,4.86Z"/></g><g><g><path class="d" d="M237.3,98.32c-1.84,0-3.5-.51-4.92-1.52-1.2-.85-1.87-1.53-3.71-4.86-.73-1.31-1.22-2.73-1.65-3.97-.16-.46-.31-.9-.47-1.32-1.81-4.76-2.32-9.73-1.53-14.78,.23-1.46,.5-2.87,1.36-4.16,1.5-2.26,4.22-3.6,7.27-3.6,.42,0,.85,.03,1.26,.08,3.98,.5,6.75,3.03,8.36,5.06,3.29,4.13,4.88,8.08,4.87,12.08,0,2.33-.39,4.05-.89,6.24l-.06,.26-.27,.9c-.56,1.89-1.2,4.02-2.14,5.66l-.06,.11c-.5,.88-1.44,2.53-4.07,3.31-1.16,.35-2.29,.52-3.35,.52h0Z"/><path class="e" d="M233.65,65.1c.38,0,.76,.02,1.14,.07,3.2,.4,5.81,2.31,7.7,4.69,2.04,2.56,4.66,6.59,4.65,11.45,0,2.31-.41,4.02-.92,6.28-.59,1.94-1.27,4.5-2.3,6.29-.45,.79-1.2,2.26-3.56,2.96-1.03,.31-2.06,.48-3.07,.48-1.54,0-3.02-.4-4.34-1.34-1.02-.72-1.61-1.27-3.41-4.53-.94-1.71-1.47-3.59-2.07-5.17-1.76-4.63-2.23-9.47-1.48-14.27,.2-1.31,.44-2.61,1.2-3.76,1.39-2.09,3.89-3.16,6.44-3.16m0-2c-3.39,0-6.41,1.51-8.1,4.05-.97,1.46-1.27,2.99-1.52,4.56-.82,5.22-.28,10.37,1.59,15.29,.16,.41,.31,.85,.46,1.29,.45,1.28,.95,2.74,1.72,4.13,1.83,3.3,2.6,4.19,4.01,5.19,1.59,1.13,3.44,1.7,5.49,1.7,1.17,0,2.39-.19,3.64-.56,3.02-.9,4.13-2.84,4.66-3.78l.06-.1c1-1.74,1.66-3.94,2.23-5.88,.08-.28,.17-.56,.25-.82l.02-.07,.02-.07,.06-.27c.48-2.15,.9-4.01,.91-6.44,0-4.23-1.66-8.39-5.09-12.7-1.73-2.18-4.7-4.88-9.02-5.43-.46-.06-.93-.09-1.39-.09h0Z"/></g><g><path class="d" d="M215.15,86.07c-1.63,0-3.33-.7-4.77-1.97-2.59-2.27-3.39-5.91-3.79-8.82-.53-3.85,1-6.75,4.22-7.94,1.2-.45,2.55-.68,3.91-.68,3.8,0,6.85,1.79,7.96,4.68,1.4,3.67-.07,8.07-1.91,10.97-.99,1.56-2.45,3.39-4.9,3.71-.24,.03-.48,.05-.72,.05Z"/><path class="e" d="M214.72,67.66c2.96,0,5.95,1.22,7.02,4.04,1.23,3.21-.04,7.27-1.82,10.07-.96,1.51-2.21,3-4.18,3.26-.2,.03-.39,.04-.59,.04-1.54,0-3.01-.75-4.11-1.72-2.3-2.02-3.06-5.33-3.46-8.21-.38-2.77,.36-5.67,3.58-6.86,1.09-.4,2.32-.62,3.57-.62m0-2c-1.48,0-2.95,.26-4.26,.74-3.64,1.35-5.46,4.72-4.86,9.01,.43,3.08,1.28,6.94,4.12,9.44,1.63,1.43,3.56,2.22,5.43,2.22,.28,0,.57-.02,.85-.05,2.9-.37,4.59-2.56,5.62-4.17,1.97-3.1,3.53-7.85,2-11.86-1.25-3.29-4.66-5.33-8.89-5.33h0Z"/></g><g><path class="d" d="M198.28,91.18c-.44,0-.89-.07-1.33-.21-1.7-.53-2.51-2-3.15-3.18l-.18-.33c-.81-1.45-1.58-2.92-2.3-4.37l-.2-.4c-1.13-2.27-2.54-5.09-1.18-7.91,.25-.52,.52-1.08,.95-1.6,1.13-1.38,2.76-2.24,4.34-3.01,1.16-.56,2.72-1.21,4.43-1.21,.34,0,.68,.03,1.01,.08,1.83,.28,3.21,1.15,4.08,2.57,2.23,3.63,.59,9.85-.84,14.21-.81,2.47-2.77,5.36-5.63,5.36h0Z"/><path class="e" d="M199.66,69.96c.28,0,.57,.02,.86,.06,6.96,1.06,3.74,11.53,2.44,15.48-.63,1.92-2.26,4.67-4.68,4.67-.33,0-.67-.05-1.03-.16-1.45-.45-2.1-1.87-2.76-3.04-.8-1.42-1.55-2.86-2.27-4.32-1.14-2.31-2.59-4.91-1.37-7.43,.23-.48,.47-.97,.82-1.4,1.02-1.24,2.55-2.03,4-2.74,1.26-.61,2.59-1.11,3.99-1.11m0-2c-1.91,0-3.61,.7-4.86,1.31-1.68,.81-3.42,1.74-4.68,3.27-.5,.61-.81,1.26-1.06,1.78-1.58,3.28,0,6.47,1.17,8.81l.2,.4c.73,1.47,1.51,2.95,2.32,4.41l.18,.32c.69,1.27,1.64,3,3.73,3.65,.54,.17,1.09,.25,1.63,.25,3.39,0,5.67-3.26,6.58-6.04,1.49-4.55,3.19-11.06,.75-15.04-1.02-1.67-2.68-2.72-4.79-3.04-.38-.06-.77-.09-1.16-.09h0Z"/></g><g><path class="d" d="M183.76,99.5c-1.5,0-2.77-.8-3.88-2.45-.62-.92-1.16-1.89-1.61-2.88-.48-1.07-.77-1.99-.92-2.89-.45-2.81-.6-4.92,.01-7.4,.24-.98,.97-3.95,3.72-4.8,.54-.17,1.15-.25,1.79-.25,1.14,0,2.44,.26,3.98,.8,3.45,1.21,5.03,4.01,4.56,8.1-.32,2.81-.92,6.04-2.88,8.68-1.47,1.98-2.96,2.98-4.55,3.07-.08,0-.16,0-.24,0h0Z"/><path class="e" d="M182.88,79.84c1.24,0,2.55,.36,3.65,.74,3.37,1.18,4.26,3.9,3.9,7.04-.32,2.83-.92,5.82-2.69,8.2-.87,1.18-2.18,2.58-3.8,2.67-.06,0-.12,0-.18,0-1.13,0-2.11-.61-3.05-2.01-.58-.87-1.1-1.78-1.52-2.73-.38-.84-.7-1.72-.84-2.64-.46-2.86-.55-4.78,0-7,.41-1.67,1.17-3.5,3.05-4.08,.48-.15,.98-.21,1.5-.21m0-2c-.74,0-1.45,.1-2.08,.3-3.29,1.02-4.13,4.4-4.4,5.51-.65,2.64-.5,4.86-.03,7.79,.16,.99,.48,1.98,.99,3.14,.47,1.04,1.03,2.05,1.69,3.03,1.29,1.92,2.87,2.89,4.71,2.89,.1,0,.2,0,.29,0,1.91-.11,3.64-1.24,5.3-3.47,2.12-2.85,2.75-6.39,3.07-9.16,.52-4.54-1.33-7.8-5.22-9.16-1.64-.58-3.05-.86-4.31-.86h0Z"/></g><g><path class="d" d="M169.09,111.01c-.92,0-1.65-.35-2.14-.59-1.81-.87-2.16-2.83-2.42-4.26l-.07-.38c-.68-3.6-.03-6.9,1.83-9.29,.56-.72,2.6-3.07,5.26-3.07,.95,0,1.83,.31,2.62,.91,2.07,1.59,3.78,5.07,3.82,7.76,.04,3.34-2.46,5.27-4.67,6.96l-.15,.12c-1.06,.82-2.39,1.84-4.08,1.84h0Z"/><path class="e" d="M171.55,94.42c.68,0,1.36,.21,2.01,.71,1.92,1.47,3.4,4.68,3.43,6.98,.04,2.91-2.24,4.59-4.43,6.28-1.04,.8-2.14,1.63-3.47,1.63h0c-.7,0-1.28-.28-1.72-.49-1.47-.71-1.66-2.54-1.92-3.92-.54-2.89-.26-6.05,1.64-8.49,1.04-1.33,2.74-2.69,4.47-2.69m0-2c-3.11,0-5.41,2.65-6.04,3.46-2.04,2.62-2.76,6.2-2.03,10.09l.07,.37c.26,1.46,.69,3.9,2.96,4.98,.55,.26,1.44,.69,2.58,.69,2.03,0,3.57-1.19,4.69-2.05l.15-.12c2.27-1.75,5.11-3.93,5.06-7.77-.04-3.01-1.89-6.76-4.21-8.54-.95-.73-2.07-1.12-3.23-1.12h0Z"/></g><g><path class="d" d="M214.8,239.1c-4.2,0-8.2-1.53-11.21-2.86-3.02-1.33-5.97-3.14-8.77-5.38-5.31-4.25-9.21-9.71-11.28-15.79-1.04-3.07-1.58-6.4-1.68-10.49-.46-8.75-1.94-13.67-4.62-22.61-.85-2.83-1.81-6.04-2.9-9.9-1.49-5.29-4.16-10.96-7.23-17.28-2.7-5.56-3.61-9.67-4.43-14.09-.59-3.15-.54-6.39-.5-9.53,0-.58,.02-1.16,.02-1.74,.01-1.46,.08-2.67,.21-3.79,.39-3.31,1.32-7.59,5.12-11.35,1.95-1.93,7.39-4.21,9.07-4.61,.5-.12,.98-.23,1.47-.33,1.55-.34,3.01-.66,4.42-1.31,1.92-.89,3.67-2.05,5.12-3.06,.52-.36,1.03-.73,1.55-1.1,3.18-2.26,6.46-4.6,10.46-5.9,2.08-.68,4.18-1.02,6.25-1.02,1.56,0,3.07,.2,4.49,.59,2.46,.37,4.76,1.08,6.98,1.77,.89,.28,1.78,.55,2.69,.81,1,.29,2.11,.41,3.58,.41,.65,0,1.31-.02,1.96-.05,.68-.02,1.36-.05,2.04-.05,1.23,0,2.23,.08,3.16,.25,4.95,.93,9.21,4.59,11.39,9.79,.26,.61,.49,1.25,.67,1.89,1.23,5.72-1.67,11.45-2.27,12.54-1.27,2.33-5.04,4.86-5.47,5.14-5.49,3.63-11,6.15-12.05,6.62-.26,.16-1.34,.84-1.34,.84l-.05,.02c-.36,.17-.85,.38-1.44,.63-5.11,2.12-17.08,7.1-18.3,23.34-1.16,15.56,3.22,18.14,8.23,19.53,3.88,.48,8.44,1.79,9.76,2.45,10.68,6.07,13.36,17.2,14.5,21.96l.04,.17c2.33,9.72,1.79,17.29-1.68,23.13-2.19,3.7-4.86,6.08-8.91,7.97-2.23,1.04-5.79,2.28-8.51,2.37-.19,0-.38,0-.57,0Z"/><path class="e" d="M205.88,97.96c1.45,0,2.89,.18,4.28,.57,3.36,.49,6.36,1.65,9.6,2.57,1.26,.36,2.55,.45,3.85,.45s2.67-.1,4.01-.1c1,0,1.99,.05,2.97,.24,5.23,.98,8.9,5.01,10.66,9.19,.25,.58,.46,1.18,.64,1.78,.99,4.66-1.03,9.66-2.18,11.78-.91,1.68-3.55,3.74-5.14,4.79-5.9,3.89-11.92,6.55-11.93,6.56-.47,.28-.93,.57-1.4,.86-3.32,1.62-18.89,6-20.3,24.79-1.13,15.2,2.82,18.88,9.03,20.59,3.74,.46,8.25,1.73,9.51,2.36,10.39,5.9,12.91,16.87,14.01,21.47,1.75,7.26,2.44,15.64-1.57,22.39-2.14,3.61-4.66,5.8-8.48,7.58-2.19,1.02-5.58,2.19-8.12,2.28-.18,0-.36,0-.53,0-3.78,0-7.48-1.3-10.8-2.77-3.12-1.38-5.97-3.18-8.55-5.25-5.15-4.12-8.98-9.5-10.96-15.33-1.13-3.33-1.54-6.75-1.63-10.19-.61-11.71-3.03-16.71-7.55-32.75-1.49-5.29-4.13-10.94-7.29-17.45-2.76-5.68-3.62-9.92-4.35-13.84-.68-3.62-.49-7.36-.46-11.07,0-1.25,.06-2.46,.2-3.69,.46-3.97,1.59-7.55,4.83-10.76,1.77-1.76,7.01-3.97,8.6-4.35,2.12-.51,4.11-.8,6.08-1.71,1.9-.88,3.61-1.99,5.28-3.15,3.67-2.57,7.26-5.41,11.74-6.87,1.92-.62,3.93-.97,5.94-.97m0-2h0c-2.17,0-4.38,.36-6.55,1.07-4.14,1.35-7.49,3.73-10.73,6.04-.51,.37-1.03,.73-1.54,1.09-1.42,.99-3.12,2.12-4.97,2.98-1.32,.61-2.73,.92-4.22,1.24-.49,.11-.99,.22-1.49,.34-1.81,.43-7.43,2.79-9.54,4.87-4.02,3.99-5,8.48-5.41,11.95-.14,1.16-.2,2.4-.22,3.9,0,.57-.01,1.15-.02,1.73-.05,3.19-.09,6.48,.51,9.73,.84,4.49,1.76,8.67,4.52,14.34,3.05,6.28,5.69,11.91,7.16,17.12,1.09,3.86,2.05,7.08,2.9,9.91,2.66,8.85,4.12,13.73,4.58,22.37,.11,4.17,.66,7.59,1.73,10.76,2.13,6.26,6.14,11.88,11.6,16.25,2.86,2.29,5.89,4.14,8.99,5.51,3.1,1.37,7.23,2.94,11.61,2.94,.2,0,.4,0,.6,0,2.87-.09,6.48-1.34,8.9-2.46,4.25-1.98,7.05-4.49,9.35-8.37,3.61-6.08,4.19-13.89,1.79-23.88l-.04-.17c-1.17-4.88-3.92-16.31-14.93-22.57l-.05-.03-.05-.02c-1.6-.8-6.28-2.07-10.01-2.54-4.74-1.32-8.53-3.72-7.43-18.47,1.17-15.63,12.74-20.44,17.68-22.49,.61-.26,1.1-.46,1.5-.65l.09-.04,.09-.05,.38-.23c.3-.19,.6-.37,.9-.55,1.29-.59,6.72-3.11,12.1-6.66,.73-.48,4.44-3.01,5.79-5.5,.62-1.14,3.66-7.16,2.38-13.15l-.02-.08-.02-.07c-.2-.68-.44-1.34-.71-1.99-2.32-5.51-6.86-9.39-12.13-10.38-.99-.19-2.05-.27-3.34-.27-.71,0-1.4,.02-2.08,.05-.67,.02-1.3,.05-1.93,.05-1.37,0-2.39-.12-3.3-.37-.89-.25-1.79-.53-2.66-.81-2.24-.7-4.56-1.42-7.07-1.8-1.49-.4-3.07-.61-4.69-.61h0Z"/></g></g></g><g><path class="f" d="M363.22,94.48h6.86l.88,6.2h.15c2.7-5.04,7.59-6.64,11.17-6.64,1.09,0,1.97,.07,2.77,.22v8.18c-.95-.22-1.97-.29-2.99-.29-5.11,0-10.22,3.07-10.22,10.73v21.46h-8.61v-39.86Z"/><path class="f" d="M388.4,114.55c0-12.78,8.91-21.02,19.56-21.02,9.64,0,17.59,6.93,17.59,20.15,0,1.24-.07,2.34-.22,3.36h-28.69c1.24,7.01,6.57,11.1,13.58,11.1,4.53,0,8.98-1.61,12.99-4.75v7.74c-4.09,2.77-8.76,4.16-13.87,4.16-13.07,0-20.95-8.47-20.95-20.73Zm28.98-3.29c-.22-7.08-4.53-10.58-9.49-10.58-5.4,0-10.22,4.01-11.24,10.58h20.73Z"/><path class="f" d="M463.59,101.05l.95-6.57h7.15v35.91c0,13.14-9.27,20.22-20.66,20.22-5.4,0-10.8-1.82-14.96-4.82v-8.69c4.09,3.58,9.34,5.77,14.38,5.77,7.08,0,12.63-4.53,12.63-11.32v-5.11c-2.7,4.31-7.52,7.15-13.14,7.15-9.34,0-17.88-8.03-17.88-20s8.69-20,18.03-20c5.62,0,10.73,2.92,13.5,7.45Zm-11.61,24.82c6.42,0,11.31-5.33,11.31-12.41s-4.89-12.04-11.31-12.04-11.32,5.33-11.32,12.26,4.89,12.19,11.32,12.19Z"/><path class="f" d="M480.6,114.55c0-12.78,8.91-21.02,19.56-21.02,9.64,0,17.59,6.93,17.59,20.15,0,1.24-.07,2.34-.22,3.36h-28.69c1.24,7.01,6.57,11.1,13.58,11.1,4.53,0,8.98-1.61,12.99-4.75v7.74c-4.09,2.77-8.76,4.16-13.87,4.16-13.07,0-20.95-8.47-20.95-20.73Zm28.98-3.29c-.22-7.08-4.53-10.58-9.49-10.58-5.4,0-10.22,4.01-11.24,10.58h20.73Z"/><path class="f" d="M560.68,107.84v26.5h-8.61v-23.72c0-6.13-2.77-9.05-8.1-9.05-4.96,0-8.76,3.65-8.76,8.69v24.09h-8.61v-39.86h6.64l.95,5.91h.22c2.26-3.72,6.57-6.86,12.12-6.86,8.69,0,14.16,5.55,14.16,14.31Z"/><path class="f" d="M569.22,114.55c0-12.78,8.91-21.02,19.56-21.02,9.64,0,17.59,6.93,17.59,20.15,0,1.24-.07,2.34-.22,3.36h-28.69c1.24,7.01,6.57,11.1,13.58,11.1,4.53,0,8.98-1.61,12.99-4.75v7.74c-4.09,2.77-8.76,4.16-13.87,4.16-13.07,0-20.95-8.47-20.95-20.73Zm28.98-3.29c-.22-7.08-4.53-10.58-9.49-10.58-5.4,0-10.22,4.01-11.24,10.58h20.73Z"/><path class="f" d="M615.21,94.48h6.86l.88,6.2h.15c2.7-5.04,7.59-6.64,11.17-6.64,1.09,0,1.97,.07,2.77,.22v8.18c-.95-.22-1.97-.29-2.99-.29-5.11,0-10.22,3.07-10.22,10.73v21.46h-8.61v-39.86Z"/><path class="f" d="M640.4,114.48c0-12.7,8.76-20.95,17.88-20.95,5.84,0,10.95,2.92,13.8,7.81l.95-6.86h7.15v39.86h-7.15l-.95-6.86c-2.85,4.89-7.96,7.81-13.8,7.81-9.12,0-17.88-8.25-17.88-20.8Zm20.07,12.92c6.35,0,11.31-5.33,11.31-12.99s-4.96-12.99-11.31-12.99-11.46,5.4-11.46,12.99,4.96,12.99,11.46,12.99Z"/><path class="f" d="M701.86,94.48h11.02v7.3h-11.02v17.67c0,5.69,3.5,8.03,8.32,8.03,1.1,0,2.26-.15,3.58-.36v7.37c-1.09,.22-2.92,.51-5.33,.51-9.42,0-15.04-5.62-15.04-15.11v-18.1h-5.84v-7.3h5.99v-9.27h8.32v9.27Z"/><path class="f" d="M725.73,76.89c2.85,0,5.04,2.12,5.04,4.96s-2.19,4.89-5.04,4.89-5.04-2.12-5.04-4.89,2.19-4.96,5.04-4.96Zm-4.31,17.59h8.61v39.86h-8.61v-39.86Z"/><path class="f" d="M739.09,114.55c0-12.78,8.91-21.02,19.56-21.02,9.64,0,17.59,6.93,17.59,20.15,0,1.24-.07,2.34-.22,3.36h-28.69c1.24,7.01,6.57,11.1,13.58,11.1,4.53,0,8.98-1.61,12.99-4.75v7.74c-4.09,2.77-8.76,4.16-13.87,4.16-13.07,0-20.95-8.47-20.95-20.73Zm28.98-3.29c-.22-7.08-4.53-10.58-9.49-10.58-5.4,0-10.22,4.01-11.24,10.58h20.73Z"/><path class="f" d="M382.2,204.4c3.21,0,7.01-.66,10.37-3.14v8.25c-3.07,1.75-7.01,2.77-11.31,2.77-11.61,0-20.44-8.91-20.44-20.95s8.83-20.8,20.44-20.8c4.09,0,8.03,.8,11.31,2.85v8.32c-3.36-2.34-6.57-3.28-10.44-3.28-6.64,0-12.63,4.96-12.63,12.99s5.99,12.99,12.7,12.99Z"/><path class="f" d="M398.77,191.41c0-12.12,8.83-20.88,20.29-20.88s20.22,8.76,20.22,20.88-8.69,20.88-20.22,20.88-20.29-8.76-20.29-20.88Zm20.29,12.99c5.91,0,11.53-4.75,11.53-12.99s-5.62-12.99-11.53-12.99-11.61,4.75-11.61,12.99,5.69,12.99,11.61,12.99Z"/><path class="f" d="M445.71,191.41c0-12.12,8.83-20.88,20.29-20.88s20.22,8.76,20.22,20.88-8.69,20.88-20.22,20.88-20.29-8.76-20.29-20.88Zm12.48-35.77c2.48,0,4.53,2.04,4.53,4.45s-2.04,4.45-4.53,4.45-4.53-1.97-4.53-4.45,2.04-4.45,4.53-4.45Zm7.81,48.76c5.91,0,11.53-4.75,11.53-12.99s-5.62-12.99-11.53-12.99-11.61,4.75-11.61,12.99,5.69,12.99,11.61,12.99Zm7.88-48.76c2.56,0,4.53,2.04,4.53,4.45s-1.97,4.45-4.53,4.45-4.53-1.97-4.53-4.45,1.97-4.45,4.53-4.45Z"/><path class="f" d="M495.05,171.48h7.15l.95,6.86c2.85-4.89,7.96-7.81,13.65-7.81,9.42,0,18.1,8.18,18.1,20.88s-8.54,20.88-17.88,20.88c-5.4,0-10.73-2.85-13.36-7.45v21.83h-8.61v-55.19Zm19.71,32.92c6.5,0,11.46-5.33,11.46-13.07s-4.96-12.92-11.39-12.92-11.31,5.33-11.31,12.99,4.89,12.99,11.24,12.99Z"/><path class="f" d="M541.48,191.55c0-12.78,8.91-21.02,19.56-21.02,9.64,0,17.59,6.93,17.59,20.15,0,1.24-.07,2.34-.22,3.36h-28.69c1.24,7.01,6.57,11.1,13.58,11.1,4.53,0,8.98-1.61,12.99-4.75v7.74c-4.09,2.77-8.76,4.16-13.87,4.16-13.07,0-20.95-8.47-20.95-20.73Zm28.98-3.29c-.22-7.08-4.53-10.58-9.49-10.58-5.4,0-10.22,4.01-11.24,10.58h20.73Z"/><path class="f" d="M587.47,171.48h6.86l.88,6.2h.15c2.7-5.04,7.59-6.64,11.17-6.64,1.09,0,1.97,.07,2.77,.22v8.18c-.95-.22-1.97-.29-2.99-.29-5.11,0-10.22,3.07-10.22,10.73v21.46h-8.61v-39.86Z"/><path class="f" d="M612.66,191.48c0-12.7,8.76-20.95,17.88-20.95,5.84,0,10.95,2.92,13.8,7.81l.95-6.86h7.15v39.86h-7.15l-.95-6.86c-2.85,4.89-7.96,7.81-13.8,7.81-9.12,0-17.88-8.25-17.88-20.8Zm20.07,12.92c6.35,0,11.31-5.33,11.31-12.99s-4.96-12.99-11.31-12.99-11.46,5.4-11.46,12.99,4.96,12.99,11.46,12.99Z"/><path class="f" d="M674.12,171.48h11.02v7.3h-11.02v17.67c0,5.69,3.5,8.03,8.32,8.03,1.09,0,2.26-.15,3.58-.36v7.37c-1.09,.22-2.92,.51-5.33,.51-9.42,0-15.04-5.62-15.04-15.11v-18.1h-5.84v-7.3h5.99v-9.27h8.32v9.27Z"/><path class="f" d="M697.99,153.89c2.85,0,5.04,2.12,5.04,4.96s-2.19,4.89-5.04,4.89-5.04-2.12-5.04-4.89,2.19-4.96,5.04-4.96Zm-4.31,17.59h8.61v39.86h-8.61v-39.86Z"/><path class="f" d="M711.35,191.55c0-12.78,8.91-21.02,19.56-21.02,9.64,0,17.59,6.93,17.59,20.15,0,1.24-.07,2.34-.22,3.36h-28.69c1.24,7.01,6.57,11.1,13.58,11.1,4.53,0,8.98-1.61,12.99-4.75v7.74c-4.09,2.77-8.76,4.16-13.87,4.16-13.07,0-20.95-8.47-20.95-20.73Zm28.98-3.29c-.22-7.08-4.53-10.58-9.49-10.58-5.4,0-10.22,4.01-11.24,10.58h20.73Z"/></g></svg>