<svg width="148" height="57" viewBox="0 0 148 57" fill="none" xmlns="http://www.w3.org/2000/svg">
<path d="M69.0836 17.249C72.0162 17.249 73.6485 15.672 73.6485 13.1729C73.6485 8.31283 67.1838 9.5947 67.1838 6.43154C67.1838 5.20501 68.1614 4.54102 69.5723 4.54102C70.6052 4.54102 71.5643 4.91912 72.4127 5.59233L73.4271 4.09836C72.1268 3.13005 71.0017 2.77961 69.6553 2.77961C67.1285 2.77961 65.2841 4.19058 65.2841 6.60676C65.2841 11.1717 71.7395 10.065 71.7395 13.2743C71.7395 14.5654 70.8265 15.4876 69.1758 15.4876C67.5527 15.4876 66.5198 14.5838 65.6714 13.5694L64.4633 14.8328C65.7636 16.5481 67.2853 17.249 69.0836 17.249ZM79.5141 17.2213C81.1832 17.2213 82.6034 16.3913 83.5256 15.0634L82.0225 14.1596C81.3769 14.9435 80.6299 15.506 79.5141 15.506C77.8541 15.506 76.5999 14.1781 76.5999 12.5365C76.5999 10.895 77.8541 9.56703 79.5141 9.56703C80.6299 9.56703 81.3769 10.1296 82.004 10.9135L83.5072 10.0097C82.6034 8.68172 81.1832 7.85173 79.5141 7.85173C76.8766 7.85173 74.7831 9.95436 74.7831 12.5365C74.7831 15.1187 76.8766 17.2213 79.5141 17.2213ZM89.05 9.57625C90.4702 9.57625 91.2818 10.4062 91.2818 12.1123V17H93.0801V11.9555C93.0801 8.95838 91.374 7.86095 89.4373 7.86095C88.1186 7.86095 87.2148 8.36817 86.6707 9.12437V3.01938H84.8724V17H86.6707V12.3244C86.6707 10.4339 87.5284 9.57625 89.05 9.57625ZM99.3053 17.2213C101.97 17.2213 104.036 15.091 104.036 12.5365C104.036 9.95436 101.97 7.86095 99.3053 7.86095C96.6401 7.86095 94.5744 9.95436 94.5744 12.5365C94.5744 15.091 96.6401 17.2213 99.3053 17.2213ZM96.3911 12.5365C96.3911 10.9319 97.6177 9.57625 99.3053 9.57625C100.993 9.57625 102.219 10.9319 102.219 12.5365C102.219 14.1412 101.002 15.506 99.3053 15.506C97.6084 15.506 96.3911 14.1412 96.3911 12.5365ZM109.736 17.2213C112.401 17.2213 114.467 15.091 114.467 12.5365C114.467 9.95436 112.401 7.86095 109.736 7.86095C107.071 7.86095 105.005 9.95436 105.005 12.5365C105.005 15.091 107.071 17.2213 109.736 17.2213ZM106.822 12.5365C106.822 10.9319 108.048 9.57625 109.736 9.57625C111.423 9.57625 112.65 10.9319 112.65 12.5365C112.65 14.1412 111.433 15.506 109.736 15.506C108.039 15.506 106.822 14.1412 106.822 12.5365ZM118.488 17.2121C118.875 17.2121 119.189 17.1383 119.484 17.0461V15.4507C119.29 15.506 119.097 15.5153 118.949 15.5153C118.054 15.5153 117.842 15.0726 117.842 14.2057V3.01938H116.044V14.6023C116.044 16.2069 116.782 17.2121 118.488 17.2121ZM69.2864 34.2213C71.9516 34.2213 74.0174 32.091 74.0174 29.5365C74.0174 26.9544 71.9516 24.861 69.2864 24.861C66.6213 24.861 64.5555 26.9544 64.5555 29.5365C64.5555 32.091 66.6213 34.2213 69.2864 34.2213ZM66.3723 29.5365C66.3723 27.9319 67.5988 26.5763 69.2864 26.5763C70.9741 26.5763 72.2006 27.9319 72.2006 29.5365C72.2006 31.1412 70.9833 32.506 69.2864 32.506C67.5896 32.506 66.3723 31.1412 66.3723 29.5365ZM75.9728 22.9151V25.027H74.6448V26.7423H75.9728V34H77.7526V26.7423H80.0766V25.027H77.7526V23.1272C77.7526 21.8546 78.2875 21.5502 79.1544 21.5502C79.5878 21.5502 80.1688 21.6332 80.261 21.6793V20.0747C79.8461 19.9733 79.3757 19.8626 78.7025 19.8626C76.9411 19.8626 75.9728 20.8586 75.9728 22.9151ZM89.6037 34.249C92.5363 34.249 94.1686 32.672 94.1686 30.1729C94.1686 25.3128 87.704 26.5947 87.704 23.4315C87.704 22.205 88.6815 21.541 90.0925 21.541C91.1253 21.541 92.0844 21.9191 92.9329 22.5923L93.9473 21.0984C92.647 20.13 91.5219 19.7796 90.1755 19.7796C87.6486 19.7796 85.8042 21.1906 85.8042 23.6068C85.8042 28.1717 92.2597 27.065 92.2597 30.2743C92.2597 31.5654 91.3467 32.4876 89.6959 32.4876C88.0729 32.4876 87.04 31.5838 86.1916 30.5694L84.9835 31.8328C86.2838 33.5481 87.8054 34.249 89.6037 34.249ZM101.768 25.027L99.0382 31.8328L96.3177 25.027H94.3719L98.1437 34.1383L96.2255 38.777H98.0238L103.723 25.027H101.768ZM107.338 34.2213C109.524 34.2213 110.677 33.0778 110.677 31.5285C110.677 28.2639 106.047 29.1308 106.047 27.397C106.047 26.9082 106.398 26.4933 107.403 26.4933C108.298 26.4933 109.017 26.7238 109.727 27.2218L110.668 25.9307C109.856 25.2391 108.749 24.861 107.394 24.861C105.411 24.861 104.295 26.0229 104.295 27.5353C104.295 30.8 108.952 29.7671 108.952 31.5838C108.952 32.1095 108.519 32.589 107.458 32.589C106.638 32.589 105.706 32.2109 104.83 31.6023L103.88 32.9671C104.775 33.668 105.789 34.2213 107.338 34.2213ZM112.872 22.0575V25.027H111.452V26.7423H112.872V31.3164C112.872 33.0778 113.73 34.1107 115.399 34.1107C116.118 34.1107 116.496 34 116.994 33.8432V32.2294C116.902 32.2663 116.413 32.3585 115.86 32.3585C114.938 32.3585 114.661 31.8513 114.661 30.9752V26.7423H117.216V25.027H114.661V22.0575H112.872ZM122.426 34.2213C124.16 34.2213 125.322 33.4651 126.161 32.3861L124.926 31.4178C124.234 32.1556 123.533 32.5982 122.38 32.5982C120.757 32.5982 119.66 31.5562 119.42 30.1083H126.733C126.742 29.9146 126.761 29.6841 126.761 29.5365C126.761 26.8898 124.953 24.861 122.196 24.861C119.568 24.861 117.649 27.0189 117.649 29.5089C117.649 31.9896 119.429 34.2213 122.426 34.2213ZM119.457 28.7527C119.752 27.3694 120.868 26.4933 122.233 26.4933C123.764 26.4933 124.769 27.3878 124.953 28.7527H119.457ZM138.602 24.861C137.025 24.861 136.02 25.7278 135.494 26.5578C134.923 25.3128 133.825 24.861 132.682 24.861C131.492 24.861 130.625 25.3682 130.09 26.0875V25.027H128.292V34H130.09V29.3244C130.09 27.4339 130.957 26.5763 132.304 26.5763C133.512 26.5763 134.222 27.2587 134.222 29.0478V34H136.011V29.3244C136.011 27.4339 136.878 26.5763 138.233 26.5763C139.432 26.5763 140.152 27.2587 140.152 29.0478V34H141.941V28.8357C141.941 25.8293 140.299 24.861 138.602 24.861ZM71.9516 51.249C73.9436 51.249 75.6865 50.4375 76.9868 49.1925L75.8249 47.8645C74.8658 48.6853 73.5101 49.4876 71.9516 49.4876C68.9268 49.4876 66.5844 47.0161 66.5844 44.0374C66.5844 41.0863 68.8714 38.541 71.9424 38.541C73.5562 38.541 74.9119 39.2142 75.9448 40.3024L77.1805 38.9745C75.8618 37.6188 74.1003 36.7796 71.9516 36.7796C67.8017 36.7796 64.657 40.0442 64.657 44.0281C64.657 48.0858 67.9031 51.249 71.9516 51.249ZM82.5666 43.5763C83.9867 43.5763 84.7983 44.4062 84.7983 46.1123V51H86.5966V45.9555C86.5966 42.9584 84.8905 41.861 82.9539 41.861C81.6351 41.861 80.7314 42.3682 80.1873 43.1244V37.0194H78.389V51H80.1873V46.3244C80.1873 44.4339 81.0449 43.5763 82.5666 43.5763ZM88.0909 46.5089C88.0909 49.1279 90.2304 51.166 92.7019 51.166C93.9285 51.166 94.9982 50.668 95.7452 49.8657V51H97.5343V42.027H95.7452V43.1613C94.9982 42.3589 93.9285 41.861 92.7019 41.861C90.2304 41.861 88.0909 43.8806 88.0909 46.5089ZM89.9077 46.5089C89.9077 44.8766 91.2264 43.5486 92.8126 43.5486C94.4541 43.5486 95.7452 44.8673 95.7452 46.5089C95.7452 48.1596 94.4541 49.4784 92.8126 49.4784C91.2264 49.4784 89.9077 48.1504 89.9077 46.5089ZM103.962 43.5763C105.383 43.5763 106.194 44.4062 106.194 46.1123V51H107.992V45.9555C107.992 42.9584 106.286 41.861 104.35 41.861C103.031 41.861 102.127 42.3682 101.583 43.0875V42.027H99.7848V51H101.583V46.3244C101.583 44.4339 102.441 43.5763 103.962 43.5763ZM114.31 55.9707C116.256 55.9707 118.93 55.0208 118.93 50.9447V42.027H117.141V43.1613C116.394 42.3589 115.324 41.861 114.098 41.861C111.626 41.861 109.487 43.8806 109.487 46.5089C109.487 49.1279 111.626 51.166 114.098 51.166C115.352 51.166 116.431 50.6311 117.141 49.7735V51.2674C117.141 53.3332 115.905 54.2462 114.31 54.2462C113.12 54.2462 112.281 53.7666 111.755 53.0196L110.114 53.7389C110.925 55.0761 112.383 55.9707 114.31 55.9707ZM111.304 46.5089C111.304 44.8766 112.622 43.5486 114.208 43.5486C115.85 43.5486 117.141 44.8673 117.141 46.5089C117.141 48.1596 115.85 49.4784 114.208 49.4784C112.622 49.4784 111.304 48.1504 111.304 46.5089ZM125.303 51.2213C127.037 51.2213 128.199 50.4651 129.038 49.3861L127.802 48.4178C127.111 49.1556 126.41 49.5982 125.257 49.5982C123.634 49.5982 122.536 48.5562 122.297 47.1083H129.61C129.619 46.9146 129.637 46.6841 129.637 46.5365C129.637 43.8898 127.83 41.861 125.072 41.861C122.444 41.861 120.526 44.0189 120.526 46.5089C120.526 48.9896 122.306 51.2213 125.303 51.2213ZM122.333 45.7527C122.629 44.3694 123.744 43.4933 125.109 43.4933C126.64 43.4933 127.645 44.3878 127.83 45.7527H122.333Z" fill="#1E2A55"/>
<path d="M72.4127 5.59233L72.3687 5.64775L72.4284 5.69511L72.4712 5.63207L72.4127 5.59233ZM73.4271 4.09836L73.4857 4.1381L73.5237 4.08207L73.4694 4.04163L73.4271 4.09836ZM65.6714 13.5694L65.7257 13.524L65.6749 13.4634L65.6203 13.5205L65.6714 13.5694ZM64.4633 14.8328L64.4122 14.7839L64.3705 14.8275L64.4069 14.8756L64.4633 14.8328ZM69.0836 17.3197C70.5621 17.3197 71.7222 16.9221 72.5134 16.2004C73.3054 15.4779 73.7192 14.4384 73.7192 13.1729H73.5777C73.5777 14.4065 73.1754 15.4051 72.4181 16.0959C71.66 16.7874 70.5377 17.1783 69.0836 17.1783V17.3197ZM73.7192 13.1729C73.7192 11.9397 73.3082 11.0906 72.6887 10.4643C72.072 9.84092 71.2526 9.44227 70.4437 9.10071C69.6294 8.75686 68.8318 8.47268 68.2329 8.07687C67.6396 7.6847 67.2546 7.19117 67.2546 6.43154H67.1131C67.1131 7.25348 67.5361 7.78591 68.1549 8.1949C68.7682 8.60026 69.5868 8.89245 70.3886 9.23104C71.1959 9.57191 71.9926 9.96174 72.5881 10.5638C73.1807 11.1629 73.5777 11.976 73.5777 13.1729H73.7192ZM67.2546 6.43154C67.2546 5.83936 67.4894 5.388 67.8917 5.08268C68.2964 4.77553 68.8768 4.61176 69.5723 4.61176V4.47028C68.8568 4.47028 68.243 4.6385 67.8062 4.96998C67.367 5.30328 67.1131 5.79719 67.1131 6.43154H67.2546ZM69.5723 4.61176C70.5869 4.61176 71.5308 4.98289 72.3687 5.64775L72.4567 5.53692C71.5977 4.85536 70.6235 4.47028 69.5723 4.47028V4.61176ZM72.4712 5.63207L73.4857 4.1381L73.3686 4.05862L72.3542 5.55259L72.4712 5.63207ZM73.4694 4.04163C72.1576 3.06473 71.0178 2.70887 69.6553 2.70887V2.85035C70.9857 2.85035 72.0961 3.19537 73.3849 4.1551L73.4694 4.04163ZM69.6553 2.70887C68.3793 2.70887 67.2691 3.06514 66.4765 3.73302C65.6827 4.40205 65.2133 5.37913 65.2133 6.60676H65.3548C65.3548 5.41821 65.8077 4.48171 66.5677 3.84121C67.3291 3.19957 68.4045 2.85035 69.6553 2.85035V2.70887ZM65.2133 6.60676C65.2133 7.76752 65.6248 8.57245 66.2434 9.1738C66.8588 9.77206 67.6767 10.1662 68.4838 10.5139C69.296 10.8637 70.093 11.165 70.6906 11.5787C71.2833 11.9889 71.6688 12.5022 71.6688 13.2743H71.8102C71.8102 12.4418 71.3888 11.8899 70.7711 11.4624C70.1583 11.0382 69.3414 10.7292 68.5398 10.3839C67.733 10.0365 66.937 9.65077 66.342 9.07236C65.7502 8.49703 65.3548 7.72845 65.3548 6.60676H65.2133ZM71.6688 13.2743C71.6688 13.9024 71.4472 14.4357 71.0293 14.8126C70.6108 15.19 69.9883 15.4168 69.1758 15.4168V15.5583C70.014 15.5583 70.6734 15.324 71.124 14.9176C71.5753 14.5106 71.8102 13.9373 71.8102 13.2743H71.6688ZM69.1758 15.4168C67.5845 15.4168 66.5696 14.5331 65.7257 13.524L65.6171 13.6148C66.47 14.6346 67.5209 15.5583 69.1758 15.5583V15.4168ZM65.6203 13.5205L64.4122 14.7839L64.5144 14.8817L65.7225 13.6183L65.6203 13.5205ZM64.4069 14.8756C65.7201 16.6078 67.2622 17.3197 69.0836 17.3197V17.1783C67.3083 17.1783 65.8072 16.4885 64.5197 14.7901L64.4069 14.8756ZM83.5256 15.0634L83.5837 15.1037L83.6268 15.0417L83.5621 15.0027L83.5256 15.0634ZM82.0225 14.1596L82.0589 14.099L82.0066 14.0676L81.9678 14.1146L82.0225 14.1596ZM82.004 10.9135L81.9488 10.9576L81.9874 11.006L82.0405 10.9741L82.004 10.9135ZM83.5072 10.0097L83.5437 10.0703L83.6078 10.0318L83.5657 9.96989L83.5072 10.0097ZM79.5141 17.2921C81.2086 17.2921 82.6496 16.4489 83.5837 15.1037L83.4675 15.023C82.5573 16.3338 81.1579 17.1506 79.5141 17.1506V17.2921ZM83.5621 15.0027L82.0589 14.099L81.986 14.2202L83.4892 15.124L83.5621 15.0027ZM81.9678 14.1146C81.3293 14.8901 80.6004 15.4353 79.5141 15.4353V15.5768C80.6595 15.5768 81.4246 14.9969 82.0771 14.2046L81.9678 14.1146ZM79.5141 15.4353C77.8952 15.4353 76.6706 14.141 76.6706 12.5365H76.5292C76.5292 14.2151 77.813 15.5768 79.5141 15.5768V15.4353ZM76.6706 12.5365C76.6706 10.932 77.8952 9.63777 79.5141 9.63777V9.49629C77.813 9.49629 76.5292 10.858 76.5292 12.5365H76.6706ZM79.5141 9.63777C80.6004 9.63777 81.3291 10.183 81.9488 10.9576L82.0592 10.8693C81.4248 10.0761 80.6595 9.49629 79.5141 9.49629V9.63777ZM82.0405 10.9741L83.5437 10.0703L83.4708 9.94907L81.9676 10.8528L82.0405 10.9741ZM83.5657 9.96989C82.6498 8.62415 81.2085 7.78099 79.5141 7.78099V7.92247C81.158 7.92247 82.5571 8.73928 83.4487 10.0495L83.5657 9.96989ZM79.5141 7.78099C76.8378 7.78099 74.7124 9.91493 74.7124 12.5365H74.8539C74.8539 9.99379 76.9153 7.92247 79.5141 7.92247V7.78099ZM74.7124 12.5365C74.7124 15.1581 76.8378 17.2921 79.5141 17.2921V17.1506C76.9153 17.1506 74.8539 15.0793 74.8539 12.5365H74.7124ZM91.2818 17H91.211V17.0707H91.2818V17ZM93.0801 17V17.0707H93.1508V17H93.0801ZM86.6707 9.12437H86.6V9.34381L86.7282 9.16569L86.6707 9.12437ZM86.6707 3.01938H86.7415V2.94864H86.6707V3.01938ZM84.8724 3.01938V2.94864H84.8017V3.01938H84.8724ZM84.8724 17H84.8017V17.0707H84.8724V17ZM86.6707 17V17.0707H86.7415V17H86.6707ZM89.05 9.64699C89.7462 9.64699 90.2826 9.85002 90.646 10.2519C91.0105 10.6551 91.211 11.2694 91.211 12.1123H91.3525C91.3525 11.2492 91.1473 10.5954 90.7509 10.1571C90.3535 9.71748 89.774 9.50552 89.05 9.50552V9.64699ZM91.211 12.1123V17H91.3525V12.1123H91.211ZM91.2818 17.0707H93.0801V16.9293H91.2818V17.0707ZM93.1508 17V11.9555H93.0093V17H93.1508ZM93.1508 11.9555C93.1508 10.4435 92.7201 9.39937 92.0342 8.73355C91.3489 8.0683 90.4184 7.79022 89.4373 7.79022V7.93169C90.3929 7.93169 91.2838 8.20232 91.9357 8.83507C92.5869 9.46726 93.0093 10.4704 93.0093 11.9555H93.1508ZM89.4373 7.79022C88.0984 7.79022 87.1722 8.30636 86.6133 9.08306L86.7282 9.16569C87.2575 8.42998 88.1387 7.93169 89.4373 7.93169V7.79022ZM86.7415 9.12437V3.01938H86.6V9.12437H86.7415ZM86.6707 2.94864H84.8724V3.09012H86.6707V2.94864ZM84.8017 3.01938V17H84.9432V3.01938H84.8017ZM84.8724 17.0707H86.6707V16.9293H84.8724V17.0707ZM86.7415 17V12.3244H86.6V17H86.7415ZM86.7415 12.3244C86.7415 11.3885 86.9539 10.7214 87.3424 10.2886C87.7296 9.85731 88.3024 9.64699 89.05 9.64699V9.50552C88.276 9.50552 87.6591 9.72402 87.2371 10.1941C86.8164 10.6628 86.6 11.3699 86.6 12.3244H86.7415ZM99.3053 17.2921C102.01 17.2921 104.107 15.1299 104.107 12.5365H103.965C103.965 15.0521 101.931 17.1506 99.3053 17.1506V17.2921ZM104.107 12.5365C104.107 9.91502 102.009 7.79022 99.3053 7.79022V7.93169C101.932 7.93169 103.965 9.9937 103.965 12.5365H104.107ZM99.3053 7.79022C96.6013 7.79022 94.5037 9.91502 94.5037 12.5365H94.6451C94.6451 9.9937 96.6789 7.93169 99.3053 7.93169V7.79022ZM94.5037 12.5365C94.5037 15.1299 96.6009 17.2921 99.3053 17.2921V17.1506C96.6794 17.1506 94.6451 15.0521 94.6451 12.5365H94.5037ZM96.4619 12.5365C96.4619 10.9682 97.6595 9.64699 99.3053 9.64699V9.50552C97.5759 9.50552 96.3204 10.8956 96.3204 12.5365H96.4619ZM99.3053 9.64699C100.951 9.64699 102.149 10.9682 102.149 12.5365H102.29C102.29 10.8956 101.035 9.50552 99.3053 9.50552V9.64699ZM102.149 12.5365C102.149 14.1053 100.96 15.4353 99.3053 15.4353V15.5768C101.044 15.5768 102.29 14.177 102.29 12.5365H102.149ZM99.3053 15.4353C97.6507 15.4353 96.4619 14.1053 96.4619 12.5365H96.3204C96.3204 14.177 97.5662 15.5768 99.3053 15.5768V15.4353ZM109.736 17.2921C112.44 17.2921 114.537 15.1299 114.537 12.5365H114.396C114.396 15.0521 112.362 17.1506 109.736 17.1506V17.2921ZM114.537 12.5365C114.537 9.91502 112.44 7.79022 109.736 7.79022V7.93169C112.362 7.93169 114.396 9.9937 114.396 12.5365H114.537ZM109.736 7.79022C107.032 7.79022 104.934 9.91502 104.934 12.5365H105.076C105.076 9.9937 107.109 7.93169 109.736 7.93169V7.79022ZM104.934 12.5365C104.934 15.1299 107.031 17.2921 109.736 17.2921V17.1506C107.11 17.1506 105.076 15.0521 105.076 12.5365H104.934ZM106.892 12.5365C106.892 10.9682 108.09 9.64699 109.736 9.64699V9.50552C108.006 9.50552 106.751 10.8956 106.751 12.5365H106.892ZM109.736 9.64699C111.382 9.64699 112.579 10.9682 112.579 12.5365H112.721C112.721 10.8956 111.465 9.50552 109.736 9.50552V9.64699ZM112.579 12.5365C112.579 14.1053 111.39 15.4353 109.736 15.4353V15.5768C111.475 15.5768 112.721 14.177 112.721 12.5365H112.579ZM109.736 15.4353C108.081 15.4353 106.892 14.1053 106.892 12.5365H106.751C106.751 14.177 107.997 15.5768 109.736 15.5768V15.4353ZM119.484 17.0461L119.505 17.1136L119.555 17.0981V17.0461H119.484ZM119.484 15.4507H119.555V15.3569L119.464 15.3827L119.484 15.4507ZM117.842 3.01938H117.913V2.94864H117.842V3.01938ZM116.044 3.01938V2.94864H115.973V3.01938H116.044ZM118.488 17.2828C118.885 17.2828 119.206 17.2071 119.505 17.1136L119.463 16.9786C119.172 17.0696 118.866 17.1414 118.488 17.1414V17.2828ZM119.555 17.0461V15.4507H119.413V17.0461H119.555ZM119.464 15.3827C119.28 15.4353 119.094 15.4445 118.949 15.4445V15.586C119.099 15.586 119.3 15.5767 119.503 15.5187L119.464 15.3827ZM118.949 15.4445C118.512 15.4445 118.262 15.3366 118.117 15.143C117.967 14.944 117.913 14.6376 117.913 14.2057H117.772C117.772 14.6407 117.824 14.9891 118.004 15.2281C118.188 15.4725 118.491 15.586 118.949 15.586V15.4445ZM117.913 14.2057V3.01938H117.772V14.2057H117.913ZM117.842 2.94864H116.044V3.09012H117.842V2.94864ZM115.973 3.01938V14.6023H116.115V3.01938H115.973ZM115.973 14.6023C115.973 15.4141 116.16 16.0861 116.573 16.5557C116.988 17.0269 117.621 17.2828 118.488 17.2828V17.1414C117.649 17.1414 117.06 16.8947 116.679 16.4622C116.297 16.028 116.115 15.3951 116.115 14.6023H115.973ZM69.2864 34.2921C71.9909 34.2921 74.0881 32.1299 74.0881 29.5365H73.9466C73.9466 32.0521 71.9124 34.1506 69.2864 34.1506V34.2921ZM74.0881 29.5365C74.0881 26.915 71.9904 24.7902 69.2864 24.7902V24.9317C71.9128 24.9317 73.9466 26.9937 73.9466 29.5365H74.0881ZM69.2864 24.7902C66.5825 24.7902 64.4848 26.915 64.4848 29.5365H64.6263C64.6263 26.9937 66.6601 24.9317 69.2864 24.9317V24.7902ZM64.4848 29.5365C64.4848 32.1299 66.582 34.2921 69.2864 34.2921V34.1506C66.6605 34.1506 64.6263 32.0521 64.6263 29.5365H64.4848ZM66.443 29.5365C66.443 27.9682 67.6406 26.647 69.2864 26.647V26.5055C67.557 26.5055 66.3015 27.8956 66.3015 29.5365H66.443ZM69.2864 26.647C70.9323 26.647 72.1299 27.9682 72.1299 29.5365H72.2713C72.2713 27.8956 71.0159 26.5055 69.2864 26.5055V26.647ZM72.1299 29.5365C72.1299 31.1053 70.9411 32.4353 69.2864 32.4353V32.5768C71.0255 32.5768 72.2713 31.177 72.2713 29.5365H72.1299ZM69.2864 32.4353C67.6318 32.4353 66.443 31.1053 66.443 29.5365H66.3015C66.3015 31.177 67.5474 32.5768 69.2864 32.5768V32.4353ZM75.9728 25.027V25.0977H76.0435V25.027H75.9728ZM74.6448 25.027V24.9562H74.5741V25.027H74.6448ZM74.6448 26.7423H74.5741V26.813H74.6448V26.7423ZM75.9728 26.7423H76.0435V26.6715H75.9728V26.7423ZM75.9728 34H75.9021V34.0707H75.9728V34ZM77.7526 34V34.0707H77.8234V34H77.7526ZM77.7526 26.7423V26.6715H77.6819V26.7423H77.7526ZM80.0766 26.7423V26.813H80.1473V26.7423H80.0766ZM80.0766 25.027H80.1473V24.9562H80.0766V25.027ZM77.7526 25.027H77.6819V25.0977H77.7526V25.027ZM80.261 21.6793L80.2294 21.7426L80.3318 21.7938V21.6793H80.261ZM80.261 20.0747H80.3318V20.0192L80.2778 20.006L80.261 20.0747ZM75.9021 22.9151V25.027H76.0435V22.9151H75.9021ZM75.9728 24.9562H74.6448V25.0977H75.9728V24.9562ZM74.5741 25.027V26.7423H74.7156V25.027H74.5741ZM74.6448 26.813H75.9728V26.6715H74.6448V26.813ZM75.9021 26.7423V34H76.0435V26.7423H75.9021ZM75.9728 34.0707H77.7526V33.9293H75.9728V34.0707ZM77.8234 34V26.7423H77.6819V34H77.8234ZM77.7526 26.813H80.0766V26.6715H77.7526V26.813ZM80.1473 26.7423V25.027H80.0059V26.7423H80.1473ZM80.0766 24.9562H77.7526V25.0977H80.0766V24.9562ZM77.8234 25.027V23.1272H77.6819V25.027H77.8234ZM77.8234 23.1272C77.8234 22.4983 77.956 22.1277 78.1777 21.9122C78.3996 21.6967 78.7265 21.621 79.1544 21.621V21.4795C78.7154 21.4795 78.3414 21.556 78.0792 21.8107C77.8168 22.0656 77.6819 22.4835 77.6819 23.1272H77.8234ZM79.1544 21.621C79.3673 21.621 79.6178 21.6414 79.8269 21.6677C79.9313 21.6808 80.0245 21.6953 80.0968 21.7092C80.133 21.7161 80.1633 21.7228 80.1869 21.729C80.2118 21.7355 80.2249 21.7404 80.2294 21.7426L80.2927 21.6161C80.2741 21.6068 80.2489 21.599 80.2227 21.5921C80.1951 21.5849 80.1615 21.5776 80.1235 21.5703C80.0474 21.5556 79.951 21.5407 79.8445 21.5273C79.6316 21.5006 79.3749 21.4795 79.1544 21.4795V21.621ZM80.3318 21.6793V20.0747H80.1903V21.6793H80.3318ZM80.2778 20.006C79.8614 19.9042 79.3844 19.7919 78.7025 19.7919V19.9333C79.367 19.9333 79.8307 20.0423 80.2442 20.1434L80.2778 20.006ZM78.7025 19.7919C77.8086 19.7919 77.1045 20.045 76.6249 20.57C76.1464 21.0938 75.9021 21.8769 75.9021 22.9151H76.0435C76.0435 21.8968 76.2834 21.1536 76.7294 20.6654C77.1743 20.1783 77.8351 19.9333 78.7025 19.9333V19.7919ZM92.9329 22.5923L92.8889 22.6477L92.9486 22.6951L92.9914 22.6321L92.9329 22.5923ZM93.9473 21.0984L94.0058 21.1381L94.0439 21.0821L93.9895 21.0416L93.9473 21.0984ZM86.1916 30.5694L86.2458 30.524L86.1951 30.4634L86.1404 30.5205L86.1916 30.5694ZM84.9835 31.8328L84.9323 31.7839L84.8907 31.8275L84.9271 31.8756L84.9835 31.8328ZM89.6037 34.3197C91.0822 34.3197 92.2424 33.9221 93.0336 33.2004C93.8256 32.4779 94.2394 31.4384 94.2394 30.1729H94.0979C94.0979 31.4065 93.6955 32.4051 92.9382 33.0959C92.1801 33.7874 91.0578 34.1783 89.6037 34.1783V34.3197ZM94.2394 30.1729C94.2394 28.9397 93.8283 28.0906 93.2088 27.4643C92.5922 26.8409 91.7727 26.4423 90.9638 26.1007C90.1495 25.7569 89.3519 25.4727 88.7531 25.0769C88.1597 24.6847 87.7747 24.1912 87.7747 23.4315H87.6332C87.6332 24.2535 88.0563 24.7859 88.6751 25.1949C89.2884 25.6003 90.1069 25.8925 90.9088 26.231C91.716 26.5719 92.5127 26.9617 93.1082 27.5638C93.7008 28.1629 94.0979 28.976 94.0979 30.1729H94.2394ZM87.7747 23.4315C87.7747 22.8394 88.0096 22.388 88.4119 22.0827C88.8166 21.7755 89.397 21.6118 90.0925 21.6118V21.4703C89.377 21.4703 88.7631 21.6385 88.3263 21.97C87.8872 22.3033 87.6332 22.7972 87.6332 23.4315H87.7747ZM90.0925 21.6118C91.107 21.6118 92.051 21.9829 92.8889 22.6477L92.9768 22.5369C92.1179 21.8554 91.1437 21.4703 90.0925 21.4703V21.6118ZM92.9914 22.6321L94.0058 21.1381L93.8888 21.0586L92.8743 22.5526L92.9914 22.6321ZM93.9895 21.0416C92.6777 20.0647 91.538 19.7089 90.1755 19.7089V19.8503C91.5058 19.8503 92.6163 20.1954 93.905 21.1551L93.9895 21.0416ZM90.1755 19.7089C88.8995 19.7089 87.7892 20.0651 86.9967 20.733C86.2028 21.4021 85.7335 22.3791 85.7335 23.6068H85.875C85.875 22.4182 86.3278 21.4817 87.0879 20.8412C87.8493 20.1996 88.9246 19.8503 90.1755 19.8503V19.7089ZM85.7335 23.6068C85.7335 24.7675 86.145 25.5724 86.7636 26.1738C87.379 26.7721 88.1968 27.1662 89.004 27.5139C89.8162 27.8637 90.6131 28.165 91.2107 28.5787C91.8034 28.9889 92.1889 29.5022 92.1889 30.2743H92.3304C92.3304 29.4418 91.909 28.8899 91.2913 28.4624C90.6785 28.0382 89.8616 27.7292 89.0599 27.3839C88.2532 27.0365 87.4572 26.6508 86.8622 26.0724C86.2704 25.497 85.875 24.7284 85.875 23.6068H85.7335ZM92.1889 30.2743C92.1889 30.9024 91.9673 31.4357 91.5495 31.8126C91.1309 32.19 90.5084 32.4168 89.6959 32.4168V32.5583C90.5342 32.5583 91.1936 32.324 91.6442 31.9176C92.0955 31.5106 92.3304 30.9373 92.3304 30.2743H92.1889ZM89.6959 32.4168C88.1046 32.4168 87.0898 31.5331 86.2458 30.524L86.1373 30.6148C86.9902 31.6346 88.0411 32.5583 89.6959 32.5583V32.4168ZM86.1404 30.5205L84.9323 31.7839L85.0346 31.8817L86.2427 30.6183L86.1404 30.5205ZM84.9271 31.8756C86.2402 33.6078 87.7824 34.3197 89.6037 34.3197V34.1783C87.8284 34.1783 86.3273 33.4885 85.0398 31.7901L84.9271 31.8756ZM101.768 25.027V24.9562H101.72L101.702 25.0006L101.768 25.027ZM99.0382 31.8328L98.9725 31.8591L99.0381 32.0231L99.1039 31.8592L99.0382 31.8328ZM96.3177 25.027L96.3834 25.0007L96.3656 24.9562H96.3177V25.027ZM94.3719 25.027V24.9562H94.266L94.3065 25.054L94.3719 25.027ZM98.1437 34.1383L98.2091 34.1654L98.2202 34.1383L98.2091 34.1113L98.1437 34.1383ZM96.2255 38.777L96.1601 38.75L96.1197 38.8478H96.2255V38.777ZM98.0238 38.777V38.8478H98.0711L98.0892 38.8041L98.0238 38.777ZM103.723 25.027L103.788 25.054L103.829 24.9562H103.723V25.027ZM101.702 25.0006L98.9726 31.8065L99.1039 31.8592L101.834 25.0533L101.702 25.0006ZM99.1039 31.8066L96.3834 25.0007L96.252 25.0532L98.9725 31.8591L99.1039 31.8066ZM96.3177 24.9562H94.3719V25.0977H96.3177V24.9562ZM94.3065 25.054L98.0783 34.1654L98.2091 34.1113L94.4372 24.9999L94.3065 25.054ZM98.0783 34.1113L96.1601 38.75L96.2909 38.8041L98.2091 34.1654L98.0783 34.1113ZM96.2255 38.8478H98.0238V38.7063H96.2255V38.8478ZM98.0892 38.8041L103.788 25.054L103.658 24.9999L97.9585 38.7499L98.0892 38.8041ZM103.723 24.9562H101.768V25.0977H103.723V24.9562ZM109.727 27.2218L109.686 27.2797L109.743 27.3196L109.784 27.2635L109.727 27.2218ZM110.668 25.9307L110.725 25.9724L110.763 25.9194L110.713 25.8769L110.668 25.9307ZM104.83 31.6023L104.87 31.5442L104.812 31.5038L104.772 31.5619L104.83 31.6023ZM103.88 32.9671L103.822 32.9267L103.784 32.9816L103.837 33.0228L103.88 32.9671ZM107.338 34.2921C108.443 34.2921 109.296 34.0031 109.873 33.5097C110.452 33.0154 110.748 32.3218 110.748 31.5285H110.606C110.606 32.2845 110.325 32.9373 109.781 33.4021C109.236 33.8678 108.419 34.1506 107.338 34.1506V34.2921ZM110.748 31.5285C110.748 30.6928 110.45 30.1161 110.002 29.6978C109.556 29.2824 108.966 29.0266 108.386 28.822C107.799 28.6151 107.231 28.4626 106.802 28.2514C106.376 28.0416 106.118 27.789 106.118 27.397H105.977C105.977 27.8719 106.298 28.1611 106.739 28.3784C107.178 28.5943 107.768 28.7542 108.339 28.9554C108.916 29.1589 109.482 29.4068 109.905 29.8012C110.325 30.1927 110.606 30.7318 110.606 31.5285H110.748ZM106.118 27.397C106.118 27.171 106.198 26.9672 106.391 26.8178C106.588 26.6663 106.909 26.564 107.403 26.564V26.4225C106.892 26.4225 106.535 26.5277 106.305 26.7059C106.072 26.8861 105.977 27.1343 105.977 27.397H106.118ZM107.403 26.564C108.283 26.564 108.988 26.7901 109.686 27.2797L109.768 27.1639C109.046 26.6575 108.312 26.4225 107.403 26.4225V26.564ZM109.784 27.2635L110.725 25.9724L110.61 25.8891L109.67 27.1801L109.784 27.2635ZM110.713 25.8769C109.887 25.1722 108.763 24.7902 107.394 24.7902V24.9317C108.736 24.9317 109.825 25.3059 110.622 25.9846L110.713 25.8769ZM107.394 24.7902C106.389 24.7902 105.596 25.0849 105.053 25.5787C104.511 26.0728 104.224 26.761 104.224 27.5353H104.366C104.366 26.7972 104.638 26.1483 105.149 25.6833C105.66 25.218 106.416 24.9317 107.394 24.9317V24.7902ZM104.224 27.5353C104.224 28.3712 104.524 28.9381 104.976 29.3424C105.424 29.7436 106.018 29.9809 106.602 30.1698C107.192 30.3608 107.763 30.5007 108.194 30.7077C108.408 30.8103 108.58 30.9264 108.698 31.0676C108.815 31.2071 108.882 31.3736 108.882 31.5838H109.023C109.023 31.3398 108.944 31.1413 108.806 30.9767C108.67 30.8139 108.478 30.6871 108.255 30.5801C107.813 30.3677 107.22 30.2212 106.646 30.0352C106.065 29.8472 105.495 29.6171 105.07 29.237C104.649 28.86 104.366 28.3318 104.366 27.5353H104.224ZM108.882 31.5838C108.882 31.8256 108.783 32.0559 108.56 32.2275C108.335 32.4005 107.979 32.5183 107.458 32.5183V32.6598C107.998 32.6598 108.389 32.5378 108.646 32.3396C108.905 32.14 109.023 31.8677 109.023 31.5838H108.882ZM107.458 32.5183C106.658 32.5183 105.74 32.1485 104.87 31.5442L104.79 31.6604C105.672 32.2734 106.618 32.6598 107.458 32.6598V32.5183ZM104.772 31.5619L103.822 32.9267L103.938 33.0075L104.888 31.6427L104.772 31.5619ZM103.837 33.0228C104.739 33.73 105.769 34.2921 107.338 34.2921V34.1506C105.81 34.1506 104.81 33.606 103.924 32.9114L103.837 33.0228ZM112.872 22.0575V21.9867H112.801V22.0575H112.872ZM112.872 25.027V25.0977H112.943V25.027H112.872ZM111.452 25.027V24.9562H111.381V25.027H111.452ZM111.452 26.7423H111.381V26.813H111.452V26.7423ZM112.872 26.7423H112.943V26.6715H112.872V26.7423ZM116.994 33.8432L117.016 33.9107L117.065 33.8951V33.8432H116.994ZM116.994 32.2294H117.065V32.1249L116.968 32.1637L116.994 32.2294ZM114.661 26.7423V26.6715H114.59V26.7423H114.661ZM117.216 26.7423V26.813H117.286V26.7423H117.216ZM117.216 25.027H117.286V24.9562H117.216V25.027ZM114.661 25.027H114.59V25.0977H114.661V25.027ZM114.661 22.0575H114.732V21.9867H114.661V22.0575ZM112.801 22.0575V25.027H112.943V22.0575H112.801ZM112.872 24.9562H111.452V25.0977H112.872V24.9562ZM111.381 25.027V26.7423H111.523V25.027H111.381ZM111.452 26.813H112.872V26.6715H111.452V26.813ZM112.801 26.7423V31.3164H112.943V26.7423H112.801ZM112.801 31.3164C112.801 32.2076 113.018 32.9253 113.457 33.4209C113.896 33.918 114.549 34.1814 115.399 34.1814V34.0399C114.579 34.0399 113.969 33.7869 113.562 33.3272C113.155 32.866 112.943 32.1866 112.943 31.3164H112.801ZM115.399 34.1814C116.128 34.1814 116.514 34.0685 117.016 33.9107L116.973 33.7758C116.478 33.9315 116.108 34.0399 115.399 34.0399V34.1814ZM117.065 33.8432V32.2294H116.924V33.8432H117.065ZM116.968 32.1637C116.951 32.1703 116.909 32.182 116.842 32.1958C116.776 32.2093 116.691 32.224 116.59 32.2377C116.39 32.265 116.133 32.2877 115.86 32.2877V32.4292C116.14 32.4292 116.404 32.4059 116.61 32.3778C116.712 32.3638 116.801 32.3486 116.87 32.3344C116.938 32.3206 116.991 32.3069 117.021 32.295L116.968 32.1637ZM115.86 32.2877C115.412 32.2877 115.137 32.165 114.97 31.9518C114.801 31.7346 114.732 31.4088 114.732 30.9752H114.59C114.59 31.4177 114.66 31.7835 114.859 32.0389C115.061 32.2984 115.386 32.4292 115.86 32.4292V32.2877ZM114.732 30.9752V26.7423H114.59V30.9752H114.732ZM114.661 26.813H117.216V26.6715H114.661V26.813ZM117.286 26.7423V25.027H117.145V26.7423H117.286ZM117.216 24.9562H114.661V25.0977H117.216V24.9562ZM114.732 25.027V22.0575H114.59V25.027H114.732ZM114.661 21.9867H112.872V22.1282H114.661V21.9867ZM126.161 32.3861L126.217 32.4296L126.26 32.3739L126.205 32.3305L126.161 32.3861ZM124.926 31.4178L124.969 31.3621L124.918 31.3222L124.874 31.3694L124.926 31.4178ZM119.42 30.1083V30.0376H119.337L119.35 30.1199L119.42 30.1083ZM126.733 30.1083V30.179H126.801L126.804 30.1117L126.733 30.1083ZM119.457 28.7527L119.388 28.7379L119.37 28.8234H119.457V28.7527ZM124.953 28.7527V28.8234H125.034L125.023 28.7432L124.953 28.7527ZM122.426 34.2921C124.185 34.2921 125.367 33.5231 126.217 32.4296L126.106 32.3427C125.278 33.4072 124.135 34.1506 122.426 34.1506V34.2921ZM126.205 32.3305L124.969 31.3621L124.882 31.4735L126.118 32.4418L126.205 32.3305ZM124.874 31.3694C124.531 31.735 124.19 32.0237 123.794 32.2214C123.399 32.4188 122.947 32.5275 122.38 32.5275V32.669C122.966 32.669 123.441 32.5563 123.858 32.348C124.274 32.14 124.628 31.8385 124.977 31.4662L124.874 31.3694ZM122.38 32.5275C120.793 32.5275 119.724 31.512 119.49 30.0967L119.35 30.1199C119.595 31.6003 120.721 32.669 122.38 32.669V32.5275ZM119.42 30.179H126.733V30.0376H119.42V30.179ZM126.804 30.1117C126.813 29.9223 126.832 29.6861 126.832 29.5365H126.69C126.69 29.682 126.672 29.907 126.662 30.1049L126.804 30.1117ZM126.832 29.5365C126.832 28.197 126.374 27.01 125.564 26.1575C124.753 25.3045 123.593 24.7902 122.196 24.7902V24.9317C123.556 24.9317 124.679 25.4318 125.461 26.255C126.244 27.0785 126.69 28.2294 126.69 29.5365H126.832ZM122.196 24.7902C119.525 24.7902 117.579 26.9833 117.579 29.5089H117.72C117.72 27.0545 119.61 24.9317 122.196 24.9317V24.7902ZM117.579 29.5089C117.579 32.0248 119.386 34.2921 122.426 34.2921V34.1506C119.472 34.1506 117.72 31.9544 117.72 29.5089H117.579ZM119.526 28.7674C119.814 27.417 120.901 26.564 122.233 26.564V26.4225C120.835 26.4225 119.69 27.3217 119.388 28.7379L119.526 28.7674ZM122.233 26.564C122.984 26.564 123.601 26.7834 124.052 27.1651C124.503 27.5468 124.793 28.095 124.883 28.7621L125.023 28.7432C124.929 28.0454 124.624 27.464 124.144 27.0571C123.663 26.6504 123.012 26.4225 122.233 26.4225V26.564ZM124.953 28.6819H119.457V28.8234H124.953V28.6819ZM135.494 26.5578L135.43 26.5873L135.485 26.7057L135.554 26.5957L135.494 26.5578ZM130.09 26.0875H130.02V26.3012L130.147 26.1297L130.09 26.0875ZM130.09 25.027H130.161V24.9562H130.09V25.027ZM128.292 25.027V24.9562H128.221V25.027H128.292ZM128.292 34H128.221V34.0707H128.292V34ZM130.09 34V34.0707H130.161V34H130.09ZM134.222 34H134.151V34.0707H134.222V34ZM136.011 34V34.0707H136.082V34H136.011ZM140.152 34H140.081V34.0707H140.152V34ZM141.941 34V34.0707H142.011V34H141.941ZM138.602 24.7902C136.996 24.7902 135.97 25.6747 135.435 26.52L135.554 26.5957C136.07 25.781 137.055 24.9317 138.602 24.9317V24.7902ZM135.559 26.5283C134.972 25.2517 133.845 24.7902 132.682 24.7902V24.9317C133.806 24.9317 134.873 25.374 135.43 26.5873L135.559 26.5283ZM132.682 24.7902C131.47 24.7902 130.582 25.3079 130.034 26.0453L130.147 26.1297C130.669 25.4284 131.514 24.9317 132.682 24.9317V24.7902ZM130.161 26.0875V25.027H130.02V26.0875H130.161ZM130.09 24.9562H128.292V25.0977H130.09V24.9562ZM128.221 25.027V34H128.363V25.027H128.221ZM128.292 34.0707H130.09V33.9293H128.292V34.0707ZM130.161 34V29.3244H130.02V34H130.161ZM130.161 29.3244C130.161 28.3888 130.376 27.7207 130.746 27.2873C131.114 26.8558 131.646 26.647 132.304 26.647V26.5055C131.615 26.5055 131.04 26.7255 130.638 27.1954C130.238 27.6636 130.02 28.3696 130.02 29.3244H130.161ZM132.304 26.647C132.894 26.647 133.35 26.8133 133.661 27.1864C133.975 27.5623 134.151 28.1605 134.151 29.0478H134.293C134.293 28.1459 134.114 27.5084 133.77 27.0958C133.424 26.6805 132.921 26.5055 132.304 26.5055V26.647ZM134.151 29.0478V34H134.293V29.0478H134.151ZM134.222 34.0707H136.011V33.9293H134.222V34.0707ZM136.082 34V29.3244H135.94V34H136.082ZM136.082 29.3244C136.082 28.3888 136.296 27.7207 136.667 27.2874C137.037 26.8559 137.571 26.647 138.233 26.647V26.5055C137.54 26.5055 136.963 26.7254 136.56 27.1954C136.159 27.6635 135.94 28.3696 135.94 29.3244H136.082ZM138.233 26.647C138.819 26.647 139.276 26.8132 139.588 27.1865C139.902 27.5624 140.081 28.1607 140.081 29.0478H140.222C140.222 28.1457 140.041 27.5083 139.696 27.0957C139.349 26.6805 138.846 26.5055 138.233 26.5055V26.647ZM140.081 29.0478V34H140.222V29.0478H140.081ZM140.152 34.0707H141.941V33.9293H140.152V34.0707ZM142.011 34V28.8357H141.87V34H142.011ZM142.011 28.8357C142.011 27.3198 141.597 26.3057 140.958 25.6707C140.318 25.0361 139.464 24.7902 138.602 24.7902V24.9317C139.438 24.9317 140.252 25.17 140.858 25.7711C141.463 26.3719 141.87 27.3451 141.87 28.8357H142.011ZM76.9868 49.1925L77.0358 49.2436L77.0846 49.1968L77.0401 49.1459L76.9868 49.1925ZM75.8249 47.8645L75.8781 47.8179L75.832 47.7653L75.7789 47.8108L75.8249 47.8645ZM75.9448 40.3024L75.8934 40.3511L75.9453 40.4057L75.9965 40.3506L75.9448 40.3024ZM77.1805 38.9745L77.2323 39.0226L77.2781 38.9734L77.2312 38.9251L77.1805 38.9745ZM71.9516 51.3197C73.9636 51.3197 75.7237 50.4998 77.0358 49.2436L76.9379 49.1414C75.6494 50.3751 73.9235 51.1783 71.9516 51.1783V51.3197ZM77.0401 49.1459L75.8781 47.8179L75.7716 47.9111L76.9336 49.2391L77.0401 49.1459ZM75.7789 47.8108C74.8258 48.6264 73.4861 49.4168 71.9516 49.4168V49.5583C73.5342 49.5583 74.9058 48.7442 75.8709 47.9183L75.7789 47.8108ZM71.9516 49.4168C68.9676 49.4168 66.6551 46.9788 66.6551 44.0374H66.5136C66.5136 47.0533 68.8859 49.5583 71.9516 49.5583V49.4168ZM66.6551 44.0374C66.6551 41.122 68.9138 38.6118 71.9424 38.6118V38.4703C68.8291 38.4703 66.5136 41.0506 66.5136 44.0374H66.6551ZM71.9424 38.6118C73.5348 38.6118 74.8724 39.2754 75.8934 40.3511L75.9961 40.2537C74.9513 39.153 73.5777 38.4703 71.9424 38.4703V38.6118ZM75.9965 40.3506L77.2323 39.0226L77.1287 38.9263L75.893 40.2542L75.9965 40.3506ZM77.2312 38.9251C75.8999 37.5565 74.1205 36.7089 71.9516 36.7089V36.8503C74.0802 36.8503 75.8237 37.6811 77.1298 39.0238L77.2312 38.9251ZM71.9516 36.7089C67.7622 36.7089 64.5862 40.0056 64.5862 44.0281H64.7277C64.7277 40.0828 67.8412 36.8503 71.9516 36.8503V36.7089ZM64.5862 44.0281C64.5862 48.1259 67.8651 51.3197 71.9516 51.3197V51.1783C67.9412 51.1783 64.7277 48.0458 64.7277 44.0281H64.5862ZM84.7983 51H84.7275V51.0707H84.7983V51ZM86.5966 51V51.0707H86.6673V51H86.5966ZM80.1873 43.1244H80.1165V43.3438L80.2447 43.1657L80.1873 43.1244ZM80.1873 37.0194H80.258V36.9486H80.1873V37.0194ZM78.389 37.0194V36.9486H78.3182V37.0194H78.389ZM78.389 51H78.3182V51.0707H78.389V51ZM80.1873 51V51.0707H80.258V51H80.1873ZM82.5666 43.647C83.2628 43.647 83.7991 43.85 84.1625 44.2519C84.527 44.6551 84.7275 45.2694 84.7275 46.1123H84.869C84.869 45.2492 84.6638 44.5954 84.2675 44.1571C83.87 43.7175 83.2905 43.5055 82.5666 43.5055V43.647ZM84.7275 46.1123V51H84.869V46.1123H84.7275ZM84.7983 51.0707H86.5966V50.9293H84.7983V51.0707ZM86.6673 51V45.9555H86.5258V51H86.6673ZM86.6673 45.9555C86.6673 44.4435 86.2367 43.3994 85.5507 42.7336C84.8654 42.0683 83.935 41.7902 82.9539 41.7902V41.9317C83.9094 41.9317 84.8003 42.2023 85.4522 42.8351C86.1035 43.4673 86.5258 44.4704 86.5258 45.9555H86.6673ZM82.9539 41.7902C81.615 41.7902 80.6887 42.3064 80.1298 43.0831L80.2447 43.1657C80.774 42.43 81.6553 41.9317 82.9539 41.9317V41.7902ZM80.258 43.1244V37.0194H80.1165V43.1244H80.258ZM80.1873 36.9486H78.389V37.0901H80.1873V36.9486ZM78.3182 37.0194V51H78.4597V37.0194H78.3182ZM78.389 51.0707H80.1873V50.9293H78.389V51.0707ZM80.258 51V46.3244H80.1165V51H80.258ZM80.258 46.3244C80.258 45.3885 80.4705 44.7214 80.8589 44.2886C81.2461 43.8573 81.819 43.647 82.5666 43.647V43.5055C81.7925 43.5055 81.1757 43.724 80.7537 44.1941C80.3329 44.6628 80.1165 45.3699 80.1165 46.3244H80.258ZM95.7452 49.8657H95.816V49.6859L95.6934 49.8175L95.7452 49.8657ZM95.7452 51H95.6745V51.0707H95.7452V51ZM97.5343 51V51.0707H97.605V51H97.5343ZM97.5343 42.027H97.605V41.9562H97.5343V42.027ZM95.7452 42.027V41.9562H95.6745V42.027H95.7452ZM95.7452 43.1613L95.6934 43.2095L95.816 43.3411V43.1613H95.7452ZM88.0202 46.5089C88.0202 49.1675 90.1919 51.2367 92.7019 51.2367V51.0953C90.269 51.0953 88.1617 49.0883 88.1617 46.5089H88.0202ZM92.7019 51.2367C93.9483 51.2367 95.0367 50.7305 95.797 49.9139L95.6934 49.8175C94.9597 50.6056 93.9087 51.0953 92.7019 51.0953V51.2367ZM95.6745 49.8657V51H95.816V49.8657H95.6745ZM95.7452 51.0707H97.5343V50.9293H95.7452V51.0707ZM97.605 51V42.027H97.4636V51H97.605ZM97.5343 41.9562H95.7452V42.0977H97.5343V41.9562ZM95.6745 42.027V43.1613H95.816V42.027H95.6745ZM95.797 43.1131C95.0367 42.2965 93.9483 41.7902 92.7019 41.7902V41.9317C93.9087 41.9317 94.9597 42.4214 95.6934 43.2095L95.797 43.1131ZM92.7019 41.7902C90.1922 41.7902 88.0202 43.8407 88.0202 46.5089H88.1617C88.1617 43.9205 90.2687 41.9317 92.7019 41.9317V41.7902ZM89.9784 46.5089C89.9784 44.9146 91.2665 43.6193 92.8126 43.6193V43.4778C91.1863 43.4778 89.8369 44.8385 89.8369 46.5089H89.9784ZM92.8126 43.6193C94.4142 43.6193 95.6745 44.9055 95.6745 46.5089H95.816C95.816 44.8291 94.4941 43.4778 92.8126 43.4778V43.6193ZM95.6745 46.5089C95.6745 48.1216 94.4141 49.4076 92.8126 49.4076V49.5491C94.4942 49.5491 95.816 48.1977 95.816 46.5089H95.6745ZM92.8126 49.4076C91.2666 49.4076 89.9784 48.1125 89.9784 46.5089H89.8369C89.8369 48.1883 91.1862 49.5491 92.8126 49.5491V49.4076ZM106.194 51H106.123V51.0707H106.194V51ZM107.992 51V51.0707H108.063V51H107.992ZM101.583 43.0875H101.512V43.2983L101.64 43.1302L101.583 43.0875ZM101.583 42.027H101.654V41.9562H101.583V42.027ZM99.7848 42.027V41.9562H99.7141V42.027H99.7848ZM99.7848 51H99.7141V51.0707H99.7848V51ZM101.583 51V51.0707H101.654V51H101.583ZM103.962 43.647C104.659 43.647 105.195 43.85 105.558 44.2519C105.923 44.6551 106.123 45.2694 106.123 46.1123H106.265C106.265 45.2492 106.06 44.5954 105.663 44.1571C105.266 43.7175 104.686 43.5055 103.962 43.5055V43.647ZM106.123 46.1123V51H106.265V46.1123H106.123ZM106.194 51.0707H107.992V50.9293H106.194V51.0707ZM108.063 51V45.9555H107.922V51H108.063ZM108.063 45.9555C108.063 44.4435 107.633 43.3994 106.947 42.7336C106.261 42.0683 105.331 41.7902 104.35 41.7902V41.9317C105.305 41.9317 106.196 42.2023 106.848 42.8351C107.499 43.4673 107.922 44.4704 107.922 45.9555H108.063ZM104.35 41.7902C103.011 41.7902 102.085 42.3061 101.527 43.0448L101.64 43.1302C102.169 42.4302 103.051 41.9317 104.35 41.9317V41.7902ZM101.654 43.0875V42.027H101.512V43.0875H101.654ZM101.583 41.9562H99.7848V42.0977H101.583V41.9562ZM99.7141 42.027V51H99.8556V42.027H99.7141ZM99.7848 51.0707H101.583V50.9293H99.7848V51.0707ZM101.654 51V46.3244H101.512V51H101.654ZM101.654 46.3244C101.654 45.3885 101.866 44.7214 102.255 44.2886C102.642 43.8573 103.215 43.647 103.962 43.647V43.5055C103.188 43.5055 102.572 43.724 102.15 44.1941C101.729 44.6628 101.512 45.3699 101.512 46.3244H101.654ZM118.93 42.027H119.001V41.9562H118.93V42.027ZM117.141 42.027V41.9562H117.07V42.027H117.141ZM117.141 43.1613L117.089 43.2095L117.212 43.3411V43.1613H117.141ZM117.141 49.7735H117.212V49.5771L117.087 49.7284L117.141 49.7735ZM111.755 53.0196L111.813 52.9789L111.78 52.9316L111.727 52.9548L111.755 53.0196ZM110.114 53.7389L110.086 53.6742L110.012 53.7066L110.053 53.7756L110.114 53.7389ZM114.31 56.0414C115.293 56.0414 116.466 55.8018 117.395 55.0409C118.326 54.2779 119.001 52.9995 119.001 50.9447H118.859C118.859 52.966 118.197 54.2005 117.305 54.9315C116.41 55.6647 115.273 55.8999 114.31 55.8999V56.0414ZM119.001 50.9447V42.027H118.859V50.9447H119.001ZM118.93 41.9562H117.141V42.0977H118.93V41.9562ZM117.07 42.027V43.1613H117.212V42.027H117.07ZM117.193 43.1131C116.433 42.2965 115.344 41.7902 114.098 41.7902V41.9317C115.305 41.9317 116.356 42.4214 117.089 43.2095L117.193 43.1131ZM114.098 41.7902C111.588 41.7902 109.416 43.8407 109.416 46.5089H109.558C109.558 43.9205 111.665 41.9317 114.098 41.9317V41.7902ZM109.416 46.5089C109.416 49.1675 111.588 51.2367 114.098 51.2367V51.0953C111.665 51.0953 109.558 49.0883 109.558 46.5089H109.416ZM114.098 51.2367C115.373 51.2367 116.472 50.6926 117.196 49.8186L117.087 49.7284C116.39 50.5696 115.331 51.0953 114.098 51.0953V51.2367ZM117.07 49.7735V51.2674H117.212V49.7735H117.07ZM117.07 51.2674C117.07 52.2859 116.766 53.0103 116.275 53.4803C115.783 53.951 115.095 54.1754 114.31 54.1754V54.3169C115.121 54.3169 115.848 54.0848 116.373 53.5826C116.898 53.0797 117.212 52.3147 117.212 51.2674H117.07ZM114.31 54.1754C113.142 54.1754 112.325 53.706 111.813 52.9789L111.698 53.0603C112.237 53.8273 113.099 54.3169 114.31 54.3169V54.1754ZM111.727 52.9548L110.086 53.6742L110.142 53.8037L111.784 53.0844L111.727 52.9548ZM110.053 53.7756C110.878 55.1347 112.359 56.0414 114.31 56.0414V55.8999C112.406 55.8999 110.973 55.0176 110.174 53.7022L110.053 53.7756ZM111.374 46.5089C111.374 44.9146 112.662 43.6193 114.208 43.6193V43.4778C112.582 43.4778 111.233 44.8385 111.233 46.5089H111.374ZM114.208 43.6193C115.81 43.6193 117.07 44.9055 117.07 46.5089H117.212C117.212 44.8291 115.89 43.4778 114.208 43.4778V43.6193ZM117.07 46.5089C117.07 48.1216 115.81 49.4076 114.208 49.4076V49.5491C115.89 49.5491 117.212 48.1977 117.212 46.5089H117.07ZM114.208 49.4076C112.663 49.4076 111.374 48.1125 111.374 46.5089H111.233C111.233 48.1883 112.582 49.5491 114.208 49.5491V49.4076ZM129.038 49.3861L129.094 49.4296L129.137 49.3739L129.082 49.3305L129.038 49.3861ZM127.802 48.4178L127.846 48.3621L127.795 48.3222L127.751 48.3694L127.802 48.4178ZM122.297 47.1083V47.0376H122.213L122.227 47.1199L122.297 47.1083ZM129.61 47.1083V47.179H129.677L129.68 47.1117L129.61 47.1083ZM122.333 45.7527L122.264 45.7379L122.246 45.8234H122.333V45.7527ZM127.83 45.7527V45.8234H127.911L127.9 45.7432L127.83 45.7527ZM125.303 51.2921C127.062 51.2921 128.243 50.5231 129.094 49.4296L128.982 49.3427C128.154 50.4072 127.012 51.1506 125.303 51.1506V51.2921ZM129.082 49.3305L127.846 48.3621L127.759 48.4735L128.994 49.4418L129.082 49.3305ZM127.751 48.3694C127.408 48.735 127.066 49.0237 126.671 49.2214C126.276 49.4188 125.824 49.5275 125.257 49.5275V49.669C125.843 49.669 126.317 49.5563 126.734 49.348C127.15 49.14 127.505 48.8385 127.854 48.4662L127.751 48.3694ZM125.257 49.5275C123.67 49.5275 122.601 48.512 122.366 47.0967L122.227 47.1199C122.472 48.6003 123.598 49.669 125.257 49.669V49.5275ZM122.297 47.179H129.61V47.0376H122.297V47.179ZM129.68 47.1117C129.689 46.9223 129.708 46.6861 129.708 46.5365H129.567C129.567 46.682 129.548 46.907 129.539 47.1049L129.68 47.1117ZM129.708 46.5365C129.708 45.197 129.251 44.01 128.44 43.1575C127.629 42.3045 126.469 41.7902 125.072 41.7902V41.9317C126.433 41.9317 127.555 42.4318 128.338 43.255C129.12 44.0785 129.567 45.2294 129.567 46.5365H129.708ZM125.072 41.7902C122.402 41.7902 120.455 43.9833 120.455 46.5089H120.597C120.597 44.0545 122.487 41.9317 125.072 41.9317V41.7902ZM120.455 46.5089C120.455 49.0248 122.263 51.2921 125.303 51.2921V51.1506C122.349 51.1506 120.597 48.9544 120.597 46.5089H120.455ZM122.403 45.7674C122.691 44.417 123.778 43.564 125.109 43.564V43.4225C123.711 43.4225 122.566 44.3217 122.264 45.7379L122.403 45.7674ZM125.109 43.564C125.861 43.564 126.478 43.7834 126.929 44.1651C127.38 44.5468 127.67 45.095 127.76 45.7621L127.9 45.7432C127.806 45.0454 127.501 44.464 127.02 44.0571C126.54 43.6504 125.889 43.4225 125.109 43.4225V43.564ZM127.83 45.6819H122.333V45.8234H127.83V45.6819Z" fill="#1E2A55"/>
<path fill-rule="evenodd" clip-rule="evenodd" d="M11.2348 1.1875L15.5825 2.76355L15.2424 3.70174L11.9991 2.52604L11.3917 5.76556L10.4109 5.58166L11.2348 1.1875ZM21.2972 4.83512L28.8882 7.58687L28.5481 8.52505L20.9571 5.7733L21.2972 4.83512ZM34.6028 9.65843L42.1939 12.4102L41.8538 13.3484L34.2627 10.5966L34.6028 9.65843ZM10.3282 11.4376L8.89687 19.0713L7.91604 18.8873L9.34735 11.2537L10.3282 11.4376ZM47.9085 14.4817L52.085 15.9957L51.5281 19.9125L50.5401 19.772L50.9829 16.6577L47.5684 15.4199L47.9085 14.4817ZM7.83337 24.7433L6.40206 32.3769L5.42122 32.193L6.85254 24.5594L7.83337 24.7433ZM50.8093 24.9675L49.8094 31.9985L48.8214 31.858L49.8213 24.827L50.8093 24.9675ZM21.2241 29.4268L25.1074 32.8986L24.4423 33.6426L20.559 30.1708L21.2241 29.4268ZM49.0906 37.0535L48.0908 44.0845L47.1028 43.944L48.1026 36.913L49.0906 37.0535ZM30.6421 37.8468L37.6647 44.1253L36.9995 44.8693L29.9769 38.5908L30.6421 37.8468ZM5.33856 38.049L3.90724 45.6826L2.92641 45.4987L4.35772 37.865L5.33856 38.049ZM33.0207 46.9456L28.2125 48.2711L27.9473 47.309L32.7555 45.9835L33.0207 46.9456ZM47.3719 49.1395L46.7407 53.5783L42.5342 49.8175L43.1993 49.0735L46.0153 51.5912L46.384 48.999L47.3719 49.1395ZM21.4822 50.1265L12.8278 52.5123L12.5626 51.5502L21.217 49.1644L21.4822 50.1265ZM2.84374 51.3546L2.27533 54.3862L5.83225 53.4056L6.09747 54.3677L1 55.7729L1.86291 51.1707L2.84374 51.3546Z" fill="#1E2A55" stroke="#1E2A55" stroke-width="1.37685" stroke-linecap="square" stroke-linejoin="round"/>
<path fill-rule="evenodd" clip-rule="evenodd" d="M47.2357 23.0542L45.1556 27.6215L44.2474 27.2079L46.3275 22.6406L47.2357 23.0542ZM42.2363 34.0314L40.1562 38.5987L39.248 38.1851L41.3281 33.6178L42.2363 34.0314Z" fill="#1E2A55" stroke="#1E2A55" stroke-width="1.37685" stroke-linecap="square" stroke-linejoin="round"/>
<path fill-rule="evenodd" clip-rule="evenodd" d="M46.4094 18.9512L42.1368 20.0808L41.8817 19.116L46.1543 17.9865L46.4094 18.9512ZM36.486 21.5747L28.9057 23.5788L28.6506 22.614L36.231 20.61L36.486 21.5747ZM23.2549 25.0727L18.9823 26.2023L18.7273 25.2375L22.9998 24.1079L23.2549 25.0727Z" fill="#1E2A55" stroke="#1E2A55" stroke-width="1.37685" stroke-linecap="square" stroke-linejoin="round"/>
<path fill-rule="evenodd" clip-rule="evenodd" d="M15.1685 8.40496L16.0529 12.4002L15.0786 12.6159L14.1942 8.62064L15.1685 8.40496ZM17.1747 17.4677L18.0591 21.4629L17.0847 21.6786L16.2003 17.6833L17.1747 17.4677Z" fill="#1E2A55" stroke="#1E2A55" stroke-width="1.37685" stroke-linecap="square" stroke-linejoin="round"/>
</svg>
