<svg xmlns="http://www.w3.org/2000/svg" viewBox="0 0 1766 561"><defs><style>.cls-1{fill:#e9edd9;}.cls-2{fill:#238c32;}.cls-3{fill:#2ff141;}</style></defs><title>Risorsa 112</title><g id="Livello_2" data-name="Livello 2"><g id="Livello_1-2" data-name="Livello 1"><path class="cls-1" d="M593.51,334v3.56c0,24.45,17.82,47.36,51.94,47.36,28.52,0,48.88-15.78,48.88-38.19,0-16.29-8.66-29.54-35.14-40.23l-38.7-15.27c-42.77-16.8-65.18-38.19-65.18-71.29,0-45.32,41.76-74.34,92.68-74.34,47.86,0,85.55,23.43,88.6,64.67l-50.41,6.11v-4.07c0-22.92-14.76-41.25-45.31-41.25-23.94,0-43.79,15.27-43.79,35.65,0,14.26,8.65,30,41.24,42.77l41.24,15.78c39.72,15.78,59.07,36.66,59.07,67.21,0,50.41-47.36,77.91-99.81,77.91-49.9,0-95.73-23.43-95.73-70.27Zm214.66-51.43c6.11,58.56,41.76,87.07,84,87.07,31.06,0,59.58-12.73,77.9-32.59-3.05,42.26-45.31,73.32-91.66,73.32-64.67,0-115.07-53.47-115.07-128.32,0-69.26,41.24-136.47,118.13-136.47,46.33,0,92.17,28,92.17,80.45a68.14,68.14,0,0,1-.51,10.18Zm.51-38.19H923.26c0-56-24.95-73.33-50.41-73.33C845.86,171.06,814.29,189.4,808.69,244.39Zm234.18,38.19c6.11,58.56,41.76,87.07,84,87.07,31.06,0,59.58-12.73,77.9-32.59-3.05,42.26-45.31,73.32-91.66,73.32-64.67,0-115.07-53.47-115.07-128.32,0-69.26,41.24-136.47,118.13-136.47,46.33,0,92.17,28,92.17,80.45a68.14,68.14,0,0,1-.51,10.18Zm.51-38.19h114.57c0-56-24.95-73.33-50.41-73.33C1080.54,171.06,1049,189.4,1043.37,244.39ZM1452.72,405.3h-44.3V367.11c-17.82,27-46.84,43.28-73.83,43.28-52.45,0-101.33-43.79-101.33-125.27,0-84,50.41-139.52,120.68-139.52,19.35,0,39.71,4.07,54.48,11.2v-108l44.3-6.62Zm-44.3-49.9V197.54c-13.75-15.78-34.11-26-56-26-36.16,0-72.82,28.52-72.82,99.81,0,57.54,26.48,102.35,78.42,102.35C1376.34,373.73,1395.69,366.09,1408.42,355.39ZM1531.63,334v3.56c0,24.45,17.82,47.36,51.94,47.36,28.52,0,48.88-15.78,48.88-38.19,0-16.29-8.65-29.54-35.13-40.23l-38.7-15.27c-42.77-16.8-65.18-38.19-65.18-71.29,0-45.32,41.75-74.34,92.68-74.34,47.86,0,85.55,23.43,88.6,64.67l-50.41,6.11v-4.07c0-22.92-14.77-41.25-45.32-41.25-23.93,0-43.79,15.27-43.79,35.65,0,14.26,8.66,30,41.25,42.77l41.24,15.78c39.72,15.78,59.07,36.66,59.07,67.21,0,50.41-47.35,77.91-99.81,77.91-49.9,0-95.73-23.43-95.73-70.27Zm203.12,8.72A31.24,31.24,0,1,0,1766,374,31.24,31.24,0,0,0,1734.76,342.72Z"/><path class="cls-2" d="M227.6,263c2.06-1,4-1.91,6.1-2.79-1.76-1.25-3.53-2.5-5.22-3.82Q227.93,259.66,227.6,263Z"/><path class="cls-2" d="M469.69,144.83A159.42,159.42,0,0,0,230.32,246.06a124.92,124.92,0,0,0,13.45,9.7,172.56,172.56,0,0,1,16.91-6.25,4.74,4.74,0,0,0,.88-.29,169.6,169.6,0,0,1,148,25,160.17,160.17,0,0,0,60.14-129.39Z"/><path class="cls-2" d="M448.37,331.63a159.3,159.3,0,0,0-194.08-69.47,174.83,174.83,0,0,1,67.93,80.43c.15.44,2.5,6.25,2.72,6.91A175.28,175.28,0,0,1,336,407.35v7.87h0c-.15,5.44-.51,10.81-1.1,16.17A159.83,159.83,0,0,0,469.62,416,158.22,158.22,0,0,0,448.37,331.63Z"/><path class="cls-2" d="M242.16,297.37q-3.09,1.54-6.4,3.09c1.84,1.25,3.68,2.57,5.44,4C241.64,302.08,241.94,299.72,242.16,297.37Z"/><path class="cls-2" d="M239.37,314.8a124.92,124.92,0,0,0-13.45-9.7c-4,1.69-8,3.31-12.13,4.71h-.07A169.44,169.44,0,0,1,60.13,286.64,159.54,159.54,0,0,0,.07,416,159.3,159.3,0,0,0,239.37,314.8Z"/><path class="cls-2" d="M215.4,298.7a174.68,174.68,0,0,1-67.86-80.43h0c-.37-.81-2.65-6.69-2.72-6.91h0a175.28,175.28,0,0,1-11.1-57.86v-7.87c.15-5.44.51-10.81,1.1-16.17A159.34,159.34,0,0,0,.14,144.83,159.29,159.29,0,0,0,215.4,298.7Z"/><path class="cls-3" d="M313.69,476.38c.15-.37,2.57-6.54,2.65-6.62A164.24,164.24,0,0,0,326.85,415v-7.43a166.89,166.89,0,0,0-10.51-54.84c-.07-.29-2.43-6.1-2.65-6.62a166.18,166.18,0,0,0-70.58-80,134.9,134.9,0,0,1-49.7-49.92c-2.43-4.41-7-14.41-8.67-18.38a134.39,134.39,0,0,1,2.65-103.07c1.69-3.6,6.1-12,6.4-12.5l1.62-2.87h0a133,133,0,0,1,39.4-41.32,134.7,134.7,0,0,1,58.59,99.39,145.5,145.5,0,0,1,31-16.1A169.46,169.46,0,0,0,299.65,58,165.62,165.62,0,0,0,243.11,4.48C241,3.23,238.85,2.06,236.42.81L234.88,0l-1.54.81c-2.43,1.25-4.56,2.43-6.69,3.68a166.18,166.18,0,0,0-70.58,80c-.07.22-2.57,6.4-2.65,6.62a164.31,164.31,0,0,0-10.51,54.84v7.43a166.89,166.89,0,0,0,10.51,54.84c.07.29,2.43,6.1,2.65,6.62a166.18,166.18,0,0,0,70.58,80,134.9,134.9,0,0,1,49.7,49.92c2.43,4.41,7,14.41,8.67,18.38a134.39,134.39,0,0,1-2.65,103.07c-1.69,3.6-6.1,12-6.4,12.5l-1.62,2.87h0A133,133,0,0,1,235,522.85a134.28,134.28,0,0,1-58.08-95.2,289.48,289.48,0,0,1-30.8,15.59A168.91,168.91,0,0,0,170.19,503a165.62,165.62,0,0,0,56.53,53.52c2.13,1.25,4.26,2.43,6.69,3.68L235,561l1.4-1c2.43-1.25,4.56-2.43,6.69-3.68A165.63,165.63,0,0,0,313.69,476.38Z"/></g></g></svg>