<?xml version="1.0" encoding="UTF-8" standalone="no"?>
<!DOCTYPE svg PUBLIC "-//W3C//DTD SVG 1.1//EN" "http://www.w3.org/Graphics/SVG/1.1/DTD/svg11.dtd">
<svg xmlns="http://www.w3.org/2000/svg" xmlns:xlink="http://www.w3.org/1999/xlink" version="1.1" width="386.449pt" height="157.353pt" viewBox="0 0 386.449 157.353">
<g enable-background="new">
<g id="Layer-1" data-name="Layer 1">
<clipPath id="cp0">
<path transform="matrix(1,0,0,-1,0,157.353)" d="M 0 157.353 L 386.449 157.353 L 386.449 0 L 0 0 Z "/>
</clipPath>
<g clip-path="url(#cp0)">
<path transform="matrix(1,0,0,-1,106.988,65.6859)" d="M 0 0 L 30.476 0 L 30.529 -.053 L 30.533 -.044 C 29.025 7.566 26.037 14.94 21.567 21.618 L 21.55 21.626 L 21.55 21.55 Z " fill="#eeb29c"/>
<path transform="matrix(1,0,0,-1,56.7575,55.693696)" d="M 0 0 L 9.991 -4.139 L 9.991 6.676 L -11.558 28.226 L -11.634 28.226 L -11.663 28.156 Z " fill="#e1e182"/>
<path transform="matrix(1,0,0,-1,19.6057,65.6859)" d="M 0 0 L 30.476 0 L 8.926 21.55 L 8.926 21.626 L 8.917 21.622 C 4.542 15.061 1.489 7.688 -.057 -.044 L -.054 -.053 Z " fill="#c7e7de"/>
<path transform="matrix(1,0,0,-1,50.0813,65.6859)" d="M 0 0 L 10.814 0 L 6.676 9.992 L -21.48 21.654 L -21.55 21.626 L -21.55 21.55 Z " fill="#bbd8a6"/>
<path transform="matrix(1,0,0,-1,66.7488,65.6859)" d="M 0 0 L 0 5.854 L -9.991 9.992 L -5.853 0 Z " fill="#adca7a"/>
<path transform="matrix(1,0,0,-1,78.5349,46.673196)" d="M 0 0 L 11.662 28.155 L 11.732 28.185 L 11.726 28.191 C 4.118 29.711 -3.839 29.771 -11.719 28.198 L -11.732 28.185 L -11.663 28.155 Z " fill="#f5ea99"/>
<path transform="matrix(1,0,0,-1,66.7488,49.0179)" d="M 0 0 L 7.647 -7.647 L 11.786 2.345 L .124 30.5 L .054 30.529 L 0 30.476 Z " fill="#eade74"/>
<path transform="matrix(1,0,0,-1,74.3962,56.6653)" d="M 0 0 L -7.647 7.647 L -7.647 -3.167 L -2.24 -5.407 Z " fill="#dad069"/>
<path transform="matrix(1,0,0,-1,78.5349,77.47099)" d="M 0 0 L -6.378 15.398 L -11.786 17.639 L -11.786 11.785 Z " fill="#a7be6b"/>
<path transform="matrix(1,0,0,-1,111.9416,27.45929)" d="M 0 0 C -6.562 4.375 -13.933 7.428 -21.666 8.974 L -21.675 8.971 L -21.621 8.917 L -21.621 -21.559 L -.072 -.009 L .004 -.009 " fill="#f7df7f"/>
<path transform="matrix(1,0,0,-1,78.5349,46.673196)" d="M 0 0 L 4.138 -9.992 L 11.786 -2.345 L 11.786 28.131 L 11.732 28.185 L 11.662 28.155 Z " fill="#f6d25f"/>
<path transform="matrix(1,0,0,-1,82.6731,56.6653)" d="M 0 0 L -4.138 9.992 L -8.277 0 L -4.138 -4.139 Z " fill="#e7c25b"/>
<path transform="matrix(1,0,0,-1,78.5349,77.47099)" d="M 0 0 L 0 16.667 L -4.139 20.806 L -6.378 15.398 Z " fill="#d3b55c"/>
<path transform="matrix(1,0,0,-1,128.5378,44.041299)" d="M 0 0 C -4.459 6.685 -10.128 12.268 -16.583 16.573 L -16.592 16.573 L -16.563 16.503 L -28.226 -11.652 L -.07 .01 L 0 -.019 " fill="#f9c78b"/>
<path transform="matrix(1,0,0,-1,66.8093,136.4603)" d="M 0 0 L 11.726 -11.726 L 23.445 -.007 C 15.565 -1.581 7.607 -1.52 0 0 " fill="#6695c3"/>
<path transform="matrix(1,0,0,-1,19.5451,65.7454)" d="M 0 0 L -11.726 -11.726 L -.006 -23.445 C -1.58 -15.565 -1.52 -7.608 0 0 " fill="#90d2e2"/>
<path transform="matrix(1,0,0,-1,137.5241,89.196598)" d="M 0 0 L 11.726 11.726 L .006 23.444 C 1.58 15.564 1.52 7.607 0 0 " fill="#d0919a"/>
<path transform="matrix(1,0,0,-1,28.5315,110.900699)" d="M 0 0 L 0 -16.573 L 16.583 -16.573 C 10.128 -12.269 4.459 -6.686 0 0 " fill="#32b8e2"/>
<path transform="matrix(1,0,0,-1,19.5451,89.22099)" d="M 0 0 L -6.343 -15.312 L 8.978 -21.657 C 4.663 -15.21 1.561 -7.882 0 0 " fill="#6fc9e7"/>
<path transform="matrix(1,0,0,-1,45.1272,127.4827)" d="M 0 0 L 6.346 -15.32 L 21.666 -8.975 C 13.933 -7.428 6.562 -4.375 0 0 " fill="#169dd3"/>
<path transform="matrix(1,0,0,-1,137.5207,89.2122)" d="M 0 0 C -1.546 -7.733 -4.6 -15.104 -8.974 -21.666 L 6.346 -15.32 Z " fill="#c77a9d"/>
<path transform="matrix(1,0,0,-1,13.2024,50.4095)" d="M 0 0 L 6.346 -15.32 C 7.893 -7.588 10.946 -.216 15.32 6.346 Z " fill="#beddd0"/>
<path transform="matrix(1,0,0,-1,128.5378,44.041299)" d="M 0 0 L 0 16.573 L -16.583 16.573 C -10.128 12.268 -4.459 6.685 0 0 " fill="#e6b784"/>
<path transform="matrix(1,0,0,-1,137.5241,65.722)" d="M 0 0 L 6.343 15.313 L -8.978 21.658 C -4.663 15.211 -1.561 7.883 0 0 " fill="#d0a293"/>
<path transform="matrix(1,0,0,-1,105.5959,12.139496)" d="M 0 0 L -15.32 -6.346 C -7.587 -7.892 -.216 -10.945 6.346 -15.32 Z " fill="#f8d178"/>
<path transform="matrix(1,0,0,-1,45.1052,27.468094)" d="M 0 0 L .019 0 L .026 .017 L .025 .017 L 6.368 15.329 L 6.361 15.345 C -2.281 11.761 -10.06 6.513 -16.574 0 Z " fill="#e8eda9"/>
<path transform="matrix(1,0,0,-1,51.4734,12.139496)" d="M 0 0 L 0 0 L 15.329 -6.349 L 15.342 -6.336 L 27.062 5.383 C 17.473 5.383 8.331 3.474 -.007 .016 Z " fill="#f4eb7e"/>
<path transform="matrix(1,0,0,-1,90.2668,18.488602)" d="M 0 0 L .009 .003 L 15.329 6.35 L 15.329 6.349 L 15.329 6.35 L 15.336 6.365 C 6.998 9.823 -2.144 11.732 -11.732 11.732 L -.006 .007 Z " fill="#f1e169"/>
<path transform="matrix(1,0,0,-1,105.5959,12.138992)" d="M 0 0 L 6.35 -15.329 L 6.359 -15.329 L 22.942 -15.329 C 16.428 -8.816 8.649 -3.568 .007 .016 Z " fill="#fdbc60"/>
<path transform="matrix(1,0,0,-1,28.5315,127.47389)" d="M 0 0 L 0 16.573 L 0 16.592 L -.017 16.599 L -15.329 22.941 L -15.345 22.935 C -11.761 14.292 -6.513 6.513 0 0 " fill="#32aad5"/>
<path transform="matrix(1,0,0,-1,19.5451,89.22099)" d="M 0 0 L 0 0 L .007 .018 L -.006 .03 L -11.726 11.75 C -11.726 2.161 -9.816 -6.98 -6.358 -15.318 L -6.343 -15.312 Z " fill="#6dcff1"/>
<path transform="matrix(1,0,0,-1,137.5173,65.738597)" d="M 0 0 L .013 -.014 L 11.732 -11.732 C 11.732 -2.145 9.823 6.997 6.365 15.335 L 6.35 15.329 Z " fill="#ee725b"/>
<path transform="matrix(1,0,0,-1,128.5378,27.468094)" d="M 0 0 L 0 -16.592 L 15.329 -22.941 L 15.345 -22.936 C 11.761 -14.292 6.513 -6.514 0 0 " fill="#f6926e"/>
<path transform="matrix(1,0,0,-1,128.5378,127.47389)" d="M 0 0 C 6.513 6.513 11.761 14.292 15.345 22.935 L 15.329 22.941 L 0 16.592 Z " fill="#a561a7"/>
<path transform="matrix(1,0,0,-1,149.2497,77.47099)" d="M 0 0 L -11.726 -11.726 L -11.732 -11.732 L -5.383 -27.062 L -5.367 -27.068 C -1.91 -18.73 0 -9.589 0 0 " fill="#e76887"/>
<path transform="matrix(1,0,0,-1,7.8195,77.47099)" d="M 0 0 L 11.726 11.726 L 11.732 11.732 L 11.729 11.741 L 5.383 27.062 L 5.367 27.067 C 1.91 18.729 0 9.588 0 0 " fill="#acdee2"/>
<path transform="matrix(1,0,0,-1,28.5227,44.063798)" d="M 0 0 L .009 .004 L .009 .013 L .009 16.596 C -6.504 10.082 -11.752 2.303 -15.336 -6.34 L -15.32 -6.346 Z " fill="#d6ebd4"/>
<path transform="matrix(1,0,0,-1,51.4734,142.803)" d="M 0 0 L 0 0 L -6.346 15.32 L -6.35 15.329 L -22.942 15.329 C -16.428 8.815 -8.649 3.567 -.007 -.017 Z " fill="#1c83a9"/>
<path transform="matrix(1,0,0,-1,66.8025,136.4534)" d="M 0 0 L -15.329 -6.35 L -15.336 -6.366 C -6.998 -9.823 2.144 -11.732 11.732 -11.732 Z " fill="#166f93"/>
<path transform="matrix(1,0,0,-1,128.5378,127.47389)" d="M 0 0 L -16.592 0 L -22.942 -15.329 L -22.935 -15.346 C -14.292 -11.762 -6.514 -6.514 0 0 " fill="#48609c"/>
<path transform="matrix(1,0,0,-1,90.2839,136.4612)" d="M 0 0 L -.017 .008 L -.03 -.006 L -11.749 -11.725 C -2.161 -11.725 6.981 -9.815 15.319 -6.358 L 15.312 -6.342 Z " fill="#176894"/>
<path transform="matrix(1,0,0,-1,90.2605,18.481797)" d="M 0 0 L -11.726 11.726 L -23.445 .006 C -15.565 1.58 -7.608 1.52 0 0 " fill="#f4d885"/>
<path transform="matrix(1,0,0,-1,90.3205,49.0179)" d="M 0 0 L 0 -10.814 L 9.992 -6.676 L 21.654 21.48 L 21.625 21.55 L 21.549 21.55 Z " fill="#f0ab5c"/>
<path transform="matrix(1,0,0,-1,90.3205,59.8323)" d="M 0 0 L 0 10.814 L -7.647 3.167 L -5.407 -2.24 Z " fill="#ec9c56"/>
<path transform="matrix(1,0,0,-1,78.5349,77.47099)" d="M 0 0 L 6.378 15.398 L 4.138 20.806 L 0 16.667 Z " fill="#de9050"/>
<path transform="matrix(1,0,0,-1,106.988,65.6859)" d="M 0 0 L 21.55 21.55 L 21.55 21.626 L 21.48 21.654 L -6.676 9.992 L -10.814 0 Z " fill="#e9845c"/>
<path transform="matrix(1,0,0,-1,90.3205,65.6859)" d="M 0 0 L 5.853 0 L 9.992 9.992 L 0 5.854 Z " fill="#e47a50"/>
<path transform="matrix(1,0,0,-1,78.5349,77.47099)" d="M 0 0 L 11.786 11.785 L 11.786 17.639 L 6.378 15.398 Z " fill="#dc734d"/>
<path transform="matrix(1,0,0,-1,109.3327,77.47099)" d="M 0 0 L 28.156 -11.663 L 28.185 -11.732 L 28.191 -11.726 C 29.711 -4.118 29.771 3.839 28.198 11.719 L 28.185 11.732 L 28.156 11.662 Z " fill="#eb9ba4"/>
<path transform="matrix(1,0,0,-1,106.988,65.6859)" d="M 0 0 L -7.647 -7.646 L 2.345 -11.785 L 30.5 -.123 L 30.529 -.053 L 30.476 0 Z " fill="#dc7163"/>
<path transform="matrix(1,0,0,-1,99.341,73.3323)" d="M 0 0 L 7.647 7.646 L -3.167 7.646 L -5.407 2.239 Z " fill="#d96452"/>
<path transform="matrix(1,0,0,-1,93.9338,71.093097)" d="M 0 0 L 2.24 5.407 L -3.613 5.407 L -15.399 -6.378 Z " fill="#d45f4f"/>
<path transform="matrix(1,0,0,-1,19.5813,89.134098)" d="M 0 0 L 28.156 11.663 L 0 23.325 L -.029 23.396 L -.036 23.389 C -1.556 15.78 -1.616 7.823 -.042 -.057 L -.029 -.069 Z " fill="#a9deec"/>
<path transform="matrix(1,0,0,-1,28.5315,110.8069)" d="M 0 0 L 21.55 21.55 L -8.926 21.55 L -8.979 21.604 L -8.983 21.595 C -7.476 13.984 -4.487 6.609 -.017 -.068 L 0 -.075 Z " fill="#7dcfec"/>
<path transform="matrix(1,0,0,-1,50.0813,65.6859)" d="M 0 0 L -30.476 0 L -30.529 -.053 L -30.5 -.123 L -2.344 -11.785 L 7.647 -7.646 Z " fill="#6cc9ce"/>
<path transform="matrix(1,0,0,-1,63.136,71.093097)" d="M 0 0 L -2.24 5.407 L -13.055 5.407 L -5.408 -2.239 Z " fill="#5bbd98"/>
<path transform="matrix(1,0,0,-1,78.5344,77.47099)" d="M 0 0 L -11.786 11.785 L -17.639 11.785 L -15.398 6.378 Z " fill="#5eb37d"/>
<path transform="matrix(1,0,0,-1,47.737,77.47099)" d="M 0 0 L -28.156 -11.663 L -28.185 -11.732 L -28.131 -11.786 L 2.344 -11.786 L 9.991 -4.139 Z " fill="#0eb5d7"/>
<path transform="matrix(1,0,0,-1,61.8669,77.47099)" d="M 0 0 L -4.139 4.139 L -14.13 0 L -4.139 -4.139 Z " fill="#1ca0ad"/>
<path transform="matrix(1,0,0,-1,78.5344,77.47099)" d="M 0 0 L -15.398 6.378 L -20.806 4.139 L -16.667 0 Z " fill="#14947e"/>
<path transform="matrix(1,0,0,-1,128.5466,110.8782)" d="M 0 0 C 4.375 6.562 7.428 13.933 8.974 21.666 M 8.971 21.675 L 8.917 21.621 L -21.559 21.621 L -.009 .071 L -.009 -.004 " fill="#d682aa"/>
<path transform="matrix(1,0,0,-1,109.3327,77.47099)" d="M 0 0 L -9.992 -4.139 L -2.345 -11.786 L 28.131 -11.786 L 28.185 -11.732 L 28.156 -11.663 Z " fill="#ca617d"/>
<path transform="matrix(1,0,0,-1,99.341,81.609699)" d="M 0 0 L 9.992 4.139 L 0 8.277 L -4.139 4.139 Z " fill="#c15a5c"/>
<path transform="matrix(1,0,0,-1,78.5349,77.47099)" d="M 0 0 L 16.667 0 L 20.806 4.139 L 15.399 6.378 Z " fill="#b85853"/>
<path transform="matrix(1,0,0,-1,45.1237,127.47389)" d="M 0 0 L -.029 .069 L 11.634 28.226 L -16.522 16.562 L -16.592 16.592 L -16.592 16.573 C -12.133 9.888 -6.464 4.305 -.01 0 " fill="#4fc7eb"/>
<path transform="matrix(1,0,0,-1,56.7575,99.2484)" d="M 0 0 L 4.138 9.991 L -6.676 9.991 L -28.226 -11.559 L -28.226 -11.634 L -28.156 -11.663 Z " fill="#1a99c0"/>
<path transform="matrix(1,0,0,-1,57.7282,81.609699)" d="M 0 0 L -7.647 -7.647 L 3.167 -7.647 L 5.408 -2.24 Z " fill="#12728a"/>
<path transform="matrix(1,0,0,-1,61.8669,77.47099)" d="M 0 0 L -4.139 -4.139 L 1.269 -6.379 L 16.667 0 Z " fill="#0b535c"/>
<path transform="matrix(1,0,0,-1,106.988,89.257099)" d="M 0 0 L -10.814 0 L -6.676 -9.991 L 21.48 -21.654 L 21.55 -21.625 L 21.55 -21.55 Z " fill="#955d96"/>
<path transform="matrix(1,0,0,-1,93.9338,83.8499)" d="M 0 0 L 2.24 -5.407 L 13.054 -5.407 L 5.407 2.24 Z " fill="#7a4e6a"/>
<path transform="matrix(1,0,0,-1,78.5349,77.47099)" d="M 0 0 L 15.399 -6.379 L 20.806 -4.139 L 16.667 0 Z " fill="#6d424c"/>
<path transform="matrix(1,0,0,-1,66.8093,136.4603)" d="M 0 0 C 7.607 -1.52 15.565 -1.581 23.445 -.007 L 23.458 .007 L 23.388 .035 L 11.726 28.191 L .063 .035 L -.007 .007 " fill="#64a6d4"/>
<path transform="matrix(1,0,0,-1,66.8025,136.4534)" d="M 0 0 L -.054 .053 L -.054 30.528 L -21.603 8.979 L -21.679 8.979 L -21.675 8.971 C -15.113 4.596 -7.742 1.543 -.009 -.004 " fill="#3dabd9"/>
<path transform="matrix(1,0,0,-1,66.7488,105.925098)" d="M 0 0 L 0 10.815 L -9.991 6.677 L -21.654 -21.479 L -21.625 -21.549 L -21.549 -21.549 Z " fill="#1b6e92"/>
<path transform="matrix(1,0,0,-1,66.7488,89.257099)" d="M 0 0 L -5.853 0 L -9.991 -9.991 L 0 -5.853 Z " fill="#003147"/>
<path transform="matrix(1,0,0,-1,78.5344,77.47099)" d="M 0 0 L -15.398 -6.379 L -17.639 -11.786 L -11.786 -11.786 Z " fill="#022637"/>
<path transform="matrix(1,0,0,-1,66.7488,105.925098)" d="M 0 0 L 0 -30.476 L .054 -30.528 L .124 -30.5 L 11.786 -2.344 L 7.647 7.647 Z " fill="#0a4d70"/>
<path transform="matrix(1,0,0,-1,66.7488,95.109699)" d="M 0 0 L 0 -10.815 L 7.647 -3.168 L 5.408 2.239 Z " fill="#00092c"/>
<path transform="matrix(1,0,0,-1,78.5349,77.47099)" d="M 0 0 L -11.786 -11.786 L -11.786 -17.639 L -6.378 -15.399 Z " fill="#00041d"/>
<path transform="matrix(1,0,0,-1,90.3205,105.925098)" d="M 0 0 L 21.549 -21.549 L 21.625 -21.549 L 21.654 -21.479 L 9.992 6.677 L 0 10.815 Z " fill="#5d5d98"/>
<path transform="matrix(1,0,0,-1,90.3205,89.257099)" d="M 0 0 L 0 -5.853 L 9.992 -9.991 L 5.853 0 Z " fill="#3f3668"/>
<path transform="matrix(1,0,0,-1,78.5349,77.47099)" d="M 0 0 L 11.786 -11.786 L 17.639 -11.786 L 15.399 -6.379 Z " fill="#291e37"/>
<path transform="matrix(1,0,0,-1,90.3205,105.925098)" d="M 0 0 L -7.647 7.647 L -11.786 -2.344 L -.124 -30.5 L -.054 -30.528 L 0 -30.476 Z " fill="#295280"/>
<path transform="matrix(1,0,0,-1,82.6731,98.277698)" d="M 0 0 L 7.647 -7.647 L 7.647 3.168 L 2.24 5.407 Z " fill="#13123d"/>
<path transform="matrix(1,0,0,-1,84.9133,92.8704)" d="M 0 0 L 5.407 -2.239 L 5.407 3.613 L -6.378 15.399 Z " fill="#020423"/>
<path transform="matrix(1,0,0,-1,78.5349,94.13899)" d="M 0 0 L -4.139 -4.139 L 0 -14.13 L 4.138 -4.139 Z " fill="#010425"/>
<path transform="matrix(1,0,0,-1,72.1565,92.8704)" d="M 0 0 L 2.24 -5.407 L 6.378 -1.269 L 6.378 15.399 Z " fill="#00051c"/>
<path transform="matrix(1,0,0,-1,78.5349,77.47099)" d="M 0 0 L 0 -16.668 L 4.138 -20.807 L 6.378 -15.399 Z " fill="#00051c"/>
<path transform="matrix(1,0,0,-1,66.7488,49.0179)" d="M 0 0 L 0 30.476 L .054 30.529 L .036 30.536 C -7.846 28.975 -15.174 25.874 -21.622 21.559 L -21.625 21.55 L -21.549 21.55 Z " fill="#f0f0b9"/>
<path transform="matrix(1,0,0,-1,66.7849,18.481797)" d="M 0 0 L -15.312 6.343 L -21.658 -8.978 C -15.21 -4.663 -7.882 -1.561 0 0 " fill="#edd9a0"/>
<path transform="matrix(1,0,0,-1,90.2839,136.4612)" d="M 0 0 L 15.312 -6.342 L 21.658 8.979 C 15.211 4.663 7.883 1.562 0 0 " fill="#8a8db3"/>
<path transform="matrix(1,0,0,-1,90.2839,136.4612)" d="M 0 0 C 7.883 1.562 15.211 4.663 21.658 8.979 M 21.662 8.987 L 21.586 8.987 L .037 30.536 L .037 .061 L -.017 .008 " fill="#909bc6"/>
<path transform="matrix(1,0,0,-1,56.7575,55.693696)" d="M 0 0 L -11.663 28.156 L -11.634 28.226 L -11.652 28.226 C -18.337 23.767 -23.921 18.097 -28.226 11.643 L -28.226 11.634 L -28.156 11.662 Z " fill="#edf0d2"/>
<path transform="matrix(1,0,0,-1,45.1052,27.468094)" d="M 0 0 L -16.574 0 L -16.574 -16.583 C -12.269 -10.128 -6.685 -4.459 0 0 " fill="#dcdeb6"/>
<path transform="matrix(1,0,0,-1,111.9641,127.47389)" d="M 0 0 L 16.574 0 L 16.574 16.582 C 12.269 10.128 6.685 4.458 0 0 " fill="#a681a9"/>
<path transform="matrix(1,0,0,-1,111.9641,127.47389)" d="M 0 0 C 6.685 4.458 12.269 10.128 16.574 16.582 M 16.574 16.592 L 16.504 16.562 L -11.652 28.226 L .01 .069 L -.019 0 " fill="#af8ebb"/>
<path transform="matrix(1,0,0,-1,209.1076,52.056)" d="M 0 0 L -.995 -6.814 C -1.071 -7.579 -1.225 -7.656 -1.914 -7.656 L -12.248 -7.656 L -18.372 -51.29 C -18.525 -52.057 -18.678 -52.209 -19.443 -52.209 L -26.87 -52.209 C -27.635 -52.209 -28.094 -51.597 -28.017 -50.831 L -21.893 -7.656 L -31.845 -7.656 C -32.534 -7.656 -32.994 -7.044 -32.917 -6.277 L -31.999 .457 C -31.921 1.224 -31.769 1.376 -31.003 1.376 L -12.401 1.376 L -1.148 1.376 C -.383 1.376 .076 .765 0 0 " fill="#231f20"/>
<path transform="matrix(1,0,0,-1,245.6184,89.94949)" d="M 0 0 C -1.685 -9.187 -6.966 -14.697 -16.306 -14.697 L -23.349 -14.697 C -33.223 -14.697 -37.28 -7.963 -35.902 1.454 L -32.764 23.96 C -31.387 33.529 -26.104 39.654 -16.152 39.654 L -9.109 39.654 C .229 39.654 4.287 33.759 3.444 24.343 C 3.368 23.349 3.063 22.966 2.067 22.966 L -4.44 22.966 C -5.512 22.966 -6.2 23.653 -6.047 25.108 C -5.665 29.396 -6.813 30.62 -10.028 30.62 L -16.918 30.62 C -20.439 30.62 -22.507 28.707 -23.194 23.501 L -26.411 .994 C -27.099 -4.287 -25.951 -5.665 -22.507 -5.665 L -15.54 -5.665 C -12.325 -5.665 -10.259 -4.135 -9.416 .994 C -9.264 1.684 -8.88 1.99 -7.885 1.99 L -1.302 1.99 C -.383 1.99 .307 1.379 0 0 " fill="#231f20"/>
<path transform="matrix(1,0,0,-1,289.8576,89.94949)" d="M 0 0 C -1.685 -9.187 -6.966 -14.697 -16.306 -14.697 L -23.349 -14.697 C -33.223 -14.697 -37.28 -7.963 -35.902 1.454 L -32.764 23.96 C -31.387 33.529 -26.104 39.654 -16.152 39.654 L -9.109 39.654 C .229 39.654 4.287 33.759 3.444 24.343 C 3.368 23.349 3.063 22.966 2.067 22.966 L -4.44 22.966 C -5.512 22.966 -6.201 23.653 -6.047 25.108 C -5.665 29.396 -6.812 30.62 -10.028 30.62 L -16.918 30.62 C -20.439 30.62 -22.507 28.707 -23.194 23.501 L -26.41 .994 C -27.099 -4.287 -25.951 -5.665 -22.507 -5.665 L -15.54 -5.665 C -12.325 -5.665 -10.259 -4.135 -9.416 .994 C -9.263 1.684 -8.88 1.99 -7.885 1.99 L -1.302 1.99 C -.383 1.99 .307 1.379 0 0 " fill="#231f20"/>
<path transform="matrix(1,0,0,-1,338.0793,52.056)" d="M 0 0 L -7.273 -51.29 C -7.35 -52.057 -7.427 -52.209 -8.192 -52.209 L -15.617 -52.209 C -16.383 -52.209 -16.842 -51.597 -16.766 -50.831 L -13.856 -30.162 L -28.249 -30.162 L -31.157 -51.29 C -31.234 -52.057 -31.388 -52.209 -32.152 -52.209 L -39.578 -52.209 C -40.344 -52.209 -40.803 -51.597 -40.727 -50.831 L -33.53 .457 C -33.378 1.224 -33.224 1.376 -32.535 1.376 L -25.109 1.376 C -24.421 1.376 -23.809 .765 -24.038 0 L -26.946 -21.13 L -12.632 -21.13 L -9.57 .457 C -9.417 1.224 -9.264 1.376 -8.574 1.376 L -1.149 1.376 C -.46 1.376 .076 .765 0 0 " fill="#231f20"/>
<path transform="matrix(1,0,0,-1,378.9485,52.133096)" d="M 0 0 L -.919 -6.66 C -.995 -7.426 -1.302 -7.579 -1.991 -7.579 L -21.358 -7.579 L -23.195 -21.053 L -8.881 -21.053 C -8.115 -21.053 -7.578 -21.51 -7.732 -22.506 L -8.65 -29.166 C -8.727 -29.933 -9.033 -30.085 -9.722 -30.085 L -24.496 -30.085 L -26.334 -43.1 L -6.967 -43.1 C -6.201 -43.1 -5.665 -43.559 -5.818 -44.476 L -6.813 -51.213 C -6.891 -51.979 -7.196 -52.132 -7.886 -52.132 L -35.903 -52.132 C -36.668 -52.132 -37.128 -51.52 -37.052 -50.754 L -29.855 .534 C -29.702 1.301 -29.549 1.453 -28.86 1.453 L -1.148 1.453 C -.383 1.453 .152 .994 0 0 " fill="#231f20"/>
</g>
</g>
</g>
</svg>
